<svg width="646" height="289" viewBox="0 0 646 289" fill="none" xmlns="http://www.w3.org/2000/svg">
<path d="M41.9275 181.164C41.399 181.568 41.0457 182.115 40.8677 182.804C40.853 182.857 40.8276 182.905 40.7932 182.947C40.7589 182.989 40.7162 183.024 40.6682 183.048C40.6201 183.073 40.5676 183.087 40.5142 183.089C40.4608 183.092 40.4076 183.083 40.358 183.063C38.7319 182.433 37.8419 182.077 35.9326 181.011C34.0881 179.976 32.7208 181.156 30.9895 180.833C30.7306 180.784 30.4825 180.817 30.2452 180.93C28.6514 181.665 27.1385 181.245 25.6823 181.77C24.5335 182.185 23.2876 182.675 21.9446 183.241C21.8688 183.272 21.7875 183.287 21.7056 183.286C21.6238 183.284 21.543 183.267 21.4681 183.234C21.3933 183.2 21.326 183.152 21.2702 183.092C21.2144 183.033 21.1714 182.962 21.1437 182.885C20.6474 181.485 19.6362 181.094 18.1098 181.714C17.9448 181.778 17.7621 181.782 17.5945 181.724C17.4269 181.667 17.2854 181.551 17.1956 181.398C16.2841 179.826 14.9654 178.697 13.2395 178.013C13.0237 177.932 12.8053 177.922 12.5842 177.981C9.75258 178.781 8.85456 177.965 6.88863 176.203C6.6675 176.004 6.42749 175.98 6.1686 176.131C5.87735 176.292 5.5915 176.438 5.31104 176.567C5.009 176.702 4.76899 176.742 4.59101 176.688C4.41841 176.64 4.28897 176.54 4.20268 176.389C4.05705 176.125 4.0921 175.888 4.30784 175.678C4.85798 175.145 4.81753 174.579 4.18649 173.982C4.02327 173.834 3.91011 173.64 3.86288 173.424C3.5069 171.808 3.57164 169.328 1.16883 169.409C0.904552 169.419 0.777804 169.293 0.788591 169.029C0.842526 167.144 0.589029 165.302 0.0281051 163.503C-0.00266438 163.403 -0.00826956 163.298 0.0117854 163.195C0.0318403 163.093 0.0769407 162.997 0.143158 162.916C0.209375 162.835 0.294695 162.77 0.391682 162.729C0.48867 162.688 0.594386 162.67 0.699597 162.679C1.69739 162.765 2.51989 162.463 3.16711 161.774C3.37259 161.547 3.64372 161.389 3.94378 161.321L5.98253 160.812C6.28457 160.737 6.51378 160.567 6.67019 160.303C8.05363 158.001 9.66359 158.275 12.0502 158.372C12.1711 158.377 12.2917 158.351 12.4007 158.296C12.5097 158.241 12.6034 158.159 12.6732 158.057C13.2772 157.201 13.5712 156.255 13.555 155.221C13.555 154.92 13.6871 154.693 13.9514 154.543C14.7982 154.074 15.5048 153.447 16.0711 152.66C16.2437 152.423 16.4648 152.245 16.7345 152.127C17.7431 151.685 18.5467 150.988 19.1454 150.034C19.2964 149.797 19.353 149.541 19.3153 149.267C18.9674 146.52 21.265 147.295 22.9397 147.166C23.1878 147.145 23.3469 147.013 23.417 146.77L23.6759 145.817C23.7651 145.491 23.932 145.192 24.1622 144.944C24.3925 144.697 24.6791 144.509 24.9975 144.397C25.316 144.285 25.6566 144.252 25.9901 144.301C26.3236 144.35 26.64 144.479 26.912 144.678C27.6995 145.254 28.5975 145.599 29.6061 145.712C29.8973 145.75 30.1184 145.645 30.2695 145.397C30.647 144.788 31.1702 144.346 31.839 144.072C32.1356 143.948 32.3055 143.73 32.3486 143.417C32.5752 141.877 32.1626 140.616 31.1108 139.636C30.9113 139.448 30.7657 139.224 30.674 138.966C30.14 137.457 30.1292 136.081 30.6416 134.837C32.8476 129.467 35.8221 123.009 39.5652 115.463C40.4632 113.645 40.269 112.425 39.6461 110.647C39.556 110.399 39.5364 110.128 39.5894 109.864C40.2771 106.6 40.2609 103.675 40.8758 100.023C41.7333 94.933 39.8726 89.738 34.6867 87.7989C33.3815 87.3142 30.078 86.4901 24.7762 85.3266C24.0103 85.1597 22.643 84.4487 20.6744 83.1937C16.7345 80.681 17.7458 75.6718 21.3297 73.6035C28.5705 69.4264 27.9718 60.4745 24.0319 54.2534C23.3954 53.2408 22.2224 51.9265 20.5126 50.3107C17.0446 47.0358 14.329 42.7807 12.3657 37.5452C11.3625 34.8575 11.5729 32.6007 12.9968 30.7747C13.1845 30.5349 13.4509 30.369 13.7492 30.3061C15.8364 29.8698 17.7538 30.2172 19.7845 29.2962C20.0265 29.1858 20.2278 28.9989 20.3589 28.763C21.1571 27.3302 21.9014 26.4765 22.5918 26.2018C27.8397 24.1281 33.1415 22.0732 38.4972 20.0372C38.9827 19.8541 39.2766 19.5067 39.3791 18.995C39.913 16.4177 40.9081 12.7093 40.4713 9.93804C40.4227 9.66334 40.5117 9.43979 40.7383 9.26744L42.866 7.62732C43.1087 7.4388 43.3676 7.41189 43.6427 7.54655C45.8594 8.63726 47.7282 9.58255 49.8398 11.1338C53.1002 13.5414 56.1987 15.5128 60.3733 15.7067C64.6854 15.9006 70.1463 15.7148 71.8776 10.9722C72.8889 8.20097 75.8985 8.13633 76.6994 5.76908C76.8127 5.42891 77.0214 5.12807 77.3009 4.90194C77.5803 4.67581 77.919 4.53378 78.277 4.49255C80.2295 4.26094 82.2439 4.19629 84.3204 4.29863C85.4854 4.35787 86.5075 4.73223 87.3866 5.42167C88.8375 6.56355 90.1562 7.84009 91.3428 9.25128C93.333 11.6185 96.7147 14.0181 99.6353 14.826C101.669 15.3862 104.009 16.2938 106.658 17.5488C106.97 17.6942 107.793 17.8046 109.125 17.88C117.188 18.3109 122.714 18.2221 125.702 17.6134C127.797 17.1852 129.747 17.056 131.47 16.1834C133.339 15.2381 135.483 14.616 137.223 13.7757C140.062 12.3942 144.035 10.0835 146.526 10.8187C149.665 11.7397 151.518 9.05738 154.503 8.79884C155.879 8.67765 157.108 9.324 158.459 9.7522C158.729 9.83838 158.996 9.83838 159.26 9.7522C161.013 9.19742 162.769 9.22165 164.527 9.82491C164.784 9.91386 165.064 9.91103 165.32 9.81685C169.721 8.24137 172.99 8.73421 177.099 9.98651C180.141 10.9156 187.382 14.9796 188.903 17.7831C190.133 20.0507 191.007 22.3183 191.524 24.5859C191.59 24.8713 191.762 25.1209 192.006 25.2844C192.249 25.4479 192.545 25.513 192.835 25.4666L195.359 25.0707C195.613 25.033 195.836 25.0922 196.031 25.2484C197.09 26.0806 198.854 27.3087 199.801 26.0321C199.92 25.8717 200.085 25.7503 200.274 25.6835C200.463 25.6166 200.667 25.6073 200.861 25.6566C201.055 25.7059 201.23 25.8118 201.364 25.9606C201.498 26.1094 201.585 26.2946 201.613 26.4927C201.904 28.5044 203.684 35.8971 206.847 35.1376C208.627 34.7094 210.528 32.6896 212.672 31.9624C212.795 31.9225 212.925 31.912 213.052 31.9317C213.178 31.9513 213.298 32.0006 213.4 32.0755C214.8 33.0693 217.203 33.9257 218.441 32.8107C218.596 32.6682 218.79 32.5727 218.998 32.5354C219.206 32.4982 219.42 32.5206 219.616 32.6001C219.811 32.6797 219.98 32.8131 220.103 32.9848C220.226 33.1565 220.298 33.3595 220.309 33.5702L220.504 37.2625C220.519 37.498 220.453 37.7318 220.318 37.925C219.126 39.6216 217.677 41.0598 215.973 42.2394C215.742 42.3988 215.578 42.6378 215.512 42.9106C215.446 43.1835 215.484 43.4709 215.617 43.7179L217.041 46.3922C217.181 46.6453 217.238 46.9173 217.211 47.2082C217.119 48.2154 217.351 49.1311 217.907 49.9552C218.063 50.176 218.276 50.281 218.546 50.2702C219.654 50.2218 220.318 50.3672 221.426 49.9552C223.918 49.0341 226.337 51.1024 226.102 53.7363C226.077 54.0463 226.175 54.3538 226.375 54.5925C226.575 54.8312 226.86 54.9821 227.17 55.0129C228.982 55.1825 234.54 55.3441 235.018 57.6386C235.071 57.8972 235.217 58.0803 235.454 58.188C237.42 59.0849 239.103 59.4565 240.22 61.4683C240.371 61.743 240.586 61.9449 240.867 62.0742L245.025 63.9809C245.219 64.0671 245.333 64.2125 245.365 64.4172L245.405 64.6839C245.443 64.8993 245.573 65.0016 245.794 64.9909L251.473 64.7243C251.716 64.7135 251.896 64.8104 252.015 65.0151C252.447 65.7476 253.035 66.3051 253.779 66.6875C254.064 66.8339 254.315 67.0403 254.516 67.2947C254.717 67.5491 254.865 67.8464 254.951 68.1692C255.037 68.492 255.059 68.8337 255.016 69.1745C254.973 69.5152 254.866 69.8481 254.701 70.1536C254.485 70.5576 254.434 71.0046 254.547 71.4948C254.601 71.721 254.744 71.8368 254.976 71.8422L256.36 71.8826C256.683 71.8879 256.918 71.7452 257.063 71.4544C257.56 70.4741 258.385 70.1347 259.539 70.4364C259.803 70.5064 260.046 70.4606 260.267 70.299C260.817 69.9166 261.416 69.6365 262.063 69.4587C262.195 69.4225 262.333 69.4229 262.464 69.46C262.594 69.4971 262.71 69.5694 262.799 69.6688C263.22 70.132 263.743 70.404 264.369 70.4848C264.675 70.5263 264.954 70.6857 265.146 70.9292C265.895 71.8718 266.796 72.6124 267.848 73.151C270.647 74.5811 272.896 72.4966 274.781 75.9788C276.407 78.9682 280.088 80.6245 279.554 84.2763C279.511 84.5672 279.549 84.8446 279.668 85.1085L281.253 88.6473C281.372 88.922 281.377 89.1967 281.269 89.4714C280.827 90.5971 281.005 91.5828 281.803 92.4284C281.896 92.5252 281.948 92.6536 281.949 92.7883C281.951 92.9229 281.902 93.054 281.812 93.1556L280.46 94.6664C280.18 94.9788 280.142 95.3154 280.347 95.6763L281.091 96.9771C281.165 97.1054 281.285 97.2 281.427 97.2408C281.569 97.2816 281.722 97.2652 281.852 97.1952C282.337 96.9313 282.772 96.5839 283.155 96.153C283.34 95.9462 283.574 95.7881 283.834 95.6925C284.756 95.3585 285.571 94.8603 286.277 94.1978C287.224 93.3091 287.248 92.178 287.936 91.0388C288.076 90.8018 288.281 90.694 288.551 90.7156C289.759 90.7964 290.908 91.1034 291.997 91.6366C292.151 91.7125 292.324 91.7393 292.493 91.7133C292.663 91.6873 292.82 91.6097 292.944 91.4912C293.434 91.0064 293.731 90.4032 293.834 89.6814C293.843 89.621 293.87 89.5648 293.912 89.5205C293.955 89.4761 294.009 89.4457 294.069 89.4334C294.129 89.4211 294.191 89.4274 294.248 89.4515C294.304 89.4757 294.351 89.5164 294.384 89.5683C295.031 90.6509 295.462 91.8036 295.678 93.0263C295.727 93.2902 295.862 93.5003 296.083 93.6565C298.316 95.2185 300.659 95.7086 303.113 95.1269C303.987 94.9169 304.354 94.4025 304.213 93.5838C304.165 93.3091 304.044 93.0721 303.849 92.8728L303.558 92.5819C303.519 92.5439 303.491 92.4966 303.475 92.4446C303.459 92.3926 303.457 92.3374 303.468 92.2843C303.48 92.2311 303.504 92.1817 303.54 92.1405C303.575 92.0993 303.62 92.0677 303.671 92.0487C304.626 91.6932 305.117 91.0011 305.144 89.9723C305.146 89.8446 305.175 89.7191 305.228 89.6037C305.281 89.4883 305.357 89.3855 305.451 89.3017C306.395 88.4507 307.083 87.4111 307.514 86.1831C307.611 85.903 307.565 85.6498 307.377 85.4236L306.454 84.3248C306.379 84.2334 306.341 84.1168 306.348 83.9993C306.356 83.8819 306.408 83.7728 306.495 83.6946C307.185 83.0806 307.436 82.3265 307.247 81.4324C307.232 81.3637 307.232 81.2926 307.247 81.2237C307.262 81.1548 307.291 81.0896 307.333 81.0325C307.375 80.9753 307.428 80.9274 307.49 80.8919C307.552 80.8564 307.621 80.8341 307.692 80.8264C308.275 80.7672 308.755 80.5059 309.132 80.0427C309.175 79.9891 309.23 79.9452 309.291 79.9141C309.353 79.8829 309.42 79.8653 309.489 79.8622C309.558 79.8592 309.627 79.8708 309.691 79.8963C309.755 79.9219 309.813 79.9608 309.86 80.0104C310.038 80.1882 310.241 80.3821 310.467 80.5921C310.726 80.8399 311.004 80.8345 311.3 80.576C311.344 80.5352 311.379 80.4862 311.402 80.4321C311.426 80.3779 311.438 80.3196 311.438 80.2609L311.43 79.057C311.425 78.6638 311.616 78.5157 312.004 78.6127C312.382 78.7043 312.762 78.6854 313.145 78.5561C313.265 78.5186 313.394 78.5195 313.512 78.5587C313.629 78.598 313.731 78.6735 313.8 78.7743C314.439 79.6953 315.928 79.259 316.939 78.7258C317.188 78.5965 317.322 78.3945 317.344 78.1198L317.603 75.0901C317.624 74.8477 317.708 74.6295 317.854 74.4356L318.8 73.1995C318.973 72.9733 319.191 72.9167 319.455 73.0298C322.4 74.3064 326.033 75.7122 327.643 72.028C327.717 71.8643 327.745 71.6827 327.724 71.5028C327.675 71.1419 327.761 70.8161 327.983 70.5252C328.15 70.3044 328.252 70.0566 328.29 69.7819C328.414 68.8932 328.177 68.123 327.578 67.4712C326.451 66.2432 326.721 65.613 328.387 65.5807C329.479 65.5645 330.038 65.6614 331.518 66.0816C332.068 66.2378 332.545 66.0654 332.95 65.5645C333.112 65.3706 333.306 65.2171 333.533 65.104L336.089 63.8355C336.191 63.7842 336.303 63.7543 336.419 63.7473C336.534 63.7404 336.65 63.7566 336.76 63.7951C337.71 64.1398 338.559 64.3122 339.309 64.3122C340.096 64.3122 340.509 63.9513 340.547 63.2296C340.668 60.4907 342.602 58.7455 345.231 58.2446C345.49 58.1961 345.735 58.2365 345.967 58.3658C348.038 59.5615 349.673 61.1747 350.87 63.2053C351.021 63.4692 351.242 63.6443 351.533 63.7305C354.373 64.595 355.417 67.7459 358.313 69.7819C358.545 69.9435 358.682 70.1617 358.726 70.4364L358.936 71.6563C358.959 71.7903 359.011 71.9178 359.09 72.0295C359.168 72.1413 359.27 72.2346 359.389 72.3027C360.263 72.809 360.923 73.4877 361.371 74.3387C361.97 75.486 361.306 77.0049 362.981 77.8371C363.259 77.9731 363.481 78.1982 363.612 78.4753L364.065 79.4206C364.205 79.7061 364.424 79.9108 364.72 80.0347C365.373 80.2932 365.942 80.2016 366.427 79.7599C366.636 79.5673 366.902 79.4486 367.186 79.4223C367.47 79.3961 367.755 79.4636 367.997 79.6145C369.491 80.5356 370.95 80.5113 372.374 79.5418C372.617 79.3748 372.865 79.3641 373.118 79.5095C374.445 80.2743 375.774 80.277 377.107 79.5176C377.349 79.3775 377.611 79.3075 377.891 79.3075L380.958 79.3317C381.249 79.3317 381.413 79.189 381.451 78.9035L381.669 77.4493C381.702 77.223 381.809 77.0143 381.974 76.8562C382.138 76.6981 382.35 76.5998 382.576 76.5767C383.552 76.4797 384.493 76.407 385.399 76.3585C387.519 76.2454 387.195 75.0739 388.328 73.8378C388.42 73.7376 388.549 73.6781 388.685 73.672C388.822 73.666 388.955 73.7139 389.056 73.8055C389.428 74.1286 389.857 74.3468 390.342 74.4599C390.677 74.5353 390.968 74.6915 391.216 74.9285C392.521 76.205 394.083 76.512 395.9 75.8495C396.341 75.6875 396.702 75.359 396.91 74.9311C397.117 74.5032 397.155 74.0081 397.017 73.5469C396.984 73.4338 397.081 73.2803 397.308 73.0864C397.432 72.9841 397.591 72.9194 397.785 72.8925C401.207 72.3673 401.927 70.1536 403.999 68.158C404.247 67.9156 404.444 67.9506 404.589 68.263C404.972 69.0925 405.565 69.7388 406.369 70.2021C406.569 70.3152 406.768 70.3152 406.968 70.2021C407.717 69.7873 408.499 69.8358 409.314 70.3475C409.53 70.4821 409.689 70.6653 409.791 70.8969C410.924 73.4176 410.196 76.1081 412.485 78.3946C412.69 78.5992 412.69 78.8039 412.485 79.0086L410.786 80.681C410.677 80.7902 410.606 80.9317 410.582 81.0846C410.559 81.2374 410.585 81.3934 410.657 81.5295C410.729 81.6656 410.842 81.7744 410.981 81.8399C411.119 81.9053 411.275 81.9239 411.425 81.8929L412.307 81.7152C412.604 81.6559 412.839 81.7556 413.011 82.0141L413.666 83.0159C413.823 83.2529 413.804 83.4765 413.61 83.6865C412.612 84.753 412.528 85.903 413.359 87.1364C413.499 87.3519 413.564 87.5862 413.553 87.8393C413.451 89.8645 414.314 91.467 416.142 92.6466C417.307 93.3952 418.394 93.3899 419.402 92.6304C419.607 92.4796 419.831 92.4527 420.074 92.5496C421.724 93.2121 423.232 93.1421 424.596 92.3395C426.384 91.2892 427.509 90.8287 428.423 89.5764C428.576 89.36 428.79 89.1917 429.038 89.0916C432.468 87.702 433.965 85.973 436.707 84.4379C436.911 84.3213 437.144 84.2641 437.379 84.2727C437.615 84.2812 437.845 84.3552 438.042 84.4864C438.479 84.7719 438.954 84.9388 439.466 84.9873C439.779 85.0196 440.051 85.1435 440.283 85.359C440.887 85.9137 441.268 86.5924 441.424 87.395C441.477 87.6549 441.594 87.8965 441.764 88.0979C442.808 89.3502 443.123 91.7093 445.396 91.3538C445.666 91.3108 445.906 91.3727 446.116 91.5397C446.462 91.8036 446.842 91.9921 447.257 92.1052C447.532 92.1752 447.807 92.1995 448.082 92.178C448.864 92.1187 449.609 92.256 450.315 92.59C450.553 92.7031 450.793 92.7166 451.035 92.6304C452.195 92.2157 452.904 91.4346 453.163 90.2874C453.198 90.1268 453.196 89.9602 453.157 89.8006C453.118 89.6409 453.042 89.4923 452.936 89.3663L451.569 87.7262C451.48 87.6204 451.425 87.489 451.414 87.3501C451.402 87.2113 451.434 87.0717 451.505 86.9506C451.812 86.4174 451.839 85.8733 451.585 85.3186C451.467 85.0546 451.448 84.7799 451.529 84.4945C451.998 82.9352 455.461 80.4144 456.674 79.4368C456.882 79.2678 457.134 79.1614 457.401 79.13C457.667 79.0985 457.937 79.1432 458.179 79.259C460.153 80.1962 461.58 81.6505 462.459 83.6219C462.61 83.9612 462.871 84.1309 463.243 84.1309L465.12 84.139C465.276 84.1392 465.429 84.1043 465.568 84.0371C465.707 83.9698 465.828 83.872 465.921 83.7512C466.482 83.0348 467.094 83.024 467.758 83.7189C467.99 83.9666 468.262 84.0232 468.575 83.8885C470.266 83.1775 471.504 81.1981 472.547 80.067C472.731 79.8677 472.86 79.6361 472.936 79.3722C473.664 76.7221 477.223 76.3424 477.118 73.6762C477.111 73.5118 477.143 73.3482 477.21 73.1979C477.277 73.0477 477.378 72.915 477.505 72.8101C477.632 72.7053 477.781 72.6312 477.941 72.5936C478.102 72.5561 478.269 72.556 478.429 72.5935C479.686 72.8844 480.511 73.0271 480.905 73.0218C482.447 73.0002 482.601 72.5262 481.366 71.5998C480.767 71.1527 480.47 70.6491 480.476 70.0889C480.476 69.7981 480.619 69.615 480.905 69.5395C485.799 68.3276 485.144 64.4415 488.801 62.4459C489.049 62.3112 489.31 62.2654 489.585 62.3085C490.082 62.3893 490.497 62.2547 490.831 61.9046C491.025 61.7053 491.193 61.7268 491.333 61.9692C491.559 62.3516 491.913 62.4728 492.393 62.3328C493.574 61.988 494.477 61.7456 495.103 61.6056C495.367 61.5463 495.599 61.4279 495.799 61.2501C496.387 60.7169 496.778 60.0759 496.972 59.3272C497.055 59.0058 497.242 58.7208 497.504 58.5161C497.765 58.3114 498.087 58.1985 498.42 58.1948C498.752 58.1912 499.076 58.2969 499.343 58.4958C499.609 58.6946 499.802 58.9754 499.892 59.2949L500.394 61.0643C500.475 61.3605 500.642 61.5921 500.896 61.7591L501.09 61.8884C501.214 61.9692 501.314 62.0769 501.389 62.2116L503.088 65.2898C503.175 65.4489 503.321 65.5679 503.495 65.6221C503.668 65.6763 503.856 65.6615 504.018 65.5807C506.793 64.2233 506.785 62.5994 507.343 59.9655C507.618 58.6566 505.984 58.2608 505.191 57.6871C504.911 57.4878 504.906 57.2831 505.175 57.0731C505.979 56.4321 506.502 55.6026 506.745 54.5846C506.777 54.4425 506.843 54.3103 506.938 54.1992C507.032 54.088 507.152 54.0013 507.287 53.9464L508.104 53.6232C508.207 53.5804 508.298 53.5144 508.371 53.4303C508.444 53.3461 508.497 53.2462 508.525 53.1384L508.953 51.4418C508.969 51.3795 508.998 51.3212 509.037 51.2701C509.076 51.2191 509.124 51.1764 509.18 51.1447C509.236 51.1131 509.298 51.093 509.362 51.0857C509.426 51.0784 509.49 51.0841 509.552 51.1024C509.827 51.1886 510.102 51.2182 510.377 51.1913C510.695 51.159 510.971 51.0324 511.203 50.8116L512.635 49.4381C512.719 49.3567 512.784 49.2578 512.828 49.1478C512.871 49.0377 512.891 48.9192 512.885 48.7998L512.788 47.0223C512.745 46.2306 513.117 45.8724 513.905 45.9478C518.88 46.4487 516.421 43.5401 519.341 42.8534C519.611 42.7887 519.816 42.6379 519.956 42.4009L520.385 41.6738C520.413 41.6266 520.453 41.5874 520.501 41.5599C520.549 41.5325 520.603 41.5176 520.658 41.5168C520.713 41.516 520.767 41.5292 520.816 41.5553C520.864 41.5814 520.905 41.6194 520.935 41.6657L521.38 42.3363C521.443 42.4343 521.528 42.5166 521.629 42.5768C521.73 42.637 521.844 42.6736 521.963 42.6837L525.263 42.9746C525.365 42.9844 525.467 42.9715 525.564 42.9366C525.66 42.9016 525.748 42.8456 525.822 42.7726C526.954 41.6657 529.211 41.8192 529.009 39.662C528.986 39.4179 529.048 39.1733 529.185 38.9699C529.323 38.7666 529.526 38.6171 529.762 38.5471C530.991 38.1674 532.132 38.0946 533.2 37.2867C534.672 36.1825 536.223 35.1968 537.852 34.3297C538.09 34.2081 538.358 34.1523 538.628 34.1681C540.627 34.3216 543.458 32.5199 542.657 30.1284C542.56 29.8375 542.601 29.5628 542.779 29.3043L544.931 26.1372C545.098 25.8948 545.165 25.6282 545.133 25.3373C545.074 24.8148 545.314 24.4863 545.853 24.3516C546.171 24.2708 546.411 24.0877 546.573 23.8022L547.924 21.4188C548.07 21.1657 548.259 20.9502 548.49 20.7725L549.405 20.0696C549.556 19.9546 549.661 19.789 549.701 19.6025C549.741 19.416 549.713 19.2208 549.623 19.0516L547.9 15.8117C547.749 15.5263 547.827 15.3243 548.135 15.2058C549.289 14.7695 550.47 14.4517 551.678 14.2524C553.984 13.8808 556.912 15.6017 558.822 13.5091C559.043 13.2721 559.275 13.2587 559.517 13.4687L560.585 14.4059C560.801 14.5998 561.055 14.6699 561.346 14.616C562.98 14.3305 564.604 14.0639 566.216 13.8161C567.241 13.6599 569.309 12.475 572.421 10.2612C572.643 10.105 572.718 9.89494 572.648 9.63102C572.545 9.25937 572.343 8.93618 572.041 8.66148C571.832 8.46656 571.704 8.19903 571.685 7.91272C571.665 7.62641 571.755 7.34259 571.936 7.11834L575.318 2.93321C575.474 2.73931 575.679 2.63966 575.933 2.63428L582.138 2.47271C582.268 2.46995 582.396 2.43709 582.511 2.37679C582.627 2.31649 582.726 2.23038 582.801 2.12527L584.015 0.420538C584.083 0.325468 584.172 0.247504 584.276 0.192813C584.38 0.138121 584.495 0.108191 584.613 0.105431L590.406 0.000394904C590.782 -0.00675308 591.152 0.0832432 591.483 0.261628C591.813 0.440013 592.091 0.700725 592.291 1.0184C593.235 2.51039 594.605 3.23485 596.401 3.19176C596.637 3.18661 596.87 3.25738 597.064 3.39374C599.03 4.77531 602.291 6.62549 602.032 9.40479C602.008 9.65101 602.072 9.89765 602.21 10.1025C602.349 10.3074 602.555 10.4577 602.792 10.5278C603.747 10.8187 604.61 10.6948 605.381 10.1562C605.613 9.99458 605.794 10.0377 605.923 10.2854C606.91 12.1841 608.261 11.9336 609.774 12.5154C611.538 13.1886 613.355 13.6519 615.227 13.905C615.443 13.9319 615.634 14.0127 615.801 14.1474L617.848 15.8198C617.955 15.906 618.042 16.0134 618.104 16.1346C618.165 16.2559 618.199 16.3882 618.204 16.5227L618.228 17.2822C618.235 17.4326 618.276 17.5795 618.349 17.7114C618.421 17.8433 618.523 17.9567 618.647 18.0427C618.771 18.1287 618.913 18.1851 619.062 18.2073C619.211 18.2295 619.363 18.2171 619.507 18.1709C622.031 17.363 626.214 17.8073 627.184 20.8209C627.454 21.6504 627.217 22.2914 626.472 22.7438C625.982 23.0455 625.704 23.4602 625.639 23.988C625.612 24.2143 625.704 24.3732 625.914 24.4648C626.227 24.5994 626.505 24.7798 626.747 25.0061C626.947 25.1838 626.947 25.3616 626.747 25.5393C626.197 26.0133 626.049 26.5277 626.302 27.0825C626.788 28.1328 627.912 28.052 628.268 29.6113C628.328 29.8698 628.49 29.9991 628.754 29.9991C629.601 30.0153 630.216 30.3788 630.598 31.0898C630.744 31.3591 630.798 31.6446 630.76 31.9462L630.655 32.8026C630.649 32.8601 630.656 32.9182 630.674 32.9728C630.692 33.0275 630.722 33.0773 630.762 33.1189C630.801 33.1604 630.849 33.1927 630.902 33.2135C630.954 33.2342 631.011 33.2429 631.068 33.2389C631.429 33.212 631.785 33.2551 632.136 33.3682C632.212 33.393 632.281 33.4378 632.335 33.4981C632.388 33.5583 632.425 33.6318 632.441 33.7109C632.456 33.79 632.451 33.8718 632.424 33.9479C632.397 34.024 632.351 34.0917 632.289 34.1438L630.056 35.994C629.814 36.1933 629.622 36.1529 629.482 35.8728C629.374 35.6466 629.22 35.4688 629.021 35.3396C628.784 35.1888 628.538 35.1753 628.285 35.2992C626.747 36.0479 625.167 36.6807 623.544 37.1978C622.104 37.6583 620.542 37.117 619.693 39.1207C619.59 39.3685 619.404 39.4924 619.135 39.4924C615.745 39.5004 615.089 40.2761 612.403 41.9243C612.166 42.0697 611.557 42.2851 610.575 42.5706C608.464 43.1766 607.954 45.6973 606.085 46.8446C603.617 48.3635 600.22 51.6033 599.791 54.625C599.548 56.354 598.601 57.0004 597.453 58.1557C597.35 58.258 597.269 58.3802 597.215 58.5148C597.161 58.6495 597.134 58.7939 597.137 58.9394L597.234 62.2923C597.237 62.387 597.259 62.4808 597.299 62.5683C597.339 62.6557 597.397 62.735 597.469 62.8014C598.99 64.1991 600.511 65.007 600.64 67.3258C600.656 67.5777 600.752 67.8184 600.915 68.0126C602.048 69.386 604.119 71.0262 604.637 72.6986C605.171 74.4518 604.038 75.7041 606.166 77.1826C606.313 77.2862 606.435 77.4217 606.522 77.5787C606.61 77.7358 606.661 77.9104 606.671 78.0893C606.681 78.2683 606.65 78.4469 606.581 78.6117C606.512 78.7766 606.406 78.9233 606.271 79.0409C605.033 80.1397 603.035 82.3211 604.135 84.0663C604.281 84.2925 604.286 84.5241 604.151 84.7611C603.601 85.7252 602.752 86.175 601.603 86.1103C601.323 86.0942 601.085 85.9865 600.891 85.7872C599.936 84.8176 598.82 85.0116 597.809 85.8841C596.881 86.6813 595.813 87.2414 594.605 87.5646C594.362 87.6293 594.12 87.6293 593.877 87.5646C592.582 87.2037 591.771 87.6346 591.442 88.8573C591.366 89.1266 591.193 89.2909 590.924 89.3502L590.05 89.5441C589.979 89.5594 589.91 89.5894 589.849 89.6324C589.788 89.6754 589.735 89.7305 589.694 89.7945C589.403 90.247 589.373 90.6052 589.605 90.8691C589.853 91.1438 590.064 91.3054 590.236 91.3538C590.63 91.4508 590.97 91.3835 591.256 91.1519C591.595 90.8664 591.838 90.9337 591.984 91.3538L592.704 93.4303C592.743 93.5445 592.75 93.6677 592.722 93.7854C592.694 93.9031 592.634 94.0106 592.547 94.0952C592.461 94.1799 592.352 94.2382 592.234 94.2636C592.115 94.2889 591.992 94.2801 591.878 94.2382C590.665 93.7938 587.874 94.521 588.351 96.3307C588.421 96.5785 588.559 96.767 588.764 96.8963C588.99 97.031 589.106 97.2302 589.112 97.4942C589.133 99.0508 588.419 100.082 586.968 100.589C586.703 100.686 586.471 100.834 586.272 101.033C584.435 102.907 583.109 103.828 580.261 104.168C579.042 104.313 577.872 104.572 576.75 104.943C576.453 105.04 576.305 105.245 576.305 105.557V106.155C576.305 106.228 576.322 106.301 576.357 106.365C576.391 106.43 576.441 106.485 576.502 106.526C576.563 106.566 576.633 106.591 576.705 106.599C576.778 106.606 576.852 106.595 576.92 106.567C577.205 106.449 577.462 106.29 577.688 106.091C577.733 106.053 577.788 106.03 577.846 106.025C577.904 106.02 577.962 106.033 578.013 106.062C578.063 106.091 578.103 106.135 578.128 106.188C578.152 106.241 578.16 106.3 578.149 106.357C577.998 107.063 578.06 107.752 578.335 108.426C578.427 108.663 578.384 108.87 578.206 109.048L577.276 109.977C577.092 110.16 576.874 110.276 576.62 110.324L571.904 111.253C571.58 111.318 571.453 111.512 571.523 111.835C571.82 113.209 571.583 114.464 570.811 115.6C570.229 116.456 570.45 116.815 571.475 116.675L572.47 116.537C572.59 116.523 572.712 116.545 572.82 116.599C572.928 116.654 573.017 116.739 573.077 116.844C573.239 117.141 573.46 117.324 573.74 117.394C573.94 117.448 574.169 117.407 574.428 117.272C575.819 116.578 577.745 115.034 579.25 115.939C579.514 116.096 579.759 116.074 579.986 115.875L580.771 115.188C580.992 114.994 581.221 114.983 581.458 115.156C582.893 116.19 584.484 116.395 586.232 115.77C586.48 115.678 586.776 115.729 587.121 115.923C587.359 116.052 587.604 116.069 587.858 115.972C588.478 115.729 589.052 115.786 589.581 116.141C589.818 116.308 590.082 116.392 590.374 116.392L593.974 116.408C594.088 116.408 594.198 116.369 594.288 116.299C594.377 116.229 594.44 116.131 594.467 116.02C594.608 115.487 594.465 115.061 594.039 114.744C593.807 114.571 593.777 114.372 593.95 114.146C594.602 113.295 595.503 113.034 596.652 113.362C597.086 113.485 597.46 113.759 597.707 114.135C597.954 114.511 598.056 114.962 597.995 115.406L597.792 116.893C597.746 117.236 597.799 117.584 597.946 117.898C598.092 118.212 598.325 118.477 598.618 118.662L601.15 120.27C601.414 120.442 601.687 120.456 601.967 120.31C602.285 120.149 602.617 120.108 602.962 120.189C603.237 120.256 603.477 120.43 603.634 120.674C604.653 122.274 605.182 124.043 605.219 125.982C605.23 126.292 605.116 126.594 604.904 126.822C602.153 129.787 604.41 131.945 606.004 134.595C606.075 134.714 606.113 134.851 606.113 134.991C606.113 135.13 606.075 135.267 606.004 135.386C605.087 136.943 605.141 138.465 606.166 139.951C606.246 140.064 606.283 140.203 606.272 140.343C606.26 140.483 606.2 140.616 606.101 140.719C605.918 140.902 605.689 141.004 605.413 141.026C605.214 141.036 605.024 141.11 604.871 141.236C603.739 142.181 603.051 144.096 604.548 144.839C604.633 144.881 604.703 144.948 604.75 145.03C604.798 145.112 604.819 145.207 604.812 145.301C604.805 145.396 604.77 145.486 604.711 145.561C604.653 145.635 604.573 145.691 604.483 145.72C602.42 146.391 602.137 148.241 603.925 149.412C605.521 150.457 607.28 150.64 609.2 149.962C609.307 149.925 609.422 149.92 609.532 149.946C609.642 149.971 609.743 150.027 609.823 150.107L609.993 150.277C610.032 150.314 610.063 150.36 610.083 150.41C610.103 150.461 610.112 150.515 610.11 150.57C610.108 150.625 610.094 150.679 610.07 150.729C610.045 150.778 610.011 150.823 609.968 150.858C606.837 153.517 612.67 162.008 616.028 158.93C616.443 158.547 616.764 158.343 616.991 158.316C617.368 158.262 617.678 158.41 617.921 158.76C618.094 159.002 618.056 159.204 617.808 159.366C616.133 160.481 616.125 162.266 616.109 163.866C616.093 165.296 617.339 165.531 618.536 165.264C622.597 164.383 623.115 164.682 625.413 167.833C626.65 169.53 629.951 170.524 631.877 171.332C631.999 171.382 632.13 171.406 632.261 171.402C632.392 171.398 632.521 171.366 632.637 171.307C632.869 171.189 633.09 171.051 633.301 170.895C635.258 169.449 638.236 172.6 639.651 169.094C639.754 168.835 639.775 168.571 639.716 168.302C639.678 168.124 639.603 167.96 639.49 167.809C639.322 167.577 639.325 167.346 639.498 167.114C640.121 166.266 641.067 166.637 641.844 166.363C642.933 165.986 643.915 165.447 644.789 164.747C644.823 164.72 644.864 164.703 644.907 164.698C644.951 164.693 644.994 164.7 645.034 164.718C645.073 164.737 645.107 164.766 645.131 164.802C645.155 164.839 645.168 164.881 645.169 164.925C645.25 167.219 645.242 169.077 644.263 171.267C642.78 174.585 641.267 177.887 639.724 181.172C638.937 182.847 638.581 184.619 638.656 186.488C638.667 186.746 638.758 186.992 638.915 187.191C640.816 189.607 642.208 192.823 645.63 193.38C645.716 193.395 645.795 193.434 645.858 193.493C645.922 193.552 645.967 193.628 645.987 193.712C646.008 193.797 646.003 193.885 645.974 193.966C645.946 194.048 645.893 194.12 645.824 194.172C644.956 194.824 644.231 195.629 643.648 196.588C643.553 196.745 643.411 196.868 643.242 196.941C643.074 197.015 642.887 197.034 642.707 196.997C642.527 196.96 642.363 196.868 642.237 196.734C642.112 196.6 642.031 196.43 642.006 196.248C641.79 194.686 640.887 193.981 639.295 194.132C639.02 194.158 638.753 194.132 638.495 194.051C636.812 193.523 635.285 193.763 633.915 194.77C633.873 194.801 633.824 194.821 633.773 194.83C633.721 194.839 633.669 194.836 633.619 194.821C633.568 194.806 633.522 194.78 633.484 194.744C633.446 194.709 633.416 194.665 633.398 194.616C633.182 193.986 632.864 193.41 632.443 192.887C632.355 192.778 632.239 192.696 632.107 192.65C631.975 192.605 631.834 192.597 631.699 192.629C630.615 192.877 629.733 193.461 629.053 194.382C628.886 194.603 628.851 194.843 628.948 195.101C629.115 195.564 629.118 196.033 628.956 196.507C628.859 196.787 628.905 197.04 629.094 197.266C629.552 197.832 629.463 198.406 628.827 198.987C627.883 199.849 627.165 200.829 626.675 201.928C626.636 202.018 626.576 202.097 626.501 202.159C626.425 202.221 626.336 202.265 626.24 202.286C626.144 202.307 626.044 202.306 625.948 202.281C625.852 202.257 625.763 202.211 625.688 202.146L615.85 193.623C615.776 193.559 615.692 193.515 615.607 193.493L608.108 191.344C607.9 191.282 607.726 191.146 607.622 190.964C606.862 189.623 606.384 186.723 604.402 187.046C603.933 187.121 603.367 187.469 602.703 188.088C601.263 189.424 599.451 189.882 597.267 189.462C597.069 189.425 596.893 189.316 596.773 189.155L596.174 188.298C595.975 188.018 595.705 187.865 595.365 187.838C593.1 187.638 591.123 186.75 589.435 185.171C589.236 184.988 589.001 184.894 588.731 184.889C587.922 184.873 587.332 185.233 586.96 185.971C586.819 186.251 586.62 186.303 586.361 186.125C585.253 185.357 584.031 184.42 582.664 184.711C581.588 184.937 580.86 185.656 580.091 186.004C576.984 187.401 574.193 187.102 571.111 187.183C569.924 187.216 569.177 187.805 568.87 188.953C567.586 193.784 566.386 198.707 565.27 203.722C564.612 206.684 564.24 210.923 564.153 216.439C564.137 217.586 563.668 219.194 563.627 220.559C563.36 228.946 562.584 234.884 562.414 242.074C562.365 244.03 561.791 245.84 561.823 247.762C561.872 250.843 561.591 253.897 560.982 256.924C560.928 257.188 560.793 257.406 560.577 257.579C560.14 257.918 559.887 258.36 559.817 258.904C559.79 259.109 559.811 259.308 559.882 259.502L560.359 260.794C560.44 261.021 560.383 261.201 560.189 261.336C559.321 261.944 559.059 262.787 559.404 263.865C559.642 264.586 559.399 264.829 558.676 264.592C557.549 264.231 556.716 264.597 556.176 265.691C556.136 265.772 556.077 265.843 556.003 265.896C555.929 265.949 555.844 265.984 555.753 265.997C555.663 266.01 555.571 266 555.486 265.969C555.4 265.938 555.323 265.887 555.262 265.82L550.998 261.126C550.06 260.092 549.634 260.269 549.72 261.659C549.785 262.655 549.995 263.625 550.351 264.568C550.434 264.791 550.446 265.034 550.387 265.263C550.328 265.493 550.2 265.698 550.02 265.852C549.318 266.455 548.749 267.158 548.312 267.961C548.178 268.214 548.132 268.478 548.175 268.753C548.515 270.95 547.236 275.83 544.219 276.186C543.96 276.213 543.75 276.326 543.588 276.525C542.536 277.826 543.297 279.999 540.748 279.829C539.405 279.741 539.017 280.145 537.876 281.106C536.444 282.31 532.771 281.566 530.959 281.429C530.641 281.408 530.39 281.526 530.206 281.785L528.467 284.257C528.321 284.462 528.143 284.631 527.933 284.766L524.648 286.81C524.541 286.88 524.465 286.853 524.422 286.729C524.098 285.722 523.537 285.291 522.739 285.437C522.389 285.501 522.025 285.542 521.647 285.558C521.573 285.559 521.5 285.545 521.431 285.516C521.363 285.487 521.302 285.444 521.252 285.39C521.201 285.336 521.163 285.272 521.139 285.202C521.115 285.132 521.106 285.058 521.113 284.984C521.135 284.769 521.108 284.561 521.032 284.362C520.892 284.001 520.649 283.909 520.304 284.087L517.448 285.542C517.178 285.676 516.949 285.63 516.76 285.404L516.024 284.548C515.963 284.475 515.923 284.386 515.911 284.292C515.898 284.198 515.912 284.101 515.952 284.015C515.992 283.928 516.056 283.855 516.136 283.804C516.216 283.752 516.309 283.724 516.405 283.724C517.052 283.718 517.669 283.562 518.257 283.255C518.357 283.204 518.445 283.131 518.511 283.041C518.578 282.951 518.623 282.846 518.643 282.735C518.663 282.624 518.656 282.509 518.624 282.4C518.593 282.292 518.536 282.192 518.459 282.108L516.332 279.821C516.17 279.644 516.076 279.434 516.049 279.191C515.968 278.432 515.577 277.898 514.875 277.591C514.611 277.478 514.476 277.282 514.471 277.002C514.382 274.238 512.772 273.043 511.016 271.29C510.806 271.079 510.677 270.826 510.628 270.53C510.52 269.819 510.189 269.227 509.633 268.753C509.53 268.666 509.446 268.559 509.385 268.44C509.324 268.321 509.287 268.191 509.277 268.058C509.202 267.067 508.719 266.48 507.829 266.296C507.548 266.237 507.37 266.07 507.295 265.796C506.809 264.072 505.944 262.553 504.698 261.239C504.599 261.135 504.478 261.055 504.343 261.006C504.208 260.957 504.064 260.939 503.922 260.955C503.779 260.971 503.642 261.019 503.521 261.096C503.401 261.173 503.299 261.278 503.226 261.4C502.886 261.977 502.379 262.184 501.705 262.022C501.555 261.988 501.399 261.995 501.253 262.042C501.106 262.089 500.974 262.174 500.871 262.289C500.467 262.752 499.971 263.073 499.383 263.251C499.124 263.331 498.932 263.488 498.808 263.719L498.04 265.109C497.889 265.389 497.657 265.556 497.344 265.61C495.472 265.938 493.817 266.725 492.376 267.969C492.249 268.082 492.17 268.241 492.157 268.411C492.143 268.581 492.196 268.75 492.304 268.882C492.935 269.631 493.156 270.522 492.967 271.556C492.913 271.852 492.768 272.092 492.53 272.275C491.478 273.094 491.042 274.168 491.22 275.499C491.247 275.714 491.149 275.836 490.928 275.862C488.917 276.143 487.59 277.252 486.948 279.191C486.901 279.331 486.805 279.45 486.679 279.524C486.552 279.598 486.403 279.624 486.26 279.595C485.564 279.46 484.96 279.167 484.448 278.714C484.4 278.677 484.345 278.644 484.286 278.618C483.229 278.149 482.595 278.337 482.385 279.183C482.315 279.479 482.161 279.724 481.924 279.918L474.837 285.752C474.794 285.789 474.745 285.819 474.691 285.84C473.359 286.271 471.989 286.428 470.581 286.309C470.459 286.301 470.338 286.319 470.225 286.361C470.112 286.403 470.01 286.468 469.926 286.551L467.637 288.846C467.41 289.078 467.224 289.048 467.078 288.757C466.245 287.125 465.185 286.156 464.7 284.346C464.198 282.479 463.268 281.033 463.276 279.094C463.319 263.997 463.235 248.902 463.025 233.809C462.993 231.386 462.127 231.111 460.606 229.624C460.385 229.409 460.415 229.242 460.695 229.123C463.292 228.016 465.153 228.824 467.556 230.254C467.766 230.384 467.992 230.413 468.235 230.343L471.609 229.382C471.801 229.326 471.98 229.23 472.133 229.1C472.285 228.97 472.409 228.81 472.495 228.629C472.581 228.448 472.629 228.251 472.633 228.051C472.638 227.851 472.601 227.652 472.523 227.467C472.41 227.198 472.353 226.926 472.353 226.651C472.353 226.387 472.453 226.169 472.652 225.997L475.581 223.549C475.84 223.338 476.134 223.223 476.463 223.201C477.973 223.126 479.305 222.636 480.46 221.731C480.551 221.66 480.656 221.609 480.768 221.583C480.879 221.556 480.995 221.554 481.107 221.577C481.835 221.728 482.533 221.658 483.202 221.367C484.788 220.683 486.433 220.204 488.137 219.929C488.423 219.886 488.615 219.727 488.712 219.452L499.407 189.761C499.531 189.41 499.407 189.246 499.035 189.268C498.97 189.273 498.903 189.276 498.833 189.276C498.617 189.276 498.477 189.171 498.412 188.961C497.959 187.369 499.269 186.028 499.844 184.646C499.968 184.35 499.9 184.108 499.642 183.919L497.214 182.142C496.977 181.969 496.743 181.977 496.511 182.166L494.496 183.798C494.286 183.97 494.046 184.067 493.776 184.089C493.07 184.148 492.398 184.288 491.762 184.509C490.297 185.01 489.909 186.456 488.339 186.876C487.174 187.183 486.26 187.878 485.087 187.7C483.739 187.496 482.714 186.868 482.013 185.818C481.944 185.715 481.854 185.627 481.749 185.561C481.644 185.495 481.526 185.451 481.403 185.434C481.28 185.416 481.155 185.425 481.036 185.459C480.916 185.493 480.805 185.552 480.71 185.632C480.069 186.171 479.397 186.712 478.696 187.256C477.612 188.104 474.772 191.457 474.546 192.774C474.528 192.883 474.487 192.987 474.425 193.079C474.364 193.171 474.284 193.249 474.19 193.307L471.487 195.036C471.366 195.111 471.226 195.15 471.083 195.15C470.511 195.15 470.023 195.354 469.619 195.764C469.436 195.943 469.217 196.079 468.976 196.163C468.735 196.247 468.48 196.276 468.227 196.248L462.604 195.634C462.345 195.607 462.092 195.545 461.844 195.448C461.256 195.228 460.649 195.123 460.024 195.133C459.743 195.139 459.514 195.247 459.336 195.457C458.349 196.609 457.165 196.674 455.784 195.65C455.175 195.198 453.864 194.342 451.852 193.081C451.054 192.58 450.642 191.926 450.615 191.118C450.61 190.843 450.503 190.578 450.315 190.375C449.317 189.303 448.088 188.751 446.626 188.718C446.323 188.708 446.031 188.624 445.777 188.476C443.422 187.127 441.788 188.234 439.628 187.628C438.344 187.272 437.107 186.801 435.915 186.214C435.78 186.149 435.78 186.084 435.915 186.02C436.001 185.977 436.087 185.985 436.174 186.044C436.218 186.075 436.27 186.092 436.324 186.091C436.378 186.091 436.431 186.074 436.475 186.043C436.52 186.011 436.554 185.967 436.574 185.915C436.594 185.863 436.598 185.807 436.586 185.753C436.306 184.525 435.944 183.289 435.502 182.045C434.831 180.17 433.18 178.522 432.727 176.179C432.452 174.741 431.441 172.77 432.161 170.839C432.252 170.591 432.271 170.338 432.217 170.079L432.039 169.223C431.98 168.954 432.066 168.743 432.298 168.593L434.264 167.308C434.37 167.239 434.452 167.14 434.501 167.023C434.549 166.907 434.562 166.778 434.536 166.655C434.511 166.531 434.449 166.418 434.359 166.33C434.269 166.242 434.154 166.183 434.03 166.161C433.345 166.042 432.735 166.145 432.201 166.468C431.969 166.613 431.716 166.67 431.441 166.637C430.723 166.557 430.092 166.767 429.548 167.268C429.452 167.353 429.331 167.405 429.204 167.416C429.076 167.426 428.95 167.394 428.844 167.324L423.569 163.882C423.369 163.753 423.148 163.688 422.905 163.688C421.805 163.705 420.923 163.247 420.26 162.315C420.012 161.965 419.742 161.949 419.451 162.266L414.759 167.47C414.575 167.669 414.349 167.763 414.079 167.752C411.442 167.631 410.341 169.473 407.736 167.534C407.515 167.367 407.267 167.311 406.992 167.365C405.212 167.688 404.573 167.146 402.939 166.928C402.664 166.891 402.41 166.947 402.178 167.098C398.683 169.376 395.156 170.305 393.684 174.676C393.22 176.034 392.78 177.001 392.365 177.577C391.054 179.387 390.383 180.211 388.287 181.697C386.855 182.715 386.831 184.404 385.472 185.705C385.278 185.893 385.156 186.122 385.108 186.391C384.744 188.484 382.43 189.381 380.901 190.48C380.696 190.625 380.585 190.824 380.569 191.078C380.51 192.074 379.979 192.734 378.975 193.057C378.69 193.149 378.528 193.043 378.49 192.742C378.323 191.212 378.296 189.685 378.409 188.161C378.436 187.822 378.379 187.501 378.239 187.199C378.121 186.957 378.102 186.707 378.183 186.448L380.092 180.445C380.178 180.176 380.124 179.939 379.93 179.734C379.197 178.969 379.218 178.183 379.995 177.375C380.2 177.165 380.448 177.068 380.739 177.084C383.077 177.238 384.08 174.248 382.665 172.673C382.454 172.436 382.198 172.36 381.896 172.446L380.836 172.737C380.572 172.807 380.383 172.719 380.27 172.471C379.501 170.766 377.713 170.427 376.67 169.667C374.752 168.261 372.689 166.573 370.594 168.94C370.416 169.139 370.192 169.252 369.922 169.279C369.513 169.312 369.14 169.452 368.806 169.7C368.612 169.845 368.412 169.848 368.207 169.708C367.609 169.287 367.061 169.368 366.565 169.95C366.493 170.034 366.405 170.102 366.307 170.151C366.208 170.2 366.1 170.228 365.991 170.233C364.216 170.324 362.544 170.704 360.975 171.372C360.671 171.498 360.258 171.547 359.764 171.515C359.27 171.483 358.708 171.371 358.119 171.186C356.339 170.621 355.886 167.882 353.758 167.445C350.538 166.775 348.564 164.327 345.514 163.503C342.917 162.8 341.598 160.828 338.775 160.538C335.372 160.187 332.068 159.708 328.864 159.099C328.374 159.008 327.993 159.169 327.724 159.584C326.34 161.717 324.957 163.26 323.201 165.749C322.295 167.033 320.75 167.769 319.868 168.455C317.419 170.367 314.938 172.234 312.425 174.054C311.26 174.895 310.726 176.462 309.966 177.448C309.62 177.9 309.275 178.353 308.93 178.805C308.768 179.02 308.552 179.104 308.283 179.055C307.139 178.845 306.001 178.878 304.869 179.152C304.615 179.212 304.367 179.19 304.124 179.088C302.587 178.409 299.748 178.902 298.089 179.104C297.776 179.142 297.558 179.303 297.434 179.589C297.186 180.176 297.097 180.779 297.167 181.398C297.193 181.65 297.152 181.905 297.046 182.135C296.94 182.366 296.775 182.563 296.566 182.708C296.358 182.852 296.115 182.938 295.862 182.957C295.609 182.975 295.355 182.925 295.128 182.812C293.925 182.209 292.636 182.082 291.261 182.433C291.082 182.48 290.921 182.581 290.8 182.723C290.244 183.408 289.643 183.445 288.996 182.837C280.776 175.107 272.562 167.375 264.353 159.641C263.274 158.623 262.058 157.852 260.704 157.33C258.487 156.474 255.583 155.027 254.313 156.142C254.092 156.342 253.835 156.46 253.544 156.498L247.266 157.387C246.996 157.424 246.818 157.317 246.732 157.063L244.952 151.836C244.909 151.71 244.895 151.577 244.911 151.445C244.926 151.314 244.971 151.188 245.041 151.077C245.947 149.644 246.802 148.198 247.606 146.738C247.924 146.156 247.935 145.591 247.638 145.041C247.514 144.81 247.46 144.565 247.477 144.306L247.582 142.698C247.598 142.391 247.514 142.111 247.331 141.858C245.591 139.539 244.232 139.006 244.993 135.645C245.484 133.501 245.885 131.393 246.198 129.319C246.21 129.236 246.204 129.152 246.179 129.071C246.155 128.991 246.113 128.918 246.056 128.856C246 128.794 245.93 128.746 245.853 128.714C245.775 128.682 245.691 128.668 245.608 128.672L224.33 129.844C224.001 129.866 223.815 130.038 223.772 130.361L223.44 132.93C223.397 133.28 223.51 133.571 223.78 133.803L224.702 134.603C224.775 134.665 224.833 134.744 224.871 134.832C224.909 134.92 224.926 135.016 224.921 135.112L224.581 140.872C224.573 141.017 224.531 141.158 224.456 141.283C224.381 141.408 224.277 141.514 224.152 141.591C221.094 143.442 218.101 145.55 214.687 146.633C213.225 147.096 211.723 147.562 210.18 148.031C210.055 148.07 209.944 148.144 209.859 148.244C209.775 148.345 209.721 148.467 209.704 148.597C209.687 148.727 209.707 148.859 209.763 148.978C209.819 149.097 209.908 149.197 210.019 149.267L226.741 159.754C226.793 159.786 226.836 159.83 226.866 159.883C226.895 159.936 226.911 159.996 226.911 160.057C226.911 160.118 226.895 160.177 226.866 160.23C226.836 160.283 226.793 160.328 226.741 160.36C225.73 160.982 224.128 160.19 222.923 160.659C222.691 160.75 222.461 160.75 222.235 160.659C221.766 160.47 221.286 160.392 220.795 160.424C220.672 160.432 220.55 160.41 220.439 160.361C220.327 160.312 220.23 160.236 220.156 160.142C218.295 157.718 215.415 162.913 213.077 160.691C211.95 159.625 210.809 159.536 209.655 160.424C209.551 160.506 209.42 160.545 209.288 160.533C209.156 160.521 209.032 160.459 208.943 160.36C208.479 159.837 207.888 159.633 207.171 159.746C207.024 159.767 206.887 159.838 206.783 159.948L205.755 160.974C205.714 161.015 205.665 161.046 205.61 161.065C205.555 161.083 205.497 161.089 205.44 161.081C205.382 161.073 205.327 161.052 205.28 161.02C205.232 160.987 205.193 160.944 205.165 160.893C204.992 160.591 204.736 160.567 204.396 160.82C204.169 160.993 203.916 161.068 203.635 161.047C202.886 160.987 202.174 161.254 201.5 161.846C195.302 167.356 189.084 172.842 182.844 178.304C182.639 178.482 182.506 178.703 182.447 178.967C181.827 181.557 182.536 183.623 184.575 185.163C184.678 185.244 184.76 185.347 184.815 185.463C184.87 185.58 184.896 185.707 184.89 185.834C184.858 186.674 184.586 187.428 184.073 188.096C183.993 188.199 183.953 188.327 183.962 188.457C183.971 188.587 184.028 188.709 184.122 188.799L185.254 189.922C185.492 190.154 185.47 190.356 185.19 190.528C184.936 190.679 184.715 190.87 184.526 191.102C184.447 191.199 184.389 191.311 184.356 191.432C184.322 191.553 184.314 191.68 184.332 191.805L184.623 193.986C184.683 194.417 184.586 194.455 184.332 194.099C183.938 193.561 183.564 193.033 183.208 192.516C182.053 190.83 180.621 189.464 178.912 188.419C178.674 188.274 178.593 188.067 178.669 187.797L178.895 186.989C178.966 186.725 178.871 186.55 178.612 186.464C177.566 186.12 176.913 185.344 176.654 184.137C176.336 182.635 175.471 182.161 174.057 182.715C173.815 182.812 173.669 182.734 173.621 182.481L172.731 178.013C172.703 177.872 172.639 177.741 172.543 177.634C172.448 177.527 172.325 177.449 172.189 177.407C171.407 177.165 170.568 177.537 169.673 178.522C169.203 179.039 168.974 178.948 168.985 178.247C168.996 176.939 168.338 176.427 167.011 176.712C166.927 176.729 166.841 176.718 166.765 176.682C166.689 176.645 166.627 176.585 166.59 176.51C166.38 176.112 166.086 175.797 165.708 175.565C165.601 175.499 165.477 175.462 165.351 175.459C165.224 175.457 165.099 175.488 164.988 175.549C164.158 176.012 163.44 175.91 162.836 175.242C162.755 175.153 162.656 175.083 162.546 175.036C162.435 174.988 162.317 174.965 162.197 174.967L157.942 175.064C157.645 175.07 157.378 175.158 157.141 175.331C156.666 175.665 156.132 175.821 155.539 175.799C155.457 175.797 155.376 175.81 155.301 175.84C155.226 175.869 155.158 175.913 155.102 175.969L151.607 179.548C151.386 179.769 151.119 179.885 150.806 179.896L150.183 179.904C149.849 179.909 149.582 180.049 149.382 180.324C148.832 181.073 148.134 181.635 147.287 182.012C147.06 182.115 146.834 182.112 146.607 182.004C145.361 181.401 144.04 181.183 142.643 181.35C142.352 181.388 142.093 181.315 141.866 181.132C140.329 179.928 138.193 181.722 137.069 182.756C136.885 182.923 136.691 182.934 136.486 182.788C135.499 182.077 134.413 181.573 133.226 181.277C132.935 181.207 132.708 181.046 132.546 180.792C131.22 178.668 127.83 178.054 127.126 181.205C127.086 181.387 127.003 181.557 126.884 181.701C126.765 181.845 126.614 181.958 126.442 182.032C126.27 182.105 126.083 182.137 125.897 182.123C125.711 182.11 125.53 182.053 125.37 181.956C123.542 180.849 122.288 179.839 120.233 181.398C120.001 181.576 119.737 181.662 119.44 181.657L116.164 181.609C115.808 181.603 115.622 181.42 115.605 181.059L115.557 179.968C115.551 179.872 115.532 179.779 115.5 179.694C114.303 176.163 109.886 178.757 108.025 180.001C107.804 180.146 107.642 180.337 107.539 180.574C106.569 182.788 106.221 184.638 104.87 186.715C104.719 186.952 104.519 187.129 104.271 187.248C102.782 187.991 102.58 189.656 101.593 190.116C101.226 190.288 100.843 190.237 100.444 189.963C100.18 189.779 99.9912 189.839 99.878 190.14C99.2065 191.885 98.7049 193.711 97.6693 195.263C96.8199 196.531 97.4104 199.157 97.4347 200.676C97.4401 200.859 97.5048 201.061 97.6289 201.282C97.6774 201.373 97.7448 201.454 97.8311 201.524C97.8743 201.556 97.8932 201.6 97.8878 201.653L97.4995 204.594C97.4895 204.671 97.4644 204.745 97.4255 204.812C97.3867 204.879 97.3348 204.937 97.273 204.984C97.2113 205.031 97.1408 205.064 97.0658 205.084C96.9907 205.103 96.9126 205.107 96.836 205.095C96.2751 205.009 95.8248 204.734 95.485 204.271C95.3974 204.154 95.2829 204.06 95.1517 203.998C95.0204 203.936 94.8765 203.908 94.7326 203.916L91.7149 204.093C91.4021 204.11 91.1324 204.225 90.9059 204.441C90.167 205.136 89.3472 205.181 88.4465 204.578C88.2307 204.427 88.1121 204.22 88.0905 203.956L88.0338 203.148C88.0015 202.739 87.7858 202.572 87.3866 202.647C86.281 202.841 85.5286 203.439 85.1294 204.441C85.0054 204.748 84.7896 204.842 84.4822 204.724C84.1047 204.584 83.711 204.522 83.301 204.538C82.9559 204.549 82.6943 204.406 82.5163 204.11C82.457 204.018 82.4111 203.924 82.3788 203.827C82.2925 203.557 82.1091 203.385 81.8286 203.31C80.6528 202.992 80.0353 203.38 79.976 204.473C79.971 204.592 79.9349 204.707 79.871 204.807C79.8071 204.908 79.7178 204.991 79.6119 205.047C78.4523 205.682 77.2415 205.855 75.9794 205.564C75.8251 205.532 75.6643 205.538 75.5101 205.58C75.1326 205.693 74.8441 205.903 74.6445 206.21C74.4665 206.49 74.24 206.539 73.9649 206.356C72.8916 205.645 71.9882 204.764 71.2547 203.714C71.0713 203.455 71.0578 203.189 71.2142 202.914L71.5378 202.34C71.6028 202.225 71.6335 202.093 71.6264 201.961C71.6192 201.83 71.5744 201.703 71.4974 201.597C70.9472 200.816 70.9877 200.099 71.6187 199.448C71.8614 199.2 71.9343 198.906 71.8372 198.567C71.6592 197.975 71.3032 197.484 70.7693 197.097C70.6652 197.021 70.5874 196.915 70.5468 196.794C70.5062 196.672 70.5048 196.541 70.5427 196.418C70.9095 195.276 70.656 194.32 69.7822 193.55C69.5773 193.372 69.5126 193.151 69.5881 192.887C69.6258 192.742 69.6528 192.591 69.669 192.435C69.6852 192.214 69.5962 192.05 69.402 191.942L67.6464 190.981C67.5594 190.932 67.4829 190.866 67.4217 190.785C67.3605 190.704 67.3158 190.611 67.2904 190.512L66.983 189.3C66.8967 188.977 66.6891 188.807 66.3601 188.791L65.2355 188.751C65.1079 188.745 64.9825 188.714 64.867 188.658C64.7516 188.603 64.6485 188.524 64.564 188.428L64.2161 188.032C64.1193 187.924 63.9916 187.849 63.8508 187.817C63.7101 187.785 63.5635 187.798 63.4314 187.854C62.8165 188.112 62.4552 187.951 62.3473 187.369C62.288 187.062 62.1019 186.922 61.7891 186.949L60.0011 187.102C59.7854 187.124 59.6047 187.051 59.4591 186.884C57.1776 184.275 57.6873 181.495 53.7716 180.187C53.4696 180.09 53.181 180.122 52.906 180.283L52.4044 180.591C52.0969 180.774 51.8165 180.739 51.563 180.485C51.18 180.108 50.7971 180.084 50.4142 180.413C50.2108 180.59 49.9463 180.688 49.6699 180.687L48.6505 180.671C48.3161 180.666 48.0896 180.817 47.9709 181.124C47.8846 181.339 47.7471 181.49 47.5583 181.576C47.3318 181.684 47.1781 181.619 47.0972 181.382C47.0594 181.275 47.0001 181.186 46.9192 181.116C46.752 180.976 46.574 180.957 46.3852 181.059C45.1825 181.689 43.9905 181.697 42.8094 181.083C42.4965 180.922 42.2026 180.949 41.9275 181.164Z" fill="#FFCC00"/>
</svg>
