<svg width="89" height="122" viewBox="0 0 89 122" fill="none" xmlns="http://www.w3.org/2000/svg">
<path d="M88.1745 60.7936L88.1346 60.6809C87.7554 60.3803 87.7753 60.6245 87.436 59.704C81.5876 59.4034 83.0647 54.3498 80.6295 48.6386C80.1505 46.5533 81.3282 41.387 78.5337 39.2641C77.7353 38.5878 77.875 38.1745 77.9748 36.3522C77.8151 36.2958 77.5956 35.6571 77.0766 34.8117C76.3381 33.1396 75.7592 30.9416 75.0606 28.18C74.8211 26.5267 76.4379 26.0759 77.7552 23.8966C75.6794 17.96 68.7931 11.9671 75.0007 4.5088C74.7612 4.39608 75.0806 4.41486 74.2622 3.7949V4.00155H74.1624C74.1624 4.00155 74.1624 3.83248 73.9228 3.75733L73.843 3.7949C73.843 3.7949 73.7632 3.79491 73.5237 3.58826L73.6833 3.55068L73.7432 3.45675C73.7432 3.45675 73.8231 3.41916 73.6235 3.19372C73.3041 3.19372 73.5236 2.98707 71.9867 3.06222L72.1065 3.40038C72.1065 3.40038 72.0267 3.5131 71.7871 3.49432C71.7871 3.47553 71.7871 3.40038 71.8869 3.28766C71.8869 3.28766 71.847 3.28766 71.6873 3.28766L71.847 3.0998V2.9495C71.847 2.9495 71.8869 2.91194 71.5875 2.70528C71.5875 2.76164 70.0107 3.53189 68.6733 2.40469C68.6134 2.40469 68.3739 2.76164 67.9148 2.40469V2.31076C67.9148 2.31076 67.8749 2.27318 68.2342 2.40469C68.2342 2.42348 68.2342 2.34834 68.1344 2.19804C68.1743 2.23562 68.1743 2.19804 68.5735 2.40469C68.2741 1.72837 68.1544 2.40469 66.1983 0.582389C66.1983 0.526029 66.0386 0.826615 65.6593 0.882975C65.5595 1.23992 65.5994 0.920549 65.4398 1.99139C65.3799 1.95381 65.4398 1.9726 65.2202 1.89746C65.34 2.14168 65.1004 2.87435 66.0785 3.40038L66.1184 3.68218C65.5795 4.28335 65.8988 5.26027 64.3819 5.93659C64.3419 6.08688 64.2421 5.84265 63.9627 6.93228L63.8829 7.00743C63.7032 7.02621 63.3838 7.04499 63.304 7.62737C63.1443 7.81524 63.304 7.62738 61.3279 8.30369C61.4078 8.39763 61.3279 8.34128 61.6074 8.54793L61.6473 8.66065C61.4477 8.94245 61.5475 9.11152 59.7511 10.7272C59.5115 10.9338 58.0145 10.652 57.1163 11.178C56.9167 11.1405 56.3778 11.2156 55.8189 11.3847C55.779 11.3847 55.6991 11.3096 55.4796 10.9902H55.28C54.8009 12.3616 53.9826 12.2865 52.5254 14.6348C52.7051 14.973 52.6053 14.5784 52.6851 15.9311C51.9466 16.4007 52.266 17.9037 50.9486 18.317C50.23 20.1205 47.6751 21.2101 47.6152 23.6148C47.7749 23.6712 47.6152 23.859 48.1541 24.8359L48.3737 24.7232C49.5514 24.9675 50.3298 27.6915 48.1941 28.7999C48.1342 28.9314 48.254 28.9878 48.5134 29.8896C48.5134 30.0023 48.3138 29.9647 48.1541 30.5471L48.2539 30.8101C50.3697 33.3651 51.5873 37.6109 48.2539 40.4852C48.0543 40.2034 47.1961 42.5518 45.7988 43.0778C45.739 43.2093 46.1182 43.6038 45.8787 44.0923C45.8787 44.1298 45.8986 44.0923 46.0982 44.3928C45.8787 45.2007 45.3797 44.8249 45.9984 46.8351C45.1002 47.5866 46.8567 48.3005 46.218 49.4652C47.1761 50.4046 47.7949 51.6633 49.5713 52.1893L49.7909 52.4147V53.5232L49.8707 53.6359C49.8707 53.6359 49.8707 53.5983 50.0703 53.6734L50.1102 53.8613L49.731 54.1055C49.5913 54.3873 49.3517 55.0449 49.6711 55.7963L49.6112 55.9278C49.6112 55.9278 49.4915 55.9654 49.3318 56.0969C49.4915 57.7314 47.5753 61.376 44.2818 59.8167C42.8647 60.1924 40.5094 62.0335 38.7529 60.2112C38.7129 60.1361 38.7529 60.1548 38.5932 59.7603L38.4734 59.6852C38.4734 59.6852 38.3736 59.7603 38.0343 59.7415L37.9744 59.6288L37.1161 59.1779H37.2159C36.3776 58.5204 34.2418 59.4785 32.3656 59.8918C32.3057 59.8167 32.4254 59.8918 32.2059 59.6288L32.0262 59.5725C31.9065 59.7979 31.647 59.8918 30.8286 60.0797C30.7688 60.1361 30.8286 60.1736 30.6091 60.8875C30.6091 60.8875 30.5691 60.8875 30.1699 60.5869C30.1699 60.6245 29.9703 60.5494 29.8306 60.8499C29.8306 60.8687 30.0302 60.8875 30.15 61.2257L30.1101 61.282C30.1101 61.282 30.0701 61.3008 29.7707 61.2445L29.8506 61.1881C29.8506 61.1881 29.631 61.4699 29.0522 61.7329C29.0122 61.7893 29.0322 61.8081 28.9524 62.2965C28.5332 62.4092 28.5931 63.2546 27.5352 63.4989C27.5352 63.2359 27.4753 64.194 26.7767 65.0394C26.8565 65.1145 26.2577 64.8515 25.7587 65.246C24.8206 65.2836 23.2237 66.1478 21.8864 67.9889L21.7866 67.8949C21.6669 67.9513 20.9084 68.2707 20.6489 69.21L20.3694 69.3227C20.3694 69.3227 20.2696 69.1724 19.7507 68.8343C19.5511 68.7591 19.3115 69.2851 18.7527 68.8155C18.9523 68.7779 18.1539 68.9658 17.9143 69.5669C17.8744 69.5669 17.9742 69.6045 17.5351 69.5669C17.4952 69.6609 17.4353 69.6045 17.4153 69.9051L17.3155 70.0178C14.7007 71.5959 8.13379 70.7129 7.49506 76.1611C7.49506 76.1798 7.4751 76.1611 7.31542 76.2738C7.3753 76.6307 7.51503 76.3489 7.31542 77.1004L7.21562 76.9877C7.21562 76.9877 7.21561 77.2131 7.11581 77.7391L7.21562 77.9082V78.0021L7.09586 78.1149C7.09586 78.1149 7.05593 78.1524 7.27549 78.2839L7.31542 78.3967L7.25551 78.4906L7.07588 78.5845C7.17568 79.8057 5.9182 81.7595 5.00002 83.8072C4.28145 84.5211 4.46109 84.1078 4.06189 86.6252L3.56288 86.9634V87.0761L3.86227 87.17L3.82237 87.3015C3.28345 87.2828 3.54293 88.5602 2.38523 89.0111C2.42515 88.936 2.00598 89.3869 1.84629 89.725H1.60678C1.58682 89.8941 1.60678 89.462 1.04789 90.4577L1.08779 90.8522C-0.069903 91.754 1.00796 93.689 1.62673 95.8495V95.9434L1.52692 96.0185C0.748471 97.4651 4.6607 99.4189 2.72455 101.129C2.88423 101.673 2.28543 102.556 2.82436 104.736C2.28543 105.412 2.34529 105.769 2.36525 108.117C2.42513 108.117 2.18562 108.155 1.72654 108.455C1.70658 108.512 1.72654 108.7 1.72654 109.357C1.82634 109.301 1.487 109.489 0.868229 110.785C1.42712 111.386 0.868224 111.48 0.987986 112.851C7.37528 109.376 11.7266 128.764 22.1259 118.281C23.7627 115.5 30.9883 120.836 35.5193 109.752C40.1501 104.679 28.5332 100.565 40.3297 97.6906C41.5473 101.016 45.0603 97.5215 47.0763 99.6819C49.6312 101.316 51.5474 101.448 55.4995 100.602C55.6393 100.49 55.5794 100.509 55.6592 100.152C57.1762 97.9348 59.791 97.7845 62.9048 96.4319C65.1204 96.244 67.7152 97.5215 67.2162 92.9563C69.9109 92.7497 71.7871 92.3176 73.0646 88.8233C72.9648 89.1614 78.0347 86.1556 78.4539 84.6151C78.8531 84.3896 79.0527 84.2769 80.1305 84.6902C80.6295 84.5023 80.39 84.1266 80.7892 83.3563C80.9688 83.3188 81.0487 83.4127 81.5278 83.6381C82.1066 83.4315 81.3481 83.0933 82.5058 82.68C82.9449 81.2147 90.0708 77.8894 84.2623 74.6769C87.0168 72.9673 79.9908 69.6609 86.1985 69.1724C85.5398 66.2605 85.42 65.4151 88.1545 60.6809L88.1745 60.7936Z" fill="#2D73B5"/>
<path d="M88.1745 60.7936L88.1346 60.6809C87.7554 60.3803 87.7753 60.6245 87.436 59.704C81.5876 59.4034 83.0647 54.3498 80.6295 48.6386C80.1505 46.5533 81.3282 41.387 78.5337 39.2641C77.7353 38.5878 77.875 38.1745 77.9748 36.3522C77.8151 36.2958 77.5956 35.6571 77.0766 34.8117C76.3381 33.1396 75.7592 30.9416 75.0606 28.18C74.8211 26.5267 76.4379 26.0759 77.7552 23.8966C75.6794 17.96 68.7931 11.9671 75.0007 4.5088C74.7612 4.39608 75.0806 4.41486 74.2622 3.7949V4.00155H74.1624C74.1624 4.00155 74.1624 3.83248 73.9228 3.75733L73.843 3.7949C73.843 3.7949 73.7632 3.79491 73.5237 3.58826L73.6833 3.55068L73.7432 3.45675C73.7432 3.45675 73.8231 3.41916 73.6235 3.19372C73.3041 3.19372 73.5236 2.98707 71.9867 3.06222L72.1065 3.40038C72.1065 3.40038 72.0267 3.5131 71.7871 3.49432C71.7871 3.47553 71.7871 3.40038 71.8869 3.28766C71.8869 3.28766 71.847 3.28766 71.6873 3.28766L71.847 3.0998V2.9495C71.847 2.9495 71.8869 2.91194 71.5875 2.70528C71.5875 2.76164 70.0107 3.53189 68.6733 2.40469C68.6134 2.40469 68.3739 2.76164 67.9148 2.40469V2.31076C67.9148 2.31076 67.8749 2.27318 68.2342 2.40469C68.2342 2.42348 68.2342 2.34834 68.1344 2.19804C68.1743 2.23562 68.1743 2.19804 68.5735 2.40469C68.2741 1.72837 68.1544 2.40469 66.1983 0.582389C66.1983 0.526029 66.0386 0.826615 65.6593 0.882975C65.5595 1.23992 65.5994 0.920549 65.4398 1.99139C65.3799 1.95381 65.4398 1.9726 65.2202 1.89746C65.34 2.14168 65.1004 2.87435 66.0785 3.40038L66.1184 3.68218C65.5795 4.28335 65.8988 5.26027 64.3819 5.93659C64.3419 6.08688 64.2421 5.84265 63.9627 6.93228L63.8829 7.00743C63.7032 7.02621 63.3838 7.04499 63.304 7.62737C63.1443 7.81524 63.304 7.62738 61.3279 8.30369C61.4078 8.39763 61.3279 8.34128 61.6074 8.54793L61.6473 8.66065C61.4477 8.94245 61.5475 9.11152 59.7511 10.7272C59.5115 10.9338 58.0145 10.652 57.1163 11.178C56.9167 11.1405 56.3778 11.2156 55.8189 11.3847C55.779 11.3847 55.6991 11.3096 55.4796 10.9902H55.28C54.8009 12.3616 53.9826 12.2865 52.5255 14.6348C52.7051 14.973 52.6053 14.5784 52.6851 15.9311C51.9466 16.4007 52.266 17.9037 50.9486 18.317C50.23 20.1205 47.6751 21.2101 47.6152 23.6148C47.7749 23.6712 47.6152 23.859 48.1541 24.8359L48.3737 24.7232C49.5514 24.9675 50.3298 27.6915 48.1941 28.7999C48.1342 28.9314 48.254 28.9878 48.5134 29.8896C48.5134 30.0023 48.3138 29.9647 48.1541 30.5471L48.254 30.8101C50.3697 33.3651 51.5873 37.6109 48.254 40.4852C48.0543 40.2034 47.1961 42.5518 45.7988 43.0778C45.739 43.2093 46.1182 43.6038 45.8787 44.0923C45.8787 44.1298 45.8986 44.0923 46.0982 44.3928C45.8787 45.2007 45.3797 44.8249 45.9984 46.8351C45.1002 47.5866 46.8567 48.3005 46.218 49.4652C47.1761 50.4046 47.7949 51.6633 49.5713 52.1893L49.7909 52.4147V53.5231L49.8707 53.6359C49.8707 53.6359 49.8707 53.5983 50.0703 53.6734L50.1102 53.8613L49.731 54.1055C49.5913 54.3873 49.3517 55.0449 49.6711 55.7963L49.6112 55.9278C49.6112 55.9278 49.4915 55.9654 49.3318 56.0969C49.4915 57.7314 47.5753 61.376 44.2818 59.8167C42.8647 60.1924 40.5094 62.0335 38.7529 60.2112C38.7129 60.1361 38.7529 60.1548 38.5932 59.7603L38.4734 59.6852C38.4734 59.6852 38.3736 59.7603 38.0343 59.7415L37.9744 59.6288L37.1161 59.1779H37.2159C36.3776 58.5204 34.2418 59.4785 32.3656 59.8918C32.3057 59.8167 32.4254 59.8918 32.2059 59.6288L32.0262 59.5725C31.9065 59.7979 31.647 59.8918 30.8286 60.0797C30.7688 60.1361 30.8286 60.1736 30.6091 60.8875C30.6091 60.8875 30.5691 60.8875 30.1699 60.5869C30.1699 60.6245 29.9703 60.5494 29.8306 60.8499C29.8306 60.8687 30.0302 60.8875 30.15 61.2257L30.1101 61.282C30.1101 61.282 30.0701 61.3008 29.7707 61.2445L29.8506 61.1881C29.8506 61.1881 29.631 61.4699 29.0522 61.7329C29.0122 61.7893 29.0322 61.8081 28.9524 62.2965C28.5332 62.4092 28.5931 63.2546 27.5352 63.4989C27.5352 63.2359 27.4753 64.194 26.7767 65.0394C26.8565 65.1145 26.2577 64.8515 25.7587 65.246C24.8206 65.2836 23.2237 66.1478 21.8864 67.9889L21.7866 67.8949C21.6669 67.9513 20.9084 68.2707 20.6489 69.21L20.3694 69.3227C20.3694 69.3227 20.2696 69.1724 19.7507 68.8343C19.5511 68.7591 19.3115 69.2851 18.7527 68.8155C18.9523 68.7779 18.1539 68.9658 17.9143 69.5669C17.8744 69.5669 17.9742 69.6045 17.5351 69.5669C17.4952 69.6609 17.4353 69.6045 17.4153 69.9051L17.3155 70.0178C14.7007 71.5959 8.13379 70.7129 7.49506 76.1611C7.49506 76.1798 7.4751 76.1611 7.31542 76.2738C7.3753 76.6307 7.51503 76.3489 7.31542 77.1004L7.21561 76.9877C7.21561 76.9877 7.21561 77.2131 7.11581 77.7391L7.21561 77.9082V78.0021L7.09586 78.1149C7.09586 78.1149 7.05593 78.1524 7.27549 78.2839L7.31542 78.3967L7.25551 78.4906L7.07588 78.5845C7.17568 79.8057 5.9182 81.7595 5.00002 83.8072C4.28145 84.5211 4.46109 84.1078 4.06189 86.6252L3.56288 86.9634V87.0761L3.86227 87.17L3.82237 87.3015C3.28345 87.2828 3.54293 88.5602 2.38523 89.0111C2.42515 88.936 2.00598 89.3869 1.84629 89.725H1.60678C1.58682 89.8941 1.60678 89.462 1.04789 90.4577L1.08779 90.8522C-0.069903 91.754 1.00796 93.689 1.62673 95.8495V95.9434L1.52692 96.0185C0.748471 97.4651 4.6607 99.4189 2.72455 101.129C2.88423 101.673 2.28543 102.556 2.82436 104.736C2.28543 105.412 2.34529 105.769 2.36525 108.117C2.42513 108.117 2.18562 108.155 1.72654 108.455C1.70658 108.512 1.72654 108.7 1.72654 109.357C1.82634 109.301 1.487 109.489 0.868229 110.785C1.42712 111.386 0.868224 111.48 0.987986 112.851C7.37528 109.376 11.7266 128.764 22.1259 118.281C23.7627 115.5 30.9883 120.836 35.5193 109.752C40.1501 104.679 28.5332 100.565 40.3297 97.6906C41.5473 101.016 45.0603 97.5215 47.0763 99.6819C49.6312 101.316 51.5474 101.448 55.4995 100.602C55.6393 100.49 55.5794 100.509 55.6592 100.152C57.1762 97.9348 59.791 97.7845 62.9048 96.4319C65.1204 96.244 67.7152 97.5215 67.2162 92.9563C69.9109 92.7497 71.7871 92.3176 73.0646 88.8233C72.9648 89.1614 78.0347 86.1556 78.4539 84.615C78.8531 84.3896 79.0527 84.2769 80.1305 84.6902C80.6295 84.5023 80.39 84.1266 80.7892 83.3563C80.9688 83.3188 81.0487 83.4127 81.5278 83.6381C82.1066 83.4315 81.3481 83.0933 82.5058 82.68C82.9449 81.2147 90.0708 77.8894 84.2623 74.6769C87.0168 72.9673 79.9908 69.6609 86.1985 69.1724C85.5398 66.2605 85.42 65.4151 88.1545 60.6809L88.1745 60.7936Z" stroke="white" stroke-width="1.15034" stroke-linecap="round" stroke-linejoin="round"/>
</svg>
