<svg width="115" height="110" viewBox="0 0 115 110" fill="none" xmlns="http://www.w3.org/2000/svg">
<path d="M114.325 36.8425C114.364 36.7297 113.885 36.7109 114.045 35.9218C106.759 30.2851 95.3997 26.0575 83.5617 23.3143C83.3221 22.6942 84.5598 21.5669 85.558 19.3873C84.7395 17.1702 79.8885 21.999 81.0663 13.2621C79.8486 13.8257 78.531 12.8299 75.277 12.999L75.0974 13.1493C72.9813 13.1493 70.9251 13.1493 66.5332 11.9656C67.0323 7.24953 70.9051 10.1994 71.1846 1.50003L71.0648 1.40611C68.4696 0.861225 64.6168 9.95517 59.7658 7.38105C57.4102 2.40192 53.9166 8.1514 47.5684 8.13261C46.0113 7.64409 41.6794 4.46874 39.2838 3.07835C36.2494 3.07835 33.5145 -1.61896 29.1027 1.85703H28.963C18.3626 2.40192 25.8288 4.5251 11.4954 12.1723H11.4754C11.675 10.4437 9.49907 10.9322 8.92015 8.97814C8.58078 8.80904 8.72051 9.16601 7.66247 8.80902L7.50277 8.92178L7.36301 9.41029C7.44286 9.69212 7.36303 9.35392 7.94195 10.2934L7.90202 10.5752L7.40294 10.6128C8.36117 12.1911 8.08169 11.4583 10.2177 15.8362C10.098 15.7422 10.6969 16.2307 11.4155 16.212L11.5552 16.3623V16.7005C11.5552 16.7005 11.2358 16.6065 10.1578 16.7756C8.90018 19.4061 8.10165 22.8821 6.5645 27.1285L7.20333 27.1848L7.36301 27.3164C7.46282 27.6734 7.36302 27.4291 7.62254 29.2329C7.74232 29.3268 7.2632 29.045 6.46468 29.4583C5.56635 31.2057 4.52828 33.2537 2.97116 36.3539C2.53198 37.2182 2.4122 37.4813 1.19446 39.9427L1.31425 40.3748C1.76674 40.7631 3.11757 41.9218 5.36673 43.8508C5.14714 43.9636 5.30684 44.3581 4.44843 44.6963C4.44843 44.7151 4.34862 44.6212 3.78965 44.5648L3.66988 44.64C3.47025 44.9782 3.68984 44.8467 2.79151 45.1661L2.29243 45.8425C1.65362 45.9176 2.03291 46.3686 0.635501 46.7443V46.9886L0.735322 47.045C0.875063 47.045 1.15454 46.9886 1.27432 47.5147L0.695388 47.7026L0.575615 47.9657L0.675436 48.2475L0.974868 48.4542H1.07469C1.07469 48.4542 1.01481 48.4542 1.25436 48.2475H1.41406C1.41406 48.2475 1.5538 48.2099 1.7135 48.5669C1.3941 49.1494 1.65362 50.6337 3.31055 50.9531C2.81147 51.8926 3.19076 53.9406 3.68983 55.331H3.82957L3.96931 54.7673L4.16895 54.6546C4.60814 54.5982 4.68798 55.2183 5.32679 55.6504L5.36673 55.8007C5.14714 56.0638 4.56821 55.9698 4.06913 56.6463L4.16895 56.7402C4.20888 56.8341 5.3867 56.5523 5.3867 57.5293C5.3867 57.6609 5.28687 57.4918 4.42847 58.2245L4.46839 58.3936C4.46839 58.3936 4.56821 58.45 4.72792 58.5439H4.80777C4.90758 58.6755 4.66803 58.2997 5.52644 59.2016H5.62624L5.68613 58.9198L5.98559 59.164C5.9257 59.5961 6.20517 59.5022 5.42662 60.498C5.74602 61.306 6.20518 62.9406 4.60814 64.4437C4.66803 64.5565 4.70794 64.5565 4.96746 64.8947C4.96746 64.9511 5.02736 64.7819 5.3867 65.1201C5.74603 65.4584 3.37043 67.1682 4.06913 68.5586C4.04917 68.5962 4.18891 68.5022 4.50832 68.8028C4.50832 68.8592 4.38855 69.0659 4.0891 69.7423C4.12903 69.7611 4.08909 70.2872 4.68798 70.6254L4.76783 70.7757L4.0891 71.8279C4.04917 72.1285 4.36857 72.5043 3.82957 73.3498C3.84954 73.5377 4.06914 73.4062 4.30869 74.2141C4.20888 74.2893 4.4684 74.2329 3.72977 75.1911C3.74973 75.5294 3.23069 75.9239 3.35047 76.901C3.84954 76.9761 3.86951 78.1035 5.1671 77.6525C5.22699 77.6713 5.22699 77.6525 5.60629 78.0095C5.74603 77.9532 5.74603 78.0471 6.04548 77.7653C6.14529 77.7089 6.28502 77.9344 6.68428 77.6901H6.64434C6.64434 77.6901 6.62441 77.5774 6.70426 77.4271C7.06359 77.3707 7.66247 77.5398 8.44103 77.3143L8.58075 77.3707C8.60071 77.2204 8.64066 78.0095 9.21958 78.5168C9.55895 78.8175 10.0979 78.0283 10.8366 78.7047C11.0562 78.7047 11.8946 78.2914 12.8329 79.0993H12.9327L12.9926 79.0053C13.1124 79.0429 13.0724 79.0053 13.3719 79.1557H13.5515C13.5515 79.1557 13.6314 79.0993 13.6713 78.9114C13.851 78.8175 14.5697 79.4187 15.5279 78.6859L15.5878 78.7423L15.6277 78.9866L15.7275 79.0805C16.2266 79.0805 16.0669 78.7423 17.065 79.2308C17.065 79.2684 17.065 79.2308 17.085 79.3436L17.1648 79.4187C17.7038 79.5502 18.1031 79.2684 19.2609 79.5502L19.4406 79.4375V79.7006L19.5005 79.7569C19.6802 79.7006 19.6602 79.7569 20.2192 79.8884L20.3989 79.4751C20.3989 79.4751 20.6583 79.6066 20.7781 80.3206C20.858 80.3206 21.5168 80.5836 21.8362 79.6818H21.8961C22.1356 79.7381 21.9759 79.7381 22.8742 79.5878V79.663L22.9341 79.7006C23.0539 79.6442 23.0938 79.6066 23.3733 79.1369C23.6927 79.306 23.4931 79.0993 24.1719 79.8509L24.4114 79.9072L24.4912 79.7757L24.3315 79.4939C26.0084 79.0429 25.5493 76.6567 28.2243 76.9197C28.923 78.4041 30.8994 81.1285 34.6724 80.1327C35.2912 80.5273 34.872 80.3206 36.6287 80.7715C36.6886 80.6212 36.6287 80.7528 36.8483 80.3206C39.4834 83.5148 40.821 86.9907 40.3618 91.688C40.4417 91.8571 41.32 92.3457 40.9607 93.5482C41.1204 93.6985 40.9806 93.7173 41.5596 94.0179C42.2982 94.2622 40.9208 96.5169 42.2982 97.757C42.2183 98.3018 41.6993 107.396 46.0912 107.753C46.3108 107.659 47.0494 108.542 48.327 107.753C50.6028 107.471 52.8985 106.344 56.0727 104.596C58.3884 105.329 57.8893 105.724 62.2811 108.561C62.1015 108.561 62.9599 108.429 63.3591 107.828C63.1795 107.828 63.8582 107.79 64.9362 106.926C65.595 97.7381 73.0811 91.2183 81.1461 84.2851C81.9047 84.1348 81.6252 84.0596 82.5236 82.9323L82.6633 83.0262C88.6322 81.1285 92.4851 75.2099 96.9767 70.3811C96.8969 70.4187 97.2163 70.0805 96.857 69.7235L96.6574 69.6483L95.9786 68.5398L96.0185 68.1076C97.7952 66.6985 100.73 66.8863 99.6917 62.0951C102.207 60.2162 103.425 58.1306 104.283 53.4521C104.583 53.283 104.343 53.283 105.321 53.0951C107.497 47.7026 114.045 53.3957 113.686 37.4249C113.726 37.3686 113.766 37.4249 114.225 37.3122L114.424 37.0116L114.325 36.7485V36.8425Z" fill="#2D73B5"/>
<path d="M114.325 36.8425C114.364 36.7297 113.885 36.7109 114.045 35.9218C106.759 30.2851 95.3997 26.0575 83.5617 23.3143C83.3221 22.6942 84.5598 21.5669 85.558 19.3873C84.7395 17.1702 79.8885 21.999 81.0663 13.2621C79.8486 13.8257 78.531 12.8299 75.277 12.999L75.0974 13.1493C72.9813 13.1493 70.9251 13.1493 66.5332 11.9656C67.0323 7.24953 70.9051 10.1994 71.1846 1.50003L71.0648 1.40611C68.4696 0.861225 64.6168 9.95517 59.7658 7.38105C57.4102 2.40192 53.9166 8.1514 47.5684 8.13261C46.0113 7.64409 41.6794 4.46874 39.2838 3.07835C36.2494 3.07835 33.5145 -1.61896 29.1027 1.85703H28.963C18.3626 2.40192 25.8288 4.5251 11.4954 12.1723H11.4754C11.675 10.4437 9.49907 10.9322 8.92015 8.97814C8.58078 8.80904 8.72051 9.16601 7.66247 8.80902L7.50277 8.92178L7.36301 9.41029C7.44286 9.69212 7.36303 9.35392 7.94195 10.2934L7.90202 10.5752L7.40294 10.6128C8.36117 12.1911 8.08169 11.4583 10.2177 15.8362C10.098 15.7422 10.6969 16.2307 11.4155 16.212L11.5552 16.3623V16.7005C11.5552 16.7005 11.2358 16.6065 10.1578 16.7756C8.90018 19.4061 8.10165 22.8821 6.5645 27.1285L7.20333 27.1848L7.36301 27.3164C7.46282 27.6734 7.36302 27.4291 7.62254 29.2329C7.74232 29.3268 7.2632 29.045 6.46468 29.4583C5.56635 31.2057 4.52828 33.2537 2.97116 36.3539C2.53198 37.2182 2.4122 37.4813 1.19446 39.9427L1.31425 40.3748C1.76674 40.7631 3.11757 41.9218 5.36673 43.8508C5.14714 43.9636 5.30684 44.3581 4.44843 44.6963C4.44843 44.7151 4.34862 44.6212 3.78965 44.5648L3.66988 44.64C3.47025 44.9782 3.68984 44.8467 2.79151 45.1661L2.29243 45.8425C1.65362 45.9176 2.03291 46.3686 0.635501 46.7443V46.9886L0.735322 47.045C0.875063 47.045 1.15454 46.9886 1.27432 47.5147L0.695388 47.7026L0.575615 47.9657L0.675436 48.2475L0.974868 48.4542H1.07469C1.07469 48.4542 1.01481 48.4542 1.25436 48.2475H1.41406C1.41406 48.2475 1.5538 48.2099 1.7135 48.5669C1.3941 49.1494 1.65362 50.6337 3.31055 50.9531C2.81147 51.8926 3.19076 53.9406 3.68983 55.331H3.82957L3.96931 54.7673L4.16895 54.6546C4.60814 54.5982 4.68798 55.2183 5.32679 55.6504L5.36673 55.8007C5.14714 56.0638 4.56821 55.9698 4.06913 56.6463L4.16895 56.7402C4.20888 56.8341 5.3867 56.5523 5.3867 57.5293C5.3867 57.6609 5.28687 57.4918 4.42847 58.2245L4.46839 58.3936C4.46839 58.3936 4.56821 58.45 4.72792 58.5439H4.80777C4.90758 58.6755 4.66803 58.2997 5.52644 59.2016H5.62624L5.68613 58.9198L5.98559 59.164C5.9257 59.5961 6.20517 59.5022 5.42662 60.498C5.74602 61.306 6.20518 62.9406 4.60814 64.4437C4.66803 64.5565 4.70794 64.5565 4.96746 64.8947C4.96746 64.9511 5.02736 64.7819 5.3867 65.1201C5.74603 65.4584 3.37043 67.1682 4.06913 68.5586C4.04917 68.5961 4.18891 68.5022 4.50832 68.8028C4.50832 68.8592 4.38855 69.0659 4.0891 69.7423C4.12903 69.7611 4.08909 70.2872 4.68798 70.6254L4.76783 70.7757L4.0891 71.8279C4.04917 72.1285 4.36857 72.5043 3.82957 73.3498C3.84954 73.5377 4.06914 73.4062 4.30869 74.2141C4.20888 74.2893 4.4684 74.2329 3.72977 75.1911C3.74973 75.5293 3.23069 75.9239 3.35047 76.901C3.84954 76.9761 3.86951 78.1035 5.1671 77.6525C5.22699 77.6713 5.22699 77.6525 5.60629 78.0095C5.74603 77.9532 5.74603 78.0471 6.04548 77.7653C6.14529 77.7089 6.28502 77.9344 6.68428 77.6901H6.64434C6.64434 77.6901 6.62441 77.5774 6.70426 77.4271C7.06359 77.3707 7.66247 77.5398 8.44103 77.3143L8.58075 77.3707C8.60072 77.2204 8.64066 78.0095 9.21958 78.5168C9.55895 78.8175 10.0979 78.0283 10.8366 78.7047C11.0562 78.7047 11.8946 78.2914 12.8329 79.0993H12.9327L12.9926 79.0053C13.1124 79.0429 13.0724 79.0053 13.3719 79.1557H13.5515C13.5515 79.1557 13.6314 79.0993 13.6713 78.9114C13.851 78.8175 14.5697 79.4187 15.5279 78.6859L15.5878 78.7423L15.6277 78.9866L15.7275 79.0805C16.2266 79.0805 16.0669 78.7423 17.065 79.2308C17.065 79.2684 17.065 79.2308 17.085 79.3436L17.1648 79.4187C17.7038 79.5502 18.1031 79.2684 19.2609 79.5502L19.4406 79.4375V79.7006L19.5005 79.7569C19.6802 79.7006 19.6602 79.7569 20.2192 79.8884L20.3989 79.4751C20.3989 79.4751 20.6583 79.6066 20.7781 80.3206C20.858 80.3206 21.5168 80.5836 21.8362 79.6818H21.8961C22.1356 79.7381 21.9759 79.7381 22.8742 79.5878V79.663L22.9341 79.7006C23.0539 79.6442 23.0938 79.6066 23.3733 79.1369C23.6927 79.306 23.4931 79.0993 24.1719 79.8509L24.4114 79.9072L24.4912 79.7757L24.3315 79.4939C26.0084 79.0429 25.5493 76.6567 28.2243 76.9197C28.923 78.4041 30.8994 81.1285 34.6724 80.1327C35.2912 80.5273 34.872 80.3206 36.6287 80.7715C36.6886 80.6212 36.6287 80.7528 36.8483 80.3206C39.4834 83.5148 40.821 86.9907 40.3618 91.688C40.4417 91.8571 41.32 92.3457 40.9607 93.5482C41.1204 93.6985 40.9806 93.7173 41.5596 94.0179C42.2982 94.2622 40.9208 96.5169 42.2982 97.757C42.2183 98.3018 41.6993 107.396 46.0912 107.753C46.3108 107.659 47.0494 108.542 48.327 107.753C50.6028 107.471 52.8985 106.344 56.0727 104.596C58.3884 105.329 57.8893 105.724 62.2811 108.561C62.1015 108.561 62.9599 108.429 63.3591 107.828C63.1795 107.828 63.8582 107.79 64.9362 106.926C65.595 97.7381 73.0811 91.2183 81.1461 84.2851C81.9047 84.1348 81.6252 84.0596 82.5236 82.9323L82.6633 83.0262C88.6322 81.1285 92.4851 75.2099 96.9767 70.3811C96.8969 70.4187 97.2163 70.0805 96.857 69.7235L96.6574 69.6483L95.9786 68.5398L96.0185 68.1076C97.7952 66.6985 100.73 66.8863 99.6917 62.0951C102.207 60.2162 103.425 58.1306 104.283 53.4521C104.583 53.283 104.343 53.283 105.321 53.0951C107.497 47.7026 114.045 53.3957 113.686 37.4249C113.726 37.3686 113.766 37.4249 114.225 37.3122L114.424 37.0116L114.325 36.7485V36.8425Z" stroke="white" stroke-width="1.15034" stroke-linecap="round" stroke-linejoin="round"/>
</svg>
