<svg width="74" height="152" viewBox="0 0 74 152" fill="none" xmlns="http://www.w3.org/2000/svg">
<path d="M4.18014 96.4381L3.22551 96.5347C2.90459 96.5723 2.63535 96.473 2.41778 96.2366L0.157739 93.8679C0.0902546 93.7967 0.0421443 93.7092 0.0179054 93.6135C-0.00633353 93.5177 -0.00595758 93.4168 0.019001 93.3201L2.16481 85.0377C2.26815 84.6295 2.51294 84.5167 2.89913 84.6993L3.20917 84.8443C3.25758 84.8684 3.2975 84.906 3.32371 84.952C3.34992 84.998 3.36123 85.0503 3.35608 85.1021L3.16834 86.7618C3.15819 86.8474 3.16777 86.9341 3.19633 87.0156C3.22488 87.0972 3.27175 87.1715 3.33347 87.2332C3.39519 87.295 3.47024 87.3425 3.55318 87.3725C3.63612 87.4024 3.72483 87.414 3.81293 87.4064C4.71585 87.3258 5.48557 86.9686 6.12197 86.3348C6.35586 86.1039 6.4782 85.8246 6.48908 85.4969C6.51084 84.5785 6.9106 83.8372 7.68842 83.2732C7.96039 83.0745 8.04202 82.8167 7.93323 82.4998L6.47275 78.1169C6.38028 77.8376 6.47272 77.6442 6.75012 77.5368C7.3974 77.2897 7.72382 76.7714 7.72926 75.9818C7.73469 75.7562 7.6667 75.5548 7.52528 75.3775C6.64956 74.2442 6.76917 73.2855 7.88423 72.5013C8.11812 72.3401 8.29764 72.1333 8.42275 71.8809C9.63843 69.4477 11.7598 66.3137 11.4008 63.5421C11.1886 61.8985 10.8677 60.2818 10.438 58.6919C10.0545 57.2578 8.98568 56.6455 7.87606 55.7673C7.81211 55.7157 7.76215 55.6491 7.73075 55.5738C7.69935 55.4984 7.68753 55.4167 7.69649 55.3363C7.70545 55.2559 7.73485 55.1793 7.78194 55.1138C7.82903 55.0483 7.89227 54.9959 7.9658 54.9616L9.61392 54.1559C9.89132 54.0216 10.0953 53.8175 10.2258 53.5436C10.7045 52.5392 11.4334 51.7255 12.4125 51.1024C12.6409 50.952 12.8857 50.9198 13.1468 51.0057L13.5791 51.1427C13.8729 51.2394 14.1557 51.2125 14.4277 51.0621C15.7059 50.3853 16.5926 49.3809 17.0875 48.0489C17.1963 47.7588 17.4085 47.6192 17.724 47.6299L24.039 47.8797C24.2651 47.8901 24.4852 47.8214 24.659 47.6863C25.5457 46.988 26.4921 46.9854 27.4983 47.6783C27.5805 47.7354 27.6805 47.762 27.7806 47.7531C27.8807 47.7443 27.9745 47.7006 28.045 47.6299C28.8881 46.7759 29.8916 46.1958 31.0556 45.8896C31.333 45.8144 31.4962 45.6372 31.5451 45.3579C31.779 44.0151 32.6385 43.4001 34.1234 43.5129C34.3859 43.5281 34.6451 43.4447 34.8496 43.2792L35.0617 43.0939C35.0953 43.0653 35.1348 43.0441 35.1776 43.0317C35.2204 43.0193 35.2655 43.0161 35.3101 43.0222C35.3547 43.0282 35.3978 43.0435 35.4365 43.067C35.4752 43.0904 35.5087 43.1216 35.5349 43.1584C35.796 43.5344 36.1658 43.725 36.6445 43.7304C36.7982 43.7305 36.9518 43.6828 37.0851 43.5934C38.075 42.9059 38.8964 42.06 39.5491 41.0556C39.6998 40.8258 39.7709 40.5539 39.7518 40.2808C39.7327 40.0076 39.6243 39.748 39.443 39.5409L36.8811 36.576C36.6907 36.3504 36.4514 36.1892 36.1631 36.0926L34.3926 35.5125C34.1822 35.4396 34.0076 35.293 33.9031 35.1016C33.555 34.4463 32.9893 34.218 32.2061 34.4167C32.0853 34.4464 31.9586 34.4457 31.8376 34.4148C31.7165 34.3838 31.6049 34.3236 31.5126 34.2395C30.2479 33.0873 28.7222 32.5717 27.735 31.3068C26.9245 30.2648 26.2636 29.1422 25.7523 27.9391C25.6327 27.6705 25.4477 27.4583 25.1975 27.3026L24.1695 26.658C23.9628 26.5238 23.8241 26.3384 23.7534 26.1021L21.3057 17.9003C21.2133 17.6048 21.2567 17.3282 21.4362 17.0704C22.4316 15.6041 22.9048 14.0894 24.4061 13.0581C24.6345 12.897 24.7787 12.6795 24.8385 12.4055C24.9963 11.6589 25.3471 11.009 25.8911 10.4558C25.9889 10.3538 26.0595 10.2297 26.0965 10.0946C26.1336 9.95959 26.1359 9.81789 26.1032 9.68233C25.5239 7.2814 26.7396 6.94302 28.2163 5.55725C28.385 5.40148 28.5698 5.37998 28.7711 5.49278C31.11 6.83021 33.4816 8.12468 35.8858 9.37617C38.105 10.5363 40.2507 8.33683 42.4618 8.11124C42.7011 8.08976 42.9269 8.02262 43.1391 7.90982C44.3901 7.23305 45.6139 7.31363 46.8106 8.15154C47.0717 8.33416 47.3382 8.34489 47.6101 8.18375L49.1032 7.28946C49.3534 7.13906 49.4785 6.91884 49.4785 6.62879C49.4893 5.46324 49.9817 4.56089 50.9553 3.92171C51.1783 3.77669 51.4231 3.72028 51.6896 3.7525C52.1737 3.81159 52.6034 3.68269 52.9787 3.36579C53.1413 3.22615 53.3547 3.15399 53.5743 3.16437C57.1234 3.31745 57.2948 -0.251718 60.6726 0.0141565C61.086 0.0463837 61.3851 0.312251 61.5701 0.811773C61.6517 1.04273 61.6081 1.24952 61.4395 1.43214C61.0315 1.86184 60.9827 2.31304 61.2927 2.7857C61.6082 3.26374 62.2854 3.83578 63.3243 4.50181C63.5527 4.64683 63.7757 4.64144 63.9932 4.48568C64.8499 3.88947 66.3594 4.57431 67.518 4.24398C67.6399 4.21141 67.7525 4.15161 67.8473 4.06919C67.9421 3.98677 68.0164 3.88393 68.0645 3.76863L69.2068 1.00513C69.2428 0.916496 69.2991 0.837443 69.3716 0.77408C69.444 0.710718 69.5306 0.664755 69.6245 0.639808C69.7185 0.614862 69.8173 0.611598 69.9133 0.630244C70.0092 0.64889 70.0997 0.68896 70.1777 0.747329L71.5729 1.80277C71.8993 2.04984 72.0189 2.3721 71.9319 2.76957C71.6001 4.30574 71.9537 5.64318 72.9926 6.78187C73.1666 6.97524 73.2808 7.20082 73.3352 7.45864C74.249 11.7449 70.8876 14.5003 71.1813 19.0121C71.214 19.4955 71.0018 19.8339 70.5449 20.0273C69.7888 20.3442 69.3972 20.7578 69.37 21.268C69.3047 22.5491 70.961 22.6538 70.0227 24.4746C69.9085 24.7056 69.9167 24.9339 70.0472 25.1595C70.3246 25.6214 70.6917 26.0081 71.1487 26.3196C71.2591 26.3962 71.3488 26.4987 71.41 26.6181C71.4712 26.7375 71.5019 26.8701 71.4994 27.0045C71.494 28.0733 71.6137 29.1046 71.8585 30.0983C72.2011 31.5405 73.4902 32.4025 73.4821 34.0058C73.4739 36.2618 74.3306 37.9859 73.8574 40.1451C73.2645 42.8361 72.5193 45.4787 71.6218 48.073C71.1405 49.4588 71.2221 50.8687 70.8141 52.3431C70.1124 54.8246 65.8943 56.0815 66.9304 58.8853C67.0175 59.1216 67.0094 59.3553 66.906 59.5862C65.3885 62.8492 64.3197 66.2895 62.7205 69.4719C60.7052 73.4923 56.4299 82.0164 57.5885 84.7074C57.7833 85.157 57.8016 85.7082 57.641 86.2953C57.4804 86.8823 57.1479 87.4805 56.6829 88.0187C56.2586 88.5021 56.2694 89.0097 56.7154 89.5414C56.8117 89.6596 56.8588 89.8093 56.8466 89.9595C56.8344 90.1096 56.7641 90.2485 56.6502 90.3471C55.2904 91.561 54.1699 92.9575 53.2887 94.5367C53.1636 94.7569 53.1065 94.9932 53.1174 95.2457C53.2044 96.9752 52.7475 98.5597 51.7467 99.9992C51.6586 100.125 51.6035 100.271 51.5864 100.423C51.5693 100.575 51.5908 100.728 51.6488 100.869C51.9316 101.568 52.3994 102.129 53.0521 102.553C53.1125 102.591 53.163 102.643 53.1995 102.704C53.236 102.764 53.2575 102.833 53.2622 102.904C53.267 102.974 53.2549 103.045 53.2269 103.11C53.1989 103.175 53.1558 103.233 53.1011 103.278L52.6441 103.649C52.5699 103.709 52.5103 103.785 52.4693 103.87C52.4284 103.955 52.4074 104.047 52.4076 104.14L52.3749 107.516C52.3695 107.801 52.4837 108.026 52.7176 108.193L53.9251 109.071C54.1171 109.211 54.2561 109.41 54.3201 109.637C54.3842 109.864 54.3696 110.105 54.2786 110.323C54.1876 110.541 54.0254 110.722 53.818 110.839C53.6105 110.955 53.3697 110.999 53.1338 110.965L51.9507 110.795C51.8759 110.785 51.7997 110.79 51.7274 110.812C51.6551 110.834 51.5884 110.871 51.5323 110.921C51.4763 110.971 51.432 111.032 51.4028 111.101C51.3735 111.17 51.3601 111.244 51.3632 111.319C51.4448 112.882 51.7386 114.091 51.0695 115.525C49.7532 118.355 48.494 121.21 47.2919 124.089C47.2756 124.132 46.9737 125.196 46.3863 127.28C45.5296 130.301 43.3429 131.832 43.5632 135.481C43.5796 135.755 43.5252 136.01 43.4001 136.247C42.4972 137.928 42.4102 139.657 43.1391 141.435C43.2261 141.65 43.2152 141.86 43.1064 142.064L42.1518 143.82C42.0103 144.078 41.7928 144.21 41.4991 144.215C38.1295 144.328 38.5782 147.977 36.922 149.895C36.7425 150.099 36.6227 150.335 36.5629 150.604L36.3426 151.619C36.2882 151.861 36.136 151.987 35.8858 151.998C34.2376 152.086 33.5604 149.404 32.8587 148.388C32.7336 148.206 32.7146 148.01 32.8017 147.8C33.4326 146.286 33.0138 144.945 31.5451 143.78C30.5878 143.017 30.5444 142.303 31.4147 141.637C31.6449 141.461 31.8187 141.224 31.9156 140.954C32.0126 140.683 32.0285 140.39 31.9615 140.11C31.8944 139.83 31.7473 139.575 31.5376 139.374C31.3278 139.173 31.0643 139.036 30.7783 138.978L23.7697 137.592C23.5086 137.544 23.2883 137.42 23.1088 137.222L21.167 135.087C20.9875 134.894 20.8783 134.647 20.857 134.386C20.7754 133.419 20.2912 132.755 19.4046 132.396C19.1599 132.294 18.9125 132.285 18.6623 132.371C17.52 132.75 16.9407 131.711 16.3695 130.978C16.291 130.878 16.1912 130.797 16.0778 130.743C15.9645 130.688 15.8408 130.661 15.7168 130.663L10.6583 130.704C10.4298 130.709 10.2558 130.615 10.1361 130.422L4.80829 121.688C4.59616 121.339 4.64516 121.03 4.9552 120.762L11.8251 114.727C12.01 114.566 12.0997 114.362 12.0943 114.115L12.0779 111.947C12.0783 111.716 12.1504 111.49 12.2846 111.3C12.4188 111.11 12.6086 110.964 12.8286 110.884C13.688 110.567 14.5582 110.529 15.4394 110.771C15.583 110.81 15.7357 110.799 15.8723 110.741C16.0088 110.682 16.1209 110.579 16.1901 110.449C17.4302 108.048 18.1155 105.252 20.5224 103.858C20.6491 103.785 20.7572 103.684 20.8383 103.563C20.9194 103.442 20.9714 103.304 20.9903 103.161C21.0092 103.017 20.9945 102.87 20.9474 102.733C20.9002 102.596 20.8218 102.471 20.7182 102.368L19.8942 101.554C19.6875 101.35 19.6495 101.119 19.78 100.861C20.362 99.6742 20.0438 98.6483 18.8254 97.7835C18.7605 97.7365 18.6848 97.7061 18.6051 97.6948C18.5254 97.6836 18.4441 97.6919 18.3684 97.7191L11.7516 100.217C11.4742 100.319 11.2104 100.297 10.9602 100.152C10.0137 99.5963 8.79809 98.3072 7.63952 99.2902C7.42195 99.4781 7.16898 99.5883 6.88069 99.6205L5.32231 99.7977C5.24077 99.8071 5.15828 99.7971 5.08139 99.7684C5.00449 99.7398 4.93543 99.6934 4.8798 99.633C4.82418 99.5725 4.78352 99.4998 4.76118 99.4207C4.73885 99.3415 4.73544 99.2582 4.75122 99.1774C4.91984 98.3663 4.89267 97.5633 4.66965 96.7684C4.60438 96.5213 4.44122 96.4112 4.18014 96.4381Z" fill="#2D73B5"/>
</svg>
