<svg width="17" height="10" viewBox="0 0 17 10" fill="none" xmlns="http://www.w3.org/2000/svg">
<path d="M16.3242 9.07835C14.3689 7.6061 16.6124 4.99091 16.3448 2.182C16.1184 1.87205 14.3689 1.81393 14.4718 0.729113C11.014 0.632254 7.88557 0.593496 2.18436 0.593496C1.77272 1.21339 2.08143 0.438518 1.58746 2.85999C1.19641 3.01497 0.846525 3.82859 1.7933 4.46786C1.7933 4.42911 1.44339 5.78514 0.620108 5.86263C0.578944 5.94012 0.496625 7.37364 1.17583 7.78045L1.27875 7.97415C1.27875 7.97415 0.928854 8.6328 0.990601 9.13647C5.06584 9.44642 10.2319 9.25268 16.4065 9.27205L16.3036 9.07835H16.3242Z" fill="#2D73B5"/>
<path d="M16.3242 9.07835C14.3689 7.6061 16.6124 4.99091 16.3448 2.182C16.1184 1.87205 14.3689 1.81393 14.4718 0.729113C11.014 0.632254 7.88557 0.593496 2.18436 0.593496C1.77272 1.21339 2.08143 0.438518 1.58746 2.85999C1.19641 3.01497 0.846525 3.82859 1.7933 4.46786C1.7933 4.42911 1.44339 5.78514 0.620108 5.86263C0.578944 5.94012 0.496625 7.37364 1.17583 7.78045L1.27875 7.97415C1.27875 7.97415 0.928854 8.6328 0.9906 9.13647C5.06584 9.44642 10.2319 9.25268 16.4065 9.27206L16.3036 9.07835H16.3242Z" stroke="white" stroke-width="1.15034" stroke-linecap="round" stroke-linejoin="round"/>
</svg>
