<svg width="63" height="43" viewBox="0 0 63 43" fill="none" xmlns="http://www.w3.org/2000/svg">
<path d="M62.3396 9.91339C61.193 11.5226 60.7304 11.8444 60.6097 12.4502C61.012 13.7565 61.5953 13.7376 61.4545 13.8133C61.1729 17.4482 62.3194 18.3191 62.1786 19.8715C56.6471 24.1879 50.3111 23.0331 47.8773 27.6903C47.3744 27.6903 47.2738 28.2582 47.2738 28.2393C46.6302 28.6747 46.3687 28.6558 46.4089 28.6747C45.0814 30.7193 46.4089 31.8363 46.9118 32.4232C47.3945 31.8742 47.7968 31.9877 47.9376 31.8552V32.1392C47.6761 32.48 47.6158 32.5936 47.6158 32.6314L47.3141 32.5368C46.4491 33.3319 46.3687 33.2183 46.0468 33.3319C45.9664 33.8052 45.9664 33.9945 45.9262 34.1271C45.0814 34.146 45.4233 35.2629 45.5239 35.244L45.6647 35.0547H45.7652C45.9865 35.5469 45.5842 35.8498 45.6647 35.8309C39.5097 33.9567 33.9179 36.0391 29.5128 35.7173C29.0301 35.2629 29.0301 35.3576 28.8289 35.244L28.5876 35.3955C28.0646 34.96 27.9841 34.9411 27.9439 34.8464C28.3462 34.8654 28.2657 34.9222 28.3864 34.96L28.5675 34.8086V34.6761L28.4467 34.5625C27.9439 34.4678 28.0042 34.43 27.964 34.4489C28.2054 33.4644 29.5933 32.4232 29.4726 32.5368L29.1709 32.5746L29.0502 32.5178C29.0502 32.2339 29.1709 32.2339 29.1307 32.2149C30.1364 31.9878 29.5128 30.9654 29.5732 30.8897C29.1105 30.7761 28.9496 30.9276 28.9697 30.8897L28.8088 30.7951C28.3864 31.4198 26.4554 31.6281 26.5761 31.8931C25.852 31.8363 25.8118 32.1013 25.7313 32.1013C25.4497 32.9911 26.4353 33.8052 26.1939 33.6727H26.2945C26.3951 33.4834 26.4755 33.5023 26.5158 33.4455C26.4957 33.8431 26.8175 33.8431 26.8376 33.8809C26.6767 33.8809 26.6566 34.0134 26.6164 33.9945C27.4209 34.4489 27.1795 34.2974 27.4209 34.5057C27.4611 35.0547 27.3807 35.1493 27.4209 35.2251L27.6019 35.1304V35.4144C24.8664 37.2318 22.1308 35.8309 21.105 37.2886H21.0044C17.6252 36.4935 15.8752 37.4401 14.3063 37.7809L14.065 37.6862C13.8839 36.9289 14.1857 37.0804 14.1052 37.0047L14.3265 36.8911C15.4931 36.8532 15.2316 37.1561 15.4529 37.1372H15.6339C15.8954 36.7207 15.835 36.5124 15.8551 36.5692C18.1482 37.743 19.9987 36.5692 20.4211 36.3421C19.5361 36.2663 19.4757 36.0013 19.3349 35.8688C18.6711 36.077 18.4097 35.244 18.3493 35.244C17.1827 34.9222 17.2833 35.1304 17.2631 35.0926L17.1626 34.7707C16.5591 34.7707 16.2977 34.7518 16.2776 34.7139L16.4988 34.6003V34.4867C14.8092 35.0925 14.1253 34.9222 13.6224 35.7552L13.3207 35.793C13.5621 35.1872 13.4414 35.3765 13.4817 35.3008L13.4414 35.1683L13.2202 35.2251C12.8782 35.8309 12.838 36.0581 12.838 36.0013C11.9127 37.0804 11.6915 36.5124 11.1484 37.0047H11.0679C11.0478 36.7207 10.9674 36.7964 10.9674 36.7586C10.6254 36.91 10.6053 37.0425 10.6053 37.0047L10.3237 36.9668L10.2432 36.8911C10.3036 36.2095 10.2835 36.4367 10.2432 36.2095C9.90129 36.0581 9.74035 36.1717 9.78058 36.1338C9.41852 36.4746 9.51911 36.361 9.35819 36.4178L9.29785 36.1338C8.87545 36.3231 8.97602 36.3799 8.85533 36.4556L8.49326 36.1906V35.9824C9.01623 35.6416 9.05648 35.8498 9.13693 35.7173C9.13693 35.3955 9.01623 35.3387 9.05646 35.3387C8.91566 35.2251 8.87546 35.244 8.89557 35.2251V35.1304L9.05646 34.9979C8.71451 34.7707 8.45304 34.9222 8.41281 34.8843L8.51339 35.1304C8.35248 35.4523 8.17144 35.5091 8.19155 35.5469C8.01052 35.2819 7.9904 35.244 7.9904 35.2061C7.74903 35.2629 7.80937 35.3008 7.76914 35.3197L7.56801 35.1683C7.08527 35.6226 7.14561 35.9634 7.12549 35.8877L7.18583 36.1338C6.0192 36.645 4.24913 37.0425 4.51061 37.0804C4.57096 36.8153 4.59108 36.7775 4.61119 36.7586C3.24341 36.4367 3.04227 38.1406 2.98193 37.9134C3.06239 38.1595 3.10261 38.1974 3.10261 38.2352C2.55952 39.0682 2.90148 39.5415 2.86125 39.6362C3.6256 39.4279 3.7664 39.144 3.86697 39.1818L4.16867 39.3143L3.42445 39.8634L3.32387 40.1662C3.66582 39.7308 3.9474 39.8823 3.96752 39.8255L4.20891 39.9391C3.62559 40.4692 3.82672 40.526 3.7865 40.7531C4.38993 39.8255 4.93302 39.8444 5.29508 39.8255C5.11405 40.1852 5.07381 40.0905 4.97324 40.1662L5.25484 40.4124C6.20022 40.5449 5.89851 40.5827 6.0192 40.5827L6.16001 40.9614L5.79794 40.8667C5.01347 41.624 4.97324 41.8701 4.85256 41.8701C4.22901 41.7565 4.41005 41.6808 4.32959 41.6997L4.0882 41.7376C3.22328 41.3968 2.63996 41.8701 2.57962 41.8322C1.51356 41.2832 1.9762 41.1696 1.65437 40.9046L1.5538 40.8667H1.47335C1.33255 41.0371 1.35265 40.9614 1.33254 40.9803H1.23196C-0.658796 39.2954 2.23768 37.724 1.51356 35.9634C2.98191 34.8086 5.31519 34.1838 6.74331 33.6916L6.80366 33.7295C6.864 33.8999 6.88413 33.9567 6.88413 33.9756C8.45305 33.8999 10.6254 33.2751 10.1427 32.2149C11.8725 31.079 11.4501 30.5111 10.7059 29.5456H10.6455C9.68002 29.7727 8.97601 29.4888 8.59384 29.697C8.35246 29.5645 8.33234 29.432 8.33234 29.4698H8.25189H8.19155C7.22606 29.9242 5.85828 30.2271 5.35542 29.8485C4.24912 30.2839 3.86694 29.2995 3.8066 28.9776C3.60545 28.9208 3.60547 28.9776 3.60547 28.9587C2.49918 27.747 2.05667 26.4976 0.970492 26.5922C2.53941 25.4563 2.82102 25.8918 3.64571 25.9864C9.3582 23.6767 15.654 21.3671 19.4154 21.2345C19.8177 20.818 20.0993 20.9884 20.3004 21.0452C20.5619 20.9316 20.6424 20.8181 20.7027 20.837H20.7832C23.3578 21.4996 28.0244 18.4705 27.8433 21.651L28.0244 21.5942C28.2456 21.2345 28.2858 21.3103 28.3864 21.2156C28.849 21.2156 28.9898 21.3481 28.9697 21.3103L29.0904 21.2724C29.4324 20.6098 29.3117 20.6477 29.4324 20.5152C33.5156 18.9249 37.9408 17.0128 40.1332 15.839C40.9579 16.2177 41.2194 15.4983 41.4608 15.5172C42.4866 13.9459 40.5958 14.5138 40.0528 14.2488C40.8774 11.9012 41.4004 10.0838 42.4061 9.51584C42.8285 6.77074 43.6935 5.93774 44.3975 4.15816C42.9291 4.02564 44.1561 3.06012 44.4779 2.85187C46.1675 3.62807 47.1532 1.92422 47.1733 1.0155C47.7566 0.977632 47.9979 0.731528 48.0583 0.580074C50.9548 1.41307 49.2853 1.0723 50.3312 2.05674V2.11354C50.1904 3.3441 50.4519 4.38535 50.2508 5.46446C50.3916 5.63484 50.4117 5.57803 50.4117 5.59696L50.4519 5.67268C50.4519 5.84306 50.4318 5.86201 50.4318 5.86201L50.472 5.89988C51.7996 5.86201 52.765 7.2251 53.7305 6.84646C56.5264 8.20955 60.7103 6.82752 62.3194 8.49351C62.4803 8.91001 62.3797 8.94787 62.42 8.9668C62.2993 9.55369 62.3596 9.98911 62.3596 9.93231L62.3396 9.91339Z" fill="#2D73B5"/>
<path d="M62.3395 9.91339C61.193 11.5226 60.7304 11.8444 60.6097 12.4502C61.012 13.7565 61.5953 13.7376 61.4545 13.8133C61.1729 17.4482 62.3194 18.3191 62.1786 19.8715C56.6471 24.1879 50.3111 23.0331 47.8773 27.6903C47.3744 27.6903 47.2738 28.2582 47.2738 28.2393C46.6302 28.6747 46.3687 28.6558 46.4089 28.6747C45.0814 30.7193 46.4089 31.8363 46.9118 32.4232C47.3945 31.8742 47.7968 31.9877 47.9376 31.8552V32.1392C47.6761 32.48 47.6158 32.5936 47.6158 32.6314L47.3141 32.5368C46.4491 33.3319 46.3687 33.2183 46.0468 33.3319C45.9664 33.8052 45.9664 33.9945 45.9262 34.1271C45.0814 34.146 45.4233 35.2629 45.5239 35.244L45.6647 35.0547H45.7652C45.9865 35.5469 45.5842 35.8498 45.6647 35.8309C39.5097 33.9567 33.9179 36.0391 29.5128 35.7173C29.0301 35.2629 29.0301 35.3576 28.8289 35.244L28.5876 35.3955C28.0646 34.96 27.9841 34.9411 27.9439 34.8464C28.3462 34.8654 28.2657 34.9222 28.3864 34.96L28.5675 34.8086V34.6761L28.4467 34.5625C27.9439 34.4678 28.0042 34.43 27.964 34.4489C28.2054 33.4644 29.5933 32.4232 29.4726 32.5368L29.1709 32.5746L29.0502 32.5178C29.0502 32.2339 29.1709 32.2339 29.1307 32.2149C30.1364 31.9878 29.5128 30.9654 29.5732 30.8897C29.1105 30.7761 28.9496 30.9276 28.9697 30.8897L28.8088 30.7951C28.3864 31.4198 26.4554 31.6281 26.5761 31.8931C25.852 31.8363 25.8118 32.1013 25.7313 32.1013C25.4497 32.9911 26.4353 33.8052 26.1939 33.6727H26.2945C26.3951 33.4834 26.4755 33.5023 26.5158 33.4455C26.4957 33.8431 26.8175 33.8431 26.8376 33.8809C26.6767 33.8809 26.6566 34.0134 26.6164 33.9945C27.4209 34.4489 27.1795 34.2974 27.4209 34.5057C27.4611 35.0547 27.3807 35.1493 27.4209 35.2251L27.6019 35.1304V35.4144C24.8664 37.2318 22.1308 35.8309 21.105 37.2886H21.0044C17.6252 36.4935 15.8752 37.4401 14.3063 37.7809L14.065 37.6862C13.8839 36.9289 14.1857 37.0804 14.1052 37.0046L14.3265 36.8911C15.4931 36.8532 15.2316 37.1561 15.4529 37.1372H15.6339C15.8954 36.7207 15.835 36.5124 15.8551 36.5692C18.1482 37.743 19.9987 36.5692 20.4211 36.3421C19.5361 36.2663 19.4757 36.0013 19.3349 35.8688C18.6711 36.077 18.4097 35.244 18.3493 35.244C17.1827 34.9222 17.2833 35.1304 17.2631 35.0926L17.1626 34.7707C16.5591 34.7707 16.2977 34.7518 16.2776 34.7139L16.4988 34.6003V34.4867C14.8092 35.0925 14.1253 34.9222 13.6224 35.7552L13.3207 35.793C13.5621 35.1872 13.4414 35.3765 13.4817 35.3008L13.4414 35.1683L13.2202 35.2251C12.8782 35.8309 12.838 36.0581 12.838 36.0013C11.9127 37.0804 11.6915 36.5124 11.1484 37.0046H11.0679C11.0478 36.7207 10.9674 36.7964 10.9674 36.7586C10.6254 36.91 10.6053 37.0425 10.6053 37.0046L10.3237 36.9668L10.2432 36.8911C10.3036 36.2095 10.2835 36.4367 10.2432 36.2095C9.90129 36.0581 9.74035 36.1717 9.78058 36.1338C9.41852 36.4746 9.51911 36.361 9.35819 36.4178L9.29785 36.1338C8.87545 36.3231 8.97602 36.3799 8.85533 36.4556L8.49326 36.1906V35.9824C9.01623 35.6416 9.05648 35.8498 9.13693 35.7173C9.13693 35.3955 9.01623 35.3387 9.05646 35.3387C8.91566 35.2251 8.87546 35.244 8.89557 35.2251V35.1304L9.05646 34.9979C8.71451 34.7707 8.45304 34.9222 8.41281 34.8843L8.51339 35.1304C8.35248 35.4523 8.17144 35.5091 8.19155 35.5469C8.01052 35.2819 7.9904 35.244 7.9904 35.2061C7.74903 35.2629 7.80937 35.3008 7.76914 35.3197L7.56801 35.1683C7.08527 35.6226 7.14561 35.9634 7.12549 35.8877L7.18583 36.1338C6.0192 36.645 4.24913 37.0425 4.51061 37.0804C4.57096 36.8153 4.59108 36.7775 4.61119 36.7586C3.24341 36.4367 3.04227 38.1406 2.98193 37.9134C3.06239 38.1595 3.10261 38.1974 3.10261 38.2352C2.55952 39.0682 2.90148 39.5415 2.86125 39.6362C3.6256 39.4279 3.7664 39.1439 3.86697 39.1818L4.16867 39.3143L3.42445 39.8634L3.32387 40.1662C3.66582 39.7308 3.9474 39.8823 3.96752 39.8255L4.20891 39.9391C3.62559 40.4692 3.82672 40.526 3.7865 40.7531C4.38993 39.8255 4.93302 39.8444 5.29508 39.8255C5.11405 40.1852 5.07381 40.0905 4.97324 40.1662L5.25484 40.4124C6.20022 40.5449 5.89851 40.5827 6.0192 40.5827L6.16001 40.9614L5.79794 40.8667C5.01347 41.624 4.97324 41.8701 4.85256 41.8701C4.22901 41.7565 4.41005 41.6808 4.32959 41.6997L4.0882 41.7376C3.22328 41.3968 2.63996 41.8701 2.57962 41.8322C1.51356 41.2832 1.9762 41.1696 1.65437 40.9046L1.5538 40.8667H1.47335C1.33255 41.0371 1.35265 40.9614 1.33254 40.9803H1.23196C-0.658796 39.2954 2.23768 37.724 1.51356 35.9634C2.98191 34.8086 5.31519 34.1838 6.74331 33.6916L6.80366 33.7295C6.864 33.8999 6.88413 33.9567 6.88413 33.9756C8.45305 33.8999 10.6254 33.2751 10.1427 32.2149C11.8725 31.079 11.4501 30.5111 10.7059 29.5456H10.6455C9.68002 29.7727 8.97601 29.4888 8.59384 29.697C8.35246 29.5645 8.33234 29.432 8.33234 29.4698H8.25189H8.19155C7.22606 29.9242 5.85828 30.2271 5.35542 29.8485C4.24912 30.2839 3.86694 29.2995 3.8066 28.9776C3.60545 28.9208 3.60547 28.9776 3.60547 28.9587C2.49918 27.747 2.05667 26.4976 0.970492 26.5922C2.53941 25.4563 2.82102 25.8918 3.64571 25.9864C9.3582 23.6767 15.654 21.3671 19.4154 21.2345C19.8177 20.818 20.0993 20.9884 20.3004 21.0452C20.5619 20.9316 20.6424 20.8181 20.7027 20.837H20.7832C23.3578 21.4996 28.0244 18.4705 27.8433 21.651L28.0244 21.5942C28.2456 21.2345 28.2858 21.3103 28.3864 21.2156C28.849 21.2156 28.9898 21.3481 28.9697 21.3103L29.0904 21.2724C29.4324 20.6098 29.3117 20.6477 29.4324 20.5152C33.5156 18.9249 37.9408 17.0128 40.1332 15.839C40.9579 16.2177 41.2194 15.4983 41.4608 15.5172C42.4866 13.9459 40.5958 14.5138 40.0528 14.2488C40.8774 11.9012 41.4004 10.0838 42.4061 9.51584C42.8285 6.77074 43.6935 5.93774 44.3975 4.15816C42.9291 4.02564 44.1561 3.06012 44.4779 2.85187C46.1675 3.62807 47.1532 1.92422 47.1733 1.0155C47.7566 0.977632 47.9979 0.731528 48.0583 0.580074C50.9548 1.41307 49.2853 1.0723 50.3312 2.05674V2.11354C50.1904 3.3441 50.4519 4.38535 50.2508 5.46446C50.3916 5.63484 50.4117 5.57803 50.4117 5.59696L50.4519 5.67268C50.4519 5.84306 50.4318 5.86201 50.4318 5.86201L50.472 5.89988C51.7996 5.86201 52.765 7.2251 53.7305 6.84646C56.5264 8.20955 60.7103 6.82752 62.3194 8.49351C62.4803 8.91001 62.3797 8.94787 62.42 8.9668C62.2993 9.55369 62.3596 9.98911 62.3596 9.93231L62.3395 9.91339Z" stroke="white" stroke-width="1.15034" stroke-linecap="round" stroke-linejoin="round"/>
<path d="M12.8177 38.8786C12.4557 38.9544 12.5763 38.9922 12.4154 39.049C12.2143 38.9544 12.2746 38.8597 12.2545 38.8219C11.8925 38.7651 11.8925 38.8976 11.812 38.9354L11.5907 38.8219C10.5247 39.7306 10.0017 38.9922 9.47871 38.9354C8.99597 39.2383 9.0563 39.6927 8.99596 39.7116H8.91551C8.91551 39.617 8.8954 39.617 8.91551 39.617C8.53334 39.3709 8.83506 39.1058 8.79483 39.068C8.45289 39.0869 8.53333 39.068 8.43276 39.049C8.29196 38.8597 8.35229 38.8408 8.33218 38.8408H8.35231C9.51895 38.4243 9.33792 38.0078 9.45861 38.0646L9.65974 38.1592C10.4643 37.6481 10.243 37.4398 10.3436 37.2884H10.4442C10.585 37.3452 10.5448 37.3641 10.5649 37.402C10.9672 37.4398 11.1683 37.6291 11.2086 37.6291V37.7238C10.9873 37.7427 10.9471 37.8374 10.8867 37.8374L11.2086 38.0456L11.4499 37.9321C11.7315 38.1214 11.6712 38.1971 11.6913 38.1782L11.8924 38.2728C12.174 38.1214 12.0936 37.9699 12.174 37.9321L12.3551 37.9889V38.0835C12.2344 38.2539 12.2947 38.235 12.2746 38.2539C12.5562 38.5757 12.5361 38.5 12.5562 38.5379C12.878 38.784 12.7775 38.7461 12.8579 38.8786H12.8177Z" fill="#2D73B5"/>
<path d="M12.8177 38.8786C12.4557 38.9544 12.5763 38.9922 12.4154 39.049C12.2143 38.9544 12.2746 38.8597 12.2545 38.8219C11.8925 38.7651 11.8925 38.8976 11.812 38.9354L11.5907 38.8219C10.5247 39.7306 10.0017 38.9922 9.47871 38.9354C8.99597 39.2383 9.0563 39.6927 8.99596 39.7116H8.91551C8.91551 39.617 8.8954 39.617 8.91551 39.617C8.53334 39.3709 8.83506 39.1058 8.79483 39.068C8.45289 39.0869 8.53333 39.068 8.43276 39.049C8.29196 38.8597 8.35229 38.8408 8.33218 38.8408H8.35231C9.51895 38.4243 9.33792 38.0078 9.45861 38.0646L9.65974 38.1592C10.4643 37.6481 10.243 37.4398 10.3436 37.2884H10.4442C10.585 37.3452 10.5448 37.3641 10.5649 37.402C10.9672 37.4398 11.1683 37.6291 11.2086 37.6291V37.7238C10.9873 37.7427 10.9471 37.8374 10.8867 37.8374L11.2086 38.0456L11.4499 37.9321C11.7315 38.1214 11.6712 38.1971 11.6913 38.1782L11.8924 38.2728C12.174 38.1214 12.0936 37.9699 12.174 37.9321L12.3551 37.9889V38.0835C12.2344 38.2539 12.2947 38.235 12.2746 38.2539C12.5562 38.5757 12.5361 38.5 12.5562 38.5379C12.878 38.784 12.7775 38.7461 12.8579 38.8786H12.8177Z" stroke="white" stroke-width="1.15034" stroke-linecap="round" stroke-linejoin="round"/>
</svg>
