<svg width="126" height="116" viewBox="0 0 126 116" fill="none" xmlns="http://www.w3.org/2000/svg">
<path d="M122.119 28.2907L122.159 28.3661H122.239C123.159 28.027 123.54 26.1807 125.321 26.2937L125.401 26.0676C125.521 26.1618 125.101 25.7662 125.061 25.2575C125.061 25.2198 125.101 25.2198 125.281 24.9937C125.281 24.8807 124.761 24.8242 124.501 23.9764L124.34 24.0141C124.34 24.0141 124.34 24.2025 124.12 24.4474C124.06 24.5228 122.919 24.3532 122.659 23.6373C122.579 23.6373 122.659 23.6185 121.738 23.9199L121.658 23.9952H121.578C121.578 23.9952 121.578 23.9576 121.218 23.6561C120.798 23.5808 120.037 24.4663 118.896 23.9764C118.816 23.9011 118.896 23.9199 118.716 23.5054H118.536L118.375 23.7127C118.375 23.7127 118.416 23.7503 118.355 24.1836H118.095C117.375 23.9764 117.835 23.1475 115.173 23.6185L114.973 23.3359C114.993 23.5431 112.931 22.4315 112.13 23.0533C110.749 22.1866 109.268 20.849 108.127 18.3245L107.947 18.4187C107.947 18.4187 107.907 18.2868 107.546 18.1172C107.486 18.1172 107.486 18.2114 107.166 18.3433L106.966 18.2303C106.926 18.1361 106.966 18.1361 106.926 17.6274C106.846 17.5897 106.886 17.5332 106.566 17.4767V17.326L106.746 17.0622C106.746 16.5724 106.646 16.3463 105.445 15.2536L105.124 15.3478C105.104 15.4797 104.304 14.5566 103.603 13.0871C103.243 12.9929 102.823 12.8233 101.882 12.1451C101.842 12.1451 101.782 12.1451 101.441 12.2581C101.281 12.3146 100.861 11.561 100.26 11.3349C100.22 11.2219 100.461 11.1654 100.36 10.7509L100.1 10.6191C100.1 10.6191 100.1 10.7321 99.5998 10.5437C99.5798 10.5437 99.6399 10.4495 99.3997 9.84662C99.1595 9.95966 99.2796 9.80893 98.7391 10.2988C98.579 9.63937 97.7983 9.86545 97.6582 8.88578L97.4981 8.73509C97.4981 8.73509 96.8575 8.73508 96.157 8.90464L95.9168 8.69737C95.9168 8.52781 95.8767 8.65971 96.0369 8.18872L95.9768 8.11334L95.4564 8.33941L95.3763 8.28289C95.3763 8.28289 95.4764 8.03801 95.1962 7.54817L95.016 7.60469C95.016 7.60469 94.956 7.64236 94.8158 7.88727H94.7358C94.7358 7.88727 94.3955 7.7554 94.4155 7.35976L94.2353 7.30325L94.0552 7.35976C93.9351 7.49164 93.9951 7.39742 93.7349 7.8119L93.5748 7.86842C93.5748 7.86842 93.4947 7.73653 93.1945 7.51046C93.1545 7.51046 93.1945 7.47278 92.594 7.51046L92.4739 7.68001L92.594 8.07568C92.594 8.07568 92.1736 8.20755 91.413 7.88727L91.373 7.8119L91.5331 7.52931C91.5331 7.52931 91.5931 7.37857 91.3129 7.26553C91.2729 7.19017 91.393 7.49163 91.0527 8.00031L90.8125 7.88727C90.7124 7.81191 90.7324 7.68002 90.4322 6.81339C90.3721 6.81339 90.3922 7.02062 89.9718 7.09598L89.7916 7.02066L90.192 6.75688C89.8317 6.4366 90.1319 6.49314 88.9109 5.89026C89.2112 5.81491 89.051 5.72071 89.8717 5.77723L89.6515 5.45693L88.9509 5.30624C88.9509 5.30624 88.7908 5.26856 88.8108 4.83524V4.79753L88.7307 4.83524C88.8108 4.79756 88.5306 4.9294 87.3496 4.79753C87.3296 4.64681 87.2896 4.75987 87.4097 4.34539L87.2495 4.1947C87.2495 4.1947 87.3496 4.27004 86.589 4.23236L86.4288 3.89326L86.2687 3.78022C86.0285 4.0063 86.0285 3.89323 85.428 4.62798L85.1878 4.5338C85.1878 4.5338 84.9276 4.36425 84.8475 3.83674L85.2078 3.76136L85.2879 3.61067L85.1278 3.45992C85.0077 3.51644 85.3079 3.32804 84.3871 3.4034L84.207 3.55415C84.207 3.55415 84.0668 3.55413 84.3471 4.17584L84.1069 4.25122C84.1069 4.25122 84.0468 4.19469 83.8067 3.94977C83.7666 3.98745 83.4463 3.81789 83.046 4.11932C83.026 4.2512 83.046 3.57298 82.6857 3.30923H82.5656L82.5056 3.44106C82.4855 3.57294 82.6657 3.49758 82.5056 3.85554C82.5056 3.89322 82.1253 3.47876 82.0252 2.98893V2.93241H81.845C81.6448 3.00777 81.6448 3.17736 81.3846 3.61067C81.4246 3.57299 80.8642 3.74251 80.4839 3.27151C80.0035 3.29035 79.5031 3.83669 78.4221 3.49758C78.3421 3.53526 78.4622 3.64834 78.0218 3.89326C78.0218 3.83674 77.9818 3.89324 77.8817 3.4034L77.7216 3.29037L77.5414 3.32803L77.4013 3.51644C77.4013 3.51644 76.8008 2.89472 76.0001 2.68748C75.9601 2.63096 76.0802 2.72515 75.7199 2.0846L75.3396 2.04694C75.0994 2.04694 75.1794 2.49912 74.4188 2.7252L74.2186 2.53679C74.2186 2.53679 74.2787 2.40487 74.1386 2.0846C74.1986 1.9904 73.7583 2.53677 73.6382 2.98893L73.498 3.08316H73.3379C73.3379 3.08316 73.2779 3.12083 73.1778 2.78172C73.1177 2.59332 73.5781 2.5933 73.458 1.87739L73.2778 1.68898C73.2778 1.68898 73.2578 1.72665 73.0777 1.80201H72.9376L72.8575 1.57595C72.9376 1.36871 72.7975 1.42525 73.2378 0.954259V0.822366C73.2378 0.822366 73.2378 0.67163 72.6774 0.803508C72.5372 0.841188 72.3571 1.19916 72.177 1.87739C72.0969 1.83971 72.277 2.0281 71.5564 2.10346C71.3362 1.97158 71.3963 2.12232 70.9359 1.5948C70.8959 1.46293 70.9759 2.1223 70.4955 2.4049C70.3754 2.44258 70.4755 2.31071 69.855 2.0658C69.4747 2.21652 69.6348 2.02813 68.714 2.66868L68.3337 2.63097C68.3337 2.63097 68.5339 2.4426 68.9142 1.36874L68.8141 1.14261C68.4338 1.01073 68.4939 1.38755 67.453 0.57744C67.5131 0.558601 66.9326 1.63248 66.1119 1.70784C66.0118 1.63248 66.0718 1.68901 65.7916 1.31222L65.6115 1.2745L65.3712 1.50057C65.3712 1.50057 65.4914 1.8397 65.3512 2.57445L65.091 2.63097C65.091 2.63097 64.8708 2.42374 63.9901 2.29186C63.7699 2.44258 63.7699 2.29186 63.3095 2.87589L62.9692 2.97007C62.9692 2.97007 63.0693 2.89476 62.8291 2.14117L62.5889 1.93391H62.4488C62.3087 1.97158 62.0084 2.5368 61.3079 2.36724C61.1878 2.27304 61.3479 2.17882 61.0076 1.87739L60.8875 1.83973C60.8875 1.83973 60.3671 2.06577 60.0268 2.15997V2.0846C59.8466 1.95272 60.0068 2.08462 59.5864 1.46291L59.3662 1.36874L59.2261 1.48177C59.2261 1.48177 59.3262 1.72666 58.9259 2.15997L58.6657 2.12231C58.6657 2.12231 58.7057 2.10347 58.2653 1.82087L58.0652 1.91505C58.0652 1.91505 58.0652 2.10348 58.1052 2.53679L57.7849 2.61217C57.7849 2.61217 57.6848 2.61215 57.5447 2.48027H57.4246C57.0043 3.15851 57.5848 2.53677 56.0635 4.10047C56.0034 3.98743 56.0234 4.36424 55.0226 4.00629L55.0627 3.64833C55.0627 3.64833 55.0827 3.62948 54.7224 3.4034C54.6223 3.55412 53.8616 4.77869 53.8616 5.683C53.8016 5.73952 53.7816 5.68301 53.4013 5.81489C53.3412 5.89025 53.3412 6.1917 53.0009 6.47429H52.6807C52.6807 6.47429 52.5005 6.36128 52.0401 5.90912C51.96 5.7584 52.3003 6.60617 51.7999 6.88877H51.6798C51.5597 6.83225 51.7999 6.73806 51.3996 6.19171C51.2995 6.19171 51.2795 6.02211 50.2586 6.21051L50.1986 6.39892L50.4588 6.77574V7.0018C50.3988 6.88876 50.4188 7.41626 48.7774 7.39742C48.7374 7.3409 48.7774 7.39744 48.5172 6.94529C48.5172 6.94529 48.4972 6.96413 48.317 6.88877H48.237C47.7966 7.11485 48.1369 7.49165 47.4363 8.1322H47.2561C47.2561 8.1322 47.2762 8.01912 47.116 7.73652H47.0159L46.8958 7.84961C46.8958 7.84961 46.8358 7.98149 46.8358 8.37713C46.2153 8.86696 46.7957 8.18873 45.3145 8.73509H45.2144C45.2144 8.73509 45.1944 8.6032 44.9943 8.49016C44.9943 8.49016 45.0143 8.41479 45.1143 8.24523L45.0343 8.05682C44.4738 8.22638 44.4738 8.4148 44.1936 9.54518C44.1936 9.54518 43.9934 9.67707 43.3529 9.73359C43.2928 9.65823 43.5731 10.6191 43.1127 11.6176C42.6723 11.806 43.0126 11.5422 41.9717 12.4277C41.8516 12.503 41.4313 12.4465 40.7307 12.1827L40.4705 12.2958C40.5105 12.503 40.6506 12.4276 41.3512 13.3319L41.2911 13.5015H41.0309L40.6906 13.3131C40.6906 13.3131 40.5906 13.332 40.0501 13.445C39.9901 13.6146 40.0501 13.445 39.89 14.0102L39.5697 13.9348C39.5697 13.9348 39.5497 13.7088 38.9692 13.5392L38.649 13.6522C38.3687 13.8218 38.6489 14.1044 37.508 14.6884C37.4279 14.7261 37.4079 14.5754 36.8074 14.5566L36.5672 14.7826C36.5672 14.7826 36.6072 14.7449 36.4471 15.3667C36.5072 15.3667 36.1669 15.4609 35.8466 15.5362C35.5463 16.2898 36.1068 16.0072 34.8258 17.3072C34.8658 17.2883 34.7057 17.3825 34.2853 17.439L34.1852 17.3825C34.1852 17.3825 34.2453 17.3448 34.0251 17.2318L33.8249 17.3072C33.8449 17.4202 33.2845 17.9477 33.0643 18.4187C33.0242 18.3622 33.1243 18.5317 32.684 18.3998C32.6439 18.3998 32.704 18.268 32.6039 18.0042L32.2436 17.9288C31.583 18.7766 31.8633 18.8332 29.6014 19.8505L29.7015 20.2838C29.7015 20.2838 30.0818 20.5476 30.9625 20.8302C31.0826 20.9997 31.0826 20.9056 31.3428 21.4519C31.3228 21.207 31.3228 22.4504 30.6823 22.8083L30.5422 22.7518C30.4221 22.6953 30.8024 22.8083 30.2419 22.1113C30.2019 22.0736 29.7415 22.0359 28.5405 21.791C28.6406 21.8287 28.2002 21.7533 27.5397 22.3185C27.5397 22.6576 27.7799 22.375 27.6598 23.7127C27.2194 24.0706 27.2194 23.8445 25.8583 24.3155C25.578 24.8054 25.7382 24.5604 25.6981 25.8227C25.1377 25.8981 24.377 28.0647 21.5146 29.1009C21.2344 29.1009 21.7949 29.2516 20.9342 31.3993L19.8533 32.0021C20.3337 34.489 15.7298 34.2252 15.7698 37.07C15.8699 38.1816 13.8082 38.7845 13.6681 40.0279C12.1068 44.2857 5.62137 44.3422 5.10093 49.4854C4.28025 49.4289 2.81904 52.7447 0.577165 52.9331C0.837382 53.2534 0.977481 53.0085 1.27773 54.1954C1.41785 54.8548 3.05924 53.894 3.67976 54.8736L3.91995 54.9301C4.06007 55.0432 4.16014 54.4026 4.94079 54.478C5.02086 54.478 5.0609 54.6475 5.5413 54.8359C5.60135 54.8359 5.58135 54.8359 5.96166 54.5157C6.0017 54.5157 6.02171 54.5156 6.36199 54.8359C7.86325 54.8924 7.2027 52.8578 9.02422 51.6332C10.2052 51.7085 10.6456 51.4824 12.9075 51.5578C13.2878 52.481 16.0301 53.065 16.0701 54.6852C20.0334 58.1141 27.4996 61.5052 25.6981 68.1556C25.7182 68.1933 25.6581 68.0803 25.8783 68.4194C27.3395 68.4948 29.6814 68.231 30.302 66.0644C30.4421 66.0268 30.5222 66.0267 31.3428 66.1398L31.543 65.9702C31.6231 65.8572 31.4429 65.763 31.5831 64.6326L31.8233 64.4065C31.8233 64.4065 31.7632 64.2181 32.4838 64.4065C35.8266 66.1586 36.4271 70.9062 40.4504 72.6772C40.7707 72.4511 40.7107 72.6206 41.151 71.7352L41.3512 71.6786C45.7549 76.9915 43.9534 70.5671 55.3028 82.813H55.483C57.5447 81.2869 58.6657 84.7534 61.448 85.3375C62.669 88.7098 63.91 94.0226 69.1944 95.0023C69.915 95.6428 70.0552 94.8327 71.6565 97.0181C67.9734 102.161 64.0101 101.276 64.8909 113.409L65.3312 114.143C65.3312 114.143 65.6115 114.106 66.1919 114.087C66.4121 114.106 66.4722 114.464 66.9125 115.067L67.413 115.029C78.6624 110.055 79.9234 96.4718 87.7499 87.2592C87.9301 86.807 87.2295 86.9954 87.81 85.5259C87.5097 85.8085 87.7099 85.5447 86.9893 86.4302L86.7291 86.4867L86.5289 86.1099C86.589 86.0157 86.649 85.8462 87.9101 85.0172V84.923C87.81 84.923 87.5498 84.5839 87.0293 85.0172C86.8892 85.2245 86.7091 86.0534 85.428 85.7708L85.8483 85.5447V85.3563C85.6682 85.3187 85.7082 85.1679 85.1077 85.2998C85.3079 84.9984 85.1077 84.9042 85.448 83.7738C85.468 83.7361 85.9284 83.5666 86.5289 83.2463C86.4889 83.1898 86.649 83.3593 87.0093 83.3217L87.0894 83.1521C86.8492 82.4174 86.629 83.2086 85.8884 82.0782L85.488 82.2666L85.2879 81.9652L85.3279 81.6072H85.6682C85.6682 81.6072 85.7082 81.2681 85.8884 80.9102C85.9484 80.7029 85.4881 80.7029 85.7483 79.874C85.9484 79.1957 88.2704 79.4972 88.5506 77.8204L88.4705 77.5755L88.1903 77.519L87.9501 77.5944L87.7699 77.519C87.87 77.6697 87.4297 76.7843 88.0302 76.6147C88.8108 76.8408 88.4905 77.1422 89.071 78.2161C89.2312 77.7074 89.071 78.1407 89.4313 76.9538C89.2712 76.2191 88.3705 74.6177 90.0919 73.2235C90.0318 73.1858 90.0719 73.167 89.8717 73.0916L89.7716 72.9221V72.7525C89.7716 72.7525 89.7516 72.7148 90.1519 72.6206C90.1519 72.6206 90.252 72.5265 90.4322 72.3004C90.5122 72.2627 90.6924 72.3381 91.4731 72.3758L91.7533 71.8671C92.1136 71.4149 93.0344 71.9236 94.1953 71.3396C94.3555 71.3019 94.4155 71.5468 94.9359 71.4149V71.3019L94.7558 71.0946C94.8759 70.9439 94.3755 70.5483 95.1561 69.3049C96.2971 68.8716 95.3363 69.3049 98.0185 68.3629C97.6382 68.4194 96.157 64.237 99.1595 65.0094L99.2996 64.8775C99.3596 63.3138 98.659 64.1428 99.0594 60.7893C99.1394 60.827 99.0594 60.6197 99.76 60.6951L99.9201 60.7893C99.9201 60.7893 100.14 61.2791 100.441 62.937L100.06 63.0312L100.32 63.408H100.581C101.441 61.8632 99.1194 59.5082 101.862 56.6068L102.462 56.5315C102.462 56.5315 102.522 56.5881 102.883 56.7765C103.243 56.6446 103.423 56.6257 103.583 55.7968L103.543 55.6837C103.403 55.5895 103.403 55.8721 102.062 55.9475C101.942 56.004 102.062 55.3069 101.802 54.6664C101.762 54.6664 101.842 54.6664 101.281 55.1373L101.121 54.8736L100.601 54.7041L100.421 54.4403L100.861 53.9882C100.861 53.9882 100.861 53.8374 100.481 53.5172C100.421 53.5172 100.38 53.5548 99.8801 53.6302C100.2 53.3288 100.14 52.1042 100.421 51.2187L100.38 51.1622C100.38 51.1622 100.401 51.1999 100.22 51.0868L100.18 50.9926C100.18 50.9926 100.581 50.3709 100.541 49.9188L100.721 49.8811L100.881 50.0318C100.881 50.0318 100.801 50.0883 100.921 50.597L101.261 50.4651C101.301 50.5593 101.201 50.6724 101.041 51.6332C101.101 51.7462 101.121 51.6897 101.521 52.123L101.581 52.4621C101.581 52.4621 101.541 52.5187 101.261 52.9331L101.341 53.0462C101.642 53.1215 101.581 52.8201 102.322 53.3853L102.242 53.649C102.242 53.649 102.402 53.8374 103.083 54.1954C103.303 54.1012 103.203 53.7809 104.104 53.9505L104.184 54.3461H104.284L104.464 54.2142L104.644 54.3273C105.164 54.8924 104.084 55.4011 104.464 56.2489C105.144 56.5315 104.764 56.3808 106.345 57.2851C106.385 57.2851 105.705 56.0982 106.385 55.2316L106.626 55.1186L106.986 55.2881C107.386 55.2316 107.006 55.1939 108.167 55.3446L108.267 54.9867L108.487 54.8359C108.607 54.7417 108.527 54.949 110.189 54.7606C110.149 54.7606 110.409 54.591 110.489 54.12C110.469 54.12 110.509 53.9128 110.129 53.7809L110.089 53.7244L110.129 53.536H110.189C110.869 52.7636 110.909 52.9331 112.19 54.1012C112.731 54.7606 111.77 55.8156 111.89 57.5112C111.73 57.7561 111.93 57.5865 111.21 58.1141C111.19 58.0387 110.069 57.3416 110.649 56.6257C110.649 56.5315 110.209 56.1359 109.788 55.8156C109.748 55.8533 109.788 55.7402 109.348 56.0228V56.1547C110.489 58.4155 111.069 64.8775 105.425 65.0659L105.345 65.1413C105.445 65.292 105.365 65.2355 105.685 65.65C105.685 65.7442 105.685 66.3094 105.184 67.76L105.465 68.2499C105.465 68.2499 105.605 68.2498 105.945 68.2875L106.005 68.4759C105.905 68.5701 106.005 68.4759 105.545 68.702C105.505 68.702 105.505 68.8715 105.365 69.2106C105.325 69.2106 105.365 69.286 105.084 69.3049L104.944 69.2484C104.864 68.9469 104.924 69.286 104.884 68.1745L104.764 68.0426C104.464 67.9672 104.404 68.0426 103.443 68.3629C103.483 68.4194 103.263 68.2122 102.562 68.118L102.422 68.3064C102.362 68.4194 102.542 68.4006 102.202 69.5498C102.823 70.0208 102.582 76.7089 98.4589 75.9365L98.3188 75.3713C98.0185 75.8611 97.358 76.106 97.9184 77.5944L97.7583 77.6509C97.7583 77.7639 97.7183 77.3683 97.0977 76.9538C97.0577 76.9915 97.1378 76.9915 96.8776 77.6697C96.0369 78.2538 95.7966 79.4029 93.855 80.7406C93.5748 80.8536 93.4347 80.571 91.8133 80.8725L92.1336 81.3623L91.7733 81.8333C91.6532 81.7014 91.8734 82.2101 90.4122 82.0782C90.4322 82.2478 90.1319 81.5507 88.4305 81.0232L87.81 81.3623V81.8898C87.5898 81.8521 88.3905 82.0971 88.991 83.4912C88.991 83.5477 88.8108 83.7173 88.2904 84.1506C88.7908 84.8477 88.6106 85.394 87.85 86.9201L87.9701 87.278C109.128 71.5656 112.991 62.5037 125.321 38.3323H125.101C124.941 38.2193 125.041 38.2758 124.861 37.8236C123.56 37.8236 123.94 36.5991 121.518 36.1092C121.398 36.2223 121.378 36.128 121.298 36.4671L121.198 36.5237C120.637 36.5614 120.577 36.6744 119.316 37.1265C118.976 37.2396 121.198 38.257 119.977 38.8787C118.175 37.7671 117.235 37.0512 119.697 34.4325C119.877 34.4136 119.877 34.5643 120.077 34.8281H120.157C120.157 34.8281 120.197 34.7716 120.357 34.602C120.437 34.5643 120.457 34.6962 120.717 34.602C121.738 33.0948 121.098 30.5515 122.199 28.0081H122.259C122.259 28.0081 122.279 28.0646 122.279 28.253L122.119 28.2907Z" fill="#2D73B5"/>
<path d="M122.119 28.2907L122.159 28.3661H122.239C123.159 28.027 123.54 26.1807 125.321 26.2937L125.401 26.0676C125.521 26.1618 125.101 25.7662 125.061 25.2575C125.061 25.2198 125.101 25.2198 125.281 24.9937C125.281 24.8807 124.761 24.8242 124.501 23.9764L124.34 24.0141C124.34 24.0141 124.34 24.2025 124.12 24.4474C124.06 24.5228 122.919 24.3532 122.659 23.6373C122.579 23.6373 122.659 23.6185 121.738 23.9199L121.658 23.9952H121.578C121.578 23.9952 121.578 23.9576 121.218 23.6561C120.798 23.5808 120.037 24.4663 118.896 23.9764C118.816 23.9011 118.896 23.9199 118.716 23.5054H118.536L118.375 23.7127C118.375 23.7127 118.416 23.7503 118.355 24.1836H118.095C117.375 23.9764 117.835 23.1475 115.173 23.6185L114.973 23.3359C114.993 23.5431 112.931 22.4315 112.13 23.0533C110.749 22.1866 109.268 20.849 108.127 18.3245L107.947 18.4187C107.947 18.4187 107.907 18.2868 107.546 18.1172C107.486 18.1172 107.486 18.2114 107.166 18.3433L106.966 18.2303C106.926 18.1361 106.966 18.1361 106.926 17.6274C106.846 17.5897 106.886 17.5332 106.566 17.4767V17.326L106.746 17.0622C106.746 16.5724 106.646 16.3463 105.445 15.2536L105.124 15.3478C105.104 15.4797 104.304 14.5566 103.603 13.0871C103.243 12.9929 102.823 12.8233 101.882 12.1451C101.842 12.1451 101.782 12.1451 101.441 12.2581C101.281 12.3146 100.861 11.561 100.26 11.3349C100.22 11.2219 100.461 11.1654 100.36 10.7509L100.1 10.6191C100.1 10.6191 100.1 10.7321 99.5998 10.5437C99.5798 10.5437 99.6399 10.4495 99.3997 9.84662C99.1595 9.95966 99.2796 9.80893 98.7391 10.2988C98.579 9.63937 97.7983 9.86545 97.6582 8.88578L97.4981 8.73509C97.4981 8.73509 96.8575 8.73508 96.157 8.90464L95.9168 8.69737C95.9168 8.52781 95.8767 8.65971 96.0369 8.18872L95.9768 8.11334L95.4564 8.33941L95.3763 8.28289C95.3763 8.28289 95.4764 8.03801 95.1962 7.54817L95.016 7.60469C95.016 7.60469 94.956 7.64236 94.8158 7.88727H94.7358C94.7358 7.88727 94.3955 7.7554 94.4155 7.35976L94.2353 7.30325L94.0552 7.35976C93.9351 7.49164 93.9951 7.39742 93.7349 7.8119L93.5748 7.86842C93.5748 7.86842 93.4947 7.73653 93.1945 7.51046C93.1545 7.51046 93.1945 7.47278 92.594 7.51046L92.4739 7.68001L92.594 8.07568C92.594 8.07568 92.1736 8.20755 91.413 7.88727L91.373 7.8119L91.5331 7.52931C91.5331 7.52931 91.5932 7.37857 91.3129 7.26553C91.2729 7.19017 91.393 7.49163 91.0527 8.00031L90.8125 7.88727C90.7124 7.81191 90.7324 7.68002 90.4322 6.81339C90.3721 6.81339 90.3922 7.02062 89.9718 7.09598L89.7916 7.02066L90.192 6.75688C89.8317 6.4366 90.1319 6.49314 88.9109 5.89026C89.2112 5.81491 89.051 5.72071 89.8717 5.77723L89.6515 5.45693L88.9509 5.30624C88.9509 5.30624 88.7908 5.26856 88.8108 4.83524V4.79753L88.7307 4.83524C88.8108 4.79756 88.5306 4.9294 87.3496 4.79753C87.3296 4.64681 87.2896 4.75987 87.4097 4.34539L87.2495 4.1947C87.2495 4.1947 87.3496 4.27004 86.589 4.23236L86.4288 3.89326L86.2687 3.78022C86.0285 4.0063 86.0285 3.89323 85.428 4.62798L85.1878 4.5338C85.1878 4.5338 84.9276 4.36425 84.8475 3.83674L85.2078 3.76136L85.2879 3.61067L85.1278 3.45992C85.0077 3.51644 85.3079 3.32804 84.3871 3.4034L84.207 3.55415C84.207 3.55415 84.0668 3.55413 84.3471 4.17584L84.1069 4.25122C84.1069 4.25122 84.0469 4.19469 83.8067 3.94977C83.7666 3.98745 83.4463 3.81789 83.046 4.11932C83.026 4.2512 83.046 3.57298 82.6857 3.30923H82.5656L82.5055 3.44106C82.4855 3.57294 82.6657 3.49758 82.5055 3.85554C82.5055 3.89322 82.1252 3.47876 82.0252 2.98893V2.93241H81.845C81.6448 3.00777 81.6448 3.17736 81.3846 3.61067C81.4246 3.57299 80.8642 3.74251 80.4839 3.27151C80.0035 3.29035 79.5031 3.83669 78.4222 3.49758C78.3421 3.53526 78.4622 3.64834 78.0218 3.89326C78.0218 3.83674 77.9818 3.89324 77.8817 3.4034L77.7216 3.29037L77.5414 3.32803L77.4013 3.51644C77.4013 3.51644 76.8008 2.89472 76.0001 2.68748C75.9601 2.63096 76.0802 2.72515 75.7199 2.0846L75.3396 2.04694C75.0994 2.04694 75.1794 2.49912 74.4188 2.7252L74.2186 2.53679C74.2186 2.53679 74.2787 2.40487 74.1386 2.0846C74.1986 1.9904 73.7583 2.53677 73.6382 2.98893L73.498 3.08316H73.3379C73.3379 3.08316 73.2779 3.12083 73.1778 2.78172C73.1177 2.59332 73.5781 2.5933 73.458 1.87739L73.2778 1.68898C73.2778 1.68898 73.2578 1.72665 73.0777 1.80201H72.9376L72.8575 1.57595C72.9376 1.36871 72.7975 1.42525 73.2378 0.954259V0.822366C73.2378 0.822366 73.2378 0.67163 72.6774 0.803508C72.5372 0.841188 72.3571 1.19916 72.1769 1.87739C72.0969 1.83971 72.277 2.0281 71.5564 2.10346C71.3362 1.97158 71.3963 2.12232 70.9359 1.5948C70.8959 1.46293 70.9759 2.1223 70.4955 2.4049C70.3754 2.44258 70.4755 2.31071 69.855 2.0658C69.4747 2.21652 69.6348 2.02813 68.714 2.66868L68.3337 2.63097C68.3337 2.63097 68.5339 2.4426 68.9142 1.36874L68.8141 1.14261C68.4338 1.01073 68.4939 1.38755 67.453 0.57744C67.5131 0.558601 66.9326 1.63248 66.1119 1.70784C66.0118 1.63248 66.0718 1.68901 65.7916 1.31222L65.6115 1.2745L65.3712 1.50057C65.3712 1.50057 65.4914 1.8397 65.3512 2.57445L65.091 2.63097C65.091 2.63097 64.8708 2.42374 63.9901 2.29186C63.7699 2.44258 63.7699 2.29186 63.3095 2.87589L62.9692 2.97007C62.9692 2.97007 63.0693 2.89476 62.8291 2.14117L62.5889 1.93391H62.4488C62.3087 1.97158 62.0084 2.5368 61.3079 2.36724C61.1878 2.27304 61.3479 2.17882 61.0076 1.87739L60.8875 1.83973C60.8875 1.83973 60.3671 2.06577 60.0268 2.15997V2.0846C59.8466 1.95272 60.0068 2.08462 59.5864 1.46291L59.3662 1.36874L59.2261 1.48177C59.2261 1.48177 59.3262 1.72666 58.9259 2.15997L58.6657 2.12231C58.6657 2.12231 58.7057 2.10347 58.2653 1.82087L58.0652 1.91505C58.0652 1.91505 58.0652 2.10348 58.1052 2.53679L57.7849 2.61217C57.7849 2.61217 57.6848 2.61215 57.5447 2.48027H57.4246C57.0043 3.15851 57.5848 2.53677 56.0635 4.10047C56.0034 3.98743 56.0234 4.36424 55.0226 4.00629L55.0627 3.64833C55.0627 3.64833 55.0827 3.62948 54.7224 3.4034C54.6223 3.55412 53.8616 4.77869 53.8616 5.683C53.8016 5.73952 53.7816 5.68301 53.4013 5.81489C53.3412 5.89025 53.3412 6.1917 53.0009 6.47429H52.6807C52.6807 6.47429 52.5005 6.36128 52.0401 5.90912C51.96 5.7584 52.3003 6.60617 51.7999 6.88877H51.6798C51.5597 6.83225 51.7999 6.73806 51.3996 6.19171C51.2995 6.19171 51.2795 6.02211 50.2586 6.21051L50.1986 6.39892L50.4588 6.77574V7.0018C50.3988 6.88876 50.4188 7.41626 48.7774 7.39742C48.7374 7.3409 48.7774 7.39744 48.5172 6.94529C48.5172 6.94529 48.4972 6.96413 48.317 6.88877H48.2369C47.7966 7.11485 48.1369 7.49165 47.4363 8.1322H47.2561C47.2561 8.1322 47.2762 8.01912 47.116 7.73652H47.0159L46.8958 7.84962C46.8958 7.84962 46.8358 7.98149 46.8358 8.37713C46.2153 8.86696 46.7957 8.18873 45.3145 8.73509H45.2144C45.2144 8.73509 45.1944 8.6032 44.9943 8.49016C44.9943 8.49016 45.0143 8.41479 45.1143 8.24523L45.0343 8.05682C44.4738 8.22638 44.4738 8.4148 44.1936 9.54518C44.1936 9.54518 43.9934 9.67707 43.3529 9.73359C43.2928 9.65823 43.5731 10.6191 43.1127 11.6176C42.6723 11.806 43.0126 11.5422 41.9717 12.4277C41.8516 12.503 41.4313 12.4465 40.7307 12.1827L40.4705 12.2958C40.5105 12.503 40.6506 12.4276 41.3512 13.3319L41.2911 13.5015H41.0309L40.6906 13.3131C40.6906 13.3131 40.5906 13.332 40.0501 13.445C39.9901 13.6146 40.0501 13.445 39.89 14.0102L39.5697 13.9348C39.5697 13.9348 39.5497 13.7088 38.9692 13.5392L38.649 13.6522C38.3687 13.8218 38.6489 14.1044 37.508 14.6884C37.4279 14.7261 37.4079 14.5754 36.8074 14.5566L36.5672 14.7826C36.5672 14.7826 36.6072 14.7449 36.4471 15.3667C36.5072 15.3667 36.1669 15.4609 35.8466 15.5362C35.5463 16.2898 36.1068 16.0072 34.8258 17.3072C34.8658 17.2883 34.7056 17.3825 34.2853 17.439L34.1852 17.3825C34.1852 17.3825 34.2453 17.3448 34.0251 17.2318L33.8249 17.3072C33.8449 17.4202 33.2845 17.9477 33.0643 18.4187C33.0242 18.3622 33.1243 18.5317 32.684 18.3998C32.6439 18.3998 32.704 18.268 32.6039 18.0042L32.2436 17.9288C31.583 18.7766 31.8633 18.8332 29.6014 19.8505L29.7015 20.2838C29.7015 20.2838 30.0818 20.5476 30.9625 20.8302C31.0826 20.9997 31.0826 20.9056 31.3428 21.4519C31.3228 21.207 31.3228 22.4504 30.6823 22.8083L30.5422 22.7518C30.4221 22.6953 30.8024 22.8083 30.2419 22.1113C30.2019 22.0736 29.7415 22.0359 28.5405 21.791C28.6406 21.8287 28.2002 21.7533 27.5397 22.3185C27.5397 22.6576 27.7799 22.375 27.6598 23.7127C27.2194 24.0706 27.2194 23.8445 25.8583 24.3155C25.578 24.8054 25.7382 24.5604 25.6981 25.8227C25.1377 25.8981 24.377 28.0647 21.5146 29.1009C21.2344 29.1009 21.7949 29.2516 20.9342 31.3993L19.8533 32.0021C20.3337 34.489 15.7298 34.2252 15.7698 37.07C15.8699 38.1816 13.8082 38.7845 13.6681 40.0279C12.1068 44.2857 5.62136 44.3422 5.10093 49.4854C4.28025 49.4289 2.81904 52.7447 0.577165 52.9331C0.837382 53.2534 0.977481 53.0085 1.27773 54.1954C1.41785 54.8548 3.05924 53.894 3.67976 54.8736L3.91995 54.9301C4.06007 55.0432 4.16014 54.4026 4.94079 54.478C5.02086 54.478 5.0609 54.6475 5.5413 54.8359C5.60135 54.8359 5.58135 54.8359 5.96166 54.5157C6.0017 54.5157 6.02171 54.5156 6.36199 54.8359C7.86325 54.8924 7.2027 52.8578 9.02422 51.6332C10.2052 51.7085 10.6456 51.4824 12.9075 51.5578C13.2878 52.481 16.0301 53.065 16.0701 54.6852C20.0334 58.114 27.4996 61.5052 25.6981 68.1556C25.7182 68.1933 25.6581 68.0803 25.8783 68.4194C27.3395 68.4948 29.6814 68.231 30.302 66.0644C30.4421 66.0268 30.5222 66.0267 31.3428 66.1398L31.543 65.9702C31.6231 65.8572 31.4429 65.763 31.5831 64.6326L31.8233 64.4065C31.8233 64.4065 31.7632 64.2181 32.4838 64.4065C35.8266 66.1586 36.4271 70.9062 40.4504 72.6772C40.7707 72.4511 40.7107 72.6206 41.151 71.7352L41.3512 71.6787C45.7549 76.9915 43.9534 70.5671 55.3028 82.813H55.483C57.5447 81.2869 58.6657 84.7534 61.448 85.3375C62.669 88.7098 63.91 94.0226 69.1944 95.0023C69.915 95.6428 70.0552 94.8327 71.6565 97.0181C67.9734 102.161 64.0101 101.276 64.8909 113.409L65.3312 114.143C65.3312 114.143 65.6115 114.106 66.1919 114.087C66.4121 114.106 66.4722 114.464 66.9125 115.067L67.413 115.029C78.6624 110.055 79.9234 96.4718 87.7499 87.2592C87.9301 86.807 87.2295 86.9954 87.81 85.5259C87.5097 85.8085 87.7099 85.5447 86.9893 86.4302L86.7291 86.4867L86.5289 86.1099C86.589 86.0157 86.649 85.8462 87.9101 85.0172V84.923C87.81 84.923 87.5498 84.5839 87.0293 85.0172C86.8892 85.2245 86.7091 86.0534 85.428 85.7708L85.8483 85.5447V85.3563C85.6682 85.3187 85.7082 85.1679 85.1077 85.2998C85.3079 84.9984 85.1077 84.9042 85.448 83.7738C85.468 83.7361 85.9284 83.5666 86.5289 83.2463C86.4889 83.1898 86.649 83.3593 87.0093 83.3217L87.0894 83.1521C86.8492 82.4174 86.629 83.2086 85.8884 82.0782L85.488 82.2666L85.2879 81.9652L85.3279 81.6072H85.6682C85.6682 81.6072 85.7082 81.2681 85.8884 80.9102C85.9484 80.7029 85.4881 80.7029 85.7483 79.874C85.9484 79.1957 88.2704 79.4972 88.5506 77.8204L88.4705 77.5755L88.1903 77.519L87.9501 77.5944L87.77 77.519C87.87 77.6697 87.4297 76.7843 88.0302 76.6147C88.8108 76.8408 88.4905 77.1422 89.071 78.216C89.2312 77.7074 89.071 78.1407 89.4313 76.9538C89.2712 76.2191 88.3705 74.6177 90.0919 73.2235C90.0318 73.1858 90.0719 73.167 89.8717 73.0916L89.7716 72.9221V72.7525C89.7716 72.7525 89.7516 72.7148 90.1519 72.6206C90.1519 72.6206 90.252 72.5265 90.4322 72.3004C90.5122 72.2627 90.6924 72.3381 91.4731 72.3758L91.7533 71.8671C92.1136 71.4149 93.0344 71.9236 94.1953 71.3395C94.3555 71.3019 94.4155 71.5468 94.9359 71.4149V71.3019L94.7558 71.0946C94.8759 70.9439 94.3755 70.5483 95.1561 69.3049C96.2971 68.8716 95.3363 69.3049 98.0185 68.3629C97.6382 68.4194 96.157 64.237 99.1595 65.0094L99.2996 64.8775C99.3596 63.3138 98.659 64.1428 99.0594 60.7893C99.1394 60.827 99.0594 60.6197 99.76 60.6951L99.9201 60.7893C99.9201 60.7893 100.14 61.2791 100.441 62.937L100.06 63.0312L100.32 63.408H100.581C101.441 61.8632 99.1194 59.5082 101.862 56.6068L102.462 56.5315C102.462 56.5315 102.522 56.5881 102.883 56.7765C103.243 56.6446 103.423 56.6257 103.583 55.7968L103.543 55.6837C103.403 55.5895 103.403 55.8721 102.062 55.9475C101.942 56.004 102.062 55.3069 101.802 54.6664C101.762 54.6664 101.842 54.6664 101.281 55.1373L101.121 54.8736L100.601 54.7041L100.421 54.4403L100.861 53.9882C100.861 53.9882 100.861 53.8374 100.481 53.5172C100.421 53.5172 100.38 53.5548 99.8801 53.6302C100.2 53.3288 100.14 52.1042 100.421 51.2187L100.38 51.1622C100.38 51.1622 100.4 51.1999 100.22 51.0868L100.18 50.9926C100.18 50.9926 100.581 50.3709 100.541 49.9188L100.721 49.8811L100.881 50.0318C100.881 50.0318 100.801 50.0883 100.921 50.597L101.261 50.4651C101.301 50.5593 101.201 50.6724 101.041 51.6332C101.101 51.7462 101.121 51.6897 101.521 52.123L101.581 52.4621C101.581 52.4621 101.541 52.5187 101.261 52.9331L101.341 53.0462C101.642 53.1215 101.581 52.8201 102.322 53.3853L102.242 53.6491C102.242 53.6491 102.402 53.8374 103.083 54.1954C103.303 54.1012 103.203 53.7809 104.104 53.9505L104.184 54.3461H104.284L104.464 54.2142L104.644 54.3273C105.164 54.8924 104.084 55.4011 104.464 56.2489C105.144 56.5315 104.764 56.3808 106.345 57.2851C106.385 57.2851 105.705 56.0982 106.385 55.2316L106.626 55.1185L106.986 55.2881C107.386 55.2316 107.006 55.1939 108.167 55.3446L108.267 54.9867L108.487 54.8359C108.607 54.7417 108.527 54.949 110.189 54.7606C110.149 54.7606 110.409 54.591 110.489 54.12C110.469 54.12 110.509 53.9128 110.129 53.7809L110.089 53.7244L110.129 53.536H110.189C110.869 52.7636 110.909 52.9331 112.19 54.1012C112.731 54.7606 111.77 55.8156 111.89 57.5112C111.73 57.7561 111.93 57.5865 111.21 58.1141C111.19 58.0387 110.069 57.3416 110.649 56.6257C110.649 56.5315 110.209 56.1359 109.788 55.8156C109.748 55.8533 109.788 55.7402 109.348 56.0228V56.1547C110.489 58.4155 111.069 64.8775 105.425 65.0659L105.345 65.1413C105.445 65.292 105.365 65.2355 105.685 65.65C105.685 65.7442 105.685 66.3093 105.184 67.76L105.465 68.2499C105.465 68.2499 105.605 68.2498 105.945 68.2875L106.005 68.4759C105.905 68.5701 106.005 68.4759 105.545 68.702C105.505 68.702 105.505 68.8715 105.365 69.2106C105.325 69.2106 105.365 69.286 105.084 69.3049L104.944 69.2484C104.864 68.9469 104.924 69.286 104.884 68.1745L104.764 68.0426C104.464 67.9672 104.404 68.0426 103.443 68.3629C103.483 68.4194 103.263 68.2122 102.562 68.118L102.422 68.3064C102.362 68.4194 102.542 68.4006 102.202 69.5498C102.823 70.0208 102.582 76.7089 98.4589 75.9365L98.3188 75.3713C98.0185 75.8611 97.358 76.106 97.9184 77.5944L97.7583 77.6509C97.7583 77.7639 97.7183 77.3683 97.0977 76.9538C97.0577 76.9915 97.1378 76.9915 96.8776 77.6697C96.0369 78.2538 95.7966 79.4029 93.855 80.7406C93.5748 80.8536 93.4347 80.571 91.8133 80.8725L92.1336 81.3623L91.7733 81.8333C91.6532 81.7014 91.8734 82.2101 90.4122 82.0782C90.4322 82.2478 90.1319 81.5507 88.4305 81.0232L87.81 81.3623V81.8898C87.5898 81.8521 88.3905 82.0971 88.991 83.4912C88.991 83.5477 88.8108 83.7173 88.2904 84.1506C88.7908 84.8477 88.6106 85.394 87.85 86.9201L87.9701 87.278C109.128 71.5656 112.991 62.5037 125.321 38.3323H125.101C124.941 38.2193 125.041 38.2758 124.861 37.8236C123.56 37.8236 123.94 36.5991 121.518 36.1092C121.398 36.2223 121.378 36.128 121.298 36.4671L121.198 36.5237C120.637 36.5614 120.577 36.6744 119.316 37.1266C118.976 37.2396 121.198 38.257 119.977 38.8787C118.175 37.7671 117.235 37.0512 119.697 34.4325C119.877 34.4136 119.877 34.5643 120.077 34.8281H120.157C120.157 34.8281 120.197 34.7716 120.357 34.602C120.437 34.5644 120.457 34.6962 120.717 34.602C121.738 33.0948 121.098 30.5515 122.199 28.0081H122.259C122.259 28.0081 122.279 28.0646 122.279 28.253L122.119 28.2907Z" stroke="white" stroke-width="1.15034" stroke-linecap="round" stroke-linejoin="round"/>
</svg>
