<svg width="111" height="139" viewBox="0 0 111 139" fill="none" xmlns="http://www.w3.org/2000/svg">
<path d="M79.7869 19.6448C80.2478 18.3057 81.1895 18.4566 81.8307 18.4943C81.9309 18.8149 81.9309 18.9092 81.951 18.9092C81.6304 19.4939 81.5302 19.3242 81.5302 19.3996C81.4099 20.0785 81.4701 20.2106 81.43 20.286L81.2897 20.3803C81.4099 20.5689 81.3699 20.5689 81.3899 20.6255L81.3097 20.682C80.6685 20.5312 80.6886 20.682 80.5684 20.6255L80.4682 20.7386L80.3479 20.7763C80.2277 20.9084 80.2477 21.0026 80.2477 20.9838H80.1676C79.7669 20.9084 79.7268 20.7952 79.6867 20.7952V20.6632C80.1275 20.154 79.6867 19.6825 79.7869 19.6448Z" fill="#2D73B5"/>
<path d="M79.7869 19.6448C80.2478 18.3057 81.1895 18.4566 81.8307 18.4943C81.9309 18.8149 81.9309 18.9092 81.951 18.9092C81.6304 19.4939 81.5302 19.3242 81.5302 19.3996C81.4099 20.0785 81.4701 20.2106 81.43 20.286L81.2897 20.3803C81.4099 20.5689 81.3699 20.5689 81.3899 20.6255L81.3097 20.682C80.6685 20.5312 80.6886 20.682 80.5684 20.6255L80.4682 20.7386L80.3479 20.7763C80.2277 20.9084 80.2477 21.0026 80.2477 20.9838H80.1676C79.7669 20.9084 79.7268 20.7952 79.6867 20.7952V20.6632C80.1275 20.154 79.6867 19.6825 79.7869 19.6448Z" stroke="white" stroke-width="1.15034" stroke-linecap="round" stroke-linejoin="round"/>
<path d="M81.8309 20.2105C82.3719 20.0408 82.7326 20.0219 82.8127 20.0219C83.0131 20.6066 82.4921 20.7198 82.5723 20.8706L82.3719 20.9461C81.9711 20.6632 81.9311 20.8329 81.9311 20.7763C81.7708 20.3803 81.7908 20.418 81.7708 20.3803L81.8309 20.2105Z" fill="#2D73B5"/>
<path d="M81.8309 20.2105C82.3719 20.0408 82.7326 20.0219 82.8127 20.0219C83.0131 20.6066 82.4921 20.7198 82.5723 20.8706L82.3719 20.9461C81.9711 20.6632 81.9311 20.8329 81.9311 20.7763C81.7708 20.3803 81.7908 20.418 81.7708 20.3803L81.8309 20.2105V20.2105Z" stroke="white" stroke-width="1.15034" stroke-linecap="round" stroke-linejoin="round"/>
<path d="M103.291 24.7746H103.472C103.832 25.1517 104.153 25.3403 104.113 25.3403C105.275 25.4724 105.175 25.9627 105.515 25.9816L105.576 26.1324C104.253 26.2267 103.672 25.4912 103.291 25.6044C102.911 24.9631 103.331 24.8689 103.291 24.7934V24.7746Z" fill="#2D73B5"/>
<path d="M103.291 24.7746H103.472C103.832 25.1517 104.153 25.3403 104.113 25.3403C105.275 25.4724 105.175 25.9627 105.515 25.9816L105.576 26.1324C104.253 26.2267 103.672 25.4912 103.291 25.6044C102.911 24.9631 103.331 24.8689 103.291 24.7934V24.7746Z" stroke="white" stroke-width="1.15034" stroke-linecap="round" stroke-linejoin="round"/>
<path d="M104.313 24.699C106.578 24.6047 105.856 24.7744 106.497 25.2082C106.618 25.1328 106.578 25.1328 106.598 25.1139H106.698C106.638 25.5099 106.798 25.6231 106.818 25.7174C106.257 26.1135 105.756 25.906 105.636 25.7174C105.916 25.6042 105.856 25.642 105.956 25.6231V25.5099C105.576 25.4722 105.636 25.3968 105.596 25.4157L105.536 25.3025L105.636 25.1328L105.315 25.1705C104.514 24.9253 104.293 24.6424 104.333 24.7178L104.313 24.699Z" fill="#2D73B5"/>
<path d="M104.313 24.699C106.578 24.6047 105.856 24.7744 106.497 25.2082C106.618 25.1328 106.578 25.1328 106.598 25.1139H106.698C106.638 25.5099 106.798 25.6231 106.818 25.7174C106.257 26.1135 105.756 25.906 105.636 25.7174C105.916 25.6042 105.856 25.642 105.956 25.6231V25.5099C105.576 25.4722 105.636 25.3968 105.596 25.4157L105.536 25.3025L105.636 25.1328L105.315 25.1705C104.514 24.9253 104.293 24.6424 104.333 24.7178L104.313 24.699Z" stroke="white" stroke-width="1.15034" stroke-linecap="round" stroke-linejoin="round"/>
<path d="M110.204 28.8294C109.763 29.8855 109.062 31.0171 108.461 31.0925C107.82 32.2052 108.08 32.1109 108.04 32.0921L107.96 32.1675C107.339 32.1109 107.479 32.7521 107.379 32.7899C105.996 33.4122 105.375 33.2991 105.395 33.4688C105.555 33.6951 105.736 33.714 105.676 33.714L105.716 33.8271C104.173 35.9394 104.133 35.5622 103.812 35.9017C102.269 36.2223 101.748 35.9017 101.167 36.3543C100.386 36.26 100.225 36.5618 99.8647 36.5618C99.5441 36.3166 99.6042 36.1657 99.5241 36.1657H99.3237C98.5422 37.9385 96.5184 39.2021 96.5585 39.8245C96.8791 40.9183 96.6386 41.2201 96.7188 41.1258C95.757 42.2573 95.8973 43.3512 94.9755 43.5209C93.5929 45.8029 91.509 47.1985 91.6292 48.8393C92.0901 49.8955 92.0299 49.9898 92.1702 50.0652L92.3906 49.952C94.5146 50.7819 93.2122 53.9314 92.2103 54.0446C92.3706 54.931 92.6111 55.0064 92.5309 55.1384C92.2103 55.5722 92.1702 55.7796 92.1702 55.7985L92.2704 56.0625C95.256 59.0423 94.5948 63.8327 92.2704 65.7752C90.4069 68.0383 91.1884 67.6989 89.8058 68.3778C90.0262 69.0379 89.9861 69.1133 89.8859 69.3962C90.1063 69.6791 90.0863 69.6602 90.1063 69.698C89.4251 70.8295 89.9661 72.0931 90.0062 72.1497C89.2047 73.4133 91.1082 74.2431 90.2266 74.79C91.1684 76.0914 92.5509 77.2229 93.5929 77.5247L93.8133 77.751V78.8637L93.8935 78.9769C94.154 78.9957 94.0538 79.0334 94.0939 79.0146L94.1339 79.2032L93.7532 79.4484C93.2322 80.8251 93.653 80.5988 93.6931 81.1457L93.633 81.2777C93.3725 81.4286 93.4126 81.3909 93.3525 81.4475C93.3124 84.9553 90.4871 86.1246 88.2829 85.1817C85.658 86.2189 84.3355 86.9545 82.7325 85.5777C82.6323 85.276 82.5722 85.1251 82.5722 85.1251L82.4519 85.0496C82.0512 85.1439 82.1714 85.1062 82.0111 85.1062L81.951 84.993L81.0894 84.5404H81.1896C78.7249 83.7295 77.9234 85.2571 76.3204 85.2571C76.2603 85.0685 76.1601 84.993 76.1601 84.993L75.9798 84.9365C75.4989 85.5966 74.8376 85.2005 74.7775 85.4457C74.5571 86.1624 74.6372 86.2001 74.5571 86.2566C74.0962 85.936 74.2164 86.0492 74.1162 85.9549C73.7355 86.068 73.8357 86.1812 73.7756 86.2189C74.1162 86.4452 74.0361 86.5584 74.0962 86.5961L74.0561 86.6527C73.6955 86.6527 73.7556 86.615 73.7155 86.615L73.7956 86.5584C73.1143 87.0865 73.2346 87.011 72.9941 87.1053C72.8739 87.5768 72.934 87.6334 72.8939 87.6711C72.2127 88.4066 71.9722 88.8781 71.4713 88.8781C70.81 90.4623 71.1907 89.9154 70.7098 90.4246C69.7681 90.368 69.9284 90.5378 69.6879 90.6321C67.1632 91.047 66.5019 92.8009 65.8006 93.3856L65.7004 93.2912C64.4781 93.7816 64.9189 94.404 64.5582 94.6114L64.2777 94.7246C63.7567 94.2719 63.8569 94.3851 63.6565 94.2342C63.1155 94.5171 62.7749 94.3097 62.6547 94.2154C61.753 94.8 62.0535 94.5737 61.8131 94.9697C61.3722 94.9886 61.4724 94.9509 61.4324 94.9697C61.232 95.2149 61.3522 95.3281 61.3121 95.3092L61.2119 95.4224C56.1424 97.0443 51.5738 97.6289 51.3534 101.589C51.173 101.684 51.1731 101.665 51.1731 101.703C51.3734 102.061 51.1129 102.664 51.1731 102.532L51.0729 102.419C51.0528 103.023 50.9526 103.06 50.9727 103.174L51.0729 103.343V103.438L50.9526 103.551C51.0929 103.758 51.133 103.702 51.133 103.721L51.1731 103.834L51.1129 103.928L50.9326 104.022C50.9326 106.55 49.2895 107.492 48.8487 109.265C47.6063 110.435 48.1674 112.283 47.9069 112.094L47.4059 112.434V112.547L47.7065 112.641L47.6665 112.773C46.6846 113.678 46.9251 114.452 46.2237 114.489C45.6026 114.999 45.9432 114.961 45.6827 115.206H45.4423C44.7009 115.847 44.9814 115.923 44.8812 115.942L44.9213 116.338C43.6589 117.903 45.2419 120.185 45.4623 121.354V121.449L45.3621 121.524C45.0415 124.938 48.6082 124.409 46.5644 126.654C46.4441 128.917 46.344 129.784 46.6646 130.275C45.5625 131.897 46.5844 133.462 46.2037 133.67C45.6226 133.934 45.7629 133.877 45.5625 134.009C45.5424 134.707 45.6226 134.82 45.5625 134.914C44.6207 136.366 44.8612 135.895 44.7009 136.348C45.3421 136.951 44.5606 138.347 44.8211 138.422C32.9387 134.066 38.5293 132.689 34.1811 130.294C31.2756 129.049 36.5656 127.634 35.3433 126.239C27.8692 123.391 32.2775 120.185 26.8873 118.808C30.4941 115.413 29.7728 108.039 36.1648 109.624L36.2249 109.548C35.8041 109.096 35.3032 108.586 35.4234 108.303C36.806 107.398 35.6037 105.739 36.5856 104.928C36.5054 104.117 36.285 103.249 36.2049 103.193C24.3626 101.627 30.6744 107.945 23.4809 99.0811C23.4008 98.968 23.4409 98.9491 23.4409 98.9491C23.501 98.8359 23.521 98.8737 23.521 98.8548V98.7605C23.1202 98.1947 23.2605 98.3833 23.0802 98.289L23.02 98.3267L22.98 98.3833C23.02 98.6096 22.98 98.6285 22.98 98.6662L22.9399 98.7039H22.8597C22.6994 98.6285 22.7195 98.6096 22.6994 98.6096C22.6193 97.9495 22.3588 97.4969 22.2787 97.4781C21.918 97.4403 21.8579 97.4215 21.7977 97.3838C21.3569 96.6105 19.9743 95.1772 19.0726 95.5544L18.8121 95.4412C19.9343 94.5925 20.335 94.6491 20.4352 94.4794L20.6556 93.857L20.4953 93.2912C19.5535 92.4803 18.8923 92.9141 18.8723 92.782C18.231 93.2913 18.0707 93.3667 17.9906 93.3856C17.5698 91.9522 16.4076 92.1031 16.4677 91.6693L16.7082 91.1978L17.3293 90.9527L18.0507 91.1413C20.5554 87.8974 20.1346 88.9724 20.5354 87.1242C19.9342 85.8983 20.6155 84.9553 20.6356 84.8233L20.4352 84.2953C21.0764 82.0887 21.0564 81.9001 21.7176 81.0325C21.0964 80.2782 22.0582 79.5049 21.8378 79.6181L21.6775 79.1089C22.4189 77.751 22.1584 77.9019 22.2586 77.3738C20.1747 73.7905 22.7796 71.8291 20.5153 70.0752L20.7357 67.7743C16.1872 62.4559 11.2379 63.7949 6.98987 61.4564C3.40311 61.0603 3.80387 63.0783 2.7018 63.9081C2.50142 63.7006 2.50141 63.5498 2.50141 63.6063C1.2791 63.1914 0.938488 64.4927 0.898412 64.3041L0.577801 64.2664C4.84584 60.7963 11.7388 55.8362 15.4859 53.045C16.087 53.309 16.2874 52.8753 16.5479 52.9696C20.1947 53.3279 21.1966 48.4621 22.8798 46.6328L22.6994 46.3121H22.9199C22.7996 45.5766 23.2204 45.2749 23.2405 45.1806C23.4609 45.3692 23.6011 45.388 23.5611 45.388C23.6011 44.86 23.8015 44.9731 23.8216 44.8977L23.9818 44.9731C27.3482 42.5779 27.3282 40.8617 27.5686 38.4854H27.5886C27.769 38.3346 27.769 38.2591 27.789 38.2403C27.7289 38.1082 27.7089 38.146 27.7089 38.1271C27.7089 37.8442 27.7089 37.8631 27.7089 37.7876L27.8091 37.6556C28.2299 37.5613 28.2098 37.5802 28.2499 37.5613V37.3916C28.5505 37.1841 28.6506 37.203 28.6907 37.1464C28.7709 36.7504 28.6506 36.7881 28.6907 36.6938L28.8911 36.6561L28.851 36.524C28.9913 36.0714 29.1516 35.9394 29.1115 35.9583C28.8711 35.5811 29.0714 35.2605 29.0514 35.2793C29.352 35.0719 29.2718 35.1096 29.3319 34.9964H29.4121C30.1334 34.1289 30.3939 34.3929 30.975 34.242C31.1554 33.5254 31.476 33.3745 31.7365 33.2236C31.7765 33.035 31.7164 32.9596 31.7365 32.9407C31.8767 32.8464 31.9368 32.903 31.9368 32.8842C32.0571 32.7899 32.0571 32.6767 32.0771 32.6956L31.9168 32.6578L31.8567 32.5635C31.9168 32.2807 31.9769 32.2995 31.9769 32.2807L32.2975 32.2241C32.8586 31.828 32.5981 31.7526 32.6983 31.7149L32.4177 31.6771V31.5828L32.6382 31.4697H32.5179C32.7584 31.3377 32.7584 31.4131 32.7784 31.3943C32.9988 31.5074 32.9387 31.6017 32.9588 31.5828C33.8605 30.3004 33.62 29.4706 33.7603 29.546H33.8605C34.0007 28.4333 33.6 27.6789 33.8204 27.7732L34.2412 27.9241C34.121 27.6601 34.1811 27.6789 34.1811 27.5846C34.4416 27.2263 34.8623 27.1697 34.9225 27.132L35.0026 27.1697L34.9425 27.0377C34.662 26.9623 34.5818 26.9245 34.5618 26.9057C34.4816 26.4719 34.5217 26.4908 34.4616 26.4153L34.2412 26.5096L33.4797 25.4912C34.141 24.4539 34.4015 24.4539 34.3414 24.2653L34.5017 24.3974H34.6018C35.6037 23.9825 36.245 23.511 36.245 23.0395L36.1848 22.9829C36.2249 22.6434 36.3251 22.7 36.3652 22.6434C38.0483 22.8886 36.9262 20.6066 37.1867 20.6443C37.6676 20.418 37.6075 20.022 37.5875 19.9277H37.4873C37.1466 20.2294 37.0064 20.0785 36.9062 20.154V20.0974C37.2268 19.475 37.5875 19.3619 37.4873 19.3807L37.4272 19.1544C37.7077 18.4 37.5274 18.5509 37.5875 18.4755L37.307 18.268V18.1737L37.5474 18.0794C37.9081 18.2114 38.1084 18.2869 38.1084 18.268C38.5693 17.9851 38.5293 17.8531 38.5894 17.8531H38.4892C40.9137 15.3636 40.6132 13.2514 40.6532 11.686C39.8918 11.1957 39.2306 11.8369 39.2506 11.6295C38.93 10.6676 39.0703 10.6488 39.0903 10.5922C40.0521 10.5545 40.4529 10.4036 40.4729 10.3659C40.5931 10.0641 40.5731 10.1207 40.6132 10.0075L40.8336 9.91324C40.9338 8.5365 40.7334 8.87597 41.2343 8.2536C40.8336 7.29176 40.9338 6.83913 40.8937 6.93343C41.5349 5.99046 41.4347 5.82072 41.5549 5.55669L42.0359 5.19836L42.096 4.89661C41.7553 4.4817 41.4748 4.44397 41.5349 4.44397L41.4347 4.23653L41.4948 4.06679C41.7553 3.84047 41.7152 3.89705 41.7754 3.82161C41.6952 2.84092 43.3583 2.87863 43.2782 2.16197L43.4385 2.35057C43.4986 2.74662 43.2381 2.84092 43.2782 2.87864L43.5587 2.72776C43.6188 2.18083 43.4385 2.01109 43.4986 1.95452C43.8192 1.57733 43.8392 1.16241 43.8192 1.14356H43.9194C43.9194 1.29443 44.0196 1.31329 44.0196 1.35101L44.1999 1.31329C44.1398 0.841803 44.1598 0.936106 44.1799 0.76637L44.3803 0.577771L44.6207 0.709787C44.6007 0.99268 44.7009 1.04926 44.6608 1.04926H44.5205L44.4404 1.1247L44.6608 1.36988L44.4805 1.42645C44.3001 1.74706 44.3402 1.9168 44.3202 1.87908C44.6808 1.67163 44.761 1.86022 44.8411 1.87908C44.24 2.06768 43.9795 2.0111 44.0396 2.02996L43.9795 2.63346L44.0597 2.76548C44.4804 2.82206 44.6207 2.87863 44.6408 2.89749L44.7209 3.04837V3.35012L44.8411 3.51986C45.1016 3.4067 45.0215 3.35012 45.0615 3.35012C45.0615 3.10495 44.9413 3.12381 44.9613 3.10495C45.1216 3.10495 45.1417 3.01065 45.1818 3.01065C45.0816 1.8225 46.1236 0.74751 46.1035 0.728651L46.3239 0.785227V1.27557C45.5625 2.08653 45.9232 1.9168 45.5024 2.33171C45.4623 2.8032 45.5024 2.72776 45.5024 2.89749C45.6426 2.21855 45.7629 2.36943 45.9232 2.19969C45.8631 2.50144 45.8831 2.40715 45.823 2.50144L46.0233 2.78434C45.6827 3.35013 45.5825 3.53872 45.6026 3.5953C46.1236 3.18039 45.9432 3.3124 46.1436 3.19924C46.1436 3.38784 46.0634 3.38784 46.0835 3.38784C46.2037 3.57644 46.1236 3.57644 46.1436 3.57644C45.823 3.87819 45.8631 3.95363 45.823 3.97249C46.8649 3.67073 46.4842 2.78434 46.5644 2.76548C47.0252 3.33126 46.7848 3.61416 46.8449 3.65188C46.6044 3.95363 46.5243 3.85933 46.5243 3.89705C46.7447 4.53828 46.9651 4.4817 46.9852 4.59485L46.8449 4.14222L47.0052 3.82161L47.2657 3.70845L47.426 3.85933C47.8067 3.08609 47.6664 2.91635 47.7466 2.85977L47.967 2.76548L48.3878 1.74706H48.7084L48.7886 2.12425C48.1473 3.35012 48.3277 3.01066 48.1874 3.46328H48.2876C48.5681 3.02952 49.009 2.72776 48.9088 2.72776L49.0491 2.84092C49.2294 3.44442 49.1092 3.44442 49.1292 3.57644C49.4097 3.84047 49.4498 3.76503 49.4698 3.80275L49.3897 4.08565L49.5099 4.17994C49.5901 4.87774 49.1492 4.91546 49.1292 5.16064C50.5519 5.51897 50.071 4.34968 49.9708 4.12337L50.0109 3.95363C50.3315 3.61416 50.5919 3.85933 50.5919 3.80275L50.6521 3.91591L50.5719 4.02907L50.3515 4.08565C50.4717 4.14222 50.5519 4.17994 50.5719 4.17994C50.3715 4.46283 50.5719 4.51942 50.5719 4.59485C51.0328 3.76503 50.9326 3.99135 51.1931 3.76504L51.4135 3.97249H51.2131L51.0929 4.04793C50.9927 4.34968 51.0929 4.36854 51.0929 4.3874C51.3333 4.31196 51.3935 4.31196 51.4135 4.2931C51.173 4.68915 51.0929 4.67029 51.0729 4.76459V5.00977C51.2332 4.91547 51.3133 4.89661 51.2933 4.89661V4.76459L51.4736 4.59485L51.5137 4.40626H51.6339C51.8343 5.78301 51.3333 5.36809 51.4135 5.93388C52.8762 4.63257 52.2751 4.36854 53.1568 4.1045H52.716C53.1368 3.95363 53.1368 4.06679 53.2169 4.02907L53.3371 4.16109C53.4574 4.78345 53.2369 4.78345 53.257 4.95318L53.1969 5.00977H52.8963C52.3352 5.2738 52.4154 5.16064 52.3954 5.19836C52.1749 5.82072 52.0547 6.51853 52.195 6.61282L51.8343 6.53738C51.2732 6.7637 51.2332 7.10317 51.2332 7.00887C51.7341 7.00887 51.6139 6.63168 51.674 6.61282L51.8944 6.70712L51.9745 6.87686L51.9345 7.06546L51.7742 7.23519C52.1749 7.31063 52.1549 7.0466 52.215 7.02774L52.4755 7.17861C52.5757 7.70668 52.4755 7.76325 52.5356 7.85755L52.716 7.59352C52.756 6.80142 52.5757 6.53739 52.6358 6.59397C52.8562 6.21678 53.0766 6.16019 53.1367 6.14134L53.2169 6.21678C53.1568 6.63168 52.9965 6.59396 52.9764 6.65054C53.4373 6.40537 53.3772 6.32993 53.4574 6.32993C54.0585 5.23607 54.359 4.82117 54.1386 4.51941L54.359 4.3874H54.6797L54.9402 4.61371C55.1806 5.85844 55.1405 5.9716 55.1606 5.93388C54.9602 5.85844 55.0003 5.85845 54.9402 5.82073C54.5795 6.80142 53.6577 6.72598 53.6377 6.93343L53.7379 7.02774C53.9383 6.70712 53.9783 6.80142 53.9984 6.7637H54.1386L54.2789 6.82028C53.9383 7.29177 53.9783 7.59352 53.9583 7.68782C53.5575 7.87641 53.4974 8.04615 53.4974 8.04615L53.6377 8.3479C53.818 7.93299 53.7178 7.97071 53.7379 7.8387L54.2789 8.04615L54.4592 8.38562C54.1386 9.95096 53.7179 10.3093 54.7197 10.7808C55.5212 10.5545 55.3008 10.5922 55.5413 10.4413L55.4611 10.1773C56.0222 9.89438 56.2827 9.87552 56.2226 9.87552L56.3227 9.72465C55.8819 8.87597 55.7617 8.87597 55.7817 8.76281C56.0422 7.70668 56.6033 7.6501 56.5832 7.53694H56.964C57.1042 6.68826 57.2645 7.04659 57.2245 6.91458H57.4449L57.6051 7.23519H57.7053L57.7655 6.97115C58.2464 6.6694 58.1662 6.74484 58.3466 6.63168L58.5069 6.74484V6.87686L58.1462 6.91458H58.5469C58.7673 6.40537 58.7473 6.08476 58.8074 6.10362C58.7273 7.21633 59.128 6.85799 59.5088 6.97115L59.7091 7.00887L59.8694 7.2729V7.49922L59.4687 7.40492L59.6691 7.63124C60.19 7.70668 60.0698 7.6501 60.1299 7.66896L60.3303 7.81983V7.91413C59.669 8.17816 59.5488 8.23475 59.4887 8.31018V8.63079H59.5689L59.6691 8.36676C60.19 8.36676 60.3503 8.61194 60.3303 8.5365L60.2702 8.32904C60.5707 7.80097 60.5908 7.15975 60.5507 7.17861L60.6509 7.04659H60.9715V6.91458H60.8513V6.80142C61.753 6.4808 61.7129 6.19791 61.8932 5.99046C62.3341 6.25449 62.1337 7.00887 62.1537 6.91458C61.1919 7.31063 60.9515 8.31018 61.1919 8.64966C60.711 8.64966 60.711 8.57421 60.691 8.59307L60.5307 8.64966C61.1919 9.02685 61.0717 9.30973 61.1318 9.32859L60.8312 9.44175L61.0717 9.47947L61.1719 9.4229C61.3522 8.89483 61.3121 9.06456 61.2921 8.87597L61.3522 8.76281L61.5927 8.63079C62.0335 9.08342 62.1337 9.21544 62.1938 9.2343L62.4743 9.14L62.1938 9.0457L62.1337 8.85711C62.314 8.32904 62.3541 8.47992 62.3541 8.42334H62.2339C62.314 8.2536 62.3541 8.14044 62.3541 8.12158C62.9953 8.46106 62.6947 8.98913 62.7749 9.0457C62.9151 8.68737 62.8751 8.78167 62.8951 8.64966L63.0755 8.91369C62.9152 9.29088 62.7548 9.36631 62.7749 9.40403C63.1556 9.80008 63.2157 9.80009 63.2157 9.85667C62.8951 10.1207 62.8951 10.1961 62.8951 10.1773C63.3159 10.479 63.336 10.4413 63.356 10.479C62.9152 10.8939 62.9753 10.7619 62.8951 10.8751C62.7348 10.7431 62.5144 10.9317 62.5545 10.8751C62.5545 11.026 62.6948 11.0825 62.6747 11.0825L63.356 10.7242L63.4562 10.5167L63.3359 10.1773C63.9972 10.479 63.877 10.4036 64.1375 10.4602L64.398 10.3659L64.1976 10.8374C63.1356 11.6106 62.6947 11.6483 62.7749 11.6672V11.7803C63.8369 11.554 63.7968 11.554 64.0373 11.3843C64.2978 11.6295 64.3579 11.8181 64.398 11.7803L64.8388 11.7426C65.5 10.8562 65.1393 10.4225 65.2596 10.3659L66.1212 10.7619C65.2195 11.1203 65.5802 11.7615 65.3798 12.0444L65.1394 12.0821V12.1764C65.6203 12.0067 65.7004 11.9501 65.7405 11.9689L65.8807 12.0255C66.1011 12.3084 66.001 12.2141 66.041 12.2518L66.1212 12.2895C66.3416 12.0444 66.2815 11.8558 66.3216 11.8558L66.5019 11.7803L66.6221 11.8558C66.6622 12.3084 66.4218 12.3273 66.4418 12.3838L66.542 12.4781C66.8025 12.1575 66.8826 12.2141 66.9227 12.1387L66.9828 11.9689C67.2633 12.0632 67.2834 12.2707 67.3234 12.2895C66.4218 13.0251 66.2815 12.9119 66.2414 13.1005C67.2032 12.9685 67.2032 12.9308 67.3234 13.0062C67.7843 13.7983 68.0047 14.4584 67.5238 14.779C66.8225 14.8733 66.8025 14.7224 66.6823 14.7224C66.3216 15.1751 65.7405 15.0808 65.8206 15.1185C66.041 15.1185 66.1011 15.1939 66.1212 15.2128C66.9227 14.7036 67.4036 15.0808 67.7242 15.0619V15.2128C66.9628 15.9672 66.8826 15.722 66.8025 15.8163C65.9008 17.0233 66.021 16.6461 65.9609 16.797L65.46 16.7215L65.3598 16.8158C65.9008 16.9667 65.9609 16.8158 66.1011 16.8158L66.2414 16.9667C65.2195 18.0606 64.7186 18.136 64.3579 18.0417C64.6184 18.2303 64.5583 18.4943 64.5783 18.4566C63.1556 17.8531 63.3961 18.6641 62.8751 18.7584L62.5144 18.6641L62.835 18.8527C64.5382 18.268 63.9972 18.5698 64.1976 18.4755L64.3579 18.9847H64.4781C64.7386 18.4378 64.9991 18.6264 65.0392 18.5509L65.1394 18.7206C64.8388 19.5127 64.2377 20.0974 64.1775 20.4934L64.2777 20.5877C64.3979 19.9654 65.2395 19.7579 65.0792 19.8145L65.1394 19.9277C65.0191 20.682 65.0592 20.4934 65.0792 20.7575L65.2596 20.8895C65.0392 20.4746 65.4399 20.0597 65.3998 20.0785C64.6985 18.532 66.7824 17.8154 67.0028 17.5514H66.9628C66.9828 17.0799 67.9246 16.665 67.7242 16.7215L68.2853 16.665C69.9083 17.2873 69.3272 18.268 69.5076 18.6075C70.3291 19.1733 69.4475 20.4746 69.5476 20.3803C68.4255 20.8141 68.1049 20.4934 67.8244 20.2105C67.5639 20.1351 67.5639 20.0597 67.5038 19.9654C66.8826 20.154 66.6422 20.5689 66.562 20.7009L67.3034 20.2671L67.5639 20.3048C67.8043 21.7759 67.2233 21.889 67.1231 22.2097C66.7423 22.304 66.7424 22.2097 66.6422 22.2474C66.2214 22.6434 66.3216 22.9263 66.2815 22.8509C65.6403 23.0395 65.1995 23.2846 65.1995 23.3035L65.1394 23.5298C66.4418 22.6812 66.3416 23.0772 66.6823 22.4548L66.9227 22.4171L67.0229 22.5114C65.7806 24.9066 65.6403 24.7746 65.5802 24.8689L65.6804 25.0197C65.2395 27 64.6785 28.3201 64.5983 29.282L64.7386 29.546C65.5401 29.678 65.5401 29.6592 65.6804 29.7346L65.7204 30.1118C64.959 30.753 64.939 30.6965 64.8588 31.0171C64.2176 31.3188 64.2577 31.8469 64.1575 31.9789C63.4562 32.2995 63.2959 32.1864 63.1957 32.2807L63.0755 32.5447C63.1155 33.2425 63.4963 33.4877 63.5163 33.6008L62.9753 33.8083L63.5163 33.8837L63.6365 33.6574C62.9552 31.6583 66.021 32.4504 65.8607 31.0171C66.3216 30.753 66.542 30.9228 66.5019 30.8662C67.3234 29.3386 67.5439 29.8289 68.0648 29.3951C69.3873 28.1693 69.0267 27.1697 69.1669 26.4719L69.3673 26.3022C69.2671 26.1513 69.1669 26.0947 69.1469 26.0947C69.8683 24.0013 69.6478 24.6237 69.8081 23.8693C69.9684 24.1333 69.9083 24.3408 69.9083 24.3785H70.0085L69.748 22.7C69.9684 22.4548 69.9284 22.4925 69.9885 22.3983C70.4694 22.2097 70.6096 22.4926 70.6297 22.436C71.0104 22.964 70.9703 23.1904 70.9904 23.1526C71.0304 22.6057 70.9903 22.7377 70.9503 22.5491L70.79 22.436C70.83 22.0022 70.8701 21.7005 70.9503 21.6816C73.6153 21.1158 74.3166 20.418 74.2765 20.7198L74.4368 20.4746H74.7575L75.058 20.7009L75.1382 21.1158C74.4168 20.9083 74.1763 21.1535 74.1363 21.1158L74.0561 21.3044C74.5971 21.3798 74.4168 21.3421 74.5771 21.3987C74.6773 21.9456 74.6372 21.9833 74.6974 22.0211C74.6974 21.6816 74.8376 21.493 74.7975 21.5119H74.9178C75.3185 22.2851 74.7975 22.6057 74.7975 22.7377H74.537C73.8157 23.2281 73.976 23.1526 73.6153 23.3601L73.8958 23.4732C73.3949 25.1895 72.7136 24.7934 72.1926 24.4539C72.2327 24.8311 72.2928 24.7557 72.413 24.8689C71.2308 25.4724 70.1688 26.0381 70.0686 26.5474L70.3692 26.7925C70.3892 26.1702 70.5095 26.2267 70.4894 26.1702L70.6497 26.0759L70.9102 26.2833C70.7299 26.6039 70.79 26.5096 70.6898 26.6039V26.6982L70.9102 26.9057L71.0304 26.5096C71.2308 26.4719 71.311 26.5285 71.311 26.5096L71.351 26.4531C71.351 26.0004 71.5113 26.0004 71.5514 25.8873C71.9522 26.2267 72.1525 26.321 72.1125 26.3022L72.0123 26.057L72.1325 25.925L72.6334 25.793L72.5934 26.0759L72.8138 26.5096C72.5333 27.1131 72.1926 26.8302 72.1125 27.1131V27.1697C72.2728 27.1697 72.2928 27.0943 72.2928 27.1131C72.393 27.264 72.413 27.396 72.393 27.4149C73.0542 26.8302 72.8539 27.0377 73.0342 26.7925C73.1344 26.8302 73.1544 26.8868 73.1544 26.8868C73.7355 26.2079 73.455 25.661 73.996 25.6232L73.8958 25.7741V25.8684C74.2765 25.793 74.1764 25.6798 74.2365 25.6798L74.3367 25.7741C74.2164 25.9627 74.3567 26.0381 74.3367 26.0759C74.3968 25.9061 74.4168 25.925 74.4368 25.8684C74.537 26.3022 74.1563 26.4719 74.2365 26.4908L74.4769 26.321C74.4769 24.7368 75.2985 24.0202 75.8595 23.6053H75.9397L76.4005 23.8504V23.7373L76.2202 23.6053C76.3004 22.7943 76.7212 22.7754 76.7612 22.6434C77.683 24.0013 77.3423 23.8316 77.4826 23.9447L77.5427 23.7561C77.4225 23.3601 77.3624 23.1904 77.3824 23.1715L77.4625 22.9829C78.0637 22.7 77.9234 22.832 78.2841 22.6811C78.9453 22.6246 79.286 22.1719 79.4663 22.2851L79.5665 22.3605L79.6867 22.1908V21.7382L79.9071 21.5873L80.0875 21.757C80.3079 22.6057 80.0875 22.436 80.1476 22.5114L79.9472 22.7V22.8132H80.0674V22.7H80.1676V22.8132H80.2879C80.2879 22.6057 80.4081 22.4926 80.3881 22.5114C80.6686 22.6811 80.9892 22.5868 80.9291 22.6057L80.5684 22.3605V21.9833L80.7688 21.6627L81.1495 21.5684C80.8689 21.8325 80.8289 22.1154 80.8088 22.0776C81.2697 21.7382 81.2497 21.9456 81.2897 21.8702L81.5102 21.9645L81.5903 22.2662L81.9109 22.1342L82.5321 22.3417L82.7926 22.2474L82.6924 22.1531H82.5121L82.472 22.0211C82.6323 21.5684 82.7124 21.7193 82.7124 21.6439V21.9456C82.993 21.5873 82.8527 21.5684 82.8928 21.5496C82.7325 21.1724 82.5521 21.2667 82.5922 21.229L82.8928 20.9272L83.1132 21.0215C83.3536 21.7382 83.0531 21.7005 83.1332 21.7382H83.3536L83.4939 22.2285L83.6943 22.3417L83.574 22.5491C83.9948 22.5114 83.9548 22.1342 84.0149 22.1342C84.3154 22.7189 84.1752 22.5868 84.2353 22.6434L84.3555 22.5303C84.4757 21.9833 83.9347 21.6062 84.0349 21.6627C84.596 21.5873 84.8164 21.8136 84.7763 21.7382V21.6439L84.5158 21.6062C84.055 21.2478 84.1952 21.0592 84.1151 21.0215H84.2153L84.2954 21.1535C84.6561 21.3421 84.8765 21.1912 84.8765 21.229C84.2152 20.6632 83.7945 20.6632 83.8947 20.6443L83.6943 20.3048C83.8145 19.7768 83.9948 19.7768 84.0149 19.6825V19.5693C90.2466 19.1733 94.8753 23.8504 99.5241 24.3596C99.5642 24.8311 99.464 24.7557 99.484 24.8123L99.3437 24.8877L99.0833 24.7746L99.1834 25.1517C99.7445 25.4346 100.085 25.5855 100.045 25.6044C100.506 25.3403 100.566 25.3215 100.606 25.2838C100.827 25.5101 100.746 25.5667 100.786 25.5667C102.59 25.8118 103.211 25.6421 103.051 25.6987L103.211 25.8118C103.271 26.4153 102.991 26.4342 103.011 26.5096L103.472 26.3776L103.532 26.4719L103.451 26.8114H103.552C103.672 26.3588 103.912 26.3965 103.992 26.3022C104.574 26.7171 106.237 26.1136 105.936 26.3022L105.896 26.3588H105.876L105.836 26.3965C105.956 26.6605 105.936 26.6039 105.956 26.6982L106.197 26.5851C106.998 26.6417 106.698 26.6794 106.938 26.6416L107.018 26.4531C108.08 26.8302 107.8 26.9057 108.16 26.8491C108.421 26.0004 108.18 25.9816 108.22 25.9061C107.98 26.0193 108.02 25.9816 107.92 25.9816C107.199 25.4346 107.078 25.4912 107.018 25.4158L107.098 25.2083C109.904 25.0574 109.443 25.2838 110.084 25.3026C109.302 26.1702 109.643 27 109.523 26.8868C109.363 26.7925 109.282 26.7925 109.302 26.7925C109.343 27.9241 109.944 28.0561 110.164 28.3013L110.204 28.5842V28.8294Z" fill="#2D73B5"/>
<path d="M110.204 28.8294C109.763 29.8855 109.062 31.0171 108.461 31.0925C107.82 32.2052 108.08 32.1109 108.04 32.0921L107.96 32.1675C107.339 32.1109 107.479 32.7521 107.379 32.7899C105.996 33.4122 105.375 33.2991 105.395 33.4688C105.555 33.6951 105.736 33.714 105.676 33.714L105.716 33.8271C104.173 35.9394 104.133 35.5622 103.812 35.9017C102.269 36.2223 101.748 35.9017 101.167 36.3543C100.386 36.26 100.225 36.5618 99.8647 36.5618C99.5441 36.3166 99.6042 36.1657 99.5241 36.1657H99.3237C98.5422 37.9385 96.5184 39.2021 96.5585 39.8245C96.8791 40.9183 96.6386 41.2201 96.7188 41.1258C95.757 42.2574 95.8973 43.3512 94.9755 43.5209C93.5929 45.8029 91.509 47.1985 91.6292 48.8393C92.0901 49.8955 92.03 49.9898 92.1702 50.0652L92.3906 49.952C94.5146 50.7819 93.2122 53.9314 92.2103 54.0446C92.3706 54.931 92.6111 55.0064 92.5309 55.1384C92.2103 55.5722 92.1702 55.7796 92.1702 55.7985L92.2704 56.0625C95.256 59.0423 94.5948 63.8327 92.2704 65.7752C90.4069 68.0383 91.1884 67.6989 89.8058 68.3778C90.0262 69.0379 89.9861 69.1133 89.8859 69.3962C90.1063 69.6791 90.0863 69.6602 90.1063 69.698C89.4251 70.8295 89.9661 72.0931 90.0062 72.1497C89.2047 73.4133 91.1082 74.2431 90.2266 74.79C91.1684 76.0914 92.5509 77.2229 93.5929 77.5247L93.8133 77.751V78.8637L93.8935 78.9769C94.154 78.9957 94.0538 79.0334 94.0939 79.0146L94.1339 79.2032L93.7532 79.4484C93.2322 80.8251 93.653 80.5988 93.6931 81.1457L93.633 81.2777C93.3725 81.4286 93.4126 81.3909 93.3525 81.4475C93.3124 84.9553 90.4871 86.1246 88.2829 85.1817C85.658 86.2189 84.3355 86.9544 82.7325 85.5777C82.6323 85.2759 82.5722 85.1251 82.5722 85.1251L82.4519 85.0496C82.0512 85.1439 82.1714 85.1062 82.0111 85.1062L81.951 84.993L81.0894 84.5404H81.1896C78.7249 83.7295 77.9234 85.2571 76.3204 85.2571C76.2603 85.0685 76.1601 84.993 76.1601 84.993L75.9798 84.9365C75.4989 85.5966 74.8376 85.2005 74.7775 85.4457C74.5571 86.1623 74.6372 86.2001 74.5571 86.2566C74.0962 85.936 74.2164 86.0492 74.1162 85.9549C73.7355 86.068 73.8357 86.1812 73.7756 86.2189C74.1162 86.4452 74.0361 86.5584 74.0962 86.5961L74.0561 86.6527C73.6955 86.6527 73.7556 86.615 73.7155 86.615L73.7956 86.5584C73.1143 87.0865 73.2346 87.011 72.9941 87.1053C72.8739 87.5768 72.934 87.6334 72.8939 87.6711C72.2127 88.4066 71.9722 88.8781 71.4713 88.8781C70.81 90.4623 71.1907 89.9154 70.7098 90.4246C69.7681 90.368 69.9284 90.5378 69.6879 90.6321C67.1632 91.047 66.5019 92.8009 65.8006 93.3855L65.7004 93.2912C64.4781 93.7816 64.9189 94.404 64.5582 94.6114L64.2777 94.7246C63.7567 94.2719 63.8569 94.3851 63.6565 94.2342C63.1155 94.5171 62.7749 94.3097 62.6547 94.2154C61.753 94.8 62.0535 94.5737 61.8131 94.9697C61.3722 94.9886 61.4724 94.9509 61.4324 94.9697C61.232 95.2149 61.3522 95.3281 61.3121 95.3092L61.2119 95.4224C56.1424 97.0443 51.5738 97.6289 51.3534 101.589C51.173 101.684 51.1731 101.665 51.1731 101.703C51.3734 102.061 51.1129 102.664 51.1731 102.532L51.0729 102.419C51.0528 103.023 50.9526 103.06 50.9727 103.174L51.0729 103.343V103.438L50.9526 103.551C51.0929 103.758 51.133 103.702 51.133 103.721L51.1731 103.834L51.1129 103.928L50.9326 104.022C50.9326 106.55 49.2895 107.492 48.8487 109.265C47.6063 110.435 48.1674 112.283 47.9069 112.094L47.406 112.434V112.547L47.7065 112.641L47.6665 112.773C46.6846 113.678 46.9251 114.452 46.2237 114.489C45.6026 114.999 45.9432 114.961 45.6827 115.206H45.4423C44.7009 115.847 44.9814 115.923 44.8812 115.942L44.9213 116.338C43.6589 117.903 45.2419 120.185 45.4623 121.354V121.449L45.3621 121.524C45.0415 124.938 48.6082 124.409 46.5644 126.654C46.4441 128.917 46.344 129.784 46.6646 130.275C45.5625 131.897 46.5844 133.462 46.2037 133.67C45.6226 133.934 45.7629 133.877 45.5625 134.009C45.5424 134.707 45.6226 134.82 45.5625 134.914C44.6207 136.366 44.8612 135.895 44.7009 136.348C45.3421 136.951 44.5606 138.347 44.8211 138.422C32.9387 134.066 38.5293 132.689 34.1811 130.294C31.2756 129.049 36.5656 127.634 35.3433 126.239C27.8692 123.391 32.2775 120.185 26.8873 118.808C30.4941 115.413 29.7728 108.039 36.1648 109.624L36.2249 109.548C35.8041 109.096 35.3032 108.586 35.4234 108.303C36.806 107.398 35.6037 105.739 36.5856 104.928C36.5054 104.117 36.285 103.249 36.2049 103.193C24.3626 101.627 30.6744 107.945 23.4809 99.0811C23.4008 98.968 23.4409 98.9491 23.4409 98.9491C23.501 98.8359 23.521 98.8737 23.521 98.8548V98.7605C23.1202 98.1947 23.2605 98.3833 23.0802 98.289L23.02 98.3267L22.98 98.3833C23.02 98.6096 22.98 98.6285 22.98 98.6662L22.9399 98.7039H22.8597C22.6994 98.6285 22.7195 98.6096 22.6994 98.6096C22.6193 97.9495 22.3588 97.4969 22.2787 97.4781C21.918 97.4403 21.8579 97.4215 21.7977 97.3838C21.3569 96.6105 19.9743 95.1772 19.0726 95.5544L18.8121 95.4412C19.9343 94.5926 20.335 94.6491 20.4352 94.4794L20.6556 93.857L20.4953 93.2912C19.5535 92.4803 18.8923 92.9141 18.8723 92.782C18.231 93.2913 18.0707 93.3667 17.9906 93.3855C17.5698 91.9522 16.4076 92.1031 16.4677 91.6693L16.7082 91.1978L17.3293 90.9527L18.0507 91.1413C20.5554 87.8974 20.1346 88.9724 20.5354 87.1242C19.9342 85.8983 20.6155 84.9553 20.6356 84.8233L20.4352 84.2953C21.0764 82.0887 21.0564 81.9001 21.7176 81.0325C21.0964 80.2782 22.0582 79.5049 21.8378 79.6181L21.6775 79.1089C22.4189 77.751 22.1584 77.9019 22.2586 77.3738C20.1747 73.7905 22.7796 71.8291 20.5153 70.0752L20.7357 67.7743C16.1872 62.4559 11.2379 63.7949 6.98987 61.4564C3.40311 61.0603 3.80387 63.0783 2.7018 63.9081C2.50142 63.7006 2.50141 63.5498 2.50141 63.6063C1.2791 63.1914 0.938488 64.4927 0.898412 64.3041L0.577801 64.2664C4.84584 60.7963 11.7388 55.8362 15.4859 53.045C16.087 53.309 16.2874 52.8753 16.5479 52.9696C20.1947 53.3279 21.1966 48.4621 22.8798 46.6328L22.6994 46.3122H22.9199C22.7996 45.5766 23.2204 45.2749 23.2405 45.1806C23.4609 45.3692 23.6011 45.388 23.5611 45.388C23.6011 44.86 23.8015 44.9731 23.8216 44.8977L23.9818 44.9731C27.3482 42.578 27.3282 40.8617 27.5686 38.4854H27.5886C27.769 38.3346 27.769 38.2591 27.789 38.2403C27.7289 38.1082 27.7089 38.146 27.7089 38.1271C27.7089 37.8442 27.7089 37.8631 27.7089 37.7876L27.8091 37.6556C28.2299 37.5613 28.2098 37.5802 28.2499 37.5613V37.3916C28.5505 37.1841 28.6506 37.203 28.6907 37.1464C28.7709 36.7504 28.6506 36.7881 28.6907 36.6938L28.8911 36.6561L28.851 36.524C28.9913 36.0714 29.1516 35.9394 29.1115 35.9583C28.8711 35.5811 29.0714 35.2605 29.0514 35.2793C29.352 35.0719 29.2718 35.1096 29.3319 34.9964H29.4121C30.1334 34.1289 30.3939 34.3929 30.975 34.242C31.1554 33.5254 31.476 33.3745 31.7365 33.2236C31.7765 33.035 31.7164 32.9596 31.7365 32.9407C31.8767 32.8464 31.9368 32.903 31.9368 32.8842C32.0571 32.7899 32.0571 32.6767 32.0771 32.6956L31.9168 32.6578L31.8567 32.5635C31.9168 32.2807 31.9769 32.2995 31.9769 32.2807L32.2975 32.2241C32.8586 31.828 32.5981 31.7526 32.6983 31.7149L32.4177 31.6771V31.5828L32.6382 31.4697H32.5179C32.7584 31.3377 32.7584 31.4131 32.7784 31.3943C32.9988 31.5074 32.9387 31.6017 32.9588 31.5828C33.8605 30.3004 33.62 29.4706 33.7603 29.546H33.8605C34.0007 28.4333 33.6 27.6789 33.8204 27.7732L34.2412 27.9241C34.121 27.6601 34.1811 27.6789 34.1811 27.5846C34.4416 27.2263 34.8623 27.1697 34.9225 27.132L35.0026 27.1697L34.9425 27.0377C34.662 26.9623 34.5818 26.9245 34.5618 26.9057C34.4816 26.4719 34.5217 26.4908 34.4616 26.4153L34.2412 26.5096L33.4797 25.4912C34.141 24.4539 34.4015 24.4539 34.3414 24.2653L34.5017 24.3974H34.6018C35.6037 23.9825 36.245 23.511 36.245 23.0395L36.1848 22.9829C36.2249 22.6434 36.3251 22.7 36.3652 22.6434C38.0483 22.8886 36.9262 20.6066 37.1867 20.6443C37.6676 20.418 37.6075 20.022 37.5875 19.9277H37.4873C37.1466 20.2294 37.0064 20.0785 36.9062 20.154V20.0974C37.2268 19.475 37.5875 19.3619 37.4873 19.3807L37.4272 19.1544C37.7077 18.4 37.5274 18.5509 37.5875 18.4755L37.307 18.268V18.1737L37.5474 18.0794C37.9081 18.2114 38.1084 18.2869 38.1084 18.268C38.5693 17.9851 38.5293 17.8531 38.5894 17.8531H38.4892C40.9137 15.3636 40.6132 13.2514 40.6532 11.686C39.8918 11.1957 39.2306 11.8369 39.2506 11.6295C38.93 10.6676 39.0703 10.6488 39.0903 10.5922C40.0521 10.5545 40.4529 10.4036 40.4729 10.3659C40.5931 10.0641 40.5731 10.1207 40.6132 10.0075L40.8336 9.91324C40.9338 8.5365 40.7334 8.87597 41.2343 8.2536C40.8336 7.29176 40.9338 6.83913 40.8937 6.93343C41.5349 5.99046 41.4347 5.82072 41.5549 5.55669L42.0359 5.19836L42.096 4.89661C41.7553 4.4817 41.4748 4.44397 41.5349 4.44397L41.4347 4.23653L41.4948 4.06679C41.7553 3.84047 41.7152 3.89705 41.7754 3.82161C41.6952 2.84092 43.3583 2.87863 43.2782 2.16197L43.4385 2.35057C43.4986 2.74662 43.2381 2.84092 43.2782 2.87864L43.5587 2.72776C43.6188 2.18083 43.4385 2.01109 43.4986 1.95452C43.8192 1.57733 43.8392 1.16241 43.8192 1.14356H43.9194C43.9194 1.29443 44.0196 1.31329 44.0196 1.35101L44.1999 1.31329C44.1398 0.841803 44.1598 0.936106 44.1799 0.76637L44.3803 0.577771L44.6207 0.709787C44.6007 0.99268 44.7009 1.04926 44.6608 1.04926H44.5205L44.4404 1.1247L44.6608 1.36988L44.4805 1.42645C44.3001 1.74706 44.3402 1.9168 44.3202 1.87908C44.6808 1.67163 44.761 1.86022 44.8411 1.87908C44.24 2.06768 43.9795 2.0111 44.0396 2.02996L43.9795 2.63346L44.0597 2.76548C44.4804 2.82206 44.6207 2.87863 44.6408 2.89749L44.7209 3.04837V3.35012L44.8411 3.51986C45.1016 3.4067 45.0215 3.35012 45.0615 3.35012C45.0615 3.10495 44.9413 3.12381 44.9613 3.10495C45.1216 3.10495 45.1417 3.01065 45.1818 3.01065C45.0816 1.8225 46.1235 0.74751 46.1035 0.728651L46.3239 0.785227V1.27557C45.5625 2.08653 45.9232 1.9168 45.5024 2.33171C45.4623 2.8032 45.5024 2.72776 45.5024 2.89749C45.6426 2.21855 45.7629 2.36943 45.9232 2.19969C45.8631 2.50144 45.8831 2.40715 45.823 2.50144L46.0233 2.78434C45.6827 3.35013 45.5825 3.53872 45.6026 3.5953C46.1235 3.18039 45.9432 3.3124 46.1436 3.19925C46.1436 3.38784 46.0634 3.38784 46.0835 3.38784C46.2037 3.57644 46.1236 3.57644 46.1436 3.57644C45.823 3.87819 45.8631 3.95363 45.823 3.97249C46.8649 3.67073 46.4842 2.78434 46.5644 2.76548C47.0252 3.33126 46.7848 3.61416 46.8449 3.65188C46.6044 3.95363 46.5243 3.85933 46.5243 3.89705C46.7447 4.53828 46.9651 4.4817 46.9852 4.59485L46.8449 4.14222L47.0052 3.82161L47.2657 3.70845L47.426 3.85933C47.8067 3.08609 47.6664 2.91635 47.7466 2.85977L47.967 2.76548L48.3878 1.74706H48.7084L48.7886 2.12425C48.1474 3.35012 48.3277 3.01066 48.1874 3.46328H48.2876C48.5681 3.02952 49.009 2.72776 48.9088 2.72776L49.0491 2.84092C49.2294 3.44442 49.1092 3.44442 49.1292 3.57644C49.4097 3.84047 49.4498 3.76503 49.4698 3.80275L49.3897 4.08565L49.5099 4.17994C49.5901 4.87774 49.1492 4.91546 49.1292 5.16064C50.5519 5.51897 50.071 4.34968 49.9708 4.12337L50.0109 3.95363C50.3315 3.61416 50.5919 3.85933 50.5919 3.80275L50.6521 3.91591L50.5719 4.02907L50.3515 4.08565C50.4717 4.14222 50.5519 4.17994 50.5719 4.17994C50.3715 4.46283 50.5719 4.51942 50.5719 4.59485C51.0328 3.76503 50.9326 3.99135 51.1931 3.76504L51.4135 3.97249H51.2131L51.0929 4.04793C50.9927 4.34968 51.0929 4.36854 51.0929 4.3874C51.3333 4.31196 51.3935 4.31196 51.4135 4.2931C51.173 4.68915 51.0929 4.67029 51.0729 4.76459V5.00977C51.2332 4.91547 51.3133 4.89661 51.2933 4.89661V4.76459L51.4736 4.59485L51.5137 4.40626H51.6339C51.8343 5.78301 51.3333 5.36809 51.4135 5.93388C52.8762 4.63257 52.2751 4.36854 53.1568 4.1045H52.716C53.1368 3.95363 53.1368 4.06679 53.2169 4.02907L53.3371 4.16109C53.4574 4.78345 53.2369 4.78345 53.257 4.95318L53.1969 5.00977H52.8963C52.3352 5.2738 52.4154 5.16064 52.3954 5.19836C52.1749 5.82072 52.0547 6.51853 52.195 6.61282L51.8343 6.53738C51.2732 6.7637 51.2332 7.10317 51.2332 7.00887C51.7341 7.00887 51.6139 6.63168 51.674 6.61282L51.8944 6.70712L51.9745 6.87686L51.9345 7.06546L51.7742 7.23519C52.1749 7.31063 52.1549 7.0466 52.215 7.02774L52.4755 7.17861C52.5757 7.70668 52.4755 7.76325 52.5356 7.85755L52.716 7.59352C52.756 6.80142 52.5757 6.53739 52.6358 6.59397C52.8562 6.21678 53.0766 6.16019 53.1367 6.14134L53.2169 6.21677C53.1568 6.63168 52.9965 6.59396 52.9764 6.65054C53.4373 6.40537 53.3772 6.32993 53.4574 6.32993C54.0585 5.23607 54.359 4.82117 54.1386 4.51941L54.359 4.3874H54.6797L54.9402 4.61371C55.1806 5.85844 55.1405 5.9716 55.1606 5.93388C54.9602 5.85844 55.0003 5.85845 54.9402 5.82073C54.5795 6.80142 53.6577 6.72598 53.6377 6.93343L53.7379 7.02774C53.9383 6.70712 53.9783 6.80142 53.9984 6.7637H54.1386L54.2789 6.82028C53.9383 7.29177 53.9783 7.59352 53.9583 7.68782C53.5575 7.87641 53.4974 8.04615 53.4974 8.04615L53.6377 8.3479C53.818 7.93299 53.7178 7.97071 53.7379 7.8387L54.2789 8.04615L54.4592 8.38562C54.1386 9.95096 53.7179 10.3093 54.7197 10.7808C55.5212 10.5545 55.3008 10.5922 55.5413 10.4413L55.4611 10.1773C56.0222 9.89438 56.2827 9.87552 56.2226 9.87552L56.3227 9.72465C55.8819 8.87597 55.7617 8.87597 55.7817 8.76281C56.0422 7.70668 56.6033 7.6501 56.5832 7.53694H56.964C57.1042 6.68826 57.2645 7.04659 57.2245 6.91458H57.4449L57.6051 7.23519H57.7053L57.7655 6.97115C58.2464 6.6694 58.1662 6.74484 58.3466 6.63168L58.5069 6.74484V6.87686L58.1462 6.91458H58.5469C58.7673 6.40537 58.7473 6.08476 58.8074 6.10362C58.7273 7.21633 59.128 6.85799 59.5088 6.97115L59.7091 7.00887L59.8694 7.2729V7.49922L59.4687 7.40492L59.6691 7.63124C60.19 7.70668 60.0698 7.6501 60.1299 7.66896L60.3303 7.81983V7.91413C59.669 8.17816 59.5488 8.23475 59.4887 8.31018V8.63079H59.5689L59.6691 8.36676C60.19 8.36676 60.3503 8.61194 60.3303 8.5365L60.2702 8.32904C60.5707 7.80097 60.5908 7.15975 60.5507 7.17861L60.6509 7.04659H60.9715V6.91458H60.8513V6.80142C61.753 6.4808 61.7129 6.19791 61.8932 5.99046C62.3341 6.25449 62.1337 7.00887 62.1537 6.91458C61.1919 7.31063 60.9515 8.31019 61.1919 8.64966C60.711 8.64966 60.711 8.57421 60.691 8.59307L60.5307 8.64966C61.1919 9.02685 61.0717 9.30973 61.1318 9.32859L60.8312 9.44175L61.0717 9.47947L61.1719 9.4229C61.3522 8.89483 61.3121 9.06456 61.2921 8.87597L61.3522 8.76281L61.5927 8.63079C62.0335 9.08342 62.1337 9.21544 62.1938 9.2343L62.4743 9.14L62.1938 9.04571L62.1337 8.85711C62.314 8.32904 62.3541 8.47992 62.3541 8.42334H62.2339C62.314 8.2536 62.3541 8.14044 62.3541 8.12158C62.9953 8.46106 62.6947 8.98913 62.7749 9.04571C62.9151 8.68737 62.8751 8.78167 62.8951 8.64966L63.0755 8.91369C62.9152 9.29088 62.7548 9.36631 62.7749 9.40403C63.1556 9.80008 63.2157 9.80009 63.2157 9.85667C62.8951 10.1207 62.8951 10.1961 62.8951 10.1773C63.3159 10.479 63.336 10.4413 63.356 10.479C62.9152 10.8939 62.9753 10.7619 62.8951 10.8751C62.7348 10.7431 62.5144 10.9317 62.5545 10.8751C62.5545 11.026 62.6948 11.0825 62.6747 11.0825L63.356 10.7242L63.4562 10.5167L63.3359 10.1773C63.9972 10.479 63.877 10.4036 64.1375 10.4602L64.398 10.3659L64.1976 10.8374C63.1356 11.6106 62.6947 11.6483 62.7749 11.6672V11.7803C63.8369 11.554 63.7968 11.554 64.0373 11.3843C64.2978 11.6295 64.3579 11.8181 64.398 11.7803L64.8388 11.7426C65.5 10.8562 65.1393 10.4225 65.2596 10.3659L66.1212 10.7619C65.2195 11.1203 65.5802 11.7615 65.3798 12.0444L65.1393 12.0821V12.1764C65.6203 12.0067 65.7004 11.9501 65.7405 11.9689L65.8807 12.0255C66.1011 12.3084 66.001 12.2141 66.041 12.2518L66.1212 12.2895C66.3416 12.0444 66.2815 11.8558 66.3216 11.8558L66.5019 11.7803L66.6221 11.8558C66.6622 12.3084 66.4218 12.3273 66.4418 12.3838L66.542 12.4781C66.8025 12.1575 66.8826 12.2141 66.9227 12.1387L66.9828 11.9689C67.2633 12.0632 67.2834 12.2707 67.3235 12.2895C66.4218 13.0251 66.2815 12.9119 66.2414 13.1005C67.2032 12.9685 67.2032 12.9308 67.3235 13.0062C67.7843 13.7983 68.0047 14.4584 67.5238 14.779C66.8225 14.8733 66.8025 14.7224 66.6823 14.7224C66.3216 15.1751 65.7405 15.0808 65.8206 15.1185C66.041 15.1185 66.1011 15.1939 66.1212 15.2128C66.9227 14.7036 67.4036 15.0808 67.7242 15.0619V15.2128C66.9628 15.9672 66.8826 15.722 66.8025 15.8163C65.9008 17.0233 66.021 16.6461 65.9609 16.797L65.46 16.7215L65.3598 16.8158C65.9008 16.9667 65.9609 16.8158 66.1012 16.8158L66.2414 16.9667C65.2195 18.0606 64.7186 18.136 64.3579 18.0417C64.6184 18.2303 64.5583 18.4943 64.5783 18.4566C63.1556 17.8531 63.3961 18.6641 62.8751 18.7584L62.5144 18.6641L62.835 18.8527C64.5382 18.268 63.9972 18.5698 64.1976 18.4755L64.3579 18.9847H64.4781C64.7386 18.4378 64.9991 18.6264 65.0392 18.5509L65.1393 18.7206C64.8388 19.5127 64.2377 20.0974 64.1775 20.4934L64.2777 20.5877C64.3979 19.9654 65.2395 19.7579 65.0792 19.8145L65.1393 19.9277C65.0191 20.682 65.0592 20.4934 65.0792 20.7575L65.2596 20.8895C65.0392 20.4746 65.4399 20.0597 65.3998 20.0785C64.6985 18.532 66.7824 17.8154 67.0028 17.5514H66.9628C66.9828 17.0799 67.9246 16.665 67.7242 16.7215L68.2853 16.665C69.9083 17.2873 69.3272 18.268 69.5076 18.6075C70.3291 19.1733 69.4475 20.4746 69.5476 20.3803C68.4255 20.8141 68.1049 20.4934 67.8244 20.2105C67.5639 20.1351 67.5639 20.0597 67.5038 19.9654C66.8826 20.154 66.6422 20.5689 66.562 20.7009L67.3034 20.2671L67.5639 20.3048C67.8043 21.7759 67.2233 21.889 67.1231 22.2097C66.7423 22.304 66.7424 22.2097 66.6422 22.2474C66.2214 22.6434 66.3216 22.9263 66.2815 22.8509C65.6403 23.0395 65.1995 23.2846 65.1995 23.3035L65.1393 23.5298C66.4418 22.6811 66.3416 23.0772 66.6823 22.4548L66.9227 22.4171L67.0229 22.5114C65.7806 24.9066 65.6403 24.7746 65.5802 24.8689L65.6804 25.0197C65.2395 27 64.6785 28.3201 64.5983 29.282L64.7386 29.546C65.5401 29.678 65.5401 29.6592 65.6804 29.7346L65.7204 30.1118C64.959 30.753 64.939 30.6965 64.8588 31.0171C64.2176 31.3188 64.2577 31.8469 64.1575 31.9789C63.4562 32.2995 63.2959 32.1864 63.1957 32.2807L63.0755 32.5447C63.1155 33.2425 63.4963 33.4877 63.5163 33.6008L62.9753 33.8083L63.5163 33.8837L63.6365 33.6574C62.9552 31.6583 66.021 32.4504 65.8607 31.0171C66.3216 30.753 66.542 30.9228 66.5019 30.8662C67.3234 29.3386 67.5439 29.8289 68.0648 29.3951C69.3873 28.1693 69.0267 27.1697 69.1669 26.4719L69.3673 26.3022C69.2671 26.1513 69.1669 26.0947 69.1469 26.0947C69.8683 24.0013 69.6478 24.6237 69.8081 23.8693C69.9684 24.1333 69.9083 24.3408 69.9083 24.3785H70.0085L69.748 22.7C69.9684 22.4548 69.9284 22.4926 69.9885 22.3983C70.4694 22.2097 70.6096 22.4926 70.6297 22.436C71.0104 22.964 70.9703 23.1904 70.9904 23.1526C71.0304 22.6057 70.9904 22.7377 70.9503 22.5491L70.79 22.436C70.83 22.0022 70.8701 21.7005 70.9503 21.6816C73.6153 21.1158 74.3166 20.418 74.2765 20.7198L74.4369 20.4746H74.7575L75.058 20.7009L75.1382 21.1158C74.4168 20.9083 74.1763 21.1535 74.1363 21.1158L74.0561 21.3044C74.5971 21.3798 74.4168 21.3421 74.5771 21.3987C74.6773 21.9456 74.6372 21.9833 74.6974 22.0211C74.6974 21.6816 74.8376 21.493 74.7975 21.5119H74.9178C75.3185 22.2851 74.7975 22.6057 74.7975 22.7377H74.537C73.8157 23.2281 73.976 23.1526 73.6153 23.3601L73.8958 23.4732C73.3949 25.1895 72.7136 24.7934 72.1926 24.4539C72.2327 24.8311 72.2928 24.7557 72.4131 24.8689C71.2308 25.4724 70.1688 26.0381 70.0686 26.5474L70.3692 26.7925C70.3892 26.1702 70.5095 26.2267 70.4894 26.1702L70.6497 26.0759L70.9102 26.2833C70.7299 26.6039 70.79 26.5096 70.6898 26.6039V26.6982L70.9102 26.9057L71.0304 26.5096C71.2308 26.4719 71.311 26.5285 71.311 26.5096L71.351 26.4531C71.351 26.0004 71.5113 26.0004 71.5514 25.8873C71.9522 26.2267 72.1525 26.321 72.1125 26.3022L72.0123 26.057L72.1325 25.925L72.6334 25.793L72.5934 26.0759L72.8138 26.5096C72.5333 27.1131 72.1926 26.8302 72.1125 27.1131V27.1697C72.2728 27.1697 72.2928 27.0943 72.2928 27.1131C72.393 27.264 72.413 27.396 72.393 27.4149C73.0542 26.8302 72.8539 27.0377 73.0342 26.7925C73.1344 26.8302 73.1544 26.8868 73.1544 26.8868C73.7355 26.2079 73.455 25.661 73.996 25.6232L73.8958 25.7741V25.8684C74.2765 25.793 74.1763 25.6798 74.2365 25.6798L74.3367 25.7741C74.2164 25.9627 74.3567 26.0381 74.3367 26.0759C74.3968 25.9061 74.4168 25.925 74.4369 25.8684C74.537 26.3022 74.1563 26.4719 74.2365 26.4908L74.4769 26.321C74.4769 24.7368 75.2985 24.0202 75.8595 23.6053H75.9397L76.4005 23.8504V23.7373L76.2202 23.6053C76.3004 22.7943 76.7212 22.7754 76.7612 22.6434C77.683 24.0013 77.3423 23.8316 77.4826 23.9447L77.5427 23.7561C77.4225 23.3601 77.3624 23.1904 77.3824 23.1715L77.4625 22.9829C78.0637 22.7 77.9234 22.832 78.2841 22.6811C78.9453 22.6246 79.286 22.1719 79.4663 22.2851L79.5665 22.3605L79.6867 22.1908V21.7382L79.9071 21.5873L80.0875 21.757C80.3079 22.6057 80.0875 22.436 80.1476 22.5114L79.9472 22.7V22.8132H80.0674V22.7H80.1676V22.8132H80.2879C80.2879 22.6057 80.4081 22.4926 80.3881 22.5114C80.6686 22.6811 80.9892 22.5868 80.9291 22.6057L80.5684 22.3605V21.9833L80.7688 21.6627L81.1495 21.5684C80.8689 21.8325 80.8289 22.1154 80.8088 22.0776C81.2697 21.7382 81.2497 21.9456 81.2897 21.8702L81.5102 21.9645L81.5903 22.2662L81.9109 22.1342L82.5321 22.3417L82.7926 22.2474L82.6924 22.1531H82.5121L82.472 22.0211C82.6323 21.5684 82.7124 21.7193 82.7124 21.6439V21.9456C82.993 21.5873 82.8527 21.5684 82.8928 21.5496C82.7325 21.1724 82.5521 21.2667 82.5922 21.229L82.8928 20.9272L83.1132 21.0215C83.3536 21.7382 83.0531 21.7005 83.1332 21.7382H83.3536L83.4939 22.2285L83.6943 22.3417L83.574 22.5491C83.9948 22.5114 83.9548 22.1342 84.0149 22.1342C84.3154 22.7189 84.1752 22.5868 84.2353 22.6434L84.3555 22.5303C84.4757 21.9833 83.9347 21.6062 84.0349 21.6627C84.596 21.5873 84.8164 21.8136 84.7763 21.7382V21.6439L84.5158 21.6062C84.055 21.2478 84.1952 21.0592 84.1151 21.0215H84.2153L84.2954 21.1535C84.6561 21.3421 84.8765 21.1912 84.8765 21.229C84.2152 20.6632 83.7945 20.6632 83.8947 20.6443L83.6943 20.3048C83.8145 19.7768 83.9948 19.7768 84.0149 19.6825V19.5693C90.2466 19.1733 94.8753 23.8504 99.5241 24.3596C99.5642 24.8311 99.464 24.7557 99.484 24.8123L99.3437 24.8877L99.0833 24.7746L99.1834 25.1518C99.7445 25.4346 100.085 25.5855 100.045 25.6044C100.506 25.3403 100.566 25.3215 100.606 25.2838C100.827 25.5101 100.746 25.5667 100.786 25.5667C102.59 25.8118 103.211 25.6421 103.051 25.6987L103.211 25.8118C103.271 26.4153 102.991 26.4342 103.011 26.5096L103.472 26.3776L103.532 26.4719L103.451 26.8114H103.552C103.672 26.3588 103.912 26.3965 103.992 26.3022C104.574 26.7171 106.237 26.1136 105.936 26.3022L105.896 26.3588H105.876L105.836 26.3965C105.956 26.6605 105.936 26.6039 105.956 26.6982L106.197 26.5851C106.998 26.6417 106.698 26.6794 106.938 26.6416L107.018 26.4531C108.08 26.8302 107.8 26.9057 108.16 26.8491C108.421 26.0004 108.18 25.9816 108.22 25.9061C107.98 26.0193 108.02 25.9816 107.92 25.9816C107.199 25.4346 107.078 25.4912 107.018 25.4158L107.098 25.2083C109.904 25.0575 109.443 25.2838 110.084 25.3026C109.302 26.1702 109.643 27 109.523 26.8868C109.363 26.7925 109.282 26.7925 109.302 26.7925C109.343 27.9241 109.944 28.0561 110.164 28.3013L110.204 28.5842V28.8294Z" stroke="white" stroke-width="1.15034" stroke-linecap="round" stroke-linejoin="round"/>
<path d="M78.0037 20.9647C78.2241 20.7195 78.4445 20.7384 78.4045 20.7195H78.5648L78.6449 20.9081C78.5046 21.3796 78.5848 21.3796 78.5648 21.3984L78.7251 21.4362C79.0056 21.0967 79.1659 21.0212 79.1659 21.0212H79.3462L79.4665 21.3041C79.2861 21.7568 79.246 22.0208 79.246 22.0208C78.6449 22.4357 78.4045 22.2094 78.3644 22.2848L78.164 22.1905C77.9236 21.6813 78.2642 21.4927 78.2442 21.3984V21.2287C78.0037 20.8892 78.0037 21.0024 78.0037 20.9647Z" fill="#2D73B5"/>
<path d="M78.0037 20.9647C78.2241 20.7195 78.4445 20.7384 78.4045 20.7195H78.5648L78.6449 20.9081C78.5046 21.3796 78.5848 21.3796 78.5648 21.3984L78.7251 21.4362C79.0056 21.0967 79.1659 21.0212 79.1659 21.0212H79.3462L79.4665 21.3041C79.2861 21.7568 79.246 22.0208 79.246 22.0208C78.6449 22.4357 78.4045 22.2094 78.3644 22.2848L78.164 22.1905C77.9236 21.6813 78.2642 21.4927 78.2442 21.3984V21.2287C78.0037 20.8892 78.0037 21.0024 78.0037 20.9647Z" stroke="white" stroke-width="1.15034" stroke-linecap="round" stroke-linejoin="round"/>
<path d="M67.5039 26.7547C67.4237 27.0376 67.5039 27.0376 67.5039 27.0376C67.8645 26.5472 68.105 26.3964 68.0449 26.4341C67.8846 28.0937 68.0048 27.4714 67.6441 28.2446L67.7844 28.7538C67.1632 29.0933 67.1632 29.0178 67.1432 29.0556C66.482 30.1494 66.4018 29.9231 66.4018 30.0174V30.1871C66.2816 30.338 66.3417 30.338 66.3216 30.3946H66.2014C66.6022 28.5652 66.2816 25.3025 68.0649 25.1328C68.0449 26.6415 67.7443 26.4907 67.8044 26.6415L67.6441 26.6793L67.5439 26.7735L67.5039 26.7547Z" fill="#2D73B5"/>
<path d="M67.5039 26.7547C67.4237 27.0376 67.5039 27.0376 67.5039 27.0376C67.8645 26.5472 68.105 26.3964 68.0449 26.4341C67.8846 28.0937 68.0048 27.4714 67.6441 28.2446L67.7844 28.7538C67.1632 29.0933 67.1632 29.0178 67.1432 29.0556C66.482 30.1494 66.4018 29.9231 66.4018 30.0174V30.1871C66.2816 30.338 66.3417 30.338 66.3216 30.3946H66.2014C66.6022 28.5652 66.2816 25.3025 68.0649 25.1328C68.0449 26.6415 67.7443 26.4907 67.8044 26.6415L67.6441 26.6793L67.5439 26.7735L67.5039 26.7547Z" stroke="white" stroke-width="1.15034" stroke-linecap="round" stroke-linejoin="round"/>
<path d="M59.5489 4.51917C60.1099 4.65119 59.8094 5.12268 59.8695 5.14154C60.2101 4.51918 60.0899 4.59462 60.15 4.3683L59.9296 4.23629C60.0097 3.82138 60.2302 3.78366 60.2101 3.7648L60.6309 3.95339C60.9315 3.78365 60.9716 3.72708 61.0116 3.72708C61.4525 3.78366 61.733 4.1797 61.7129 4.14198C61.7731 4.61347 61.5326 4.80206 61.6128 4.74549H61.5126C61.3523 4.48145 61.0918 4.46259 61.0718 4.44373C61.0718 4.78321 61.4124 4.80207 61.4124 4.83979C60.9515 5.17926 60.7511 5.55645 60.4305 5.349L60.3905 5.68846L60.13 5.7639L59.7893 5.66961C58.9478 5.21698 59.5689 4.67005 59.5689 4.51917H59.5489Z" fill="#2D73B5"/>
<path d="M59.5489 4.51917C60.1099 4.65119 59.8094 5.12268 59.8695 5.14154C60.2101 4.51918 60.0899 4.59462 60.15 4.3683L59.9296 4.23629C60.0097 3.82138 60.2302 3.78366 60.2101 3.7648L60.6309 3.95339C60.9315 3.78365 60.9716 3.72708 61.0116 3.72708C61.4525 3.78366 61.733 4.1797 61.7129 4.14198C61.7731 4.61347 61.5326 4.80206 61.6128 4.74549H61.5126C61.3523 4.48145 61.0918 4.46259 61.0718 4.44373C61.0718 4.78321 61.4124 4.80207 61.4124 4.83979C60.9515 5.17926 60.7511 5.55645 60.4305 5.349L60.3905 5.68846L60.13 5.7639L59.7893 5.66961C58.9478 5.21698 59.5689 4.67005 59.5689 4.51917H59.5489Z" stroke="white" stroke-width="1.15034" stroke-linecap="round" stroke-linejoin="round"/>
</svg>
