<svg width="146" height="150" viewBox="0 0 146 150" fill="none" xmlns="http://www.w3.org/2000/svg">
<path d="M126.081 67.4383C124.682 68.0589 123.723 68.9617 123.483 69.3378C123.084 69.4507 123.124 69.5823 123.064 69.6575H122.944C122.105 68.0401 125.182 67.2314 124.802 67.0621V66.9493C124.602 66.9305 124.642 66.9117 124.582 66.874C124.582 66.686 124.722 66.6484 124.682 66.6484C124.722 66.7048 124.722 66.686 124.722 66.7048C124.782 66.7424 124.802 66.7424 124.802 66.7424C124.762 66.1218 124.323 65.9525 124.362 65.802L124.582 65.6892C125.442 66.0465 125.262 66.0089 125.541 66.1782L125.661 66.4791C126.121 67.2314 126.001 67.1186 126.081 67.4195V67.4383Z" fill="#2D73B5"/>
<path d="M126.081 67.4383C124.682 68.0589 123.723 68.9617 123.483 69.3378C123.084 69.4507 123.124 69.5823 123.064 69.6575H122.944C122.105 68.0401 125.182 67.2314 124.802 67.0621V66.9493C124.602 66.9305 124.642 66.9117 124.582 66.874C124.582 66.686 124.722 66.6484 124.682 66.6484C124.722 66.7048 124.722 66.686 124.722 66.7048C124.782 66.7424 124.802 66.7424 124.802 66.7424C124.762 66.1218 124.323 65.9525 124.362 65.802L124.582 65.6892C125.442 66.0465 125.262 66.0089 125.541 66.1782L125.661 66.4791C126.121 67.2314 126.001 67.1186 126.081 67.4195V67.4383Z" stroke="white" stroke-width="1.15034" stroke-linecap="round" stroke-linejoin="round"/>
<path d="M145.424 44.324C141.727 51.057 138.41 57.6396 134.533 62.2098C130.537 66.0841 130.737 66.8364 127.3 67.9648L126.94 67.8896L126.86 67.7015C127.62 66.3098 127.18 66.7612 127.5 66.4038L127.68 66.3662L127.819 66.6671C127.759 66.0277 127.56 65.9713 127.6 65.8584L127.839 65.407C127.68 65.0685 127.62 65.1437 127.58 65.0685C127.58 64.7864 127.34 64.73 127.38 64.6924C127.52 63.752 127.2 63.3382 127.3 63.4699C126.62 63.5827 126.341 63.169 126.261 63.1502L125.761 63.3194L125.442 63.1502C125.042 62.4167 125.122 62.1346 125.082 62.191L124.962 62.1157C124.422 62.1345 124.382 61.7772 124.362 61.8148C124.362 61.4199 124.442 61.1566 124.422 61.1754H124.323C123.583 62.2474 124.043 62.379 123.863 62.7928C123.383 63.1501 123.483 63.5451 123.483 63.4887L123.683 63.6768C122.824 65.219 123.164 64.5983 122.484 65.219H122.324C121.485 64.8428 121.365 63.2818 121.425 63.1878C121.805 62.7552 121.985 62.7364 121.945 62.7176L121.725 62.4167H121.625L121.705 62.6612C121.105 63.0373 121.065 63.3382 120.965 63.5827L120.766 63.658C121.245 64.4103 121.105 64.3914 121.525 64.5419L121.625 64.6924C121.425 65.407 122.224 65.4823 122.264 65.6327C122.564 65.3694 122.524 65.4258 122.644 65.3506H122.744C122.884 65.6327 122.924 65.6891 122.964 65.7268C123.403 65.4258 123.823 65.7268 123.903 65.7268C123.283 67.1185 122.664 68.6231 121.305 68.6983C120.486 69.7327 123.084 69.808 122.604 69.8268L122.544 69.9772C120.706 70.6543 120.066 71.8768 120.026 72.5915C120.326 73.1933 120.226 73.0804 120.286 73.3061L120.126 73.419C119.467 72.7983 118.987 73.3249 118.947 73.2121C119.047 72.9112 118.947 72.7419 118.947 72.6855C118.268 74.3782 118.568 74.1337 118.628 74.7731C117.908 75.2245 118.328 76.541 118.248 76.4281L118.128 76.6539L117.748 76.7479V76.8419L118.208 76.8043L118.348 76.5974C118.128 75.2621 118.528 75.5254 118.628 75.1493L118.967 74.9988L119.367 75.1868C119.567 75.6758 119.607 75.7323 119.667 75.8639C119.906 77.4249 119.567 79.5125 119.866 80.3401L119.727 80.3965C118.628 80.2084 119.047 79.1176 118.288 78.8919C118.168 78.9295 118.188 78.8919 118.168 78.8919L118.088 78.4593C117.768 78.3089 117.389 78.4593 117.449 78.4029C117.149 78.7226 117.229 78.8355 117.189 78.8167L117.269 78.9295L117.708 78.6098C117.988 78.9107 117.708 79.08 117.708 79.1176C119.267 79.7382 118.548 80.152 119.027 80.3777L119.567 80.547L119.627 80.7162L119.547 80.8855L119.407 80.9607C118.588 80.9795 118.628 80.7538 118.488 80.7538L118.368 81.1676C118.528 81.6566 118.528 81.8447 118.548 81.807C119.647 82.1644 119.727 82.691 119.627 83.2364C119.926 83.6878 119.846 83.5937 119.866 83.857C118.887 84.1203 119.047 83.9135 118.927 83.9511L118.708 83.7066L118.448 83.9699V84.1203L118.608 84.3272C118.248 84.5717 118.408 84.9291 118.388 84.9479C118.648 85.2676 118.827 85.2112 118.847 85.2676L118.947 85.4745H119.047C118.548 84.6846 118.688 84.7974 118.588 84.4777C119.367 84.2144 120.386 83.8006 120.266 83.8195C120.206 83.4997 120.266 83.3869 120.226 83.3681C119.986 83.274 120.066 83.2176 120.026 83.2176C120.106 82.7286 120.166 82.785 120.126 82.691C120.006 82.6158 120.046 82.6158 120.026 82.597L120.086 82.5029C120.266 82.4277 120.326 82.4653 120.326 82.4465L120.366 82.3901C120.366 81.9575 119.926 82.0892 119.926 82.0139C120.026 81.8635 120.046 81.7882 120.046 81.807L119.787 81.8635L119.747 81.7318C119.946 81.0924 120.466 81.1488 120.606 81.0924L120.706 81.224C120.706 85.4181 119.786 85.4557 119.527 88.0511L119.627 88.258L119.507 88.4084C119.147 91.0039 118.268 93.336 118.807 94.4268L119.027 94.6337L119.067 94.8217C118.727 94.9158 118.807 94.9534 118.767 94.9534V95.1227L118.847 95.2167C119.187 95.1603 119.187 95.1603 119.247 95.1791C119.687 102.006 119.826 106.445 121.785 111.071C120.006 114.532 120.066 118.011 118.747 120.005C117.588 127.264 114.771 134.844 117.429 139.188C116.37 141.107 115.291 141.013 115.251 142.085C111.314 142.931 109.556 147.464 108.976 149.175C104.5 148.122 96.6071 137.759 95.9677 135.164C95.6879 135.239 95.508 135.427 95.3881 135.314C95.2083 134.844 95.9477 134.486 95.6479 134.317L95.568 134.28C94.9086 134.298 94.8287 134.881 94.7088 135.013C93.7096 133.452 95.4481 127.321 96.3073 126.681C103.101 128.242 96.9468 121.641 101.603 121.265C104.64 117.221 104.7 118.914 105.639 115.698C105.959 115.623 105.899 115.566 105.939 115.566C106.139 114.551 105.04 113.986 104.82 113.328C102.782 113.497 102.622 111.278 101.103 111.73L101.043 111.692C101.043 111.41 101.043 111.372 101.003 111.353C100.564 111.184 100.604 111.259 100.504 111.147C100.124 110.018 96.7469 110.658 96.3073 109.849C92.6905 109.416 89.0538 107.441 85.5369 109.962C84.258 109.209 83.179 109.36 82.9392 109.36C82.4396 107.291 82.4196 105.692 82.3397 105.58C79.3823 102.928 76.9845 101.028 75.3859 99.674C72.988 100.765 70.9698 101.235 69.4711 99.6176C63.2966 99.0722 60.1793 94.3516 55.7633 92.8282C48.4897 93.3548 39.2779 96.8718 44.0137 87.9947C42.1354 87.0919 40.297 86.9415 38.6584 86.9603C38.059 86.8098 37.4995 86.6029 37.2996 86.3772C37.0798 86.4337 37.0399 86.6029 36.9799 86.6406C33.3631 86.302 29.2268 89.9318 27.5483 90.6465C20.7343 96.1759 14.3999 98.3763 8.04556 101.762C8.62505 99.3543 10.0837 97.7933 8.84484 95.9878C14.9394 88.5401 0.692079 81.5814 5.82753 74.6415C8.40524 72.1025 8.52513 71.7451 6.38703 70.7859C6.74671 65.4258 9.92389 67.946 6.88659 65.6892C3.10993 64.1281 8.18541 60.4795 6.64678 59.9529C-3.50423 54.4423 14.6597 49.891 5.10816 50.0978C3.84928 47.3143 8.64503 48.3111 7.8857 46.4868C-5.62233 43.7033 3.28976 37.685 5.58772 35.8231C4.52866 34.5253 5.26802 34.7322 4.44874 34.3749C4.28889 34.2432 4.36882 34.2244 4.32886 34.2244C24.6309 15.7556 14.9994 47.0322 32.0643 32.0052C40.4169 31.7419 41.2961 29.8047 44.2335 25.2721C49.3889 13.6116 36.8001 16.1318 49.4488 12.0506C51.7468 16.4515 54.7641 11.1854 56.2029 14.0441C59.44 16.2446 61.9178 15.4171 64.6354 14.9657C64.8352 14.8341 64.7553 14.4955 64.7953 14.5143C66.6536 11.9941 70.5302 11.6744 72.0489 10.7905C74.9663 11.4487 77.2242 9.77486 76.3051 7.46156C79.3424 7.23587 81.4605 5.65606 82.2398 3.19229C86.4961 3.19229 86.8158 4.07624 89.2736 4.88496C90.2927 12.2763 95.0884 10.3955 91.9112 14.251C92.9903 14.2698 94.7687 15.0597 95.3482 14.251L95.528 13.7244C96.747 13.5928 97.1067 13.0097 97.1666 12.9157L97.4463 12.8217C98.2057 13.1978 98.4654 13.0097 98.6852 12.7276C99.0249 10.734 99.4845 8.96615 99.9241 8.53358C101.423 8.15743 101.143 9.15422 102.062 9.02257C105.1 7.72486 106.298 7.08542 105.499 4.94138C107.358 4.26431 107.957 4.48999 108.756 4.22669L108.896 4.03862C108.836 2.42119 108.616 2.51523 108.736 2.38358C112.113 1.57486 113.432 -0.155415 115.091 0.916604C115.73 1.59367 115.61 2.08266 115.67 1.96981C116.19 2.25192 116.05 2.55285 116.15 2.66569L116.29 2.72211C117.189 2.59046 117.049 2.87257 117.349 3.06064C120.026 3.53083 119.367 3.58724 120.146 4.32073C122.804 3.13587 124.702 5.75009 125.242 7.12302L125.541 7.17944L125.801 7.029C125.861 5.58083 126.281 5.07303 126.501 4.92257L127.06 4.7721L127.739 5.03541L128.039 5.44917C127.739 6.50238 127.14 6.70927 127.3 6.69046C127.739 7.25468 127.779 7.57441 127.779 7.49918C128.379 7.8001 128.838 7.98817 128.898 8.00697C129.997 7.85651 129.997 7.34871 130.297 7.31109C130.637 7.53678 130.697 7.68725 130.817 7.68725C130.937 8.30789 130.417 8.40193 130.397 8.60881L130.517 8.8345C130.817 12.69 132.655 14.1194 135.153 14.6272C135.153 15.2478 135.393 15.2666 135.393 15.3607C134.793 15.8496 134.593 16.5267 134.713 16.8652C135.133 17.1473 135.373 17.0157 135.413 17.1097L135.473 17.185C135.093 18.0125 135.093 18.0689 134.873 18.351C135.872 20.5139 135.892 20.89 136.811 21.0405L136.891 21.1345C144.405 41.3712 126.62 29.2029 132.375 36.5754C133.554 38.851 135.892 40.3368 135.493 42.3116C134.573 43.4024 136.532 43.4964 136.592 43.6845H136.692C136.891 43.5153 136.871 43.5905 136.891 43.5529C138.07 44.4933 139.109 45.8662 140.388 45.9978H140.528C140.968 45.6405 141.088 45.2267 141.108 45.2832C142.926 46.0543 143.346 45.0199 143.486 45.2267C144.545 45.3772 144.904 44.5497 145.164 44.3428L145.424 44.2676V44.324Z" fill="#2D73B5"/>
<path d="M145.424 44.324C141.727 51.057 138.41 57.6396 134.533 62.2098C130.537 66.0841 130.737 66.8364 127.3 67.9648L126.94 67.8896L126.86 67.7015C127.62 66.3098 127.18 66.7612 127.5 66.4038L127.68 66.3662L127.819 66.6671C127.759 66.0277 127.56 65.9713 127.6 65.8584L127.839 65.407C127.68 65.0685 127.62 65.1437 127.58 65.0685C127.58 64.7864 127.34 64.73 127.38 64.6924C127.52 63.752 127.2 63.3382 127.3 63.4699C126.62 63.5827 126.341 63.169 126.261 63.1502L125.761 63.3194L125.442 63.1502C125.042 62.4167 125.122 62.1346 125.082 62.191L124.962 62.1157C124.422 62.1345 124.382 61.7772 124.362 61.8148C124.362 61.4199 124.442 61.1566 124.422 61.1754H124.323C123.583 62.2474 124.043 62.379 123.863 62.7928C123.383 63.1501 123.483 63.5451 123.483 63.4887L123.683 63.6768C122.824 65.219 123.164 64.5983 122.484 65.219H122.324C121.485 64.8428 121.365 63.2818 121.425 63.1878C121.805 62.7552 121.985 62.7364 121.945 62.7176L121.725 62.4167H121.625L121.705 62.6612C121.105 63.0373 121.065 63.3382 120.965 63.5827L120.766 63.658C121.245 64.4103 121.105 64.3914 121.525 64.5419L121.625 64.6924C121.425 65.407 122.224 65.4823 122.264 65.6327C122.564 65.3694 122.524 65.4258 122.644 65.3506H122.744C122.884 65.6327 122.924 65.6891 122.964 65.7267C123.403 65.4258 123.823 65.7267 123.903 65.7267C123.283 67.1185 122.664 68.6231 121.305 68.6983C120.486 69.7327 123.084 69.808 122.604 69.8268L122.544 69.9772C120.706 70.6543 120.066 71.8768 120.026 72.5915C120.326 73.1933 120.226 73.0804 120.286 73.3061L120.126 73.419C119.467 72.7983 118.987 73.3249 118.947 73.2121C119.047 72.9112 118.947 72.7419 118.947 72.6855C118.268 74.3782 118.568 74.1337 118.628 74.7731C117.908 75.2245 118.328 76.541 118.248 76.4281L118.128 76.6538L117.748 76.7479V76.8419L118.208 76.8043L118.348 76.5974C118.128 75.2621 118.528 75.5254 118.628 75.1493L118.967 74.9988L119.367 75.1868C119.567 75.6758 119.607 75.7323 119.667 75.8639C119.906 77.4249 119.567 79.5126 119.866 80.3401L119.727 80.3965C118.628 80.2084 119.047 79.1176 118.288 78.8919C118.168 78.9295 118.188 78.8919 118.168 78.8919L118.088 78.4593C117.768 78.3089 117.389 78.4593 117.449 78.4029C117.149 78.7226 117.229 78.8355 117.189 78.8167L117.269 78.9295L117.708 78.6098C117.988 78.9107 117.708 79.08 117.708 79.1176C119.267 79.7383 118.548 80.152 119.027 80.3777L119.567 80.547L119.627 80.7162L119.547 80.8855L119.407 80.9607C118.588 80.9795 118.628 80.7538 118.488 80.7538L118.368 81.1676C118.528 81.6566 118.528 81.8447 118.548 81.807C119.647 82.1644 119.727 82.691 119.627 83.2364C119.926 83.6878 119.846 83.5937 119.866 83.857C118.887 84.1203 119.047 83.9135 118.927 83.9511L118.708 83.7066L118.448 83.9699V84.1203L118.608 84.3272C118.248 84.5717 118.408 84.9291 118.388 84.9479C118.648 85.2676 118.827 85.2112 118.847 85.2676L118.947 85.4745H119.047C118.548 84.6846 118.688 84.7974 118.588 84.4777C119.367 84.2144 120.386 83.8006 120.266 83.8194C120.206 83.4997 120.266 83.3869 120.226 83.3681C119.986 83.274 120.066 83.2176 120.026 83.2176C120.106 82.7286 120.166 82.785 120.126 82.691C120.006 82.6158 120.046 82.6158 120.026 82.597L120.086 82.5029C120.266 82.4277 120.326 82.4653 120.326 82.4465L120.366 82.3901C120.366 81.9575 119.926 82.0892 119.926 82.0139C120.026 81.8635 120.046 81.7882 120.046 81.807L119.787 81.8635L119.747 81.7318C119.946 81.0924 120.466 81.1488 120.606 81.0924L120.706 81.224C120.706 85.4181 119.787 85.4557 119.527 88.0511L119.627 88.258L119.507 88.4084C119.147 91.0039 118.268 93.336 118.807 94.4268L119.027 94.6337L119.067 94.8217C118.727 94.9158 118.807 94.9534 118.767 94.9534V95.1227L118.847 95.2167C119.187 95.1603 119.187 95.1603 119.247 95.1791C119.687 102.006 119.826 106.445 121.785 111.071C120.006 114.532 120.066 118.011 118.747 120.005C117.588 127.264 114.771 134.844 117.429 139.188C116.37 141.107 115.291 141.013 115.251 142.085C111.314 142.931 109.556 147.464 108.976 149.175C104.5 148.122 96.6071 137.759 95.9677 135.164C95.6879 135.239 95.508 135.427 95.3881 135.314C95.2083 134.844 95.9477 134.486 95.6479 134.317L95.568 134.28C94.9086 134.298 94.8287 134.881 94.7088 135.013C93.7096 133.452 95.4481 127.321 96.3073 126.681C103.101 128.242 96.9468 121.641 101.603 121.265C104.64 117.221 104.7 118.914 105.639 115.698C105.959 115.623 105.899 115.566 105.939 115.566C106.139 114.551 105.04 113.986 104.82 113.328C102.782 113.497 102.622 111.278 101.103 111.73L101.043 111.692C101.043 111.41 101.043 111.372 101.003 111.353C100.564 111.184 100.604 111.259 100.504 111.147C100.124 110.018 96.7469 110.658 96.3073 109.849C92.6905 109.416 89.0538 107.441 85.5369 109.962C84.258 109.209 83.1789 109.36 82.9392 109.36C82.4396 107.291 82.4196 105.692 82.3397 105.58C79.3823 102.928 76.9845 101.028 75.3859 99.674C72.988 100.765 70.9698 101.235 69.4711 99.6176C63.2966 99.0722 60.1793 94.3516 55.7633 92.8282C48.4897 93.3548 39.2779 96.8718 44.0137 87.9947C42.1354 87.0919 40.297 86.9415 38.6584 86.9603C38.059 86.8098 37.4995 86.6029 37.2996 86.3772C37.0798 86.4337 37.0399 86.6029 36.9799 86.6406C33.3631 86.302 29.2268 89.9318 27.5483 90.6465C20.7343 96.1759 14.3999 98.3763 8.04556 101.762C8.62505 99.3543 10.0837 97.7933 8.84484 95.9878C14.9394 88.5401 0.692079 81.5814 5.82753 74.6414C8.40524 72.1025 8.52513 71.7451 6.38703 70.7859C6.74671 65.4258 9.9239 67.946 6.88659 65.6892C3.10993 64.1281 8.18541 60.4795 6.64678 59.9529C-3.50423 54.4423 14.6597 49.891 5.10816 50.0978C3.84928 47.3143 8.64503 48.3111 7.8857 46.4868C-5.62233 43.7033 3.28976 37.685 5.58772 35.8231C4.52866 34.5253 5.26802 34.7322 4.44874 34.3749C4.28889 34.2432 4.36882 34.2244 4.32886 34.2244C24.6309 15.7556 14.9994 47.0322 32.0643 32.0052C40.4169 31.7419 41.2961 29.8047 44.2335 25.2721C49.3889 13.6116 36.8001 16.1318 49.4488 12.0506C51.7468 16.4515 54.7641 11.1854 56.2029 14.0441C59.44 16.2446 61.9178 15.4171 64.6354 14.9657C64.8352 14.8341 64.7553 14.4955 64.7953 14.5143C66.6536 11.9941 70.5302 11.6744 72.0488 10.7905C74.9663 11.4487 77.2242 9.77486 76.3051 7.46156C79.3424 7.23587 81.4605 5.65606 82.2398 3.19229C86.4961 3.19229 86.8158 4.07624 89.2736 4.88496C90.2927 12.2763 95.0884 10.3955 91.9113 14.251C92.9903 14.2698 94.7687 15.0597 95.3482 14.251L95.528 13.7244C96.747 13.5928 97.1067 13.0097 97.1666 12.9157L97.4463 12.8217C98.2057 13.1978 98.4654 13.0097 98.6852 12.7276C99.0249 10.734 99.4845 8.96615 99.9241 8.53358C101.423 8.15743 101.143 9.15422 102.062 9.02257C105.1 7.72486 106.298 7.08542 105.499 4.94138C107.358 4.26431 107.957 4.48999 108.756 4.22669L108.896 4.03862C108.836 2.42119 108.616 2.51523 108.736 2.38358C112.113 1.57486 113.432 -0.155415 115.091 0.916604C115.73 1.59367 115.61 2.08266 115.67 1.96981C116.19 2.25192 116.05 2.55285 116.15 2.66569L116.29 2.72211C117.189 2.59046 117.049 2.87257 117.349 3.06064C120.026 3.53083 119.367 3.58724 120.146 4.32073C122.804 3.13587 124.702 5.75009 125.242 7.12302L125.541 7.17944L125.801 7.029C125.861 5.58083 126.281 5.07303 126.501 4.92257L127.06 4.7721L127.739 5.03541L128.039 5.44917C127.739 6.50238 127.14 6.70927 127.3 6.69046C127.739 7.25468 127.779 7.57441 127.779 7.49918C128.379 7.8001 128.838 7.98817 128.898 8.00697C129.997 7.85651 129.997 7.34871 130.297 7.3111C130.637 7.53678 130.697 7.68725 130.817 7.68725C130.937 8.30789 130.417 8.40193 130.397 8.60881L130.517 8.8345C130.817 12.69 132.655 14.1194 135.153 14.6272C135.153 15.2478 135.393 15.2666 135.393 15.3607C134.793 15.8496 134.593 16.5267 134.713 16.8652C135.133 17.1473 135.373 17.0157 135.413 17.1097L135.473 17.185C135.093 18.0125 135.093 18.0689 134.873 18.351C135.872 20.5139 135.892 20.89 136.811 21.0405L136.891 21.1345C144.405 41.3712 126.62 29.2029 132.375 36.5754C133.554 38.851 135.892 40.3368 135.493 42.3116C134.573 43.4024 136.532 43.4964 136.592 43.6845H136.692C136.891 43.5153 136.871 43.5905 136.891 43.5529C138.07 44.4933 139.109 45.8662 140.388 45.9978H140.528C140.968 45.6405 141.088 45.2267 141.108 45.2832C142.926 46.0543 143.346 45.0199 143.486 45.2267C144.545 45.3772 144.904 44.5497 145.164 44.3428L145.424 44.2676V44.324Z" stroke="white" stroke-width="1.15034" stroke-linecap="round" stroke-linejoin="round"/>
<path d="M120.086 75.262V75.1867C118.887 74.6413 118.967 74.6789 118.847 74.5849L119.047 74.3404C118.727 73.7009 119.007 73.8514 118.907 73.795L119.047 73.5881C119.806 73.5505 120.766 73.6821 120.886 73.4564L121.025 73.5317C121.225 74.773 121.185 74.378 121.125 74.7918L120.866 74.9799L120.965 75.1491C120.646 75.751 120.526 76.0707 120.606 76.2587L120.846 76.4468L120.886 76.6161L121.045 76.7289C120.985 76.9734 121.045 77.0863 121.025 77.0487L121.185 77.1803L121.225 77.312L121.085 77.801H120.905L120.806 77.7257V77.5565C120.286 77.5565 120.386 77.5941 120.326 77.5941C119.587 76.3152 119.747 75.939 119.946 75.3184L120.026 75.2432L120.086 75.262Z" fill="#2D73B5"/>
<path d="M120.086 75.262V75.1867C118.887 74.6413 118.967 74.6789 118.847 74.5849L119.047 74.3404C118.727 73.7009 119.007 73.8514 118.907 73.795L119.047 73.5881C119.806 73.5505 120.766 73.6821 120.886 73.4564L121.025 73.5317C121.225 74.773 121.185 74.378 121.125 74.7918L120.866 74.9799L120.965 75.1491C120.646 75.751 120.526 76.0707 120.606 76.2587L120.846 76.4468L120.886 76.6161L121.045 76.7289C120.985 76.9734 121.045 77.0863 121.025 77.0487L121.185 77.1803L121.225 77.312L121.085 77.801H120.905L120.806 77.7257V77.5565C120.286 77.5565 120.386 77.5941 120.326 77.5941C119.587 76.3152 119.747 75.939 119.946 75.3184L120.026 75.2432L120.086 75.262Z" stroke="white" stroke-width="1.15034" stroke-linecap="round" stroke-linejoin="round"/>
</svg>
