<svg width="95" height="100" viewBox="0 0 95 100" fill="none" xmlns="http://www.w3.org/2000/svg">
<path d="M92.7464 59.105C91.8861 58.54 88.4247 59.0862 87.2443 56.7322C87.2443 56.6569 87.2242 56.864 87.1442 56.2049L86.9642 55.979C86.9642 55.979 86.8641 56.0543 86.3039 55.9978C86.2639 55.9601 86.2839 55.979 86.0838 55.6212C84.9233 54.6419 83.8629 53.1731 81.562 52.5517V52.4387C81.7021 52.1939 81.7221 52.288 82.1223 51.5159V51.3276L82.0622 51.3088C81.8622 51.4594 81.422 50.9133 80.4816 51.1581C80.1415 49.2185 80.8417 47.7873 80.6017 45.0567L80.2615 44.6989C79.6213 44.6048 78.961 44.4353 77.8806 43.3619C77.9206 43.2301 77.8406 43.2866 78.0607 42.9853C78.0006 42.7216 77.9406 41.0645 76.9602 40.1982C76.9602 40.1794 77.0002 40.1982 77.0603 39.8969C76.42 38.767 76.0198 34.5488 77.8606 32.402L77.9206 32.3079C77.9206 32.3079 77.9006 32.2514 77.7605 31.9501L77.8206 31.9124L78.0206 31.8747L78.0607 31.8182C78.1007 31.6864 77.8006 31.7241 77.8406 31.291C78.2807 30.7825 78.2407 30.5754 79.001 28.9935C79.061 28.937 79.1411 29.0689 79.3412 28.8805V28.7864C79.2211 28.3909 79.2011 28.7299 79.3011 27.7695L79.021 27.8636C79.0811 27.5623 78.981 27.7695 79.3412 26.9974C79.3212 26.9032 79.3011 26.6773 78.6809 25.9993V25.5662C79.5012 25.3026 81.422 23.5889 82.8625 22.3084C82.9626 21.9129 82.4424 20.7642 83.8629 20.4629L83.943 20.3876C83.943 20.3876 84.003 20.3876 83.943 20.1239C83.7629 19.9921 83.903 19.898 82.9826 19.8603L82.8825 19.8038V19.4272C82.6024 19.107 82.7625 19.1824 81.8221 18.1843C81.7821 18.1843 81.8822 17.883 82.0822 17.3745C82.0822 17.2051 79.7413 16.7343 80.8418 15.4537C80.8418 15.4161 80.8418 15.4161 80.6217 15.1148C80.4216 15.0771 81.382 14.6816 81.442 13.7212L81.382 13.6648C80.5616 13.3446 81.1219 13.5706 79.5012 12.4595L79.3812 12.5914C79.3812 12.5914 79.041 12.5725 78.6009 12.516L78.5408 12.4219L78.5809 12.2336L78.5208 12.1771C78.5208 12.1771 78.4008 12.1771 77.8606 12.3277C77.7805 12.3654 77.5204 11.631 76.9202 11.8946C76.9002 11.8946 76.9602 11.8946 76.7601 12.1206C76.6201 12.0641 76.1599 11.9699 75.4796 12.0452C75.4396 12.1017 75.4996 11.518 74.9594 11.5745C74.9594 11.6121 74.8794 11.5745 74.8394 11.8569L74.7393 11.9134C74.5193 11.8569 73.739 11.9134 73.959 10.9719L74.3792 10.5576C76.6201 9.5595 75.9598 6.47115 76.7801 3.2698C76.0799 2.72369 75.3196 3.17565 74.4392 0.934707L73.739 1.17952C73.739 1.17952 73.5789 1.27367 73.3588 0.633404L73.1587 0.57691C72.9386 0.652235 72.3584 0.57691 71.278 1.66913C71.1379 1.74446 71.0779 1.59381 69.9174 1.46199C69.8174 1.46199 69.8974 1.57498 69.4573 1.9516H69.3372C68.2768 1.59381 67.1764 1.25484 64.8555 1.53731C66.196 1.66913 66.5561 2.72369 67.1964 5.28477C66.8363 5.92504 65.7958 8.35429 62.3945 8.86274C61.8743 11.1413 59.8135 12.7797 55.7719 11.6498L55.6518 11.8193C55.5318 11.8193 55.992 11.9511 56.132 12.7232C55.3717 13.5329 54.8115 12.7232 52.8307 13.4011C52.3506 13.4764 52.9508 15.3407 51.7903 15.6797C46.7483 15.6044 44.3474 19.1635 37.6448 16.7719C37.4047 17.2239 37.6848 17.2616 36.4843 17.5064L36.3443 17.6758C36.2442 18.0713 36.4443 17.9395 36.1242 18.8057C36.1842 19.1824 34.5236 18.2785 32.8829 19.0505C31.8425 21.0278 34.5435 23.2311 32.4027 25.3214C32.3627 25.3214 32.4027 25.3591 32.0026 25.3026C28.041 27.5435 27.6809 20.4629 22.4788 19.8415C22.3588 19.9356 22.1587 20.1616 21.7986 21.3291L21.1383 21.5175C19.4376 20.4064 16.0363 19.1824 13.4753 21.122H12.815C11.3945 18.2785 11.5345 16.0187 4.0916 17.6005L3.79148 17.4875C3.19124 16.9226 3.71144 15.9434 1.61061 15.0959L0.890326 15.1524C-0.130074 17.2992 1.55059 15.5667 2.93114 19.4083C4.89191 22.9863 11.5745 21.574 9.83384 31.7053C10.5741 34.4735 14.9158 37.3923 12.6349 41.9684L12.875 42.1002C15.396 42.4015 17.937 42.4392 23.4192 42.8346L23.4792 43.0229C23.1591 43.2866 23.6193 43.9457 23.0791 45.4522C23.5792 46.8081 25.9002 46.2431 27.1206 46.5633C26.9406 50.6873 37.5247 45.5464 32.5028 54.5854C35.4639 58.0881 35.9641 60.2725 37.9049 66.5999C35.2838 68.3512 37.8649 73.963 35.724 78.3884C35.604 79.6124 44.7276 89.5742 37.1246 88.7457C37.4647 93.0204 44.1873 92.7568 47.0885 98.9146C47.7888 99.0653 47.3086 99.0088 48.7291 98.5568C49.3494 99.1218 49.7495 99.0464 51.2501 99.4231C49.2493 93.5853 57.0324 77.7104 64.4953 90.4781C64.4153 91.495 68.4969 91.2879 68.817 89.8944C76.46 86.4671 64.6554 91.4386 75.6997 75.4507C77.4604 74.6221 91.0257 75.3189 94.3671 75.1494L92.7664 59.105H92.7464Z" stroke="white" stroke-width="1.15034" stroke-linecap="round" stroke-linejoin="round"/>
</svg>
