<svg width="63" height="63" viewBox="0 0 63 63" fill="none" xmlns="http://www.w3.org/2000/svg">
<path d="M47.5164 29.739C47.1462 25.8405 44.2427 22.926 41.3297 20.6284C38.9556 18.7557 36.5034 17.2172 33.8201 15.8303C27.9317 12.7861 24.8064 6.41669 23.4912 0.217499C23.4735 0.137321 23.4772 0.0779687 23.5022 0.0394418C23.5365 -0.0126216 23.5714 -0.0131419 23.6068 0.0378802C25.15 2.25734 27.5459 3.6818 30.1949 4.5221C34.4417 5.86846 38.865 6.61661 42.7979 8.81889C48.5223 12.0224 52.1459 17.7701 53.2408 24.1599C53.2658 24.3057 53.3048 24.3093 53.3579 24.1708C53.7531 23.1353 54.5637 22.32 55.4462 21.3844C56.6067 20.1536 58.0827 19.5929 59.7289 20.3067C60.5171 20.6482 61.1216 21.1418 61.5423 21.7874C62.0124 22.5074 62.2951 22.9072 62.8871 23.3727C63.0578 23.507 63.0349 23.5622 62.8183 23.5382C61.7922 23.4211 60.2693 23.7132 59.6055 24.5285C58.7933 25.525 59.4243 26.6417 59.5524 27.8163C59.946 31.4196 57.8171 35.0557 54.7121 36.7863C48.5301 40.2334 41.8623 36.6145 37.3672 32.2443C37.3526 32.2297 37.3521 32.2146 37.3656 32.199L37.3672 32.1974C37.3807 32.1818 37.3958 32.1802 37.4125 32.1927C38.7947 33.2345 40.2536 34.2029 41.8514 34.7902C44.8534 35.8913 46.9697 34.6184 47.5461 31.4758C47.5495 31.4571 47.5476 31.4377 47.5406 31.42C47.5337 31.4022 47.522 31.3867 47.5068 31.3752C47.4916 31.3637 47.4734 31.3567 47.4545 31.3549C47.4355 31.3531 47.4164 31.3565 47.3993 31.3649C42.7916 33.6359 39.3227 31.468 36.6596 27.7273C36.14 26.9963 35.7662 26.5022 35.5382 26.245C33.6306 24.0906 31.3054 22.5673 28.5627 21.6749C28.443 21.6353 28.444 21.5989 28.5659 21.5656C32.0848 20.5956 35.9864 20.7643 39.2571 22.509C42.2778 24.1224 45.197 27.0416 47.3805 29.7937C47.4878 29.929 47.5331 29.9108 47.5164 29.739Z" fill="#F5F7FA"/>
<path d="M31.8239 40.5317C31.4178 39.9132 30.248 40.5676 30.968 41.2627C31.271 41.5547 31.6568 41.7875 31.8802 42.1483C32.4784 43.1088 31.3694 43.8086 30.5026 43.4525C30.4505 43.4316 30.4151 43.3947 30.3963 43.3416C30.3484 43.2072 30.3386 43.0667 30.3667 42.9198C30.3896 42.8043 30.4156 42.8032 30.4448 42.9167C30.5916 43.4774 31.3116 43.5462 31.6068 43.1526C32.3019 42.2248 30.1386 41.814 30.5197 40.6707C30.6931 40.1459 31.3257 40.0553 31.7896 40.2053C31.8375 40.2209 31.8765 40.2485 31.9067 40.288C31.9713 40.3713 32.0015 40.438 31.9973 40.488C31.9806 40.6671 31.9228 40.6816 31.8239 40.5317Z" fill="#F5F7FA"/>
<path d="M1.00459 42.4514C1.04364 43.3495 2.13853 43.7681 2.66021 43.0215C3.01163 42.5186 2.88356 41.1628 2.86169 40.5521C2.85961 40.498 2.84347 40.4485 2.81327 40.4037L2.73986 40.2944C2.7341 40.2855 2.73081 40.2752 2.73036 40.2646C2.72991 40.254 2.73232 40.2436 2.73733 40.2344C2.74233 40.2252 2.74973 40.2176 2.75872 40.2125C2.76771 40.2074 2.77793 40.2049 2.78828 40.2054L3.22874 40.221C3.23816 40.2212 3.24736 40.2238 3.25547 40.2287C3.26359 40.2335 3.27036 40.2403 3.27518 40.2485C3.28 40.2568 3.28271 40.2662 3.28305 40.2758C3.2834 40.2855 3.28137 40.2951 3.27716 40.3038C3.21312 40.4334 3.16314 40.5224 3.16626 40.6739C3.19438 41.8094 3.42241 43.7743 1.62154 43.5447C0.340782 43.3807 0.582877 41.722 0.603182 40.5818C0.604223 40.5193 0.554242 40.422 0.453239 40.2897C0.413671 40.2366 0.426686 40.2106 0.492286 40.2116L1.03739 40.2194C1.10299 40.2205 1.12069 40.2502 1.09049 40.3085C0.860895 40.7599 0.982724 41.9235 1.00459 42.4514Z" fill="#F5F7FA"/>
<path d="M6.5149 40.9627C6.42118 40.8898 6.37485 40.9127 6.37589 41.0314C6.38526 41.6801 6.40608 42.3236 6.43836 42.9619C6.44982 43.1848 6.5149 43.3519 6.6336 43.4633C6.65859 43.4873 6.6539 43.4987 6.61954 43.4977L6.06663 43.4821C6.01665 43.481 6.00467 43.4592 6.03071 43.4165C6.09162 43.3134 6.15097 43.2368 6.15097 43.1088C6.14993 42.1414 6.15462 41.2064 6.16503 40.3036C6.16711 40.1339 6.22542 40.112 6.33996 40.238L8.60784 42.7355C8.71301 42.851 8.76664 42.8307 8.76872 42.6746C8.77913 42.0331 8.7734 41.3735 8.75154 40.6956C8.74529 40.5238 8.67917 40.3864 8.55318 40.2833C8.50736 40.2458 8.51413 40.226 8.57348 40.2239L9.04518 40.2083C9.10557 40.2062 9.12327 40.2323 9.09828 40.2864C9.05142 40.3895 8.99676 40.4613 8.99676 40.5785C8.99884 41.5312 8.99207 42.4887 8.97645 43.4508C8.97647 43.4587 8.9744 43.4664 8.97043 43.4731C8.96647 43.4799 8.96074 43.4855 8.95382 43.4895C8.9469 43.4934 8.93901 43.4955 8.93094 43.4956C8.92286 43.4956 8.91486 43.4937 8.90773 43.4899C8.86087 43.4649 8.81558 43.43 8.77184 43.3852C8.17103 42.7709 7.57751 42.1498 6.99128 41.5219C6.84602 41.3672 6.69451 41.1033 6.5149 40.9627Z" fill="#F5F7FA"/>
<path d="M12.7376 43.3258L12.8298 43.4195C12.8777 43.4685 12.8673 43.4929 12.7986 43.4929L12.2004 43.4882C12.1472 43.4882 12.129 43.4633 12.1457 43.4133C12.4112 42.6354 12.2847 41.4953 12.2722 40.6643C12.2691 40.4972 12.2066 40.4129 12.1238 40.2754C12.0967 40.2306 12.1098 40.2083 12.1629 40.2083L12.7189 40.2145C12.7783 40.2155 12.7944 40.2426 12.7673 40.2957C12.7064 40.4175 12.6408 40.5035 12.6408 40.644C12.6335 41.4802 12.634 42.2981 12.6424 43.0978C12.6434 43.183 12.6775 43.2647 12.7376 43.3258Z" fill="#F5F7FA"/>
<path d="M16.8813 42.7495C16.9437 42.9254 17.0093 42.9265 17.0781 42.7526C17.2905 42.2153 17.9777 40.7721 17.8887 40.2739C17.8803 40.2301 17.898 40.2083 17.9418 40.2083L18.3588 40.2114C18.3696 40.2117 18.38 40.2152 18.3889 40.2213C18.3978 40.2275 18.4046 40.236 18.4087 40.2458C18.4127 40.2557 18.4136 40.2664 18.4114 40.2767C18.4092 40.287 18.404 40.2963 18.3963 40.3035C18.2276 40.4707 18.148 40.5847 18.0605 40.8111C17.7262 41.6796 17.3639 42.5568 16.9734 43.4429C16.937 43.5262 16.8813 43.5424 16.8063 43.4914C16.7813 43.4737 16.7558 43.4294 16.7297 43.3586C16.3934 42.4475 16.0456 41.54 15.6864 40.6362C15.6177 40.4613 15.5208 40.4019 15.3803 40.291C15.3147 40.24 15.3235 40.215 15.4068 40.2161L15.9988 40.2239C16.055 40.2249 16.0826 40.2535 16.0816 40.3098C16.0769 40.4254 16.0597 40.5035 16.1003 40.6143C16.3783 41.3651 16.6386 42.0768 16.8813 42.7495Z" fill="#F5F7FA"/>
<path d="M21.7247 41.8108C21.5581 41.8108 21.4748 41.8941 21.4748 42.0607L21.4732 42.9697C21.4732 43.1509 21.5596 43.2676 21.7325 43.3196C22.0834 43.4258 22.3697 43.3477 22.5915 43.0853C22.6394 43.0291 22.6629 43.0379 22.6618 43.1119C22.6576 43.4243 22.5046 43.5591 22.2026 43.5164C22.0381 43.4935 21.6487 43.4852 21.0343 43.4914C20.9822 43.4914 20.9666 43.4675 20.9875 43.4196C21.2748 42.7401 21.114 41.3766 21.0937 40.6191C21.0885 40.4577 21.0406 40.3458 20.95 40.2833C20.944 40.2788 20.9394 40.2725 20.937 40.2654C20.9346 40.2582 20.9344 40.2505 20.9365 40.2435C20.9386 40.2364 20.9428 40.2302 20.9486 40.2259C20.9544 40.2215 20.9614 40.2192 20.9687 40.2192L22.451 40.2224C22.4776 40.2224 22.5032 40.2328 22.5222 40.2515C22.5412 40.2702 22.5521 40.2957 22.5525 40.3223L22.5556 40.541C22.5566 40.6066 22.5311 40.6196 22.4791 40.58C22.2396 40.3989 21.9642 40.3348 21.6528 40.3879C21.531 40.4087 21.4701 40.4811 21.4701 40.605L21.4716 41.4703C21.4727 41.5859 21.531 41.6432 21.6466 41.6421L22.3947 41.6312C22.4489 41.6312 22.4759 41.6577 22.4759 41.7109L22.4791 41.9108C22.4801 41.9795 22.4494 41.9982 22.3869 41.967C22.1818 41.8639 21.961 41.8119 21.7247 41.8108Z" fill="#F5F7FA"/>
<path d="M25.9966 42.1732C25.9513 42.5902 25.8904 43.1884 26.1731 43.4352C26.2168 43.4737 26.2095 43.4925 26.1512 43.4914L25.514 43.4821C25.4661 43.481 25.4541 43.4597 25.4781 43.418C25.7858 42.8698 25.6327 41.3235 25.6202 40.6581C25.6171 40.5061 25.5697 40.3911 25.4781 40.313C25.4694 40.3053 25.4632 40.2952 25.4605 40.2839C25.4578 40.2726 25.4587 40.2608 25.4629 40.25C25.4672 40.2393 25.4747 40.2301 25.4844 40.2237C25.4941 40.2174 25.5055 40.2142 25.5171 40.2146C26.0435 40.2364 26.8682 40.0521 27.2539 40.5582C27.6382 41.0627 27.243 41.5281 26.9587 41.942C26.9427 41.9644 26.9341 41.9913 26.9341 42.0191C26.9341 42.0468 26.9427 42.0739 26.9587 42.0967C27.307 42.5949 27.7381 43.2665 28.3566 43.4211C28.4483 43.4441 28.4478 43.4649 28.3551 43.4836C27.0275 43.757 27.1321 41.9045 26.081 42.0842C26.0299 42.0925 26.0018 42.1222 25.9966 42.1732ZM25.9607 40.5488L25.9638 41.7796C25.9638 41.8054 25.9689 41.8309 25.9788 41.8547C25.9887 41.8785 26.0032 41.9 26.0215 41.9182C26.0398 41.9363 26.0615 41.9507 26.0854 41.9604C26.1093 41.9701 26.1348 41.975 26.1606 41.9748L26.373 41.9733C26.5563 41.9725 26.7318 41.8915 26.8609 41.748C26.9901 41.6045 27.0623 41.4103 27.0618 41.2079V41.1142C27.0616 41.0138 27.0434 40.9144 27.0083 40.8217C26.9732 40.7291 26.9219 40.6449 26.8574 40.5741C26.7928 40.5033 26.7163 40.4473 26.6321 40.4092C26.5479 40.371 26.4577 40.3516 26.3668 40.352L26.1544 40.3536C26.1029 40.354 26.0536 40.3747 26.0173 40.4113C25.981 40.4479 25.9607 40.4973 25.9607 40.5488Z" fill="#F5F7FA"/>
<path d="M34.8884 43.4775C35.1852 42.7137 35.0446 41.5517 35.04 40.7286C35.04 40.5474 34.9837 40.4474 34.9087 40.2881C34.9045 40.2792 34.9026 40.2694 34.9032 40.2596C34.9038 40.2497 34.9069 40.2402 34.9122 40.2319C34.9175 40.2236 34.9249 40.2168 34.9336 40.2122C34.9423 40.2075 34.952 40.2052 34.9619 40.2053L35.4788 40.2225C35.5236 40.2236 35.5361 40.2444 35.5163 40.285C35.4539 40.4146 35.4008 40.5286 35.3992 40.677C35.3961 41.4403 35.3976 42.203 35.4039 42.9652C35.4054 43.1714 35.4523 43.2823 35.5913 43.4213C35.6382 43.4692 35.6283 43.4926 35.5616 43.4916L34.8931 43.4853C34.8924 43.4854 34.8916 43.4853 34.8909 43.4849C34.8902 43.4846 34.8896 43.484 34.8891 43.4832C34.8887 43.4824 34.8884 43.4815 34.8882 43.4805C34.8881 43.4795 34.8882 43.4785 34.8884 43.4775Z" fill="#F5F7FA"/>
<path d="M38.787 43.0495C38.8296 42.2165 38.8302 41.3819 38.7885 40.5457C38.7864 40.4947 38.7703 40.4489 38.7401 40.4083L38.6542 40.288C38.6146 40.2339 38.6282 40.2073 38.6948 40.2084C39.3055 40.2193 40.0724 40.1537 40.5909 40.3052C41.778 40.6504 42.0326 41.9921 41.3625 42.8995C40.7159 43.7742 39.6741 43.4821 38.7182 43.4915C38.6662 43.4925 38.6505 43.4696 38.6714 43.4228C38.7292 43.2931 38.7791 43.1963 38.787 43.0495ZM39.1509 40.7004L39.179 43.0948C39.1794 43.1361 39.188 43.177 39.2042 43.215C39.2205 43.2531 39.2441 43.2875 39.2737 43.3164C39.3033 43.3453 39.3383 43.368 39.3768 43.3833C39.4152 43.3986 39.4563 43.4062 39.4976 43.4056L39.9146 43.4009C40.1055 43.3986 40.2941 43.3594 40.4695 43.2855C40.645 43.2115 40.8039 43.1043 40.9372 42.97C41.0705 42.8357 41.1756 42.6769 41.2464 42.5026C41.3173 42.3284 41.3525 42.1422 41.35 41.9546L41.3469 41.7859C41.342 41.4075 41.1845 41.0465 40.9089 40.7824C40.6333 40.5182 40.2622 40.3724 39.8772 40.3771L39.4601 40.3818C39.4189 40.3824 39.3782 40.3911 39.3403 40.4074C39.3025 40.4238 39.2682 40.4474 39.2395 40.477C39.2108 40.5066 39.1882 40.5415 39.173 40.5799C39.1578 40.6182 39.1503 40.6591 39.1509 40.7004Z" fill="#F5F7FA"/>
<path d="M44.847 42.1859C44.5929 42.5482 44.4664 42.9517 44.4675 43.3963C44.4675 43.4463 44.4425 43.4734 44.3925 43.4775L43.913 43.5103C43.8286 43.5156 43.8214 43.4947 43.8911 43.4479C44.0577 43.3333 44.166 43.2094 44.216 43.0761C44.5638 42.1327 44.9048 41.2039 45.239 40.2897C45.2942 40.1377 45.3505 40.1372 45.4077 40.2881C45.7243 41.1368 46.059 42.0156 46.412 42.9246C46.4912 43.1298 46.6177 43.2984 46.7916 43.4307C46.8759 43.4942 46.8655 43.5228 46.7603 43.5166L46.3105 43.4885C46.2895 43.4871 46.2692 43.4796 46.252 43.4669C46.2349 43.4542 46.2216 43.4367 46.2137 43.4166L45.7576 42.2233C45.7511 42.2068 45.7412 42.1918 45.7284 42.1795C45.7157 42.1672 45.7004 42.1578 45.6838 42.152C45.6671 42.1462 45.6494 42.1441 45.632 42.1459C45.6145 42.1477 45.5977 42.1533 45.5827 42.1624C45.3786 42.2843 45.1766 42.2832 44.9766 42.1593C44.9256 42.127 44.8824 42.1359 44.847 42.1859ZM44.8205 41.9422C44.8154 41.9551 44.8136 41.969 44.8151 41.9827C44.8166 41.9964 44.8213 42.0096 44.829 42.0211C44.8367 42.0326 44.847 42.0421 44.8591 42.0487C44.8712 42.0554 44.8847 42.059 44.8986 42.0593L45.592 42.0843C45.6056 42.0847 45.6191 42.0818 45.6314 42.0759C45.6436 42.07 45.6543 42.0613 45.6626 42.0505C45.6708 42.0396 45.6764 42.027 45.6788 42.0136C45.6812 42.0002 45.6803 41.9864 45.6764 41.9734L45.3656 40.9769C45.3599 40.9604 45.3493 40.9459 45.3353 40.9355C45.3212 40.9251 45.3042 40.9193 45.2867 40.9188C45.2693 40.9183 45.252 40.9231 45.2373 40.9327C45.2227 40.9422 45.2113 40.956 45.2047 40.9723L44.8205 41.9422Z" fill="#F5F7FA"/>
<path d="M49.4281 40.4193L49.3235 40.2834C49.2922 40.2407 49.3027 40.2189 49.3547 40.2178C50.7011 40.1897 52.4051 40.0523 52.4207 41.8766C52.4249 42.3139 52.2864 42.6789 52.0053 42.9715C51.254 43.754 50.3465 43.4963 49.3922 43.4869C49.3412 43.4869 49.3271 43.464 49.35 43.4182C49.425 43.2635 49.4875 43.123 49.489 42.9418C49.4995 42.1556 49.5005 41.3783 49.4922 40.6099C49.4912 40.5408 49.4688 40.4742 49.4281 40.4193ZM49.8561 40.6583L49.8655 43.1198C49.8655 43.1566 49.8727 43.1929 49.8867 43.2268C49.9008 43.2608 49.9214 43.2916 49.9473 43.3175C49.9733 43.3435 50.0041 43.3641 50.0381 43.3781C50.072 43.3922 50.1083 43.3994 50.145 43.3994L50.5824 43.3979C50.968 43.3966 51.3374 43.2463 51.6092 42.98C51.881 42.7138 52.033 42.3534 52.0318 41.9781V41.7875C52.0312 41.6017 51.993 41.4178 51.9194 41.2463C51.8457 41.0749 51.7381 40.9192 51.6027 40.7882C51.4672 40.6573 51.3065 40.5536 51.1299 40.483C50.9532 40.4125 50.764 40.3765 50.573 40.3771L50.1357 40.3787C50.099 40.3787 50.0626 40.3859 50.0287 40.4C49.9948 40.414 49.9639 40.4346 49.938 40.4606C49.912 40.4866 49.8914 40.5174 49.8774 40.5513C49.8633 40.5852 49.8561 40.6216 49.8561 40.6583Z" fill="#F5F7FA"/>
<path d="M55.8071 41.6454L56.5537 41.6267C56.6193 41.6257 56.649 41.6574 56.6427 41.722L56.6209 41.9172C56.6136 41.987 56.5798 42.0036 56.5194 41.9672C56.2819 41.8256 56.0211 41.772 55.7368 41.8063C55.6889 41.8126 55.6629 41.8396 55.6587 41.8875C55.6338 42.239 55.6463 42.5904 55.6228 42.9418C55.5838 43.551 56.4506 43.4057 56.749 43.1027C56.7577 43.0931 56.7695 43.0871 56.7822 43.0856C56.795 43.084 56.8079 43.0872 56.8187 43.0945C56.8295 43.1017 56.8375 43.1126 56.8413 43.1253C56.8451 43.1379 56.8445 43.1515 56.8395 43.1636L56.724 43.4401C56.7138 43.4644 56.6964 43.485 56.6741 43.4992C56.6518 43.5134 56.6256 43.5206 56.599 43.5197L55.1933 43.4776C55.1381 43.4755 55.1246 43.4505 55.1527 43.4026C55.4323 42.934 55.2808 41.2643 55.2792 40.6614C55.2776 40.4865 55.2448 40.4131 55.1277 40.2975C55.0798 40.2496 55.0892 40.2257 55.1558 40.2257L56.6099 40.2163C56.6755 40.2163 56.7094 40.2491 56.7115 40.3147L56.7208 40.5396C56.724 40.625 56.6933 40.6401 56.6287 40.5849C56.4152 40.4027 56.1648 40.3335 55.8774 40.3772C55.7275 40.4001 55.652 40.4876 55.6509 40.6396L55.6447 41.4846C55.6436 41.5939 55.6978 41.6475 55.8071 41.6454Z" fill="#F5F7FA"/>
<path d="M28.9345 45.2034C28.0973 45.1971 27.3429 45.5345 26.6026 45.9C26.5927 45.9047 26.5818 45.9066 26.5709 45.9053C26.56 45.904 26.5498 45.8997 26.5413 45.8928C26.5328 45.886 26.5264 45.8768 26.5229 45.8665C26.5193 45.8561 26.5188 45.845 26.5214 45.8344C26.5245 45.8219 26.5422 45.8016 26.5745 45.7735C27.1253 45.2924 27.7282 44.816 28.3832 44.3443C28.4061 44.3277 28.4325 44.3164 28.4604 44.3112C28.4883 44.3059 28.5171 44.3069 28.5446 44.3141C28.5722 44.3212 28.5979 44.3344 28.6199 44.3525C28.642 44.3707 28.6598 44.3935 28.6721 44.4193L28.9954 45.1081C29.0001 45.1183 29.0022 45.1296 29.0014 45.1408C29.0007 45.152 28.9971 45.1629 28.991 45.1724C28.985 45.1819 28.9766 45.1897 28.9667 45.1951C28.9569 45.2005 28.9458 45.2034 28.9345 45.2034Z" fill="#F5F7FA"/>
<path d="M10.3636 52.0102C10.3424 52.0097 10.3216 52.0157 10.304 52.0275C10.2864 52.0392 10.2729 52.0561 10.2652 52.0758C10.008 52.7276 9.76484 53.3847 9.53576 54.0469C9.34209 54.6092 9.80129 54.5686 10.1512 54.6389C10.1949 54.6472 10.2235 54.6628 10.2371 54.6857C10.2443 54.6972 10.2485 54.7097 10.2496 54.7232C10.2537 54.7659 10.2345 54.7872 10.1918 54.7872L7.58182 54.7888C7.57306 54.7889 7.56456 54.7857 7.55795 54.78C7.55133 54.7742 7.54704 54.7663 7.5459 54.7576L7.53809 54.7076C7.53696 54.6986 7.53778 54.6895 7.54051 54.6809C7.54324 54.6723 7.5478 54.6643 7.55389 54.6577C7.55998 54.651 7.56745 54.6457 7.57577 54.6422C7.5841 54.6387 7.59309 54.637 7.60213 54.6373C8.18316 54.6498 8.59498 54.3504 8.83759 53.7392C9.74766 51.4411 10.6848 49.0884 11.649 46.681C11.7094 46.53 11.8026 46.506 11.9286 46.6091C11.989 46.6591 12.0535 46.7705 12.1223 46.9434C13.0073 49.1883 13.907 51.4276 14.8212 53.6611C15.0816 54.2984 15.5293 54.6279 16.1645 54.6498C16.2061 54.6508 16.2269 54.6722 16.2269 54.7138V54.7638C16.2269 54.7846 16.2171 54.7951 16.1973 54.7951L13.5717 54.7904C13.5582 54.7901 13.5451 54.7859 13.5341 54.7781C13.5231 54.7703 13.5146 54.7593 13.5099 54.7467C13.5052 54.7341 13.5044 54.7203 13.5076 54.7072C13.5108 54.6941 13.5179 54.6822 13.528 54.6732C13.5873 54.6201 13.6326 54.5571 13.6639 54.4842C13.6857 54.4311 13.6863 54.378 13.6654 54.3249L12.8439 52.1336C12.8311 52.0991 12.8081 52.0695 12.7779 52.0485C12.7478 52.0276 12.7119 52.0164 12.6752 52.0164L10.3636 52.0102ZM10.526 51.4026C10.522 51.414 10.5208 51.4262 10.5225 51.4382C10.5242 51.4502 10.5288 51.4615 10.5358 51.4714C10.5429 51.4812 10.5522 51.4891 10.563 51.4946C10.5738 51.5 10.5858 51.5027 10.5979 51.5026H12.4971C12.5092 51.5027 12.5212 51.5 12.532 51.4946C12.5428 51.4891 12.5521 51.4812 12.5592 51.4714C12.5662 51.4615 12.5708 51.4502 12.5725 51.4382C12.5742 51.4262 12.573 51.414 12.569 51.4026L11.6178 48.7958C11.6125 48.7814 11.6029 48.7691 11.5903 48.7603C11.5777 48.7516 11.5628 48.7469 11.5475 48.7469C11.5322 48.7469 11.5172 48.7516 11.5047 48.7603C11.4921 48.7691 11.4825 48.7814 11.4772 48.7958L10.526 51.4026Z" fill="#F5F7FA"/>
<path d="M53.4439 54.578L53.9359 54.6436C53.9463 54.645 53.9559 54.6502 53.963 54.6582C53.9701 54.6662 53.9744 54.6765 53.9749 54.6873L53.9765 54.7373C53.9775 54.7706 53.9619 54.7873 53.9296 54.7873L51.3244 54.7904C51.3154 54.7904 51.3065 54.7883 51.2985 54.7841C51.2905 54.78 51.2836 54.774 51.2784 54.7667C51.2732 54.7593 51.2698 54.7508 51.2686 54.7419C51.2674 54.733 51.2683 54.7239 51.2713 54.7154L51.29 54.6686C51.2973 54.6488 51.3119 54.6389 51.3338 54.6389C51.9096 54.6493 52.3094 54.3755 52.5333 53.8173C53.4507 51.5286 54.3592 49.2363 55.2588 46.9403C55.3327 46.7518 55.4051 46.642 55.4759 46.6107C55.6144 46.5503 55.7112 46.5904 55.7664 46.731C56.7119 49.103 57.6329 51.3855 58.5294 53.5784C58.7903 54.2125 59.112 54.6654 59.8758 54.6342C59.886 54.6336 59.8962 54.635 59.9058 54.6385C59.9154 54.6419 59.9243 54.6473 59.9318 54.6543C59.9394 54.6613 59.9455 54.6697 59.9498 54.6792C59.9542 54.6886 59.9566 54.6988 59.957 54.7092L59.9586 54.7576C59.9596 54.7826 59.9476 54.7951 59.9227 54.7951L57.3002 54.792C57.2845 54.7917 57.2692 54.7863 57.2568 54.7765C57.2444 54.7668 57.2356 54.7532 57.2317 54.7379C57.2278 54.7227 57.229 54.7065 57.2352 54.692C57.2414 54.6775 57.2521 54.6654 57.2659 54.6576C57.4174 54.5733 57.4377 54.4155 57.3768 54.2531C57.1029 53.5315 56.8358 52.8203 56.5755 52.1195C56.5637 52.0875 56.5422 52.0598 56.514 52.0403C56.4858 52.0207 56.4522 52.0102 56.4177 52.0102L54.1342 52.0196C54.1006 52.0196 54.0677 52.0295 54.0399 52.0482C54.0121 52.0668 53.9905 52.0933 53.9781 52.1242C53.7984 52.5819 53.1284 54.0782 53.3033 54.4718C53.3304 54.5342 53.3772 54.5696 53.4439 54.578ZM54.253 51.4026C54.249 51.4139 54.2477 51.426 54.2494 51.4378C54.251 51.4497 54.2554 51.461 54.2623 51.4707C54.2692 51.4805 54.2783 51.4885 54.2889 51.4941C54.2995 51.4996 54.3113 51.5025 54.3232 51.5026L56.2288 51.5088C56.2407 51.5088 56.2525 51.5059 56.2631 51.5003C56.2737 51.4948 56.2828 51.4868 56.2897 51.477C56.2966 51.4672 56.301 51.4559 56.3026 51.4441C56.3043 51.4322 56.303 51.4202 56.299 51.4089L55.3557 48.7974C55.3503 48.783 55.3407 48.7707 55.3282 48.7619C55.3156 48.7532 55.3007 48.7485 55.2854 48.7485C55.2701 48.7485 55.2551 48.7532 55.2426 48.7619C55.23 48.7707 55.2204 48.783 55.2151 48.7974L54.253 51.4026Z" fill="#F5F7FA"/>
<path d="M5.9886 47.3823C4.89839 46.9809 3.49112 46.9512 2.56491 47.6775C1.61527 48.421 1.38411 49.7767 1.47314 50.9278C1.61996 52.8318 3.10377 54.4421 5.09831 54.3484C5.97923 54.3078 6.61492 54.1625 6.9804 53.3332C7.05746 53.1582 7.10796 53.0442 7.13191 52.9911C7.27144 52.6923 7.33652 52.7079 7.32715 53.038C7.31309 53.4691 7.24749 54.6452 6.66334 54.7717C3.37397 55.4823 -0.296494 54.2219 0.0190099 50.2266C0.172076 48.2726 1.72148 46.8903 3.65355 46.6623C4.76459 46.5311 5.95371 46.6232 7.22094 46.9387C7.26675 46.9502 7.28914 46.9804 7.2881 47.0293L7.23031 48.9411C7.22991 48.9501 7.22773 48.959 7.2239 48.9672C7.22007 48.9754 7.21466 48.9827 7.20799 48.9888C7.20132 48.9949 7.19351 48.9996 7.18501 49.0027C7.17651 49.0058 7.16749 49.0071 7.15846 49.0067L7.10223 49.0036C7.08983 49.0027 7.07811 48.9977 7.06903 48.9895C7.05994 48.9813 7.05402 48.9702 7.05225 48.9583C6.92886 48.1914 6.73206 47.6541 5.9886 47.3823Z" fill="#F5F7FA"/>
<path d="M31.1883 52.3819C30.412 54.3296 28.4143 55.1792 26.4167 54.9059C22.3495 54.3499 21.5513 48.538 25.3717 46.9574C27.1945 46.203 29.8185 46.606 30.9274 48.3506C31.6912 49.5517 31.7131 51.0636 31.1883 52.3819ZM28.0582 54.3952C30.79 53.8173 30.5229 49.0581 28.7189 47.693C27.7083 46.9293 26.1777 46.8543 25.2499 47.7321C23.7255 49.1706 24.1722 52.8645 25.959 53.9625C26.6671 54.3967 27.3668 54.5409 28.0582 54.3952Z" fill="#F5F7FA"/>
<path d="M50.7933 53.1769C50.8422 53.0467 50.8881 52.9571 50.9307 52.9082C51.0245 52.803 51.0682 52.8192 51.0619 52.9566C51.0422 53.395 50.9698 53.8506 50.8448 54.3233C50.7277 54.7716 50.4434 54.7653 49.9842 54.8418C47.493 55.2604 44.4629 54.5794 43.8303 51.7212C43.4102 49.8266 44.188 47.8555 46.0123 47.0433C47.4383 46.4091 49.4016 46.5403 50.9635 46.9308C51.0052 46.9412 51.0255 46.9683 51.0245 47.012L50.9667 48.8941C50.9659 48.9155 50.9583 48.936 50.9451 48.9529C50.932 48.9697 50.9138 48.9819 50.8933 48.9878L50.8511 48.9988C50.8438 49.0008 50.8362 49.0012 50.8287 49C50.8212 48.9988 50.814 48.9959 50.8077 48.9916C50.8013 48.9874 50.7959 48.9817 50.7918 48.9752C50.7877 48.9686 50.785 48.9612 50.7839 48.9535C50.5949 47.3916 49.3751 47.0651 48.01 47.1151C44.4426 47.2416 44.4489 52.2288 46.8448 53.8079C47.9444 54.5326 50.2029 54.7669 50.7933 53.1769Z" fill="#F5F7FA"/>
<path d="M18.0823 47.4416C18.0821 47.4284 18.0793 47.4155 18.0741 47.4034C18.0689 47.3914 18.0614 47.3805 18.052 47.3713C18.0425 47.3622 18.0314 47.355 18.0192 47.3502C18.007 47.3454 17.9939 47.343 17.9808 47.3432C17.3311 47.3505 16.6943 47.365 16.0706 47.3869C15.4771 47.4072 15.4615 47.8117 15.1819 48.1319C15.1712 48.1437 15.1569 48.1517 15.1412 48.1546C15.1256 48.1576 15.1094 48.1554 15.0951 48.1483C15.0808 48.1413 15.0692 48.1298 15.0621 48.1155C15.0549 48.1013 15.0525 48.0851 15.0554 48.0695L15.3271 46.6856C15.3291 46.6749 15.3332 46.6646 15.3395 46.6556C15.3457 46.6466 15.3537 46.639 15.3631 46.6332C15.3726 46.6275 15.3831 46.6238 15.3941 46.6223C15.4052 46.6208 15.4164 46.6216 15.4271 46.6247C15.7947 46.733 16.1784 46.7871 16.5782 46.7871C18.1786 46.7882 19.7796 46.7819 21.3811 46.7684C21.6195 46.7674 21.858 46.745 22.0964 46.7012C22.1137 46.6982 22.1315 46.6991 22.1484 46.7039C22.1654 46.7087 22.181 46.7172 22.1943 46.7289C22.2076 46.7405 22.2182 46.755 22.2253 46.7713C22.2324 46.7876 22.2359 46.8053 22.2354 46.8231L22.187 48.2538C22.1868 48.2591 22.1856 48.2643 22.1833 48.2692C22.1811 48.274 22.1779 48.2784 22.174 48.282C22.1701 48.2857 22.1655 48.2885 22.1605 48.2903C22.1555 48.2922 22.1502 48.293 22.1448 48.2928H22.1027C22.0808 48.2918 22.0683 48.2803 22.0652 48.2585C21.934 47.3525 21.2998 47.401 20.4705 47.3588C20.1362 47.3421 19.8004 47.3359 19.4631 47.3401C19.4037 47.3401 19.3745 47.3697 19.3756 47.4291C19.3803 49.6111 19.2912 51.8618 19.4318 54.05C19.4724 54.6982 20.0535 54.5717 20.4955 54.6419C20.5033 54.6429 20.5106 54.6461 20.5164 54.6511C20.5223 54.6561 20.5264 54.6627 20.5283 54.6701L20.5408 54.72C20.5427 54.7282 20.5428 54.7367 20.541 54.7449C20.5392 54.7531 20.5356 54.7607 20.5304 54.7672C20.5253 54.7737 20.5188 54.7789 20.5113 54.7824C20.5039 54.7858 20.4958 54.7875 20.4877 54.7872L17.2327 54.7841C17.2056 54.7841 17.1889 54.7705 17.1827 54.7435L17.1749 54.706C17.1686 54.6799 17.1785 54.6643 17.2045 54.6591L17.7325 54.5701C17.7918 54.5597 17.8387 54.5295 17.873 54.4795C17.9897 54.3087 18.0501 54.0942 18.0542 53.836C18.0959 51.6899 18.1052 49.5585 18.0823 47.4416Z" fill="#F5F7FA"/>
<path d="M35.9709 46.9528C35.1977 46.8325 35.0993 47.2496 35.0931 47.8821C35.0764 49.7169 35.0801 51.5526 35.104 53.3894C35.1113 53.9184 35.3774 54.1995 35.9022 54.2328C36.5582 54.275 37.7999 54.4218 38.0451 53.6174C38.1034 53.4269 38.1685 53.2894 38.2403 53.2051C38.2789 53.1582 38.2976 53.165 38.2966 53.2254C38.2924 53.4795 38.2487 53.8726 38.1654 54.4046C38.1185 54.7066 37.9514 54.8524 37.664 54.842C36.0896 54.7857 34.5641 54.7675 33.0876 54.7873C32.7784 54.7915 32.7653 54.7316 33.0486 54.6077C33.0965 54.5869 33.1964 54.5863 33.3485 54.6061C33.377 54.61 33.4061 54.6069 33.4332 54.5971C33.4604 54.5873 33.4849 54.5711 33.5046 54.5499C33.6629 54.375 33.7452 54.1308 33.7514 53.8174C33.7972 51.3933 33.7993 49.2847 33.7577 47.4917C33.7467 46.9747 33.2094 46.9231 32.8221 46.9341C32.8155 46.9342 32.8089 46.9329 32.8029 46.9301C32.7968 46.9274 32.7915 46.9233 32.7873 46.9181C32.7831 46.913 32.7801 46.907 32.7786 46.9006C32.777 46.8941 32.7769 46.8874 32.7784 46.881L32.7893 46.8357C32.7938 46.8179 32.804 46.8021 32.8185 46.7908C32.8329 46.7795 32.8506 46.7733 32.869 46.7732L35.9943 46.7748C36.0105 46.7748 36.026 46.7812 36.0374 46.7926C36.0488 46.804 36.0552 46.8195 36.0552 46.8357V46.881C36.0551 46.8915 36.0528 46.9018 36.0483 46.9113C36.0439 46.9208 36.0374 46.9293 36.0294 46.9361C36.0214 46.9429 36.0121 46.9479 36.002 46.9508C35.9919 46.9537 35.9813 46.9544 35.9709 46.9528Z" fill="#F5F7FA"/>
<path d="M41.4985 53.7189C41.5031 54.4655 41.8077 54.706 42.5496 54.6014C42.571 54.5987 42.5925 54.6044 42.6095 54.6173C42.6265 54.6302 42.6375 54.6492 42.6402 54.6701L42.648 54.7295C42.6489 54.7374 42.6481 54.7453 42.6457 54.7529C42.6432 54.7605 42.6392 54.7674 42.6339 54.7733C42.6286 54.7792 42.6221 54.7839 42.6148 54.7872C42.6076 54.7904 42.5997 54.792 42.5918 54.7919L39.4211 54.7873C39.2233 54.7873 39.2113 54.7362 39.3852 54.6342C39.4237 54.6113 39.5148 54.5931 39.6585 54.5795C39.9667 54.5514 40.1255 54.3754 40.1349 54.0516C40.2036 51.8722 40.2146 49.6929 40.1677 47.5135C40.1568 46.9746 39.7366 46.9434 39.318 46.9278C39.2962 46.9267 39.2842 46.9158 39.2821 46.895L39.2759 46.8403C39.275 46.8314 39.276 46.8224 39.2788 46.8139C39.2816 46.8054 39.2862 46.7976 39.2923 46.7909C39.2983 46.7843 39.3057 46.779 39.3139 46.7754C39.3221 46.7718 39.3309 46.77 39.3399 46.77L42.2966 46.7716C42.3029 46.7715 42.3093 46.7729 42.3151 46.7754C42.3209 46.778 42.3261 46.7817 42.3304 46.7865C42.3347 46.7912 42.3379 46.7967 42.3399 46.8028C42.3419 46.8088 42.3425 46.8152 42.3419 46.8216L42.3372 46.8653C42.3352 46.8889 42.3242 46.9108 42.3065 46.9265C42.2887 46.9423 42.2656 46.9505 42.2419 46.9496C41.7515 46.9257 41.5042 47.1714 41.5 47.6869C41.4823 49.6975 41.4818 51.7082 41.4985 53.7189Z" fill="#F5F7FA"/>
<path d="M52.2989 57.8391C48.4395 56.5537 48.5098 62.3967 52.0725 61.9016C52.7081 61.8126 52.6222 61.597 52.9018 61.1378C52.9549 61.0514 52.9804 61.0587 52.9784 61.1597C52.9742 61.344 52.9362 61.5533 52.8643 61.7876C52.7519 62.1546 52.5629 62.1234 52.188 62.164C51.556 62.2338 51.0249 62.2072 50.5949 62.0843C49.108 61.6595 48.5426 60.1195 49.1158 58.77C49.7624 57.244 51.4321 57.3377 52.8878 57.6392C52.9357 57.6485 52.9586 57.6777 52.9565 57.7266L52.9237 58.6154C52.9232 58.6258 52.919 58.6358 52.9119 58.6436C52.9048 58.6513 52.8952 58.6563 52.8849 58.6577C52.8747 58.659 52.8644 58.6566 52.856 58.6508C52.8476 58.645 52.8417 58.6363 52.8393 58.6263C52.7488 58.2936 52.7035 57.975 52.2989 57.8391Z" fill="#F5F7FA"/>
<path d="M54.5583 61.6981C54.3161 61.5027 54.1155 61.2607 53.9679 60.9858C53.8203 60.711 53.7285 60.4087 53.6979 60.0963C53.6673 59.7839 53.6984 59.4674 53.7895 59.1649C53.8806 58.8624 54.0298 58.5799 54.2287 58.3334C54.6303 57.8357 55.2098 57.515 55.8396 57.4421C56.4694 57.3692 57.098 57.5499 57.587 57.9445C57.8292 58.1399 58.0298 58.3819 58.1774 58.6568C58.325 58.9316 58.4167 59.2339 58.4474 59.5463C58.478 59.8588 58.4468 60.1753 58.3558 60.4777C58.2647 60.7802 58.1155 61.0627 57.9166 61.3092C57.515 61.807 56.9355 62.1276 56.3057 62.2005C55.6759 62.2734 55.0473 62.0927 54.5583 61.6981ZM56.3787 61.9809C56.6179 61.9477 56.8468 61.8587 57.0526 61.7189C57.2584 61.5791 57.4369 61.3912 57.578 61.1661C57.7191 60.9409 57.82 60.6828 57.875 60.4066C57.9299 60.1304 57.9378 59.8414 57.8982 59.5561C57.8587 59.2709 57.7724 58.995 57.6443 58.7442C57.5162 58.4933 57.3489 58.2725 57.1518 58.0942C56.9547 57.916 56.7318 57.7839 56.4957 57.7054C56.2596 57.6269 56.0151 57.6035 55.7759 57.6367C55.5368 57.6699 55.3078 57.7589 55.102 57.8987C54.8963 58.0386 54.7177 58.2264 54.5766 58.4516C54.4355 58.6767 54.3346 58.9348 54.2797 59.211C54.2247 59.4873 54.2168 59.7762 54.2564 60.0615C54.296 60.3467 54.3823 60.6226 54.5104 60.8735C54.6384 61.1243 54.8058 61.3451 55.0029 61.5234C55.1999 61.7016 55.4229 61.8338 55.659 61.9123C55.895 61.9908 56.1396 62.0141 56.3787 61.9809Z" fill="#F5F7FA"/>
<path d="M8.16273 61.7267L8.29237 61.4971C8.35172 61.3919 8.3814 61.3997 8.3814 61.5205C8.3814 61.7162 8.33923 61.9005 8.25489 62.0734C8.24524 62.0938 8.22965 62.111 8.20998 62.1229C8.19031 62.1348 8.1674 62.141 8.14399 62.1406L6.03542 62.114C5.9313 62.113 5.92089 62.0807 6.00419 62.0172C6.11664 61.9307 6.18901 61.8094 6.22129 61.6532C6.22962 61.6106 6.23379 61.5679 6.23379 61.5252L6.23535 57.9531C6.23533 57.92 6.22853 57.8873 6.21536 57.8569C6.2022 57.8266 6.18296 57.7992 6.15881 57.7766C6.07655 57.6996 5.9818 57.6444 5.87455 57.611C5.86415 57.6075 5.85518 57.6006 5.84894 57.5916C5.8427 57.5825 5.83952 57.5717 5.83987 57.5607C5.84022 57.5497 5.84408 57.5391 5.85088 57.5305C5.85768 57.5218 5.86707 57.5156 5.87767 57.5126C5.93078 57.5001 5.98388 57.5043 6.03699 57.5251C6.08072 57.5418 6.12601 57.5496 6.17287 57.5486L8.12212 57.5267C8.18564 57.5257 8.21532 57.5574 8.21115 57.622L8.1846 58.1124C8.17835 58.2124 8.1518 58.2181 8.10494 58.1296C7.86753 57.6876 7.34586 57.7625 6.91321 57.7594C6.88834 57.7592 6.86367 57.764 6.84064 57.7734C6.81762 57.7828 6.7967 57.7967 6.77911 57.8143C6.76152 57.8319 6.74761 57.8528 6.73818 57.8758C6.72876 57.8989 6.72402 57.9235 6.72422 57.9484L6.73828 59.4494C6.73819 59.4705 6.74254 59.4913 6.75105 59.5106C6.75956 59.5299 6.77204 59.5473 6.78773 59.5617C6.80342 59.5761 6.82196 59.5871 6.84221 59.5941C6.86246 59.6011 6.88397 59.604 6.9054 59.6025L8.07371 59.5072C8.11223 59.5041 8.12993 59.5218 8.12681 59.5603L8.09089 60.0664C8.09029 60.0766 8.08649 60.0863 8.08002 60.0942C8.07355 60.1021 8.06475 60.1078 8.05487 60.1104C8.04499 60.113 8.03455 60.1124 8.02502 60.1087C8.0155 60.105 8.00739 60.0984 8.00186 60.0898C7.74414 59.6946 7.25527 59.7743 6.84917 59.7852C6.8174 59.786 6.78721 59.7994 6.76503 59.8224C6.74285 59.8455 6.73045 59.8764 6.73047 59.9086L6.73203 61.5783C6.73209 61.6338 6.75006 61.6878 6.78326 61.7322C6.81647 61.7767 6.86314 61.8092 6.91634 61.8251C7.29432 61.9385 7.67021 61.9375 8.04403 61.8219C8.09406 61.807 8.1366 61.7728 8.16273 61.7267Z" fill="#F5F7FA"/>
<path d="M12.369 58.1452C12.3679 59.201 12.3747 60.3412 12.3893 61.5657C12.3924 61.8734 12.5533 62.0281 12.8532 62.0187C12.8552 62.0187 12.8572 62.0195 12.8587 62.021C12.8601 62.0224 12.861 62.0244 12.861 62.0265L12.8594 62.0702C12.859 62.0828 12.8537 62.0947 12.8447 62.1035C12.8356 62.1122 12.8236 62.1171 12.811 62.1171L11.6567 62.1202C11.5797 62.1202 11.5708 62.0952 11.6302 62.0452C11.7942 61.9093 11.8863 61.7938 11.8879 61.5642C11.8983 60.3605 11.8905 59.1578 11.8645 57.9562C11.8614 57.8146 11.7442 57.6964 11.513 57.6016C11.4568 57.5787 11.4521 57.5475 11.499 57.5079C11.5313 57.4819 11.5776 57.4824 11.638 57.5095C11.6849 57.5303 11.7265 57.5412 11.7629 57.5423C12.4783 57.5548 13.4717 57.3486 14.0433 57.9187C14.3099 58.1832 14.3958 58.5174 14.301 58.9214C14.124 59.6711 13.6195 60.0507 12.7876 60.0601C12.7761 60.0601 12.7699 60.0543 12.7688 60.0429L12.7626 59.9976C12.7594 59.9684 12.7725 59.9523 12.8016 59.9492C13.5982 59.8596 13.947 59.4228 13.8481 58.6387C13.7971 58.2347 13.58 57.9635 13.1968 57.825L12.95 57.7375C12.5626 57.598 12.369 57.7339 12.369 58.1452Z" fill="#F5F7FA"/>
<path d="M16.1737 59.9103L16.1862 61.5893C16.1868 61.6402 16.2034 61.6897 16.2337 61.7306C16.264 61.7716 16.3064 61.8019 16.3549 61.8174C16.7532 61.9454 17.5029 62.0235 17.7122 61.5471C17.783 61.3868 17.8215 61.3941 17.8278 61.569C17.833 61.6783 17.8017 61.821 17.7341 61.997C17.7166 62.0414 17.6861 62.0794 17.6467 62.106C17.6074 62.1325 17.561 62.1462 17.5138 62.1454L15.4459 62.1172C15.4362 62.1171 15.4269 62.114 15.4191 62.1082C15.4114 62.1024 15.4057 62.0943 15.403 62.085C15.4002 62.0758 15.4004 62.0659 15.4036 62.0568C15.4069 62.0477 15.4129 62.0399 15.4209 62.0345C15.5833 61.9267 15.6755 61.7721 15.677 61.5628C15.6843 60.3913 15.6843 59.2204 15.677 58.05C15.6755 57.7814 15.5396 57.6533 15.2928 57.6065C15.2689 57.6023 15.2579 57.5877 15.26 57.5627V57.5612C15.2621 57.5456 15.2788 57.5377 15.31 57.5377L17.5654 57.5315C17.6174 57.5315 17.6471 57.5575 17.6544 57.6096C17.6763 57.7793 17.6653 57.9485 17.6216 58.1172C17.6029 58.1922 17.5753 58.1953 17.5388 58.1266L17.4264 57.9142C17.4116 57.8868 17.3901 57.8637 17.3639 57.8468C17.3377 57.8298 17.3076 57.8197 17.2764 57.8173L16.3721 57.7486C16.3469 57.7467 16.3216 57.7499 16.2978 57.7581C16.274 57.7664 16.2521 57.7794 16.2336 57.7964C16.2151 57.8134 16.2004 57.8341 16.1904 57.857C16.1803 57.88 16.1752 57.9048 16.1753 57.9298L16.1784 59.437C16.1784 59.4583 16.1827 59.4793 16.1911 59.4988C16.1996 59.5183 16.212 59.5359 16.2275 59.5504C16.243 59.5649 16.2614 59.5761 16.2814 59.5832C16.3015 59.5903 16.3228 59.5931 16.344 59.5916L17.4998 59.5151C17.5425 59.512 17.5633 59.5323 17.5623 59.576L17.5513 60.0274C17.5496 60.0446 17.5418 60.0607 17.5293 60.0726C17.5167 60.0845 17.5003 60.0915 17.483 60.0922C17.4657 60.093 17.4487 60.0875 17.4351 60.0767C17.4216 60.066 17.4124 60.0507 17.4092 60.0337C17.3946 59.9066 17.2884 59.8291 17.0906 59.8009C16.8115 59.7614 16.534 59.764 16.2581 59.8087C16.2008 59.8181 16.1727 59.852 16.1737 59.9103Z" fill="#F5F7FA"/>
<path d="M24.0098 58.5966C24.0286 59.4588 24.0582 60.3548 24.0988 61.2847C24.1145 61.6642 24.0676 61.9329 24.5174 62.0438C24.5383 62.049 24.5466 62.0615 24.5424 62.0812C24.5393 62.0989 24.5315 62.112 24.519 62.1203C24.5117 62.1255 24.5013 62.1281 24.4878 62.1281C24.0796 62.1156 23.4996 62.1172 22.7478 62.1328C21.9075 62.1515 21.1937 60.8723 20.7626 60.2601C20.749 60.2406 20.731 60.2246 20.7101 60.2132C20.6893 60.2018 20.6661 60.1954 20.6423 60.1945L19.9254 60.1554C19.8702 60.1523 19.8432 60.1778 19.8442 60.2319L19.8583 61.6751C19.8593 61.7463 19.8834 61.8151 19.9271 61.8712C19.9708 61.9273 20.0317 61.9676 20.1004 61.986L20.2925 62.0375C20.3023 62.0402 20.3107 62.0464 20.3163 62.0549C20.3219 62.0634 20.3243 62.0736 20.3229 62.0836C20.3216 62.0937 20.3167 62.103 20.3091 62.1097C20.3015 62.1164 20.2917 62.1202 20.2816 62.1203L19.1164 62.1219C19.0372 62.1219 19.0294 62.0984 19.0929 62.0516C19.1815 61.987 19.2559 61.9089 19.3163 61.8173C19.3475 61.7694 19.3637 61.7173 19.3647 61.6611C19.3855 60.4532 19.3881 59.2459 19.3725 58.039C19.3694 57.7673 19.2054 57.6314 18.9524 57.6204C18.9504 57.6205 18.9485 57.6201 18.9467 57.6193C18.9449 57.6186 18.9434 57.6175 18.9422 57.6161C18.941 57.6147 18.9401 57.6131 18.9397 57.6114C18.9393 57.6098 18.9394 57.608 18.9399 57.6064L18.9461 57.5642C18.9524 57.5288 18.9732 57.5127 19.0086 57.5158C19.3939 57.5564 19.7812 57.559 20.1707 57.5236C21.8466 57.3705 22.3729 58.7856 21.2312 59.9336C21.2009 59.9637 21.1826 60.0039 21.1797 60.0467C21.1769 60.0895 21.1896 60.132 21.2156 60.1663C21.5967 60.6693 22.0059 61.166 22.4432 61.6564C22.7041 61.9485 23.699 62.3639 23.7099 61.5877C23.7297 60.2351 23.7396 58.9241 23.7396 57.6548C23.7396 57.4549 23.8078 57.4289 23.9442 57.5767L27.1477 61.0598C27.3174 61.243 27.3991 61.2097 27.3929 60.9598L27.3179 57.9047C27.3175 57.8776 27.3106 57.8509 27.2979 57.8268C27.2851 57.8027 27.2668 57.7817 27.2445 57.7657C27.1362 57.6876 27.0165 57.6309 26.8853 57.5955C26.8665 57.5903 26.8582 57.5778 26.8603 57.558L26.865 57.5158C26.866 57.5116 26.8686 57.5096 26.8728 57.5096C27.2268 57.5481 27.5834 57.5522 27.9427 57.522C27.9527 57.521 27.9629 57.5234 27.9714 57.5288C27.98 57.5342 27.9865 57.5423 27.9899 57.5518C27.9933 57.5614 27.9935 57.5717 27.9903 57.5814C27.9871 57.591 27.9808 57.5992 27.9724 57.6048L27.7428 57.761C27.7001 57.7912 27.6787 57.8318 27.6787 57.8828L27.6662 62.0531C27.6663 62.0742 27.6601 62.0948 27.6483 62.1122C27.6365 62.1296 27.6197 62.1431 27.6001 62.1509C27.5806 62.1586 27.5591 62.1603 27.5386 62.1557C27.5181 62.1511 27.4994 62.1404 27.485 62.125L24.141 58.5435C24.0504 58.4467 24.0067 58.4644 24.0098 58.5966ZM19.813 58.0125L19.8614 59.7509C19.8622 59.7862 19.87 59.8209 19.8842 59.8532C19.8985 59.8855 19.919 59.9147 19.9445 59.939C19.97 59.9634 20.0001 59.9825 20.033 59.9952C20.0659 60.008 20.101 60.0141 20.1363 60.0133L20.458 60.0039C20.5808 60.0005 20.7015 59.9711 20.8135 59.9174C20.9255 59.8637 21.0264 59.7867 21.1105 59.6908C21.1947 59.5949 21.2603 59.482 21.3038 59.3586C21.3473 59.2352 21.3677 59.1036 21.3639 58.9715L21.3561 58.706C21.3487 58.4395 21.2433 58.1868 21.0632 58.0031C20.8831 57.8195 20.643 57.7201 20.3956 57.7267L20.0738 57.736C20.0385 57.737 20.0038 57.745 19.9716 57.7594C19.9394 57.7739 19.9103 57.7945 19.8861 57.8202C19.8619 57.8459 19.843 57.8761 19.8304 57.9091C19.8179 57.9421 19.8119 57.9772 19.813 58.0125Z" fill="#F5F7FA"/>
<path d="M31.2493 60.3445L29.9841 60.3179C29.9618 60.3174 29.9399 60.3237 29.9214 60.336C29.9029 60.3483 29.8888 60.366 29.881 60.3866C29.7217 60.7875 29.5812 61.1884 29.4593 61.5893C29.414 61.7408 29.4062 61.9438 29.5671 62.0094C29.5784 62.0144 29.5877 62.0231 29.5935 62.0341C29.5992 62.0451 29.6011 62.0577 29.5987 62.0699C29.5963 62.082 29.5899 62.093 29.5805 62.1011C29.5711 62.1091 29.5592 62.1137 29.5468 62.1141L28.5659 62.1219C28.554 62.1219 28.5426 62.1194 28.5339 62.1148C28.5253 62.1102 28.52 62.1038 28.5191 62.0969V62.0953C28.517 62.0735 28.5269 62.0605 28.5487 62.0563C28.8476 61.9969 29.0329 61.8631 29.1048 61.6549C29.5744 60.2981 30.0622 58.9481 30.5683 57.6049C30.5881 57.5539 30.6209 57.5148 30.6667 57.4877C30.6718 57.4846 30.6775 57.4826 30.6835 57.4819C30.6894 57.4813 30.6955 57.4819 30.7012 57.4839C30.7068 57.4858 30.712 57.489 30.7163 57.4932C30.7206 57.4973 30.7239 57.5024 30.726 57.508C31.2081 58.7951 31.7007 60.0769 32.2036 61.3534C32.3494 61.7241 32.5712 61.9532 32.869 62.0407C32.8887 62.0459 32.8976 62.0589 32.8955 62.0797C32.8934 62.0974 32.8867 62.111 32.8752 62.1203C32.8679 62.1266 32.857 62.1297 32.8424 62.1297C32.5425 62.1224 32.2437 62.1188 31.9459 62.1188C31.9405 62.1188 31.9352 62.1172 31.9307 62.1141C31.9262 62.111 31.9228 62.1067 31.9209 62.1016L31.3399 60.4101C31.3335 60.3913 31.3213 60.3749 31.3051 60.3632C31.2889 60.3514 31.2694 60.3449 31.2493 60.3445ZM29.9888 60.0258C29.9856 60.0359 29.9849 60.0466 29.9866 60.057C29.9883 60.0674 29.9924 60.0773 29.9986 60.0858C30.0049 60.0943 30.013 60.1013 30.0225 60.106C30.0319 60.1108 30.0423 60.1133 30.0529 60.1133L31.1134 60.1117C31.1241 60.1118 31.1347 60.1093 31.1443 60.1045C31.1539 60.0996 31.1622 60.0925 31.1684 60.0838C31.1747 60.0751 31.1788 60.065 31.1804 60.0543C31.1819 60.0437 31.1809 60.0329 31.1774 60.0227L30.6448 58.4233C30.6405 58.4097 30.632 58.3978 30.6205 58.3894C30.609 58.3809 30.5951 58.3764 30.5808 58.3764C30.5665 58.3764 30.5526 58.3809 30.5411 58.3894C30.5296 58.3978 30.521 58.4097 30.5167 58.4233L29.9888 60.0258Z" fill="#F5F7FA"/>
<path d="M36.2255 61.2832L37.9514 57.6253C38.0556 57.4045 38.1201 57.4155 38.1451 57.6581C38.2721 58.9138 38.4106 60.2243 38.5606 61.5894C38.5929 61.8789 38.7907 62.0184 39.1541 62.008C39.1638 62.008 39.1732 62.011 39.1813 62.0165C39.1894 62.0221 39.1957 62.03 39.1994 62.0392L39.215 62.0845C39.2165 62.0885 39.2171 62.0929 39.2165 62.0972C39.216 62.1014 39.2144 62.1055 39.212 62.109C39.2095 62.1126 39.2062 62.1155 39.2024 62.1174C39.1986 62.1194 39.1943 62.1205 39.19 62.1204L38.1685 62.1017C38.1217 62.1006 38.0962 62.0767 38.092 62.0298L37.8343 58.9326C37.8124 58.6691 37.7453 58.6572 37.6328 58.8967L36.1756 62.0173C36.1668 62.0367 36.1528 62.0531 36.135 62.0647C36.1172 62.0763 36.0965 62.0825 36.0753 62.0827C36.0541 62.0828 36.0333 62.0769 36.0154 62.0656C35.9974 62.0543 35.9831 62.0381 35.9741 62.0189L34.4543 58.8342C34.3783 58.6738 34.3346 58.6827 34.3231 58.8607C34.2669 59.7542 34.1888 60.6621 34.0889 61.5847C34.068 61.7711 34.1727 61.9309 34.4028 62.0642C34.4705 62.1038 34.4648 62.1236 34.3856 62.1236L33.4844 62.1173C33.476 62.1169 33.4679 62.1139 33.4613 62.1087C33.4547 62.1035 33.4499 62.0964 33.4475 62.0883C33.4451 62.0803 33.4452 62.0717 33.4479 62.0637C33.4506 62.0558 33.4557 62.0488 33.4625 62.0439C33.6328 61.933 33.739 61.8393 33.7609 61.6206C33.8931 60.2586 34.0373 58.931 34.1935 57.6378C34.2185 57.4285 34.2768 57.4186 34.3684 57.6081L36.1474 61.2832C36.1511 61.2905 36.1567 61.2966 36.1636 61.3008C36.1705 61.305 36.1784 61.3073 36.1865 61.3073C36.1946 61.3073 36.2025 61.305 36.2094 61.3008C36.2163 61.2966 36.2219 61.2905 36.2255 61.2832Z" fill="#F5F7FA"/>
<path d="M42.0856 59.6228C43.5397 60.2429 43.1071 62.0453 41.6451 62.1281C41.3369 62.1447 40.848 62.1385 40.1785 62.1093C40.1306 62.1073 40.1233 62.089 40.1566 62.0547C40.3139 61.8943 40.394 61.6611 40.3972 61.3549C40.4086 60.2481 40.4091 59.1417 40.3987 58.0359C40.3956 57.7641 40.2488 57.6532 40.0051 57.6033C39.9853 57.5991 39.9765 57.5871 39.9786 57.5673L39.9848 57.5189C39.9869 57.5106 39.9921 57.5069 40.0004 57.508C40.3191 57.5465 40.7116 57.5502 41.1781 57.5189C41.9606 57.4674 42.7619 57.9781 42.4339 58.8668C42.3573 59.073 42.1684 59.2542 42.0387 59.4838C42.0319 59.4958 42.0277 59.5092 42.0264 59.523C42.025 59.5367 42.0266 59.5507 42.0311 59.5638C42.0355 59.5769 42.0426 59.5889 42.052 59.5991C42.0614 59.6093 42.0728 59.6174 42.0856 59.6228ZM40.8392 57.9516L40.8876 59.3338C40.8896 59.3903 40.9139 59.4437 40.9552 59.4823C40.9965 59.521 41.0513 59.5417 41.1078 59.54L41.3937 59.5306C41.4869 59.5276 41.5785 59.5031 41.6632 59.4585C41.7479 59.414 41.8241 59.3503 41.8873 59.2711C41.9506 59.1918 41.9997 59.0987 42.0318 58.9969C42.064 58.8951 42.0785 58.7867 42.0746 58.6778L42.0684 58.5232C42.0608 58.3038 41.9788 58.096 41.8406 57.9455C41.7023 57.7949 41.5191 57.7139 41.3312 57.7204L41.0453 57.7298C41.0172 57.7308 40.9896 57.7373 40.964 57.749C40.9385 57.7607 40.9154 57.7773 40.8963 57.7979C40.8771 57.8185 40.8622 57.8427 40.8524 57.8691C40.8426 57.8954 40.8381 57.9235 40.8392 57.9516ZM42.1527 61.7657C42.7978 61.2878 42.3823 59.8618 41.6467 59.7524C41.4395 59.7222 41.2349 59.6978 41.0329 59.679C41.0115 59.6773 40.99 59.68 40.9698 59.6869C40.9496 59.6938 40.931 59.7048 40.9153 59.7192C40.8996 59.7336 40.8871 59.751 40.8785 59.7705C40.87 59.7899 40.8656 59.8109 40.8657 59.8321L40.8751 61.5861C40.8751 61.6465 40.8975 61.697 40.9423 61.7376C41.2609 62.0281 41.8435 61.9953 42.1527 61.7657Z" fill="#F5F7FA"/>
<path d="M44.7363 57.8922C44.7103 59.3344 44.7129 60.2606 44.7441 60.6708C44.8738 62.4342 47.2603 62.3811 47.3712 60.7177C47.3983 60.322 47.4077 59.388 47.3993 57.9156C47.3983 57.7428 47.2728 57.6439 47.0229 57.6189C47.0136 57.6178 47.0084 57.6126 47.0073 57.6033L46.9979 57.5548C46.9959 57.5413 47.0016 57.5345 47.0151 57.5345L48.0553 57.5439C48.0647 57.5443 48.0737 57.5478 48.081 57.5537C48.0882 57.5597 48.0934 57.5678 48.0955 57.5768C48.0977 57.5858 48.0967 57.5951 48.0929 57.6033C48.089 57.6115 48.0824 57.6181 48.0741 57.622C47.9606 57.6762 47.8638 57.7506 47.7836 57.8454C47.7545 57.8796 47.7394 57.9231 47.7414 57.9672C47.8257 59.8399 48.1288 62.3921 45.7469 62.2015C44.641 62.1125 44.2099 61.255 44.2037 60.2601C44.1995 59.5405 44.2016 58.821 44.2099 58.1015C44.2146 57.7938 44.0803 57.6486 43.7867 57.6064C43.7842 57.606 43.7818 57.6051 43.7797 57.6038C43.7776 57.6025 43.7757 57.6008 43.7742 57.5988C43.7728 57.5967 43.7718 57.5944 43.7712 57.592C43.7707 57.5895 43.7706 57.587 43.7711 57.5845L43.7773 57.5361C43.7815 57.5101 43.7966 57.4991 43.8226 57.5033C44.2027 57.5699 44.5832 57.572 44.9643 57.5096C44.9755 57.507 44.9873 57.5084 44.9976 57.5135C45.0078 57.5186 45.0161 57.5271 45.0208 57.5376C45.0256 57.548 45.0266 57.5598 45.0237 57.5709C45.0208 57.582 45.0142 57.5918 45.005 57.5986L44.7988 57.7657C44.7582 57.798 44.7373 57.8402 44.7363 57.8922Z" fill="#F5F7FA"/>
<path d="M0.598446 57.7219C0.565126 57.7146 0.532326 57.6906 0.500047 57.65C0.46152 57.6021 0.472453 57.5756 0.532847 57.5704C1.38096 57.4954 2.37901 57.447 3.20526 57.6547C4.76872 58.0468 5.19981 59.7399 4.48914 61.0284C3.65977 62.5294 1.98698 62.128 0.542218 62.1171C0.48599 62.1171 0.476618 62.0962 0.514104 62.0546C0.799932 61.7391 0.731208 61.4829 0.737456 61.0893C0.756199 60.0429 0.754636 58.9756 0.73277 57.8874C0.730687 57.7969 0.685913 57.7417 0.598446 57.7219ZM3.58949 58.3295C2.97878 57.7766 2.16503 57.6594 1.36065 57.7672C1.32915 57.7713 1.30022 57.7869 1.27925 57.8111C1.25828 57.8352 1.24669 57.8662 1.24663 57.8984C1.24768 59.0521 1.25288 60.2131 1.26225 61.3814C1.26538 61.6626 1.33566 61.8484 1.62305 61.9015C2.05414 61.9807 2.48106 61.9739 2.90381 61.8812C4.61097 61.5064 4.64533 59.2822 3.58949 58.3295Z" fill="#F5F7FA"/>
</svg>
