<svg width="181" height="163" viewBox="0 0 181 163" fill="none" xmlns="http://www.w3.org/2000/svg">
<path d="M165.292 37.2411C149.502 36.3946 95.5362 33.4222 81.8249 32.3123L81.725 32.444C80.7456 32.0866 59.3791 23.4142 63.2167 13.8388C59.3191 10.2269 60.4584 5.14766 55.4016 0.576318C50.4248 6.57738 54.1624 14.8735 48.9457 21.5706L0.576379 21.8716C4.0142 23.2261 0.856211 24.8439 1.83559 28.6816C1.73565 28.8697 1.41585 28.6816 0.8562 28.945C0.8562 29.0578 0.7163 29.0014 0.836224 29.4905C0.916173 31.0331 1.33591 31.842 2.61509 34.7203V34.8708C2.17537 35.0777 2.45519 35.8678 1.37588 36.0936L1.31592 36.2064C1.51579 41.0035 2.2753 44.8412 2.2753 50.5977C2.31527 50.7482 2.4352 50.7482 2.79497 50.9363C2.81496 51.0304 3.01484 51.5195 2.51515 51.9898C2.51515 51.9898 2.41522 51.9898 2.17537 51.9145L2.07543 51.9898C2.19535 52.8175 2.01547 53.175 2.17537 55.1502C2.71503 55.4512 16.8061 55.2631 19.0447 55.3572L19.1646 55.4324C19.1646 55.5453 19.1046 55.4889 19.0447 55.9215C19.1846 56.0156 18.7449 55.8651 20.164 56.9562C31.0371 56.1661 24.9609 60.1919 24.6811 68.1682C33.2357 74.0376 23.9815 88.015 14.5675 95.521C14.8074 95.6339 16.5263 97.1765 18.565 97.5715C18.8848 97.929 18.4251 99.0577 19.5843 99.7913L19.6243 99.8854L19.5444 100.036C19.5444 100.036 19.6243 100.111 19.8841 100.262C19.8042 100.469 19.9441 101.842 18.6449 102.218C17.9853 104.852 19.8242 105.002 20.6836 108.746L20.2039 108.896C21.9828 110.514 21.623 112.979 21.683 117.324C21.663 117.324 19.4044 117.343 16.8461 117.381C22.5425 121.237 22.8023 127.408 23.5018 135.252C31.3968 135.083 42.21 137.378 51.3842 135.478H52.0637L52.2236 135.628C52.1437 135.553 52.3636 135.798 52.2236 137.34L51.8439 137.622V137.886L52.1437 138.45C49.0257 141.46 50.2249 144.922 51.5441 150.697C55.2217 153.237 60.3185 153.782 61.8975 157.958L62.0574 157.845C62.0574 157.845 62.637 158.015 63.3166 158.015C63.4365 159.482 66.0549 159.576 65.875 161.213H65.895C66.7145 158.429 70.8718 161.025 75.0692 154.723C76.3883 150.415 78.1672 152.183 83.4039 150.904H83.5438C87.2614 148.157 88.6206 150.716 93.7373 152.108C96.8354 153.782 97.2351 154.986 102.032 157.168C105.59 158.109 108.508 153.481 112.665 154.685C116.823 160.46 119.421 153.519 125.557 150.434L125.677 150.528C126.497 154.309 122.079 157.507 121.02 161.006C122.639 161.044 125.257 162.511 129.595 162.191L129.774 162.041C130.674 161.683 132.773 162.774 135.571 162.304C135.371 160.103 131.793 157.394 132.912 154.309C132.853 154.252 132.853 153.011 133.412 152.164C132.633 149.549 136.55 148.176 136.09 144.527C138.349 142.927 142.207 141.328 142.466 137.717C139.808 136.513 143.106 134.575 145.105 132.863L145.185 132.618C145.185 132.618 146.044 132.092 146.924 131.885C147.243 129.138 150.861 130.079 152.72 128.122C153.999 128.781 156.138 126.392 155.458 124.115L155.578 123.908L155.938 124.115C156.777 123.702 157.217 121.632 157.377 120.184C157.317 120.184 157.537 120.184 157.737 119.92C157.737 119.92 157.737 119.638 157.597 119.074C158.656 117.776 160.435 116.421 162.913 115.198L163.113 115.424C163.113 115.424 163.033 115.387 163.273 116.026C163.733 116.233 164.572 116.007 165.572 115.161V115.104C165.732 114.973 165.572 114.465 166.391 114.164L166.511 113.167C166.511 113.167 166.451 113.073 166.891 112.885C166.791 112.151 167.431 110.514 168.23 109.254L168.19 109.085C168.41 106.808 168.01 105.567 169.17 102.481L169.209 102.425L169.269 102.387C171.068 102.444 170.229 98.926 170.069 96.4052C172.467 94.3734 174.966 89.2189 174.906 85.8328L174.866 85.7387C175.286 85.0615 176.425 85.2684 176.125 83.105C176.405 82.9921 174.386 83.2179 174.866 82.503C174.726 82.4466 174.726 82.4654 174.366 82.5406C174.146 81.5248 173.986 80.4901 173.147 79.4367L173.207 79.399H173.287C173.287 79.399 173.327 79.4555 173.447 79.4931L173.487 79.4555C173.447 78.8723 173.747 78.1386 173.807 77.1416C174.386 77.8564 172.907 69.9554 173.167 68.3751C171.868 63.484 173.227 58.3295 174.286 52.1403C174.926 51.764 173.627 49.7512 175.106 49.2997C175.106 49.4313 175.146 48.8858 175.565 48.6224C175.565 48.4719 175.605 48.5096 175.466 48.0769C177.304 44.9917 177.564 42.0946 180.023 37.8995L165.272 37.1847L165.292 37.2411Z" fill="#2D73B5"/>
<path d="M165.292 37.2411C149.502 36.3946 95.5362 33.4223 81.8249 32.3123L81.7249 32.444C80.7456 32.0866 59.3791 23.4142 63.2167 13.8388C59.3191 10.2269 60.4584 5.14766 55.4016 0.576318C50.4248 6.57738 54.1624 14.8735 48.9457 21.5706L0.576379 21.8716C4.0142 23.2261 0.856211 24.8439 1.83559 28.6816C1.73565 28.8697 1.41585 28.6816 0.8562 28.945C0.8562 29.0578 0.7163 29.0014 0.836224 29.4905C0.916173 31.0331 1.33591 31.842 2.6151 34.7203V34.8708C2.17537 35.0777 2.45519 35.8678 1.37588 36.0936L1.31592 36.2064C1.51579 41.0035 2.2753 44.8412 2.2753 50.5977C2.31527 50.7482 2.4352 50.7482 2.79497 50.9363C2.81496 51.0304 3.01484 51.5195 2.51515 51.9898C2.51515 51.9898 2.41522 51.9898 2.17537 51.9145L2.07543 51.9898C2.19535 52.8175 2.01547 53.175 2.17537 55.1502C2.71503 55.4512 16.8061 55.2631 19.0447 55.3572L19.1646 55.4324C19.1646 55.5453 19.1046 55.4889 19.0447 55.9215C19.1846 56.0156 18.7449 55.8651 20.164 56.9562C31.0371 56.1661 24.9609 60.1919 24.6811 68.1682C33.2357 74.0376 23.9815 88.015 14.5675 95.521C14.8074 95.6339 16.5263 97.1765 18.565 97.5715C18.8848 97.929 18.4251 99.0577 19.5843 99.7913L19.6243 99.8854L19.5444 100.036C19.5444 100.036 19.6243 100.111 19.8841 100.262C19.8042 100.469 19.9441 101.842 18.6449 102.218C17.9853 104.852 19.8242 105.002 20.6836 108.746L20.2039 108.896C21.9828 110.514 21.623 112.979 21.683 117.324C21.663 117.324 19.4044 117.343 16.8461 117.381C22.5425 121.237 22.8023 127.408 23.5018 135.252C31.3968 135.083 42.21 137.378 51.3842 135.478H52.0637L52.2236 135.628C52.1437 135.553 52.3636 135.798 52.2236 137.34L51.8439 137.622V137.886L52.1437 138.45C49.0257 141.46 50.2249 144.922 51.5441 150.697C55.2217 153.237 60.3185 153.782 61.8975 157.958L62.0574 157.845C62.0574 157.845 62.637 158.015 63.3166 158.015C63.4365 159.482 66.0549 159.576 65.875 161.213H65.895C66.7145 158.429 70.8718 161.025 75.0692 154.723C76.3883 150.415 78.1672 152.183 83.4039 150.904H83.5438C87.2614 148.157 88.6206 150.716 93.7373 152.108C96.8354 153.782 97.2351 154.986 102.032 157.168C105.59 158.109 108.508 153.481 112.665 154.685C116.823 160.46 119.421 153.519 125.557 150.434L125.677 150.528C126.497 154.309 122.079 157.507 121.02 161.006C122.639 161.044 125.257 162.511 129.595 162.191L129.774 162.041C130.674 161.683 132.773 162.774 135.571 162.304C135.371 160.103 131.793 157.394 132.913 154.309C132.853 154.252 132.853 153.011 133.412 152.164C132.633 149.549 136.55 148.176 136.09 144.527C138.349 142.927 142.207 141.328 142.466 137.717C139.808 136.513 143.106 134.575 145.105 132.863L145.185 132.618C145.185 132.618 146.044 132.092 146.924 131.885C147.243 129.138 150.861 130.079 152.72 128.122C153.999 128.781 156.138 126.392 155.458 124.115L155.578 123.908L155.938 124.115C156.777 123.702 157.217 121.632 157.377 120.184C157.317 120.184 157.537 120.184 157.737 119.92C157.737 119.92 157.737 119.638 157.597 119.074C158.656 117.776 160.435 116.421 162.913 115.198L163.113 115.424C163.113 115.424 163.033 115.387 163.273 116.026C163.733 116.233 164.572 116.007 165.572 115.161V115.104C165.732 114.973 165.572 114.465 166.391 114.164L166.511 113.167C166.511 113.167 166.451 113.073 166.891 112.885C166.791 112.151 167.431 110.514 168.23 109.254L168.19 109.085C168.41 106.808 168.01 105.567 169.17 102.481L169.209 102.425L169.269 102.387C171.068 102.444 170.229 98.926 170.069 96.4052C172.467 94.3734 174.966 89.2189 174.906 85.8328L174.866 85.7387C175.286 85.0615 176.425 85.2684 176.125 83.105C176.405 82.9921 174.386 83.2179 174.866 82.503C174.726 82.4466 174.726 82.4654 174.366 82.5406C174.146 81.5248 173.986 80.4901 173.147 79.4367L173.207 79.399H173.287C173.287 79.399 173.327 79.4555 173.447 79.4931L173.487 79.4555C173.447 78.8723 173.747 78.1386 173.807 77.1416C174.386 77.8564 172.907 69.9553 173.167 68.3751C171.868 63.484 173.227 58.3295 174.286 52.1403C174.926 51.764 173.627 49.7512 175.106 49.2997C175.106 49.4313 175.146 48.8858 175.565 48.6224C175.565 48.4719 175.605 48.5096 175.466 48.0769C177.304 44.9917 177.564 42.0946 180.023 37.8995L165.272 37.1847L165.292 37.2411Z" stroke="white" stroke-width="1.15034" stroke-linecap="round" stroke-linejoin="round"/>
</svg>
