<svg width="79" height="124" viewBox="0 0 79 124" fill="none" xmlns="http://www.w3.org/2000/svg">
<path d="M78.3847 77.2927C76.5687 80.6173 71.1206 81.5001 69.7037 84.1109C69.8035 84.3363 69.8235 84.2236 69.8235 84.2611C70.4621 84.3175 70.7814 85.6698 70.9809 85.7074C59.2068 95.2491 70.4222 94.1972 73.2959 96.3572C72.9366 98.4421 69.125 97.935 70.5419 99.9823C77.9257 99.8884 69.1849 103.607 69.5042 103.814C68.4864 107.871 69.7037 109.148 72.0785 109.768C72.5176 113.412 69.9033 112.849 71.0208 114.389C63.3776 116.812 57.3708 119.779 50.9649 121.395C50.8252 121.601 50.905 121.564 50.8651 121.676C50.6456 121.789 50.6256 122.052 50.6256 121.996L50.5658 122.033H50.4859C49.8473 120.549 49.2287 119.742 48.63 119.066C45.9559 120.08 49.2287 122.277 48.6101 122.86C45.8361 122.465 45.2375 121.695 44.0601 121.188C43.7408 121.395 43.7408 121.47 43.7009 121.489C42.0844 120.7 41.5456 120.08 40.5677 120.287L40.5079 120.249C40.7673 118.915 41.0667 119.009 40.9669 118.671C40.887 118.54 40.8671 118.558 40.8671 118.558C30.0708 123.48 35.5388 116.436 31.5076 123.423C30.6695 110.576 26.2392 115.591 27.3767 112.379C23.126 114.501 22.4475 118.746 21.4298 121.376C16.9396 120.324 13.7466 119.291 11.8508 117.939C2.45145 116.868 11.0925 110.257 9.31639 108.604C7.32078 109.787 7.87953 109.355 6.86176 110.256C6.60233 110.294 6.68218 110.313 6.66222 110.313C6.52253 110.557 6.60233 110.482 6.58238 110.519C6.3429 110.707 6.1633 110.764 6.18326 110.764C5.08567 112.285 4.56682 113.863 4.10783 115.328C3.11002 115.178 2.67098 115.328 2.85058 114.727C2.63107 114.614 2.35168 114.802 2.35168 114.764C2.19203 113.525 1.67318 112.435 1.11441 111.684L1.17427 111.646H1.25409C1.39378 111.722 1.39378 111.74 1.41374 111.74L1.45366 111.703C1.45366 110.707 1.77295 109.994 1.75299 109.392C1.43369 104.227 0.954739 103.776 1.09443 100.64C-0.282543 94.9673 1.4337 89.1634 2.17208 84.4302C2.79072 82.9088 1.61329 82.0636 2.99026 81.594C3.32952 80.899 3.18985 81.1244 3.44928 80.9178C3.44928 80.4858 3.32953 80.3731 3.34949 80.3731C5.64445 76.147 6.54246 71.5076 8.97711 68.4085C9.91505 60.7827 15.9219 57.1576 19.4541 52.8751L19.3344 52.6873L19.7535 51.8796C23.4453 46.7707 24.1238 43.7843 24.6627 39.746L24.6028 39.6333C16.2012 36.7971 27.2171 30.4297 23.7846 26.7107C26.0796 24.7761 28.7936 23.8182 29.6118 23.9497C32.0065 22.8415 33.0044 22.5785 32.5454 21.0571L32.4256 21.0008C32.9445 19.8362 33.3835 19.8175 33.3835 19.423C34.9002 17.6762 36.4568 18.2021 36.796 18.3336L36.9557 18.296C36.6563 17.1691 35.6585 15.2908 36.4168 15.103C38.2328 14.7085 37.8537 14.6898 38.4524 14.408V13.7694L38.173 13.4877C37.4945 13.3186 37.7739 13.2998 37.6741 13.2998C37.4546 12.6049 37.734 12.68 37.6741 12.6049C38.7517 11.9663 39.5899 12.0977 39.3304 11.985L39.4103 11.6845C38.0333 10.2946 38.0932 9.48692 38.3726 8.92344C39.9291 8.86709 40.428 8.11578 40.6675 7.72134C40.6675 6.68829 39.5899 6.63194 39.6098 6.12481C38.0133 6.59438 37.2949 4.02114 36.9557 3.98357C33.603 4.02114 34.5609 4.26532 34.1418 4.2841C32.705 3.90845 31.6673 3.26983 31.5076 3.43887C32.5853 2.01138 32.6851 2.93174 33.1041 2.72513C33.2638 3.04444 33.2039 2.95052 33.3037 3.02565C34.1019 0.527539 36.7561 0.546331 37.5743 0.583896C43.4215 2.78148 48.65 3.10079 51.2842 6.83856L51.0647 9.13005C53.2399 11.384 51.0647 15.4598 52.8208 16.399C52.7011 17.8453 52.0824 18.1458 52.2421 18.127L52.4017 18.6341C51.823 19.6484 52.1423 19.5921 52.282 20.0428C51.2842 21.2262 51.1844 23.1044 51.0248 23.2923L51.2243 23.8182C50.6057 25.3771 50.905 25.6401 51.1246 26.1097C50.9649 28.1946 48.2309 30.0541 48.65 30.1292L47.9316 29.9414L47.3129 30.1855L47.0735 30.6551C48.171 31.6318 48.6101 32.0262 48.5901 32.3643C49.3484 32.0075 49.3484 31.7821 49.4682 31.7633C50.8851 31.7257 50.8851 32.2516 51.0846 32.2704L51.2443 32.8339L51.0248 33.4537C49.8274 34.1111 49.4682 34.3178 49.4083 34.4117L49.6677 34.5244C51.1245 34.2426 51.9826 35.9143 52.3818 36.3275C52.6612 36.4778 52.8408 36.3651 52.8607 36.4214C53.3995 37.1915 53.18 37.2479 53.2798 37.5484C53.4195 37.6611 53.4195 37.6235 53.4395 37.6423H53.5193L53.5592 37.5859C53.5991 37.3981 53.5592 37.3042 53.5592 37.3042L53.5991 37.2479L53.659 37.2103C54.098 37.5108 53.9783 37.5296 54.098 37.6799V37.7738C53.9982 37.8489 54.0182 37.8677 54.0182 37.8677C54.0182 37.9992 54.0781 37.9992 54.0581 37.9992C60.3443 48.0855 61.8211 38.3748 66.7502 42.0563C67.0695 43.2208 67.0895 43.2959 67.1294 43.7843C66.1116 44.9488 67.2092 46.6768 65.9919 47.1464C66.0118 47.8977 66.6504 48.1043 66.7901 48.386L66.7502 48.4612C56.8719 47.9916 62.759 54.9412 57.6103 57.4957C61.382 59.4115 62.5794 64.821 66.0518 65.0839C63.6969 68.3333 64.2956 69.2349 66.7901 70.437C66.8899 75.5835 74.9522 76.2221 77.3669 77.3491H78.4246L78.3847 77.2927Z" fill="#2D73B5"/>
<path d="M78.3847 77.2927C76.5687 80.6173 71.1206 81.5001 69.7037 84.1109C69.8035 84.3363 69.8235 84.2236 69.8235 84.2611C70.4621 84.3175 70.7814 85.6698 70.9809 85.7074C59.2068 95.2491 70.4222 94.1972 73.2959 96.3572C72.9366 98.4421 69.125 97.935 70.5419 99.9823C77.9257 99.8884 69.1849 103.607 69.5042 103.814C68.4864 107.871 69.7037 109.148 72.0785 109.768C72.5176 113.412 69.9033 112.849 71.0209 114.389C63.3776 116.812 57.3708 119.779 50.9649 121.395C50.8252 121.601 50.905 121.564 50.8651 121.676C50.6456 121.789 50.6256 122.052 50.6256 121.996L50.5658 122.033H50.4859C49.8473 120.549 49.2287 119.742 48.63 119.066C45.9559 120.08 49.2287 122.277 48.6101 122.86C45.8361 122.465 45.2375 121.695 44.0601 121.188C43.7408 121.395 43.7408 121.47 43.7009 121.489C42.0844 120.7 41.5456 120.08 40.5677 120.287L40.5079 120.249C40.7673 118.915 41.0667 119.009 40.9669 118.671C40.887 118.54 40.8671 118.558 40.8671 118.558C30.0708 123.48 35.5388 116.436 31.5076 123.423C30.6695 110.576 26.2392 115.591 27.3767 112.379C23.126 114.501 22.4475 118.746 21.4298 121.376C16.9396 120.324 13.7466 119.291 11.8508 117.939C2.45145 116.868 11.0925 110.257 9.31639 108.604C7.32078 109.787 7.87953 109.355 6.86176 110.256C6.60233 110.294 6.68218 110.313 6.66222 110.313C6.52253 110.557 6.60233 110.482 6.58238 110.519C6.3429 110.707 6.1633 110.764 6.18326 110.764C5.08567 112.285 4.56682 113.863 4.10783 115.328C3.11002 115.178 2.67098 115.328 2.85058 114.727C2.63107 114.614 2.35168 114.802 2.35168 114.764C2.19203 113.525 1.67318 112.435 1.11441 111.684L1.17427 111.646H1.25409C1.39378 111.722 1.39378 111.74 1.41374 111.74L1.45366 111.703C1.45366 110.707 1.77295 109.994 1.75299 109.392C1.43369 104.227 0.954739 103.776 1.09443 100.64C-0.282543 94.9673 1.4337 89.1634 2.17208 84.4302C2.79072 82.9088 1.61329 82.0636 2.99026 81.594C3.32952 80.899 3.18985 81.1244 3.44928 80.9178C3.44928 80.4858 3.32953 80.3731 3.34949 80.3731C5.64445 76.147 6.54246 71.5076 8.97711 68.4085C9.91505 60.7827 15.9219 57.1576 19.4541 52.8751L19.3344 52.6873L19.7535 51.8796C23.4453 46.7707 24.1238 43.7843 24.6627 39.746L24.6028 39.6333C16.2012 36.7971 27.2171 30.4297 23.7846 26.7107C26.0796 24.7761 28.7936 23.8182 29.6118 23.9497C32.0065 22.8415 33.0044 22.5785 32.5454 21.0571L32.4256 21.0008C32.9445 19.8362 33.3835 19.8175 33.3835 19.423C34.9002 17.6762 36.4568 18.2021 36.796 18.3336L36.9557 18.296C36.6563 17.1691 35.6585 15.2908 36.4168 15.103C38.2328 14.7085 37.8537 14.6898 38.4524 14.408V13.7694L38.173 13.4877C37.4945 13.3186 37.7739 13.2998 37.6741 13.2998C37.4546 12.6049 37.734 12.68 37.6741 12.6049C38.7517 11.9663 39.5899 12.0977 39.3305 11.985L39.4103 11.6845C38.0333 10.2946 38.0932 9.48692 38.3726 8.92344C39.9291 8.86709 40.428 8.11578 40.6675 7.72134C40.6675 6.68829 39.5899 6.63194 39.6098 6.12481C38.0133 6.59438 37.2949 4.02114 36.9557 3.98357C33.603 4.02114 34.5609 4.26532 34.1418 4.2841C32.705 3.90845 31.6673 3.26983 31.5076 3.43887C32.5853 2.01138 32.6851 2.93174 33.1041 2.72513C33.2638 3.04444 33.2039 2.95052 33.3037 3.02565C34.1019 0.527539 36.7561 0.546331 37.5743 0.583896C43.4215 2.78148 48.65 3.10079 51.2842 6.83856L51.0647 9.13005C53.2399 11.384 51.0647 15.4598 52.8208 16.399C52.7011 17.8453 52.0824 18.1458 52.2421 18.127L52.4017 18.6341C51.823 19.6484 52.1423 19.5921 52.282 20.0428C51.2842 21.2262 51.1844 23.1044 51.0248 23.2923L51.2243 23.8182C50.6057 25.3771 50.905 25.6401 51.1246 26.1097C50.9649 28.1946 48.2309 30.0541 48.65 30.1292L47.9316 29.9414L47.3129 30.1855L47.0735 30.6551C48.171 31.6318 48.6101 32.0263 48.5901 32.3643C49.3484 32.0075 49.3484 31.7821 49.4682 31.7633C50.8851 31.7257 50.8851 32.2516 51.0846 32.2704L51.2443 32.8339L51.0248 33.4537C49.8274 34.1111 49.4682 34.3178 49.4083 34.4117L49.6677 34.5244C51.1245 34.2426 51.9826 35.9143 52.3818 36.3275C52.6612 36.4778 52.8408 36.3651 52.8607 36.4214C53.3995 37.1915 53.18 37.2479 53.2798 37.5484C53.4195 37.6611 53.4195 37.6235 53.4395 37.6423H53.5193L53.5592 37.5859C53.5991 37.3981 53.5592 37.3042 53.5592 37.3042L53.5991 37.2479L53.659 37.2103C54.098 37.5108 53.9783 37.5296 54.098 37.6799V37.7738C53.9982 37.8489 54.0182 37.8677 54.0182 37.8677C54.0182 37.9992 54.0781 37.9992 54.0581 37.9992C60.3443 48.0855 61.8211 38.3748 66.7502 42.0563C67.0695 43.2208 67.0895 43.2959 67.1294 43.7843C66.1116 44.9488 67.2092 46.6768 65.9919 47.1464C66.0118 47.8977 66.6504 48.1043 66.7901 48.386L66.7502 48.4612C56.8719 47.9916 62.759 54.9412 57.6103 57.4957C61.382 59.4115 62.5794 64.821 66.0518 65.0839C63.6969 68.3333 64.2956 69.2349 66.7901 70.437C66.8899 75.5835 74.9522 76.2221 77.3669 77.3491H78.4246L78.3847 77.2927Z" stroke="white" stroke-width="1.15034" stroke-linecap="round" stroke-linejoin="round"/>
</svg>
