<svg width="277" height="180" viewBox="0 0 277 180" fill="none" xmlns="http://www.w3.org/2000/svg">
<path d="M275.386 66.7516C275.386 66.7516 275.186 66.8644 274.967 67.0336C271.252 66.902 276.923 64.5527 270.434 66.0938C268.557 64.0076 265.861 61.0193 261.528 59.4781C261.528 59.403 261.468 59.4217 261.528 58.9519L261.468 58.8391C256.855 58.9143 252.661 55.2117 247.649 51.7723C245.413 51.0769 243.456 48.8216 242.238 45.758C240.8 45.0063 236.607 44.0665 238.204 40.1385C234.67 39.1423 236.786 34.594 235.987 30.2337C230.995 30.478 222.309 29.5947 217.357 30.5344C215.16 34.0114 210.707 38.9356 213.123 43.7846C211.705 43.4463 207.672 48.5209 206.154 45.1002C202.52 38.3154 191.657 38.992 192.955 54.4412C192.535 54.1405 191.297 54.4036 190.439 53.5766C191.417 55.1554 180.434 47.8818 178.857 43.7846C185.167 45.1566 179.496 37.2253 177.459 33.4476C179.496 31.399 176.82 24.5013 179.636 21.6821C178.597 19.1825 177.759 13.3373 174.244 9.69117C178.338 1.77864 173.246 6.72162 168.872 1.68467C167.634 0.707345 166.556 3.01908 164.839 0.575782C164.759 0.575782 164.659 1.19601 164.439 1.85382C156.931 2.88752 155.134 6.55247 149.603 13.4125L149.323 13.5253L149.024 13.3749C148.824 12.9051 149.083 12.7171 149.423 11.4955L149.083 11.3075C146.527 11.2699 145.709 16.1941 141.955 14.8409C141.435 15.5175 140.417 15.5363 139.139 16.4384C139.119 16.476 139.139 16.4572 139.059 16.7767C138.939 16.9083 138.56 16.7204 137.262 16.9647C138.52 15.5175 130.592 27.5649 130.153 22.6783C132.949 10.8376 123.484 31.944 109.865 15.5551C109.206 15.5551 109.186 15.931 106.53 16.2317C106.79 12.0593 106.59 5.33082 100.959 2.02297C96.8053 2.17333 95.2277 13.2058 89.2171 4.3723C89.1772 4.24073 89.1772 4.3535 89.1772 3.95882L89.0973 3.86484C88.7379 3.9964 88.658 5.25564 87.7195 6.60886C87.8792 6.68404 87.7195 6.66524 88.2187 6.72162L88.3585 6.89078C88.3585 6.89078 88.2786 6.89078 88.3585 7.47341C88.2986 7.52979 88.5382 7.37944 89.0774 7.56738C89.2371 7.75533 88.8377 7.96207 89.5566 8.18761C81.9884 8.78903 71.7245 7.09752 62.8783 8.39434C63.1579 10.7249 62.8783 13.7132 62.9382 17.942L63.2977 17.9796C63.118 18.1488 64.2362 17.1338 64.8952 17.6037V17.9232C64.8952 17.9232 68.6094 17.5097 69.7875 18.3931C70.2468 17.5661 72.6031 17.9796 72.8228 19.4456L73.1622 19.6523L73.0824 20.1786C73.0824 20.1786 73.5616 20.4041 73.981 20.7612V20.9679C73.981 20.9679 73.8811 21.0055 73.6215 21.1183C73.5616 21.2499 73.6215 21.3063 73.7413 22.4151C73.7413 22.4527 73.6415 22.5467 73.3619 22.8098L73.4019 23.0166C73.5017 23.2609 74.1008 23.0729 74.2206 23.9751L74.1207 24.163C74.1207 24.163 73.7613 24.2758 73.2222 24.1254C72.7828 24.4637 73.0025 24.5765 71.7045 24.4449L71.7644 24.0315L71.6247 23.8623C71.5048 23.8999 71.385 23.7496 70.6662 24.0879C70.6662 24.1442 68.6892 21.7949 67.0119 23.3737C66.932 23.3925 67.1317 23.3925 66.6125 23.9375C66.6125 24.0127 66.2131 23.7495 65.4144 23.6744C64.7155 24.6329 62.1595 24.7081 59.9829 25.0652L59.7432 24.8584C60.7217 27.4521 56.5283 36.1728 62.5588 38.3906C63.3176 40.1197 68.9289 40.8151 66.4527 44.3297C66.5127 44.48 66.4328 44.4424 67.3314 45.5137C67.4711 46.5098 67.8705 47.0737 69.0287 48.1638C69.0287 48.2014 69.2883 48.1074 69.3882 48.3893L69.3482 48.4269C69.3482 48.4269 69.468 49.0471 69.3083 49.6297C69.2084 49.5734 69.6478 49.8741 70.0671 50.9642C67.2515 64.9286 64.7155 80.265 61.161 96.0149C61.5604 96.6351 59.6434 98.7965 59.0843 96.4472C58.3654 96.184 58.2056 96.4284 57.367 97.5936C57.367 97.5936 57.2272 97.4245 56.9676 97.011C56.4883 96.8418 56.8278 97.3305 55.6297 96.1652C55.3901 96.1464 56.1489 95.2443 55.41 94.6241L55.2103 94.5677L54.9308 95C54.172 94.7368 54.0122 93.9851 52.4946 95.2067L52.3348 95.1127C52.3348 95.1127 52.3947 95.1879 52.215 94.6804L51.9754 94.5865L51.7158 94.6993C51.7158 94.6993 51.7158 94.9812 51.4163 95.3759L50.6774 94.9624C50.6774 94.9624 50.7174 94.7744 50.6974 94.2482L50.4578 94.1918C50.2581 94.3422 50.0983 94.1354 49.8787 94.906L49.699 95.0376C49.5592 95.3383 48.6805 94.1918 47.3227 95.3195L47.2827 95.5262L47.4225 95.8833L47.3826 96.0149C47.3826 96.0149 47.4625 95.9397 46.9033 96.2028C46.7036 96.7667 46.3242 97.1614 45.4057 98.1951C45.3857 98.1387 45.3657 98.2514 44.8266 97.6312L44.7467 97.9507L44.4472 98.1951L43.6285 97.8755L43.249 98.0259C43.249 98.0259 43.249 98.2138 42.8896 98.4394L42.65 98.4018C42.65 98.4018 42.61 98.3454 42.2506 97.8567C42.1308 97.8943 42.031 97.9319 41.5517 98.5709L41.1124 98.1199C41.1124 98.1199 40.713 97.7628 40.1139 98.3454C40.1139 98.3454 40.074 98.4958 40.1139 98.8153L39.9542 99.0032C39.9542 99.0032 39.9542 99.0032 39.7146 98.928C39.5548 98.928 39.6746 99.116 39.1954 99.2851C39.1155 99.2663 39.1355 99.1912 38.816 98.928C38.4765 99.0408 36.8191 98.6649 36.6394 99.661C36.0803 99.661 36.22 99.3603 35.1817 99.8866L35.2416 99.5671C35.1817 99.4543 35.0219 99.8678 34.4229 99.9805C34.2431 99.9054 34.3829 99.9242 33.8837 99.6046C33.5442 99.7362 33.4044 99.943 32.5458 99.6046L32.426 99.661C32.426 99.661 32.426 99.7738 32.3062 99.9242C32.0066 99.7362 29.85 100.526 28.4722 101.578C28.4722 101.597 28.3524 101.465 28.0329 101.447C27.5736 102.123 26.2157 103.871 23.9193 103.777C23.6397 104.115 23.9992 104.021 23.0606 104.228L22.9009 104.397C22.9408 104.247 22.8609 105.995 21.6429 105.826C21.543 105.976 21.6628 106.183 21.3433 106.483C20.8441 106.483 19.5661 106.972 19.1468 108.025C19.0469 108.231 18.5876 108.288 17.3695 108.081C17.05 108.25 16.9103 108.833 15.6922 108.626C15.6722 108.664 15.6522 108.626 15.6123 108.983C15.3727 109.115 15.4725 109.058 14.6738 109.228L14.6138 109.453C15.8918 116.031 8.92275 119.508 10.68 129.751C7.58485 131.499 1.35459 132.458 0.575813 138.434L0.655688 138.66C34.0634 149.561 79.8318 162.623 110.604 179.2C110.324 179.369 111.702 178.523 111.982 177.865C112.081 177.809 112.061 177.865 112.74 177.865C113.2 176.681 118.172 176.193 117.453 172.735C120.348 173.261 124.702 171.513 127.357 175.14C130.313 173.11 132.07 173.204 136.124 170.46L136.264 170.517C139.778 178.937 137.202 165.16 148.604 166.25C149.263 165.499 151.6 165.555 153.197 166.1L153.337 166.044C153.576 165.574 152.578 162.924 153.377 161.965L153.517 162.003C153.517 162.003 153.556 162.116 153.816 162.36C159.128 161.627 151.919 156.909 159.327 155.913C159.048 153.263 161.105 156.27 162.522 151.779C169.871 152.512 175.003 149.279 178.258 157.173C181.972 155.857 180.235 160.499 184.069 160.875C184.029 161.42 184.308 162.191 184.808 163.394C191.297 166.758 186.285 161.477 192.915 162.51C192.955 162.736 192.955 162.51 192.895 163.224L241.219 162.924C246.012 157.906 242.677 148.414 247.669 141.949C247.43 138.284 242.358 137.006 242.457 132.476C249.746 123.098 270.733 77.1451 275.346 67.9733C274.667 67.3343 275.326 67.2403 276.424 66.5073V66.4509L275.526 66.6953L275.386 66.7516Z" fill="#2D73B5"/>
<path d="M275.386 66.7516C275.386 66.7516 275.186 66.8644 274.967 67.0336C271.252 66.902 276.923 64.5527 270.434 66.0938C268.557 64.0076 265.861 61.0193 261.528 59.4781C261.528 59.403 261.468 59.4217 261.528 58.9519L261.468 58.8391C256.855 58.9143 252.661 55.2117 247.649 51.7723C245.413 51.0769 243.456 48.8216 242.238 45.7581C240.8 45.0063 236.607 44.0665 238.204 40.1385C234.67 39.1423 236.786 34.594 235.987 30.2337C230.995 30.478 222.309 29.5947 217.357 30.5344C215.16 34.0114 210.707 38.9356 213.123 43.7846C211.705 43.4463 207.672 48.5209 206.154 45.1002C202.52 38.3154 191.657 38.992 192.955 54.4412C192.535 54.1405 191.297 54.4036 190.439 53.5766C191.417 55.1554 180.434 47.8818 178.857 43.7846C185.167 45.1566 179.496 37.2253 177.459 33.4476C179.496 31.399 176.82 24.5013 179.636 21.6821C178.597 19.1825 177.759 13.3373 174.244 9.69117C178.338 1.77864 173.246 6.72162 168.872 1.68467C167.634 0.707345 166.556 3.01908 164.839 0.575782C164.759 0.575782 164.659 1.19601 164.439 1.85382C156.931 2.88752 155.134 6.55247 149.603 13.4125L149.323 13.5253L149.024 13.3749C148.824 12.9051 149.083 12.7171 149.423 11.4955L149.083 11.3075C146.527 11.2699 145.709 16.1941 141.955 14.8409C141.435 15.5175 140.417 15.5363 139.139 16.4384C139.119 16.476 139.139 16.4572 139.059 16.7767C138.939 16.9083 138.56 16.7204 137.262 16.9647C138.52 15.5175 130.592 27.5649 130.153 22.6783C132.949 10.8376 123.484 31.944 109.865 15.5551C109.206 15.5551 109.186 15.931 106.53 16.2317C106.79 12.0593 106.59 5.33082 100.959 2.02297C96.8053 2.17333 95.2277 13.2058 89.2171 4.3723C89.1772 4.24073 89.1772 4.3535 89.1772 3.95882L89.0973 3.86484C88.7379 3.9964 88.658 5.25564 87.7195 6.60886C87.8792 6.68404 87.7195 6.66524 88.2187 6.72162L88.3585 6.89078C88.3585 6.89078 88.2786 6.89078 88.3585 7.47341C88.2986 7.52979 88.5382 7.37944 89.0773 7.56738C89.2371 7.75533 88.8377 7.96207 89.5566 8.18761C81.9884 8.78903 71.7245 7.09752 62.8783 8.39434C63.1579 10.7249 62.8783 13.7132 62.9382 17.942L63.2977 17.9796C63.118 18.1488 64.2362 17.1338 64.8952 17.6037V17.9232C64.8952 17.9232 68.6094 17.5097 69.7875 18.3931C70.2468 17.5661 72.6031 17.9796 72.8228 19.4456L73.1622 19.6523L73.0824 20.1786C73.0824 20.1786 73.5616 20.4041 73.981 20.7612V20.9679C73.981 20.9679 73.8811 21.0055 73.6215 21.1183C73.5616 21.2499 73.6215 21.3063 73.7413 22.4151C73.7413 22.4527 73.6415 22.5467 73.3619 22.8098L73.4019 23.0166C73.5017 23.2609 74.1008 23.0729 74.2206 23.9751L74.1207 24.163C74.1207 24.163 73.7613 24.2758 73.2222 24.1254C72.7828 24.4637 73.0025 24.5765 71.7045 24.4449L71.7644 24.0315L71.6247 23.8623C71.5048 23.8999 71.385 23.7496 70.6662 24.0879C70.6662 24.1442 68.6892 21.7949 67.0119 23.3737C66.932 23.3925 67.1317 23.3925 66.6125 23.9375C66.6125 24.0127 66.2131 23.7495 65.4144 23.6744C64.7155 24.6329 62.1595 24.7081 59.9829 25.0652L59.7432 24.8584C60.7217 27.4521 56.5283 36.1728 62.5588 38.3906C63.3176 40.1197 68.9289 40.8151 66.4527 44.3297C66.5127 44.48 66.4328 44.4424 67.3314 45.5137C67.4711 46.5098 67.8705 47.0737 69.0287 48.1638C69.0287 48.2014 69.2883 48.1074 69.3882 48.3893L69.3482 48.4269C69.3482 48.4269 69.468 49.0471 69.3083 49.6297C69.2084 49.5734 69.6477 49.8741 70.0671 50.9642C67.2515 64.9286 64.7155 80.265 61.161 96.0149C61.5604 96.6351 59.6434 98.7965 59.0843 96.4472C58.3654 96.184 58.2056 96.4284 57.367 97.5936C57.367 97.5936 57.2272 97.4245 56.9676 97.011C56.4883 96.8418 56.8278 97.3305 55.6297 96.1652C55.39 96.1464 56.1489 95.2443 55.41 94.6241L55.2103 94.5677L54.9308 95C54.172 94.7368 54.0122 93.9851 52.4946 95.2067L52.3348 95.1127C52.3348 95.1127 52.3947 95.1879 52.215 94.6805L51.9754 94.5865L51.7158 94.6993C51.7158 94.6993 51.7158 94.9812 51.4163 95.3759L50.6774 94.9624C50.6774 94.9624 50.7174 94.7744 50.6974 94.2482L50.4578 94.1918C50.2581 94.3422 50.0983 94.1354 49.8787 94.906L49.699 95.0376C49.5592 95.3383 48.6805 94.1918 47.3227 95.3195L47.2827 95.5262L47.4225 95.8833L47.3826 96.0149C47.3826 96.0149 47.4625 95.9397 46.9033 96.2028C46.7036 96.7667 46.3242 97.1613 45.4057 98.1951C45.3857 98.1387 45.3657 98.2514 44.8266 97.6312L44.7467 97.9507L44.4472 98.1951L43.6285 97.8755L43.249 98.0259C43.249 98.0259 43.249 98.2138 42.8896 98.4394L42.65 98.4018C42.65 98.4018 42.61 98.3454 42.2506 97.8567C42.1308 97.8943 42.031 97.9319 41.5517 98.5709L41.1124 98.1199C41.1124 98.1199 40.713 97.7628 40.1139 98.3454C40.1139 98.3454 40.074 98.4958 40.1139 98.8153L39.9542 99.0032C39.9542 99.0032 39.9542 99.0032 39.7146 98.928C39.5548 98.928 39.6746 99.116 39.1954 99.2851C39.1155 99.2663 39.1355 99.1912 38.816 98.928C38.4765 99.0408 36.8191 98.6649 36.6394 99.661C36.0803 99.661 36.22 99.3603 35.1817 99.8866L35.2416 99.5671C35.1817 99.4543 35.0219 99.8678 34.4229 99.9805C34.2431 99.9054 34.3829 99.9242 33.8837 99.6046C33.5442 99.7362 33.4044 99.943 32.5458 99.6046L32.426 99.661C32.426 99.661 32.426 99.7738 32.3062 99.9242C32.0066 99.7362 29.85 100.526 28.4722 101.578C28.4722 101.597 28.3524 101.465 28.0329 101.447C27.5736 102.123 26.2157 103.871 23.9193 103.777C23.6397 104.115 23.9992 104.021 23.0606 104.228L22.9009 104.397C22.9408 104.247 22.8609 105.995 21.6429 105.826C21.543 105.976 21.6628 106.183 21.3433 106.483C20.8441 106.483 19.5661 106.972 19.1468 108.025C19.0469 108.231 18.5876 108.288 17.3695 108.081C17.05 108.25 16.9103 108.833 15.6922 108.626C15.6722 108.664 15.6522 108.626 15.6123 108.983C15.3727 109.115 15.4725 109.058 14.6738 109.227L14.6138 109.453C15.8918 116.031 8.92275 119.508 10.68 129.751C7.58485 131.499 1.35459 132.458 0.575813 138.434L0.655688 138.66C34.0634 149.561 79.8318 162.623 110.604 179.2C110.324 179.369 111.702 178.523 111.982 177.865C112.081 177.809 112.061 177.865 112.74 177.865C113.2 176.681 118.172 176.193 117.453 172.735C120.348 173.261 124.702 171.513 127.357 175.14C130.313 173.11 132.07 173.204 136.124 170.46L136.264 170.517C139.778 178.937 137.202 165.16 148.604 166.25C149.263 165.499 151.6 165.555 153.197 166.1L153.337 166.044C153.576 165.574 152.578 162.924 153.377 161.965L153.517 162.003C153.517 162.003 153.556 162.116 153.816 162.36C159.128 161.627 151.919 156.909 159.327 155.913C159.048 153.263 161.105 156.27 162.522 151.779C169.871 152.512 175.003 149.279 178.258 157.173C181.972 155.857 180.235 160.499 184.069 160.875C184.029 161.42 184.308 162.191 184.808 163.394C191.297 166.758 186.285 161.477 192.915 162.51C192.955 162.736 192.955 162.51 192.895 163.224L241.219 162.924C246.012 157.906 242.677 148.414 247.669 141.949C247.43 138.284 242.358 137.006 242.457 132.476C249.746 123.098 270.733 77.1451 275.346 67.9733C274.667 67.3343 275.326 67.2403 276.424 66.5073V66.4509L275.526 66.6953L275.386 66.7516Z" stroke="white" stroke-width="1.15034" stroke-linecap="round" stroke-linejoin="round"/>
</svg>
