<svg width="94" height="99" viewBox="0 0 94 99" fill="none" xmlns="http://www.w3.org/2000/svg">
<path d="M92.313 58.6192C91.4513 58.0534 87.9846 58.6003 86.8022 56.2427C86.8022 56.1673 86.7822 56.3747 86.702 55.7146L86.5217 55.4883C86.5217 55.4883 86.4215 55.5637 85.8604 55.5072C85.8203 55.4694 85.8404 55.4883 85.64 55.1299C84.4777 54.1492 83.4157 52.678 81.1112 52.0556V51.9425C81.2515 51.6973 81.2715 51.7916 81.6723 51.0183V50.8297L81.6121 50.8108C81.4118 50.9617 80.9709 50.4148 80.0291 50.6599C79.6884 48.7173 80.3898 47.2839 80.1493 44.5491L79.8086 44.1907C79.1674 44.0964 78.5061 43.9267 77.424 42.8516C77.4641 42.7196 77.3839 42.7762 77.6044 42.4744C77.5442 42.2103 77.4841 40.5506 76.5022 39.683C76.5022 39.6641 76.5423 39.683 76.6024 39.3812C75.9612 38.2496 75.5604 34.0248 77.404 31.8746L77.4641 31.7803C77.4641 31.7803 77.444 31.7238 77.3038 31.422L77.3639 31.3843L77.5643 31.3465L77.6044 31.29C77.6444 31.1579 77.3438 31.1957 77.3839 30.7619C77.8248 30.2526 77.7847 30.0452 78.5462 28.4609C78.6063 28.4043 78.6865 28.5363 78.8868 28.3477V28.2534C78.7666 27.8573 78.7466 28.1968 78.8468 27.2349L78.5662 27.3292C78.6263 27.0274 78.5261 27.2349 78.8868 26.4616C78.8668 26.3673 78.8468 26.141 78.2256 25.462V25.0282C79.0472 24.7642 80.9709 23.0478 82.4137 21.7653C82.5139 21.3692 81.9929 20.2187 83.4156 19.9169L83.4958 19.8415C83.4958 19.8415 83.5559 19.8415 83.4958 19.5774C83.3155 19.4454 83.4557 19.3511 82.5339 19.3134L82.4337 19.2568V18.8796C82.1532 18.559 82.3135 18.6344 81.3717 17.6348C81.3316 17.6348 81.4318 17.333 81.6322 16.8238C81.6322 16.654 79.2876 16.1825 80.3898 14.9C80.3898 14.8623 80.3898 14.8623 80.1693 14.5605C79.969 14.5228 80.9308 14.1267 80.9909 13.1648L80.9308 13.1082C80.1092 12.7876 80.6703 13.0139 79.0471 11.9011L78.9269 12.0332C78.9269 12.0332 78.5863 12.0143 78.1454 11.9577L78.0853 11.8634L78.1254 11.6748L78.0652 11.6182C78.0652 11.6182 77.945 11.6182 77.404 11.7691C77.3238 11.8068 77.0633 11.0713 76.4621 11.3353C76.4421 11.3353 76.5022 11.3353 76.3018 11.5616C76.1615 11.5051 75.7006 11.4107 75.0193 11.4862C74.9792 11.5428 75.0394 10.9581 74.4983 11.0147C74.4983 11.0524 74.4182 11.0147 74.3781 11.2976L74.2779 11.3542C74.0574 11.2976 73.2759 11.3542 73.4963 10.4111L73.9172 9.99619C76.1615 8.99657 75.5002 5.90341 76.3218 2.69709C75.6205 2.15012 74.859 2.60278 73.9773 0.358354L73.2759 0.603544C73.2759 0.603544 73.1156 0.697847 72.8952 0.0565822L72.6948 0C72.4744 0.075443 71.8932 0 70.8111 1.09392C70.6708 1.16937 70.6107 1.01848 69.4485 0.886455C69.3483 0.886455 69.4284 0.999619 68.9876 1.37683H68.8673C67.8053 1.01848 66.7031 0.678987 64.3786 0.961898C65.7212 1.09392 66.0819 2.15012 66.7232 4.71518C66.3625 5.35645 65.3204 7.78948 61.9138 8.29872C61.3928 10.5809 59.3288 12.2218 55.2809 11.0901L55.1607 11.2599C55.0404 11.2599 55.5013 11.3919 55.6416 12.1652C54.8801 12.9762 54.319 12.1652 52.3352 12.8442C51.8542 12.9196 52.4554 14.7868 51.2931 15.1263C46.2433 15.0509 43.8386 18.6155 37.1256 16.2202C36.8851 16.6729 37.1656 16.7106 35.9633 16.9558L35.823 17.1256C35.7228 17.5216 35.9232 17.3896 35.6026 18.2572C35.6627 18.6344 33.9995 17.7291 32.3563 18.5024C31.3143 20.4828 34.0195 22.6895 31.8753 24.783C31.8353 24.783 31.8753 24.8207 31.4746 24.7641C27.5068 27.0086 27.1461 19.9169 21.936 19.2945C21.8158 19.3888 21.6154 19.6152 21.2547 20.7845L20.5934 20.9731C18.8901 19.8604 15.4834 18.6344 12.9184 20.5771H12.2572C10.8344 17.7291 10.9747 15.4658 3.52016 17.0501L3.21957 16.9369C2.6184 16.3711 3.1394 15.3904 1.03531 14.5416L0.313905 14.5982C-0.708085 16.7483 0.9752 15.0131 2.35789 18.8607C4.32171 22.4443 11.0147 21.0297 9.27134 31.1768C10.0128 33.9493 14.3613 36.8727 12.0768 41.4559L12.3173 41.5879C14.8422 41.8897 17.3871 41.9274 22.8778 42.3235L22.9379 42.5121C22.6173 42.7762 23.0782 43.4363 22.5372 44.9451C23.0381 46.3031 25.3627 45.7373 26.585 46.0579C26.4047 50.1884 37.0053 45.0394 31.9755 54.0926C34.9413 57.6007 35.4423 59.7885 37.3861 66.1258C34.7609 67.8798 37.346 73.5003 35.2018 77.9326C35.0816 79.1585 44.2194 89.1358 36.6045 88.306C36.9452 92.5874 43.6783 92.3233 46.584 98.4908C47.2853 98.6417 46.8044 98.5851 48.2272 98.1324C48.8484 98.6982 49.2492 98.6228 50.7521 99C48.7482 93.1532 56.5433 77.2536 64.0179 90.0412C63.9377 91.0596 68.0257 90.8522 68.3463 89.4565C76.0012 86.0238 64.1782 91.0031 75.2397 74.9903C77.0032 74.1604 90.5896 74.8583 93.9361 74.6885L92.333 58.6192H92.313Z" fill="#2D73B5"/>
</svg>
