<svg width="143" height="90" viewBox="0 0 143 90" fill="none" xmlns="http://www.w3.org/2000/svg">
<path d="M108.869 67.1422C107.89 66.7288 108.21 66.804 107.871 66.8228L107.711 66.9919C107.092 67.0294 106.833 66.4095 106.852 66.447L107.072 66.3531C107.252 66.3907 107.292 66.4658 107.272 66.447C107.471 66.2216 107.252 66.0149 107.272 66.0149C108.23 66.1464 108.19 66.1088 108.449 66.1276C108.489 66.2404 108.429 66.2403 108.449 66.2591C108.829 66.7852 108.889 66.9731 108.889 66.9731V67.161L108.869 67.1422Z" fill="#2D73B5"/>
<path d="M108.869 67.1422C107.89 66.7288 108.21 66.804 107.871 66.8228L107.711 66.9919C107.092 67.0294 106.833 66.4095 106.852 66.447L107.072 66.3531C107.252 66.3907 107.292 66.4658 107.272 66.447C107.471 66.2216 107.252 66.0149 107.272 66.0149C108.23 66.1464 108.19 66.1088 108.449 66.1276C108.489 66.2404 108.429 66.2403 108.449 66.2591C108.829 66.7852 108.889 66.9731 108.889 66.9731V67.161L108.869 67.1422Z" stroke="white" stroke-width="1.15034" stroke-linecap="round" stroke-linejoin="round"/>
<path d="M90.6434 78.396V78.5087C87.4695 80.3311 84.8145 82.1724 83.7166 84.1639L83.537 84.0888C83.6568 83.093 83.9362 83.0742 83.8564 82.9239C86.4714 80.5002 88.2081 79.1851 90.2641 78.5839C90.6634 78.3584 90.6235 78.4335 90.6634 78.4147L90.6434 78.396Z" fill="#2D73B5"/>
<path d="M90.6434 78.396V78.5087C87.4695 80.3311 84.8145 82.1724 83.7166 84.1639L83.537 84.0888C83.6568 83.093 83.9362 83.0742 83.8564 82.9239C86.4714 80.5002 88.2081 79.1851 90.2641 78.5839C90.6634 78.3584 90.6235 78.4335 90.6634 78.4147L90.6434 78.396Z" stroke="white" stroke-width="1.15034" stroke-linecap="round" stroke-linejoin="round"/>
<path d="M141.007 47.3016C141.027 49.1241 138.312 48.9926 137.773 49.0489C137.713 48.8611 137.693 48.8235 137.693 48.8047L137.634 48.7671C135.039 49.7253 134.02 49.838 132.443 51.0217C132.743 53.5205 130.587 54.6478 132.164 56.0005H132.264C132.424 55.9066 132.384 55.9066 132.404 55.9066H132.483L132.583 55.9442C132.843 56.583 133.561 56.8836 133.501 56.8648L133.422 57.0902C132.863 57.2406 132.683 57.2593 132.643 57.2969L132.364 57.1654C131.885 57.3721 131.984 57.3909 131.944 57.3909H131.665C131.445 57.1466 131.485 57.0151 131.445 57.0151C131.126 56.8272 130.827 57.109 130.807 57.0714L130.906 56.6957C129.669 57.0714 130.028 57.2218 129.689 57.3533C129.569 57.8606 128.711 57.7666 128.751 57.9169H128.631L128.531 57.7478L128.411 58.1048C128.87 58.4618 129.09 58.5745 129.07 58.6309H128.651C128.032 59.1569 128.132 59.6266 128.092 59.5139L127.932 59.2321L127.752 59.1381L127.653 59.2321L127.772 59.5139C127.233 59.4012 127.034 59.0442 126.874 59.063C126.675 59.5515 126.954 59.7018 126.914 59.7394L126.615 59.7957C126.096 59.5703 126.096 59.683 126.036 59.6454L125.816 59.946C126.036 60.3218 125.976 60.2654 126.016 60.4157C125.597 60.5848 125.118 60.7351 125.217 60.7163L125.018 60.66C124.738 60.3594 124.738 60.4345 124.618 60.3782C124.02 60.7727 123.261 61.2236 123.061 61.2612L122.682 61.1485C122.143 61.8061 122.502 62.3509 122.522 62.6515C122.802 62.8018 122.782 62.7079 122.802 62.7455L122.902 62.8206C122.942 63.2903 122.742 63.403 122.802 63.3842C122.922 63.7412 123.041 63.8352 123.002 63.8164C122.982 65.0564 121.644 64.2861 121.165 64.6806C120.466 64.4176 120.546 64.023 120.486 64.117C119.448 63.9103 119.628 64.2861 119.368 64.0794L119.309 63.9479C119.029 63.8352 118.889 63.9291 118.929 63.8915H118.909C115.835 63.0273 113.879 63.3467 113.021 64.5303C112.202 64.2673 111.284 65 111.304 64.9061C111.244 64.831 111.264 64.7746 111.264 64.7934H111.164C110.765 65.9019 109.867 65.7516 109.747 65.9019V66.0146C111.004 65.9394 111.264 64.7934 111.683 65.1316C110.466 66.334 110.905 66.2025 110.825 67.0104C110.525 67.3486 110.525 67.1794 110.505 67.2358H110.346C110.246 66.954 110.186 67.0291 110.186 66.9916C109.447 67.0479 109.048 67.7055 108.928 67.6492L108.469 67.574L108.589 67.3298L108.988 67.1982L109.128 67.0104C109.048 65.9394 108.11 65.8455 107.751 65.6013L107.831 65.4697V65.357L107.411 65.2819C107.272 65.7328 107.411 65.7516 107.371 65.7703C107.052 66.0897 107.032 65.9019 107.032 65.9582C106.992 66.2213 107.072 66.1649 107.032 66.2025V66.2588C106.154 66.1837 106.413 66.1273 106.313 66.1461L106.373 66.334C106.733 66.5782 106.633 66.4467 106.733 66.5407C106.912 67.0667 106.932 66.9916 106.952 67.0291C107.371 67.1231 107.491 67.0479 107.531 67.0855L107.611 67.1982C107.611 67.6867 107.611 67.5552 107.551 67.7243L107.391 67.8182C107.391 67.4801 107.072 67.5176 107.072 67.4801C102.64 69.8662 99.1471 70.5425 97.7299 73.2668C97.5502 73.4171 97.5901 73.4171 97.5702 73.4359C97.7897 73.9244 97.7299 73.7929 97.7299 73.962C97.1709 74.4505 97.2109 74.225 97.1709 74.3002L96.9314 74.2438V73.8868L96.5721 74.5632C94.8753 75.9911 91.4618 77.9451 90.7432 78.3208L90.5436 78.2644C90.0046 78.4335 89.8649 78.5651 89.8849 78.5463C89.4457 78.4147 89.4856 78.4711 89.3459 78.4523L89.2061 78.6966C85.3934 80.6505 83.9362 82.8675 82.5988 84.333L81.8203 84.2391L81.96 83.976C82.4391 83.9009 82.3593 83.9948 82.3992 83.976L82.5788 83.9009V83.7318C81.9201 83.5815 81.6406 83.7318 81.7205 83.6942L81.6206 83.7694C81.6206 84.1075 81.5807 84.2578 81.5608 84.2578L81.441 84.3142L81.3013 84.2578L81.1815 84.1075V84.3706C82.0798 84.8215 82.479 84.6712 82.7784 84.8215C83.2575 84.4645 83.5969 84.4081 83.7566 84.4457C83.1178 86.5688 83.1378 86.0991 82.7385 86.7942C80.6825 87.3391 81.0019 88.3161 80.6825 88.5227C80.8422 87.79 81.6806 87.1324 81.461 87.2452C81.3612 87.0197 81.3212 87.0948 81.3212 87.0573C78.4667 88.6355 78.8659 84.1075 78.3469 83.7318L77.808 84.07C77.6083 84.07 77.6283 84.0512 77.6083 84.0512C77.5484 83.8633 77.5285 83.8069 77.5285 83.7881C77.0294 83.6003 76.8099 83.8633 76.6901 83.713C76.6901 82.999 75.4924 83.093 75.4524 82.8487C75.3327 82.8487 75.3527 82.8487 75.3127 82.8487C74.4144 83.4687 74.7538 84.2202 74.0951 84.8403C71.6797 84.5021 73.2566 82.3602 73.4563 81.5336C73.3365 80.8008 73.3165 80.5754 73.3964 80.4063C74.1749 80.0493 74.2947 79.4857 74.2547 79.2414C72.2985 78.565 72.9572 77.8699 71.5798 78.6966L71.4601 78.6402C71.3603 78.302 71.3004 78.1893 71.3004 78.2081H71.1207L71.0608 78.3584C69.9829 78.6966 70.1625 78.2832 69.7434 78.5463H69.6635C69.0647 78.1705 69.0048 78.0202 68.905 78.0014H68.5457C68.6255 78.1141 68.6255 78.1329 68.6454 78.1329C66.6293 78.1893 66.789 78.1705 66.5694 78.0953L66.1103 77.6256L65.771 77.5317V78.0766C64.3537 78.9032 63.655 77.8511 63.2957 78.4711C62.4573 78.4523 61.6389 78.0954 61.559 78.0578C61.4991 77.0057 61.04 76.3481 61.3195 75.8784H61.7187C61.8385 75.7656 61.8185 75.728 61.8185 75.728C61.7187 75.3335 61.9782 74.8074 61.9383 74.9014C61.4991 74.6195 61.6389 74.7323 61.559 74.5256C62.1579 74.1123 62.4174 74.1874 62.4772 73.9432V73.868C62.2177 73.6238 62.2976 73.6238 62.2776 73.605C63.4754 72.7971 61.1598 71.9892 61.3993 71.2001C61.02 69.0207 58.6246 68.1752 58.1455 66.2964V66.2213L58.0457 66.1837C57.2672 66.1085 56.6484 65.1691 56.7682 64.8873C57.7862 64.5491 57.387 62.0879 57.4269 62.3697C55.8898 61.2988 56.7482 59.9272 55.9098 59.4012C57.906 51.0593 52.3965 53.8963 51.8975 51.1532L51.7977 50.9465C51.2587 50.6271 51.0192 50.6083 51.0791 50.5895L50.9593 50.4017C51.099 49.5938 50.8395 49.7253 50.6399 49.5562L50.5201 49.6126V49.8756C47.9251 50.0823 47.2264 50.552 46.0886 50.1574C45.8491 50.3829 45.9089 50.4205 45.869 50.4205C44.7711 49.8944 44.0325 49.5562 43.6931 50.3265L43.5335 50.2514C35.9679 50.4768 31.2769 44.878 24.3102 45.6107C23.8112 45.9301 23.8112 45.7234 23.7513 45.7798C23.0726 45.2537 22.9728 45.0283 22.9728 45.0658C19.22 45.1034 18.5612 42.6234 16.7447 43.8446C16.4652 44.9343 16.0061 45.498 15.527 45.4792C15.1877 44.4646 14.1696 44.8592 14.0099 45.0658C12.3531 44.7089 11.3749 44.9155 10.7561 45.0095C9.63825 44.3143 9.95766 44.4271 9.83789 44.3707L9.27896 44.2955C4.80751 44.9156 3.13071 44.2016 0.575598 46.4186C2.17255 45.141 2.23242 43.7507 2.47197 43.807C3.47006 43.6755 3.58983 42.3604 3.84934 42.4543L3.98906 42.5482C14.8084 37.87 13.451 33.4924 18.3017 29.9039C18.4814 29.2087 18.162 29.3778 18.1819 29.2463L17.9823 29.1711L17.3036 28.0626L17.3435 27.6305C19.8787 26.9729 22.0346 23.8353 21.0165 21.6183C24.7494 19.0631 24.969 15.174 25.6077 12.9757C26.3064 12.5436 26.7256 12.6752 26.6458 12.6188C31.9157 7.15146 37.525 4.05141 41.7169 0.575613C47.426 1.98472 55.5305 2.3417 60.2016 3.28111C61.7786 2.94292 61.4592 3.03686 62.2776 3.22474L62.4373 3.43141L62.3175 3.71322C61.5989 3.95747 61.8784 3.84473 61.6189 3.99503C60.9003 5.98657 62.5771 7.48963 62.8565 8.20358L63.3955 8.42903C65.1322 7.77145 65.1721 5.6672 65.6113 5.83629L66.2301 5.96779C67.328 7.79024 66.4097 10.026 66.7491 9.87572C67.6873 10.5521 67.7871 10.3454 67.827 10.477C68.4059 10.026 68.2462 10.1951 68.366 9.98845C68.0266 8.59813 68.2063 8.09085 68.0266 7.67752C68.6055 6.83205 68.5856 6.26841 68.7253 6.15568C72.1588 6.00538 76.0114 4.72779 77.8878 5.74234H78.1872L78.5465 5.36659L78.1673 4.25807L78.4866 3.80717C79.7043 6.64417 82.2794 6.15567 82.1596 4.03262C83.1577 4.25808 82.6387 5.23506 83.1378 5.38536C83.537 5.44173 83.8564 5.14113 83.8564 5.15992C84.3355 4.16415 83.9562 4.07019 83.9362 3.67564C87.1102 2.30411 86.8307 3.76958 87.729 4.2017L88.1082 4.12656C88.5674 3.67565 88.5275 3.50655 88.6273 3.46897C89.6653 3.31866 90.0845 3.1308 90.3639 2.96171C91.1824 3.46899 90.9428 3.67566 90.843 4.10779V4.18293C91.5018 4.91566 91.4019 4.69021 91.8211 4.80294C93.3981 5.6484 93.0987 5.7987 93.7375 6.23082C93.9371 6.88841 94.0769 6.79447 94.0569 6.85083C91.0427 11.6794 98.668 12.9946 95.3145 14.6103C95.1747 15.4558 94.9552 15.8128 94.5559 16.0194C93.6776 18.6874 94.6757 17.7667 95.4542 19.0631C95.0749 22.0316 98.2688 23.2904 97.7299 25.7141C99.746 26.1087 99.726 25.6953 100.584 25.0753C102.181 24.9062 102.461 26.0711 103.299 25.2256L103.359 25.282C103.399 25.6389 103.399 25.545 103.439 25.6765C103.778 25.902 103.818 25.808 103.858 25.8644C103.978 26.0711 103.958 26.1462 103.998 26.165C105.435 25.7892 105.595 27.2359 105.755 27.6868C105.216 27.8935 105.275 28.8141 105.295 28.7578L105.355 28.8517C104.876 29.2275 104.756 30.1857 104.537 30.1857C103.898 30.1105 104.038 30.1293 103.978 30.1481C103.08 33.0039 103.159 31.7263 103.1 33.436L103.06 33.5299C104.657 36.1791 102.82 34.5821 103.1 35.9724V36.0476C102.76 36.2542 102.481 36.1791 102.541 36.2167L102.501 36.2918C102.78 36.8179 104.098 36.8554 104.038 37.3439C101.722 39.4858 102.76 40.35 103.12 41.5713C105.315 42.3604 105.695 43.638 107.391 43.6755L107.431 43.7131C106.533 44.2392 107.312 44.8968 107.272 45.235C106.054 45.8925 106.234 45.5168 106.014 45.9301C106.793 46.9635 108.13 47.1701 107.95 47.4332C107.212 48.7483 108.31 49.1053 108.988 49.312C109.727 49.2556 110.825 48.6919 111.244 48.8235L111.324 48.9362C111.264 49.1992 111.104 49.3308 111.244 49.4623C114.079 49.4623 113.041 48.7483 114.538 48.6168C114.797 48.3538 114.737 48.335 114.857 48.3162L114.957 48.3538C115.157 48.7859 115.556 48.9926 115.755 48.9926C116.115 48.6168 116.175 48.4289 116.454 48.4477C117.133 49.4623 117.113 48.1471 117.133 47.8653L117.213 47.8277C117.512 47.9216 117.492 47.9592 117.552 47.9592C118.61 46.8695 117.113 46.7944 116.634 46.7568C116.873 45.7047 118.37 45.8362 118.111 45.4228C117.951 44.9531 117.652 44.9155 117.692 44.7277C118.57 44.3519 118.949 44.5586 119.049 44.6149C117.492 46.4186 119.888 45.141 120.187 45.1034C121.205 46.8507 122.582 43.3374 122.842 45.6107C124.798 44.7652 125.377 45.1034 125.317 44.2392L125.397 44.2016C127.593 42.6422 130.587 42.4543 131.924 41.7028C133.701 41.9095 133.721 43.6004 134.539 44.0513C134.739 44.0513 134.719 44.0889 134.739 44.0701C134.939 45.3852 135.677 44.9155 136.276 44.9343C137.294 45.4604 138.632 44.7653 139.091 44.5586H139.151H139.231C139.45 44.8028 139.39 44.7277 139.49 44.784C140.568 44.521 141.127 44.9156 141.526 44.6149H141.586C142.205 45.5919 142.424 45.8549 142.424 46.0992C142.365 46.6628 140.927 46.7756 141.027 47.3016H141.007Z" fill="#2D73B5"/>
<path d="M141.007 47.3016C141.027 49.1241 138.312 48.9926 137.773 49.0489C137.713 48.8611 137.693 48.8235 137.693 48.8047L137.634 48.7671C135.039 49.7253 134.02 49.838 132.443 51.0217C132.743 53.5205 130.587 54.6478 132.164 56.0005H132.264C132.424 55.9066 132.384 55.9066 132.404 55.9066H132.483L132.583 55.9442C132.843 56.583 133.561 56.8836 133.501 56.8648L133.422 57.0902C132.863 57.2406 132.683 57.2593 132.643 57.2969L132.364 57.1654C131.885 57.3721 131.984 57.3909 131.944 57.3909H131.665C131.445 57.1466 131.485 57.0151 131.445 57.0151C131.126 56.8272 130.827 57.109 130.807 57.0714L130.906 56.6957C129.669 57.0714 130.028 57.2218 129.689 57.3533C129.569 57.8606 128.711 57.7666 128.751 57.9169H128.631L128.531 57.7478L128.411 58.1048C128.87 58.4618 129.09 58.5745 129.07 58.6309H128.651C128.032 59.1569 128.132 59.6266 128.092 59.5139L127.932 59.2321L127.752 59.1381L127.653 59.2321L127.772 59.5139C127.233 59.4012 127.034 59.0442 126.874 59.063C126.675 59.5515 126.954 59.7018 126.914 59.7394L126.615 59.7957C126.096 59.5703 126.096 59.683 126.036 59.6454L125.816 59.946C126.036 60.3218 125.976 60.2654 126.016 60.4157C125.597 60.5848 125.118 60.7351 125.217 60.7163L125.018 60.66C124.738 60.3594 124.738 60.4345 124.618 60.3782C124.02 60.7727 123.261 61.2236 123.061 61.2612L122.682 61.1485C122.143 61.8061 122.502 62.3509 122.522 62.6515C122.802 62.8018 122.782 62.7079 122.802 62.7455L122.902 62.8206C122.942 63.2903 122.742 63.403 122.802 63.3842C122.922 63.7412 123.041 63.8352 123.002 63.8164C122.982 65.0564 121.644 64.2861 121.165 64.6806C120.466 64.4176 120.546 64.023 120.486 64.117C119.448 63.9103 119.628 64.2861 119.368 64.0794L119.309 63.9479C119.029 63.8352 118.889 63.9291 118.929 63.8915H118.909C115.835 63.0273 113.879 63.3467 113.021 64.5303C112.202 64.2673 111.284 65 111.304 64.9061C111.244 64.831 111.264 64.7746 111.264 64.7934H111.164C110.765 65.9019 109.867 65.7516 109.747 65.9019V66.0146C111.004 65.9394 111.264 64.7934 111.683 65.1316C110.466 66.334 110.905 66.2025 110.825 67.0104C110.525 67.3486 110.525 67.1794 110.505 67.2358H110.346C110.246 66.954 110.186 67.0291 110.186 66.9916C109.447 67.0479 109.048 67.7055 108.928 67.6492L108.469 67.574L108.589 67.3298L108.988 67.1982L109.128 67.0104C109.048 65.9394 108.11 65.8455 107.751 65.6013L107.831 65.4697V65.357L107.411 65.2819C107.272 65.7328 107.411 65.7516 107.371 65.7703C107.052 66.0897 107.032 65.9019 107.032 65.9582C106.992 66.2213 107.072 66.1649 107.032 66.2025V66.2588C106.154 66.1837 106.413 66.1273 106.313 66.1461L106.373 66.334C106.733 66.5782 106.633 66.4467 106.733 66.5407C106.912 67.0667 106.932 66.9916 106.952 67.0291C107.371 67.1231 107.491 67.0479 107.531 67.0855L107.611 67.1982C107.611 67.6867 107.611 67.5552 107.551 67.7243L107.391 67.8182C107.391 67.4801 107.072 67.5176 107.072 67.4801C102.64 69.8662 99.1472 70.5425 97.7299 73.2668C97.5502 73.4171 97.5901 73.4171 97.5702 73.4359C97.7897 73.9244 97.7299 73.7929 97.7299 73.962C97.1709 74.4505 97.2109 74.225 97.1709 74.3002L96.9314 74.2438V73.8868L96.5721 74.5632C94.8753 75.9911 91.4618 77.9451 90.7432 78.3208L90.5436 78.2644C90.0046 78.4335 89.8649 78.5651 89.8849 78.5463C89.4457 78.4147 89.4856 78.4711 89.3459 78.4523L89.2061 78.6966C85.3934 80.6505 83.9362 82.8675 82.5988 84.333L81.8203 84.2391L81.96 83.976C82.4391 83.9009 82.3593 83.9948 82.3992 83.976L82.5788 83.9009V83.7318C81.9201 83.5815 81.6406 83.7318 81.7205 83.6942L81.6206 83.7694C81.6206 84.1075 81.5807 84.2578 81.5608 84.2578L81.441 84.3142L81.3013 84.2578L81.1815 84.1075V84.3706C82.0798 84.8215 82.479 84.6712 82.7784 84.8215C83.2575 84.4645 83.5969 84.4082 83.7566 84.4457C83.1178 86.5688 83.1378 86.0991 82.7385 86.7942C80.6825 87.3391 81.0019 88.3161 80.6825 88.5227C80.8422 87.79 81.6806 87.1324 81.461 87.2452C81.3612 87.0197 81.3212 87.0948 81.3212 87.0573C78.4667 88.6355 78.8659 84.1075 78.3469 83.7318L77.808 84.07C77.6083 84.07 77.6283 84.0512 77.6083 84.0512C77.5484 83.8633 77.5285 83.8069 77.5285 83.7881C77.0294 83.6003 76.8099 83.8633 76.6901 83.713C76.6901 82.999 75.4924 83.093 75.4524 82.8487C75.3327 82.8487 75.3526 82.8487 75.3127 82.8487C74.4144 83.4687 74.7538 84.2203 74.0951 84.8403C71.6797 84.5021 73.2566 82.3602 73.4563 81.5336C73.3365 80.8008 73.3165 80.5754 73.3964 80.4063C74.1749 80.0493 74.2947 79.4857 74.2547 79.2414C72.2985 78.565 72.9572 77.8699 71.5798 78.6966L71.4601 78.6402C71.3603 78.302 71.3004 78.1893 71.3004 78.2081H71.1207L71.0608 78.3584C69.9829 78.6966 70.1626 78.2832 69.7434 78.5463H69.6635C69.0647 78.1705 69.0048 78.0202 68.905 78.0014H68.5457C68.6255 78.1141 68.6255 78.1329 68.6454 78.1329C66.6293 78.1893 66.789 78.1705 66.5694 78.0953L66.1103 77.6256L65.771 77.5317V78.0766C64.3537 78.9032 63.655 77.8511 63.2957 78.4711C62.4573 78.4523 61.6389 78.0954 61.559 78.0578C61.4991 77.0056 61.04 76.3481 61.3195 75.8784H61.7187C61.8385 75.7656 61.8185 75.728 61.8185 75.728C61.7187 75.3335 61.9782 74.8074 61.9383 74.9014C61.4991 74.6195 61.6389 74.7323 61.559 74.5256C62.1579 74.1123 62.4174 74.1874 62.4772 73.9432V73.868C62.2177 73.6238 62.2976 73.6238 62.2776 73.605C63.4754 72.7971 61.1598 71.9892 61.3993 71.2001C61.02 69.0207 58.6246 68.1752 58.1455 66.2964V66.2213L58.0457 66.1837C57.2672 66.1085 56.6484 65.1691 56.7682 64.8873C57.7862 64.5491 57.387 62.0879 57.4269 62.3697C55.8898 61.2988 56.7482 59.9272 55.9098 59.4012C57.906 51.0593 52.3965 53.8963 51.8975 51.1532L51.7977 50.9465C51.2587 50.6271 51.0192 50.6083 51.0791 50.5895L50.9593 50.4017C51.099 49.5938 50.8395 49.7253 50.6399 49.5562L50.5201 49.6126V49.8756C47.9251 50.0823 47.2264 50.552 46.0886 50.1574C45.8491 50.3829 45.9089 50.4205 45.869 50.4205C44.7711 49.8944 44.0325 49.5562 43.6931 50.3265L43.5335 50.2514C35.9679 50.4768 31.2769 44.878 24.3102 45.6107C23.8112 45.9301 23.8112 45.7234 23.7513 45.7798C23.0726 45.2537 22.9728 45.0283 22.9728 45.0658C19.22 45.1034 18.5612 42.6234 16.7447 43.8446C16.4652 44.9343 16.0061 45.498 15.527 45.4792C15.1877 44.4646 14.1696 44.8592 14.0099 45.0658C12.3531 44.7089 11.3749 44.9155 10.7561 45.0095C9.63825 44.3143 9.95766 44.4271 9.83789 44.3707L9.27896 44.2955C4.80751 44.9156 3.13071 44.2016 0.575598 46.4186C2.17255 45.141 2.23242 43.7507 2.47197 43.807C3.47006 43.6755 3.58983 42.3604 3.84934 42.4543L3.98906 42.5482C14.8084 37.87 13.451 33.4924 18.3017 29.9039C18.4814 29.2087 18.162 29.3778 18.1819 29.2463L17.9823 29.1711L17.3036 28.0626L17.3435 27.6305C19.8787 26.9729 22.0346 23.8353 21.0165 21.6183C24.7494 19.0631 24.969 15.174 25.6077 12.9757C26.3064 12.5436 26.7256 12.6752 26.6458 12.6188C31.9157 7.15146 37.525 4.05141 41.7169 0.575613C47.426 1.98472 55.5305 2.3417 60.2016 3.28111C61.7786 2.94292 61.4592 3.03686 62.2776 3.22474L62.4373 3.43141L62.3175 3.71322C61.5989 3.95747 61.8784 3.84473 61.6189 3.99503C60.9003 5.98657 62.5771 7.48963 62.8565 8.20358L63.3955 8.42903C65.1322 7.77144 65.1721 5.6672 65.6113 5.83629L66.2301 5.96779C67.328 7.79024 66.4097 10.026 66.7491 9.87572C67.6873 10.5521 67.7871 10.3454 67.827 10.477C68.4059 10.026 68.2462 10.1951 68.366 9.98845C68.0266 8.59813 68.2063 8.09085 68.0266 7.67752C68.6055 6.83205 68.5856 6.26841 68.7253 6.15568C72.1587 6.00538 76.0114 4.72779 77.8878 5.74234H78.1872L78.5465 5.36659L78.1673 4.25807L78.4866 3.80717C79.7043 6.64417 82.2794 6.15567 82.1596 4.03262C83.1577 4.25808 82.6387 5.23506 83.1378 5.38536C83.537 5.44173 83.8564 5.14113 83.8564 5.15992C84.3355 4.16415 83.9562 4.07019 83.9362 3.67564C87.1102 2.30411 86.8307 3.76958 87.729 4.2017L88.1082 4.12656C88.5674 3.67565 88.5275 3.50655 88.6273 3.46897C89.6653 3.31866 90.0845 3.1308 90.3639 2.96171C91.1824 3.46899 90.9428 3.67566 90.843 4.10779V4.18293C91.5018 4.91566 91.4019 4.69021 91.8211 4.80294C93.3981 5.6484 93.0987 5.7987 93.7375 6.23082C93.9371 6.88841 94.0769 6.79447 94.0569 6.85083C91.0427 11.6794 98.6681 12.9946 95.3145 14.6103C95.1747 15.4558 94.9552 15.8128 94.5559 16.0194C93.6776 18.6874 94.6757 17.7667 95.4542 19.0631C95.0749 22.0316 98.2688 23.2904 97.7299 25.7141C99.746 26.1087 99.726 25.6953 100.584 25.0753C102.181 24.9062 102.461 26.0711 103.299 25.2256L103.359 25.282C103.399 25.6389 103.399 25.545 103.439 25.6765C103.778 25.902 103.818 25.808 103.858 25.8644C103.978 26.0711 103.958 26.1462 103.998 26.165C105.435 25.7892 105.595 27.2359 105.755 27.6868C105.216 27.8935 105.275 28.8141 105.295 28.7578L105.355 28.8517C104.876 29.2275 104.756 30.1857 104.537 30.1857C103.898 30.1105 104.038 30.1293 103.978 30.1481C103.08 33.0039 103.159 31.7263 103.1 33.436L103.06 33.5299C104.657 36.1791 102.82 34.5821 103.1 35.9724V36.0476C102.76 36.2542 102.481 36.1791 102.541 36.2167L102.501 36.2918C102.78 36.8179 104.098 36.8554 104.038 37.3439C101.722 39.4858 102.76 40.35 103.12 41.5713C105.315 42.3604 105.695 43.638 107.391 43.6755L107.431 43.7131C106.533 44.2392 107.312 44.8968 107.272 45.235C106.054 45.8925 106.234 45.5168 106.014 45.9301C106.793 46.9635 108.13 47.1701 107.95 47.4332C107.212 48.7483 108.31 49.1053 108.988 49.312C109.727 49.2556 110.825 48.6919 111.244 48.8235L111.324 48.9362C111.264 49.1992 111.104 49.3308 111.244 49.4623C114.079 49.4623 113.041 48.7483 114.538 48.6168C114.797 48.3538 114.737 48.335 114.857 48.3162L114.957 48.3538C115.157 48.7859 115.556 48.9926 115.755 48.9926C116.115 48.6168 116.175 48.4289 116.454 48.4477C117.133 49.4623 117.113 48.1471 117.133 47.8653L117.213 47.8277C117.512 47.9216 117.492 47.9592 117.552 47.9592C118.61 46.8695 117.113 46.7944 116.634 46.7568C116.873 45.7047 118.37 45.8362 118.111 45.4228C117.951 44.9531 117.652 44.9155 117.692 44.7277C118.57 44.3519 118.949 44.5586 119.049 44.6149C117.492 46.4186 119.887 45.141 120.187 45.1034C121.205 46.8507 122.582 43.3373 122.842 45.6107C124.798 44.7652 125.377 45.1034 125.317 44.2392L125.397 44.2016C127.593 42.6422 130.587 42.4543 131.924 41.7028C133.701 41.9095 133.721 43.6004 134.539 44.0513C134.739 44.0513 134.719 44.0889 134.739 44.0701C134.939 45.3852 135.677 44.9155 136.276 44.9343C137.294 45.4604 138.632 44.7653 139.091 44.5586H139.151H139.231C139.45 44.8028 139.39 44.7277 139.49 44.784C140.568 44.521 141.127 44.9156 141.526 44.6149H141.586C142.205 45.5919 142.424 45.8549 142.424 46.0992C142.365 46.6628 140.927 46.7756 141.027 47.3016H141.007Z" stroke="white" stroke-width="1.15034" stroke-linecap="round" stroke-linejoin="round"/>
<path d="M125.656 65.8272C125.676 66.1466 125.776 66.3345 125.736 66.3345L125.796 66.4096V66.4848C125.616 66.7666 125.397 66.7666 125.417 66.7854C125.277 66.6163 125.117 66.7102 125.097 66.6727C124.758 66.0527 124.738 65.9399 124.658 65.8836L124.439 66.0151L124.339 65.9024C123.061 66.56 122.742 66.203 122.582 66.2593L122.183 65.9024L122.083 65.5642C123.82 63.8732 123.8 63.8732 124.099 62.8963L124.219 62.8211C124.938 62.9339 125.616 63.5726 125.616 63.6478L125.517 64.8127L125.038 64.7375L124.958 65.2072L125.217 65.6769L125.756 65.5829C125.876 65.752 125.836 65.7521 125.876 65.8084L125.676 65.846L125.656 65.8272Z" fill="#2D73B5"/>
<path d="M125.656 65.8272C125.676 66.1466 125.776 66.3345 125.736 66.3345L125.796 66.4096V66.4848C125.616 66.7666 125.397 66.7666 125.417 66.7854C125.277 66.6163 125.117 66.7102 125.097 66.6727C124.758 66.0527 124.738 65.9399 124.658 65.8836L124.439 66.0151L124.339 65.9024C123.061 66.56 122.742 66.203 122.582 66.2593L122.183 65.9024L122.083 65.5642C123.82 63.8732 123.8 63.8732 124.099 62.8963L124.219 62.8211C124.938 62.9339 125.616 63.5726 125.616 63.6478L125.517 64.8127L125.038 64.7375L124.958 65.2072L125.217 65.6769L125.756 65.5829C125.876 65.752 125.836 65.7521 125.876 65.8084L125.676 65.846L125.656 65.8272Z" stroke="white" stroke-width="1.15034" stroke-linecap="round" stroke-linejoin="round"/>
</svg>
