<svg width="105" height="35" viewBox="0 0 105 35" fill="none" xmlns="http://www.w3.org/2000/svg">
<path d="M104.201 10.2837C104.261 10.4724 104.322 10.4724 104.322 10.4913C103.459 12.6427 103.961 12.0577 103.7 12.5295H103.5C102.738 12.1143 102.758 11.9822 102.457 12.0199C103.179 12.3596 102.818 12.8503 103.119 13.0579C103.259 12.8314 103.199 12.8692 103.219 12.8503C102.878 14.662 101.936 15.7 102.296 16.7002C101.314 18.7761 100.572 21.0785 100.231 21.4182V21.5692L100.071 21.7013C99.75 23.3809 98.9079 24.5132 98.9881 25.1737C95.8401 24.3056 94.5969 25.2303 93.855 23.9848C90.2258 24.3245 90.5266 25.9286 88.7421 24.8529C88.6418 24.5698 88.7421 24.6453 88.722 24.6075L88.6619 24.5132C87.1981 24.4566 86.2156 25.0039 85.955 25.0605L85.7745 25.0039L85.5941 24.8151C83.8496 25.57 84.2707 25.8153 83.609 26.0041C83.609 26.3249 83.7895 26.3626 83.7494 26.4759C81.2029 28.2687 81.8245 27.4195 81.3232 28.5707L80.0399 29.4576C75.2678 31.3448 71.799 29.552 70.6561 31.7789C66.7662 30.0615 63.6383 27.6648 61.4728 25.6078C58.004 26.9665 59.2873 25.5511 57.7032 24.3433C56.821 24.7208 56.9814 24.8529 56.9012 24.8718C56.5202 28.4386 51.7682 29.2312 50.1441 31.4203C49.1014 28.2687 48.9811 29.4199 49.0212 27.8158L48.9009 27.5893C49.2818 27.193 49.4022 26.8722 49.322 26.6646C48.941 26.4947 48.9009 26.2683 48.8006 26.2871C48.0788 26.8533 47.5173 27.0043 47.397 26.9854C46.6151 26.6646 46.4747 26.5891 46.2742 26.4759C45.8732 25.7021 45.9734 25.9286 45.793 25.6644C46.6351 24.6264 46.3745 24.8717 46.5349 24.4188L46.2341 24.0036L45.5524 23.7394L44.991 23.8904C43.8681 25.0416 44.63 25.7587 44.2892 26.0041L44.0285 26.155L43.7277 26.0984C42.4244 22.5316 40.7402 23.2488 38.6148 23.2865C37.8729 22.0221 35.4066 22.0221 35.8076 22.0221C35.5068 21.5314 34.7449 21.6635 34.7449 21.6824L34.6046 21.6258C34.5645 21.1351 34.1434 20.9841 34.1233 20.9275C33.7223 19.8895 33.8226 20.1726 33.5419 19.8707C30.434 18.7384 28.5492 21.6635 27.1657 21.3427C27.3662 22.9657 27.3863 22.8147 27.3261 23.0034L27.1857 23.1921C25.6218 23.5885 24.1179 23.5318 23.9174 23.9093C25.1606 26.9854 21.3309 27.2685 20.4687 28.0045C19.7067 27.9479 18.8445 27.193 18.3232 27.5138C17.1803 29.7596 17.3407 30.8353 17.0801 31.7223C16.7192 32.4017 15.9372 31.76 15.8369 31.8166L15.5562 31.911C14.7141 33.081 14.1126 32.345 13.9121 32.7225L13.7316 33.2509C11.4859 34.6285 11.6062 32.7602 10.2828 33.2509C12.4283 31.4203 10.8844 29.0424 8.83917 28.7971C7.83663 26.9854 8.6988 24.7963 7.6361 23.8527C5.2701 22.7581 3.12467 22.2297 0.578205 22.1542C3.90666 20.8332 4.28759 19.8896 5.99191 17.9269C6.67365 17.4362 7.61603 18.0212 7.67618 18.0024C8.37797 17.7004 8.03713 16.7002 8.3379 16.6624C8.79907 16.6624 8.97952 16.9833 9.07977 16.9455C9.36049 16.587 9.98204 15.8321 10.0622 15.9831C13.7717 12.9258 15.5562 9.13254 11.8267 7.94361C13.4709 5.94318 10.4232 3.82952 11.4859 2.81044C23.336 1.43278 31.7172 1.54601 36.9305 9.34013C37.7124 9.11367 37.913 8.81171 38.1135 8.84946C38.4544 9.24577 38.3742 9.30239 38.4143 9.28352H38.4944C39.517 8.43428 39.7777 6.69806 40.6199 7.28309L40.68 7.24534C40.7402 6.28287 41.5422 6.32062 41.9232 6.45272C42.264 6.01867 42.9257 5.81108 42.8856 5.84882C43.3668 6.01867 43.2465 5.84883 43.4871 5.8677C43.6075 6.79242 43.9483 6.98113 44.5699 6.90565C44.7103 7.2076 44.5298 7.69828 44.5899 7.62279L44.6902 7.73602C45.8131 8.26443 46.3945 7.73602 47.0562 7.52842C47.2567 7.6794 47.2166 7.75489 47.2767 7.79263C47.6778 7.5473 48.3194 6.88678 48.2793 7.01889C49.4021 7.56618 49.2818 10.5291 50.2242 8.69849H50.2844C51.1065 9.34014 51.3271 8.22668 51.5677 8.03796C51.9085 8.30217 52.2093 9.00044 52.6905 8.81172L52.7507 8.73623C51.9486 7.37745 54.3547 8.00022 54.2344 8.11345C57.1618 5.58461 60.8312 3.94275 62.8763 1.73474H62.9365C62.9967 1.94233 62.9766 1.92346 62.9966 1.94233L63.0568 1.99894C63.919 1.65925 64.9817 0.489187 65.6835 0.583547C72.3404 4.05599 69.413 4.01824 66.7061 5.01845C66.7662 7.45293 66.4454 9.79305 64.2599 11.0763C64.2599 12.2842 67.067 10.1328 67.468 11.3217C67.9693 20.1349 75.4282 12.9636 76.4107 10.7933C76.4508 10.6234 76.2904 10.5102 76.3105 10.5291C77.9747 9.90628 79.3983 10.5291 78.7968 8.90608C80.8219 8.39654 81.3633 9.24577 82.0852 8.24555L82.2255 8.37766C83.1679 9.22689 85.4537 8.01909 86.6166 9.13254H86.6768C86.7971 8.79284 86.6568 8.66074 86.8372 8.58525C88.9626 9.03818 86.0552 7.39633 87.4989 7.49069L87.539 7.56616C87.4989 7.71714 87.4989 7.77376 87.5189 7.79263C89.524 7.6794 91.2284 6.81129 92.5317 6.35836C92.9928 1.22519 100.652 1.73474 101.575 4.16922C103.139 4.60327 102.858 4.65989 103.018 4.69763C102.577 4.77312 102.457 4.92409 102.457 4.88635C103.74 4.79199 103.5 4.88636 103.941 4.98071C104.081 5.73559 104.402 5.64124 104.422 5.8677C104.141 6.37724 104.021 6.77355 104.021 6.73581H103.901C103.901 6.32062 103.84 6.22626 103.86 6.18852C103.68 6.39611 103.8 6.64145 103.76 6.6037C103.319 5.84883 103.439 6.07529 103.319 5.79221C103.259 6.58483 103.64 6.86791 103.54 6.8113L103.479 7.09436L103.279 7.05663C102.798 7.22647 102.818 7.54729 102.798 7.50955C103.259 7.30196 103.199 7.26421 103.259 7.22647H103.379L103.439 7.26422C103.018 7.6794 102.938 8.69849 102.998 8.56639L103.139 8.73623L103.72 8.84946C103.82 9.34013 103.74 9.88742 103.76 9.77419L103.961 9.35901C104.241 9.94404 104.241 10.0195 104.302 10.0761C104.161 10.2271 104.201 10.246 104.181 10.2649L104.201 10.2837Z" fill="#DE1F1F"/>
<path d="M104.201 10.2837C104.261 10.4724 104.322 10.4724 104.322 10.4913C103.459 12.6427 103.961 12.0577 103.7 12.5295H103.5C102.738 12.1143 102.758 11.9822 102.457 12.0199C103.179 12.3596 102.818 12.8503 103.119 13.0579C103.259 12.8314 103.199 12.8692 103.219 12.8503C102.878 14.662 101.936 15.7 102.296 16.7002C101.314 18.7761 100.572 21.0785 100.231 21.4182V21.5692L100.071 21.7013C99.75 23.3809 98.9079 24.5132 98.9881 25.1737C95.8401 24.3056 94.5969 25.2303 93.855 23.9848C90.2258 24.3245 90.5266 25.9286 88.7421 24.8529C88.6418 24.5698 88.7421 24.6453 88.722 24.6075L88.6619 24.5132C87.1981 24.4566 86.2156 25.0039 85.955 25.0605L85.7745 25.0039L85.5941 24.8151C83.8496 25.57 84.2707 25.8153 83.609 26.0041C83.609 26.3249 83.7895 26.3626 83.7494 26.4759C81.2029 28.2687 81.8245 27.4195 81.3232 28.5707L80.0399 29.4576C75.2678 31.3448 71.799 29.552 70.6561 31.7789C66.7662 30.0615 63.6383 27.6648 61.4728 25.6078C58.004 26.9665 59.2873 25.5511 57.7032 24.3433C56.821 24.7208 56.9814 24.8529 56.9012 24.8718C56.5202 28.4386 51.7682 29.2312 50.1441 31.4203C49.1014 28.2687 48.9811 29.4199 49.0212 27.8158L48.9009 27.5893C49.2818 27.193 49.4022 26.8722 49.322 26.6646C48.941 26.4947 48.9009 26.2683 48.8006 26.2871C48.0788 26.8533 47.5173 27.0043 47.397 26.9854C46.6151 26.6646 46.4747 26.5891 46.2742 26.4759C45.8732 25.7021 45.9734 25.9286 45.793 25.6644C46.6351 24.6264 46.3745 24.8717 46.5349 24.4188L46.2341 24.0036L45.5524 23.7394L44.991 23.8904C43.8681 25.0416 44.63 25.7587 44.2892 26.0041L44.0285 26.155L43.7277 26.0984C42.4244 22.5316 40.7402 23.2488 38.6148 23.2865C37.8729 22.0221 35.4066 22.0221 35.8076 22.0221C35.5068 21.5314 34.7449 21.6635 34.7449 21.6824L34.6046 21.6258C34.5645 21.1351 34.1434 20.9841 34.1233 20.9275C33.7223 19.8895 33.8226 20.1726 33.5419 19.8707C30.434 18.7384 28.5492 21.6635 27.1657 21.3427C27.3662 22.9657 27.3863 22.8147 27.3261 23.0034L27.1857 23.1921C25.6218 23.5885 24.1179 23.5318 23.9174 23.9093C25.1606 26.9854 21.3309 27.2685 20.4687 28.0045C19.7067 27.9479 18.8445 27.193 18.3232 27.5138C17.1803 29.7596 17.3407 30.8353 17.0801 31.7223C16.7192 32.4017 15.9372 31.76 15.8369 31.8166L15.5562 31.911C14.7141 33.081 14.1126 32.345 13.9121 32.7225L13.7316 33.2509C11.4859 34.6285 11.6062 32.7602 10.2828 33.2509C12.4283 31.4203 10.8844 29.0424 8.83917 28.7971C7.83663 26.9854 8.6988 24.7963 7.6361 23.8527C5.2701 22.7581 3.12467 22.2297 0.578205 22.1542C3.90666 20.8332 4.28759 19.8896 5.99191 17.9269C6.67365 17.4362 7.61603 18.0212 7.67618 18.0024C8.37797 17.7004 8.03713 16.7002 8.3379 16.6624C8.79907 16.6624 8.97952 16.9833 9.07977 16.9455C9.36049 16.587 9.98204 15.8321 10.0622 15.9831C13.7717 12.9258 15.5562 9.13254 11.8267 7.94361C13.4709 5.94318 10.4232 3.82952 11.4859 2.81044C23.336 1.43278 31.7172 1.54601 36.9305 9.34013C37.7124 9.11367 37.913 8.81171 38.1135 8.84946C38.4544 9.24577 38.3742 9.30239 38.4143 9.28352H38.4944C39.517 8.43428 39.7777 6.69806 40.6199 7.28309L40.68 7.24534C40.7402 6.28287 41.5422 6.32062 41.9232 6.45272C42.264 6.01867 42.9257 5.81108 42.8856 5.84882C43.3668 6.01867 43.2465 5.84883 43.4871 5.8677C43.6075 6.79242 43.9483 6.98113 44.5699 6.90565C44.7103 7.2076 44.5298 7.69828 44.5899 7.62279L44.6902 7.73602C45.8131 8.26443 46.3945 7.73602 47.0562 7.52842C47.2567 7.6794 47.2166 7.75489 47.2767 7.79263C47.6778 7.5473 48.3194 6.88678 48.2793 7.01889C49.4021 7.56618 49.2818 10.5291 50.2242 8.69849H50.2844C51.1065 9.34014 51.3271 8.22668 51.5677 8.03796C51.9085 8.30217 52.2093 9.00044 52.6905 8.81172L52.7507 8.73623C51.9486 7.37745 54.3547 8.00022 54.2344 8.11345C57.1618 5.58461 60.8312 3.94275 62.8763 1.73474H62.9365C62.9967 1.94233 62.9766 1.92346 62.9966 1.94233L63.0568 1.99894C63.919 1.65925 64.9817 0.489187 65.6835 0.583547C72.3404 4.05599 69.413 4.01824 66.7061 5.01845C66.7662 7.45293 66.4454 9.79305 64.2599 11.0763C64.2599 12.2842 67.067 10.1328 67.468 11.3217C67.9693 20.1349 75.4282 12.9636 76.4107 10.7933C76.4508 10.6234 76.2904 10.5102 76.3105 10.5291C77.9747 9.90628 79.3983 10.5291 78.7968 8.90608C80.8219 8.39654 81.3633 9.24577 82.0852 8.24555L82.2255 8.37766C83.1679 9.22689 85.4537 8.01909 86.6166 9.13254H86.6768C86.7971 8.79284 86.6568 8.66074 86.8372 8.58525C88.9626 9.03818 86.0552 7.39633 87.4989 7.49069L87.539 7.56616C87.4989 7.71714 87.4989 7.77376 87.5189 7.79263C89.524 7.6794 91.2284 6.81129 92.5317 6.35836C92.9928 1.22519 100.652 1.73474 101.575 4.16922C103.139 4.60327 102.858 4.65989 103.018 4.69763C102.577 4.77312 102.457 4.92409 102.457 4.88635C103.74 4.79199 103.5 4.88636 103.941 4.98071C104.081 5.73559 104.402 5.64124 104.422 5.8677C104.141 6.37724 104.021 6.77355 104.021 6.73581H103.901C103.901 6.32062 103.84 6.22626 103.86 6.18852C103.68 6.39611 103.8 6.64145 103.76 6.6037C103.319 5.84883 103.439 6.07529 103.319 5.79221C103.259 6.58483 103.64 6.86791 103.54 6.8113L103.479 7.09436L103.279 7.05663C102.798 7.22647 102.818 7.54729 102.798 7.50955C103.259 7.30196 103.199 7.26421 103.259 7.22647H103.379L103.439 7.26422C103.018 7.6794 102.938 8.69849 102.998 8.56639L103.139 8.73623L103.72 8.84946C103.82 9.34013 103.74 9.88742 103.76 9.77419L103.961 9.35901C104.241 9.94404 104.241 10.0195 104.302 10.0761C104.161 10.2271 104.201 10.246 104.181 10.2649L104.201 10.2837Z" fill="#DE1F1F" stroke="white" stroke-width="1.15034" stroke-linecap="round" stroke-linejoin="round"/>
<path d="M104.021 7.05688V7.17011C104.402 7.8495 103.78 8.35904 103.901 8.64212C103.459 8.79309 103.199 8.52889 103.179 8.54777C103.179 7.90612 103.239 7.88725 103.239 7.79289C103.78 7.30222 103.52 7.17011 103.68 6.96252C103.901 6.9059 103.941 6.96252 103.941 6.96252L104.041 7.05688H104.021Z" fill="#2D73B5"/>
<path d="M104.021 7.05688V7.17011C104.402 7.8495 103.78 8.35904 103.901 8.64212C103.459 8.79309 103.199 8.52889 103.179 8.54777C103.179 7.90612 103.239 7.88725 103.239 7.79289C103.78 7.30222 103.52 7.17011 103.68 6.96252C103.901 6.9059 103.941 6.96252 103.941 6.96252L104.041 7.05688H104.021Z" stroke="white" stroke-width="1.15034" stroke-linecap="round" stroke-linejoin="round"/>
</svg>
