<svg width="19" height="14" viewBox="0 0 19 14" fill="none" xmlns="http://www.w3.org/2000/svg">
<path fill-rule="evenodd" clip-rule="evenodd" d="M17.2569 0C17.8262 0 18.3318 0.260958 18.6499 0.664595L9.41101 8.07346L0.254462 0.799133C0.560614 0.319886 1.1128 0 1.74312 0H17.2569ZM0 12.3333V2.11381L6.57007 7.33333L0.0135436 12.5421C0.00460675 12.4737 0 12.404 0 12.3333ZM0.600873 13.5923C0.906791 13.8463 1.30618 14 1.74312 14H17.2569C17.6324 14 17.9802 13.8864 18.2648 13.6933L11.2833 8.09468L10.0279 9.10146C9.67281 9.38621 9.15555 9.38734 8.79911 9.10417L7.52472 8.09175L0.600873 13.5923ZM12.2327 7.33333L18.9524 12.722C18.9835 12.5973 19 12.4671 19 12.3333V1.9065L12.2327 7.33333Z" fill="white"/>
</svg>
