<svg width="63" height="35" viewBox="0 0 63 35" fill="none" xmlns="http://www.w3.org/2000/svg">
<path d="M62.4221 17.4426C61.6605 16.9899 61.8209 16.6504 61.9812 14.8585L61.7608 14.6888C61.7608 15.0471 61.7808 16.3298 60.5784 17.0465C60.5383 17.0088 60.9191 16.6693 60.4782 16.3298C60.4782 16.3109 60.4782 16.4052 60.6986 16.4806C60.7588 16.4429 60.7587 16.4806 60.9191 16.3298H60.879C60.879 16.3298 61.2798 15.7073 61.1195 14.9906C61.1395 14.934 61.1796 14.934 61.4001 14.7265C61.4602 14.4247 61.4401 14.7265 61.4401 13.8211C60.6986 13.1421 60.5383 13.7268 60.2578 11.8406V11.9349C60.1175 11.3502 60.3179 10.4826 59.7167 9.38856C59.7167 9.27539 60.0774 8.9736 59.8169 7.69099C59.7768 7.69099 59.1154 7.7853 58.4741 8.1814C57.2717 7.86075 58.1936 8.03051 55.1675 7.74758C50.438 6.93652 46.3899 7.21944 39.4359 6.37066C38.6543 6.16318 39.5361 4.84283 38.494 4.65422C35.9088 4.93714 34.3257 6.48383 36.4099 9.61491L36.2896 9.69036C32.2014 8.82271 38.975 12.7083 32.1813 14.7454C29.6763 14.8397 34.1854 10.973 28.514 11.3691C28.4338 11.4257 28.2935 11.0296 27.7925 10.7655C26.8506 11.652 26.4899 11.3125 24.1452 12.4819H23.9448C23.2434 10.6523 22.1211 10.6146 19.4557 10.3505C19.1551 9.74694 19.0149 8.37002 20.7985 7.9362C21.2394 6.37066 21.8206 4.84283 24.6462 2.29647C24.8065 1.90037 24.8666 2.2399 24.7865 0.995012C23.8847 0.127363 22.9428 0.74981 21.1392 1.61746C19.2955 1.61746 15.4477 1.59859 15.067 4.54105C15.067 4.50332 15.067 4.59764 14.8465 4.42788H14.7263C14.6261 5.72935 12.4016 5.55959 11.4196 7.29489L11.099 7.144C11.099 7.144 11.099 7.04968 10.9186 6.82334H10.7783C10.4377 6.91765 10.7783 6.93652 9.71621 7.9362C10.2373 8.25685 7.99272 6.95538 7.31135 7.72872C6.89051 7.37034 5.36748 6.71018 3.96466 5.91798C3.96466 5.78594 3.92458 5.82365 3.96466 5.46528L3.90454 5.37098C1.9406 8.53978 0.0167043 13.2175 1.0588 17.4426C1.76021 17.7067 2.02073 18.5177 3.06282 18.612C3.48367 19.4231 3.3434 21.1395 1.76022 21.9129C2.1009 22.7239 1.47966 23.1955 0.577851 24.1197L0.738146 24.3272C0.738146 24.3272 1.13899 24.4215 1.33939 24.3461C1.53979 24.6667 1.35939 25.6475 2.42152 25.3835C2.5618 25.6475 2.42154 25.4401 2.44158 26.1002L2.54182 26.2134C3.30335 26.534 3.90454 26.4963 4.90656 26.0059C4.9266 26.0059 5.00673 26.1191 5.12697 26.27C5.64802 26.1002 5.04681 26.1002 6.12898 25.4966C6.87047 25.176 7.0308 29.2313 8.07289 27.1754H8.13301C8.73422 27.6092 9.05489 27.1754 9.41562 26.5152C9.93666 26.6661 9.43565 27.3262 10.5379 27.2885L10.598 27.2131C10.4377 26.5906 10.5378 25.7419 12.0809 26.5906C14.2253 24.5536 17.5319 23.0823 20.7183 20.2153H20.7784C20.7784 20.2153 20.7784 20.2342 20.8385 20.4228L20.8986 20.4794C22.3415 20.1776 20.9388 19.4608 23.524 19.0647C23.2033 19.5363 32.2615 22.177 24.7063 23.4218C22.562 25.4778 27.532 24.6667 22.061 29.684C27.9328 27.8167 22.6823 35.1728 29.4358 33.5507C32.502 33.7582 32.522 30.3253 34.2455 29.2502C34.2455 29.1747 34.3056 29.1936 34.1453 28.9861C34.2856 28.4202 37.6122 29.2502 36.6303 27.364C37.2515 26.6661 39.1754 28.0807 39.9169 26.7038L40.0572 26.8358C40.7386 27.8544 42.0411 26.3832 44.446 27.5903H44.5061C44.6263 27.5337 44.4059 27.2131 44.6664 27.0433C46.5903 27.4583 44.0051 25.9871 45.3277 25.9493L45.3679 26.0248C45.3679 26.0248 45.3278 26.0814 45.3478 26.2511C46.5101 26.3643 47.953 25.723 50.3579 24.8176C50.2176 22.0826 56.7708 18.4234 59.396 22.6296C59.396 22.7617 59.5363 22.5165 60.8389 23.1578C60.7588 23.2144 61.0994 22.988 61.9211 23.2332H62.0012C62.1015 23.0823 62.0013 23.2332 62.2217 22.7239C61.881 21.762 62.3219 19.6683 62.342 17.4237L62.4221 17.4426Z" fill="#2D73B5"/>
<path d="M62.4221 17.4426C61.6605 16.9899 61.8209 16.6504 61.9812 14.8585L61.7608 14.6888C61.7608 15.0471 61.7808 16.3298 60.5784 17.0465C60.5383 17.0088 60.9191 16.6693 60.4782 16.3298C60.4782 16.3109 60.4782 16.4052 60.6986 16.4806C60.7588 16.4429 60.7587 16.4806 60.9191 16.3298H60.879C60.879 16.3298 61.2798 15.7073 61.1195 14.9906C61.1395 14.934 61.1796 14.934 61.4001 14.7265C61.4602 14.4247 61.4401 14.7265 61.4401 13.8211C60.6986 13.1421 60.5383 13.7268 60.2578 11.8406V11.9349C60.1175 11.3502 60.3179 10.4826 59.7167 9.38856C59.7167 9.27539 60.0774 8.9736 59.8169 7.69099C59.7768 7.69099 59.1154 7.7853 58.4741 8.1814C57.2717 7.86075 58.1936 8.03051 55.1675 7.74758C50.438 6.93652 46.3899 7.21944 39.4359 6.37066C38.6543 6.16318 39.5361 4.84283 38.494 4.65422C35.9088 4.93714 34.3257 6.48383 36.4099 9.61491L36.2896 9.69036C32.2014 8.82271 38.975 12.7083 32.1813 14.7454C29.6763 14.8397 34.1854 10.973 28.514 11.3691C28.4338 11.4257 28.2935 11.0296 27.7925 10.7655C26.8506 11.652 26.4899 11.3125 24.1452 12.4819H23.9448C23.2434 10.6523 22.1211 10.6146 19.4557 10.3505C19.1551 9.74694 19.0149 8.37002 20.7985 7.9362C21.2394 6.37066 21.8206 4.84283 24.6462 2.29647C24.8066 1.90037 24.8666 2.2399 24.7865 0.995012C23.8847 0.127363 22.9428 0.74981 21.1392 1.61746C19.2955 1.61746 15.4477 1.59859 15.067 4.54105C15.067 4.50332 15.067 4.59764 14.8465 4.42788H14.7263C14.6261 5.72935 12.4016 5.55959 11.4196 7.29489L11.099 7.144C11.099 7.144 11.099 7.04968 10.9186 6.82334H10.7783C10.4377 6.91765 10.7783 6.93652 9.71621 7.9362C10.2373 8.25685 7.99272 6.95538 7.31135 7.72872C6.89051 7.37034 5.36748 6.71018 3.96466 5.91797C3.96466 5.78594 3.92458 5.82365 3.96466 5.46528L3.90454 5.37098C1.9406 8.53978 0.0167043 13.2175 1.0588 17.4426C1.76021 17.7067 2.02073 18.5177 3.06282 18.612C3.48367 19.4231 3.3434 21.1395 1.76022 21.9129C2.1009 22.7239 1.47966 23.1955 0.577851 24.1197L0.738146 24.3272C0.738146 24.3272 1.13899 24.4215 1.33939 24.3461C1.53979 24.6667 1.35939 25.6475 2.42152 25.3835C2.5618 25.6475 2.42154 25.4401 2.44158 26.1002L2.54182 26.2134C3.30335 26.534 3.90454 26.4963 4.90656 26.0059C4.9266 26.0059 5.00673 26.1191 5.12697 26.27C5.64802 26.1002 5.04681 26.1002 6.12898 25.4966C6.87047 25.176 7.0308 29.2313 8.07289 27.1754H8.13301C8.73422 27.6092 9.05489 27.1754 9.41562 26.5152C9.93666 26.6661 9.43565 27.3262 10.5379 27.2885L10.598 27.2131C10.4377 26.5906 10.5378 25.7419 12.0809 26.5906C14.2253 24.5536 17.5319 23.0823 20.7183 20.2153H20.7784C20.7784 20.2153 20.7784 20.2342 20.8385 20.4228L20.8986 20.4794C22.3415 20.1776 20.9388 19.4608 23.524 19.0647C23.2033 19.5363 32.2615 22.177 24.7063 23.4218C22.562 25.4778 27.532 24.6667 22.061 29.684C27.9328 27.8167 22.6823 35.1728 29.4358 33.5507C32.502 33.7582 32.522 30.3253 34.2455 29.2502C34.2455 29.1747 34.3056 29.1936 34.1453 28.9861C34.2856 28.4202 37.6122 29.2502 36.6303 27.364C37.2515 26.6661 39.1754 28.0807 39.9169 26.7038L40.0572 26.8358C40.7386 27.8544 42.0411 26.3832 44.446 27.5903H44.5061C44.6263 27.5337 44.4059 27.2131 44.6664 27.0433C46.5903 27.4583 44.0051 25.9871 45.3277 25.9493L45.3679 26.0248C45.3679 26.0248 45.3278 26.0814 45.3478 26.2511C46.5101 26.3643 47.953 25.723 50.3579 24.8176C50.2176 22.0826 56.7708 18.4234 59.396 22.6296C59.396 22.7617 59.5363 22.5165 60.8389 23.1578C60.7588 23.2144 61.0994 22.988 61.9211 23.2332H62.0012C62.1015 23.0823 62.0013 23.2332 62.2217 22.7239C61.881 21.762 62.3219 19.6683 62.342 17.4237L62.4221 17.4426Z" stroke="white" stroke-width="1.15034" stroke-linecap="round" stroke-linejoin="round"/>
</svg>
