<svg width="206" height="55" viewBox="0 0 206 55" fill="none" xmlns="http://www.w3.org/2000/svg">
<path d="M198.26 42.3891L198.5 42.6333C198.24 42.7084 198.22 42.8587 198.16 42.8775L198.001 42.5206L198.061 42.3515L198.26 42.3891Z" fill="#2D73B5"/>
<path d="M198.26 42.3891L198.5 42.6333C198.24 42.7084 198.22 42.8587 198.16 42.8775L198.001 42.5206L198.061 42.3515L198.26 42.3891Z" stroke="white" stroke-width="1.15034" stroke-linecap="round" stroke-linejoin="round"/>
<path d="M28.679 32.6027C27.761 32.8657 28.0005 32.8469 27.741 33.0535H28.1002C28.1002 33.88 27.8208 34.1242 27.9006 34.0678C27.5813 34.1805 27.4017 34.3496 27.4017 34.3872C27.8607 36.0965 26.783 37.5993 26.3639 38.0689C26.2442 37.8998 26.1643 37.8435 26.1843 37.8623L26.0247 37.8059C25.7652 38.0877 25.7652 38.1065 25.7053 38.1252L25.5257 38.0125L25.6055 37.5617L25.4858 37.3739C24.8671 37.1485 24.3282 37.449 24.408 37.3739C24.887 37.7495 24.6076 37.7308 24.6875 37.7496L24.6076 37.8998H24.3083V38.0313C24.448 38.0689 24.5478 38.144 24.5278 38.144L24.3881 38.4634L24.4679 38.8203C25.0866 38.933 25.1066 38.8203 25.1265 38.8391V39.0457L25.2663 38.9893L25.4858 38.7639L25.7652 38.6888L26.1244 38.8015C24.7474 40.5296 24.1087 43.2158 23.3902 43.629L23.1108 43.4412C21.7138 45.0379 21.2747 45.808 21.0352 46.3528L20.6161 46.4279L20.4564 46.8411L20.3167 46.9163C20.1371 46.5782 20.1371 46.4467 20.1171 46.4279C19.0594 46.8036 18.5205 47.0853 18.2811 47.3108L18.2411 47.5925L18.0416 47.7052C17.2632 48.7008 17.5625 49.64 17.3829 50.0345C15.8262 52.3074 15.1077 53.2654 15.008 53.7913C12.174 52.0444 8.98073 53.472 6.48602 52.1571C5.1688 52.4389 4.09106 50.9173 3.25284 51.2179L3.21295 51.1803C3.25286 50.9737 3.21293 51.0112 3.23289 50.9925L3.19297 50.9173C2.95347 50.7858 3.07322 50.7859 3.0333 50.7859C3.23288 49.5085 2.93352 48.3815 3.1331 47.461V47.4047C2.7539 46.334 0.698262 45.9395 0.618431 45.808C0.5386 45.6577 0.598465 45.6014 0.578507 45.6202C1.25707 44.5683 1.65624 43.9859 1.71611 43.6666C1.45666 43.3848 1.19721 43.7981 1.11738 43.7042L1.03753 43.6478C1.49656 42.7274 1.53648 42.2578 1.91567 42.1451C1.61631 41.4688 1.93563 40.2667 1.91567 40.4169C-1.37736 37.2987 6.88519 36.5286 8.0627 37.0545C10.6971 33.2601 11.0363 29.1276 13.9901 26.6105C13.6308 25.9155 13.6708 26.0845 13.7506 25.7464C13.9302 25.6713 13.8903 25.7464 13.9103 25.7089C15.5668 26.7232 15.7264 22.478 15.447 22.3653C15.9061 20.5995 14.509 18.9465 13.7107 18.9277C13.6309 18.0073 14.2695 17.857 13.9901 17.594C13.7706 17.5377 13.6309 17.5001 13.6109 17.4626C13.4712 17.1808 13.6708 17.1056 13.6109 17.0681V16.993C12.7128 15.8471 11.3557 17.0681 10.9565 15.9222L10.717 15.7908C10.5175 14.7764 12.6529 15.0582 12.7527 15.1333C12.8126 15.3211 12.7927 15.2836 12.7927 15.3024C17.5227 16.2791 15.6666 12.5035 14.03 12.7101C14.2695 9.98642 14.988 9.14114 13.0322 8.05165C12.3736 8.69032 12.5532 8.57759 12.0941 8.55881C12.4733 7.80744 12.3536 8.01406 12.3935 7.7323C11.8147 6.75551 13.3914 5.91023 13.5111 5.30914C17.7222 2.86718 15.2075 5.19644 18.0016 4.87711C18.3209 3.22409 15.1277 2.20974 15.7863 1.79649L15.8462 1.74014H15.926C18.1213 2.34124 22.9911 1.28931 23.1508 0.613072L23.2305 0.575495H23.2904C26.6234 2.04067 31.9321 5.53455 35.3249 7.54447C33.1695 22.4592 37.0014 24.6945 28.6391 32.6214L28.679 32.6027Z" fill="#2D73B5"/>
<path d="M28.679 32.6027C27.761 32.8657 28.0005 32.8469 27.741 33.0535H28.1002C28.1002 33.88 27.8208 34.1242 27.9006 34.0678C27.5813 34.1805 27.4017 34.3496 27.4017 34.3872C27.8607 36.0965 26.783 37.5993 26.3639 38.0689C26.2442 37.8998 26.1643 37.8435 26.1843 37.8623L26.0247 37.8059C25.7652 38.0877 25.7652 38.1065 25.7053 38.1252L25.5257 38.0125L25.6055 37.5617L25.4858 37.3739C24.8671 37.1485 24.3282 37.449 24.408 37.3739C24.887 37.7495 24.6076 37.7308 24.6875 37.7496L24.6076 37.8998H24.3083V38.0313C24.448 38.0689 24.5478 38.144 24.5278 38.144L24.3881 38.4634L24.4679 38.8203C25.0866 38.933 25.1066 38.8203 25.1265 38.8391V39.0457L25.2663 38.9893L25.4858 38.7639L25.7652 38.6888L26.1244 38.8015C24.7474 40.5296 24.1087 43.2158 23.3902 43.629L23.1108 43.4412C21.7138 45.0379 21.2747 45.808 21.0352 46.3528L20.6161 46.4279L20.4564 46.8411L20.3167 46.9163C20.1371 46.5782 20.1371 46.4467 20.1171 46.4279C19.0594 46.8036 18.5205 47.0853 18.2811 47.3108L18.2411 47.5925L18.0416 47.7052C17.2632 48.7008 17.5625 49.64 17.3829 50.0345C15.8262 52.3074 15.1077 53.2654 15.008 53.7913C12.174 52.0444 8.98073 53.472 6.48602 52.1571C5.1688 52.4389 4.09106 50.9173 3.25284 51.2179L3.21295 51.1803C3.25286 50.9737 3.21293 51.0112 3.23289 50.9925L3.19297 50.9173C2.95347 50.7858 3.07322 50.7859 3.0333 50.7859C3.23288 49.5085 2.93352 48.3815 3.1331 47.461V47.4047C2.7539 46.334 0.698262 45.9395 0.618431 45.808C0.5386 45.6577 0.598465 45.6014 0.578507 45.6202C1.25707 44.5683 1.65624 43.9859 1.71611 43.6666C1.45666 43.3848 1.19721 43.7981 1.11738 43.7042L1.03753 43.6478C1.49656 42.7274 1.53648 42.2578 1.91567 42.1451C1.61631 41.4688 1.93563 40.2667 1.91567 40.4169C-1.37736 37.2987 6.88519 36.5286 8.06269 37.0545C10.6971 33.2601 11.0363 29.1276 13.9901 26.6105C13.6308 25.9155 13.6708 26.0845 13.7506 25.7464C13.9302 25.6713 13.8903 25.7464 13.9103 25.7088C15.5668 26.7232 15.7264 22.478 15.447 22.3653C15.9061 20.5995 14.509 18.9465 13.7107 18.9277C13.6309 18.0073 14.2695 17.857 13.9901 17.594C13.7706 17.5377 13.6309 17.5001 13.6109 17.4626C13.4712 17.1808 13.6708 17.1056 13.6109 17.0681V16.993C12.7128 15.8471 11.3557 17.0681 10.9565 15.9222L10.717 15.7908C10.5175 14.7764 12.6529 15.0582 12.7527 15.1333C12.8126 15.3211 12.7927 15.2836 12.7927 15.3024C17.5227 16.2791 15.6666 12.5035 14.03 12.7101C14.2695 9.98642 14.988 9.14114 13.0322 8.05165C12.3735 8.69032 12.5532 8.57759 12.0941 8.55881C12.4733 7.80744 12.3536 8.01406 12.3935 7.7323C11.8147 6.75551 13.3914 5.91023 13.5111 5.30914C17.7222 2.86718 15.2075 5.19644 18.0016 4.87711C18.3209 3.22409 15.1277 2.20974 15.7863 1.79649L15.8462 1.74014H15.926C18.1213 2.34124 22.9911 1.28931 23.1507 0.613072L23.2305 0.575495H23.2904C26.6234 2.04067 31.9321 5.53455 35.3249 7.54447C33.1695 22.4592 37.0014 24.6945 28.6391 32.6214L28.679 32.6027Z" stroke="white" stroke-width="1.15034" stroke-linecap="round" stroke-linejoin="round"/>
<path d="M205.425 41.7314C205.425 41.7314 205.325 41.825 205.325 41.8437C205.365 41.7127 205.345 41.7502 205.365 41.7127H205.425V41.7314Z" fill="#2D73B5"/>
<path d="M205.425 41.7314C205.425 41.7314 205.325 41.825 205.325 41.8437C205.365 41.7127 205.345 41.7502 205.365 41.7127H205.425V41.7314Z" stroke="white" stroke-width="1.15034" stroke-linecap="round" stroke-linejoin="round"/>
</svg>
