<svg width="593" height="237" viewBox="0 0 593 237" fill="none" xmlns="http://www.w3.org/2000/svg">
<path d="M394.16 50.6032C394.57 50.7916 394.901 50.7297 395.155 50.4176C395.333 50.1969 395.562 50.0731 395.843 50.0462C396.62 49.9708 397.456 50.1619 398.352 50.6194C398.821 50.8616 399.255 50.8455 399.655 50.571C399.935 50.3826 400.24 50.3099 400.569 50.353L403.191 50.684C403.509 50.7217 403.717 50.5898 403.814 50.2884C404.089 49.481 404.575 48.8217 405.271 48.3103C405.503 48.1381 405.659 47.9147 405.74 47.6402C406.533 45.0082 412.498 41.3589 414.804 39.6312C415.824 38.8561 417.475 38.0568 418.357 36.6762C419.773 34.4721 421.294 32.7927 422.8 30.7662C422.962 30.5456 423.18 30.4595 423.455 30.5079C426.752 31.0677 430.048 31.5575 433.344 31.9773C435.424 32.2437 436.468 33.6647 438.37 34.3752C441.429 35.5217 443.185 36.9507 445.524 38.2021C447.232 39.1225 449.004 38.3878 449.878 41.0602C449.956 41.3097 450.123 41.5222 450.347 41.6577C451.423 42.3036 452.945 43.4258 454.199 42.7879C454.447 42.6641 454.696 42.6614 454.944 42.7799C455.58 43.0813 456.101 42.9414 456.506 42.3601C456.641 42.1663 456.827 42.0586 457.064 42.0371L460.066 41.8191C460.315 41.7984 460.545 41.6825 460.706 41.4962C460.884 41.2916 461.108 41.149 461.378 41.0682C461.463 41.0417 461.551 41.0334 461.636 41.0441C463.325 41.2055 464.828 40.748 466.144 39.6715C466.513 39.3724 466.973 39.2058 467.448 39.1985C467.924 39.1911 468.388 39.3435 468.766 39.6312L471.259 41.5204C471.486 41.6946 471.752 41.8034 472.027 41.8353C473.101 41.9644 473.549 42.6184 473.371 43.7971C473.352 43.9341 473.389 44.0728 473.472 44.1831C473.555 44.2934 473.679 44.3665 473.816 44.3865C474.609 44.4942 475.378 44.4 476.122 44.104C476.179 44.0816 476.24 44.0741 476.301 44.0822C476.361 44.0902 476.418 44.1136 476.467 44.1501C476.516 44.1865 476.554 44.2348 476.579 44.2904C476.604 44.3459 476.614 44.4068 476.608 44.4673L476.462 45.7752C476.45 45.9109 476.385 46.0368 476.281 46.1269C476.178 46.217 476.042 46.2645 475.904 46.2596L474.625 46.2192C474.473 46.2145 474.322 46.2509 474.188 46.3248C474.054 46.3987 473.943 46.5072 473.865 46.6391L472.513 48.8835C472.335 49.1796 472.381 49.438 472.651 49.6586C472.931 49.8847 473.142 50.1619 473.282 50.4902C473.385 50.7231 473.394 50.9892 473.306 51.233C472.4 53.7116 471.364 55.7785 471.542 58.5316C471.639 60.0333 471.963 62.6653 471.251 64.0136C471.227 64.0589 471.214 64.1093 471.214 64.1606C471.214 64.2118 471.226 64.2623 471.25 64.3077C471.274 64.353 471.309 64.3918 471.351 64.4208C471.394 64.4497 471.442 64.4679 471.493 64.4738C473.603 64.7052 475.089 63.906 475.952 62.0759C476.087 61.7907 476.276 61.5511 476.519 61.3574L479.885 58.6285C479.986 58.5457 480.067 58.4409 480.122 58.3221C480.176 58.2033 480.203 58.0734 480.201 57.9422C480.18 57.221 480.46 56.6719 481.043 56.2952C481.261 56.1551 481.417 55.9356 481.48 55.6816C482.119 53.1303 484.094 52.8558 485.421 51.3864C486.495 50.1969 487.506 48.9643 488.456 47.6887C488.617 47.4734 488.712 47.2311 488.739 46.962C489.216 41.9725 493.157 40.6727 496.872 38.5089C496.983 38.4434 497.107 38.4036 497.234 38.3924C497.362 38.3812 497.49 38.399 497.608 38.4443C498.736 38.8588 499.896 39.0176 501.088 38.9207C501.358 38.8991 501.606 38.961 501.833 39.1064C503.354 40.0483 504.919 40.1479 506.527 39.4051C506.769 39.292 507.026 39.2571 507.295 39.3001C509.982 39.7522 512.394 35.5055 513.899 34.0684C514.19 33.7939 514.457 33.8127 514.7 34.1249C515.305 34.9 516.103 35.2391 517.096 35.1422C517.362 35.1163 517.63 35.1911 517.848 35.3521C520.203 37.1203 523.351 40.0106 525.464 37.7823C525.487 37.7562 525.516 37.7362 525.548 37.7241C525.581 37.712 525.616 37.7082 525.651 37.713C525.685 37.7178 525.718 37.7311 525.746 37.7516C525.774 37.7722 525.797 37.7993 525.811 37.8307L525.949 38.1052C525.967 38.1394 525.974 38.1785 525.966 38.2156C525.959 38.2526 525.938 38.2851 525.909 38.3071C525.267 38.8507 525.118 39.4912 525.464 40.2286C525.577 40.46 525.588 40.6942 525.496 40.931C524.436 43.7164 526.273 46.4696 526.694 49.368C526.73 49.6324 526.866 49.8723 527.074 50.0381C528.353 51.093 529.043 52.4521 529.146 54.1153C529.162 54.3844 529.264 54.6159 529.453 54.8096C529.955 55.3317 529.979 55.9077 529.526 56.5374C529.37 56.7581 529.386 56.9626 529.575 57.151C530.91 58.4912 532.998 58.7738 535.377 59.3309C535.483 59.3574 535.592 59.3574 535.693 59.3309L537.335 58.9111C537.611 58.8357 537.875 58.8653 538.129 58.9999C538.83 59.3659 540.144 59.7803 542.07 60.2432C543.246 60.5231 543.963 61.3412 544.222 62.6976C544.266 62.9452 544.365 63.1658 544.522 63.3596C546.286 65.5395 548.083 65.806 550.138 67.122C551.231 67.8244 551.975 67.8405 553.173 67.8001C553.475 67.7894 553.696 67.6468 553.836 67.3722C554.29 66.4734 555.013 66.3173 556.005 66.904C556.248 67.0493 556.512 67.1247 556.798 67.13C557.662 67.1354 558.517 67.1516 559.364 67.1785C560.521 67.2189 561.403 67.8405 562.73 67.7356C563.896 67.6387 564.6 66.7344 565.927 66.4761C566.182 66.4232 566.419 66.3064 566.615 66.137C567.516 65.3404 568.53 64.7295 569.658 64.3043C569.976 64.1859 570.087 63.9652 569.989 63.6422C569.779 62.8887 569.998 62.3639 570.645 62.0678C570.918 61.9422 571.138 61.7283 571.268 61.4623C572.158 59.6646 573.467 58.2409 575.193 57.1914C575.42 57.0514 575.627 57.0756 575.816 57.264C578.641 60.001 580.923 58.8707 584.103 57.7C584.257 57.6417 584.398 57.5479 584.516 57.4255L586.045 55.8673C586.139 55.7715 586.254 55.6979 586.381 55.6518C586.509 55.6057 586.645 55.5883 586.782 55.6008C588.373 55.7462 589.641 55.181 590.585 53.9054C590.695 53.7567 590.859 53.6566 591.042 53.6264C591.225 53.5963 591.412 53.6384 591.565 53.7439L592.609 54.4786C593.035 54.78 593.113 55.1541 592.843 55.6008C591.948 57.0702 591.405 58.6661 591.217 60.3885C591.19 60.6415 591.279 60.8407 591.484 60.986L591.864 61.2524C592.101 61.4193 592.172 61.6426 592.074 61.9225L582.307 88.9208C582.276 89.006 582.227 89.0826 582.162 89.1443C582.097 89.2061 582.019 89.2512 581.934 89.2761L576.544 90.9554C576.329 91.02 576.11 91.0227 575.889 90.9635C574.912 90.7051 574.125 90.9985 573.526 91.8435C573.364 92.0803 573.138 92.1988 572.846 92.1988C569.504 92.231 568.047 94.4352 565.822 95.8965C565.691 95.9812 565.587 96.1014 565.523 96.2431C565.458 96.3847 565.435 96.5418 565.458 96.6958C565.511 97.121 565.641 97.5193 565.846 97.8907C566.008 98.1867 565.948 98.4289 565.668 98.6173C561.978 101.088 561.387 98.2459 558.425 97.8988C556.753 97.6996 555.204 98.0656 553.78 98.9968C553.526 99.1636 553.461 99.3843 553.586 99.6588C553.996 100.595 554.651 101.314 555.552 101.814C555.81 101.956 556.025 102.163 556.175 102.414C556.326 102.665 556.407 102.951 556.41 103.244L556.75 151.597C556.75 151.697 556.781 151.795 556.839 151.879C557.556 153.015 558.01 154.242 558.198 155.561C558.242 155.857 558.349 156.131 558.522 156.384L561.298 160.55C561.344 160.618 561.406 160.675 561.477 160.717C561.549 160.758 561.629 160.782 561.711 160.789C561.794 160.795 561.876 160.782 561.953 160.752C562.03 160.722 562.099 160.675 562.156 160.615L564.77 157.749C564.942 157.566 565.153 157.469 565.401 157.458L568.945 157.281C569.226 157.264 569.477 157.17 569.698 156.998C570.661 156.239 571.317 155.351 572.385 154.697C573.518 154.008 574.502 153.133 575.339 152.073C575.506 151.854 575.747 151.702 576.018 151.645C576.688 151.489 577.127 151.075 577.338 150.402C577.553 149.697 577.958 149.565 578.551 150.006C582.226 152.751 581.789 148.561 584.095 147.584C584.823 147.272 585.565 147.016 586.32 146.817C586.488 146.774 586.534 146.828 586.458 146.979C586.42 147.059 586.358 147.116 586.272 147.148C586.175 147.186 586.115 147.253 586.094 147.35L584.645 152.719C584.57 152.993 584.429 153.233 584.224 153.437C582.201 155.456 582.217 158.492 578.762 158.734C578.539 158.749 578.326 158.825 578.144 158.954C577.963 159.083 577.82 159.259 577.732 159.465C577.645 159.67 577.615 159.895 577.647 160.117C577.678 160.338 577.77 160.547 577.912 160.72C578.549 161.495 578.484 162.257 577.718 163.005C577.535 163.188 577.367 163.174 577.216 162.964C577.06 162.754 576.849 162.615 576.585 162.545C576.288 162.469 576.024 162.531 575.792 162.73C575.296 163.161 574.718 163.352 574.06 163.303C573.79 163.282 573.615 163.4 573.534 163.659L572.951 165.596C572.876 165.849 572.727 166.049 572.506 166.194C570.111 167.744 568.247 169.768 566.914 172.265C566.804 172.474 566.621 172.637 566.396 172.725C564.689 173.404 565.903 176.157 563.054 177.279C562.79 177.381 562.604 177.562 562.496 177.82L561.266 180.759C561.158 181.012 561.004 181.232 560.804 181.421L559.736 182.414C559.515 182.624 559.269 182.653 559 182.503L558.465 182.196C558.174 182.034 557.88 182.026 557.583 182.172C556.499 182.715 555.35 182.853 554.136 182.583C554.008 182.556 553.877 182.56 553.751 182.593C553.626 182.627 553.511 182.69 553.416 182.777C553.081 183.089 552.809 183.445 552.598 183.843C552.453 184.112 552.234 184.295 551.943 184.392C550.961 184.704 549.974 184.736 548.981 184.489C548.877 184.463 548.768 184.46 548.664 184.48C548.559 184.499 548.46 184.541 548.374 184.602L547.152 185.45C546.909 185.616 546.653 185.641 546.383 185.522C541.73 183.52 539.788 188.849 536.793 191.166C535.784 191.946 534.727 192.657 533.621 193.297C533.505 193.365 533.407 193.457 533.334 193.568C533.261 193.679 533.215 193.804 533.2 193.935C533.087 194.985 532.647 195.859 531.881 196.559C531.66 196.758 531.544 197.003 531.533 197.294C531.436 199.151 531.881 200.806 530.028 202.138C529.822 202.285 529.662 202.49 529.566 202.727C528.638 205.074 526.847 206.207 524.193 206.126C524.088 206.124 523.983 206.142 523.884 206.181C523.785 206.22 523.695 206.278 523.618 206.352L518.86 210.882C518.813 210.927 518.755 210.96 518.692 210.978C518.628 210.995 518.562 210.996 518.498 210.981C518.434 210.966 518.375 210.934 518.326 210.89C518.278 210.846 518.242 210.79 518.221 210.728C517.314 208.088 516.812 205.529 515.509 203.05C513.891 199.966 512.321 196.858 510.8 193.725C510.665 193.451 510.697 193.198 510.897 192.966C511.906 191.809 512.035 190.482 511.285 188.986C511.166 188.749 511.102 188.499 511.091 188.235C510.953 185.199 508.825 185.03 507.546 182.632C507.417 182.39 507.223 182.212 506.964 182.099C506.063 181.711 505.475 180.891 505.199 179.636C504.655 177.139 505.329 175.403 507.223 174.429C507.344 174.367 507.448 174.275 507.526 174.163C507.604 174.05 507.652 173.92 507.668 173.783C507.805 172.499 506.397 172.362 505.556 172.225C505.278 172.177 505.017 172.06 504.796 171.886C504.575 171.712 504.401 171.485 504.291 171.227C504.18 170.97 504.137 170.688 504.164 170.41C504.191 170.131 504.289 169.864 504.447 169.633C505.102 168.664 506.324 168.632 507.061 168.204C512.022 165.338 510.322 161.543 507.004 158.483C506.173 157.714 505.553 156.788 505.143 155.706C505.056 155.469 504.886 155.329 504.633 155.286C501.261 154.71 498.598 155.483 496.645 157.603C494.541 159.88 491.061 163.877 488.601 163.182C485.078 162.176 481.911 160.521 479.1 158.217C477.846 157.184 476.478 155.335 474.658 153.97C473.419 153.042 473.589 151.145 472.246 149.699C472.062 149.494 471.943 149.241 471.906 148.973C471.534 145.969 473.735 144.048 476.26 142.934C478.809 141.803 481.423 135.998 479.651 133.649C476.236 129.136 472.173 128.716 467.965 127.368C462.672 125.672 458.853 133.512 457.129 137.024C456.573 138.159 456.287 139.446 456.271 140.883C456.244 143.633 456.144 146.376 455.972 149.11C455.956 149.37 455.875 149.622 455.737 149.845C453.358 153.72 452.888 156.336 447.466 153.3C445.556 152.226 444.52 150.087 443.598 148.206C443.091 147.178 442.834 146.02 442.829 144.734C442.813 141.48 442.797 139.551 441.372 135.78C439.908 131.905 437.083 132.373 434.218 130.355C431.111 128.159 426.134 121.514 422.492 121.329C418.818 121.143 414.092 120.368 410.612 121.53C409.803 121.799 408.902 121.961 407.909 122.015C405.33 122.149 402.932 122.854 400.715 124.13C400.414 124.301 400.066 124.373 399.722 124.336C399.377 124.298 399.053 124.152 398.797 123.92L397.542 122.774C397.327 122.575 397.073 122.507 396.782 122.572C395.972 122.744 395.425 122.583 395.139 122.087C393.779 119.77 393.302 117.946 390.566 116.662C388.953 115.908 387.613 114.794 386.544 113.319C385.606 112.028 381.915 112.488 380.75 112.262C380.07 112.127 378.708 111.707 376.663 111.002C373.839 110.033 371.176 109.606 368.32 109.137C366.442 108.83 364.702 107.983 363.917 106.376C363.302 105.111 362.765 105.144 362.307 106.473C362.264 106.591 362.129 106.785 361.902 107.054C360.745 108.419 356.707 108.588 355.072 108.37C354.818 108.333 354.56 108.37 354.327 108.475C353.675 108.76 353.143 108.634 352.733 108.096C350.572 105.254 350.516 102.67 350.581 99.2713C350.581 99.0022 350.667 98.7599 350.84 98.5446C352.749 96.1952 349.439 93.5067 347.562 92.7316C347.43 92.6761 347.312 92.5932 347.215 92.4887C347.119 92.3842 347.047 92.2605 347.004 92.1261C346.202 89.7686 346.647 86.7006 344.373 84.8194C342.107 82.9463 337.195 83.3258 334.363 83.4065C334.082 83.4119 333.845 83.315 333.651 83.1159C330.964 80.3385 329.192 77.6258 324.878 79.8945C324.635 80.0237 324.379 80.0667 324.109 80.0237C322.11 79.7249 320.306 81.8645 319.343 83.568C319.181 83.8533 318.935 83.9959 318.606 83.9959L316.349 83.9717C316.21 83.9717 316.074 84.0078 315.952 84.0767C314.841 84.7333 314.169 85.6941 313.937 86.959C313.883 87.2388 313.756 87.4837 313.557 87.6936C311.8 89.5021 307.77 90.3014 305.043 90.7293C304.725 90.7778 304.463 90.9985 304.258 91.3914C304.134 91.6228 303.956 91.8031 303.724 91.9323C302.629 92.5298 301.501 93.0438 300.341 93.4744C299.187 93.905 298.143 94.4728 297.209 95.1779C295.17 96.7227 292.99 98.0414 290.67 99.134C288.72 100.054 287.328 99.134 285.362 99.8768C284.148 100.329 282.912 100.394 281.655 100.071C281.407 100.011 281.156 99.9898 280.903 100.006L276.622 100.337C275.979 100.391 275.613 100.735 275.521 101.37C274.898 105.625 277.423 108.055 277.447 111.842C277.447 112.1 277.523 112.352 277.665 112.569C279.227 114.966 276.816 117.833 278.839 120.489C278.871 120.533 278.894 120.583 278.906 120.636C278.918 120.689 278.919 120.744 278.91 120.797C278.9 120.85 278.879 120.9 278.849 120.944C278.818 120.989 278.779 121.026 278.734 121.054C277.455 121.845 276.195 122.663 274.954 123.508C274.307 123.952 272.535 122.854 271.377 123.105C271.151 123.153 270.927 123.156 270.706 123.113C268.707 122.766 267.088 122.273 265.17 123.258C263.163 124.297 261.348 125.36 259.724 126.447C259.387 126.675 258.997 126.813 258.591 126.85C258.185 126.887 257.775 126.82 257.401 126.657C253.857 125.123 251.753 126.576 248.354 126.722C244.121 126.907 240.795 127.731 240.253 132.624C239.978 135.086 242.972 139.317 244.283 141.392C244.387 141.558 244.422 141.757 244.38 141.949C244.121 143.246 244.326 144.441 244.995 145.533C245.157 145.802 245.163 146.072 245.011 146.341C244.048 148.077 243.498 150.2 242.074 151.54C240.755 152.792 239.646 153.486 238.74 155.415C238.378 156.185 237.922 156.855 237.372 157.426C235.165 159.719 233.137 162.16 231.286 164.749C230.876 165.325 230.207 165.658 229.279 165.75C227.539 165.919 226.673 166.412 225.201 166.961C224.969 167.047 224.753 167.012 224.553 166.856C224.413 166.748 224.283 166.689 224.165 166.678C222.8 166.56 221.114 166.708 219.107 167.122C218.6 167.225 218.066 167.112 217.504 166.783C217.272 166.649 217.027 166.63 216.768 166.727C215.694 167.136 214.572 167.281 213.401 167.163C213.275 167.149 213.147 167.164 213.026 167.205C212.906 167.247 212.796 167.314 212.705 167.403C212.614 167.492 212.544 167.599 212.499 167.718C212.454 167.837 212.436 167.965 212.447 168.091C212.511 168.85 211.807 169.601 211.071 169.924C209.512 170.607 208.117 171.536 206.887 172.709C206.693 172.892 206.466 172.997 206.207 173.024C204.394 173.202 203.957 174.397 202.622 175.22C202.374 175.376 202.166 175.331 201.999 175.083L201.869 174.889C201.745 174.701 201.57 174.609 201.343 174.615L197.459 174.623C197.338 174.623 197.221 174.583 197.128 174.507C197.035 174.432 196.972 174.327 196.949 174.211C196.776 173.264 196.439 172.62 195.937 172.281C193.769 170.78 192.134 168.6 190.038 167.461C185.344 164.934 182.754 165.403 179.445 169.464C177.179 172.233 175.333 179.209 174.953 182.26C174.686 184.36 177.162 185.894 175.957 188.881C175.018 191.214 174.848 192.821 174.241 194.791C173.367 197.641 173.553 200.434 172.315 203.042C171.894 203.938 170.971 204.463 170.559 205.69C169.741 208.104 167.573 210.914 167.896 213.36C168.031 214.383 168.142 215.161 168.228 215.693C168.248 215.826 168.236 215.961 168.194 216.088C168.152 216.214 168.08 216.328 167.985 216.42C166.69 217.688 164.967 220.279 162.903 219.65C160.33 218.883 158.323 218.899 156.55 216.21C156.419 216.012 156.225 215.864 156 215.79C151.662 214.369 150.117 219.343 148.798 222.839C148.11 224.655 147.05 225.245 145.981 226.787C145.792 227.056 145.582 227.075 145.35 226.843C143.294 224.776 140.438 223.872 137.702 225.172C136.788 225.608 135.93 225.568 135.169 226.173C132.944 227.973 133.778 229.911 132.572 231.712C131.091 233.916 129.513 234.457 126.785 234.352C123.824 234.231 122.941 237.024 120.133 237C119.561 236.994 118.552 236.712 117.107 236.152C113.748 234.852 110.891 234.852 107.242 232.656C104.377 230.936 101.148 229.507 98.4044 231.098C96.7643 232.051 96.5161 231.704 97.6599 230.056C98.5069 228.845 98.4206 227.707 97.4009 226.641C97.3656 226.603 97.3408 226.557 97.329 226.506C97.3172 226.456 97.3187 226.403 97.3334 226.354C97.348 226.304 97.3754 226.259 97.4128 226.223C97.4502 226.187 97.4963 226.162 97.5466 226.149C98.7281 225.858 99.7909 225.35 100.735 224.623C100.999 224.418 101.08 224.157 100.978 223.84C100.697 222.984 100.692 222.112 100.962 221.224C101.04 220.963 101.02 220.682 100.905 220.433C100.055 218.608 100.824 217.97 101.811 216.565C101.979 216.334 101.971 216.108 101.787 215.887C101.172 215.15 101.186 214.45 101.828 213.788C102.033 213.584 102.087 213.347 101.989 213.078C101.445 211.511 100.425 210.365 98.9304 209.638C98.8171 209.584 98.8117 209.52 98.9142 209.444L101.552 207.555C101.639 207.491 101.725 207.491 101.811 207.555C103.878 209.019 105.534 208.669 106.78 206.506C106.926 206.258 107.004 205.989 107.015 205.698L107.039 205.085C107.042 205.014 107.059 204.944 107.091 204.88C107.123 204.816 107.168 204.76 107.223 204.715C107.278 204.67 107.342 204.637 107.411 204.619C107.48 204.6 107.552 204.597 107.622 204.608C110.293 205.101 110.786 202.372 111.66 200.628C111.704 200.541 111.727 200.445 111.73 200.348C111.732 200.251 111.714 200.155 111.675 200.066C111.637 199.978 111.579 199.899 111.506 199.836C111.434 199.772 111.348 199.726 111.256 199.7C110.905 199.597 110.557 199.573 110.212 199.627C109.785 199.697 109.691 199.554 109.928 199.199C110.177 198.822 110.317 198.408 110.349 197.956C110.365 197.676 110.287 197.423 110.115 197.197C109.802 196.771 109.58 196.301 109.451 195.784C109.426 195.676 109.43 195.564 109.463 195.459C109.496 195.354 109.556 195.26 109.637 195.186C110.797 194.131 111.374 192.84 111.369 191.311C111.363 191.053 111.439 190.819 111.595 190.609L113.165 188.542C113.244 188.437 113.287 188.311 113.287 188.181C113.287 188.051 113.244 187.925 113.165 187.823C112.34 186.749 113.174 185.183 113.546 184.077C113.586 183.961 113.588 183.835 113.554 183.717C113.519 183.598 113.448 183.493 113.352 183.415C112.273 182.559 111.455 181.499 110.899 180.234C110.835 180.087 110.74 179.955 110.619 179.849C110.498 179.743 110.356 179.664 110.202 179.619C110.047 179.573 109.885 179.562 109.726 179.586C109.567 179.61 109.415 179.669 109.281 179.758C107.59 180.872 106.198 180.315 104.579 179.104C102.993 177.919 101.25 177.026 99.3512 176.423C99.2225 176.383 99.1088 176.304 99.0251 176.198C98.9414 176.091 98.8915 175.962 98.8819 175.826C98.8603 175.551 98.7794 175.293 98.6391 175.051C98.4718 174.76 98.221 174.604 97.8865 174.582C97.3685 174.545 96.8965 174.386 96.4702 174.106C96.2329 173.95 95.9739 173.85 95.6933 173.807L90.603 173.056C90.3279 173.019 90.166 172.863 90.1175 172.588C89.9826 171.808 89.613 171.186 89.0088 170.723C88.7876 170.556 88.6419 170.341 88.5718 170.077L85.5613 158.306C85.5403 158.222 85.4952 158.146 85.4318 158.088C82.3566 155.141 82.8583 153.381 82.9554 149.417C82.9608 149.132 82.8341 148.932 82.5751 148.819C79.0548 147.285 82.0976 143.991 78.5611 143.111C78.3237 143.052 78.1673 142.907 78.0917 142.675C77.3391 140.399 75.0003 139.026 75.5264 136.176C75.5803 135.88 75.4994 135.627 75.2836 135.417C74.8412 134.992 74.5552 134.47 74.4258 133.851C74.3927 133.687 74.323 133.534 74.222 133.402C74.121 133.271 73.9913 133.165 73.8431 133.092C72.6508 132.5 71.9224 131.534 71.6581 130.193C71.628 130.042 71.567 129.899 71.479 129.772C71.391 129.646 71.2778 129.539 71.1464 129.458C71.0151 129.377 70.8684 129.323 70.7156 129.301C70.5627 129.279 70.407 129.289 70.258 129.329C68.9254 129.685 67.7142 130.236 66.6244 130.985C66.4292 131.118 66.1979 131.189 65.9612 131.188C65.7246 131.187 65.4938 131.114 65.2997 130.979C65.1055 130.844 64.9572 130.654 64.8743 130.432C64.7915 130.211 64.7781 129.97 64.8359 129.741C64.9115 129.44 64.8845 129.173 64.755 128.942C64.6093 128.689 64.3881 128.571 64.0914 128.587C63.2983 128.627 62.9908 128.587 62.3758 128.005C61.4478 127.123 60.5171 127.195 59.5838 128.223C59.3896 128.439 59.1495 128.528 58.8635 128.49C57.3043 128.291 56.0203 128.829 55.0114 130.105C54.9095 130.235 54.7689 130.329 54.6093 130.376C54.4497 130.422 54.279 130.418 54.1212 130.363C53.8137 130.261 53.5655 130.086 53.3767 129.838C53.2364 129.655 53.1905 129.451 53.2391 129.225L54.0646 125.406C54.0902 125.297 54.0728 125.184 54.016 125.091L51.9605 121.482C51.8727 121.327 51.7544 121.191 51.6126 121.082C51.4709 120.973 51.3086 120.895 51.1355 120.85C50.9625 120.806 50.7822 120.796 50.6055 120.823C50.4288 120.85 50.2593 120.912 50.1072 121.006C47.9708 122.322 46.9187 118.85 45.025 121.143C44.8362 121.374 44.6231 121.401 44.3857 121.224C43.5225 120.599 42.5433 120.354 41.4481 120.489C41.3137 120.506 41.1778 120.473 41.0669 120.395C40.9561 120.317 40.8784 120.201 40.8492 120.069C40.6604 119.208 40.1478 118.594 39.3116 118.228C38.9447 118.072 38.8665 117.825 39.0769 117.485C39.1255 117.41 39.1632 117.332 39.1902 117.251C39.2363 117.098 39.2285 116.934 39.1682 116.785C39.1078 116.637 38.9986 116.514 38.8584 116.436L37.3289 115.588C37.0969 115.459 36.9539 115.265 36.9 115.007C36.5439 113.239 37.4746 112.221 37.8792 110.776C37.9493 110.529 38.0923 110.33 38.3081 110.179C38.9178 109.759 39.3736 109.213 39.6758 108.54C39.7247 108.428 39.7434 108.306 39.73 108.185C39.7166 108.064 39.6716 107.949 39.5995 107.851C39.5274 107.753 39.4306 107.675 39.319 107.626C39.2075 107.577 39.0849 107.558 38.9636 107.571C37.426 107.741 36.0341 107.571 34.4965 107.902C31.281 108.591 28.4108 108.699 25.8858 108.225C25.0334 108.063 24.3752 108.058 23.9112 108.209C23.6523 108.29 23.3906 108.303 23.1262 108.249L20.2533 107.627C19.9242 107.558 19.6329 107.636 19.3793 107.862C18.9531 108.233 18.4568 108.456 17.8903 108.532C17.8191 108.541 17.7504 108.564 17.6883 108.6C17.6262 108.636 17.5721 108.684 17.529 108.741C17.4859 108.798 17.4549 108.863 17.4377 108.933C17.4205 109.002 17.4176 109.075 17.429 109.145L17.5018 109.654C17.5123 109.721 17.5082 109.789 17.4899 109.854C17.4716 109.919 17.4394 109.979 17.3956 110.03C17.3518 110.081 17.2974 110.123 17.2361 110.151C17.1749 110.18 17.1081 110.195 17.0405 110.195H14.2486C14.1396 110.195 14.0318 110.219 13.9326 110.265C13.8334 110.311 13.7452 110.378 13.674 110.461L12.4439 111.923C12.2551 112.143 12.0258 112.294 11.756 112.375C10.6284 112.714 9.47387 112.76 8.29234 112.512C8.03337 112.458 7.82026 112.332 7.65301 112.133C6.43102 110.679 4.07605 111.503 2.67601 111.68C2.3577 111.718 2.08525 111.624 1.85865 111.398C1.38388 110.93 0.852463 110.585 0.264395 110.364C0.177056 110.33 0.103956 110.267 0.0567677 110.185C0.00957932 110.104 -0.00897961 110.009 0.00406445 109.917C0.0171085 109.824 0.0610029 109.738 0.128728 109.673C0.196454 109.607 0.284107 109.567 0.377692 109.557C1.18696 109.487 1.84786 109.145 2.3604 108.532C2.55462 108.306 2.7974 108.152 3.08874 108.072C7.17555 106.957 7.6692 104.543 9.69237 101.605C9.7775 101.483 9.89433 101.386 10.03 101.327C10.1657 101.267 10.3149 101.246 10.4612 101.265C14.1191 101.774 16.4417 101.936 18.8695 99.2955C19.0583 99.0963 19.2876 99.0076 19.5574 99.0291C23.5794 99.3682 24.0731 95.9853 23.5309 92.5782C23.4823 92.2768 23.3232 92.048 23.0534 91.8919C22.9833 91.8543 22.9185 91.8031 22.8592 91.7385C22.8279 91.7096 22.8063 91.6721 22.7969 91.6308C22.7875 91.5895 22.7907 91.5461 22.8061 91.5059C22.8216 91.4657 22.8486 91.4304 22.8839 91.4043C22.9191 91.3782 22.9612 91.3625 23.0048 91.3591C23.6415 91.3214 24.092 91.0254 24.3563 90.471C24.4234 90.332 24.5294 90.2153 24.6616 90.1351C24.7937 90.0549 24.9462 90.0145 25.1008 90.0189L27.0836 90.0592C27.3533 90.07 27.5961 89.992 27.8119 89.8251L30.3692 87.8148C30.4691 87.7354 30.5521 87.6366 30.6133 87.5243C30.6744 87.4119 30.7125 87.2884 30.7253 87.1608C30.8062 86.2673 31.1299 85.4761 31.6964 84.7871C31.7825 84.6812 31.8439 84.5567 31.8761 84.4227C31.9082 84.2887 31.9104 84.1484 31.8825 84.012C31.7908 83.5492 31.9095 83.1563 32.2386 82.8333C32.4382 82.6342 32.565 82.3946 32.6189 82.1148C32.8078 81.0813 33.4066 80.3628 34.4155 79.9591C34.7069 79.8461 34.9362 79.9214 35.1034 80.1851L35.7023 81.1459C35.8371 81.3558 36.0287 81.45 36.2768 81.4285C38.5752 81.2508 39.3278 79.7492 40.7602 78.522C41.7907 77.6446 42.3356 77.1683 42.3949 77.0929C43.9217 75.2521 44.6609 73.1045 44.6123 70.6501C44.6118 70.5638 44.6296 70.4784 44.6645 70.3994C44.6994 70.3204 44.7505 70.2496 44.8147 70.1917C44.8789 70.1338 44.9545 70.0901 45.0368 70.0634C45.1191 70.0366 45.2061 70.0275 45.2921 70.0365C46.5923 70.1819 47.7954 70.6125 48.9014 71.3284C48.9557 71.3637 49.0176 71.3858 49.0821 71.3929C49.1466 71.3999 49.2118 71.3917 49.2725 71.3689C49.3332 71.3461 49.3876 71.3093 49.4314 71.2616C49.4752 71.2139 49.5071 71.1565 49.5246 71.0942C49.8806 69.8186 49.4436 68.7771 49.7593 67.5902C50.3338 65.4507 50.3662 62.6895 53.3848 62.7056C53.6459 62.7058 53.8981 62.6143 54.0969 62.4473C54.7848 61.866 55.5455 61.9467 56.1444 61.5511C57.2774 60.8137 57.8088 59.7345 57.7386 58.3136C57.7354 58.2535 57.7442 58.1935 57.7645 58.1369C57.7848 58.0802 57.8162 58.0282 57.8569 57.9839C57.8976 57.9395 57.9467 57.9037 58.0014 57.8785C58.0562 57.8533 58.1154 57.8393 58.1756 57.8373L60.8624 57.7565C60.9718 57.7517 61.0804 57.7743 61.178 57.8223C61.2757 57.8703 61.3592 57.9422 61.4208 58.031C63.3199 60.6953 64.8953 62.2939 66.1469 62.8268C67.3285 63.322 68.2214 64.0459 68.8256 64.9986C68.9342 65.169 69.0821 65.3111 69.2569 65.4129C69.4316 65.5147 69.628 65.5732 69.8295 65.5835C70.0311 65.5938 70.2318 65.5555 70.4148 65.472C70.5979 65.3885 70.7578 65.2621 70.8812 65.1035C71.3397 64.5169 71.882 64.0459 72.5078 63.6907C72.6345 63.6175 72.7437 63.5167 72.8276 63.3953C72.9116 63.2739 72.9681 63.1349 72.9934 62.9883C73.0959 62.407 73.4196 61.9979 73.9645 61.761C74.2558 61.6319 74.4446 61.4139 74.531 61.1071C74.8655 59.9068 74.709 58.8518 74.0616 57.9422C73.8566 57.6516 73.9159 57.4363 74.2396 57.2963C75.1568 56.9034 75.8878 56.2898 76.4327 55.4555C76.5784 55.2348 76.6297 54.998 76.5865 54.745C76.4031 53.6578 76.0146 52.6674 75.4212 51.7739C75.3586 51.6828 75.3199 51.5775 75.3086 51.4677C75.2973 51.3578 75.3137 51.2469 75.3563 51.145C75.399 51.0431 75.4665 50.9534 75.5527 50.8842C75.6389 50.8149 75.7412 50.7683 75.8501 50.7486C78.7634 50.1834 80.4224 51.3191 80.8271 54.1557C80.8429 54.2768 80.9018 54.3879 80.9927 54.4682C81.0836 54.5485 81.2003 54.5924 81.3207 54.5916L85.011 54.6401C85.1358 54.6403 85.2592 54.6145 85.3735 54.5645C85.4877 54.5144 85.5903 54.4412 85.6746 54.3494C87.7625 52 89.0573 50.8132 87.9567 47.3899C87.8704 47.1208 87.9082 46.8732 88.07 46.6472C88.4153 46.1628 88.507 45.6218 88.3452 45.0244C88.3313 44.9648 88.3342 44.9026 88.3536 44.8446C88.373 44.7867 88.4081 44.7352 88.4551 44.6959C88.502 44.6566 88.5589 44.6311 88.6195 44.6221C88.6801 44.6131 88.742 44.6209 88.7984 44.6449C90.0123 45.1993 91.1668 45.1535 92.262 44.5076C92.5318 44.3462 92.726 44.1228 92.8447 43.8375C93.3141 42.691 94.0802 41.733 95.143 40.9633C95.3151 40.8402 95.5196 40.7705 95.7312 40.7629C95.9427 40.7552 96.1518 40.81 96.3323 40.9203C96.5129 41.0306 96.6568 41.1915 96.7461 41.383C96.8354 41.5745 96.8661 41.7879 96.8344 41.9967C96.6726 43.0463 96.8937 43.964 97.498 44.7498C97.6922 45.0028 97.7489 45.28 97.668 45.5814C97.4737 46.2758 97.5142 46.9513 97.7893 47.6079C97.908 47.8932 98.1157 48.0843 98.4125 48.1811C99.2325 48.4503 99.88 48.3157 100.355 47.7775C100.554 47.546 100.759 47.5407 100.97 47.7613C102.313 49.1581 104.636 50.5467 106.513 49.3357C106.751 49.1796 106.993 49.1715 107.242 49.3115C108.812 50.1888 109.999 51.451 110.802 53.098C111.029 53.5555 111.372 53.6685 111.83 53.4371C112.327 53.1841 112.85 53.0388 113.4 53.0011C113.691 52.985 113.878 53.1142 113.959 53.3887C114.752 56.053 118.596 53.9377 120.821 53.0334C121.075 52.9312 121.336 52.9204 121.606 53.0011C122.367 53.238 123.076 53.1626 123.734 52.7751C123.988 52.6243 124.263 52.549 124.56 52.549C126.081 52.549 128.817 51.4106 129.917 52.6217C130.085 52.81 130.29 52.9473 130.532 53.0334L133.64 54.1557C133.877 54.2418 133.974 54.4086 133.931 54.6562C133.867 55.0007 133.934 55.2025 134.134 55.2618C134.405 55.3434 134.695 55.3564 134.973 55.2995C135.251 55.2425 135.508 55.1175 135.717 54.9373C135.927 54.7571 136.081 54.5279 136.166 54.273C136.25 54.0181 136.261 53.7464 136.197 53.4855C136.105 53.1142 136.181 52.7777 136.424 52.4763C136.602 52.2557 136.78 52.253 136.958 52.4683C137.832 53.5178 139.135 53.1142 140.163 52.6378C140.297 52.5768 140.445 52.5535 140.592 52.5706C140.739 52.5877 140.878 52.6444 140.996 52.7347C141.552 53.1653 142.013 53.1061 142.38 52.5571C142.454 52.4448 142.561 52.3571 142.686 52.3054C142.812 52.2536 142.95 52.2401 143.084 52.2664C143.753 52.401 144.287 52.2153 144.686 51.7093C144.881 51.4671 145.091 51.4537 145.318 51.669C146.051 52.3687 146.809 52.3875 147.592 51.7255C147.791 51.5586 148.004 51.5371 148.231 51.6609C149.922 52.5894 150.473 53.2998 151.161 55.294C151.614 56.6073 152.445 57.6677 153.653 58.4751C153.885 58.6311 154.133 58.6634 154.398 58.5719L154.988 58.3782C155.117 58.3332 155.257 58.3285 155.388 58.3645C155.52 58.4006 155.637 58.4757 155.725 58.58C156.086 59.0052 156.54 59.2313 157.084 59.2582C157.381 59.269 157.589 59.4116 157.708 59.6861C157.821 59.9445 157.969 60.1786 158.153 60.3885C158.368 60.6361 158.63 60.7061 158.938 60.5984L159.917 60.2513C160.219 60.149 160.389 60.254 160.427 60.5662C160.551 61.605 161.098 62.3289 162.07 62.738C162.366 62.8618 162.552 63.0798 162.628 63.3919C162.784 64.0378 163.116 64.5815 163.623 65.0228C163.811 65.189 163.929 65.4224 163.955 65.6768C164.02 66.3442 164.017 66.9955 163.947 67.6306C163.872 68.2765 164.082 68.586 164.578 68.5591C164.72 68.5531 164.86 68.5921 164.978 68.6705C165.096 68.7488 165.187 68.8625 165.236 68.9952C165.285 69.1278 165.292 69.2727 165.253 69.409C165.215 69.5454 165.135 69.6661 165.023 69.754C164.171 70.416 164.052 71.1346 164.667 71.9096C164.878 72.168 164.864 72.4183 164.627 72.6605C164.373 72.9135 164.233 73.2257 164.206 73.5971C164.184 73.8393 164.241 74.0626 164.376 74.2671C165.404 75.8576 167.823 78.7884 169.741 77.206C169.979 77.0122 170.238 76.9772 170.518 77.101C171.344 77.4562 172.083 77.3378 172.736 76.7458C172.829 76.6599 172.94 76.5957 173.061 76.558C173.181 76.5203 173.308 76.51 173.432 76.5278C174.592 76.6893 175.099 76.2183 174.953 75.1149C174.945 75.0472 174.956 74.9785 174.985 74.9166C175.013 74.8548 175.059 74.8023 175.117 74.7652C175.174 74.7282 175.241 74.708 175.309 74.707C175.378 74.706 175.445 74.7243 175.503 74.7597C175.768 74.9211 175.986 75.1256 176.159 75.3732C176.315 75.6047 176.534 75.7312 176.814 75.7527C178.101 75.8496 180.424 76.6247 180.553 74.582C180.586 74.0653 180.756 74.0142 181.063 74.4286C181.171 74.5739 181.214 74.7354 181.193 74.9131C181.179 75.0513 181.211 75.1896 181.285 75.3055C181.358 75.4214 181.469 75.5079 181.597 75.5509C182.228 75.7769 182.846 76.0272 183.45 76.3017C183.823 76.474 184.138 76.5143 184.397 76.4228C184.602 76.3529 184.767 76.2237 184.891 76.0353C185.047 75.8038 185.263 75.672 185.538 75.6397C186.294 75.5428 187.038 75.454 187.772 75.3732C189.56 75.1714 189.722 76.4712 191.082 76.6327C193.073 76.8749 192.733 74.3317 192.862 73.161C193.218 70.0688 191.867 68.1715 193.396 64.9986C193.882 63.9921 194.281 62.9479 194.594 61.866C194.627 61.7518 194.698 61.652 194.795 61.5831C194.892 61.5142 195.009 61.4801 195.128 61.4866C196.547 61.5781 197.394 60.9079 197.669 59.4762C197.739 59.1263 197.952 58.9487 198.309 58.9433L198.665 58.9353C198.961 58.9299 199.191 58.8034 199.353 58.5558C199.811 57.8507 200.262 57.1456 200.704 56.4405C201.683 54.8904 201.821 53.0092 202.735 51.2976C202.87 51.05 203.067 50.8724 203.326 50.7647L207.081 49.1662C207.269 49.0859 207.475 49.0578 207.677 49.0848C207.88 49.1118 208.071 49.1928 208.231 49.3194C208.391 49.446 208.514 49.6133 208.586 49.8038C208.659 49.9943 208.678 50.2007 208.643 50.4014C208.085 53.5824 212.204 53.1384 214.025 53.0738C214.316 53.063 214.575 52.9634 214.801 52.7751C215.719 51.9946 216.765 51.8681 217.941 52.3956C218.2 52.5086 218.411 52.6809 218.573 52.9123C219.252 53.865 220.491 53.5824 221.365 53.1949C221.866 52.9742 222.117 52.5463 222.117 51.9112C222.116 51.5819 222.23 51.2628 222.44 51.0102C222.651 50.7576 222.943 50.5877 223.266 50.5306C224.448 50.3153 225.263 50.6598 225.71 51.564C225.829 51.7955 226.004 51.9677 226.236 52.0807L230.946 54.3172C231.059 54.3713 231.187 54.388 231.312 54.3648C231.437 54.3416 231.553 54.2798 231.642 54.1879C232.408 53.3967 233.291 52.767 234.289 52.2987C234.548 52.1749 234.815 52.1399 235.09 52.1938C236.924 52.5221 238.748 52.88 240.561 53.2675C241.801 53.5313 242.832 53.1249 243.652 52.0485C243.814 51.8278 244.021 51.6717 244.275 51.5802C248.216 50.1592 249.39 45.7591 253.889 46.631C254.154 46.6848 254.412 46.6579 254.666 46.5503C256.657 45.7268 257.223 47.7613 259.109 46.9378C259.362 46.8248 259.576 46.8786 259.748 47.0993C260.207 47.6806 260.811 48.0036 261.561 48.0681C261.705 48.0796 261.839 48.1431 261.94 48.2469C262.042 48.3507 262.102 48.4879 262.111 48.6333C262.171 49.6936 262.756 50.205 263.867 50.1673C263.982 50.1645 264.094 50.138 264.198 50.0893C264.301 50.0406 264.392 49.9709 264.466 49.8847L265.389 48.819C265.637 48.5337 265.829 48.5687 265.963 48.924C266.498 50.2857 266.767 51.7066 266.773 53.1868C266.773 53.5205 266.926 53.752 267.234 53.8811C267.854 54.1449 268.475 54.1449 269.095 53.8811C269.163 53.8525 269.235 53.8377 269.308 53.8377C269.381 53.8377 269.454 53.8525 269.521 53.8812C269.588 53.9099 269.649 53.9518 269.7 54.0045C269.75 54.0573 269.79 54.1196 269.816 54.1879C270.301 55.4474 269.694 56.5697 271.418 57.0945C271.514 57.1229 271.597 57.1826 271.656 57.2644C271.714 57.3461 271.744 57.4453 271.742 57.5466L271.701 58.7253C271.69 58.9945 271.806 59.1883 272.049 59.3067C273.403 59.9849 274.809 61.1744 276.265 62.8752C277.118 63.871 277.517 64.5815 277.463 65.0067C277.43 65.28 277.466 65.5616 277.567 65.8292C277.668 66.0968 277.832 66.3431 278.046 66.5487L278.426 66.904C278.51 66.9843 278.615 67.0381 278.729 67.0583C278.843 67.0785 278.961 67.0644 279.067 67.0175C279.173 66.9707 279.263 66.8934 279.324 66.7955C279.386 66.6977 279.417 66.5836 279.413 66.468C279.397 65.7737 279.559 65.1197 279.899 64.5061C279.962 64.3916 279.994 64.2621 279.989 64.1314C279.985 64.0007 279.945 63.8735 279.875 63.7633C279.163 62.6437 279.413 61.7879 280.627 61.1959C280.716 61.1513 280.793 61.0865 280.852 61.0068C280.911 60.9271 280.95 60.8348 280.965 60.7376C280.981 60.6405 280.973 60.5412 280.943 60.4482C280.912 60.3552 280.86 60.271 280.789 60.2028L279.422 58.8787C279.195 58.6634 279.198 58.4536 279.43 58.249C280.217 57.5385 280.471 56.7419 280.19 55.8592C279.681 54.2525 277.811 54.0103 277.447 51.7336C277.042 49.255 279.3 48.1004 281.008 46.5826C285.89 42.2551 290.776 37.9303 295.664 33.6082C297.371 32.0903 298.253 32.1469 300.471 32.3649C300.634 32.3799 300.798 32.3337 300.93 32.2352C301.061 32.1368 301.151 31.9931 301.183 31.832C301.221 31.6005 301.32 31.4391 301.482 31.3476C301.757 31.1915 302.041 31.1834 302.332 31.3233C303.292 31.7755 304.269 31.7486 305.262 31.2426C305.458 31.1407 305.686 31.1115 305.903 31.1602C306.12 31.2089 306.314 31.3324 306.451 31.5091C307.908 33.3983 310.894 32.1953 312.593 31.0489C312.706 30.9744 312.837 30.9347 312.971 30.9347C313.105 30.9347 313.236 30.9744 313.346 31.0489C315.96 32.7766 317.441 31.84 319.982 32.1307C320.848 32.2276 321.18 31.945 321.771 31.4202C321.819 31.3791 321.875 31.3488 321.936 31.3316C321.997 31.3144 322.06 31.3107 322.122 31.3207C322.184 31.3308 322.243 31.3543 322.294 31.3897C322.345 31.425 322.387 31.4713 322.418 31.5252L322.766 32.1227C322.89 32.3326 323.076 32.4563 323.324 32.494C324.894 32.7093 326.249 33.3767 327.387 34.4963C327.422 34.5318 327.464 34.5584 327.512 34.5739C327.559 34.5894 327.609 34.5934 327.659 34.5855C327.709 34.5777 327.756 34.5582 327.797 34.5287C327.839 34.4991 327.873 34.4604 327.897 34.4156L328.091 34.0603C328.15 33.952 328.166 33.8258 328.136 33.7073C328.106 33.5888 328.032 33.487 327.929 33.4225C321.234 29.1973 314.517 24.9425 307.778 20.658C307.268 20.3432 306.386 20.1575 305.998 19.4308C305.777 19.0164 305.898 18.7634 306.362 18.6719C308.58 18.244 310.578 17.7112 312.61 16.5405C314.897 15.2218 317.171 13.8708 319.432 12.4875C319.642 12.3637 319.753 12.1807 319.764 11.9385L320.168 4.99514C320.19 4.68296 320.068 4.44345 319.804 4.2766L319.108 3.83253C318.871 3.67644 318.763 3.45845 318.784 3.17857C318.89 1.77375 319.529 1.11172 320.994 1.02291C325.952 0.743025 330.905 0.522339 335.852 0.360866C336.863 0.328572 337.713 -0.171991 338.887 0.0621447C339.162 0.115969 339.334 0.277447 339.405 0.546569C339.523 0.9664 339.432 1.35391 339.129 1.70915C338.951 1.91907 338.865 2.16397 338.87 2.44386C338.951 6.42417 335.973 8.95932 340.343 12.1484C340.452 12.229 340.537 12.3373 340.589 12.4621C340.642 12.587 340.66 12.724 340.643 12.8589C340.513 13.8977 340.664 14.8746 341.096 15.7896C341.231 16.0641 341.217 16.3332 341.055 16.597L339.073 19.8991C339.035 19.9578 338.989 20.0072 338.935 20.0445C337.082 21.4251 338.498 22.8541 338.935 24.2589C339.345 25.5884 339.744 26.9178 340.133 28.2473C340.349 28.9793 340.818 29.2215 341.541 28.9739C343.429 28.3226 345.369 28.0212 347.36 28.0697C347.601 28.0751 347.837 28.0013 348.031 27.8598C349.029 27.1547 349.957 26.9582 350.815 27.2704C353.146 28.1262 355.46 28.5137 357.314 30.2576C365.822 38.2559 374.36 46.222 382.927 54.1557C384.772 55.8673 386.423 52.1857 389.077 54.414C389.245 54.554 389.428 54.5809 389.628 54.4947L392.08 53.4533C392.207 53.3974 392.321 53.3146 392.412 53.2105C392.504 53.1064 392.572 52.9836 392.611 52.8505C392.651 52.7175 392.66 52.5776 392.64 52.4404C392.619 52.3033 392.569 52.1722 392.493 52.0565C391.98 51.2922 392.263 50.7782 393.342 50.5144C393.615 50.4517 393.903 50.483 394.16 50.6032Z" fill="#AAE2E6"/>
</svg>
