<svg width="88" height="58" viewBox="0 0 88 58" fill="none" xmlns="http://www.w3.org/2000/svg">
<path d="M84.4154 4.50035L84.2947 4.10262L84.5764 3.87532L84.8381 3.93213C86.6291 5.52313 83.6105 6.92472 84.0935 8.08008C83.9325 8.09902 83.8721 7.92856 83.8721 7.96644H83.5703C83.0672 6.75426 82.1415 6.41335 82.1012 6.26182C82.4836 5.33374 82.7452 5.67466 83.0068 5.54208C83.2282 5.27691 83.2282 5.04963 83.2684 5.06857L83.6306 4.86022C84.4959 4.63294 84.3148 4.50035 84.4154 4.50035Z" fill="#2D73B5"/>
<path d="M84.4154 4.50035L84.2947 4.10262L84.5764 3.87532L84.8381 3.93213C86.6291 5.52313 83.6105 6.92472 84.0935 8.08008C83.9325 8.09902 83.8721 7.92856 83.8721 7.96644H83.5703C83.0672 6.75426 82.1415 6.41335 82.1012 6.26182C82.4836 5.33374 82.7452 5.67466 83.0068 5.54208C83.2282 5.27691 83.2282 5.04963 83.2684 5.06857L83.6306 4.86022C84.4959 4.63294 84.3148 4.50035 84.4154 4.50035V4.50035Z" stroke="white" stroke-width="1.15034" stroke-linecap="round" stroke-linejoin="round"/>
<path d="M85.6025 30.4297L85.5421 30.6759C84.8378 30.8653 84.7573 31.3199 84.6366 31.3956C84.2945 31.5093 84.3951 31.3956 84.2945 31.3956C84.214 29.3122 84.4152 29.7857 84.5963 29.1228L84.3549 29.0092C84.6768 28.3841 84.9787 28.3273 84.9183 28.3273C84.8378 27.475 84.5159 27.5697 84.5561 27.3803C85.1397 27.2098 84.9988 27.2856 85.1799 27.1719C85.3208 26.8689 85.2202 26.8499 85.2604 26.831C85.1397 26.6037 84.8982 26.6037 84.9385 26.5847C84.9787 26.3196 85.0592 26.0355 84.9988 25.9976L84.7775 25.8082L84.7372 25.6756C84.9787 25.2021 85.1397 25.259 85.1397 25.1453L85.0592 24.8612C86.6087 24.6339 86.2465 24.4824 86.488 24.1983C87.2325 24.6718 87.1319 24.937 87.2325 24.9749C87.3734 26.9636 84.7573 29.5584 85.6025 30.4107V30.4297Z" fill="#2D73B5"/>
<path d="M85.6025 30.4297L85.5421 30.6759C84.8378 30.8653 84.7573 31.3199 84.6366 31.3956C84.2945 31.5093 84.3951 31.3956 84.2945 31.3956C84.214 29.3122 84.4152 29.7857 84.5963 29.1228L84.3549 29.0092C84.6768 28.3841 84.9787 28.3273 84.9183 28.3273C84.8378 27.475 84.5159 27.5697 84.5561 27.3803C85.1397 27.2098 84.9988 27.2856 85.1799 27.1719C85.3208 26.8689 85.2202 26.8499 85.2604 26.831C85.1397 26.6037 84.8982 26.6037 84.9385 26.5847C84.9787 26.3196 85.0592 26.0355 84.9988 25.9976L84.7775 25.8082L84.7372 25.6756C84.9787 25.2021 85.1397 25.259 85.1397 25.1453L85.0592 24.8612C86.6087 24.6339 86.2465 24.4824 86.488 24.1983C87.2325 24.6718 87.1319 24.937 87.2325 24.9749C87.3734 26.9636 84.7573 29.5584 85.6025 30.4107V30.4297Z" stroke="white" stroke-width="1.15034" stroke-linecap="round" stroke-linejoin="round"/>
<path d="M82.9865 25.7325L83.5902 27.0583L83.9122 27.1341L84.0933 27.3424C84.1738 27.9864 83.9122 27.9106 83.9927 27.9674L83.8518 27.7591C83.067 28.2326 83.1273 28.4789 83.0066 28.5357C83.4694 29.4448 83.3085 29.9183 83.6506 30.2592C83.3286 30.4107 83.3085 30.5623 83.2883 30.5434C84.214 31.4146 84.1536 31.4903 84.1939 31.5093V31.6419C83.9122 31.7745 83.9524 31.7176 83.9323 31.7366L83.8719 31.7934L83.9323 31.9639C84.2543 32.0775 84.214 32.0207 84.2945 32.0775C83.1273 34.2936 83.5499 36.1307 82.8657 38.0248L83.1676 38.3089C82.584 38.9907 82.262 39.1423 82.3425 39.1234C82.1815 40.6196 81.3162 41.5287 81.1552 42.1538C81.2357 42.5326 81.2559 42.4758 81.2559 42.4947L81.1753 42.6652L81.0345 42.741C80.0082 42.0781 80.632 41.1499 80.7125 40.8658C80.2094 40.0135 79.8472 40.1082 79.7667 39.881L79.5453 39.843C79.1227 40.8469 79.8271 40.7901 79.5856 41.1878L79.4246 41.3393L79.3843 41.4909L79.4649 41.6234C79.8472 41.6424 79.7868 41.6045 79.8271 41.6234L79.9478 41.6803C79.9277 42.1348 79.646 42.2674 79.7063 42.4568C80.5716 43.1008 80.5918 43.1197 80.9339 43.2902C81.1955 42.9872 81.3363 43.1008 81.3766 43.0629C76.1243 47.5139 68.8798 51.5672 66.0625 56.8705H65.8412C65.5997 56.6432 65.6601 56.3212 65.5997 56.3591C63.9898 55.8477 62.8628 54.3325 62.239 54.6355C61.9975 54.7492 62.0177 55.0522 62.0177 54.9953L61.9171 55.0522C61.0316 55.2037 60.0657 55.5636 60.0254 55.6583C60.8907 56.5674 61.3938 56.8894 60.6895 57.4198C56.9868 55.7341 59.784 54.4082 60.4078 52.9498C60.7298 52.9877 60.6694 53.3665 60.7901 53.3475H60.8706C61.0316 53.196 61.0316 53.1392 61.0719 53.1203C61.253 53.1581 61.414 53.1203 61.4341 53.1203C62.722 50.2792 61.7561 47.9874 62.9232 46.4911H62.9836C63.0239 46.6805 62.9836 46.7753 63.044 46.8131H63.1245C64.7947 45.4494 64.6941 44.5024 66.2235 44.7297L66.304 44.5024C65.8814 43.7448 66.0223 44.0479 65.9619 43.688C66.1229 43.4607 66.1833 43.4607 66.1833 43.4228C65.2777 42.8735 65.6198 42.5136 65.3984 42.4L65.2374 42.4379C65.0765 42.8357 65.0765 42.7978 65.0161 42.8735C63.5471 42.9114 64.1306 42.4 63.5471 42.0591C62.6013 42.3053 62.7421 42.3432 62.6214 42.3432L62.5409 42.419H62.4604C62.1384 42.0591 62.1384 42.1159 62.0982 42.0781C60.8706 42.5705 60.5084 42.6083 59.7638 42.4C59.6028 42.097 59.6028 41.9265 59.5827 41.9265H59.4016L59.2406 42.1349C59.2607 42.6273 59.2003 42.5516 59.2205 42.6084H58.9589C57.3892 41.453 55.7995 41.9265 56.0208 42.0401L55.8196 41.756C53.7469 41.5477 53.9884 40.9416 52.9621 41.4719C50.7485 40.2787 49.863 38.1952 48.9373 36.7179L48.7562 36.8126C48.4745 36.5664 48.3739 36.5096 48.3537 36.5096C48.072 36.68 47.9915 36.7369 47.9714 36.7369L47.7702 36.6232C47.7098 36.2065 47.7701 36.036 47.7299 36.0171C47.4683 35.8088 47.3475 35.8846 47.3677 35.8656V35.7141L47.5488 35.4489C47.4482 34.2936 46.1804 33.6874 46.2407 33.6306L45.9188 33.7253C44.3693 31.9828 44.7918 32.0586 44.3894 31.4525C43.3228 31.1684 42.9203 30.5623 42.6587 30.5055C42.3368 30.5433 42.2563 30.638 42.216 30.6191C41.1495 29.6721 41.4715 29.9751 41.0287 29.691C41.1696 29.3501 41.1696 29.1418 41.1294 29.1039L40.8677 28.9713C40.2037 29.0092 40.4451 28.8576 40.3646 28.8955C40.2037 28.1379 40.1836 28.2894 40.1634 28.1947C39.5798 28.4031 39.4993 28.744 39.4993 28.6493C39.2579 28.0243 38.3925 27.797 38.4127 27.2288L38.2517 27.0772C37.2455 26.9257 37.2254 27.3235 36.9034 27.2477L36.6619 27.0394C36.682 26.6416 36.8028 26.4901 36.7826 26.528L36.7223 26.4522L36.1991 26.6795L36.1186 26.6227C36.1186 26.0166 35.9576 25.9598 35.9375 25.884L35.7564 25.9408C35.5752 26.1681 35.6155 26.1492 35.5551 26.225H35.4746C34.9514 25.9977 35.2935 25.8083 35.1526 25.6946L34.9715 25.6378L34.7904 25.6946C34.5087 26.0166 34.4684 26.1871 34.4684 26.1492L34.3075 26.206C34.0056 25.9219 34.0056 25.884 33.9251 25.8461C33.3415 25.8083 33.3818 25.8651 33.3214 25.8461L33.2006 26.0166L33.3214 26.4143C32.3152 26.4522 32.2951 26.225 32.1341 26.225L32.0938 26.1492L32.2548 25.8651C32.2146 25.581 32.0133 25.6378 32.0335 25.5999C31.8926 26.3007 31.9127 26.1113 31.7719 26.3386L31.5304 26.225C31.148 25.3726 31.2889 25.2211 31.148 25.1454C30.8864 25.4863 30.7053 25.3916 30.6852 25.4294L30.5041 25.3537L30.9066 25.0885C30.0815 24.2173 29.4778 24.2551 29.6186 24.2172C30.1217 23.9521 30.6852 24.1604 30.5846 24.1036L30.3632 23.7816L29.6589 23.6301C29.357 23.1755 29.5583 23.1945 29.518 23.1566V23.1187L29.4375 23.1566C28.0088 23.1566 28.4515 23.2134 28.049 23.1187C27.9685 22.7778 28.1496 22.6263 28.1094 22.6642L27.9484 22.5126C27.1837 22.6452 27.3648 22.5126 27.2843 22.5505L27.1233 22.2096L26.9623 22.0959C26.1976 22.702 26.1372 23.0051 26.1171 22.9483L25.8756 22.8536C25.3726 22.1528 25.614 22.3611 25.5336 22.1527L25.8958 22.077L25.9763 21.9255L25.8153 21.774C25.0707 21.5656 25.1311 21.774 25.0707 21.7171L24.8896 21.8686C24.8896 22.4369 25.0908 22.4748 25.0305 22.4937L24.789 22.5694C24.5475 22.399 24.5274 22.2474 24.4871 22.2664C23.9237 22.2285 23.8029 22.3611 23.7224 22.4369C23.4809 21.6982 23.5816 21.7929 23.3602 21.6224H23.2395L23.1791 21.755C23.2797 21.9633 23.1791 22.1906 23.1791 22.1717C22.6961 21.5467 22.7766 21.5467 22.6961 21.3005V21.2436H22.515C22.1327 21.4709 22.1729 21.9065 22.0522 21.9255C21.1064 21.9255 21.3881 21.7171 21.1466 21.5845C20.1605 21.9634 19.5166 21.9444 19.0739 21.8118C18.8525 22.2096 18.6714 22.1906 18.6714 22.2096C18.4903 21.7171 18.5507 21.7361 18.5305 21.7171L18.3695 21.6035L18.1884 21.6414L18.0476 21.8308C17.0414 20.7512 17.0414 21.3762 16.6389 20.9974C16.3572 20.2208 16.3773 20.486 16.3572 20.3913L15.9748 20.3534C15.4919 20.8269 15.19 21.0542 15.0491 21.0353L14.8479 20.8458C14.8479 20.4292 14.8077 20.5239 14.7674 20.3913C14.2241 21.0163 14.4656 20.9406 14.2643 21.3005L14.1235 21.3951H13.9625C13.721 21.111 13.8619 21.111 13.8015 21.0921C14.1637 20.5807 14.1235 20.2777 14.0832 20.183L13.9021 19.9936C13.7612 20.0883 13.6807 20.1072 13.7009 20.1072H13.56L13.4795 19.8799C13.5399 19.4632 13.9423 19.217 13.8618 19.2549V19.1223C13.3588 18.9519 13.3185 19.1602 13.2984 19.1034C12.6544 19.6526 13.0167 20.0504 12.7953 20.183C12.1312 20.5997 12.2117 20.3156 12.1715 20.4103C11.5879 20.1451 11.5476 19.8231 11.5476 19.8988C11.3665 20.6375 11.3464 20.505 11.1049 20.7133C10.5415 20.3913 10.5213 20.3723 10.461 20.3723C9.49502 20.6754 9.2938 21.0731 9.31392 20.9784L8.93157 20.9406C9.5554 19.8231 9.41452 19.861 9.51514 19.6716L9.41451 19.4443C8.4687 19.4443 8.026 18.7435 8.04612 18.8761C7.40217 20.2209 7.24118 19.6148 6.69784 20.0125C6.45636 19.7663 6.39598 19.5958 6.37586 19.6147L6.19475 19.5769L5.95328 19.8041C5.99353 20.6754 5.97338 20.7512 5.93314 20.8838L5.67155 20.9406C4.70562 20.5428 4.92697 20.6754 4.56475 20.5997C3.90067 20.9406 3.90064 21.2626 3.88052 21.1868L3.53842 21.2815C3.49817 20.4102 3.39757 20.5428 3.39757 20.4481L3.1561 20.2398H3.01522C2.41151 20.7701 2.12976 20.7322 1.86816 20.6754C1.74742 20.3913 1.60656 20.183 1.56632 20.183L1.44558 20.1451C0.701005 20.3155 0.922349 20.4292 0.580248 20.4671V20.3913C1.08334 20.0504 0.862005 19.8988 0.922376 19.861L0.761383 19.6905V19.5769C1.48583 19.217 1.00287 18.3268 1.20411 18.3268C3.57869 16.5464 2.29078 14.7282 2.27065 13.9705C1.9688 13.8948 1.98891 13.9326 1.96878 13.8948C1.96878 13.4591 2.10966 13.3833 2.04929 13.3265C1.82793 13.1939 1.68707 13.1182 1.7072 13.1182L1.62668 12.9099L1.66694 12.7394C1.94867 12.6257 1.92855 12.6826 1.94867 12.6636L2.06941 12.5689C2.2304 11.3188 2.19014 10.5044 2.37125 10.1445V10.2014C1.90841 9.70891 2.57249 9.38696 2.59261 9.34908C1.92853 6.18604 3.31707 6.35647 3.41769 5.35263C9.89749 5.73144 14.1838 6.84895 19.416 7.45504C19.5367 7.70127 19.5367 7.64442 19.6172 7.72018C26.6001 7.90958 32.1542 12.228 37.7687 10.9969C38.2316 11.5272 38.795 12.4363 39.0969 12.7583H39.1774C41.5519 11.8302 42.538 10.8075 41.2501 9.34908C40.6464 6.88683 44.49 4.04575 46.2005 5.44734H46.281H46.3615C46.5225 5.14429 46.5627 5.20111 46.603 5.14429C47.1866 4.99276 46.9853 5.63675 47.1061 5.69357H47.1866H47.2671C47.8506 5.12536 49.4203 4.51928 49.8026 4.99279H49.863L49.9435 4.93594C50.829 3.19343 51.5131 1.75397 52.7205 1.81079C52.4388 1.41304 52.0766 1.5267 52.1168 1.31835V1.24257C54.6524 1.35622 55.0549 2.15171 56.3227 2.92827C56.1617 0.712243 60.5486 2.41688 61.3737 1.50774C61.5548 1.29939 61.7158 1.29939 61.6756 1.29939C63.2653 1.20469 65.3582 3.21237 65.8412 3.45859V3.64801C68.2157 5.27688 68.4975 4.87915 69.6646 4.78444C71.5562 3.07981 73.7699 1.88655 75.6816 0.97741C75.7822 1.05317 75.7621 1.05317 75.7822 1.09105C75.742 1.24257 75.8023 1.31835 75.7822 1.31835L75.8627 1.35621C76.3054 1.29939 76.2853 1.22365 76.3457 1.26153C76.6677 1.41306 76.567 1.37516 76.6878 1.3941C76.9091 1.22364 76.8287 1.16683 76.9091 1.11001C77.2915 1.20471 77.3921 1.35623 77.372 1.31835C78.1166 1.09107 78.1367 1.29941 78.2775 1.22364L78.519 1.07212C81.598 0.0114568 82.9664 1.03425 84.0731 0.788024C83.7914 1.6214 83.57 1.69714 83.5902 1.7729C83.9323 2.98509 84.1335 3.55332 84.053 3.95106L83.892 4.14045C83.1877 4.25409 83.2883 4.31093 83.228 4.31093C82.8657 4.87915 82.7853 4.93597 82.7048 4.99279C81.9199 5.10643 81.6986 4.76549 81.6583 4.80337C81.1955 3.64801 80.9942 2.6631 80.793 2.13277L80.6723 2.20855V2.53053L80.8735 2.94723C80.5314 3.51544 80.9741 3.64801 81.1351 3.79954C81.1754 4.14046 81.276 4.40561 81.3162 4.46243L81.1955 4.87912C81.3364 5.33369 81.3162 5.16323 81.3162 5.23899L81.2559 5.37159C80.9741 5.561 80.9943 5.42842 80.9741 5.4663L81.2961 5.92085C80.7729 5.78827 80.7125 6.11027 80.6521 6.14815C81.4772 6.2618 81.3363 6.28073 81.6181 6.37543C83.067 7.68232 83.0267 7.11409 83.3487 8.13687L83.5298 8.17479L83.6707 8.32629C81.9401 11.8681 82.1413 12.7583 83.3688 13.8758C83.8115 13.8758 83.9323 13.7243 83.9122 13.7622L84.0731 13.819C83.5097 14.9933 82.8456 17.323 83.9122 17.626L84.1738 17.9669C83.9524 18.9708 83.7512 19.2359 83.6707 19.4443C84.053 20.3913 83.892 20.1072 84.1134 20.3534C84.6165 20.4671 84.5159 20.2966 84.5561 20.3534C84.7372 19.9557 85.0995 19.6905 85.1196 19.7284C85.4416 20.164 85.4013 20.1829 85.4214 20.2019L85.7434 20.2777C85.5623 20.6375 85.5019 20.5428 85.4214 20.6375C85.6428 21.13 85.5623 21.0542 85.5824 21.2247C85.2403 21.452 85.0391 21.3951 84.9586 21.3951L84.858 21.1868L85.0994 21.13L85.1598 20.9974L85.0793 20.8458L84.8781 20.7322C83.2883 20.9784 83.4091 22.4558 83.6304 22.7967C84.1939 22.9293 84.2341 22.9104 84.2341 22.9104C84.7574 23.4597 84.4756 24.3498 84.5561 24.1604C84.3348 23.8574 84.3951 23.9521 84.3348 23.8195C84.053 24.1983 84.1536 24.5582 84.0731 24.6529C83.5902 24.8044 83.228 25.0695 83.2078 25.1642C82.9261 25.6567 83.0871 25.6946 83.0469 25.7135L82.9865 25.7325Z" fill="#2D73B5"/>
<path d="M82.9865 25.7325L83.5902 27.0583L83.9122 27.1341L84.0933 27.3424C84.1738 27.9864 83.9122 27.9106 83.9927 27.9674L83.8518 27.7591C83.067 28.2326 83.1273 28.4789 83.0066 28.5357C83.4694 29.4448 83.3085 29.9183 83.6506 30.2592C83.3286 30.4107 83.3085 30.5623 83.2883 30.5434C84.214 31.4146 84.1536 31.4903 84.1939 31.5093V31.6419C83.9122 31.7745 83.9524 31.7176 83.9323 31.7366L83.8719 31.7934L83.9323 31.9639C84.2543 32.0775 84.214 32.0207 84.2945 32.0775C83.1273 34.2936 83.5499 36.1307 82.8657 38.0248L83.1676 38.3089C82.584 38.9907 82.262 39.1423 82.3425 39.1234C82.1815 40.6196 81.3162 41.5287 81.1552 42.1538C81.2357 42.5326 81.2559 42.4758 81.2559 42.4947L81.1753 42.6652L81.0345 42.741C80.0082 42.0781 80.632 41.1499 80.7125 40.8658C80.2094 40.0135 79.8472 40.1082 79.7667 39.881L79.5453 39.843C79.1227 40.8469 79.8271 40.7901 79.5856 41.1879L79.4246 41.3393L79.3843 41.4909L79.4649 41.6234C79.8472 41.6424 79.7868 41.6045 79.8271 41.6234L79.9478 41.6803C79.9277 42.1348 79.646 42.2674 79.7063 42.4568C80.5716 43.1008 80.5918 43.1197 80.9339 43.2902C81.1955 42.9872 81.3363 43.1008 81.3766 43.0629C76.1243 47.5139 68.8798 51.5672 66.0625 56.8705H65.8412C65.5997 56.6432 65.6601 56.3212 65.5997 56.3591C63.9898 55.8477 62.8628 54.3325 62.239 54.6355C61.9975 54.7492 62.0177 55.0522 62.0177 54.9953L61.9171 55.0522C61.0316 55.2037 60.0657 55.5636 60.0254 55.6583C60.8907 56.5674 61.3938 56.8894 60.6895 57.4198C56.9868 55.7341 59.784 54.4082 60.4078 52.9498C60.7298 52.9877 60.6694 53.3665 60.7901 53.3475H60.8706C61.0316 53.196 61.0316 53.1392 61.0719 53.1203C61.253 53.1581 61.414 53.1203 61.4341 53.1203C62.722 50.2792 61.7561 47.9874 62.9232 46.4911H62.9836C63.0239 46.6805 62.9836 46.7753 63.044 46.8131H63.1245C64.7947 45.4494 64.6941 44.5024 66.2235 44.7297L66.304 44.5024C65.8814 43.7448 66.0223 44.0479 65.9619 43.688C66.1229 43.4607 66.1833 43.4607 66.1833 43.4228C65.2777 42.8735 65.6198 42.5136 65.3984 42.4L65.2374 42.4379C65.0765 42.8357 65.0765 42.7978 65.0161 42.8735C63.5471 42.9114 64.1306 42.4 63.5471 42.0591C62.6013 42.3053 62.7421 42.3432 62.6214 42.3432L62.5409 42.419H62.4604C62.1384 42.0591 62.1384 42.1159 62.0982 42.0781C60.8706 42.5705 60.5084 42.6083 59.7638 42.4C59.6028 42.097 59.6028 41.9265 59.5827 41.9265H59.4016L59.2406 42.1349C59.2607 42.6273 59.2003 42.5516 59.2205 42.6084H58.9589C57.3892 41.453 55.7995 41.9265 56.0208 42.0401L55.8196 41.756C53.7469 41.5477 53.9884 40.9416 52.9621 41.4719C50.7485 40.2787 49.863 38.1952 48.9373 36.7179L48.7562 36.8126C48.4745 36.5664 48.3739 36.5096 48.3537 36.5096C48.072 36.68 47.9915 36.7369 47.9714 36.7369L47.7702 36.6232C47.7098 36.2065 47.7701 36.036 47.7299 36.0171C47.4683 35.8088 47.3475 35.8845 47.3677 35.8656V35.7141L47.5488 35.4489C47.4482 34.2936 46.1804 33.6874 46.2407 33.6306L45.9188 33.7253C44.3693 31.9828 44.7918 32.0586 44.3894 31.4525C43.3228 31.1684 42.9203 30.5623 42.6587 30.5055C42.3368 30.5433 42.2563 30.638 42.216 30.6191C41.1495 29.6721 41.4715 29.9751 41.0287 29.691C41.1696 29.3501 41.1696 29.1418 41.1294 29.1039L40.8677 28.9713C40.2037 29.0092 40.4451 28.8576 40.3646 28.8955C40.2037 28.1379 40.1836 28.2894 40.1634 28.1947C39.5798 28.4031 39.4993 28.744 39.4993 28.6493C39.2579 28.0243 38.3925 27.797 38.4127 27.2288L38.2517 27.0772C37.2455 26.9257 37.2254 27.3235 36.9034 27.2477L36.6619 27.0394C36.682 26.6416 36.8028 26.4901 36.7826 26.528L36.7223 26.4522L36.1991 26.6795L36.1186 26.6227C36.1186 26.0166 35.9576 25.9598 35.9375 25.884L35.7564 25.9408C35.5752 26.1681 35.6155 26.1492 35.5551 26.225H35.4746C34.9514 25.9977 35.2935 25.8083 35.1526 25.6946L34.9715 25.6378L34.7904 25.6946C34.5087 26.0166 34.4684 26.1871 34.4684 26.1492L34.3075 26.206C34.0056 25.9219 34.0056 25.884 33.9251 25.8461C33.3415 25.8083 33.3818 25.8651 33.3214 25.8461L33.2006 26.0166L33.3214 26.4143C32.3152 26.4522 32.2951 26.225 32.1341 26.225L32.0938 26.1492L32.2548 25.8651C32.2146 25.581 32.0133 25.6378 32.0335 25.5999C31.8926 26.3007 31.9127 26.1113 31.7719 26.3386L31.5304 26.225C31.148 25.3726 31.2889 25.2211 31.148 25.1453C30.8864 25.4863 30.7053 25.3916 30.6852 25.4294L30.5041 25.3537L30.9066 25.0885C30.0815 24.2173 29.4778 24.2551 29.6186 24.2172C30.1217 23.9521 30.6852 24.1604 30.5846 24.1036L30.3632 23.7816L29.6589 23.6301C29.357 23.1755 29.5583 23.1945 29.518 23.1566V23.1187L29.4375 23.1566C28.0088 23.1566 28.4515 23.2134 28.049 23.1187C27.9685 22.7778 28.1496 22.6263 28.1094 22.6642L27.9484 22.5126C27.1837 22.6452 27.3648 22.5126 27.2843 22.5505L27.1233 22.2096L26.9623 22.0959C26.1976 22.702 26.1372 23.0051 26.1171 22.9483L25.8756 22.8536C25.3726 22.1528 25.614 22.3611 25.5336 22.1527L25.8958 22.077L25.9763 21.9255L25.8153 21.774C25.0707 21.5656 25.1311 21.774 25.0707 21.7171L24.8896 21.8686C24.8896 22.4369 25.0908 22.4748 25.0305 22.4937L24.789 22.5694C24.5475 22.399 24.5274 22.2474 24.4871 22.2664C23.9237 22.2285 23.8029 22.3611 23.7224 22.4369C23.4809 21.6982 23.5816 21.7929 23.3602 21.6224H23.2395L23.1791 21.755C23.2797 21.9633 23.1791 22.1906 23.1791 22.1717C22.6961 21.5467 22.7766 21.5467 22.6961 21.3005V21.2436H22.515C22.1327 21.4709 22.1729 21.9065 22.0522 21.9255C21.1064 21.9255 21.3881 21.7171 21.1466 21.5845C20.1605 21.9634 19.5166 21.9444 19.0739 21.8118C18.8525 22.2096 18.6714 22.1906 18.6714 22.2096C18.4903 21.7171 18.5507 21.7361 18.5305 21.7171L18.3695 21.6035L18.1884 21.6414L18.0476 21.8308C17.0414 20.7512 17.0414 21.3762 16.6389 20.9974C16.3572 20.2208 16.3773 20.486 16.3572 20.3913L15.9748 20.3534C15.4919 20.8269 15.19 21.0542 15.0491 21.0353L14.8479 20.8458C14.8479 20.4292 14.8077 20.5239 14.7674 20.3913C14.2241 21.0163 14.4655 20.9406 14.2643 21.3005L14.1235 21.3951H13.9625C13.721 21.111 13.8618 21.111 13.8015 21.0921C14.1637 20.5807 14.1235 20.2777 14.0832 20.183L13.9021 19.9936C13.7612 20.0883 13.6807 20.1072 13.7009 20.1072H13.56L13.4795 19.8799C13.5399 19.4632 13.9423 19.217 13.8618 19.2549V19.1223C13.3588 18.9519 13.3185 19.1602 13.2984 19.1034C12.6544 19.6526 13.0167 20.0504 12.7953 20.183C12.1312 20.5997 12.2117 20.3156 12.1715 20.4103C11.5879 20.1451 11.5476 19.8231 11.5476 19.8988C11.3665 20.6375 11.3464 20.505 11.1049 20.7133C10.5415 20.3913 10.5213 20.3723 10.461 20.3723C9.49502 20.6754 9.2938 21.0731 9.31392 20.9784L8.93157 20.9406C9.5554 19.8231 9.41452 19.861 9.51514 19.6716L9.41451 19.4443C8.4687 19.4443 8.026 18.7435 8.04612 18.8761C7.40217 20.2209 7.24118 19.6148 6.69784 20.0125C6.45636 19.7663 6.39598 19.5958 6.37586 19.6147L6.19475 19.5769L5.95328 19.8041C5.99353 20.6754 5.97338 20.7512 5.93314 20.8838L5.67155 20.9406C4.70562 20.5428 4.92697 20.6754 4.56475 20.5997C3.90067 20.9406 3.90064 21.2626 3.88052 21.1868L3.53842 21.2815C3.49817 20.4102 3.39757 20.5428 3.39757 20.4481L3.1561 20.2398H3.01522C2.41151 20.7701 2.12976 20.7322 1.86816 20.6754C1.74742 20.3913 1.60656 20.183 1.56632 20.183L1.44558 20.1451C0.701005 20.3155 0.922349 20.4292 0.580248 20.4671V20.3913C1.08334 20.0504 0.862005 19.8988 0.922376 19.861L0.761383 19.6905V19.5769C1.48583 19.217 1.00287 18.3268 1.20411 18.3268C3.57869 16.5464 2.29078 14.7282 2.27065 13.9705C1.9688 13.8948 1.98891 13.9326 1.96878 13.8948C1.96878 13.4591 2.10966 13.3833 2.04929 13.3265C1.82793 13.1939 1.68707 13.1182 1.7072 13.1182L1.62668 12.9099L1.66694 12.7394C1.94867 12.6257 1.92855 12.6826 1.94867 12.6636L2.06941 12.5689C2.2304 11.3188 2.19014 10.5044 2.37125 10.1445V10.2014C1.90841 9.70891 2.57249 9.38696 2.59261 9.34908C1.92853 6.18604 3.31707 6.35647 3.41768 5.35263C9.89749 5.73144 14.1838 6.84895 19.416 7.45504C19.5367 7.70127 19.5367 7.64442 19.6172 7.72018C26.6001 7.90958 32.1542 12.228 37.7687 10.9969C38.2316 11.5272 38.795 12.4363 39.0969 12.7583H39.1774C41.5519 11.8302 42.538 10.8075 41.2501 9.34908C40.6464 6.88683 44.49 4.04575 46.2005 5.44734H46.281H46.3615C46.5225 5.14429 46.5627 5.20111 46.603 5.14429C47.1866 4.99276 46.9853 5.63675 47.1061 5.69357H47.1866H47.2671C47.8506 5.12536 49.4203 4.51928 49.8026 4.99279H49.863L49.9435 4.93594C50.8289 3.19343 51.5131 1.75397 52.7205 1.81079C52.4388 1.41304 52.0766 1.5267 52.1168 1.31835V1.24257C54.6524 1.35622 55.0549 2.15171 56.3227 2.92827C56.1617 0.712243 60.5486 2.41688 61.3737 1.50774C61.5548 1.29939 61.7158 1.29939 61.6756 1.29939C63.2653 1.20469 65.3582 3.21237 65.8412 3.45859V3.64801C68.2157 5.27688 68.4975 4.87915 69.6646 4.78444C71.5563 3.07981 73.7699 1.88655 75.6816 0.97741C75.7822 1.05317 75.7621 1.05317 75.7822 1.09105C75.742 1.24257 75.8024 1.31835 75.7822 1.31835L75.8627 1.35621C76.3054 1.29939 76.2853 1.22365 76.3457 1.26153C76.6677 1.41306 76.567 1.37516 76.6878 1.3941C76.9091 1.22364 76.8287 1.16683 76.9091 1.11001C77.2915 1.20471 77.3921 1.35623 77.372 1.31835C78.1166 1.09107 78.1367 1.29941 78.2775 1.22364L78.519 1.07212C81.598 0.0114568 82.9663 1.03425 84.0731 0.788024C83.7914 1.6214 83.57 1.69714 83.5902 1.7729C83.9323 2.98509 84.1335 3.55332 84.053 3.95106L83.892 4.14045C83.1877 4.25409 83.2883 4.31093 83.228 4.31093C82.8657 4.87915 82.7853 4.93597 82.7048 4.99279C81.9199 5.10643 81.6986 4.76549 81.6583 4.80337C81.1955 3.64801 80.9942 2.6631 80.793 2.13277L80.6723 2.20855V2.53053L80.8735 2.94723C80.5314 3.51544 80.9741 3.64801 81.1351 3.79954C81.1754 4.14046 81.276 4.40561 81.3162 4.46243L81.1955 4.87912C81.3364 5.33369 81.3162 5.16323 81.3162 5.23899L81.2559 5.37159C80.9741 5.561 80.9942 5.42842 80.9741 5.4663L81.2961 5.92085C80.7729 5.78827 80.7125 6.11027 80.6521 6.14815C81.4772 6.2618 81.3363 6.28073 81.6181 6.37543C83.067 7.68232 83.0267 7.11409 83.3487 8.13687L83.5298 8.17479L83.6707 8.32629C81.9401 11.8681 82.1413 12.7583 83.3688 13.8758C83.8115 13.8758 83.9323 13.7243 83.9122 13.7622L84.0731 13.819C83.5097 14.9933 82.8456 17.323 83.9122 17.626L84.1738 17.9669C83.9524 18.9708 83.7512 19.2359 83.6707 19.4443C84.053 20.3913 83.892 20.1072 84.1134 20.3534C84.6165 20.4671 84.5159 20.2966 84.5561 20.3534C84.7372 19.9557 85.0995 19.6905 85.1196 19.7284C85.4416 20.164 85.4013 20.1829 85.4214 20.2019L85.7434 20.2777C85.5623 20.6375 85.5019 20.5428 85.4214 20.6375C85.6428 21.13 85.5623 21.0542 85.5824 21.2247C85.2403 21.452 85.0391 21.3951 84.9586 21.3951L84.858 21.1868L85.0994 21.13L85.1598 20.9974L85.0793 20.8458L84.8781 20.7322C83.2883 20.9784 83.4091 22.4558 83.6304 22.7967C84.1939 22.9293 84.2341 22.9104 84.2341 22.9104C84.7574 23.4597 84.4756 24.3498 84.5561 24.1604C84.3348 23.8574 84.3951 23.9521 84.3348 23.8195C84.053 24.1983 84.1536 24.5582 84.0731 24.6529C83.5902 24.8044 83.228 25.0695 83.2078 25.1643C82.9261 25.6567 83.0871 25.6946 83.0469 25.7135L82.9865 25.7325Z" stroke="white" stroke-width="1.15034" stroke-linecap="round" stroke-linejoin="round"/>
</svg>
