<svg width="79" height="85" viewBox="0 0 79 85" fill="none" xmlns="http://www.w3.org/2000/svg">
<path d="M67.682 34.4368V34.3614C68.1224 33.9469 68.3627 33.9092 68.3026 33.9092C69.0433 33.928 69.0634 33.9092 69.1034 33.9092C69.8641 34.2672 69.8441 34.6629 69.8641 34.7948L69.704 34.9078C69.0834 34.9643 69.2435 34.8701 69.1835 34.9078C68.8632 35.0397 68.9833 35.0962 68.9432 35.0962C68.4628 35.0962 68.3026 35.0774 68.2025 34.9832L68.1224 34.644C67.8622 34.4556 67.8622 34.5498 67.8422 34.5121L67.7021 34.4368H67.682Z" fill="#2D73B5"/>
<path d="M67.682 34.4368V34.3614C68.1224 33.9469 68.3627 33.9092 68.3026 33.9092C69.0433 33.928 69.0634 33.9092 69.1034 33.9092C69.8641 34.2672 69.8441 34.6629 69.8641 34.7948L69.704 34.9078C69.0834 34.9643 69.2435 34.8701 69.1835 34.9078C68.8632 35.0397 68.9833 35.0962 68.9432 35.0962C68.4628 35.0962 68.3026 35.0774 68.2025 34.9832L68.1224 34.644C67.8622 34.4556 67.8622 34.5498 67.8422 34.5121L67.7021 34.4368H67.682Z" stroke="white" stroke-width="1.15034" stroke-linecap="round" stroke-linejoin="round"/>
<path d="M75.99 52.8836L76.1702 53.0532C75.8699 53.7126 75.5896 54.1272 75.6297 54.1083C74.7688 55.6534 72.6468 55.107 72.0662 55.22L71.9461 54.8809L72.0862 54.2968C74.0081 52.5821 74.0081 53.3546 74.3484 52.7517C75.1692 52.5256 75.5096 53.0155 75.5096 52.9401L76.01 52.9024L75.99 52.8836Z" fill="#2D73B5"/>
<path d="M75.99 52.8836L76.1702 53.0532C75.8699 53.7126 75.5896 54.1272 75.6297 54.1083C74.7688 55.6534 72.6468 55.107 72.0662 55.22L71.9461 54.8809L72.0862 54.2968C74.0081 52.5821 74.0081 53.3546 74.3484 52.7517C75.1692 52.5256 75.5096 53.0155 75.5096 52.9401L76.01 52.9024L75.99 52.8836Z" stroke="white" stroke-width="1.15034" stroke-linecap="round" stroke-linejoin="round"/>
<path d="M70.1044 34.9833C70.6649 35.737 70.6649 35.6993 70.785 35.8123C71.0052 36.8298 71.6258 37.0559 71.4857 37.4704C70.705 38.5821 70.1044 38.6198 69.8041 38.714C69.0033 38.4691 69.2836 38.4502 69.1835 38.4502C68.8632 37.2632 68.8432 37.5458 68.6029 37.169L68.5629 36.9052C68.2025 36.5472 68.1625 36.7167 68.1425 36.6602C68.3226 35.6239 68.3427 35.5862 68.4428 35.2659C68.9833 35.1528 68.9433 35.2659 68.9833 35.2282L69.2235 35.0398L69.4237 35.0775C70.0043 34.9833 69.9642 35.0021 70.0843 34.9644L70.1044 34.9833Z" fill="#2D73B5"/>
<path d="M70.1044 34.9833C70.6649 35.737 70.6649 35.6993 70.785 35.8123C71.0052 36.8298 71.6258 37.0559 71.4857 37.4704C70.705 38.5821 70.1044 38.6198 69.8041 38.714C69.0033 38.4691 69.2836 38.4502 69.1835 38.4502C68.8632 37.2632 68.8432 37.5458 68.6029 37.169L68.5629 36.9052C68.2025 36.5472 68.1625 36.7167 68.1425 36.6602C68.3226 35.6239 68.3427 35.5862 68.4428 35.2659C68.9833 35.1528 68.9433 35.2659 68.9833 35.2282L69.2235 35.0398L69.4237 35.0775C70.0043 34.9833 69.9642 35.0021 70.0843 34.9644L70.1044 34.9833Z" stroke="white" stroke-width="1.15034" stroke-linecap="round" stroke-linejoin="round"/>
<path d="M77.5915 50.4149L77.7517 50.6033C77.1311 51.7716 76.6907 51.96 76.2903 52.318C75.7498 52.431 75.3694 52.6195 75.4295 52.5818C75.0691 52.2803 74.7888 52.3934 74.8489 52.3557V52.0542C75.5696 51.5455 75.5896 51.7339 75.6497 51.6585C75.99 50.7541 77.2913 50.8295 77.2712 50.5091L77.5915 50.3961V50.4149Z" fill="#2D73B5"/>
<path d="M77.5915 50.4149L77.7517 50.6033C77.1311 51.7716 76.6907 51.96 76.2903 52.318C75.7498 52.431 75.3694 52.6195 75.4295 52.5818C75.0691 52.2803 74.7888 52.3934 74.8489 52.3557V52.0542C75.5696 51.5455 75.5896 51.7339 75.6497 51.6585C75.99 50.7541 77.2913 50.8295 77.2712 50.5091L77.5915 50.3961V50.4149Z" stroke="white" stroke-width="1.15034" stroke-linecap="round" stroke-linejoin="round"/>
<path d="M74.1883 48.1162L74.0482 48.1727L74.0882 48.3988C74.3885 48.7756 74.5486 48.6437 74.5286 48.7003L74.889 48.5684C76.2503 48.7568 76.4104 48.3423 76.8308 48.5307L77.3113 48.2292H77.6717C78.3523 48.6814 78.1121 48.7756 78.2122 48.8699C77.6717 50.3584 76.4305 50.4338 76.2102 50.4149L75.93 49.8873C75.5897 50.7164 75.5096 51.2063 75.4695 51.1686C69.8441 54.5225 67.1815 60.8535 63.9384 63.7175C59.7143 63.3972 59.8545 67.6932 57.352 67.0149C57.272 67.3164 57.2319 67.2033 57.2319 67.241C56.3911 67.354 56.5112 67.4859 56.4312 67.4671C55.5503 67.3164 55.7705 67.3729 55.4502 67.4106V67.5048C56.311 67.6932 56.1509 67.8628 56.4112 68.1077H56.6514C53.8086 71.3863 54.8096 72.4414 52.3673 74.1749C51.6466 73.9865 51.5064 73.9677 51.4463 73.9865V74.0807C51.7466 74.043 51.8668 74.1938 51.8868 74.1749V74.288C51.3062 74.4387 51.3863 74.3445 51.3462 74.3822V74.4764C51.8467 74.5329 51.8267 74.4199 51.9068 74.4199L51.9869 74.288L52.2071 74.3822C47.3224 78.6217 50.8458 82.409 46.3014 83.3322C45.7409 83.0308 45.8409 83.2003 45.5607 83.2946C45.2804 83.2003 45.1603 83.0496 45.1202 83.0873L45.0602 83.125C44.4196 83.7091 43.9992 83.5395 43.7189 84.2555C34.47 80.6566 41.777 78.7159 36.6321 79.187C36.9123 75.2678 32.6482 67.6744 30.346 69.0875C26.7225 61.4564 28.4642 55.8038 22.5185 52.4499C20.7568 49.1525 23.9398 47.0045 20.4365 47.8901L20.3764 47.8335C20.3964 47.0798 20.1161 46.6276 20.2363 46.0812C19.5156 46.0058 19.1752 45.9116 18.7348 46.1189C18.2744 45.8174 18.7949 45.3087 18.4946 45.1579C18.1543 45.3087 17.7939 45.5348 17.5937 45.2521C17.7338 45.1203 17.6938 45.1579 17.7138 45.1014L17.6738 45.0449C17.0532 45.4594 16.7929 45.742 15.9922 45.3464L15.9321 45.384C15.9321 45.5725 16.0122 45.629 15.9922 45.6667V45.7232L15.9121 45.7609C15.4516 45.7986 15.5117 45.7609 15.4717 45.7609L15.4316 45.7232C15.5117 45.5536 15.4316 45.6102 15.4717 45.5913L15.4316 45.5348C14.9512 45.4971 15.0112 45.5348 14.9712 45.4971L14.9312 45.4594V45.2898C14.751 44.9507 14.4507 45.0072 14.4307 44.8941C14.4107 44.6869 14.4307 44.668 14.4106 44.6304L14.3706 44.5927C13.5298 43.3302 11.7881 44.5738 11.8682 43.481C11.648 43.1041 11.3877 42.9346 11.4077 42.8027C11.4478 42.5766 11.5679 42.5766 11.5679 42.4823L11.5278 42.4447C10.8672 42.6331 10.7671 41.5591 10.2466 41.7098L10.1866 41.8417H10.1065C9.50592 41.2764 9.34575 41.4083 9.06548 41.0692C8.34479 40.7865 7.6241 39.9575 7.16365 40.3532C6.42294 40.0329 5.90243 40.3343 5.34189 40.4097C-1.74494 40.0517 2.51917 37.0935 0.617333 36.5282L0.577286 36.4717C2.09875 35.36 0.236973 34.8889 0.937649 33.9845C1.73842 33.8715 1.65836 32.5714 1.85855 32.7409C1.63834 30.7437 1.53824 30.3668 0.917641 29.9146C1.61832 29.5189 1.91859 30.0653 2.05873 30.0842C2.05873 30.7437 2.21889 30.4987 2.15883 30.8002C1.97865 30.8567 1.99866 30.8002 1.95862 30.8379L1.85855 31.1205C2.15884 31.6858 1.93862 31.5916 2.03872 31.8742C3.09974 32.1191 4.34092 31.6481 4.84141 32.496L4.48107 32.5525L4.54113 32.7221C6.64316 34.0976 8.50494 34.5686 10.1866 34.3048C10.8272 35.2846 10.8872 34.9455 11.4077 35.002C12.0283 34.1541 11.8282 34.0222 11.9483 33.9845L12.0684 33.9091C12.669 33.8338 12.4888 34.041 12.729 34.0599C13.4898 33.6265 14.1103 33.4569 14.0303 33.4193C14.2905 32.8351 14.1104 32.8163 14.1704 32.7975L14.2505 32.7221C14.6509 32.854 14.771 32.7786 14.751 32.7975C15.1914 32.4583 15.2314 32.1757 15.2915 32.1945C15.772 32.1945 15.6919 32.1568 15.852 32.1191C16.2524 31.3089 16.853 31.1959 17.1533 31.3089L17.3335 31.535C17.2133 32.0438 17.1133 32.0061 17.1533 32.0815C19.3154 32.7221 19.6357 32.6467 20.5766 33.0424C22.2382 32.9105 23.1991 31.9872 23.4594 31.5539L23.5394 31.5162C24.4003 32.1191 25.4613 33.2308 25.2811 32.967V33.1178C24.5004 33.325 24.6605 33.6077 24.5604 33.6454L24.7406 33.7773C27.7035 33.2497 27.0228 33.3627 28.0238 33.9091C29.8055 34.0976 29.325 34.2671 29.9456 33.7773C30.1458 33.7584 30.2059 33.8338 30.2059 33.8149C32.8684 31.1205 36.7122 29.99 35.6912 27.3144C36.1516 27.0506 36.1716 27.1071 36.2117 27.0506C37.1526 24.6576 37.3127 23.9039 38.3337 23.414C38.2336 23.1126 38.0935 22.9807 38.1335 22.9618C39.8151 20.3993 38.9143 20.9646 39.1945 19.6456L39.7551 19.2688C40.1154 18.3267 40.1354 18.5716 40.3757 18.3078C42.2975 17.4599 43.5988 14.2756 43.3185 14.3886C45.1803 12.9943 44.3595 11.2985 45.6007 11.1666L45.7409 11.0347C45.7609 10.526 45.7208 10.4883 45.7609 10.4506C48.3434 8.67945 48.3834 6.41838 50.3053 6.39954C51.8267 4.45879 50.9459 4.02542 51.1661 3.91237L51.3462 3.64858H51.5665C52.4473 5.79659 53.7686 8.15186 53.6885 8.15186L53.8287 7.73734C52.4073 5.09943 51.3663 2.36731 51.9468 0.859933C52.2671 0.520774 52.4874 0.614985 52.4473 0.577301C58.6933 3.27173 57.9927 9.07513 57.4922 11.5623L57.8325 12.316C58.353 9.77229 58.293 9.13166 58.7734 8.49102H59.1338L59.334 8.84902C59.0737 14.2191 58.9936 16.3671 60.1548 19.2122L59.9546 19.6644C60.2949 20.6254 60.375 20.6631 60.375 20.8327C60.1748 21.3226 60.375 21.3602 60.3349 21.3791C60.9755 22.34 61.0957 23.3575 61.476 23.7532C61.3359 24.2243 61.456 24.4692 61.476 24.5446C61.8564 24.7895 61.8564 24.7895 61.8964 24.8649L62.1166 24.9591C62.6371 26.3534 63.478 28.1246 63.3979 28.8783C63.2577 29.0855 63.2377 29.029 63.1577 29.0855C63.0375 29.3493 63.1576 29.3117 63.1176 29.3305L63.2177 29.4247H63.3779C63.5781 29.2551 63.518 29.274 63.538 29.2551L63.6581 29.2174C64.6191 29.99 64.2787 30.7625 64.6591 31.0828C64.7392 32.609 65.4399 33.4381 65.6601 34.1353C65.2797 34.8701 65.0995 34.5309 64.8593 34.6063L64.7392 34.6817C64.0385 34.5121 64.1586 34.4744 63.9785 34.286H63.8784C63.8784 34.6628 64.1987 34.6817 64.2787 34.7382L64.3188 34.8324C64.1186 35.3223 64.0585 35.6238 64.0785 35.6238C64.3188 35.9441 64.2987 35.9818 64.3588 36.0195H64.519L64.599 35.8876C67.0614 31.5539 68.0624 42.1997 71.1654 39.3545C72.0462 39.5241 72.0662 39.3922 72.3065 39.5053C79.9939 38.5443 80.1741 49.2655 74.3084 48.1915L74.1482 48.1162H74.1883Z" fill="#2D73B5"/>
<path d="M74.1883 48.1162L74.0482 48.1727L74.0882 48.3988C74.3885 48.7756 74.5486 48.6437 74.5286 48.7003L74.889 48.5684C76.2503 48.7568 76.4104 48.3423 76.8308 48.5307L77.3113 48.2292H77.6717C78.3523 48.6814 78.1121 48.7756 78.2122 48.8699C77.6717 50.3584 76.4305 50.4338 76.2103 50.4149L75.93 49.8873C75.5897 50.7164 75.5096 51.2063 75.4695 51.1686C69.8441 54.5225 67.1815 60.8535 63.9384 63.7175C59.7143 63.3972 59.8545 67.6932 57.352 67.0149C57.272 67.3164 57.2319 67.2033 57.2319 67.241C56.3911 67.354 56.5112 67.4859 56.4312 67.4671C55.5503 67.3164 55.7705 67.3729 55.4502 67.4106V67.5048C56.311 67.6932 56.1509 67.8628 56.4112 68.1077H56.6514C53.8086 71.3863 54.8096 72.4414 52.3673 74.1749C51.6466 73.9865 51.5064 73.9677 51.4463 73.9865V74.0807C51.7466 74.043 51.8668 74.1938 51.8868 74.1749V74.288C51.3062 74.4387 51.3863 74.3445 51.3462 74.3822V74.4764C51.8467 74.5329 51.8267 74.4199 51.9068 74.4199L51.9869 74.288L52.2071 74.3822C47.3224 78.6217 50.8458 82.409 46.3014 83.3322C45.7409 83.0308 45.8409 83.2003 45.5607 83.2946C45.2804 83.2003 45.1603 83.0496 45.1202 83.0873L45.0602 83.125C44.4196 83.7091 43.9992 83.5395 43.7189 84.2555C34.47 80.6566 41.777 78.7159 36.6321 79.187C36.9123 75.2678 32.6482 67.6744 30.346 69.0875C26.7225 61.4564 28.4642 55.8038 22.5185 52.4499C20.7568 49.1525 23.9398 47.0045 20.4365 47.8901L20.3764 47.8335C20.3964 47.0798 20.1161 46.6276 20.2363 46.0812C19.5156 46.0058 19.1752 45.9116 18.7348 46.1189C18.2744 45.8174 18.7949 45.3087 18.4946 45.1579C18.1543 45.3087 17.7939 45.5348 17.5937 45.2521C17.7338 45.1203 17.6938 45.1579 17.7138 45.1014L17.6738 45.0449C17.0532 45.4594 16.7929 45.742 15.9922 45.3464L15.9321 45.384C15.9321 45.5725 16.0122 45.629 15.9922 45.6667V45.7232L15.9121 45.7609C15.4516 45.7986 15.5117 45.7609 15.4717 45.7609L15.4316 45.7232C15.5117 45.5536 15.4316 45.6102 15.4717 45.5913L15.4316 45.5348C14.9512 45.4971 15.0112 45.5348 14.9712 45.4971L14.9312 45.4594V45.2898C14.751 44.9507 14.4507 45.0072 14.4307 44.8941C14.4107 44.6869 14.4307 44.668 14.4106 44.6304L14.3706 44.5927C13.5298 43.3302 11.7881 44.5738 11.8682 43.481C11.648 43.1041 11.3877 42.9346 11.4077 42.8027C11.4478 42.5766 11.5679 42.5766 11.5679 42.4823L11.5278 42.4447C10.8672 42.6331 10.7671 41.5591 10.2466 41.7098L10.1866 41.8417H10.1065C9.50592 41.2764 9.34575 41.4083 9.06548 41.0692C8.34479 40.7865 7.6241 39.9575 7.16365 40.3532C6.42294 40.0329 5.90243 40.3343 5.34189 40.4097C-1.74494 40.0517 2.51917 37.0935 0.617333 36.5282L0.577286 36.4717C2.09875 35.36 0.236973 34.8889 0.937649 33.9845C1.73842 33.8715 1.65836 32.5714 1.85855 32.7409C1.63834 30.7437 1.53824 30.3668 0.917641 29.9146C1.61832 29.5189 1.91859 30.0653 2.05873 30.0842C2.05873 30.7437 2.21889 30.4987 2.15883 30.8002C1.97865 30.8567 1.99866 30.8002 1.95862 30.8379L1.85855 31.1205C2.15884 31.6858 1.93862 31.5916 2.03872 31.8742C3.09974 32.1191 4.34092 31.6481 4.84141 32.496L4.48107 32.5525L4.54113 32.7221C6.64316 34.0976 8.50494 34.5686 10.1866 34.3048C10.8272 35.2846 10.8872 34.9455 11.4077 35.002C12.0283 34.1541 11.8282 34.0222 11.9483 33.9845L12.0684 33.9091C12.669 33.8338 12.4888 34.041 12.729 34.0599C13.4898 33.6265 14.1103 33.4569 14.0303 33.4193C14.2905 32.8351 14.1104 32.8163 14.1704 32.7975L14.2505 32.7221C14.6509 32.854 14.771 32.7786 14.751 32.7975C15.1914 32.4583 15.2314 32.1757 15.2915 32.1945C15.772 32.1945 15.6919 32.1568 15.852 32.1191C16.2524 31.3089 16.853 31.1959 17.1533 31.3089L17.3335 31.535C17.2133 32.0438 17.1133 32.0061 17.1533 32.0815C19.3154 32.7221 19.6357 32.6467 20.5766 33.0424C22.2382 32.9105 23.1991 31.9872 23.4594 31.5539L23.5394 31.5162C24.4003 32.1191 25.4613 33.2308 25.2811 32.967V33.1178C24.5004 33.325 24.6605 33.6077 24.5604 33.6454L24.7406 33.7773C27.7035 33.2497 27.0228 33.3627 28.0238 33.9091C29.8055 34.0976 29.325 34.2671 29.9456 33.7773C30.1458 33.7584 30.2059 33.8338 30.2059 33.8149C32.8684 31.1205 36.7122 29.99 35.6912 27.3144C36.1516 27.0506 36.1716 27.1071 36.2117 27.0506C37.1526 24.6576 37.3127 23.9039 38.3337 23.414C38.2336 23.1126 38.0935 22.9807 38.1335 22.9618C39.8151 20.3993 38.9143 20.9646 39.1945 19.6456L39.7551 19.2688C40.1154 18.3267 40.1354 18.5716 40.3757 18.3078C42.2975 17.4599 43.5988 14.2756 43.3185 14.3886C45.1803 12.9943 44.3595 11.2985 45.6007 11.1666L45.7409 11.0347C45.7609 10.526 45.7208 10.4883 45.7609 10.4506C48.3434 8.67945 48.3834 6.41838 50.3053 6.39954C51.8267 4.45879 50.9459 4.02542 51.1661 3.91237L51.3462 3.64858H51.5665C52.4473 5.79659 53.7686 8.15186 53.6885 8.15186L53.8287 7.73734C52.4073 5.09943 51.3663 2.36731 51.9468 0.859933C52.2671 0.520774 52.4874 0.614985 52.4473 0.577301C58.6933 3.27174 57.9927 9.07513 57.4922 11.5623L57.8325 12.316C58.353 9.77229 58.293 9.13166 58.7734 8.49102H59.1338L59.334 8.84902C59.0737 14.2191 58.9936 16.3671 60.1548 19.2122L59.9546 19.6644C60.2949 20.6254 60.375 20.6631 60.375 20.8327C60.1748 21.3226 60.375 21.3602 60.3349 21.3791C60.9755 22.34 61.0957 23.3575 61.476 23.7532C61.3359 24.2243 61.456 24.4692 61.476 24.5446C61.8564 24.7895 61.8564 24.7895 61.8964 24.8649L62.1166 24.9591C62.6371 26.3534 63.478 28.1246 63.3979 28.8783C63.2577 29.0855 63.2377 29.029 63.1577 29.0855C63.0375 29.3493 63.1576 29.3117 63.1176 29.3305L63.2177 29.4247H63.3779C63.5781 29.2551 63.518 29.274 63.538 29.2551L63.6581 29.2174C64.6191 29.99 64.2787 30.7625 64.6591 31.0828C64.7392 32.609 65.4399 33.4381 65.6601 34.1353C65.2797 34.8701 65.0995 34.5309 64.8593 34.6063L64.7392 34.6817C64.0385 34.5121 64.1586 34.4744 63.9785 34.286H63.8784C63.8784 34.6628 64.1987 34.6817 64.2787 34.7382L64.3188 34.8324C64.1186 35.3223 64.0585 35.6238 64.0785 35.6238C64.3188 35.9441 64.2987 35.9818 64.3588 36.0195H64.519L64.599 35.8876C67.0614 31.5539 68.0624 42.1997 71.1654 39.3545C72.0462 39.5241 72.0662 39.3922 72.3065 39.5053C79.9939 38.5443 80.1741 49.2655 74.3084 48.1915L74.1482 48.1162H74.1883Z" stroke="white" stroke-width="1.15034" stroke-linecap="round" stroke-linejoin="round"/>
</svg>
