<svg width="205" height="186" viewBox="0 0 205 186" fill="none" xmlns="http://www.w3.org/2000/svg">
<path d="M153.957 65.2287C153.596 66.2281 152.555 66.9069 152.535 67.1143C151.333 66.8126 151.373 66.7372 151.172 66.4544C151.833 65.3984 152.555 64.7385 152.995 64.4179L153.296 64.4934C153.396 64.9459 153.456 64.8516 153.436 64.8893C153.757 65.191 153.937 65.1533 153.957 65.2287Z" fill="#2D73B5"/>
<path d="M153.957 65.2287C153.596 66.2281 152.555 66.9069 152.535 67.1143C151.333 66.8126 151.373 66.7372 151.172 66.4544C151.833 65.3984 152.555 64.7385 152.995 64.4179L153.296 64.4934C153.396 64.9459 153.456 64.8516 153.436 64.8893C153.757 65.191 153.937 65.1533 153.957 65.2287V65.2287Z" stroke="white" stroke-width="1.15034" stroke-linecap="round" stroke-linejoin="round"/>
<path d="M150.491 37.8314C150.671 38.1142 150.691 38.1142 150.711 38.1519C151.613 37.624 152.474 38.6045 152.494 38.6799C152.494 39.0759 152.434 39.0004 152.494 39.0947L152.675 39.2079C152.815 39.2079 152.815 39.2079 152.855 39.2267C152.915 39.6227 152.555 39.8301 152.655 39.9432C152.354 39.8678 152.354 39.8678 152.314 39.849L152.234 40.1129C150.832 41.8477 147.426 40.6598 147.005 41.2632L145.162 40.6032C145.683 38.925 147.907 38.7365 147.626 38.661C150.07 37.5297 150.271 38.1519 150.471 37.8125L150.491 37.8314Z" fill="#2D73B5"/>
<path d="M150.491 37.8314C150.671 38.1142 150.691 38.1142 150.711 38.1519C151.613 37.624 152.474 38.6045 152.494 38.6799C152.494 39.0759 152.434 39.0004 152.494 39.0947L152.675 39.2079C152.815 39.2079 152.815 39.2079 152.855 39.2267C152.915 39.6227 152.555 39.8301 152.655 39.9432C152.354 39.8678 152.354 39.8678 152.314 39.849L152.234 40.1129C150.832 41.8477 147.426 40.6598 147.005 41.2632L145.162 40.6032C145.683 38.925 147.907 38.7365 147.626 38.661C150.07 37.5297 150.271 38.1519 150.471 37.8125L150.491 37.8314Z" stroke="white" stroke-width="1.15034" stroke-linecap="round" stroke-linejoin="round"/>
<path d="M141.937 34.6637C144.862 34.9465 148.628 32.9478 149.469 33.4004L149.95 33.8718V34.6637C145.322 36.587 145.903 39.5474 142.458 39.8868C141.816 38.5292 140.053 38.5103 139.773 38.68C139.513 38.548 139.553 38.4915 139.533 38.5103C138.751 38.6423 137.99 39.0194 137.83 38.944C136.307 38.3972 137.309 37.4544 137.149 37.1527C136.728 37.3601 136.748 37.8504 136.728 37.7749C136.167 37.1338 136.588 36.1533 136.548 36.059C138.511 35.5688 140.154 35.9459 140.815 35.8516L141.536 35.2482L141.937 34.7014V34.6637Z" fill="#2D73B5"/>
<path d="M141.937 34.6637C144.862 34.9465 148.628 32.9478 149.469 33.4004L149.95 33.8718V34.6637C145.322 36.587 145.903 39.5474 142.458 39.8868C141.816 38.5292 140.053 38.5103 139.773 38.68C139.513 38.548 139.553 38.4915 139.533 38.5103C138.751 38.6423 137.99 39.0194 137.83 38.944C136.307 38.3972 137.309 37.4544 137.149 37.1527C136.728 37.3601 136.748 37.8504 136.728 37.7749C136.167 37.1338 136.588 36.1533 136.548 36.059C138.511 35.5688 140.154 35.9459 140.815 35.8516L141.536 35.2482L141.937 34.7014V34.6637Z" stroke="white" stroke-width="1.15034" stroke-linecap="round" stroke-linejoin="round"/>
<path d="M153.176 41.3764L153.296 41.4519C154.538 41.1125 155.459 41.301 156.241 41.3387L156.421 41.4896C158.084 41.2444 158.084 41.5839 158.164 41.4519C158.825 41.8667 158.545 41.8101 158.645 41.8478C159.326 41.6216 159.987 41.2444 160.007 41.3576L160.207 41.5084V41.9233L160.027 42.1307V42.2815C163.673 42.3192 166.558 42.7718 167.921 43.0923C168.942 44.0917 168.061 45.0345 167.5 45.223C166.458 47.2029 166.939 48.1457 166.298 49.0885L166.458 49.2205C166.338 49.8239 166.278 50.0502 166.298 50.0879C165.456 49.805 165.056 49.0131 165.096 49.1639C165.536 50.2576 165.877 50.3518 165.877 50.5215L165.657 50.8987C166.779 52.5391 164.094 52.8597 164.154 53.1237L164.234 53.2745C163.914 53.9345 163.794 53.8025 163.653 53.8968L163.834 54.0476C164.134 54.0853 164.094 53.9722 164.134 54.0099H164.254L164.274 54.255C163.934 54.5379 163.814 54.5567 163.834 54.5567V54.6698L164.254 54.5944V54.8207C163.032 55.9143 161.61 56.5177 161.249 56.8948C159.987 56.8006 159.947 55.9332 159.727 55.8955L159.626 55.9898C160.067 56.9514 160.668 56.8006 160.869 57.0457L160.949 57.3474L160.829 57.5737L160.468 57.4982V57.6114C161.309 57.6491 161.45 57.7434 161.59 57.8565C161.63 59.497 160.828 60.0815 161.009 60.0438H160.909C158.625 57.5925 159.226 58.2713 158.945 58.0828L158.525 58.2148L159.045 58.2525L159.226 58.4599L159.086 58.6862L158.645 58.8181V58.9313L158.745 59.0444C158.805 59.3838 158.505 59.4215 158.545 59.4404C159.226 59.1198 159.166 59.0256 159.266 59.0256L159.426 59.101C159.606 59.5158 159.606 59.5912 159.647 59.6478C160.107 59.7609 159.947 59.7044 160.107 59.7987C160.268 60.2889 161.149 60.4586 160.949 60.4586V60.5717C160.067 60.7226 159.947 60.9677 159.827 61.326L159.707 61.3825C159.366 61.1563 159.426 61.2317 159.286 61.1751C158.464 61.8728 157.563 61.6465 157.363 61.7785L157.262 61.7031C157.262 61.458 157.242 61.5334 157.242 61.5145C156.361 61.5523 156.221 60.0061 156 59.8552H155.52C155.339 59.7232 155.399 59.7044 155.359 59.7044L155.259 59.6667L155.079 59.7609L155.359 59.9684C155.56 61.4768 154.939 62.2688 155.199 62.0991L155.52 62.2876C155.319 62.4008 155.379 62.3631 155.299 62.4008C155.299 62.2499 155.159 62.1933 155.179 62.1933C155.019 62.4196 154.758 62.3631 154.758 62.4008L154.878 62.5516C155.259 62.5893 155.159 62.6082 155.199 62.6082L155.299 62.8156C155.479 62.5516 155.76 62.627 155.74 62.6082C154.458 64.0412 152.715 62.4196 152.174 61.7597C152.274 61.3071 152.334 61.3448 152.334 61.2506L152.274 61.0997C151.913 61.6465 151.833 61.9671 151.833 61.9482L151.913 62.2688C153.196 63.0419 152.575 62.9664 152.795 63.023L152.735 63.3624L152.514 63.4944C151.513 63.2116 151.733 63.3059 151.393 63.3247C150.491 62.9287 150.892 62.8156 150.751 62.8344C150.691 61.8351 150.491 61.2128 150.551 61.2883C150.251 61.458 150.05 61.2883 150.01 61.2883C150.651 61.59 150.411 62.8345 150.451 62.6082C150.291 62.4573 150.17 62.5705 150.13 62.5139L150.291 62.6836C150.291 63.1927 150.11 63.0607 150.171 63.1173C149.75 63.3058 149.73 63.2493 149.71 63.287L149.63 63.4755C149.73 63.9847 149.83 63.8715 149.81 63.9281H149.59V64.0224L149.81 64.0789C149.85 64.4749 149.65 64.6069 149.71 64.588L149.59 64.6446C147.987 64.2298 148.247 65.4554 147.847 65.3611L147.546 65.3234C146.705 64.3052 146.945 63.6641 146.564 63.4378C146.584 62.8722 146.785 62.7402 146.745 62.7402L146.685 62.5139C147.025 68.4535 145.362 65.116 142.598 64.9652C142.017 64.4749 142.177 64.5692 142.117 64.5315C142.197 63.7584 142.237 63.7018 142.217 63.7207L142.177 63.6453L141.836 63.683L141.756 63.7961C142.097 64.7389 141.055 64.852 141.155 65.0217L140.174 65.4743C139.673 65.2291 139.793 65.0594 139.673 65.0406L139.072 64.8897C138.571 64.0035 139.132 63.4944 138.871 63.155C138.491 62.9664 138.33 63.0419 138.31 63.0042L138.23 62.8156L138.27 62.6836C138.471 62.5893 138.451 62.6459 138.471 62.627C138.711 62.4196 138.671 62.2688 138.691 62.3065C138.431 61.6654 138.471 61.4203 138.551 61.1374L138.27 61.326C138.25 61.9671 138.571 62.1556 138.471 62.1179C138.591 62.1934 138.531 62.1745 138.551 62.1745C138.551 62.3253 138.491 62.3065 138.491 62.3253C138.371 62.3253 138.391 62.3253 138.371 62.3253C138.09 62.5328 137.99 62.7402 137.99 62.8156C138.451 63.3624 138.791 63.3813 138.771 63.4755C138.431 64.4372 138.471 65.0217 138.411 65.0029H138.31C138.07 63.9281 137.79 63.5887 137.87 63.683H137.749C138.15 65.0972 138.03 64.6635 138.09 65.1537L137.95 65.4177C137.108 65.644 136.888 65.3611 136.808 65.4177C137.75 65.8514 137.749 65.7194 137.91 65.8891C136.067 66.945 133.663 65.7005 133.062 65.4177L133.022 65.3046C133.242 64.7955 133.362 64.9086 133.342 64.852L133.643 64.7955C131.679 61.8351 130.056 61.8917 129.956 59.9306H129.996L130.137 59.8364H130.177L130.137 59.7421C129.976 59.6289 129.996 59.6667 129.956 59.629C129.756 56.6309 130.718 56.612 129.856 55.4995L130.056 55.2544C131.96 56.1783 133.302 56.3669 133.743 56.6874C133.282 55.8201 132.701 55.7635 132.841 55.7446C133.683 55.3864 133.863 55.4995 134.063 55.5561L134.344 55.3864V55.2355C133.943 54.9715 133.863 55.0847 133.863 55.047L133.983 54.7264L134.224 54.519C134.764 54.4624 135.085 54.5567 135.065 54.519C134.444 54.1419 134.364 54.3493 134.244 54.3116C133.322 55.3864 130.858 55.3864 130.658 55.1601C129.435 53.5573 130.077 52.0489 130.357 51.4266L130.297 51.2758L130.437 51.0872H130.617C131.038 51.3135 130.878 51.3701 130.938 51.3701L130.878 51.0118C130.357 50.729 130.157 50.5781 130.157 50.5593C130.036 49.7296 130.277 49.9936 130.377 49.7485L130.337 49.673L130.197 49.6165L130.157 49.541C130.477 47.7874 131.098 47.1841 130.918 47.316C131.559 47.9006 131.499 48.372 131.559 48.4851C133.683 49.5976 133.001 49.1639 133.903 49.1828C133.823 49.0508 133.843 48.9942 133.843 48.9942C132.2 48.2777 131.92 48.636 131.779 48.372C130.417 45.7133 131.819 43.5449 133.342 41.9987C134.364 41.8855 135.245 41.2067 136.067 41.5839C136.728 41.2633 136.567 40.7542 136.748 40.7165C142.818 41.3199 148.267 42.5455 152.254 42.9603V42.8661C151.853 42.3758 151.974 42.3947 151.913 42.357L151.974 42.093C152.855 41.4896 153.336 41.433 153.216 41.433L153.176 41.3764Z" fill="#2D73B5"/>
<path d="M153.176 41.3764L153.296 41.4519C154.538 41.1125 155.459 41.301 156.241 41.3387L156.421 41.4896C158.084 41.2444 158.084 41.5839 158.164 41.4519C158.825 41.8667 158.545 41.8101 158.645 41.8478C159.326 41.6216 159.987 41.2444 160.007 41.3576L160.207 41.5084V41.9233L160.027 42.1307V42.2815C163.673 42.3192 166.558 42.7718 167.921 43.0923C168.942 44.0917 168.061 45.0345 167.5 45.223C166.458 47.2029 166.939 48.1457 166.298 49.0885L166.458 49.2205C166.338 49.8239 166.278 50.0502 166.298 50.0879C165.456 49.805 165.056 49.0131 165.096 49.1639C165.536 50.2576 165.877 50.3518 165.877 50.5215L165.657 50.8987C166.779 52.5391 164.094 52.8597 164.154 53.1237L164.234 53.2745C163.914 53.9345 163.794 53.8025 163.653 53.8968L163.834 54.0476C164.134 54.0853 164.094 53.9722 164.134 54.0099H164.254L164.274 54.255C163.934 54.5379 163.814 54.5567 163.834 54.5567V54.6698L164.254 54.5944V54.8207C163.032 55.9143 161.61 56.5177 161.249 56.8948C159.987 56.8006 159.947 55.9332 159.727 55.8955L159.626 55.9898C160.067 56.9514 160.668 56.8006 160.869 57.0457L160.949 57.3474L160.829 57.5737L160.468 57.4982V57.6114C161.309 57.6491 161.45 57.7434 161.59 57.8565C161.63 59.497 160.828 60.0815 161.009 60.0438H160.909C158.625 57.5925 159.226 58.2713 158.945 58.0828L158.525 58.2148L159.045 58.2525L159.226 58.4599L159.086 58.6862L158.645 58.8181V58.9313L158.745 59.0444C158.805 59.3838 158.505 59.4215 158.545 59.4404C159.226 59.1198 159.166 59.0256 159.266 59.0256L159.426 59.101C159.606 59.5158 159.606 59.5912 159.647 59.6478C160.107 59.7609 159.947 59.7044 160.107 59.7987C160.268 60.2889 161.149 60.4586 160.949 60.4586V60.5717C160.067 60.7226 159.947 60.9677 159.827 61.326L159.707 61.3825C159.366 61.1563 159.426 61.2317 159.286 61.1751C158.464 61.8728 157.563 61.6465 157.363 61.7785L157.262 61.7031C157.262 61.458 157.242 61.5334 157.242 61.5145C156.361 61.5523 156.221 60.0061 156 59.8552H155.52C155.339 59.7232 155.399 59.7044 155.359 59.7044L155.259 59.6667L155.079 59.7609L155.359 59.9684C155.56 61.4768 154.939 62.2688 155.199 62.0991L155.52 62.2876C155.319 62.4008 155.379 62.3631 155.299 62.4008C155.299 62.2499 155.159 62.1933 155.179 62.1933C155.019 62.4196 154.758 62.3631 154.758 62.4008L154.878 62.5516C155.259 62.5893 155.159 62.6082 155.199 62.6082L155.299 62.8156C155.479 62.5516 155.76 62.627 155.74 62.6082C154.458 64.0412 152.715 62.4196 152.174 61.7597C152.274 61.3071 152.334 61.3448 152.334 61.2506L152.274 61.0997C151.913 61.6465 151.833 61.9671 151.833 61.9482L151.913 62.2688C153.196 63.0419 152.575 62.9664 152.795 63.023L152.735 63.3624L152.514 63.4944C151.513 63.2116 151.733 63.3059 151.393 63.3247C150.491 62.9287 150.892 62.8156 150.751 62.8344C150.691 61.8351 150.491 61.2128 150.551 61.2883C150.251 61.458 150.05 61.2883 150.01 61.2883C150.651 61.59 150.411 62.8345 150.451 62.6082C150.291 62.4573 150.17 62.5705 150.13 62.5139L150.291 62.6836C150.291 63.1927 150.11 63.0607 150.171 63.1173C149.75 63.3058 149.73 63.2493 149.71 63.287L149.63 63.4755C149.73 63.9847 149.83 63.8715 149.81 63.9281H149.59V64.0224L149.81 64.0789C149.85 64.4749 149.65 64.6069 149.71 64.588L149.59 64.6446C147.987 64.2298 148.247 65.4554 147.847 65.3611L147.546 65.3234C146.705 64.3052 146.945 63.6641 146.564 63.4378C146.584 62.8722 146.785 62.7402 146.745 62.7402L146.685 62.5139C147.025 68.4535 145.362 65.116 142.598 64.9652C142.017 64.4749 142.177 64.5692 142.117 64.5315C142.197 63.7584 142.237 63.7018 142.217 63.7207L142.177 63.6453L141.836 63.683L141.756 63.7961C142.097 64.7389 141.055 64.852 141.155 65.0217L140.174 65.4743C139.673 65.2292 139.793 65.0594 139.673 65.0406L139.072 64.8897C138.571 64.0035 139.132 63.4944 138.871 63.155C138.491 62.9664 138.33 63.0419 138.31 63.0042L138.23 62.8156L138.27 62.6836C138.471 62.5893 138.451 62.6459 138.471 62.627C138.711 62.4196 138.671 62.2688 138.691 62.3065C138.431 61.6654 138.471 61.4203 138.551 61.1374L138.27 61.326C138.25 61.9671 138.571 62.1556 138.471 62.1179C138.591 62.1934 138.531 62.1745 138.551 62.1745C138.551 62.3253 138.491 62.3065 138.491 62.3253C138.371 62.3253 138.391 62.3253 138.371 62.3253C138.09 62.5328 137.99 62.7402 137.99 62.8156C138.451 63.3624 138.791 63.3813 138.771 63.4755C138.431 64.4372 138.471 65.0217 138.411 65.0029H138.31C138.07 63.9281 137.79 63.5887 137.87 63.683H137.749C138.15 65.0972 138.03 64.6635 138.09 65.1537L137.95 65.4177C137.108 65.644 136.888 65.3611 136.808 65.4177C137.75 65.8514 137.749 65.7194 137.91 65.8891C136.067 66.945 133.663 65.7006 133.062 65.4177L133.022 65.3046C133.242 64.7955 133.362 64.9086 133.342 64.852L133.643 64.7955C131.679 61.8351 130.056 61.8917 129.956 59.9306H129.996L130.137 59.8364H130.177L130.137 59.7421C129.976 59.6289 129.996 59.6667 129.956 59.629C129.756 56.6309 130.718 56.612 129.856 55.4995L130.056 55.2544C131.96 56.1783 133.302 56.3669 133.743 56.6874C133.282 55.8201 132.701 55.7635 132.841 55.7446C133.683 55.3864 133.863 55.4995 134.063 55.5561L134.344 55.3864V55.2355C133.943 54.9715 133.863 55.0847 133.863 55.047L133.983 54.7264L134.224 54.519C134.764 54.4624 135.085 54.5567 135.065 54.519C134.444 54.1419 134.364 54.3493 134.244 54.3116C133.322 55.3864 130.858 55.3864 130.658 55.1601C129.435 53.5573 130.077 52.0489 130.357 51.4266L130.297 51.2758L130.437 51.0872H130.617C131.038 51.3135 130.878 51.3701 130.938 51.3701L130.878 51.0118C130.357 50.729 130.157 50.5781 130.157 50.5593C130.036 49.7296 130.277 49.9936 130.377 49.7485L130.337 49.673L130.197 49.6165L130.157 49.541C130.477 47.7874 131.098 47.1841 130.918 47.316C131.559 47.9006 131.499 48.372 131.559 48.4851C133.683 49.5976 133.001 49.1639 133.903 49.1828C133.823 49.0508 133.843 48.9942 133.843 48.9942C132.2 48.2777 131.92 48.636 131.779 48.372C130.417 45.7133 131.819 43.5449 133.342 41.9987C134.364 41.8855 135.245 41.2067 136.067 41.5839C136.728 41.2633 136.567 40.7542 136.748 40.7165C142.818 41.3199 148.267 42.5455 152.254 42.9603V42.8661C151.853 42.3758 151.974 42.3947 151.913 42.357L151.974 42.093C152.855 41.4896 153.336 41.433 153.216 41.433L153.176 41.3764Z" stroke="white" stroke-width="1.15034" stroke-linecap="round" stroke-linejoin="round"/>
<path d="M151.653 63.8526C151.733 64.2297 151.473 64.3429 151.513 64.3617C150.651 64.5126 150.611 64.9274 150.311 64.8897L150.09 64.7388C149.85 64.1354 150.09 63.9657 150.05 63.8149C150.371 63.5509 150.411 63.6452 150.431 63.5886L150.591 63.6452C151.032 63.4189 150.992 63.5886 151.012 63.5321C151.593 63.7018 151.493 63.7206 151.673 63.8337L151.653 63.8526Z" fill="#2D73B5"/>
<path d="M151.653 63.8526C151.733 64.2297 151.473 64.3429 151.513 64.3617C150.651 64.5126 150.611 64.9274 150.311 64.8897L150.09 64.7388C149.85 64.1354 150.09 63.9657 150.05 63.8149C150.371 63.5509 150.411 63.6452 150.431 63.5886L150.591 63.6452C151.032 63.4189 150.992 63.5886 151.012 63.5321C151.593 63.7018 151.493 63.7206 151.673 63.8337L151.653 63.8526Z" stroke="white" stroke-width="1.15034" stroke-linecap="round" stroke-linejoin="round"/>
<path d="M168.782 54.8582L169.023 54.9902C169.263 55.6879 169.283 55.5559 169.443 55.7633C169.103 56.2347 169.223 56.1027 169.103 56.2158C169.143 56.6307 169.103 56.5175 169.103 56.6495L168.862 56.8758C168.341 56.9512 168.161 57.0455 168.141 57.0644C167.801 56.8947 167.961 56.7061 167.921 56.6495L167.78 56.8569C167.079 56.3855 167.079 56.329 166.839 56.2913L166.779 56.197C167.44 55.6502 167.5 55.0279 167.48 55.0468L167.74 54.8959C168.542 54.7828 168.842 54.8959 168.782 54.8582Z" fill="#2D73B5"/>
<path d="M168.782 54.8582L169.023 54.9902C169.263 55.6879 169.283 55.5559 169.443 55.7633C169.103 56.2347 169.223 56.1027 169.103 56.2158C169.143 56.6307 169.103 56.5175 169.103 56.6495L168.862 56.8758C168.341 56.9512 168.161 57.0455 168.141 57.0644C167.801 56.8947 167.961 56.7061 167.921 56.6495L167.78 56.8569C167.079 56.3855 167.079 56.329 166.839 56.2913L166.779 56.197C167.44 55.6502 167.5 55.0279 167.48 55.0468L167.74 54.8959C168.542 54.7828 168.842 54.8959 168.782 54.8582Z" stroke="white" stroke-width="1.15034" stroke-linecap="round" stroke-linejoin="round"/>
<path d="M177.917 47.6175L177.998 47.4855L178.158 47.4289V47.2026L178.318 47.1272L178.619 47.2026C178.919 47.5986 178.739 47.6552 178.799 47.6552L179.059 47.7495L179.48 47.674C180.101 48.1454 179.68 48.6545 179.7 48.6923C179.901 49.2014 179.7 49.4088 179.7 49.5031C179.039 49.6539 178.879 49.5408 178.839 49.5973C178.939 48.994 178.519 48.4283 178.619 48.5226L178.058 48.3151C178.078 47.7683 177.837 47.5986 177.897 47.6363L177.917 47.6175Z" fill="#2D73B5"/>
<path d="M177.917 47.6175L177.998 47.4855L178.158 47.4289V47.2026L178.318 47.1272L178.619 47.2026C178.919 47.5986 178.739 47.6552 178.799 47.6552L179.059 47.7495L179.48 47.674C180.101 48.1454 179.68 48.6545 179.7 48.6923C179.901 49.2014 179.7 49.4088 179.7 49.5031C179.039 49.6539 178.879 49.5408 178.839 49.5973C178.939 48.994 178.519 48.4283 178.619 48.5226L178.058 48.3151C178.078 47.7683 177.837 47.5986 177.897 47.6363L177.917 47.6175Z" stroke="white" stroke-width="1.15034" stroke-linecap="round" stroke-linejoin="round"/>
<path d="M174.432 49.0882C174.672 48.9373 174.672 48.8242 174.672 48.8242L174.492 48.7299C174.552 48.4659 174.612 48.5225 174.632 48.4659C174.912 48.4093 174.872 48.4848 174.912 48.5036L174.952 48.579L175.153 48.5036C175.974 48.6356 175.814 48.9373 175.914 48.975C175.634 49.8235 174.512 49.8424 174.732 49.8801L174.692 49.6538C174.391 49.2201 174.472 49.239 174.391 49.0693L174.432 49.0882Z" fill="#2D73B5"/>
<path d="M174.432 49.0882C174.672 48.9373 174.672 48.8242 174.672 48.8242L174.492 48.7299C174.552 48.4659 174.612 48.5225 174.632 48.4659C174.912 48.4093 174.872 48.4848 174.912 48.5036L174.952 48.579L175.153 48.5036C175.974 48.6356 175.814 48.9373 175.914 48.975C175.634 49.8235 174.512 49.8424 174.732 49.8801L174.692 49.6538C174.391 49.2201 174.472 49.239 174.391 49.0693L174.432 49.0882Z" stroke="white" stroke-width="1.15034" stroke-linecap="round" stroke-linejoin="round"/>
<path d="M171.066 51.2188C171.727 51.7845 171.547 51.6525 171.687 51.9165H171.286V52.0485L171.667 52.2371C171.206 54.6695 170.205 54.2924 169.283 54.1981L169.143 54.0284C168.982 52.633 170.765 51.2565 171.066 51.2188Z" fill="#2D73B5"/>
<path d="M171.066 51.2188C171.727 51.7845 171.547 51.6525 171.687 51.9165H171.286V52.0485L171.667 52.2371C171.206 54.6695 170.205 54.2924 169.283 54.1981L169.143 54.0284C168.982 52.633 170.765 51.2565 171.066 51.2188V51.2188Z" stroke="white" stroke-width="1.15034" stroke-linecap="round" stroke-linejoin="round"/>
<path d="M114.13 56.6873C114.31 56.1405 114.29 56.2913 114.37 56.1593C115.752 56.065 116.173 54.7263 116.153 54.7263L115.813 54.1417C116.093 48.9941 118.617 48.0701 121.222 46.9388C120.701 47.6176 121.041 48.2964 120.581 48.7489H120.681C121.162 48.2587 121.202 48.221 121.222 48.1456C121.182 47.7119 121.081 47.7496 121.122 47.6553L121.322 47.5422V47.8439H121.442V47.5422C121.702 47.8439 121.903 47.8061 121.963 47.8439C121.462 47.2405 121.602 47.3913 121.502 47.0519C121.602 46.8634 121.662 46.8256 121.642 46.7879C123.065 46.8634 122.784 47.0519 122.945 47.0331C123.485 47.7307 123.465 48.089 123.486 48.0136C124.087 48.3153 124.107 48.2021 124.127 48.2398L124.307 48.485C122.684 52.1053 122.965 53.3686 122.183 54.3114L121.803 53.8777L121.462 53.9909C119.719 57.4604 118.096 57.9506 116.113 59.082C116.013 59.3837 116.033 59.3648 116.013 59.3837C114.49 60.5527 113.148 60.7602 112.587 61.0053C111.645 61.0618 111.666 60.0059 111.605 60.1002C112.507 58.3277 113.348 56.7627 114.09 56.6496L114.13 56.6873Z" fill="#2D73B5"/>
<path d="M114.13 56.6873C114.31 56.1405 114.29 56.2913 114.37 56.1593C115.752 56.065 116.173 54.7263 116.153 54.7263L115.813 54.1417C116.093 48.9941 118.617 48.0701 121.222 46.9388C120.701 47.6176 121.041 48.2964 120.581 48.7489H120.681C121.162 48.2587 121.202 48.221 121.222 48.1456C121.182 47.7119 121.081 47.7496 121.122 47.6553L121.322 47.5422V47.8439H121.442V47.5422C121.702 47.8439 121.903 47.8061 121.963 47.8439C121.462 47.2405 121.602 47.3913 121.502 47.0519C121.602 46.8634 121.662 46.8256 121.642 46.7879C123.065 46.8634 122.784 47.0519 122.945 47.0331C123.485 47.7307 123.465 48.089 123.486 48.0136C124.087 48.3153 124.107 48.2021 124.127 48.2398L124.307 48.485C122.684 52.1053 122.965 53.3686 122.183 54.3114L121.803 53.8777L121.462 53.9909C119.719 57.4604 118.096 57.9506 116.113 59.082C116.013 59.3837 116.033 59.3648 116.013 59.3837C114.49 60.5527 113.148 60.7601 112.587 61.0053C111.645 61.0618 111.666 60.0059 111.605 60.1002C112.507 58.3277 113.348 56.7627 114.09 56.6496L114.13 56.6873Z" stroke="white" stroke-width="1.15034" stroke-linecap="round" stroke-linejoin="round"/>
<path d="M139.052 35.4557C139.813 34.0038 140.895 34.1735 141.055 34.0792L141.156 34.3432L141.095 34.5694L140.835 34.758C139.212 35.6442 139.172 35.3237 139.052 35.4557Z" fill="#2D73B5"/>
<path d="M139.052 35.4557C139.813 34.0038 140.895 34.1735 141.055 34.0792L141.156 34.3432L141.095 34.5694L140.835 34.758C139.212 35.6442 139.172 35.3237 139.052 35.4557V35.4557Z" stroke="white" stroke-width="1.15034" stroke-linecap="round" stroke-linejoin="round"/>
<path d="M125.669 49.0885H125.789C126.05 49.2017 125.99 49.164 126.11 49.164C127.332 47.9383 128.594 47.5046 128.935 47.4481C128.554 48.0892 128.674 47.9006 128.614 48.1646H128.714L129.235 47.3538C129.816 48.24 129.636 49.2771 129.536 49.4468C127.532 50.1822 126.21 50.6159 125.228 51.3135H125.128C124.527 50.0879 125.549 49.5411 125.669 49.0885Z" fill="#2D73B5"/>
<path d="M125.669 49.0885H125.789C126.05 49.2017 125.99 49.164 126.11 49.164C127.332 47.9383 128.594 47.5046 128.935 47.4481C128.554 48.0892 128.674 47.9006 128.614 48.1646H128.714L129.235 47.3538C129.816 48.24 129.636 49.2771 129.536 49.4468C127.532 50.1822 126.21 50.6159 125.228 51.3135H125.128C124.527 50.0879 125.549 49.5411 125.669 49.0885V49.0885Z" stroke="white" stroke-width="1.15034" stroke-linecap="round" stroke-linejoin="round"/>
<path d="M204.262 56.7816L204.422 56.989C203.16 57.3473 203.641 57.4415 203.461 57.9506C203.32 58.1203 203.16 58.1769 203.18 58.1958L203.12 58.3655L203.22 58.5729C203.781 58.9312 203.621 58.8369 203.781 59.0254L203.721 59.3271L203.24 59.6854C202.98 60.6093 202.559 60.9299 202.579 61.0619C202.8 62.2686 202.76 61.9669 202.92 62.3818C202.259 62.7966 202.719 64.1354 202.519 64.0411L202.299 64.1354C202.179 64.4182 202.158 64.5125 202.158 64.4936C201.057 64.9085 201.057 64.5879 200.776 64.7199C200.716 65.7193 200.997 65.6627 200.936 65.757C202.098 65.5873 202.058 65.6061 202.339 65.8135C202.579 68.3025 201.257 71.5269 200.175 71.9794H200.275C199.875 72.3754 199.875 72.3754 199.794 72.3943C199.294 72.2811 199.354 72.2057 199.234 72.2057L198.993 72.3V72.3943L199.274 72.6017C199.193 73.3936 199.093 73.1862 199.113 73.2805L199.173 73.5068C198.512 74.1479 198.713 73.9404 198.572 74.2233V74.2798C198.973 74.261 199.153 74.0913 199.173 74.0536H199.274C199.474 74.5815 198.933 74.6193 198.873 74.7701C199.133 76.4106 199.013 76.75 198.052 76.7688C197.811 76.9385 197.911 77.1271 197.871 77.1082L197.931 77.1648C197.651 78.5413 196.589 78.0322 196.289 78.5224H196.188L196.028 78.3904C195.367 79.4841 195.107 79.3898 195.167 79.6161L195.928 80.6343L196.148 80.54C196.269 80.8794 196.208 81.0303 196.249 81.0303C196.509 81.1622 196.609 81.1245 196.629 81.1622L196.689 81.2942L196.609 81.2565C196.068 81.4074 196.008 81.5959 195.868 81.7091C195.828 81.9919 195.968 82.0485 195.928 82.0485L195.507 81.8976C195.507 83.7644 195.848 83.1798 195.547 83.6512H195.447C195.066 85.6877 194.766 85.1974 194.646 85.7065C194.526 85.4802 194.465 85.5557 194.465 85.518C194.205 85.518 194.225 85.6122 194.205 85.5934H194.325L194.105 85.7065V85.8008L194.385 85.8385C194.205 86.3853 193.945 86.2911 193.985 86.3476L193.664 86.4042C193.504 86.6682 193.584 86.6682 193.544 86.687L193.604 86.7813L193.764 86.819C193.664 87.0076 193.664 86.9699 193.624 87.0076C193.464 87.0076 193.484 87.0453 193.424 87.0641C193.444 87.2904 193.424 87.3093 193.424 87.347C192.622 87.6487 192.883 88.1955 192.662 88.3652C191.861 88.3464 191.26 88.9309 191.1 89.1383H191.02C190.899 89.4023 190.699 89.4023 190.739 89.4023C190.579 89.9302 190.759 89.968 190.799 90.0811C190.539 90.5713 190.619 90.4582 190.539 90.6468L190.579 90.7788L190.379 90.8165C190.379 91.1182 190.379 91.269 190.379 91.269C190.038 91.4387 189.938 91.4764 189.918 91.5141V91.6838C189.517 91.7781 189.557 91.7593 189.517 91.7781L189.417 91.9101C189.417 92.1175 189.417 92.2495 189.417 92.2495C189.537 92.3627 189.477 92.3438 189.497 92.3626C189.377 92.5889 189.337 92.5701 189.297 92.6078H189.277C189.697 95.8321 187.093 98.076 185.691 99.0942L185.53 99.0188C185.15 99.2262 185.31 99.5279 185.27 99.509C184.949 99.3393 185.05 99.377 184.949 99.3016C184.429 99.9427 184.649 100.282 184.629 100.433H184.408L184.589 100.754C183.267 102.941 179.68 108.824 178.258 107.089C177.757 107.202 177.357 107.278 177.196 107.165C172.829 110.427 165.837 115.48 162.291 118.384C164.174 118.648 164.595 119.251 165.256 119.289C167.079 118.855 167.921 118.949 168.081 119.006C169.543 121.325 169.263 120.929 170.725 121.156C171.186 121.985 171.987 122.287 171.787 122.758C170.986 124.286 169.924 123.626 169.483 123.965C168.662 125.851 170.685 126.228 170.525 126.737L170.445 127.039C168.862 127.567 169.143 127.284 168.782 127.661C168.582 128.302 168.862 128.34 168.782 128.359C169.263 128.623 169.263 128.509 169.283 128.547L169.563 128.83V129.471C168.081 130.263 167.36 130.093 167.52 130.169C166.658 132.431 168.221 132.299 168.061 133.374L167.901 133.412C165.296 132.337 165.296 134.619 164.475 134.487C163.934 135.505 163.493 135.807 163.513 136.071L163.633 136.127C164.575 138.352 160.829 138.446 160.688 139.031C156.081 139.88 156.441 140.954 154.839 141.784C157.022 149.081 148.007 152.136 155.62 154.776L155.68 154.889C155.46 159.98 152.374 164.882 150.712 167.051L150.291 167.862L150.411 168.05C145.362 173.104 140.695 177.384 139.833 183.606C139.032 184.153 138.952 185.454 138.711 185.416C114.41 184.229 65.1068 181.551 40.2648 179.76L40.1647 179.892C30.5284 176.121 18.3478 167.918 21.6133 161.243C1.63956 119.873 2.76145 164.373 41.547 73.7519C40.4051 72.9222 42.8692 72.4885 42.6288 72.2811V72.2245C41.3266 72.564 41.8675 72.4131 41.2866 72.7714C39.5236 72.2623 39.2431 70.3578 37.6404 71.9983C34.3749 70.339 31.3498 65.7004 27.8038 65.1725C27.7236 64.7388 27.8038 64.6445 27.8038 64.6445L27.7437 64.5314C22.1943 64.3994 17.5665 59.9305 13.8802 57.4415C8.45106 53.2744 2.68131 47.5422 4.40423 45.7697C-0.123427 40.4901 2.64124 26.2162 0.577751 19.7674C2.22053 21.9547 3.74311 21.9924 4.90507 20.2388C7.46941 20.352 6.50778 20.4463 7.12883 20.1446C7.30914 20.22 7.32916 20.2954 7.34919 20.2954V20.3331C7.62967 20.4274 7.56957 20.4463 7.5896 20.4463H7.7098C9.13221 18.9189 7.7098 18.5418 7.78994 17.9007C8.03035 17.6179 7.95022 17.7122 8.03035 17.6179C9.57296 17.4105 9.19231 17.4293 9.81336 17.1276C9.75326 16.5997 9.7132 16.5808 9.75326 16.5242C10.6548 16.2037 10.4745 15.6757 10.8551 15.4872L10.9152 15.5249C11.5363 16.4865 12.538 16.0906 12.9587 15.9963C13.6198 16.2603 13.3794 16.6939 13.5597 16.7128C14.902 17.0899 15.4228 16.6751 15.483 16.7505C16.4646 15.7889 16.0239 15.2232 16.0639 14.7706L16.1641 14.6575C27.3831 14.4689 24.0575 8.69904 27.9641 10.3584C29.6669 9.30243 29.4265 9.56641 30.0876 9.28357L30.5684 9.64183C30.7688 11.32 32.5117 10.6978 32.9725 10.8109C34.9759 12.4514 35.7572 10.4526 36.7389 10.9052C37.6204 10.1132 38.1012 10.9052 38.4618 10.9995C39.3633 10.7732 40.0044 10.3772 39.9243 10.4715C43.0896 10.792 47.4169 12.9039 48.7792 11.2823C49.6006 8.4162 47.0162 7.71853 46.6957 6.28549C46.1347 5.66324 45.2933 6.04036 45.4135 5.92722L45.2332 5.81409C45.4135 4.85244 45.8342 4.58845 45.9144 4.4376L46.1147 4.3999C48.8994 0.19503 53.0264 4.72044 57.514 3.06113C57.7344 2.00519 58.3754 1.79778 58.8362 2.0052L59.0165 2.21261H59.3771L60.6393 1.32638L61.1802 1.28867L61.2603 1.42066L61.2002 1.7035L61.3204 1.81664C62.843 1.34524 63.4039 0.459012 64.005 0.591003L64.0851 0.741851C63.8647 1.19439 63.6243 1.21325 63.6844 1.2321L63.6243 1.43952C65.5075 3.47595 65.3472 2.92913 65.8481 3.19312C66.8498 2.92913 66.5693 2.9857 66.8898 2.83486C68.192 3.79651 67.571 5.55011 67.8314 5.66324C67.1703 6.64375 67.5109 6.90773 66.9099 6.90773C66.5092 8.11451 67.6912 8.54819 66.5493 9.39671L66.5893 9.45327C67.9717 16.1848 68.0718 11.32 71.3173 13.3376C71.9985 13.1302 72.6596 13.1113 73.1404 13.281C73.8416 12.885 74.5829 13.941 75.0436 13.9975C75.3642 14.3181 76.0253 14.6764 76.0854 14.7706H76.1655L76.2256 14.6198C77.0871 14.7706 76.8667 15.5249 77.5078 15.3552L77.5479 15.3929C77.4677 15.5437 77.3676 15.6757 77.3876 15.7134C77.5679 16.1848 77.8283 16.2037 77.8484 16.3922C77.9686 17.4482 79.8317 16.3922 80.3526 17.5047L80.3927 17.5425C80.4127 17.7122 80.3927 17.8064 80.4127 17.8064C80.7733 18.0139 80.9336 18.0704 80.9536 18.2024V18.3721L80.9736 18.4098C81.4544 18.4475 81.3743 18.4098 81.4344 18.4475L81.4745 18.5041C81.4745 18.655 81.4344 18.6361 81.4344 18.6361L81.4745 18.6738C81.9353 18.6927 81.8551 18.6738 81.9152 18.6738L81.9753 18.6361V18.5795C81.9353 18.4098 81.9152 18.3155 81.9353 18.2967L81.9954 18.259C83.3777 18.9001 82.9971 18.0893 83.6782 17.9573L83.7183 18.0139C83.6582 18.1458 83.578 18.1647 83.5981 18.1647C84.0188 18.5984 84.2392 18.0516 84.4996 18.0704C84.74 18.4098 84.3794 18.9566 84.74 19.0321C85.3611 18.7115 85.8819 19.0321 86.2426 18.9944C86.1224 19.692 86.503 20.2011 86.3828 20.748L86.4429 20.8045C90.2493 19.5223 86.8436 23.8403 88.4463 25.2734C95.0775 29.12 93.1342 36.4926 96.3597 42.0363C101.709 42.8659 102.009 48.8621 102.65 52.143C106.357 51.2568 104.233 53.3687 104.914 54.4623C106.116 56.7062 109.642 55.7068 109.742 57.2153C110.003 56.3102 110.744 56.6119 111.085 56.0839L111.145 56.0462C111.485 56.1593 111.485 56.2725 111.585 56.2536C111.806 56.0085 112.267 56.2536 112.327 56.2913C111.946 56.5742 111.966 56.6307 111.946 56.6119C112.787 62.6269 101.128 58.3843 99.6252 62.8532C102.59 62.0989 105.134 62.6458 106.417 61.6464C107.999 62.4761 106.477 63.6451 106.717 64.2674L106.897 64.3805C107.458 64.0977 107.338 64.2674 107.599 64.1919C111.465 61.7218 117.876 60.4962 120.32 57.7055C121.162 57.3284 121.542 57.4604 121.462 57.4038V57.4981C121.162 57.5924 121.182 57.7809 121.142 57.7998C123.145 56.5176 125.709 54.6886 126.771 53.8024C126.531 53.2367 126.471 53.1235 126.471 53.0481L126.671 52.8407L126.991 52.803L127.292 53.2367L127.633 53.331V53.2178L127.452 53.1235L127.352 52.9538V52.7653L127.512 52.6144C128.875 52.6898 128.754 52.671 129.135 52.671L129.335 52.8218C129.876 54.8206 128.374 55.8576 127.292 55.8765C131.739 57.7809 128.013 58.4786 129.676 59.9117C129.416 61.9481 132.3 63.3057 132.06 64.8896L131.759 65.2856H131.499L130.758 64.8896C131.118 65.5307 131.199 65.5873 131.199 65.6816L131.078 66.153C130.237 66.5112 130.537 66.4735 130.437 66.4924C130.117 67.0958 130.377 66.9826 130.297 67.0392L129.976 67.2655H129.536C128.774 66.7752 128.594 66.6244 128.514 66.5866C128.274 67.0015 128.354 66.9449 128.314 66.9826L128.514 67.0392L128.654 67.322L128.915 67.4163C128.875 68.2271 129.135 68.0197 129.055 68.114C129.536 68.378 129.416 68.2837 129.456 68.3214C129.375 67.718 129.335 67.8311 129.335 67.7557L129.456 67.6614C131.058 67.7368 130.878 67.5294 131.299 67.4352C131.439 66.7941 131.299 66.7186 131.359 66.6244C131.78 66.2472 131.86 65.9267 131.84 65.9455L131.96 65.8701C132.701 66.1152 132.681 65.9832 132.741 66.0398C133.763 67.7934 133.963 67.6614 135.025 67.718L135.085 67.8877C134.765 68.3968 134.765 68.3779 134.745 68.4534L134.965 68.3402L135.185 67.9631L135.406 67.85C135.506 68.2837 135.165 68.4345 135.185 68.5665C135.586 69.3962 135.566 69.7733 135.846 69.8864C135.987 69.0568 136.207 69.2642 136.367 69.0568C136.508 68.6985 136.528 68.4534 136.528 68.4157C137.169 67.5106 137.93 67.2466 137.99 67.2277L138.451 67.3409C139.312 67.0392 139.753 67.5671 139.873 67.5483C141.316 64.6068 145.723 67.0015 144.1 68.246C144.842 67.5294 144.521 67.718 144.641 67.6426C145.222 68.7362 144.14 69.811 144.2 70.075H144.301L144.621 69.4527H144.721C144.942 70.1504 145.282 70.2635 145.362 70.3767C144.581 68.3214 145.162 67.7368 144.822 67.322L145.002 67.3786C145.142 67.85 145.002 68.0763 145.042 68.0197C145.322 67.3032 145.242 67.454 145.383 67.3032C146.484 66.9638 146.424 67.6049 146.745 67.718L146.685 67.454L146.785 67.3597L146.945 67.4163L147.065 67.6237L147.206 67.3974C148.588 67.6614 148.768 68.6042 148.808 68.9436L149.029 68.6796C148.528 67.6237 148.047 67.3974 148.167 67.4163L147.967 67.5106C147.907 67.2655 147.827 67.2089 147.847 67.2089C148.668 66.1341 149.209 66.4358 149.289 66.3227L149.69 66.6998C149.91 65.3422 150.05 65.6627 150.511 65.2667H150.812L150.952 65.493L150.872 65.889C151.353 65.5496 151.473 65.493 151.513 65.493C150.151 66.8506 151.753 67.1146 152.194 67.2277L152.334 67.3597C152.515 68.114 152.054 68.3402 151.954 68.5288V68.6419H152.154C150.932 69.943 151.573 71.1498 151.132 71.4892C149.329 73.1108 149.69 77.3722 148.408 77.8625C147.446 77.9567 147.406 78.5979 147.266 78.6544C148.949 78.975 150.03 77.8436 149.81 78.051C149.81 77.2025 150.251 77.1459 150.511 76.9951C152.294 73.3371 153.296 68.7551 155.62 66.926C156.201 66.153 156.141 65.3233 156.201 65.3233C158.224 64.5502 158.244 63.1549 158.685 62.8343C160.087 62.6646 159.867 62.4383 160.288 62.2498H160.428V62.3441C159.947 62.8909 159.907 62.74 159.867 62.8155C159.767 63.532 159.506 63.928 159.567 63.928C159.086 64.2297 159.206 64.1919 159.026 64.3994C159.286 65.1725 158.605 65.5307 158.665 65.6061C157.884 65.757 158.084 65.9455 157.984 65.9267L157.884 66.2284L157.663 66.3981V66.5112C158.344 66.6621 158.384 66.0021 158.445 66.021C159.366 65.6816 159.206 65.6438 159.286 65.6438C159.647 64.9839 159.526 65.0405 159.587 64.965C159.967 64.6445 159.927 64.6445 160.047 64.5502C159.867 64.1731 159.927 64.2862 159.907 64.1542C160.528 63.8337 160.528 63.7771 160.628 63.4943C160.769 63.4943 160.748 63.5131 160.769 63.5131C161.069 63.4377 161.049 63.4943 161.109 63.4566L161.149 63.4C162.672 60.7979 162.351 61.8727 162.371 61.4013L162.411 61.3258C163.273 61.1373 163.533 59.4214 163.613 59.6854L163.854 59.7231C164.715 61.3447 165.176 61.9104 165.557 62.6269H165.737C166.498 63.7394 167.039 62.9474 167.239 63.8148L167.34 63.5697C167.38 62.7212 166.378 61.8538 166.438 61.9481L166.358 61.5898C167.72 62.2121 168.622 61.2127 168.842 60.9864C167.84 60.9864 167.961 60.9864 167.54 60.779C166.939 61.307 166.198 60.8544 166.118 60.8544L166.017 60.6659C166.158 58.3278 166.518 57.8752 167.079 57.2718L167.28 57.4792C167.079 58.6106 167.32 58.3089 167.239 58.4409C168.341 58.7426 168.702 58.7049 168.602 58.7237L168.682 58.686C168.842 57.3284 169.243 56.593 169.523 56.5176L170.024 56.8381C169.764 56.329 169.623 56.3668 169.603 56.2536L169.704 56.0273L169.583 55.9331L169.704 55.8199L169.884 55.8953C170.265 55.7634 170.445 55.7068 170.445 55.7068C170.024 55.5182 169.563 55.7822 169.623 55.7068C169.183 54.9714 169.343 54.8771 169.283 54.8583L169.343 54.6886C170.946 54.5566 170.886 54.6509 171.066 53.8778C171.246 53.7081 171.366 53.4629 171.407 53.4629C171.487 52.6333 171.527 52.8973 171.507 52.803C171.667 52.7087 171.707 52.6144 171.727 52.5956C171.567 51.7282 171.867 51.6716 171.407 51.3322C171.787 49.6918 173.71 48.9752 173.35 49.0507C173.931 49.5221 173.53 49.7295 173.57 49.9557C174.031 50.2574 174.311 50.8797 174.532 50.8231L174.792 50.2197L175.874 49.5786L176.054 49.2392C176.856 49.1638 177.016 49.5409 177.056 49.4843C176.916 49.0695 176.695 49.1449 176.736 49.1072C176.555 47.957 176.876 48.0702 176.936 47.6365C177.757 48.2021 177.497 48.4661 177.557 48.6924L177.917 48.6358L178.258 48.7867C178.579 49.5598 178.318 49.8426 178.398 49.8049C178.118 50.2009 177.958 50.2386 177.958 50.2952L178.078 50.4649C180.602 49.6918 179.901 49.5786 180.422 48.749L180.582 48.6547C180.241 47.9759 180.582 47.7873 180.482 47.8062C180.983 47.9759 181.243 48.353 181.203 48.2776L181.123 48.5227C181.584 49.2769 182.265 50.182 181.864 50.5591C183.287 50.5591 182.846 50.5026 183.267 50.6534L183.307 51.106L183.507 51.2757C183.467 50.842 183.707 50.7288 183.727 50.6534C183.467 50.5403 183.527 50.314 183.507 50.2952C182.585 49.7672 182.826 49.5221 182.625 49.5409C182.565 49.9557 182.365 49.9935 182.305 50.05C182.305 48.1644 182.185 48.6547 182.365 48.2587L182.625 48.221L182.405 48.0136C182.946 47.7119 183.086 47.8816 183.166 47.8439L183.387 48.0136C183.206 48.2964 183.206 48.2964 183.166 48.3341C183.206 49.1261 183.206 49.2769 183.267 49.3335C183.186 48.9564 183.347 48.9564 183.347 48.8998L183.487 48.8432C183.547 49.2958 183.687 49.2392 183.727 49.3146H183.928V49.2581C183.567 49.0507 183.727 48.7867 183.687 48.8055L183.807 48.6358L184.028 48.5981C184.509 48.8055 184.589 48.9941 184.569 48.9564C184.529 48.4473 184.208 48.3907 184.248 48.2587L184.509 48.353C184.929 48.1456 184.989 48.0513 185.05 48.0513L185.29 48.1456C185.33 48.6735 185.29 48.8244 185.33 48.8621H185.43L185.611 48.749L185.731 48.8432C185.791 49.2769 185.611 49.2392 185.651 49.2769L185.911 49.1072C186.091 48.6547 185.791 48.485 185.851 48.4473L186.552 48.9187L186.612 49.1072L186.532 49.2958L186.392 49.3712L186.292 49.1827H186.191C186.131 49.5786 185.791 49.5409 185.771 49.5786V49.6729L185.971 49.8803H186.071L186.171 49.6729C186.712 49.5409 186.913 49.8426 186.933 49.786C186.873 49.4278 187.113 49.4466 187.133 49.3712C187.574 50.2197 186.752 50.3517 186.612 50.5403L186.672 50.6723C186.993 50.6723 187.013 50.4649 187.053 50.4837C187.534 50.6911 187.414 51.0494 187.494 51.106C187.674 50.4837 187.414 50.3329 187.494 50.2574L187.714 50.1066C187.774 50.3517 187.834 50.3517 187.814 50.4083L187.874 50.2763C187.714 49.8238 188.175 49.2769 188.135 49.1449L188.295 49.0884L188.455 49.1449C188.656 49.4655 188.395 49.5598 188.455 49.5975H188.495L188.515 49.6163V49.6918L188.395 49.786C188.435 50.2763 188.355 50.2197 188.315 50.3894L188.415 50.4837L188.515 50.2763C188.696 50.8231 188.636 50.8608 188.696 50.9551H188.956C188.596 51.3511 188.475 51.3134 188.475 51.3322L188.395 51.5019C188.596 52.0299 188.756 52.0487 188.736 52.1053C188.876 51.0305 188.876 51.2757 189.177 50.8985C189.337 50.9928 189.417 50.9928 189.397 50.9928C189.397 50.5968 189.397 50.6723 189.397 50.5214C189.657 50.4271 189.778 50.5214 189.758 50.4837C190.158 50.0689 190.098 49.4655 190.138 49.5786L190.338 49.786C190.338 50.6723 190.078 50.9363 190.138 50.8985H190.258L190.359 50.6911C190.599 50.8043 190.519 50.8608 190.559 50.8608C190.559 51.106 190.459 51.0871 190.479 51.106H190.779C190.579 51.4642 190.599 51.4831 190.579 51.5019C190.759 51.4454 190.719 51.4454 190.779 51.4076L190.879 51.6339C190.379 51.8979 190.158 52.1242 190.158 52.2939L190.218 52.5013L190.499 52.6144C190.419 52.0676 190.439 52.1619 190.479 52.0299L190.719 51.9168C191.18 52.0676 191.08 51.9922 191.24 51.9733V51.7093L191.36 51.8225C191.4 51.0871 191.34 50.842 191.36 50.9174C191.721 51.0494 191.641 51.2757 191.681 51.3134H191.801C191.881 51.0682 192.122 51.1437 192.122 51.106C191.981 50.8043 191.721 50.842 191.681 50.8043C192.442 50.0123 192.382 50.0123 192.542 49.9935V49.8992L192.342 49.8049C192.843 49.8238 192.823 50.182 192.883 50.2009L192.703 50.2386L192.662 50.3329C192.803 50.6157 192.903 50.578 192.883 50.5968C192.582 50.71 192.662 50.6723 192.542 50.6911V50.8043L192.642 50.8985V50.9928C192.382 51.1625 192.342 51.0871 192.342 51.106V51.2002L192.502 51.2379L192.562 51.3322C192.522 51.6151 192.442 51.5962 192.462 51.6151C192.943 51.5774 192.863 51.2379 192.903 51.2002H193.003L192.883 52.011V52.0487C192.983 52.5013 193.163 52.6144 193.123 52.6144L193.183 52.3882C193.003 51.9922 193.083 52.0865 193.063 52.0487L193.223 51.8225H193.324V52.1242L193.484 52.0487C193.644 51.5962 193.504 51.3699 193.544 51.4265C194.305 52.1996 194.125 52.2184 194.185 52.2939C193.905 53.1047 193.524 53.3121 193.644 53.2555C194.465 52.4636 194.305 52.3504 194.465 52.3316C194.365 51.6905 194.646 51.5396 194.606 51.5208L194.946 51.6339C195.187 52.011 195.026 51.9922 195.107 52.0865L195.327 52.1242L195.487 52.0676C195.247 51.4454 195.046 51.3134 195.107 51.3322V51.1437C195.728 51.1437 195.768 51.3699 195.788 51.3134L196.028 52.1053C195.547 52.6898 195.688 52.5013 195.587 52.7276H195.708L195.828 52.6521L195.868 52.7653C195.808 53.3309 195.307 53.2367 195.267 53.2744L195.107 53.1801L195.046 52.935H194.926C194.125 53.8966 193.564 53.7835 193.624 54.3492C194.085 53.6138 194.566 53.6138 194.706 53.5384C195.487 53.7081 195.848 53.3875 195.908 53.4441L196.289 53.6515L196.549 53.3687L196.609 53.0293C197.29 52.539 197.511 52.4824 197.531 52.3693L197.771 52.2939L197.971 52.3693C198.412 52.0865 198.753 52.1996 198.733 52.143L198.913 52.3316L198.833 52.539C198.172 52.7653 197.911 52.8596 197.891 52.9161L198.011 53.1612L197.951 53.4064L197.751 53.5761V53.7458L198.032 53.8966C197.931 54.4623 197.891 54.368 197.891 54.4246H198.112L198.172 54.5566L197.971 54.764C198.372 54.8017 198.432 54.632 198.452 54.6509C198.512 54.4623 198.552 54.5 198.592 54.4435C198.993 54.632 198.953 54.6509 199.053 54.6697C199.554 54.2737 199.314 54.236 199.414 54.236H199.714C199.614 54.896 199.794 55.0845 199.855 55.1977C199.935 54.632 200.115 54.4623 200.195 54.4057H200.375C200.656 55.424 200.295 55.292 200.335 55.6691C201.037 55.292 200.676 54.5377 200.776 54.5566H200.876C201.417 55.3297 201.517 55.3485 201.537 55.4805C201.137 54.6886 201.137 54.8206 200.976 54.5377V54.4246L201.277 54.3492C200.976 54.0475 201.037 54.104 200.997 54.0663C201.137 53.1612 202.098 52.671 202.279 52.7464L202.739 52.935L202.699 53.4629C202.479 53.4629 202.439 53.5195 202.439 53.5007C201.918 54.104 202.038 54.1418 201.938 54.2737L202.179 54.1983L202.299 54.2549L202.259 54.368L202.038 54.4623C202.078 54.5943 202.138 54.6697 202.158 54.6697C201.978 54.896 201.978 54.9526 201.938 54.9714L202.098 55.1977L201.297 56.8004C201.918 56.1405 201.698 56.3479 201.938 56.1782C202.379 56.2536 202.519 56.3856 202.559 56.3479L202.8 56.2725C203 55.8576 203.02 55.8953 203.1 55.7634H203.22C203.22 56.593 203.06 56.593 203.12 56.6873C203.821 55.7822 203.2 55.3674 203.821 55.16L203.942 55.1977C204.202 55.7634 204.462 56.2913 204.402 56.2536C204.062 56.4987 204.102 56.4422 204.082 56.461C203.761 56.989 204.002 56.9324 203.921 56.9701L204.262 56.7816Z" fill="#2D73B5"/>
<path d="M204.262 56.7816L204.422 56.989C203.16 57.3473 203.641 57.4415 203.461 57.9506C203.32 58.1203 203.16 58.1769 203.18 58.1958L203.12 58.3655L203.22 58.5729C203.781 58.9312 203.621 58.8369 203.781 59.0254L203.721 59.3271L203.24 59.6854C202.98 60.6093 202.559 60.9299 202.579 61.0619C202.8 62.2686 202.76 61.9669 202.92 62.3818C202.259 62.7966 202.719 64.1354 202.519 64.0411L202.299 64.1354C202.179 64.4182 202.158 64.5125 202.158 64.4936C201.057 64.9085 201.057 64.5879 200.776 64.7199C200.716 65.7193 200.997 65.6627 200.936 65.757C202.098 65.5873 202.058 65.6061 202.339 65.8135C202.579 68.3025 201.257 71.5269 200.175 71.9794H200.275C199.875 72.3754 199.875 72.3754 199.794 72.3943C199.294 72.2811 199.354 72.2057 199.234 72.2057L198.993 72.3V72.3943L199.274 72.6017C199.193 73.3936 199.093 73.1862 199.113 73.2805L199.173 73.5068C198.512 74.1479 198.713 73.9404 198.572 74.2233V74.2798C198.973 74.261 199.153 74.0913 199.173 74.0536H199.274C199.474 74.5815 198.933 74.6193 198.873 74.7701C199.133 76.4106 199.013 76.75 198.052 76.7688C197.811 76.9385 197.911 77.1271 197.871 77.1082L197.931 77.1648C197.651 78.5413 196.589 78.0322 196.289 78.5224H196.188L196.028 78.3904C195.367 79.4841 195.107 79.3898 195.167 79.6161L195.928 80.6343L196.148 80.54C196.269 80.8794 196.208 81.0303 196.249 81.0303C196.509 81.1622 196.609 81.1245 196.629 81.1622L196.689 81.2942L196.609 81.2565C196.068 81.4074 196.008 81.5959 195.868 81.7091C195.828 81.9919 195.968 82.0485 195.928 82.0485L195.507 81.8976C195.507 83.7644 195.848 83.1798 195.547 83.6512H195.447C195.066 85.6877 194.766 85.1974 194.646 85.7065C194.526 85.4802 194.465 85.5557 194.465 85.518C194.205 85.518 194.225 85.6122 194.205 85.5934H194.325L194.105 85.7065V85.8008L194.385 85.8385C194.205 86.3853 193.945 86.2911 193.985 86.3476L193.664 86.4042C193.504 86.6682 193.584 86.6682 193.544 86.687L193.604 86.7813L193.764 86.819C193.664 87.0076 193.664 86.9699 193.624 87.0076C193.464 87.0076 193.484 87.0453 193.424 87.0641C193.444 87.2904 193.424 87.3093 193.424 87.347C192.622 87.6487 192.883 88.1955 192.662 88.3652C191.861 88.3464 191.26 88.9309 191.1 89.1383H191.02C190.899 89.4023 190.699 89.4023 190.739 89.4023C190.579 89.9302 190.759 89.968 190.799 90.0811C190.539 90.5713 190.619 90.4582 190.539 90.6468L190.579 90.7788L190.379 90.8165C190.379 91.1182 190.379 91.269 190.379 91.269C190.038 91.4387 189.938 91.4764 189.918 91.5141V91.6838C189.517 91.7781 189.557 91.7593 189.517 91.7781L189.417 91.9101C189.417 92.1175 189.417 92.2495 189.417 92.2495C189.537 92.3627 189.477 92.3438 189.497 92.3626C189.377 92.5889 189.337 92.5701 189.297 92.6078H189.277C189.697 95.8321 187.093 98.076 185.691 99.0942L185.53 99.0188C185.15 99.2262 185.31 99.5279 185.27 99.509C184.949 99.3393 185.05 99.377 184.949 99.3016C184.429 99.9427 184.649 100.282 184.629 100.433H184.408L184.589 100.754C183.267 102.941 179.68 108.824 178.258 107.089C177.757 107.202 177.357 107.278 177.196 107.165C172.829 110.427 165.837 115.48 162.291 118.384C164.174 118.648 164.595 119.251 165.256 119.289C167.079 118.855 167.921 118.949 168.081 119.006C169.543 121.325 169.263 120.929 170.725 121.156C171.186 121.985 171.987 122.287 171.787 122.758C170.986 124.286 169.924 123.626 169.483 123.965C168.662 125.851 170.685 126.228 170.525 126.737L170.445 127.039C168.862 127.567 169.143 127.284 168.782 127.661C168.582 128.302 168.862 128.34 168.782 128.359C169.263 128.623 169.263 128.509 169.283 128.547L169.563 128.83V129.471C168.081 130.263 167.36 130.093 167.52 130.169C166.658 132.431 168.221 132.299 168.061 133.374L167.901 133.412C165.296 132.337 165.296 134.619 164.475 134.487C163.934 135.505 163.493 135.807 163.513 136.071L163.633 136.127C164.575 138.352 160.829 138.446 160.688 139.031C156.081 139.88 156.441 140.954 154.839 141.784C157.022 149.081 148.007 152.136 155.62 154.776L155.68 154.889C155.46 159.98 152.374 164.882 150.712 167.051L150.291 167.862L150.411 168.05C145.362 173.104 140.695 177.384 139.833 183.606C139.032 184.153 138.952 185.454 138.711 185.417C114.41 184.229 65.1068 181.551 40.2648 179.76L40.1647 179.892C30.5284 176.121 18.3478 167.918 21.6133 161.243C1.63956 119.873 2.76145 164.373 41.547 73.7519C40.4051 72.9222 42.8692 72.4885 42.6288 72.2811V72.2246C41.3266 72.564 41.8675 72.4131 41.2866 72.7714C39.5236 72.2623 39.2431 70.3578 37.6404 71.9983C34.3749 70.339 31.3498 65.7004 27.8038 65.1724C27.7236 64.7388 27.8038 64.6445 27.8038 64.6445L27.7437 64.5313C22.1943 64.3994 17.5665 59.9305 13.8802 57.4415C8.45106 53.2744 2.68131 47.5422 4.40423 45.7697C-0.123427 40.4901 2.64124 26.2162 0.577751 19.7675C2.22053 21.9547 3.74311 21.9924 4.90507 20.2388C7.46941 20.352 6.50778 20.4463 7.12883 20.1446C7.30914 20.22 7.32916 20.2954 7.34919 20.2954V20.3331C7.62967 20.4274 7.56957 20.4463 7.5896 20.4463H7.7098C9.13221 18.9189 7.7098 18.5418 7.78994 17.9007C8.03035 17.6179 7.95022 17.7122 8.03035 17.6179C9.57296 17.4105 9.19231 17.4293 9.81336 17.1276C9.75326 16.5997 9.7132 16.5808 9.75326 16.5242C10.6548 16.2037 10.4745 15.6757 10.8551 15.4872L10.9152 15.5249C11.5363 16.4865 12.538 16.0906 12.9587 15.9963C13.6198 16.2603 13.3794 16.6939 13.5597 16.7128C14.902 17.0899 15.4228 16.6751 15.483 16.7505C16.4646 15.7889 16.0239 15.2232 16.0639 14.7706L16.1641 14.6575C27.3831 14.4689 24.0575 8.69904 27.9641 10.3584C29.6669 9.30243 29.4265 9.56641 30.0876 9.28357L30.5684 9.64183C30.7688 11.32 32.5117 10.6978 32.9725 10.8109C34.9759 12.4514 35.7572 10.4526 36.7389 10.9052C37.6204 10.1132 38.1012 10.9052 38.4618 10.9995C39.3633 10.7732 40.0044 10.3772 39.9243 10.4715C43.0896 10.792 47.4169 12.9039 48.7792 11.2823C49.6006 8.4162 47.0162 7.71853 46.6957 6.28549C46.1347 5.66324 45.2933 6.04036 45.4135 5.92722L45.2332 5.81409C45.4135 4.85244 45.8342 4.58845 45.9144 4.4376L46.1147 4.3999C48.8994 0.19503 53.0264 4.72044 57.514 3.06113C57.7344 2.00519 58.3754 1.79778 58.8362 2.0052L59.0165 2.21261H59.3771L60.6393 1.32638L61.1802 1.28867L61.2603 1.42066L61.2002 1.7035L61.3204 1.81664C62.843 1.34524 63.4039 0.459012 64.005 0.591003L64.0851 0.74185C63.8647 1.19439 63.6243 1.21325 63.6844 1.2321L63.6243 1.43952C65.5075 3.47595 65.3472 2.92913 65.8481 3.19312C66.8498 2.92913 66.5693 2.9857 66.8898 2.83486C68.192 3.79651 67.571 5.55011 67.8314 5.66324C67.1703 6.64375 67.5109 6.90773 66.9099 6.90773C66.5092 8.11451 67.6912 8.54819 66.5493 9.39671L66.5893 9.45327C67.9717 16.1848 68.0718 11.32 71.3173 13.3376C71.9985 13.1302 72.6596 13.1113 73.1404 13.281C73.8416 12.885 74.5829 13.941 75.0436 13.9975C75.3642 14.3181 76.0253 14.6764 76.0854 14.7706H76.1655L76.2256 14.6198C77.0871 14.7706 76.8667 15.5249 77.5078 15.3552L77.5479 15.3929C77.4677 15.5437 77.3676 15.6757 77.3876 15.7134C77.5679 16.1848 77.8283 16.2037 77.8484 16.3922C77.9686 17.4482 79.8317 16.3922 80.3526 17.5047L80.3927 17.5425C80.4127 17.7122 80.3927 17.8064 80.4127 17.8064C80.7733 18.0139 80.9336 18.0704 80.9536 18.2024V18.3721L80.9736 18.4098C81.4545 18.4475 81.3743 18.4098 81.4344 18.4475L81.4745 18.5041C81.4745 18.655 81.4344 18.6361 81.4344 18.6361L81.4745 18.6738C81.9353 18.6927 81.8551 18.6738 81.9152 18.6738L81.9753 18.6361V18.5795C81.9353 18.4098 81.9153 18.3155 81.9353 18.2967L81.9954 18.259C83.3777 18.9001 82.9971 18.0893 83.6782 17.9573L83.7183 18.0139C83.6582 18.1458 83.578 18.1647 83.5981 18.1647C84.0188 18.5984 84.2392 18.0516 84.4996 18.0704C84.74 18.4098 84.3794 18.9566 84.74 19.0321C85.3611 18.7115 85.8819 19.0321 86.2426 18.9944C86.1224 19.692 86.503 20.2011 86.3828 20.748L86.4429 20.8045C90.2493 19.5223 86.8436 23.8403 88.4463 25.2734C95.0775 29.12 93.1342 36.4926 96.3597 42.0363C101.709 42.8659 102.009 48.8621 102.65 52.143C106.357 51.2568 104.233 53.3687 104.914 54.4623C106.116 56.7062 109.642 55.7068 109.742 57.2153C110.003 56.3102 110.744 56.6119 111.085 56.0839L111.145 56.0462C111.485 56.1593 111.485 56.2725 111.585 56.2536C111.806 56.0085 112.267 56.2536 112.327 56.2913C111.946 56.5742 111.966 56.6307 111.946 56.6119C112.787 62.6269 101.128 58.3843 99.6252 62.8532C102.59 62.0989 105.134 62.6458 106.417 61.6464C107.999 62.4761 106.477 63.6451 106.717 64.2674L106.897 64.3805C107.458 64.0977 107.338 64.2674 107.599 64.1919C111.465 61.7218 117.876 60.4962 120.32 57.7055C121.162 57.3284 121.542 57.4604 121.462 57.4038V57.4981C121.162 57.5924 121.182 57.7809 121.142 57.7998C123.145 56.5176 125.709 54.6886 126.771 53.8023C126.531 53.2367 126.471 53.1235 126.471 53.0481L126.671 52.8407L126.991 52.803L127.292 53.2367L127.633 53.331V53.2178L127.452 53.1235L127.352 52.9538V52.7653L127.512 52.6144C128.875 52.6898 128.754 52.671 129.135 52.671L129.335 52.8218C129.876 54.8206 128.374 55.8576 127.292 55.8765C131.739 57.7809 128.013 58.4786 129.676 59.9117C129.416 61.9481 132.3 63.3057 132.06 64.8896L131.759 65.2856H131.499L130.758 64.8896C131.118 65.5307 131.199 65.5873 131.199 65.6816L131.078 66.153C130.237 66.5112 130.537 66.4735 130.437 66.4924C130.117 67.0958 130.377 66.9826 130.297 67.0392L129.976 67.2655H129.536C128.774 66.7752 128.594 66.6244 128.514 66.5866C128.274 67.0015 128.354 66.9449 128.314 66.9826L128.514 67.0392L128.654 67.322L128.915 67.4163C128.875 68.2271 129.135 68.0197 129.055 68.114C129.536 68.378 129.416 68.2837 129.456 68.3214C129.375 67.718 129.335 67.8311 129.335 67.7557L129.456 67.6614C131.058 67.7369 130.878 67.5294 131.299 67.4352C131.439 66.7941 131.299 66.7186 131.359 66.6244C131.78 66.2472 131.86 65.9267 131.84 65.9455L131.96 65.8701C132.701 66.1152 132.681 65.9833 132.741 66.0398C133.763 67.7934 133.963 67.6614 135.025 67.718L135.085 67.8877C134.765 68.3968 134.765 68.3779 134.745 68.4534L134.965 68.3402L135.185 67.9631L135.406 67.85C135.506 68.2837 135.165 68.4345 135.185 68.5665C135.586 69.3962 135.566 69.7733 135.846 69.8864C135.987 69.0568 136.207 69.2642 136.367 69.0568C136.508 68.6985 136.528 68.4534 136.528 68.4157C137.169 67.5106 137.93 67.2466 137.99 67.2277L138.451 67.3409C139.312 67.0392 139.753 67.5671 139.873 67.5483C141.316 64.6068 145.723 67.0015 144.1 68.246C144.842 67.5294 144.521 67.718 144.641 67.6426C145.222 68.7362 144.14 69.811 144.201 70.075H144.301L144.621 69.4527H144.721C144.942 70.1504 145.282 70.2635 145.362 70.3767C144.581 68.3214 145.162 67.7369 144.822 67.322L145.002 67.3786C145.142 67.85 145.002 68.0763 145.042 68.0197C145.322 67.3032 145.242 67.454 145.383 67.3032C146.484 66.9638 146.424 67.6049 146.745 67.718L146.685 67.454L146.785 67.3597L146.945 67.4163L147.065 67.6237L147.206 67.3974C148.588 67.6614 148.768 68.6042 148.808 68.9436L149.029 68.6796C148.528 67.6237 148.047 67.3974 148.167 67.4163L147.967 67.5106C147.907 67.2654 147.827 67.2089 147.847 67.2089C148.668 66.1341 149.209 66.4358 149.289 66.3227L149.69 66.6998C149.91 65.3422 150.05 65.6627 150.511 65.2667H150.812L150.952 65.493L150.872 65.889C151.353 65.5496 151.473 65.493 151.513 65.493C150.151 66.8506 151.753 67.1146 152.194 67.2277L152.334 67.3597C152.515 68.114 152.054 68.3402 151.954 68.5288V68.6419H152.154C150.932 69.943 151.573 71.1498 151.132 71.4892C149.329 73.1108 149.69 77.3722 148.408 77.8625C147.446 77.9567 147.406 78.5979 147.266 78.6544C148.949 78.975 150.03 77.8436 149.81 78.051C149.81 77.2025 150.251 77.1459 150.511 76.9951C152.294 73.3371 153.296 68.7551 155.62 66.926C156.201 66.153 156.141 65.3233 156.201 65.3233C158.224 64.5502 158.244 63.1549 158.685 62.8343C160.087 62.6646 159.867 62.4383 160.288 62.2498H160.428V62.3441C159.947 62.8909 159.907 62.74 159.867 62.8155C159.767 63.532 159.506 63.928 159.567 63.928C159.086 64.2297 159.206 64.1919 159.026 64.3994C159.286 65.1724 158.605 65.5307 158.665 65.6061C157.884 65.757 158.084 65.9455 157.984 65.9267L157.884 66.2284L157.663 66.3981V66.5112C158.344 66.6621 158.384 66.0021 158.445 66.021C159.366 65.6816 159.206 65.6438 159.286 65.6438C159.647 64.9839 159.526 65.0405 159.587 64.965C159.967 64.6445 159.927 64.6445 160.047 64.5502C159.867 64.1731 159.927 64.2862 159.907 64.1542C160.528 63.8337 160.528 63.7771 160.628 63.4943C160.769 63.4943 160.748 63.5131 160.769 63.5131C161.069 63.4377 161.049 63.4943 161.109 63.4566L161.149 63.4C162.672 60.7979 162.351 61.8727 162.371 61.4013L162.411 61.3258C163.273 61.1373 163.533 59.4214 163.613 59.6854L163.854 59.7231C164.715 61.3447 165.176 61.9104 165.557 62.6269H165.737C166.498 63.7394 167.039 62.9475 167.239 63.8148L167.34 63.5697C167.38 62.7212 166.378 61.8538 166.438 61.9481L166.358 61.5898C167.72 62.2121 168.622 61.2127 168.842 60.9864C167.84 60.9864 167.961 60.9864 167.54 60.779C166.939 61.307 166.198 60.8545 166.118 60.8545L166.017 60.6659C166.158 58.3278 166.518 57.8752 167.079 57.2718L167.28 57.4792C167.079 58.6106 167.32 58.3089 167.239 58.4409C168.341 58.7426 168.702 58.7049 168.602 58.7237L168.682 58.686C168.842 57.3284 169.243 56.593 169.523 56.5176L170.024 56.8381C169.764 56.329 169.623 56.3667 169.603 56.2536L169.704 56.0273L169.583 55.9331L169.704 55.8199L169.884 55.8953C170.265 55.7634 170.445 55.7068 170.445 55.7068C170.024 55.5182 169.563 55.7822 169.623 55.7068C169.183 54.9714 169.343 54.8771 169.283 54.8583L169.343 54.6886C170.946 54.5566 170.886 54.6509 171.066 53.8778C171.246 53.7081 171.366 53.4629 171.406 53.4629C171.487 52.6333 171.527 52.8973 171.507 52.803C171.667 52.7087 171.707 52.6144 171.727 52.5956C171.567 51.7282 171.867 51.6716 171.406 51.3322C171.787 49.6918 173.71 48.9752 173.35 49.0507C173.931 49.5221 173.53 49.7295 173.57 49.9557C174.031 50.2574 174.311 50.8797 174.532 50.8231L174.792 50.2197L175.874 49.5786L176.054 49.2392C176.856 49.1638 177.016 49.5409 177.056 49.4843C176.916 49.0695 176.695 49.1449 176.736 49.1072C176.555 47.957 176.876 48.0702 176.936 47.6365C177.757 48.2021 177.497 48.4661 177.557 48.6924L177.918 48.6358L178.258 48.7867C178.579 49.5598 178.318 49.8426 178.398 49.8049C178.118 50.2009 177.958 50.2386 177.958 50.2952L178.078 50.4649C180.602 49.6918 179.901 49.5786 180.422 48.749L180.582 48.6547C180.241 47.9759 180.582 47.7873 180.482 47.8062C180.983 47.9759 181.243 48.353 181.203 48.2776L181.123 48.5227C181.584 49.2769 182.265 50.182 181.864 50.5591C183.287 50.5591 182.846 50.5026 183.267 50.6534L183.307 51.106L183.507 51.2757C183.467 50.842 183.707 50.7288 183.727 50.6534C183.467 50.5403 183.527 50.314 183.507 50.2952C182.585 49.7672 182.826 49.5221 182.625 49.5409C182.565 49.9557 182.365 49.9935 182.305 50.05C182.305 48.1644 182.185 48.6547 182.365 48.2587L182.625 48.221L182.405 48.0136C182.946 47.7119 183.086 47.8816 183.166 47.8439L183.387 48.0136C183.206 48.2964 183.206 48.2964 183.166 48.3341C183.206 49.1261 183.206 49.2769 183.267 49.3335C183.186 48.9564 183.347 48.9564 183.347 48.8998L183.487 48.8432C183.547 49.2958 183.687 49.2392 183.727 49.3146H183.928V49.2581C183.567 49.0507 183.727 48.7867 183.687 48.8055L183.807 48.6358L184.028 48.5981C184.509 48.8055 184.589 48.9941 184.569 48.9564C184.529 48.4473 184.208 48.3907 184.248 48.2587L184.509 48.353C184.929 48.1456 184.989 48.0513 185.05 48.0513L185.29 48.1456C185.33 48.6735 185.29 48.8244 185.33 48.8621H185.43L185.611 48.749L185.731 48.8432C185.791 49.2769 185.611 49.2392 185.651 49.2769L185.911 49.1072C186.091 48.6547 185.791 48.485 185.851 48.4473L186.552 48.9187L186.612 49.1072L186.532 49.2958L186.392 49.3712L186.292 49.1827H186.191C186.131 49.5786 185.791 49.5409 185.771 49.5786V49.6729L185.971 49.8803H186.071L186.171 49.6729C186.712 49.5409 186.913 49.8426 186.933 49.786C186.873 49.4278 187.113 49.4466 187.133 49.3712C187.574 50.2197 186.752 50.3517 186.612 50.5403L186.672 50.6723C186.993 50.6723 187.013 50.4649 187.053 50.4837C187.534 50.6911 187.414 51.0494 187.494 51.106C187.674 50.4837 187.414 50.3329 187.494 50.2574L187.714 50.1066C187.774 50.3517 187.834 50.3517 187.814 50.4083L187.874 50.2763C187.714 49.8237 188.175 49.2769 188.135 49.1449L188.295 49.0884L188.455 49.1449C188.656 49.4655 188.395 49.5598 188.455 49.5975H188.495L188.515 49.6163V49.6918L188.395 49.786C188.435 50.2763 188.355 50.2197 188.315 50.3894L188.415 50.4837L188.515 50.2763C188.696 50.8231 188.636 50.8608 188.696 50.9551H188.956C188.596 51.3511 188.475 51.3134 188.475 51.3322L188.395 51.5019C188.596 52.0299 188.756 52.0487 188.736 52.1053C188.876 51.0305 188.876 51.2757 189.177 50.8985C189.337 50.9928 189.417 50.9928 189.397 50.9928C189.397 50.5968 189.397 50.6723 189.397 50.5214C189.657 50.4271 189.778 50.5214 189.758 50.4837C190.158 50.0689 190.098 49.4655 190.138 49.5786L190.338 49.786C190.338 50.6723 190.078 50.9363 190.138 50.8985H190.258L190.359 50.6911C190.599 50.8043 190.519 50.8608 190.559 50.8608C190.559 51.106 190.459 51.0871 190.479 51.106H190.779C190.579 51.4642 190.599 51.4831 190.579 51.5019C190.759 51.4454 190.719 51.4454 190.779 51.4076L190.879 51.6339C190.379 51.8979 190.158 52.1242 190.158 52.2939L190.218 52.5013L190.499 52.6144C190.419 52.0676 190.439 52.1619 190.479 52.0299L190.719 51.9168C191.18 52.0676 191.08 51.9922 191.24 51.9733V51.7093L191.36 51.8225C191.4 51.0871 191.34 50.842 191.36 50.9174C191.721 51.0494 191.641 51.2757 191.681 51.3134H191.801C191.881 51.0682 192.122 51.1437 192.122 51.106C191.981 50.8043 191.721 50.842 191.681 50.8043C192.442 50.0123 192.382 50.0123 192.542 49.9935V49.8992L192.342 49.8049C192.843 49.8237 192.823 50.182 192.883 50.2009L192.703 50.2386L192.662 50.3329C192.803 50.6157 192.903 50.578 192.883 50.5968C192.582 50.71 192.662 50.6723 192.542 50.6911V50.8043L192.642 50.8985V50.9928C192.382 51.1625 192.342 51.0871 192.342 51.106V51.2002L192.502 51.2379L192.562 51.3322C192.522 51.6151 192.442 51.5962 192.462 51.6151C192.943 51.5774 192.863 51.2379 192.903 51.2002H193.003L192.883 52.011V52.0487C192.983 52.5013 193.163 52.6144 193.123 52.6144L193.183 52.3882C193.003 51.9922 193.083 52.0865 193.063 52.0487L193.223 51.8225H193.324V52.1242L193.484 52.0487C193.644 51.5962 193.504 51.3699 193.544 51.4265C194.305 52.1996 194.125 52.2184 194.185 52.2939C193.905 53.1047 193.524 53.3121 193.644 53.2555C194.465 52.4636 194.305 52.3504 194.465 52.3316C194.365 51.6905 194.646 51.5396 194.606 51.5208L194.946 51.6339C195.187 52.011 195.026 51.9922 195.107 52.0865L195.327 52.1242L195.487 52.0676C195.247 51.4454 195.046 51.3134 195.107 51.3322V51.1437C195.728 51.1437 195.768 51.3699 195.788 51.3134L196.028 52.1053C195.547 52.6898 195.688 52.5013 195.587 52.7276H195.708L195.828 52.6521L195.868 52.7653C195.808 53.3309 195.307 53.2367 195.267 53.2744L195.107 53.1801L195.046 52.935H194.926C194.125 53.8966 193.564 53.7835 193.624 54.3492C194.085 53.6138 194.566 53.6138 194.706 53.5384C195.487 53.7081 195.848 53.3875 195.908 53.4441L196.289 53.6515L196.549 53.3687L196.609 53.0293C197.29 52.539 197.511 52.4824 197.531 52.3693L197.771 52.2939L197.971 52.3693C198.412 52.0865 198.753 52.1996 198.733 52.143L198.913 52.3316L198.833 52.539C198.172 52.7653 197.911 52.8596 197.891 52.9161L198.011 53.1612L197.951 53.4064L197.751 53.5761V53.7458L198.032 53.8966C197.931 54.4623 197.891 54.368 197.891 54.4246H198.112L198.172 54.5566L197.971 54.764C198.372 54.8017 198.432 54.632 198.452 54.6509C198.512 54.4623 198.552 54.5 198.592 54.4434C198.993 54.632 198.953 54.6509 199.053 54.6697C199.554 54.2737 199.314 54.236 199.414 54.236H199.714C199.614 54.896 199.794 55.0845 199.855 55.1977C199.935 54.632 200.115 54.4623 200.195 54.4057H200.375C200.656 55.424 200.295 55.292 200.335 55.6691C201.037 55.292 200.676 54.5377 200.776 54.5566H200.876C201.417 55.3297 201.517 55.3485 201.537 55.4805C201.137 54.6886 201.137 54.8206 200.976 54.5377V54.4246L201.277 54.3492C200.976 54.0475 201.037 54.104 200.997 54.0663C201.137 53.1612 202.098 52.671 202.279 52.7464L202.739 52.935L202.699 53.4629C202.479 53.4629 202.439 53.5195 202.439 53.5007C201.918 54.104 202.038 54.1418 201.938 54.2737L202.179 54.1983L202.299 54.2549L202.259 54.368L202.038 54.4623C202.078 54.5943 202.138 54.6697 202.158 54.6697C201.978 54.896 201.978 54.9526 201.938 54.9714L202.098 55.1977L201.297 56.8004C201.918 56.1405 201.698 56.3479 201.938 56.1782C202.379 56.2536 202.519 56.3856 202.559 56.3479L202.8 56.2725C203 55.8576 203.02 55.8953 203.1 55.7634H203.22C203.22 56.593 203.06 56.593 203.12 56.6873C203.821 55.7822 203.2 55.3674 203.821 55.16L203.941 55.1977C204.202 55.7634 204.462 56.2913 204.402 56.2536C204.062 56.4987 204.102 56.4422 204.082 56.461C203.761 56.989 204.002 56.9324 203.921 56.9701L204.262 56.7816Z" stroke="white" stroke-width="1.15034" stroke-linecap="round" stroke-linejoin="round"/>
<path d="M120.48 45.9961L120.3 45.9018L120.34 45.5436C120.721 45.1664 120.981 45.1853 120.981 45.1287C122.384 42.8472 122.604 41.8667 124.067 41.2444V41.1878H124.788V41.2633V41.2821C124.688 41.2821 124.688 41.301 124.688 41.2821C124.447 41.8289 124.607 41.9798 124.627 42.0929L124.427 42.2249C124.347 44.8836 120.881 45.3927 120.761 45.9018L120.48 45.9961Z" fill="#2D73B5"/>
<path d="M120.48 45.9961L120.3 45.9018L120.34 45.5436C120.721 45.1664 120.981 45.1853 120.981 45.1287C122.384 42.8472 122.604 41.8667 124.067 41.2444V41.1878H124.788V41.2633V41.2821C124.688 41.2821 124.688 41.301 124.688 41.2821C124.447 41.8289 124.607 41.9798 124.627 42.0929L124.427 42.2249C124.347 44.8836 120.881 45.3927 120.761 45.9018L120.48 45.9961Z" stroke="white" stroke-width="1.15034" stroke-linecap="round" stroke-linejoin="round"/>
<path d="M126.651 41.8854V41.7912C126.29 41.678 126.19 41.546 126.21 41.5837C127.492 39.8301 126.891 39.981 127.552 39.2833C129.275 38.8496 130.417 38.3028 130.417 38.416L130.838 38.5857L131.078 38.9816C132.481 39.3022 132.24 39.7736 132.621 40.3581C131.239 42.338 128.594 43.0734 127.933 43.9784C127.592 43.8464 127.212 43.6956 127.272 43.7333C127.192 43.2054 126.31 43.1111 126.511 43.1299L126.11 42.5642V42.0363L126.631 41.8666L126.651 41.8854Z" fill="#2D73B5"/>
<path d="M126.651 41.8854V41.7912C126.29 41.678 126.19 41.546 126.21 41.5837C127.492 39.8301 126.891 39.981 127.552 39.2833C129.275 38.8496 130.417 38.3028 130.417 38.416L130.838 38.5857L131.078 38.9816C132.481 39.3022 132.24 39.7736 132.621 40.3581C131.239 42.338 128.594 43.0734 127.933 43.9784C127.592 43.8464 127.212 43.6956 127.272 43.7333C127.192 43.2054 126.31 43.1111 126.511 43.1299L126.11 42.5642V42.0363L126.631 41.8666L126.651 41.8854Z" stroke="white" stroke-width="1.15034" stroke-linecap="round" stroke-linejoin="round"/>
<path d="M134.364 36.0211C134.304 35.248 134.464 35.3423 134.544 35.1726C134.985 35.0217 134.825 35.2103 135.005 35.1726L135.105 35.0971C135.666 32.9287 135.526 33.3812 135.726 32.9476C136.087 32.8156 136.007 32.8721 136.087 32.8721V32.7213C134.945 31.7219 136.487 29.8363 136.748 29.9306V30.006C137.008 33.2115 137.749 33.9469 137.008 35.3611C136.427 35.4554 135.987 35.7194 135.987 35.7571C135.766 36.3793 135.987 36.2851 135.987 36.4925L135.926 36.6245C135.105 36.3228 134.885 36.4925 134.624 36.2662L134.384 36.0211H134.364Z" fill="#2D73B5"/>
<path d="M134.364 36.0211C134.304 35.248 134.464 35.3423 134.544 35.1726C134.985 35.0217 134.825 35.2103 135.005 35.1726L135.105 35.0971C135.666 32.9287 135.526 33.3812 135.726 32.9476C136.087 32.8156 136.007 32.8721 136.087 32.8721V32.7213C134.945 31.7219 136.487 29.8363 136.748 29.9306V30.006C137.008 33.2115 137.749 33.9469 137.008 35.3611C136.427 35.4554 135.987 35.7194 135.987 35.7571C135.766 36.3793 135.987 36.2851 135.987 36.4925L135.926 36.6245C135.105 36.3228 134.885 36.4925 134.624 36.2662L134.384 36.0211H134.364Z" stroke="white" stroke-width="1.15034" stroke-linecap="round" stroke-linejoin="round"/>
<path d="M138.551 30.5907L138.451 30.4587C139.893 30.1947 139.713 30.4021 139.773 30.3078L139.893 30.157C140.534 30.4587 140.654 30.7227 140.634 30.6661L140.715 30.4587L140.394 30.289V30.0627C140.915 29.4216 141.356 29.5724 141.496 29.5536C143.78 31.986 138.871 33.1173 138.591 33.7773L138.09 33.8339L137.79 33.551C137.028 31.6089 137.93 31.0432 138.571 30.5907H138.551Z" fill="#2D73B5"/>
<path d="M138.551 30.5907L138.451 30.4587C139.893 30.1947 139.713 30.4021 139.773 30.3078L139.893 30.157C140.534 30.4587 140.654 30.7227 140.634 30.6661L140.715 30.4587L140.394 30.289V30.0627C140.915 29.4216 141.356 29.5724 141.496 29.5536C143.78 31.986 138.871 33.1173 138.591 33.7773L138.09 33.8339L137.79 33.551C137.028 31.6089 137.93 31.0432 138.571 30.5907H138.551Z" stroke="white" stroke-width="1.15034" stroke-linecap="round" stroke-linejoin="round"/>
<path d="M132.281 36.8697C132.681 36.3795 132.942 36.4172 132.882 36.3795C134.204 36.3795 135.125 36.9075 135.466 37.228C135.546 38.3594 135.867 38.8873 135.466 39.321C134.504 39.3776 134.765 39.3776 134.264 39.1513C132.942 39.2644 133.062 38.6233 132.902 38.3028C132.2 38.0577 132.621 37.5863 132.461 37.36C132.26 36.964 132.321 37.0206 132.281 36.8697Z" fill="#2D73B5"/>
<path d="M132.281 36.8697C132.681 36.3795 132.942 36.4172 132.882 36.3795C134.204 36.3795 135.125 36.9075 135.466 37.228C135.546 38.3594 135.867 38.8873 135.466 39.321C134.504 39.3776 134.765 39.3776 134.264 39.1513C132.942 39.2644 133.062 38.6233 132.902 38.3028C132.2 38.0577 132.621 37.5863 132.461 37.36C132.26 36.964 132.321 37.0206 132.281 36.8697Z" stroke="white" stroke-width="1.15034" stroke-linecap="round" stroke-linejoin="round"/>
</svg>
