<svg width="117" height="110" viewBox="0 0 117 110" fill="none" xmlns="http://www.w3.org/2000/svg">
<path d="M116.051 34.9088C117.211 28.7368 104.775 24.0703 113.552 14.3231C113.592 13.4387 113.892 13.6645 111.913 12.8366C110.813 11.1995 115.891 8.99793 111.053 6.57055C105.235 8.3017 99.1574 11.3877 90.9405 13.5516C90.9405 13.514 90.8406 13.721 90.8406 13.8339C90.7206 13.9279 90.7406 13.8339 90.6007 14.1538L90.5407 14.1914H90.4607C90.1408 13.2694 89.5011 12.178 88.6014 11.2183C87.062 11.7264 87.8017 12.9118 88.5614 15.0193C88.0416 15.1699 85.6625 14.2855 84.0032 13.3258C83.9432 13.3446 83.9432 13.3446 83.6433 13.6269C83.0235 13.7398 82.2238 12.178 80.5045 12.4038L80.4445 12.3661C80.3246 12.178 80.6245 12.0275 80.9044 10.7855C80.9044 10.7855 80.9044 10.7855 80.8044 10.6726C79.305 13.2317 73.0074 10.7479 72.5875 13.7398C69.8486 18.5569 73.4672 12.0463 67.2895 4.44427C64.7705 5.21576 62.2115 9.78825 61.3118 13.4387C59.1726 12.686 55.6939 12.5543 51.7355 9.97643C45.4578 9.75063 47.8569 6.1754 49.2164 0.60561C49.6962 0.379808 47.3771 1.52766 46.7574 2.2427C46.7574 2.2427 46.7574 2.20506 46.5574 2.29914C46.5574 2.31796 46.5374 2.28033 46.4575 2.50613C46.3775 2.5814 46.4375 2.54375 46.0576 2.75073C45.2179 4.06791 44.5582 5.21575 43.9584 7.32324C44.1983 7.6055 44.0584 9.14847 42.6989 9.95759L42.7389 10.0517C43.1787 13.3823 40.0199 17.3715 38.0807 21.2101C37.6208 21.3606 39.3802 27.0809 37.121 26.6105L37.0611 26.6482L37.0211 26.7046C36.6812 28.0406 35.8815 31.0513 36.0415 33.3093L36.0814 33.4787C35.6616 34.6453 34.7819 34.984 34.7419 37.1103C34.7419 37.148 34.662 37.0351 34.3621 37.3926L34.2421 38.3899C34.0822 38.5969 33.6024 38.5028 33.4225 39.3307V39.3872C33.1626 39.5001 32.3029 40.5726 31.1233 40.2527C31.1233 40.1587 31.0833 40.4033 30.9634 39.6506L30.7635 39.4248C29.244 40.2716 27.1848 41.0995 25.4455 43.3011C25.4255 43.4516 25.5654 43.4328 25.5854 44.1478C25.4855 44.2607 25.5854 44.2231 25.2256 44.4113C24.8057 45.6344 25.4055 46.7446 23.7861 48.344L23.4263 48.137L23.3063 48.344C23.986 48.9461 22.8465 52.9541 20.5673 52.352C20.1275 54.4971 15.8691 52.2391 14.7696 56.1153C14.2298 56.2471 14.3097 56.1718 13.0302 56.8492L12.9502 57.0938C13.0302 57.5266 6.95251 60.5561 10.3112 61.9486C9.79143 64.9781 7.67227 66.5963 3.93369 68.7603C4.75338 71.4699 0.654916 73.4269 1.25469 76.3999C0.974794 77.0209 0.734885 76.9644 0.754878 78.545C-0.424673 81.7063 4.67339 85.432 3.57381 91.604C4.79335 93.4104 5.29315 90.2115 7.91216 92.6765C7.99212 93.7115 6.59266 93.7679 5.91292 96.6092C14.3297 98.8108 27.7446 102.16 36.4413 109.235L36.5612 109.01L36.8011 108.934C36.8011 108.934 37.181 108.821 37.5009 109.292L37.7008 109.348C37.7008 109.348 37.6808 109.405 37.8607 109.424C38.0007 109.367 37.9607 109.367 38.3605 109.066C38.1806 108.821 38.3206 108.859 37.7008 108.257C37.7008 106.921 39.0803 106.036 39.82 104.682C40.1799 104.399 40.3598 104.362 41.2795 103.553C41.7593 103.778 43.0188 104.08 43.7585 102.537C43.7985 95.1227 52.6151 97.4372 59.4126 93.9749C60.1723 94.1254 59.6525 95.1603 61.1919 96.0824C63.591 95.1415 62.6913 93.448 68.1092 91.3405C71.428 92.0179 77.4257 91.0771 82.2238 92.5636C86.2623 94.7276 87.4219 90.4749 92.1801 88.7814C92.1801 88.8379 92.1801 88.5745 92.4 88.4804C92.4 88.4616 92.5199 88.5368 92.6999 88.4239C92.7598 88.2169 92.9398 88.1605 93.3996 87.9347C93.4796 87.7277 93.8194 87.2573 94.5392 87.2196C91.5603 85.1498 97.8379 77.2655 91.5403 78.9967C91.4603 78.9967 90.1408 78.1499 90.6806 77.0962C90.6806 77.0209 90.6606 77.0585 90.6407 76.8327C90.8206 76.6258 90.6606 76.6446 91.0405 75.9107C91.0405 75.9295 91.0405 75.8542 91.2204 75.8731C91.2204 75.8731 91.7202 76.3435 92.0201 76.0612C92.0201 76.0236 92.0201 76.0236 91.9801 75.8354C91.9801 75.7978 92.1001 75.7037 92.3 75.572C92.32 75.5344 92.4 75.2709 92.3 75.0075C92.32 74.9887 92.46 74.7441 92.6999 74.4994H92.7598C92.7598 74.4994 92.8198 74.5182 92.9598 74.5182C92.9598 74.4618 93.3396 74.1607 93.5395 73.7656L93.4796 73.615V73.5774H93.6595L93.6995 73.5398C93.6995 73.5398 93.6995 73.521 93.6595 73.3516L93.6995 73.2763C93.8194 73.2763 94.0593 72.8624 94.3792 73.0882C94.7991 72.9941 94.6991 72.0533 95.6387 72.0156V71.9591C96.7183 69.0237 96.2385 66.841 91.8002 63.1152C92.44 61.3464 94.0194 59.4648 94.1793 56.0589C90.2208 55.9836 85.1627 56.3035 79.205 55.9272C79.145 55.5509 79.305 55.5508 79.4849 54.7982L79.3849 54.61C78.9251 54.2525 78.9851 54.4971 78.8451 52.7471C79.4449 52.352 79.5449 52.6719 79.9847 51.3923C79.8048 51.2418 78.8251 50.5832 79.7848 49.8305C80.1246 49.3977 79.6248 48.8144 80.3646 47.629C83.0835 47.629 87.3019 47.6289 92.3 47.7607C92.32 48.551 92.8998 48.6262 94.1193 49.1719C94.6191 50.9219 92.0401 54.2149 94.1993 56.0777C95.3189 55.9836 96.1985 55.5509 96.9982 54.2525C100.177 53.8197 102.756 55.3439 100.997 49.0779C98.0978 48.965 102.096 45.4838 100.697 43.7903C100.577 43.7527 100.577 43.7903 100.077 43.8279C100.477 39.1049 101.197 41.1371 106.115 40.5726C106.175 38.785 104.535 37.5431 106.575 35.7555C107.194 36.0566 109.493 36.3577 110.053 38.7474C112.492 39.5753 115.431 38.7474 116.051 34.984V34.9088Z" fill="#2D73B5"/>
<path d="M116.051 34.9088C117.211 28.7368 104.775 24.0703 113.552 14.3231C113.592 13.4387 113.892 13.6645 111.913 12.8366C110.813 11.1995 115.891 8.99793 111.053 6.57055C105.235 8.3017 99.1574 11.3877 90.9405 13.5516C90.9405 13.514 90.8406 13.721 90.8406 13.8339C90.7206 13.9279 90.7406 13.8339 90.6007 14.1538L90.5407 14.1914H90.4607C90.1408 13.2694 89.5011 12.178 88.6014 11.2183C87.062 11.7264 87.8017 12.9118 88.5614 15.0193C88.0416 15.1699 85.6625 14.2855 84.0032 13.3258C83.9432 13.3446 83.9432 13.3446 83.6433 13.6269C83.0236 13.7398 82.2238 12.178 80.5045 12.4038L80.4445 12.3661C80.3246 12.178 80.6245 12.0275 80.9044 10.7855C80.9044 10.7855 80.9044 10.7855 80.8044 10.6726C79.305 13.2317 73.0074 10.7479 72.5875 13.7398C69.8486 18.5569 73.4672 12.0463 67.2895 4.44427C64.7705 5.21576 62.2115 9.78825 61.3118 13.4387C59.1726 12.686 55.6939 12.5543 51.7355 9.97643C45.4578 9.75063 47.8569 6.1754 49.2164 0.60561C49.6962 0.379808 47.3771 1.52766 46.7574 2.2427C46.7574 2.2427 46.7574 2.20506 46.5574 2.29914C46.5574 2.31796 46.5374 2.28033 46.4575 2.50613C46.3775 2.5814 46.4375 2.54375 46.0576 2.75073C45.2179 4.06791 44.5582 5.21575 43.9584 7.32324C44.1983 7.6055 44.0584 9.14847 42.6989 9.95759L42.7389 10.0517C43.1787 13.3823 40.0199 17.3715 38.0807 21.2101C37.6208 21.3606 39.3802 27.0809 37.121 26.6105L37.0611 26.6482L37.0211 26.7046C36.6812 28.0406 35.8815 31.0513 36.0415 33.3093L36.0814 33.4787C35.6616 34.6453 34.7819 34.984 34.7419 37.1103C34.7419 37.148 34.662 37.0351 34.3621 37.3926L34.2421 38.3899C34.0822 38.5969 33.6024 38.5028 33.4225 39.3307V39.3872C33.1626 39.5001 32.3029 40.5726 31.1233 40.2527C31.1233 40.1587 31.0833 40.4033 30.9634 39.6506L30.7635 39.4248C29.244 40.2716 27.1848 41.0995 25.4455 43.3011C25.4255 43.4516 25.5654 43.4328 25.5854 44.1478C25.4855 44.2607 25.5854 44.2231 25.2256 44.4113C24.8057 45.6344 25.4055 46.7446 23.7861 48.344L23.4263 48.137L23.3063 48.344C23.986 48.9461 22.8465 52.9541 20.5673 52.352C20.1275 54.4971 15.8691 52.2391 14.7696 56.1153C14.2298 56.2471 14.3097 56.1718 13.0302 56.8492L12.9502 57.0938C13.0302 57.5266 6.95251 60.5561 10.3112 61.9486C9.79143 64.9781 7.67227 66.5963 3.93369 68.7603C4.75338 71.4699 0.654916 73.4269 1.25469 76.3999C0.974794 77.0209 0.734885 76.9644 0.754878 78.545C-0.424673 81.7063 4.67339 85.432 3.57381 91.604C4.79335 93.4104 5.29315 90.2115 7.91215 92.6765C7.99212 93.7115 6.59266 93.7679 5.91292 96.6092C14.3297 98.8108 27.7446 102.16 36.4413 109.235L36.5612 109.01L36.8011 108.934C36.8011 108.934 37.181 108.821 37.5009 109.292L37.7008 109.348C37.7008 109.348 37.6808 109.405 37.8607 109.424C38.0007 109.367 37.9607 109.367 38.3605 109.066C38.1806 108.821 38.3206 108.859 37.7008 108.257C37.7008 106.921 39.0803 106.036 39.82 104.682C40.1799 104.399 40.3598 104.362 41.2794 103.553C41.7593 103.778 43.0188 104.08 43.7585 102.537C43.7985 95.1227 52.6151 97.4372 59.4126 93.9749C60.1723 94.1254 59.6525 95.1603 61.1919 96.0824C63.591 95.1415 62.6913 93.448 68.1092 91.3405C71.428 92.0179 77.4257 91.0771 82.2238 92.5636C86.2623 94.7276 87.4219 90.4749 92.1801 88.7814C92.1801 88.8379 92.1801 88.5745 92.4 88.4804C92.4 88.4616 92.5199 88.5368 92.6999 88.4239C92.7598 88.2169 92.9398 88.1605 93.3996 87.9347C93.4796 87.7277 93.8194 87.2573 94.5392 87.2196C91.5603 85.1498 97.8379 77.2655 91.5403 78.9967C91.4603 78.9967 90.1408 78.1499 90.6806 77.0962C90.6806 77.0209 90.6606 77.0585 90.6407 76.8327C90.8206 76.6257 90.6606 76.6446 91.0405 75.9107C91.0405 75.9295 91.0405 75.8542 91.2204 75.8731C91.2204 75.8731 91.7202 76.3435 92.0201 76.0612C92.0201 76.0236 92.0201 76.0236 91.9801 75.8354C91.9801 75.7978 92.1001 75.7037 92.3 75.572C92.32 75.5344 92.4 75.2709 92.3 75.0075C92.32 74.9887 92.46 74.7441 92.6999 74.4994H92.7598C92.7598 74.4994 92.8198 74.5182 92.9598 74.5182C92.9598 74.4618 93.3396 74.1607 93.5395 73.7656L93.4796 73.615V73.5774H93.6595L93.6995 73.5398C93.6995 73.5398 93.6995 73.521 93.6595 73.3516L93.6995 73.2763C93.8194 73.2763 94.0593 72.8624 94.3792 73.0882C94.7991 72.9941 94.6991 72.0533 95.6387 72.0156V71.9591C96.7183 69.0237 96.2385 66.841 91.8002 63.1152C92.44 61.3464 94.0194 59.4648 94.1793 56.0589C90.2208 55.9836 85.1627 56.3035 79.205 55.9272C79.145 55.5509 79.305 55.5508 79.4849 54.7982L79.3849 54.61C78.9251 54.2525 78.9851 54.4971 78.8451 52.7471C79.4449 52.352 79.5449 52.6719 79.9847 51.3923C79.8048 51.2418 78.8251 50.5832 79.7848 49.8305C80.1246 49.3977 79.6248 48.8144 80.3646 47.629C83.0835 47.629 87.3019 47.6289 92.3 47.7607C92.32 48.551 92.8998 48.6262 94.1193 49.1719C94.6191 50.9219 92.0401 54.2149 94.1993 56.0777C95.3189 55.9837 96.1985 55.5509 96.9982 54.2525C100.177 53.8197 102.756 55.3439 100.997 49.0779C98.0978 48.965 102.096 45.4838 100.697 43.7903C100.577 43.7527 100.577 43.7903 100.077 43.8279C100.477 39.1049 101.197 41.1371 106.115 40.5726C106.175 38.785 104.535 37.5431 106.575 35.7555C107.194 36.0566 109.493 36.3577 110.053 38.7474C112.492 39.5753 115.431 38.7474 116.051 34.984V34.9088Z" stroke="white" stroke-width="1.15034" stroke-linecap="round" stroke-linejoin="round"/>
</svg>
