<svg width="112" height="87" viewBox="0 0 112 87" fill="none" xmlns="http://www.w3.org/2000/svg">
<path d="M111.422 66.6093C110.781 62.8942 107.776 60.2162 106.934 55.5958C109.479 52.6727 112.685 46.0532 102.786 47.3168C102.686 47.1848 102.887 47.6374 101.664 46.2795C101.664 46.2795 101.684 46.1098 101.784 45.7892L101.664 45.7138C100.883 45.6195 85.9753 45.8081 84.7531 45.5063C84.3723 45.28 84.8933 43.8656 84.6529 42.3381L84.7531 42.2626C84.7531 42.2626 84.8332 42.3003 85.0937 42.3381C85.1738 42.2626 85.5746 41.942 85.3742 41.282C85.3742 41.1877 84.9734 41.2442 84.8532 40.9425C85.0536 36.8313 84.0918 31.5697 83.8915 26.5155L83.9516 26.4024C84.4525 26.3835 84.6929 25.9686 85.1939 25.1765V25.0256C84.7531 24.4222 83.3705 21.4425 83.4106 19.7829C83.4507 19.7829 83.2703 19.5566 83.4306 19.236C83.5308 19.0663 83.8714 19.236 84.4124 18.972C82.7894 17.4255 87.0974 13.9744 83.1501 12.1451C83.11 12.2016 83.2302 11.9942 83.1701 11.4284C78.9824 9.37283 81.0061 15.5774 75.0351 12.3148C74.7947 11.9188 74.3939 10.9758 74.2937 9.78772C70.9476 10.0706 72.6908 5.11073 68.463 6.07253C67.6415 -0.037732 58.8853 0.509183 52.6739 0.660054C52.5737 2.84768 49.7485 2.84767 49.468 4.80899C43.6372 4.71469 48.6665 10.0517 43.9377 11.2776C43.9377 11.2776 43.8376 11.1833 43.6372 10.9192L43.4969 10.8815C42.8758 11.9942 43.3968 12.8994 43.4569 14.9739L43.3166 15.0305C42.2546 14.7853 40.3712 14.1441 38.7081 15.1813C36.504 16.0488 33.8992 14.7287 31.2143 16.6523C31.1341 18.2176 27.8681 26.2138 26.3252 19.4623L26.185 19.4057C23.1794 21.5745 20.8552 21.8574 17.3888 24.1016C15.4251 21.0087 11.8786 21.914 7.45043 21.6876C8.09161 24.2902 5.72725 24.441 2.7217 26.8361C2.68163 26.8738 2.58145 26.7984 1.9603 26.8361C1.41931 27.5339 1.86011 27.251 0.577749 28.1751L3.44304 29.3443L3.54322 29.2312C4.64525 29.1557 8.53242 28.4014 11.558 27.5339C11.5981 27.5339 11.5981 27.5339 11.7383 27.6847H11.8185C12.8604 27.4961 13.7821 27.2699 15.8659 27.3264C16.0062 27.2321 16.0062 27.3264 16.3068 26.9681C16.3468 27.0058 16.3068 27.1944 16.5873 27.383H16.7476C16.8678 27.1944 16.6073 27.0435 17.0281 26.5909C17.1283 26.5721 17.0281 27.1001 17.4288 27.1756C17.3888 27.251 17.6092 26.987 18.2704 26.9304C18.2704 26.9115 18.2704 27.0435 18.1502 27.4584L18.2103 27.4961C18.2103 27.4961 18.4307 27.515 18.7513 27.4207C18.9917 27.4961 19.2722 28.1374 20.2541 28.1374C20.3342 28.0619 20.4344 27.9299 20.5145 27.6093C21.5565 27.1756 20.7349 26.9681 22.3579 25.7989C25.083 26.0252 24.9828 31.8337 24.3216 35.3037C24.4618 35.2094 22.8589 35.9072 23.3798 36.6993C23.3798 36.605 23.3598 37.001 22.7787 37.5479L22.398 37.6233V37.7176C22.398 37.7176 22.4982 37.7742 22.6184 38.076C22.5984 38.208 22.3579 38.5097 22.6785 38.8492C22.7186 38.9246 22.7386 38.7549 22.6184 39.9807C22.6184 40.0184 22.8789 40.207 23.3999 40.6408C23.3999 41.1877 23.7204 41.0179 23.1193 42.6021L23.1995 42.7907C24.1212 43.149 24.4217 42.7907 24.7824 45.1669C24.7824 45.6572 24.6221 45.3366 24.1212 46.1098C24.1212 46.223 24.1011 46.2795 24.2614 46.9585C24.2414 47.1282 24.2214 47.1093 23.2997 47.9391L23.2396 48.3163C23.2396 48.3163 23.5 48.4672 23.8407 48.9386L23.7405 49.1649C23.7405 49.1649 23.7405 49.0707 23.3798 49.4478V49.8062C23.3798 49.8062 23.7205 50.221 24.3616 50.5605C24.1412 51.4846 23.1794 51.0131 24.9026 53.2384L25.4637 53.0876C25.8243 53.1442 26.205 53.6156 26.0648 54.4266L26.1449 54.4643C26.3052 54.5208 26.4054 54.37 26.8863 54.8792L26.5056 54.9923C26.706 55.4261 25.5839 56.7651 27.1267 57.2554L27.2469 57.1234C27.287 57.2931 27.1668 56.5953 27.4874 56.0861L27.7078 56.0295C27.7479 56.1804 27.788 56.0673 27.7078 56.5199C27.7278 56.5576 27.8881 56.6896 28.4692 56.9725C28.5894 57.1422 28.8699 58.2549 29.0703 59.0281C29.0703 59.0281 29.1304 59.0281 29.451 59.179C29.431 59.2355 29.5312 59.1035 29.5712 59.5184C28.6295 60.5557 30.3727 61.2346 32.0558 60.9706C32.176 61.046 32.1961 60.9894 32.7972 61.2157C33.1378 61.6872 32.6369 61.6118 33.6788 62.5359L33.5586 62.7433L33.6387 62.913L33.8191 62.9885L34.0195 62.9319C34.0195 62.9319 33.9794 62.9319 34.1798 62.3284H34.4402C34.4402 62.3284 34.6606 62.6113 34.4402 63.045C34.7809 63.7994 35.8829 63.7051 37.2454 64.384C37.2454 64.384 37.2454 64.384 37.2454 64.3086H37.2654C37.8866 64.516 38.2873 64.7046 37.5259 66.119L37.566 66.383C38.6881 66.6659 38.4877 68.2124 40.6116 67.7786L40.7719 68.2501C41.6736 68.2312 41.7337 67.3071 43.0361 68.6084C43.1563 68.4764 43.1363 68.5707 43.4368 68.1369L43.6773 68.4009L44.619 68.4386L44.9596 68.8724C45.2001 68.8347 45.1199 68.9101 45.7611 68.665C45.8012 68.665 45.9414 68.6838 46.2821 68.9667H46.5626C47.0234 68.5518 46.7029 68.7781 47.4843 67.9106V67.8352C48.3459 67.6277 48.6665 67.5711 50.7303 67.9295C50.8906 68.1558 53.6557 69.193 54.1967 70.1171C54.7778 70.6263 55.1785 71.5692 57.4026 71.3241C57.4627 71.2675 57.643 70.8149 58.2842 70.8526C58.5046 70.6451 58.2842 70.5697 58.9855 70.3434C59.3061 70.3623 59.0256 70.4188 59.9673 70.6263C60.0475 70.532 60.0675 71.0789 60.4682 71.6258C60.3681 71.7767 61.1295 74.2283 62.2716 73.5494C62.492 73.87 62.0512 73.3797 63.3536 74.9827C63.3536 74.9827 63.5139 74.9827 63.8144 75.0581L63.8946 75.1335C63.9947 75.4164 63.8946 75.6805 64.7762 76.0576V75.7559C64.9365 75.5862 65.3773 75.869 65.8983 75.3976H66.0986C66.1387 75.5107 66.84 75.5107 66.7599 76.2839L66.82 76.3594C66.3391 76.7177 69.7454 76.3782 70.2062 77.7926L70.2663 77.8303C70.8274 77.7738 70.4467 78.151 71.8893 78.0944L72.0697 77.9435L72.3902 78.0567C72.7108 78.1887 73.2318 77.2457 74.2336 78.0567V77.7172L74.414 77.7549C74.414 77.6606 74.4541 77.9812 74.9349 78.2075C74.9349 78.2264 74.975 78.151 75.1553 78.2075C75.3156 78.6602 74.7346 79.9237 76.6581 80.9798C77.0989 82.149 78.742 81.489 79.3831 83.9972L79.5635 84.1481C79.7037 84.2046 80.0844 84.1858 80.8659 83.9972L81.1664 84.1103C81.9479 83.8463 81.3267 83.6954 83.4907 83.6389C84.3723 84.148 84.8132 84.8647 87.2977 83.4314C88.52 83.5823 88.0992 83.9595 90.4435 83.8275L90.6038 83.7332L90.704 83.4314C90.9846 83.2994 90.7441 83.2806 91.6057 83.1863C91.7059 83.1486 91.5456 83.0731 92.0665 82.9788L92.1667 83.1297V83.752L92.4673 84.0538C92.4673 84.0538 93.0684 84.1103 94.4509 84.3178C95.1923 85.1287 94.7515 84.1103 97.1559 85.9962C102.786 82.1113 107.054 75.3221 111.422 66.6282V66.6093Z" fill="#2D73B5"/>
<path d="M111.422 66.6093C110.781 62.8942 107.776 60.2162 106.934 55.5958C109.479 52.6727 112.685 46.0532 102.786 47.3168C102.686 47.1848 102.887 47.6374 101.664 46.2795C101.664 46.2795 101.684 46.1098 101.784 45.7892L101.664 45.7138C100.883 45.6195 85.9753 45.8081 84.7531 45.5063C84.3723 45.28 84.8933 43.8656 84.6529 42.3381L84.7531 42.2626C84.7531 42.2626 84.8332 42.3003 85.0937 42.3381C85.1738 42.2626 85.5746 41.942 85.3742 41.282C85.3742 41.1877 84.9734 41.2442 84.8532 40.9425C85.0536 36.8313 84.0918 31.5697 83.8915 26.5155L83.9516 26.4023C84.4525 26.3835 84.6929 25.9686 85.1939 25.1765V25.0256C84.7531 24.4222 83.3705 21.4425 83.4106 19.7829C83.4507 19.7829 83.2703 19.5566 83.4306 19.236C83.5308 19.0663 83.8714 19.236 84.4124 18.972C82.7894 17.4255 87.0974 13.9744 83.1501 12.1451C83.11 12.2016 83.2302 11.9942 83.1701 11.4284C78.9824 9.37283 81.0061 15.5774 75.0351 12.3148C74.7947 11.9188 74.3939 10.9758 74.2938 9.78772C70.9476 10.0706 72.6908 5.11073 68.463 6.07253C67.6415 -0.037732 58.8853 0.509183 52.6739 0.660054C52.5737 2.84768 49.7485 2.84767 49.468 4.80899C43.6372 4.71469 48.6665 10.0517 43.9377 11.2776C43.9377 11.2776 43.8376 11.1833 43.6372 10.9192L43.4969 10.8815C42.8758 11.9942 43.3968 12.8994 43.4569 14.9739L43.3166 15.0305C42.2546 14.7853 40.3712 14.1441 38.7081 15.1813C36.504 16.0488 33.8992 14.7287 31.2143 16.6523C31.1341 18.2176 27.8681 26.2138 26.3252 19.4623L26.185 19.4057C23.1794 21.5745 20.8552 21.8574 17.3888 24.1016C15.4251 21.0087 11.8786 21.9139 7.45043 21.6876C8.09161 24.2902 5.72725 24.441 2.7217 26.8361C2.68163 26.8738 2.58145 26.7984 1.9603 26.8361C1.41931 27.5339 1.86011 27.251 0.577749 28.1751L3.44304 29.3443L3.54322 29.2312C4.64525 29.1557 8.53242 28.4014 11.558 27.5339C11.5981 27.5339 11.5981 27.5339 11.7383 27.6847H11.8185C12.8604 27.4961 13.7821 27.2699 15.8659 27.3264C16.0062 27.2321 16.0062 27.3264 16.3068 26.9681C16.3468 27.0058 16.3068 27.1944 16.5873 27.383H16.7476C16.8678 27.1944 16.6073 27.0435 17.0281 26.5909C17.1283 26.5721 17.0281 27.1001 17.4288 27.1756C17.3888 27.251 17.6092 26.987 18.2704 26.9304C18.2704 26.9115 18.2704 27.0435 18.1502 27.4584L18.2103 27.4962C18.2103 27.4962 18.4307 27.515 18.7513 27.4207C18.9917 27.4961 19.2722 28.1374 20.2541 28.1374C20.3342 28.0619 20.4344 27.9299 20.5145 27.6093C21.5565 27.1756 20.7349 26.9681 22.3579 25.7989C25.083 26.0252 24.9828 31.8337 24.3216 35.3037C24.4618 35.2094 22.8589 35.9072 23.3798 36.6993C23.3798 36.605 23.3598 37.001 22.7787 37.5479L22.398 37.6233V37.7176C22.398 37.7176 22.4982 37.7742 22.6184 38.076C22.5984 38.208 22.3579 38.5097 22.6785 38.8492C22.7186 38.9246 22.7386 38.7549 22.6184 39.9807C22.6184 40.0184 22.8789 40.207 23.3999 40.6408C23.3999 41.1877 23.7204 41.0179 23.1193 42.6021L23.1995 42.7907C24.1212 43.149 24.4217 42.7907 24.7824 45.1669C24.7824 45.6572 24.6221 45.3366 24.1212 46.1098C24.1212 46.223 24.1011 46.2795 24.2614 46.9585C24.2414 47.1282 24.2214 47.1093 23.2997 47.9391L23.2396 48.3163C23.2396 48.3163 23.5 48.4672 23.8407 48.9386L23.7405 49.1649C23.7405 49.1649 23.7405 49.0707 23.3798 49.4478V49.8062C23.3798 49.8062 23.7205 50.221 24.3616 50.5605C24.1412 51.4846 23.1794 51.0131 24.9026 53.2384L25.4637 53.0876C25.8243 53.1442 26.205 53.6156 26.0648 54.4266L26.1449 54.4643C26.3052 54.5208 26.4054 54.37 26.8863 54.8792L26.5056 54.9923C26.706 55.4261 25.5839 56.7651 27.1267 57.2554L27.2469 57.1234C27.287 57.2931 27.1668 56.5953 27.4874 56.0861L27.7078 56.0295C27.7479 56.1804 27.788 56.0673 27.7078 56.5199C27.7278 56.5576 27.8881 56.6896 28.4692 56.9725C28.5894 57.1422 28.8699 58.2549 29.0703 59.0281C29.0703 59.0281 29.1304 59.0281 29.451 59.179C29.431 59.2355 29.5312 59.1035 29.5712 59.5184C28.6295 60.5557 30.3727 61.2346 32.0558 60.9706C32.176 61.046 32.1961 60.9894 32.7972 61.2157C33.1378 61.6872 32.6369 61.6118 33.6788 62.5359L33.5586 62.7433L33.6387 62.913L33.8191 62.9885L34.0195 62.9319C34.0195 62.9319 33.9794 62.9319 34.1798 62.3284H34.4402C34.4402 62.3284 34.6606 62.6113 34.4402 63.045C34.7809 63.7994 35.8829 63.7051 37.2454 64.384C37.2454 64.384 37.2454 64.384 37.2454 64.3086H37.2654C37.8866 64.516 38.2873 64.7046 37.5259 66.119L37.566 66.383C38.6881 66.6659 38.4877 68.2124 40.6116 67.7786L40.7719 68.2501C41.6736 68.2312 41.7337 67.3071 43.0361 68.6084C43.1563 68.4764 43.1363 68.5707 43.4368 68.1369L43.6773 68.4009L44.619 68.4387L44.9596 68.8724C45.2001 68.8347 45.1199 68.9101 45.7611 68.665C45.8012 68.665 45.9414 68.6838 46.2821 68.9667H46.5626C47.0234 68.5518 46.7029 68.7781 47.4843 67.9106V67.8352C48.3459 67.6277 48.6665 67.5711 50.7303 67.9295C50.8906 68.1558 53.6557 69.193 54.1967 70.1171C54.7777 70.6263 55.1785 71.5692 57.4026 71.3241C57.4627 71.2675 57.643 70.8149 58.2842 70.8526C58.5046 70.6451 58.2842 70.5697 58.9855 70.3434C59.3061 70.3623 59.0256 70.4188 59.9673 70.6263C60.0475 70.532 60.0675 71.0789 60.4682 71.6258C60.3681 71.7767 61.1295 74.2283 62.2716 73.5494C62.492 73.87 62.0512 73.3797 63.3536 74.9827C63.3536 74.9827 63.5139 74.9827 63.8144 75.0581L63.8946 75.1335C63.9947 75.4164 63.8946 75.6805 64.7762 76.0576V75.7559C64.9365 75.5862 65.3773 75.869 65.8983 75.3976H66.0986C66.1387 75.5107 66.84 75.5107 66.7598 76.2839L66.82 76.3594C66.3391 76.7177 69.7454 76.3782 70.2062 77.7926L70.2663 77.8303C70.8274 77.7738 70.4467 78.151 71.8893 78.0944L72.0696 77.9435L72.3902 78.0567C72.7108 78.1887 73.2318 77.2457 74.2336 78.0567V77.7172L74.414 77.7549C74.414 77.6606 74.454 77.9812 74.9349 78.2075C74.9349 78.2264 74.975 78.151 75.1553 78.2075C75.3156 78.6601 74.7346 79.9237 76.6581 80.9798C77.0989 82.149 78.742 81.489 79.3831 83.9972L79.5635 84.1481C79.7037 84.2046 80.0844 84.1858 80.8659 83.9972L81.1664 84.1103C81.9479 83.8463 81.3267 83.6954 83.4907 83.6389C84.3723 84.148 84.8132 84.8647 87.2977 83.4314C88.52 83.5823 88.0992 83.9595 90.4435 83.8275L90.6038 83.7332L90.704 83.4314C90.9846 83.2994 90.7441 83.2806 91.6057 83.1863C91.7059 83.1485 91.5456 83.0731 92.0665 82.9788L92.1667 83.1297V83.752L92.4673 84.0538C92.4673 84.0538 93.0684 84.1103 94.4509 84.3178C95.1923 85.1287 94.7515 84.1103 97.1559 85.9962C102.786 82.1113 107.054 75.3221 111.422 66.6282V66.6093Z" stroke="white" stroke-width="1.15034" stroke-linecap="round" stroke-linejoin="round"/>
</svg>
