<svg width="148" height="118" viewBox="0 0 148 118" fill="none" xmlns="http://www.w3.org/2000/svg">
<path d="M58.388 110.344C57.2435 110.514 57.5247 110.665 57.0427 110.835C55.6171 110.382 53.4887 110.419 53.7296 110.401C48.6897 109.418 42.485 109.796 37.9671 109.021C37.0836 108.341 37.8868 107.377 37.0234 107.301C32.9272 107.566 33.9914 110.646 34.9351 112.272L34.8146 112.347C32.2043 111.591 35.0757 117.374 30.6983 117.412C29.4333 116.051 29.9554 113.084 27.0238 114.029C26.4615 113.557 26.5419 113.5 26.3009 113.424C24.9154 114.521 22.9275 114.672 22.6464 115.144H22.4456C21.8231 112.574 19.2128 113.481 17.9478 113.009C17.1446 111.27 18.7309 110.797 19.2931 110.59C20.016 107.433 22.4055 105.733 23.1484 104.939C23.5701 104.032 23.1484 103.521 23.289 103.635C22.0641 102.444 20.016 104.258 19.6345 104.258C16.8033 104.069 13.5504 104.958 13.5504 107.188C13.2693 107.112 13.3696 107.074 13.3295 107.074H13.209C12.0042 109.021 9.93603 108.908 9.89587 109.947L9.57459 109.796C9.45411 109.55 9.41396 109.493 9.39388 109.474H9.25331C8.22925 110.457 8.45013 110.627 8.1891 110.59C5.77955 109.909 6.80364 109.909 5.77958 110.382C4.07282 109.21 3.18929 109.153 2.42627 108.567C2.38611 108.189 2.46643 108.095 2.42627 108.114L2.36603 108.019C1.58293 108.794 1.22151 109.078 0.619118 108.756L0.578981 108.643C1.06089 107.566 1.10103 106.564 1.68333 105.77L2.08495 105.562C2.46646 104.032 3.67122 103.389 4.39409 104.239C12.2854 99.0801 11.7633 85.8886 22.3251 85.4351C23.0279 86.5501 23.2488 86.6635 23.1685 86.6446L23.9315 86.947C25.7386 86.7013 28.4896 87.0226 28.5498 87.8541C29.112 88.0431 29.3128 88.7613 29.3931 88.7235C30.6782 89.2905 30.5979 89.007 30.8991 89.0826V89.2904C32.4653 89.1393 32.7665 89.744 33.3087 89.8574L33.5295 89.7818L33.6098 89.5172C33.0476 89.2904 32.8268 89.3282 32.887 89.3093L32.7464 89.1582C36.8427 89.1771 36.2001 89.3472 37.8667 89.4794V89.3849H37.3246V89.2904C46.4206 87.8352 52.4847 90.1976 54.2717 96.6421L54.1513 96.7366C54.6533 98.154 54.5127 98.0029 54.5528 98.0784L54.7135 98.2296C54.8942 100.441 54.9946 99.8927 55.4765 101.008C55.3962 102.312 56.4805 102.822 56.0588 103.71L56.1994 103.767L56.2596 103.843L56.36 105.619L55.9183 105.298L55.8581 105.562L55.4564 105.922V106.054L55.6974 106.186C56.1994 105.827 56.1994 105.733 56.2998 105.714L56.4403 105.789L56.5809 106.129C57.0628 106.318 57.1231 106.205 57.1632 106.262C57.4644 107.792 57.3841 108 58.107 108.662C58.4684 110.023 58.368 110.382 58.4081 110.325L58.388 110.344Z" fill="#2D73B5"/>
<path d="M58.388 110.344C57.2435 110.514 57.5247 110.665 57.0427 110.835C55.6171 110.382 53.4887 110.419 53.7296 110.401C48.6897 109.418 42.485 109.796 37.9671 109.021C37.0836 108.341 37.8868 107.377 37.0234 107.301C32.9272 107.566 33.9914 110.646 34.9351 112.272L34.8146 112.347C32.2043 111.591 35.0757 117.374 30.6983 117.412C29.4333 116.051 29.9554 113.084 27.0237 114.029C26.4615 113.557 26.5419 113.5 26.3009 113.424C24.9154 114.521 22.9275 114.672 22.6464 115.144H22.4456C21.8231 112.574 19.2128 113.481 17.9478 113.009C17.1446 111.27 18.7309 110.797 19.2931 110.59C20.016 107.433 22.4055 105.733 23.1484 104.939C23.5701 104.032 23.1484 103.521 23.289 103.635C22.0641 102.444 20.016 104.258 19.6345 104.258C16.8033 104.069 13.5504 104.958 13.5504 107.188C13.2693 107.112 13.3696 107.074 13.3295 107.074H13.209C12.0042 109.021 9.93603 108.908 9.89587 109.947L9.57459 109.796C9.45411 109.55 9.41396 109.493 9.39388 109.474H9.25331C8.22925 110.457 8.45013 110.627 8.1891 110.59C5.77955 109.909 6.80364 109.909 5.77958 110.382C4.07282 109.21 3.18929 109.153 2.42627 108.567C2.38611 108.189 2.46643 108.095 2.42627 108.114L2.36603 108.019C1.58293 108.794 1.22151 109.078 0.619118 108.756L0.578981 108.643C1.06089 107.566 1.10103 106.564 1.68333 105.77L2.08495 105.562C2.46646 104.032 3.67122 103.389 4.39409 104.239C12.2854 99.0801 11.7633 85.8886 22.3251 85.4351C23.0279 86.5501 23.2488 86.6635 23.1685 86.6446L23.9315 86.947C25.7386 86.7013 28.4896 87.0226 28.5498 87.8541C29.112 88.0431 29.3128 88.7613 29.3931 88.7235C30.6782 89.2905 30.5979 89.007 30.8991 89.0826V89.2904C32.4653 89.1393 32.7665 89.744 33.3087 89.8574L33.5295 89.7818L33.6098 89.5172C33.0476 89.2904 32.8268 89.3282 32.887 89.3093L32.7464 89.1582C36.8427 89.1771 36.2001 89.3472 37.8667 89.4794V89.3849H37.3246V89.2904C46.4206 87.8352 52.4847 90.1976 54.2718 96.6421L54.1513 96.7366C54.6533 98.154 54.5127 98.0029 54.5528 98.0784L54.7135 98.2296C54.8942 100.441 54.9946 99.8927 55.4765 101.008C55.3962 102.312 56.4805 102.822 56.0588 103.71L56.1994 103.767L56.2596 103.843L56.36 105.619L55.9183 105.298L55.8581 105.562L55.4564 105.922V106.054L55.6974 106.186C56.1994 105.827 56.1994 105.733 56.2998 105.714L56.4403 105.789L56.5809 106.129C57.0628 106.318 57.1231 106.205 57.1632 106.262C57.4644 107.792 57.3841 108 58.107 108.662C58.4684 110.023 58.368 110.382 58.4081 110.325L58.388 110.344Z" stroke="white" stroke-width="1.15034" stroke-linecap="round" stroke-linejoin="round"/>
<path d="M99.1296 70.6186L99.21 70.7319L99.1698 70.902C98.5875 71.2611 98.1658 71.3556 98.1257 71.3556L97.9851 71.28C98.2662 70.9965 98.3666 70.9587 98.3867 70.8642C98.7682 70.7319 98.8887 70.7131 98.9088 70.6942L99.0895 70.6375L99.1296 70.6186Z" fill="#2D73B5"/>
<path d="M99.1296 70.6186L99.21 70.7319L99.1698 70.902C98.5875 71.2611 98.1658 71.3556 98.1257 71.3556L97.9851 71.28C98.2662 70.9965 98.3666 70.9587 98.3867 70.8642C98.7682 70.7319 98.8887 70.7131 98.9088 70.6942L99.0895 70.6375L99.1296 70.6186Z" stroke="white" stroke-width="1.15034" stroke-linecap="round" stroke-linejoin="round"/>
<path d="M147.421 0.938093C147.321 1.71295 146.397 1.35387 146.397 1.41057C146.015 1.08928 146.216 1.07038 146.136 1.05148L146.176 0.862495C146.678 0.42782 146.859 0.654604 146.839 0.579008L147.24 0.7113L147.421 0.956988V0.938093Z" fill="#2D73B5"/>
<path d="M147.421 0.938093C147.321 1.71295 146.397 1.35387 146.397 1.41057C146.015 1.08928 146.216 1.07038 146.136 1.05148L146.176 0.862495C146.678 0.42782 146.859 0.654604 146.839 0.579008L147.24 0.7113L147.421 0.956988V0.938093Z" stroke="white" stroke-width="1.15034" stroke-linecap="round" stroke-linejoin="round"/>
</svg>
