<svg width="177" height="136" viewBox="0 0 177 136" fill="none" xmlns="http://www.w3.org/2000/svg">
<path d="M176.301 29.343C176.122 28.7229 175.543 28.2156 175.143 27.5016C173.626 27.8586 173.147 25.679 171.43 25.9044L171.37 25.8669C171.37 25.8669 171.41 25.8105 171.33 25.5286C171.37 25.491 171.111 25.5286 170.831 25.322C170.252 23.7624 169.194 25.679 166.639 24.0255C163.305 24.2321 160.63 20.9815 155.878 24.1382C155.499 23.9503 154.92 23.4805 153.283 23.5369C153.004 22.6726 153.104 22.635 152.684 19.7601C151.407 18.5952 148.771 16.378 145.737 13.8601C144.1 14.5178 141.564 15.7767 139.828 13.8038C135.256 14.1608 130.604 8.11043 125.154 6.90787C126.652 5.08526 108.844 13.9916 114.394 2.1916C112.976 1.47758 110.94 1.1206 109.044 1.15818C108.684 0.951489 108.285 1.15815 107.686 0.575667C107.606 0.613247 107.486 0.632036 107.367 0.838724C104.053 0.763565 102.236 2.43587 97.9438 4.84098C93.1325 9.10628 85.0472 12.6012 78.4592 15.9458C78.2596 14.4802 80.9147 12.6012 79.2577 10.1773C78.2596 11.2671 77.0418 11.2671 74.9456 10.7974C74.6661 9.93303 74.0672 8.42985 71.4719 7.80978C71.4719 7.64067 69.9746 9.40691 70.7732 10.3276C72.4102 17.6557 65.7822 7.64067 64.9837 15.8518C65.0037 15.9082 65.2033 15.7767 65.6026 15.8143C67.4991 17.6557 62.588 18.5012 65.902 21.0942C66.9401 22.729 66.2015 27.8962 61.9093 26.2615C61.2305 26.7876 60.9111 28.1404 59.1144 28.084C58.8748 30.0758 58.2759 32.0863 56.7387 35.1302C59.2541 37.4038 62.2886 39.8465 60.5917 43.9615V44.0179C59.9728 43.9803 59.873 44.5628 59.314 45.0889C59.0345 44.9574 59.0345 45.0513 58.6352 45.2768L58.5953 45.3519C58.5953 45.3519 58.5953 45.352 58.6352 45.5398L58.5953 45.5774H58.4356V45.6338L58.4955 45.7841C58.4356 46.0848 58.2958 45.9532 57.9165 46.5357C57.9165 46.5357 57.8566 46.5357 57.7169 46.4981H57.657C57.5572 46.6484 57.4973 46.6297 57.2577 47.0242C57.2378 47.1746 57.4374 47.1934 57.2577 47.5879C57.2378 47.6631 57.078 47.6255 56.9383 47.851C56.9383 47.851 56.9782 47.9074 56.9782 48.0765C56.7187 48.1704 56.6189 48.2456 56.1797 47.8886C56.1797 47.9074 56.1797 47.8322 56 47.9262C55.9601 47.8886 55.8603 48.3771 55.6007 48.8469C55.6007 48.8469 55.6007 48.9032 55.6407 49.1099C55.2813 49.5985 55.6806 50.9326 56.7387 50.9513C62.588 49.5609 56.5191 55.5924 59.5136 59.2377C59.314 59.3316 58.6352 59.2752 58.3757 59.9517C58.3158 60.0832 57.8566 60.0268 57.677 60.4402C57.637 60.4402 57.637 60.5342 57.3775 60.4966C57.2577 60.5717 57.2777 60.5342 57.1579 60.7972C55.9401 60.2523 50.3503 67.4864 47.216 64.574C43.2232 63.2587 39.2505 64.0291 33.1216 63.3526C31.6643 63.766 29.1688 65.6826 26.2141 68.0877C25.4156 67.9562 25.2559 66.3027 24.2777 65.9832C20.7042 69.403 9.1851 66.002 8.78583 74.5326C8.22685 74.6266 8.16694 76.5431 6.31032 75.5473C6.17057 75.5849 5.63156 76.1673 4.85298 76.6747C4.57348 77.7269 2.95643 78.1967 2.73683 80.2448C2.67694 80.2448 2.97639 80.3387 3.39563 81.0527C3.39563 81.0527 3.196 81.2406 2.89654 81.4097C2.89654 81.4097 2.79672 81.4285 2.73683 81.3346L2.53718 81.2782C2.39743 81.2782 2.57712 80.9776 1.83847 80.9212L1.59891 80.9963C1.39927 81.2218 1.33936 81.6352 1.85842 82.4056L1.6588 82.7062C1.6588 82.7062 1.55897 82.7062 1.11977 82.819C0.36115 85.5623 0.480928 86.483 0.960057 91.0489C1.87839 88.8881 5.77132 89.6961 7.82758 86.4454C12.6987 87.554 18.9673 88.0237 26.314 89.1511C26.0544 89.3015 27.5517 88.6438 28.3902 89.0948L28.5499 89.3015L28.4301 89.5833C28.5299 89.5833 28.1307 89.6021 27.7314 89.8652C27.3321 91.0865 27.6515 92.12 28.9691 94.0741L29.5082 94.2996C30.4664 93.9989 30.3666 93.6795 31.7241 91.7066L32.343 91.8381C33.0218 92.8152 32.6824 92.4394 32.8621 95.7464C32.922 95.8779 32.8621 95.8403 33.9401 96.3477C33.8603 96.3477 34.1597 96.3101 34.4791 95.8591C34.3194 95.4645 34.3394 94.9196 34.1397 93.548C34.3194 93.3413 34.4392 93.0407 34.8385 92.026C37.6334 92.0636 40.608 90.4852 44.0018 91.6126H44.3013L44.6606 91.2368L44.2813 90.1282L44.6007 89.6773C44.9202 90.6731 48.2142 93.6607 48.2741 89.9027C48.9528 89.9215 48.7332 90.7671 49.2523 91.2556C49.4519 91.1993 49.4719 91.3871 49.971 91.0301C49.971 90.955 50.4102 90.241 50.0508 89.5457C49.8911 89.2451 52.2269 88.3244 53.8439 90.0718L54.2232 89.9967C54.2232 89.9967 54.4029 89.8276 54.7423 89.339C54.9619 89.2075 55.6806 89.3578 56.4791 88.8317C56.579 88.9257 57.3975 89.3766 56.9583 89.9779V90.0531C56.9184 89.9027 57.3176 90.7295 57.9365 90.6731C57.8966 90.6356 58.6153 91.0301 59.853 92.1012C59.9129 92.1387 59.7532 92.1575 60.1724 92.7212C56.9184 96.4604 63.0472 96.5356 61.4301 100.481C61.2505 100.651 61.4701 101.534 60.6715 101.891C60.2323 102.548 60.3321 104.296 61.5699 104.935C60.6915 106.701 64.1851 108.881 63.8458 111.586C63.6461 111.924 66.2015 111.793 66.7005 110.947C67.539 110.572 68.6171 111.962 69.4156 111.098L69.4755 111.154C69.4755 111.154 69.4556 111.267 69.5554 111.549C69.5753 111.549 69.6153 111.624 69.9746 111.737C69.9946 111.774 70.0145 111.793 70.1144 112.037C71.1924 112.131 71.6116 111.812 71.8712 113.559C71.6116 113.916 71.3122 113.747 71.412 114.63L71.4719 114.724C71.0327 115.213 71.3521 114.799 70.6534 116.058C70.5935 116.077 70.7332 116.058 70.0944 116.021C70.0345 115.889 69.196 118.726 69.216 119.309L69.1761 119.403C69.775 120.042 69.5154 121.263 69.216 121.846V121.921C69.0962 122.015 69.1761 121.977 68.657 122.09L68.6171 122.165C68.8367 123.048 69.3757 121.883 70.1543 123.217C69.4755 124.025 67.8984 125.19 69.2359 127.445C70.6334 127.877 71.4918 129.324 73.5082 129.549L73.5481 129.587C73.049 130.094 72.9093 130.151 73.3884 131.109C73.5481 131.24 72.6497 131.222 72.1307 131.804C72.3902 132.405 72.6697 132.142 74.0672 133.307C73.7078 133.984 73.7278 135.017 75.1053 135.186C75.9238 135.149 76.343 134.679 77.3612 134.698L77.441 134.811C77.5009 134.923 77.1815 135.074 77.3612 135.337C77.2614 135.731 79.9165 134.679 80.6552 134.491C80.6951 134.529 80.7351 134.303 80.9746 134.19L81.0744 134.228C81.1743 134.378 81.3939 134.829 81.873 134.867C82.0127 134.867 82.1126 134.266 82.5717 134.322C82.991 135.074 83.3104 134.472 83.2505 133.74L83.3303 133.702C83.3303 133.702 83.3902 133.702 83.6697 133.833C85.3866 131.823 80.1761 133.608 84.2287 131.297C84.2686 131.109 83.9692 131.053 83.8095 130.602C83.9492 130.564 84.2287 130.226 85.167 130.489C84.2886 131.541 84.8675 131.767 86.3049 130.977C86.5844 132.781 88.7804 129.305 88.9601 131.485C89.2795 131.165 91.1362 131.203 91.4356 130.113L91.5155 130.076C94.1507 128.967 97.2451 127.257 100.699 126.975C104.951 125.209 110.661 123.067 116.35 122.259C116.55 122.221 116.67 121.752 117.229 122.071C117.309 122.071 117.349 121.958 117.628 121.864H117.708C118.407 123.067 124.835 119.271 124.715 122.672L124.895 122.616C124.895 122.616 124.895 122.484 125.254 122.24C125.434 122.24 125.334 122.184 125.833 122.334L125.953 122.296C125.953 122.296 126.053 122.015 126.292 121.545C129.407 120.286 131.822 119.384 136.913 116.904C137.292 116.923 137.472 117.223 138.231 116.584C138.869 115.927 138.011 115.175 136.833 115.325C137.492 114.104 137.292 111.868 139.169 110.628C139.229 109.463 140.207 107.133 141.145 105.31C140.247 105.235 140.247 104.596 141.225 104.014C142.623 104.315 143.501 104.352 143.9 102.191C144.04 102.06 144.519 102.304 144.779 101.759L144.539 101.646C144.539 101.646 144.499 101.646 144.499 101.459C144.799 101.158 145.038 100.669 145.637 99.5044C145.517 99.3353 145.378 99.4292 145.038 99.542L144.958 99.4856C145.118 99.2601 145.138 98.6776 145.837 97.9824C145.857 97.306 145.398 97.5878 145.837 96.2537C142.982 94.2808 148.632 92.026 151.986 92.8903C154.162 90.3161 154.361 86.1448 157.915 82.4432C157.935 82.2741 157.476 82.011 157.675 81.5788C157.675 81.5788 157.655 81.5413 157.835 81.5413C159.093 82.3492 159.672 79.6247 159.372 78.1967C159.172 77.1256 160.091 75.7728 157.635 74.7581C157.296 74.5514 157.915 74.3071 157.915 73.424C157.875 73.3676 157.755 73.424 157.535 73.2925C157.555 73.2737 157.396 73.1798 157.535 72.8979V72.8228C156.777 71.6578 155.619 73.0858 154.88 71.7517L154.641 71.6202C154.501 70.8686 155.619 70.7747 156.677 70.9626C156.677 70.9813 156.677 70.925 156.717 71.1316C157.076 72.1275 162.766 69.6097 157.995 68.595C157.535 67.8434 159.472 64.7243 156.937 63.8788C157.016 63.6721 156.557 64.574 155.998 64.3861C155.918 64.4237 156.218 64.217 156.298 63.5593C155.779 62.7514 156.637 62.5635 157.416 61.1355C158.633 60.5905 160.111 59.9517 161.908 60.7033C162.407 59.4819 160.909 59.6322 159.692 57.6217L159.751 57.5654H159.831C161.388 58.0915 165.96 57.509 167.058 56.438L167.138 56.4004H167.198C167.617 57.1896 169.733 57.2459 170.811 58.0163C172.309 53.751 166.679 53.2249 166.24 49.3542C166.08 49.279 166.02 49.636 165.661 49.5045C165.361 49.2227 166 49.1475 165.92 48.5087L165.84 48.4711C165.481 48.6026 165.241 48.4711 164.982 49.2039C164.423 47.1934 164.842 44.2058 166.579 40.88C172.289 42.5335 167.198 37.7421 171.869 35.4685C171.57 35.0739 175.762 32.1239 175.902 29.9067C175.902 29.8879 175.942 29.9443 176.202 29.7751C176.182 29.7751 176.301 29.6248 176.241 29.3805L176.301 29.343Z" fill="#2D73B5"/>
<path d="M176.301 29.343C176.122 28.7229 175.543 28.2156 175.143 27.5016C173.626 27.8586 173.147 25.679 171.43 25.9044L171.37 25.8669C171.37 25.8669 171.41 25.8105 171.33 25.5286C171.37 25.491 171.111 25.5286 170.831 25.322C170.252 23.7624 169.194 25.679 166.639 24.0255C163.305 24.2321 160.63 20.9815 155.878 24.1382C155.499 23.9503 154.92 23.4805 153.283 23.5369C153.004 22.6726 153.104 22.635 152.684 19.7601C151.407 18.5952 148.771 16.378 145.737 13.8601C144.1 14.5178 141.564 15.7767 139.828 13.8038C135.256 14.1608 130.604 8.11043 125.154 6.90787C126.652 5.08526 108.844 13.9916 114.394 2.1916C112.976 1.47758 110.94 1.1206 109.044 1.15818C108.684 0.951489 108.285 1.15815 107.686 0.575667C107.606 0.613247 107.486 0.632036 107.367 0.838724C104.053 0.763565 102.236 2.43587 97.9438 4.84098C93.1325 9.10628 85.0472 12.6012 78.4592 15.9458C78.2596 14.4802 80.9147 12.6012 79.2577 10.1773C78.2596 11.2671 77.0418 11.2671 74.9456 10.7974C74.6661 9.93303 74.0672 8.42985 71.4719 7.80978C71.4719 7.64067 69.9746 9.40691 70.7732 10.3276C72.4102 17.6557 65.7822 7.64067 64.9837 15.8518C65.0037 15.9082 65.2033 15.7767 65.6026 15.8143C67.4991 17.6557 62.588 18.5012 65.902 21.0942C66.9401 22.729 66.2015 27.8962 61.9093 26.2615C61.2305 26.7876 60.9111 28.1404 59.1144 28.084C58.8748 30.0758 58.2759 32.0863 56.7387 35.1302C59.2541 37.4038 62.2886 39.8465 60.5917 43.9615V44.0179C59.9728 43.9803 59.873 44.5628 59.314 45.0889C59.0345 44.9574 59.0345 45.0513 58.6352 45.2768L58.5953 45.3519C58.5953 45.3519 58.5953 45.352 58.6352 45.5399L58.5953 45.5774H58.4356V45.6338L58.4955 45.7841C58.4356 46.0848 58.2958 45.9532 57.9165 46.5357C57.9165 46.5357 57.8566 46.5357 57.7169 46.4981H57.657C57.5572 46.6484 57.4973 46.6297 57.2577 47.0242C57.2378 47.1746 57.4374 47.1934 57.2577 47.5879C57.2378 47.6631 57.078 47.6255 56.9383 47.851C56.9383 47.851 56.9782 47.9074 56.9782 48.0765C56.7187 48.1704 56.6189 48.2456 56.1797 47.8886C56.1797 47.9074 56.1797 47.8322 56 47.9262C55.9601 47.8886 55.8603 48.3771 55.6007 48.8469C55.6007 48.8469 55.6007 48.9032 55.6407 49.1099C55.2813 49.5985 55.6806 50.9326 56.7387 50.9513C62.588 49.5609 56.5191 55.5924 59.5136 59.2377C59.314 59.3316 58.6352 59.2752 58.3757 59.9517C58.3158 60.0832 57.8566 60.0268 57.677 60.4402C57.637 60.4402 57.637 60.5342 57.3775 60.4966C57.2577 60.5717 57.2777 60.5342 57.1579 60.7972C55.9401 60.2523 50.3503 67.4864 47.216 64.574C43.2232 63.2587 39.2505 64.0291 33.1216 63.3526C31.6643 63.766 29.1688 65.6826 26.2141 68.0877C25.4156 67.9562 25.2559 66.3027 24.2777 65.9832C20.7042 69.403 9.1851 66.002 8.78583 74.5326C8.22685 74.6266 8.16694 76.5431 6.31032 75.5473C6.17057 75.5849 5.63156 76.1673 4.85298 76.6747C4.57348 77.7269 2.95643 78.1967 2.73683 80.2448C2.67694 80.2448 2.97639 80.3387 3.39563 81.0527C3.39563 81.0527 3.196 81.2406 2.89654 81.4097C2.89654 81.4097 2.79672 81.4285 2.73683 81.3346L2.53718 81.2782C2.39743 81.2782 2.57712 80.9776 1.83847 80.9212L1.59891 80.9963C1.39927 81.2218 1.33936 81.6352 1.85842 82.4056L1.6588 82.7062C1.6588 82.7062 1.55897 82.7062 1.11977 82.819C0.36115 85.5623 0.480928 86.483 0.960057 91.0489C1.87839 88.8881 5.77132 89.6961 7.82758 86.4454C12.6987 87.554 18.9673 88.0237 26.314 89.1511C26.0544 89.3015 27.5517 88.6438 28.3902 89.0948L28.5499 89.3015L28.4301 89.5833C28.5299 89.5833 28.1307 89.6021 27.7314 89.8652C27.3321 91.0865 27.6515 92.12 28.9691 94.0741L29.5082 94.2996C30.4664 93.9989 30.3666 93.6795 31.7241 91.7066L32.343 91.8381C33.0218 92.8152 32.6824 92.4394 32.8621 95.7464C32.922 95.8779 32.8621 95.8403 33.9401 96.3477C33.8603 96.3477 34.1597 96.3101 34.4791 95.8591C34.3194 95.4645 34.3394 94.9196 34.1397 93.548C34.3194 93.3413 34.4392 93.0407 34.8385 92.026C37.6334 92.0636 40.608 90.4852 44.0018 91.6126H44.3013L44.6606 91.2368L44.2813 90.1282L44.6007 89.6773C44.9202 90.6731 48.2142 93.6607 48.2741 89.9027C48.9528 89.9215 48.7332 90.7671 49.2523 91.2556C49.4519 91.1992 49.4719 91.3871 49.971 91.0301C49.971 90.955 50.4102 90.241 50.0508 89.5457C49.8911 89.2451 52.2269 88.3244 53.8439 90.0718L54.2232 89.9967C54.2232 89.9967 54.4029 89.8276 54.7423 89.339C54.9619 89.2075 55.6806 89.3578 56.4791 88.8317C56.579 88.9257 57.3975 89.3766 56.9583 89.9779V90.0531C56.9184 89.9027 57.3176 90.7295 57.9365 90.6731C57.8966 90.6356 58.6153 91.0301 59.853 92.1012C59.9129 92.1387 59.7532 92.1575 60.1724 92.7212C56.9184 96.4604 63.0472 96.5356 61.4301 100.481C61.2505 100.651 61.4701 101.534 60.6715 101.891C60.2323 102.548 60.3321 104.296 61.5699 104.935C60.6915 106.701 64.1851 108.881 63.8458 111.586C63.6461 111.924 66.2015 111.793 66.7005 110.947C67.539 110.572 68.6171 111.962 69.4156 111.098L69.4755 111.154C69.4755 111.154 69.4556 111.267 69.5554 111.549C69.5753 111.549 69.6153 111.624 69.9746 111.737C69.9946 111.774 70.0145 111.793 70.1144 112.037C71.1924 112.131 71.6116 111.812 71.8712 113.559C71.6116 113.916 71.3122 113.747 71.412 114.63L71.4719 114.724C71.0327 115.213 71.3521 114.799 70.6534 116.058C70.5935 116.077 70.7332 116.058 70.0944 116.021C70.0345 115.889 69.196 118.726 69.216 119.309L69.1761 119.403C69.775 120.042 69.5155 121.263 69.216 121.846V121.921C69.0962 122.015 69.1761 121.977 68.657 122.09L68.6171 122.165C68.8367 123.048 69.3757 121.883 70.1543 123.217C69.4755 124.025 67.8984 125.19 69.2359 127.445C70.6334 127.877 71.4918 129.324 73.5082 129.549L73.5481 129.587C73.049 130.094 72.9093 130.151 73.3884 131.109C73.5481 131.24 72.6497 131.222 72.1307 131.804C72.3902 132.405 72.6697 132.142 74.0672 133.307C73.7078 133.984 73.7278 135.017 75.1053 135.186C75.9238 135.149 76.343 134.679 77.3612 134.698L77.441 134.811C77.5009 134.923 77.1815 135.074 77.3612 135.337C77.2614 135.731 79.9165 134.679 80.6552 134.491C80.6951 134.529 80.7351 134.303 80.9746 134.19L81.0744 134.228C81.1743 134.378 81.3939 134.829 81.873 134.867C82.0127 134.867 82.1126 134.266 82.5717 134.322C82.991 135.074 83.3104 134.472 83.2505 133.74L83.3303 133.702C83.3303 133.702 83.3902 133.702 83.6697 133.833C85.3866 131.823 80.1761 133.608 84.2287 131.297C84.2686 131.109 83.9692 131.053 83.8095 130.602C83.9492 130.564 84.2287 130.226 85.167 130.489C84.2886 131.541 84.8675 131.767 86.3049 130.977C86.5844 132.781 88.7804 129.305 88.9601 131.485C89.2795 131.165 91.1362 131.203 91.4356 130.113L91.5155 130.076C94.1507 128.967 97.2451 127.257 100.699 126.975C104.951 125.209 110.661 123.067 116.35 122.259C116.55 122.221 116.67 121.752 117.229 122.071C117.309 122.071 117.349 121.958 117.628 121.864H117.708C118.407 123.067 124.835 119.271 124.715 122.672L124.895 122.616C124.895 122.616 124.895 122.484 125.254 122.24C125.434 122.24 125.334 122.184 125.833 122.334L125.953 122.296C125.953 122.296 126.053 122.015 126.292 121.545C129.407 120.286 131.822 119.384 136.913 116.904C137.292 116.923 137.472 117.223 138.231 116.584C138.869 115.927 138.011 115.175 136.833 115.325C137.492 114.104 137.292 111.868 139.169 110.628C139.229 109.463 140.207 107.133 141.145 105.31C140.247 105.235 140.247 104.596 141.225 104.014C142.623 104.315 143.501 104.352 143.9 102.191C144.04 102.06 144.519 102.304 144.779 101.759L144.539 101.646C144.539 101.646 144.499 101.646 144.499 101.459C144.799 101.158 145.038 100.669 145.637 99.5044C145.517 99.3353 145.378 99.4292 145.038 99.542L144.958 99.4856C145.118 99.2601 145.138 98.6776 145.837 97.9824C145.857 97.306 145.398 97.5878 145.837 96.2537C142.982 94.2808 148.632 92.026 151.986 92.8903C154.162 90.3161 154.361 86.1448 157.915 82.4432C157.935 82.2741 157.476 82.011 157.675 81.5788C157.675 81.5788 157.655 81.5413 157.835 81.5413C159.093 82.3492 159.672 79.6247 159.372 78.1967C159.172 77.1256 160.091 75.7728 157.635 74.7581C157.296 74.5514 157.915 74.3071 157.915 73.424C157.875 73.3676 157.755 73.424 157.535 73.2925C157.555 73.2737 157.396 73.1798 157.535 72.8979V72.8228C156.777 71.6578 155.619 73.0858 154.88 71.7517L154.641 71.6202C154.501 70.8686 155.619 70.7746 156.677 70.9625C156.677 70.9813 156.677 70.925 156.717 71.1317C157.076 72.1275 162.766 69.6097 157.995 68.595C157.535 67.8434 159.472 64.7243 156.937 63.8788C157.016 63.6721 156.557 64.574 155.998 64.3861C155.918 64.4237 156.218 64.217 156.298 63.5593C155.779 62.7514 156.637 62.5635 157.416 61.1355C158.633 60.5905 160.111 59.9517 161.907 60.7033C162.407 59.4819 160.909 59.6322 159.692 57.6217L159.751 57.5654H159.831C161.388 58.0915 165.96 57.509 167.058 56.438L167.138 56.4004H167.198C167.617 57.1896 169.733 57.2459 170.811 58.0163C172.309 53.751 166.679 53.2249 166.24 49.3542C166.08 49.279 166.02 49.636 165.661 49.5045C165.361 49.2227 166 49.1475 165.92 48.5087L165.84 48.4711C165.481 48.6026 165.241 48.4711 164.982 49.2039C164.423 47.1934 164.842 44.2058 166.579 40.88C172.289 42.5335 167.198 37.7421 171.869 35.4685C171.57 35.0739 175.762 32.1239 175.902 29.9067C175.902 29.8879 175.942 29.9443 176.202 29.7751C176.182 29.7751 176.301 29.6248 176.241 29.3805L176.301 29.343Z" stroke="white" stroke-width="1.15034" stroke-linecap="round" stroke-linejoin="round"/>
</svg>
