<svg width="50" height="27" viewBox="0 0 50 27" fill="none" xmlns="http://www.w3.org/2000/svg">
<path d="M49.4018 1.84115C49.1611 1.275 45.9731 2.12423 44.2888 0.652231C43.2061 0.123821 40.9604 2.63377 39.1759 1.52033C39.1959 1.50146 39.1157 1.52034 39.1558 1.275L39.0957 1.18064C38.4541 1.29387 38.053 1.01079 36.3888 1.72792L36.2084 1.67131L36.0279 1.48259C35.8875 1.29388 35.2058 2.04874 34.0429 2.67151C34.0028 2.72813 34.103 2.91685 34.1832 3.14331C34.2634 3.63397 32.6794 3.40751 31.7571 5.23808L30.4738 6.12506C28.0477 7.93675 23.5964 5.691 21.0901 8.44628C18.4434 7.18187 14.8743 5.20034 11.9068 2.27521C10.1424 2.59603 9.50078 3.3509 8.13733 1.0108C8.07718 1.08629 8.01698 0.878695 7.33525 1.53921C7.1548 4.70967 3.40532 5.18147 0.578159 8.08772C0.85887 9.35213 2.4028 9.78618 4.10711 10.2957C3.92665 11.428 5.49058 11.1261 7.3954 12.2961L7.57591 12.7113C7.73632 12.7302 7.67613 12.3905 9.42055 12.8245C9.58095 12.9 11.0647 14.6551 12.6888 14.1644C13.1099 14.5041 15.5762 14.6551 16.7191 16.5989C17.8218 16.3536 17.7617 16.8065 19.7868 17.8633C19.847 17.8633 19.7668 17.8067 20.4084 17.6557C21.0701 18.2974 20.9498 17.5425 21.2305 19.9392C21.4711 20.1091 22.5738 20.2978 22.9347 21.3735C23.4761 21.4112 23.8772 21.732 25.2406 22.3171C25.4612 22.3171 25.1403 22.1661 25.9423 21.9208L26.1629 21.9774C26.203 22.1095 27.5665 23.0531 27.0251 24.3363L27.1855 24.4873C27.5866 24.4496 27.4863 24.5628 28.6492 24.2797C29.0502 24.5062 29.1706 24.3741 29.5515 25.6762C30.9952 24.091 31.2558 22.468 34.5441 19.5618C36.1682 18.6937 36.9703 16.4857 39.1558 13.9569L39.0355 14.1078C38.7949 14.1644 38.9553 14.1644 38.2736 14.2588C38.2736 14.2965 38.2135 14.1833 38.2135 14.4664L38.1533 14.5419C37.7924 14.825 37.8324 13.1265 36.5291 12.2961L36.87 12.1263C36.87 12.2206 36.9703 11.9376 37.4515 12.5037L37.4114 12.7113L37.9127 13.4284C37.9528 13.5794 37.7924 13.5228 38.2135 14.1456C38.3939 14.1078 38.2937 13.938 39.216 13.3152C39.2561 13.1265 39.4365 12.8434 38.9353 12.0885L39.1358 11.8998C39.5167 12.0885 39.4566 11.881 39.9779 12.7491L39.9378 13.0133C39.9378 13.0133 39.8977 12.9378 39.4766 13.6172C39.5969 13.4851 40.0581 13.2397 40.78 13.202C40.8201 13.2775 40.7599 12.8434 41.3815 11.7677C42.8251 11.6356 43.3464 9.03131 45.2112 7.86126V7.95562C46.8954 6.40813 47.2964 5.21921 49.4218 1.82229L49.4018 1.84115Z" fill="#2D73B5"/>
<path d="M49.4018 1.84115C49.1611 1.275 45.9731 2.12423 44.2888 0.652231C43.2061 0.123821 40.9604 2.63377 39.1759 1.52033C39.1959 1.50146 39.1157 1.52034 39.1558 1.275L39.0957 1.18064C38.4541 1.29387 38.053 1.01079 36.3888 1.72792L36.2084 1.67131L36.0279 1.48259C35.8875 1.29388 35.2058 2.04874 34.0429 2.67151C34.0028 2.72813 34.103 2.91685 34.1832 3.14331C34.2634 3.63397 32.6795 3.40751 31.7571 5.23808L30.4738 6.12506C28.0477 7.93675 23.5964 5.691 21.0901 8.44628C18.4434 7.18187 14.8743 5.20034 11.9068 2.27521C10.1424 2.59603 9.50078 3.3509 8.13733 1.0108C8.07718 1.08629 8.01698 0.878695 7.33525 1.53921C7.1548 4.70967 3.40532 5.18147 0.578159 8.08772C0.85887 9.35213 2.4028 9.78618 4.10711 10.2957C3.92665 11.428 5.49058 11.1261 7.3954 12.2961L7.57591 12.7113C7.73632 12.7302 7.67613 12.3905 9.42055 12.8245C9.58095 12.9 11.0647 14.6551 12.6888 14.1644C13.1099 14.5041 15.5762 14.6551 16.7191 16.5989C17.8218 16.3536 17.7617 16.8065 19.7868 17.8633C19.847 17.8633 19.7668 17.8067 20.4084 17.6557C21.0701 18.2974 20.9498 17.5425 21.2305 19.9392C21.4711 20.1091 22.5738 20.2978 22.9347 21.3735C23.4761 21.4112 23.8772 21.732 25.2406 22.3171C25.4612 22.3171 25.1403 22.1661 25.9423 21.9208L26.1629 21.9774C26.203 22.1095 27.5665 23.0531 27.0251 24.3363L27.1855 24.4873C27.5866 24.4496 27.4863 24.5628 28.6492 24.2797C29.0502 24.5062 29.1706 24.3741 29.5515 25.6762C30.9952 24.091 31.2558 22.468 34.5441 19.5618C36.1682 18.6937 36.9703 16.4857 39.1558 13.9569L39.0355 14.1078C38.7949 14.1644 38.9553 14.1644 38.2736 14.2588C38.2736 14.2965 38.2135 14.1833 38.2135 14.4664L38.1533 14.5419C37.7924 14.825 37.8324 13.1265 36.5291 12.2961L36.87 12.1263C36.87 12.2206 36.9703 11.9376 37.4515 12.5037L37.4114 12.7113L37.9127 13.4284C37.9528 13.5794 37.7924 13.5228 38.2135 14.1456C38.3939 14.1078 38.2937 13.938 39.216 13.3152C39.2561 13.1265 39.4365 12.8434 38.9353 12.0885L39.1358 11.8998C39.5167 12.0885 39.4566 11.881 39.9779 12.7491L39.9378 13.0133C39.9378 13.0133 39.8977 12.9378 39.4766 13.6172C39.5969 13.4851 40.0581 13.2397 40.78 13.202C40.8201 13.2775 40.7599 12.8434 41.3815 11.7677C42.8251 11.6356 43.3464 9.03131 45.2112 7.86126V7.95562C46.8954 6.40813 47.2964 5.21921 49.4218 1.82229L49.4018 1.84115Z" stroke="white" stroke-width="1.15034" stroke-linecap="round" stroke-linejoin="round"/>
</svg>
