<svg width="218" height="256" viewBox="0 0 218 256" fill="none" xmlns="http://www.w3.org/2000/svg">
<path d="M149.531 106.373C149.403 106.442 149.295 106.541 149.213 106.66C149.131 106.78 149.079 106.918 149.061 107.061C149.043 107.205 149.059 107.351 149.109 107.488C149.158 107.624 149.239 107.747 149.345 107.845L151.905 110.265C152.121 110.47 152.242 110.72 152.269 111.017C152.398 112.619 152.667 114.181 153.076 115.702C153.227 116.252 153.192 116.775 152.971 117.271C152.115 119.221 150.758 123.291 148.925 124.383C148.65 124.55 148.491 124.796 148.448 125.119C148.346 125.945 148.583 126.657 149.159 127.255C149.24 127.34 149.3 127.443 149.332 127.555C149.364 127.668 149.367 127.787 149.343 127.901C149.318 128.015 149.265 128.122 149.19 128.211C149.114 128.3 149.018 128.369 148.909 128.412C148.047 128.747 147.783 129.429 148.117 130.459C148.526 131.738 148.887 133.027 149.2 134.327C149.231 134.456 149.227 134.592 149.187 134.719C149.147 134.845 149.073 134.959 148.973 135.047C148.23 135.694 147.848 136.506 147.826 137.482C147.821 137.741 147.697 137.916 147.455 138.008L147.237 138.097C147.202 138.111 147.164 138.116 147.126 138.113C147.088 138.109 147.052 138.098 147.019 138.079C146.986 138.059 146.957 138.033 146.935 138.001C146.912 137.969 146.897 137.933 146.89 137.895C146.685 136.697 146.273 135.584 145.654 134.553C145.503 134.3 145.341 134.152 145.169 134.108C145.051 134.076 144.935 134.079 144.822 134.116C144.569 134.203 144.45 134.381 144.466 134.65C144.531 135.961 143.82 136.608 143.546 137.579C142.883 139.91 142.318 142.259 141.849 144.627C141.357 147.119 143.748 147.903 144.531 150.128C144.628 150.414 144.806 150.482 145.064 150.331L145.969 149.788C146.033 149.751 146.105 149.73 146.179 149.727C146.253 149.725 146.326 149.741 146.391 149.774C146.457 149.807 146.512 149.857 146.553 149.917C146.593 149.978 146.617 150.048 146.623 150.12C146.661 150.568 146.55 150.967 146.292 151.318C146.071 151.614 146.068 151.914 146.284 152.216C147.471 153.858 149.426 152.685 150.799 152.159C151.041 152.067 151.246 152.121 151.413 152.321C151.994 152.995 152.691 153.378 153.505 153.47C154.021 153.535 154.7 153.348 155.54 152.912C157.123 152.092 158.73 151.479 160.362 151.075C160.528 151.034 160.703 151.04 160.867 151.093C161.03 151.146 161.175 151.243 161.286 151.374C161.397 151.506 161.469 151.665 161.494 151.836C161.519 152.006 161.496 152.179 161.428 152.337C161.03 153.243 161.199 154.007 161.937 154.627C162.006 154.684 162.061 154.758 162.096 154.841C162.131 154.924 162.146 155.015 162.14 155.105C162.134 155.196 162.106 155.284 162.06 155.362C162.013 155.441 161.949 155.508 161.872 155.557C159.401 157.135 159.813 159.522 158.011 161.407C157.861 161.563 157.678 161.66 157.462 161.698L154.748 162.135C154.559 162.167 154.379 162.238 154.219 162.344C154.059 162.449 153.923 162.587 153.82 162.749C153.716 162.911 153.648 163.092 153.618 163.282C153.589 163.471 153.6 163.665 153.65 163.85C154.062 165.388 153.521 166.464 152.253 167.451C150.282 168.977 148.626 170.498 147.285 172.014C146.902 172.446 146.669 172.989 146.619 173.564C146.57 174.138 146.707 174.713 147.011 175.202L152.083 183.398C152.239 183.651 152.465 183.776 152.761 183.77L157.43 183.722C157.742 183.722 158.001 183.838 158.205 184.07C158.835 184.765 159.457 185.534 160.531 185.502C161.215 185.48 161.643 185.526 161.816 185.639C162.139 185.855 162.273 186.206 162.22 186.691C162.187 186.955 162.257 187.187 162.43 187.387L165.022 190.3C165.216 190.521 165.456 190.658 165.741 190.712L172.647 192.039C172.756 192.061 172.856 192.112 172.938 192.186C173.02 192.261 173.081 192.356 173.113 192.463C173.145 192.569 173.148 192.682 173.122 192.79C173.095 192.897 173.04 192.996 172.962 193.075C171.971 194.062 171.933 195.221 172.849 196.554C173.01 196.786 173.207 196.98 173.438 197.136C174.623 197.967 174.701 199.057 173.673 200.405C173.607 200.489 173.565 200.588 173.55 200.693C173.535 200.798 173.547 200.905 173.586 201.005C173.626 201.104 173.69 201.192 173.773 201.26C173.856 201.328 173.955 201.373 174.06 201.392C174.868 201.538 175.218 202.023 175.11 202.848C175.073 203.145 175.161 203.396 175.377 203.601L177.138 205.308C177.326 205.491 177.353 205.694 177.218 205.915C176.055 207.849 173.124 212.412 174.246 214.888C174.365 215.152 174.303 215.357 174.06 215.503C172.429 216.473 170.805 218.553 172.437 220.058C172.574 220.184 172.684 220.337 172.76 220.507C172.835 220.677 172.876 220.861 172.878 221.048C172.88 221.234 172.844 221.419 172.773 221.591C172.701 221.763 172.595 221.919 172.461 222.048C171.007 223.451 170.676 225.136 171.468 227.105C171.575 227.369 171.559 227.628 171.419 227.882C170.945 228.766 170.313 229.5 169.521 230.082C169.082 230.404 168.744 230.844 168.546 231.351C168.349 231.859 168.3 232.412 168.406 232.946L168.77 234.767C168.798 234.904 168.779 235.047 168.716 235.173C168.653 235.299 168.55 235.401 168.423 235.463C167.332 235.989 166.654 236.369 166.161 237.583C165.491 239.274 164.021 240.487 163.778 242.202C163.66 243.049 163.63 243.902 163.69 244.759C163.786 246.207 165.257 247.502 163.407 248.991C163.159 249.19 163.006 249.449 162.946 249.767C162.677 251.224 162.144 252.572 161.347 253.813C161.316 253.86 161.275 253.9 161.227 253.929C161.179 253.959 161.126 253.978 161.071 253.985C161.015 253.992 160.959 253.986 160.906 253.969C160.854 253.952 160.806 253.924 160.766 253.886L158.27 251.531C158.119 251.386 157.918 251.302 157.705 251.297C155.928 251.224 154.514 251.151 152.422 251.256C151.157 251.321 149.703 251.051 148.061 250.447C147.188 250.129 146.101 250.221 144.798 250.722C144.555 250.819 144.313 250.814 144.071 250.706C143.026 250.242 141.981 249.776 140.937 249.306C139.636 248.732 138.498 249.193 137.213 248.861C131.489 247.373 125.755 245.94 120.009 244.565C119.708 244.495 119.484 244.322 119.339 244.047L118.612 242.696C118.538 242.563 118.425 242.457 118.288 242.39C118.151 242.324 117.996 242.3 117.845 242.324L111.157 243.368C110.818 243.421 110.576 243.292 110.43 242.979C110.021 242.105 109.838 241.18 109.881 240.204C109.889 239.984 109.843 239.766 109.746 239.569C109.649 239.372 109.504 239.202 109.325 239.075C109.146 238.947 108.937 238.866 108.719 238.839C108.5 238.811 108.278 238.838 108.072 238.918C107.248 239.241 106.524 239.713 105.899 240.333C105.7 240.533 105.465 240.671 105.196 240.746C104.539 240.935 103.99 240.824 103.549 240.414C102.992 239.898 102.339 239.539 101.685 239.391C101.031 239.243 100.41 239.312 99.914 239.589L98.3632 240.455C98.1424 240.579 97.9701 240.53 97.8462 240.309L97.5474 239.799C97.5147 239.742 97.4701 239.691 97.4165 239.652C97.363 239.613 97.3018 239.585 97.2369 239.572C97.172 239.558 97.1049 239.558 97.0401 239.572C96.9753 239.586 96.9141 239.614 96.8608 239.654C95.5739 240.603 94.1767 241.326 92.669 241.822C92.5245 241.87 92.3906 241.941 92.2731 242.033C92.0254 242.221 91.8505 242.451 91.7482 242.72C91.6931 242.859 91.607 242.984 91.4965 243.084C91.3859 243.185 91.2538 243.26 91.1101 243.303C88.8808 243.991 87.6612 245.22 86.3204 246.863C86.1373 247.089 85.8978 247.189 85.6016 247.162C82.9766 246.887 82.807 248.918 81.337 249.808C80.0931 250.552 78.7901 250.585 77.4277 249.905C77.2928 249.837 77.139 249.816 76.9901 249.846C76.8412 249.875 76.7054 249.953 76.6039 250.067L74.4392 252.535C74.2346 252.761 73.9816 252.85 73.68 252.802C72.3069 252.559 71.16 252.926 70.2392 253.902C70.0508 254.096 69.8245 254.182 69.5607 254.161C66.9815 253.972 64.5746 254.552 62.3399 255.9C62.0653 256.068 61.8257 256.024 61.6211 255.771C60.878 254.838 59.9088 254.358 58.7134 254.331C58.4524 254.325 58.1956 254.264 57.9596 254.152C57.7237 254.041 57.5139 253.88 57.3439 253.682C57.174 253.483 57.0477 253.251 56.9733 253C56.8989 252.75 56.8781 252.486 56.9123 252.227C56.9984 251.607 56.9149 251.022 56.6618 250.471C56.6156 250.37 56.5994 250.257 56.6151 250.145C56.6308 250.034 56.6778 249.928 56.7507 249.84C57.4237 249.042 57.7496 248.114 57.728 247.057C57.7227 246.723 57.5718 246.469 57.2757 246.296L54.1822 244.5C54.05 244.425 53.896 244.397 53.746 244.423C53.5959 244.448 53.4591 244.524 53.3584 244.638L51.9772 246.216C51.7403 246.491 51.4764 246.515 51.1856 246.288L50.8384 246.021C50.6947 245.909 50.5277 245.831 50.3497 245.793C50.1718 245.755 49.9875 245.757 49.8106 245.8C49.6337 245.842 49.4687 245.925 49.3278 246.04C49.1869 246.155 49.0738 246.301 48.9968 246.466L48.4556 247.64C48.3985 247.761 48.3022 247.86 48.182 247.921C48.0618 247.981 47.9249 247.999 47.7933 247.971C47.1364 247.826 46.5711 247.952 46.0972 248.352C46.037 248.404 45.9663 248.443 45.8898 248.467C45.8132 248.49 45.7324 248.497 45.6525 248.487C45.5727 248.477 45.4955 248.451 45.4261 248.409C45.3566 248.368 45.2963 248.312 45.2491 248.246C43.4883 245.819 42.1153 245.649 39.1591 246.701C39.0371 246.744 38.9047 246.751 38.7784 246.719C38.652 246.687 38.5373 246.619 38.4483 246.523L37.7133 245.714C37.4064 245.379 37.1345 245.406 36.8975 245.795L36.6875 246.143C36.5421 246.385 36.3294 246.509 36.0494 246.515C34.6117 246.558 33.4756 247.634 32.641 249.743C32.4525 250.229 32.0972 250.461 31.5749 250.439C30.1641 250.396 28.9336 250.833 27.8836 251.75C27.7029 251.905 27.4709 251.984 27.2375 251.968C26.3921 251.903 25.8698 252.289 25.6706 253.125C25.6006 253.427 25.4094 253.562 25.0971 253.53C22.8517 253.303 20.8298 253.826 19.0313 255.099C18.9069 255.188 18.7659 255.249 18.6181 255.279C18.4703 255.308 18.3192 255.305 18.1751 255.269C17.3755 255.075 16.8344 254.679 16.0267 254.598C13.6952 254.366 11.6059 253.5 9.75899 252.001C6.58206 249.411 3.41858 246.876 0.268568 244.395C0.141366 244.297 0.0523589 244.158 0.0169519 244.001C-0.0184551 243.845 0.00197885 243.681 0.074729 243.537L5.09857 233.626C5.22242 233.378 5.41624 233.211 5.68009 233.124C7.47856 232.542 9.03204 231.574 10.3405 230.22C10.5397 230.02 10.7632 229.983 11.0109 230.107L12.7636 231.013C13.0045 231.139 13.1977 231.344 13.3129 231.595C14.1152 233.375 14.756 234.578 15.2352 235.204C15.5044 235.554 15.8221 235.635 16.1882 235.447C16.4628 235.306 16.5301 235.101 16.3901 234.832C16.2986 234.648 16.1748 234.492 16.0186 234.362C15.3402 233.78 15.4021 233.529 16.2044 233.61L21.8744 234.209C22.1809 234.241 22.4894 234.167 22.7493 234C23.0091 233.832 23.2048 233.58 23.3041 233.286C23.5087 232.682 23.9071 232.329 24.4994 232.226C24.7525 232.189 24.9759 232.083 25.1698 231.911C25.9613 231.188 26.2683 230.279 26.0906 229.184C25.886 227.938 26.2898 227.607 27.3021 228.189C29.5717 229.484 31.1387 226.806 33.3437 228.772C33.5214 228.928 33.7314 229.009 33.9737 229.014L42.8745 229.2C43.0004 229.203 43.1255 229.177 43.2402 229.123C43.3549 229.07 43.4563 228.991 43.5368 228.893C44.9179 227.242 46.6626 226.587 46.1134 223.925C46.0944 223.836 46.0952 223.744 46.1157 223.655C46.1363 223.566 46.1761 223.483 46.2324 223.411C46.2886 223.339 46.36 223.28 46.4413 223.239C46.5226 223.198 46.6119 223.175 46.703 223.173C47.9576 223.135 49.0883 222.725 50.0953 221.943C50.2945 221.786 50.3968 221.581 50.4022 221.328L50.491 217.185C50.4964 216.927 50.6203 216.751 50.8626 216.66C51.0296 216.6 51.183 216.514 51.323 216.401C51.4617 216.282 51.5824 216.166 51.6741 216.064C51.7658 215.962 51.8256 215.878 51.848 215.818C52.2895 214.648 52.5292 213.442 52.5669 212.202C52.5776 211.943 52.4618 211.762 52.2195 211.659C50.5153 210.972 50.7656 208.787 48.7625 207.662C48.5364 207.538 48.3076 207.536 48.076 207.654C47.9899 207.703 47.9119 207.77 47.8419 207.857C47.8029 207.907 47.7539 207.948 47.698 207.978C47.6421 208.008 47.5806 208.026 47.5174 208.03C47.4542 208.035 47.3907 208.026 47.3311 208.005C47.2715 207.983 47.2171 207.949 47.1714 207.905L44.7968 205.664C44.5976 205.481 44.5599 205.268 44.6837 205.025L45.2572 203.908C45.3835 203.661 45.4341 203.382 45.4026 203.107C45.2626 201.813 45.7526 200.917 46.8726 200.421C47.0187 200.357 47.1337 200.238 47.1927 200.09C47.2517 199.941 47.2498 199.775 47.1876 199.628L45.0957 194.766C45.0041 194.544 45.0768 194.41 45.3138 194.361L46.388 194.143C46.464 194.127 46.5351 194.093 46.5953 194.044C46.6555 193.995 46.7031 193.932 46.7339 193.86C46.7648 193.789 46.7782 193.711 46.7728 193.634C46.7674 193.556 46.7434 193.481 46.703 193.414C46.5091 193.085 46.3799 192.746 46.3153 192.395C46.2561 192.061 46.3934 191.883 46.7272 191.861C49.3442 191.707 49.5945 193.973 50.6203 195.607C50.7603 195.828 50.9595 195.955 51.218 195.987C51.5464 196.025 51.7619 196.19 51.8642 196.481C51.9288 196.654 51.9153 196.875 51.8237 197.144C51.4791 198.185 51.1184 199.221 50.7415 200.251C50.6499 200.51 50.6768 200.753 50.8222 200.979C51.7107 202.366 52.9437 203.293 54.5214 203.763C54.8068 203.849 55.0841 203.819 55.3534 203.674L56.2741 203.156C56.5918 202.983 56.8288 203.059 56.9849 203.382L57.1304 203.674C57.2596 203.933 57.4615 204.005 57.7361 203.892C59.0015 203.364 60.0864 202.627 60.9911 201.683C61.1634 201.495 61.3546 201.476 61.5646 201.627C62.9296 202.63 66.6935 203.981 66.9277 200.979C66.9492 200.71 67.0892 200.613 67.3476 200.688C67.6815 200.78 67.9184 200.988 68.0584 201.311C68.5053 202.341 69.0546 203.175 69.7061 203.811C69.798 203.904 69.9172 203.965 70.0474 203.987C70.1776 204.009 70.3124 203.99 70.4331 203.933L71.8627 203.253C72.0996 203.134 72.1884 202.946 72.1292 202.687C71.8761 201.57 71.4238 200.559 70.7722 199.653C70.5946 199.404 70.5057 199.129 70.5057 198.827L70.5381 195.745C70.5381 195.313 70.7507 195.054 71.1761 194.968L77.4842 193.69C77.705 193.646 77.9177 193.574 78.1224 193.471C78.3054 193.374 78.5047 193.309 78.72 193.277C78.7701 193.269 78.8214 193.271 78.8703 193.285C78.9192 193.299 78.9645 193.323 79.003 193.356C79.0415 193.39 79.0723 193.431 79.0932 193.477C79.1141 193.524 79.1246 193.574 79.1239 193.625L79.0835 194.79C79.0758 195.074 79.1576 195.353 79.3171 195.587C79.4767 195.822 79.7058 196 79.9722 196.097C80.2386 196.193 80.5286 196.204 80.8011 196.126C81.0736 196.048 81.3148 195.887 81.4904 195.664C81.9965 195.011 82.6319 194.472 83.3965 194.046C83.6388 193.911 83.8435 193.733 84.0104 193.512C84.8665 192.417 85.8843 191.527 87.0635 190.842C88.2481 190.151 89.2066 189.474 89.9389 188.811C91.6513 187.247 93.6812 185.96 96.0289 184.951C96.4866 184.752 96.6481 184.434 96.5135 183.997C96.4327 183.743 96.2739 183.554 96.037 183.43C95.8162 183.312 95.6547 183.142 95.5524 182.921C95.4878 182.786 95.4716 182.61 95.5039 182.395C95.6977 181.127 95.8054 180.148 95.827 179.458C95.8302 179.331 95.8084 179.206 95.7628 179.088C95.7172 178.97 95.6486 178.863 95.5613 178.773C95.4739 178.682 95.3696 178.61 95.2543 178.561C95.139 178.512 95.0152 178.487 94.8901 178.487C94.2386 178.481 93.7539 178.252 93.4362 177.799C93.2316 177.502 93.2208 177.2 93.4039 176.893C93.5762 176.602 93.8508 176.434 94.2278 176.391C94.4241 176.369 94.6101 176.291 94.7639 176.167C94.9178 176.043 95.0332 175.877 95.0967 175.69C95.1602 175.502 95.1692 175.301 95.1226 175.108C95.076 174.916 94.9757 174.741 94.8335 174.603L92.7659 172.613C92.664 172.516 92.5319 172.457 92.3911 172.445C92.2503 172.434 92.1091 172.47 91.9904 172.548C91.4573 172.91 91.0616 173.392 90.8031 173.996C90.5931 174.482 90.2889 174.549 89.8904 174.199L87.645 172.216C87.3973 172.001 87.3946 171.777 87.6369 171.545L92.8224 166.626C93.0378 166.421 93.1912 166.178 93.2827 165.897C93.6112 164.867 94.2574 164.058 95.2212 163.47C95.4366 163.335 95.5443 163.144 95.5443 162.896L95.5281 160.161C95.5276 160.109 95.5158 160.057 95.4936 160.01C95.4714 159.962 95.4393 159.921 95.3995 159.887C95.3596 159.853 95.313 159.828 95.2627 159.814C95.2124 159.8 95.1597 159.797 95.1081 159.805L93.7512 160.007C93.412 160.056 93.2693 159.91 93.3231 159.57C93.3554 159.355 93.5036 159.169 93.7674 159.012C95.2589 158.144 96.8097 157.37 98.4197 156.69C98.6674 156.588 98.7913 156.401 98.7913 156.132L98.7751 154.295C98.7747 154.229 98.7891 154.164 98.8174 154.105C98.8456 154.045 98.8869 153.993 98.9382 153.952C98.9894 153.91 99.0493 153.881 99.1134 153.866C99.1774 153.852 99.2441 153.852 99.3082 153.866C100.078 154.05 100.845 154.066 101.61 153.915C101.933 153.85 102.089 153.651 102.079 153.316L101.521 141.172C101.51 140.929 101.589 140.719 101.756 140.541L103.734 138.477C103.934 138.267 104.176 138.192 104.461 138.251C106.505 138.704 107.24 136.366 105.471 135.403C105.343 135.332 105.238 135.226 105.168 135.097C105.098 134.969 105.066 134.823 105.075 134.678C105.085 134.533 105.135 134.394 105.221 134.277C105.307 134.16 105.424 134.071 105.56 134.019C107.167 133.421 107.991 133.154 110.034 133.016C112.934 132.83 113.483 127.539 113.58 124.731C113.591 124.483 113.489 124.297 113.273 124.173L108.088 121.195C108.034 121.165 107.99 121.121 107.958 121.068C107.927 121.015 107.91 120.954 107.908 120.892C107.906 120.83 107.921 120.768 107.949 120.712C107.978 120.656 108.02 120.608 108.072 120.572L112.692 117.441C112.817 117.357 112.964 117.315 113.112 117.32L114.776 117.344C114.861 117.347 114.946 117.329 115.024 117.293C115.101 117.257 115.17 117.204 115.223 117.136C115.277 117.069 115.315 116.99 115.334 116.905C115.353 116.821 115.353 116.733 115.333 116.648L113.863 110.499C113.811 110.287 113.706 110.091 113.558 109.931C113.409 109.771 113.222 109.652 113.015 109.585L110.091 108.63C109.983 108.595 109.884 108.537 109.801 108.461C109.717 108.385 109.65 108.292 109.604 108.188C109.558 108.084 109.535 107.972 109.535 107.859C109.536 107.745 109.56 107.633 109.606 107.53C110.086 106.456 110.266 105.364 110.147 104.253C110.12 103.998 110.153 103.741 110.245 103.501C110.336 103.262 110.482 103.048 110.673 102.877C110.863 102.705 111.091 102.581 111.338 102.515C111.585 102.45 111.844 102.443 112.094 102.497L121.391 104.496C121.563 104.534 121.741 104.535 121.912 104.498C122.084 104.462 122.244 104.389 122.384 104.285L135.614 94.4955C135.765 94.3829 135.879 94.229 135.944 94.0523C136.009 93.8757 136.021 93.684 135.979 93.5006C135.937 93.3172 135.843 93.1499 135.708 93.0191C135.573 92.8883 135.403 92.7997 135.218 92.764C132.189 92.1896 129.613 87.7072 127.82 85.2719C127.133 84.3333 126.754 83.0307 125.655 82.1245C125.445 81.9573 125.346 81.7388 125.356 81.4691L125.381 80.5225C125.383 80.395 125.355 80.2682 125.297 80.1527C125.239 80.0373 125.154 79.9366 125.049 79.8591C124.414 79.406 123.76 78.9987 123.087 78.6373C121.544 77.7959 120.712 76.3476 119.856 74.9236C118.596 72.8281 119.218 68.5318 119.161 66.0803C119.156 65.7567 119.021 65.4951 118.757 65.2955L115.082 62.496C115.016 62.4469 114.964 62.3802 114.934 62.3033C114.903 62.2265 114.894 62.1426 114.908 62.0611C114.923 61.9795 114.959 61.9036 115.014 61.8418C115.069 61.78 115.141 61.7348 115.22 61.7112L117.15 61.1125C117.32 61.0588 117.478 60.9711 117.614 60.8549C117.749 60.7386 117.86 60.5961 117.939 60.4359C118.018 60.2757 118.064 60.1011 118.074 59.9226C118.085 59.7441 118.059 59.5654 117.998 59.3972C116.803 56.0557 115.026 54.9473 112.926 52.3177C112.759 52.1128 112.675 51.8754 112.675 51.6057C112.667 48.8791 113.33 45.8612 111.932 43.4339C111.814 43.2236 111.636 43.1157 111.399 43.1103C110.936 43.0887 110.613 42.8973 110.43 42.5359C109.396 40.4538 109.819 38.8491 111.698 37.7218C111.791 37.6676 111.864 37.5864 111.909 37.4891C111.954 37.3918 111.968 37.283 111.95 37.1773C111.932 37.0717 111.881 36.9742 111.806 36.898C111.731 36.8218 111.634 36.7704 111.529 36.7509C110.888 36.6214 110.691 36.1036 110.939 35.1974C111.117 34.561 111.348 33.9326 111.634 33.3123C111.747 33.0642 111.741 32.816 111.617 32.5679C111.084 31.5161 111.222 30.5128 110.632 29.6552C109.598 28.1395 108.206 27.948 106.456 29.0807C106.35 29.1501 106.228 29.1906 106.102 29.198C105.975 29.2055 105.849 29.1798 105.735 29.1234C105.622 29.0669 105.525 28.9818 105.455 28.8764C105.384 28.771 105.342 28.649 105.334 28.5225C105.22 27.1632 105.495 25.7635 104.857 24.477C104.469 23.7003 103.775 22.2358 102.999 21.8637C102.832 21.7828 102.797 21.6641 102.894 21.5077L104.534 18.7406C104.669 18.5194 104.717 18.2794 104.679 18.0205C104.604 17.5404 104.763 17.2195 105.156 17.0577C105.317 16.9876 105.638 16.9795 106.117 17.0334C108.217 17.2761 107.74 14.412 110.357 14.4929C110.654 14.5037 110.896 14.3931 111.084 14.1612L111.553 13.5867C112.21 12.7884 112.659 12.8936 112.902 13.9022C113.419 16.0652 114.899 16.7502 117.344 15.9573C117.651 15.8549 117.885 15.6688 118.047 15.3991L118.782 14.1773C118.843 14.0776 118.923 13.9917 119.018 13.9249C119.112 13.8581 119.219 13.8118 119.331 13.789C120.483 13.5517 121.504 13.0608 122.392 12.3164C122.602 12.1384 122.842 12.0656 123.111 12.098C123.908 12.1951 124.444 11.8849 124.718 11.1675C124.831 10.8709 125.041 10.7522 125.348 10.8115C126.377 11.0057 127.384 10.8817 128.369 10.4394C128.644 10.3099 128.762 10.0968 128.724 9.80017L128.482 7.83409C128.478 7.79215 128.482 7.74972 128.495 7.70957C128.508 7.66943 128.529 7.6325 128.557 7.60118C128.586 7.56986 128.62 7.54485 128.659 7.52782C128.697 7.51079 128.739 7.50212 128.781 7.50236L131.067 7.51046C131.207 7.51262 131.345 7.4643 131.454 7.37402C131.563 7.28373 131.638 7.15729 131.664 7.01693C131.718 6.72026 131.638 6.4964 131.422 6.34537C131.266 6.2321 131.258 6.10534 131.398 5.9651L131.6 5.76283C131.697 5.67113 131.804 5.64686 131.923 5.69001C132.618 5.92735 133.234 5.7925 133.772 5.28547C133.993 5.07511 134.211 5.08049 134.427 5.30164C134.491 5.37176 134.564 5.42571 134.645 5.46347C134.893 5.57674 135.132 5.56056 135.364 5.41493C136.893 4.47099 138.331 3.403 139.677 2.21095C141.219 0.859773 142.261 0.835491 144.087 0.204403C146.284 -0.539958 150.338 0.924501 152.438 1.78213C152.713 1.89541 152.942 2.07338 153.125 2.31611L153.892 3.35176C153.987 3.48203 154.125 3.57505 154.281 3.6149C154.437 3.65476 154.603 3.63896 154.748 3.57021C155.314 3.30591 155.909 3.18453 156.533 3.20611C156.666 3.21107 156.799 3.18925 156.922 3.14196C157.046 3.09468 157.158 3.02291 157.252 2.93102C157.828 2.37006 158.361 2.15431 158.851 2.28376C161.797 3.08206 164.732 3.90463 167.655 4.75147C168.641 5.04274 169.545 4.91598 170.369 4.3712C170.443 4.32339 170.527 4.29553 170.612 4.29028L174.392 4.03947C174.709 4.01789 174.973 4.12309 175.183 4.35503C176.788 6.08647 178.715 7.32708 180.966 8.07683C181.197 8.15045 181.401 8.29773 181.548 8.49755C182.915 10.3962 184.563 11.9847 186.491 13.2631C186.975 13.5867 187.88 13.7242 188.381 14.2259C188.607 14.4524 188.639 14.7033 188.478 14.9783C187.993 15.8198 187.7 16.7341 187.597 17.7211C187.57 18.007 187.627 18.2767 187.767 18.5302C188.203 19.3339 188.453 20.1943 188.518 21.1112C188.534 21.4025 188.661 21.6344 188.898 21.807C190.438 22.929 191.52 24.3907 192.145 26.1923C192.219 26.4054 192.339 26.5998 192.496 26.7618C192.653 26.9239 192.843 27.0498 193.053 27.1306C193.263 27.2115 193.488 27.2455 193.712 27.2301C193.936 27.2148 194.153 27.1505 194.35 27.0418L197.241 25.4479C197.548 25.2753 197.826 25.3131 198.073 25.5612L200.157 27.6648C200.222 27.729 200.301 27.7754 200.387 27.7995C200.474 27.8236 200.564 27.8246 200.65 27.8024L201.95 27.4626C202.23 27.387 202.432 27.4787 202.556 27.7376C202.701 28.0289 202.93 28.2204 203.242 28.3121C203.555 28.4038 203.805 28.3175 203.994 28.0532L204.712 27.0337C204.906 26.764 205.13 26.7371 205.383 26.9528C205.792 27.3088 206.269 27.5354 206.812 27.6325C206.974 27.6627 207.12 27.7481 207.225 27.8738C207.329 27.9994 207.386 28.1574 207.386 28.3202C207.386 28.5629 207.475 28.7598 207.652 28.9108C207.746 28.9923 207.867 29.0343 207.992 29.0283C208.117 29.0223 208.235 28.9687 208.323 28.8785L209.946 27.2441C210.129 27.0607 210.334 27.0364 210.56 27.1713C211.196 27.5704 211.898 27.7269 212.668 27.6406C212.73 27.6336 212.793 27.6417 212.851 27.6642C212.909 27.6867 212.961 27.7229 213.002 27.7697C213.044 27.8166 213.073 27.8727 213.088 27.9333C213.103 27.9939 213.103 28.0572 213.088 28.1179C212.851 29.0942 212.824 30.084 213.008 31.0873C213.04 31.2491 213.137 31.3435 213.298 31.3704C213.411 31.3866 213.516 31.4217 213.613 31.4756C213.818 31.5997 213.923 31.7804 213.928 32.0177C213.95 33.1451 214.351 34.1186 215.132 34.9385C215.288 35.1003 215.323 35.281 215.237 35.4806C215.086 35.8636 215.145 36.2627 215.414 36.6781C216.276 37.9942 217.014 39.0163 217.628 39.7445C217.805 39.9495 217.918 40.1868 217.967 40.4565C218.096 41.1739 217.848 41.7376 217.224 42.1475C216.987 42.3093 216.809 42.5224 216.691 42.7867L213.815 49.494C213.777 49.581 213.721 49.6589 213.652 49.723C213.582 49.7871 213.5 49.8358 213.411 49.8662C211.284 50.5836 209.992 52.0318 209.534 54.211C209.499 54.3799 209.427 54.5392 209.325 54.6779C209.222 54.8165 209.09 54.9313 208.939 55.0142C208.788 55.0972 208.621 55.1465 208.449 55.1587C208.277 55.1709 208.105 55.1457 207.943 55.0848C206.796 54.656 205.31 55.3032 204.535 54.2272C204.336 53.9467 204.368 53.6986 204.632 53.4828L205.06 53.1268C205.123 53.0748 205.173 53.0093 205.207 52.9351C205.241 52.8608 205.258 52.7798 205.257 52.6981C205.255 52.6164 205.235 52.5361 205.198 52.4633C205.161 52.3904 205.109 52.3268 205.044 52.2773C204.478 51.8565 204.053 51.3253 203.767 50.6834C203.654 50.4191 203.455 50.3085 203.17 50.3517C201.7 50.5728 200.316 51.0529 199.018 51.7918C198.803 51.9159 198.647 52.0939 198.55 52.3258C197.613 54.5832 195.828 53.1915 194.342 54.2353C194.137 54.3755 193.916 54.424 193.679 54.3809C192.145 54.0896 190.747 56.6787 190.61 57.8923C190.588 58.087 190.515 58.2722 190.397 58.4286C190.279 58.5849 190.122 58.7067 189.941 58.7811C189.76 58.8556 189.563 58.88 189.369 58.8517C189.176 58.8234 188.993 58.7436 188.841 58.6205C187.016 57.1399 185.489 58.8147 183.599 58.8309C183.337 58.8309 183.082 58.9161 182.872 59.0736C181.039 60.4572 179.391 60.7322 177.275 59.4782C175.003 58.1405 172.647 56.8351 170.208 55.5622C170.125 55.5191 170.031 55.4994 169.938 55.5053C169.844 55.5112 169.754 55.5424 169.677 55.5955C169.6 55.6487 169.539 55.7218 169.5 55.8072C169.461 55.8925 169.446 55.9868 169.457 56.08C169.505 56.5115 169.319 56.8999 168.899 57.2451C167.602 58.2915 167.12 59.5833 167.453 61.1206C167.513 61.4119 167.445 61.6681 167.252 61.8892C166.762 62.4448 166.398 63.0732 166.161 63.7744C166.075 64.0387 165.905 64.2329 165.652 64.357L165.426 64.4783C165.286 64.543 165.178 64.6428 165.103 64.7777L162.963 68.4186C162.843 68.6229 162.766 68.8496 162.737 69.0847C162.708 69.3198 162.727 69.5584 162.793 69.7859C163.649 72.7148 164.53 75.6869 165.434 78.7021C165.553 79.085 165.852 79.3197 166.331 79.406C166.595 79.4545 166.794 79.5948 166.928 79.8267C167.747 81.2885 168.635 82.6963 169.594 84.0501C170.587 85.458 174.747 87.7153 176.387 88.2331C178.592 88.9289 179.48 90.0131 180.748 91.7041C180.931 91.9522 180.955 92.2165 180.821 92.497C180.53 93.0688 180.148 93.565 179.674 93.9857C179.453 94.1853 179.195 94.2635 178.898 94.2204C177.057 93.9669 175.302 94.2366 173.632 95.0295C173.385 95.1481 173.245 95.345 173.212 95.6201C173.027 97.3515 171.33 97.1412 170.305 97.9907C170.078 98.1741 169.823 98.2469 169.537 98.2092L167.647 97.9664C167.542 97.956 167.435 97.9786 167.34 98.0312C165.071 99.3257 161.501 98.1363 158.827 98.4519C158.635 98.4758 158.459 98.5709 158.332 98.7188C158.205 98.8667 158.137 99.057 158.141 99.2529C158.178 101.071 157.365 101.877 155.701 101.672C155.4 101.634 155.112 101.68 154.837 101.81C153.572 102.414 152.648 103.363 152.067 104.658C151.943 104.933 151.746 105.143 151.477 105.289L149.531 106.373Z" fill="#6EE66F"/>
</svg>
