<svg width="105" height="69" viewBox="0 0 105 69" fill="none" xmlns="http://www.w3.org/2000/svg">
<path d="M100.904 47.9766C100.424 48.353 100.364 48.3342 100.344 48.353L100.064 48.2966L99.8241 47.9954C100.004 47.5061 99.8241 47.6378 99.8641 47.5813L99.5841 47.3178C99.6241 46.3203 100.784 46.1509 100.704 46.0568H100.924L101.004 46.3203C100.604 47.5625 100.764 47.6566 100.924 47.9766H100.904Z" fill="#2D73B5"/>
<path d="M100.904 47.9766C100.424 48.353 100.364 48.3342 100.344 48.353L100.064 48.2966L99.8241 47.9954C100.004 47.5061 99.8241 47.6378 99.8641 47.5813L99.5841 47.3178C99.6241 46.3203 100.784 46.1509 100.704 46.0568H100.924L101.004 46.3203C100.604 47.5625 100.764 47.6566 100.924 47.9766H100.904Z" stroke="white" stroke-width="1.15034" stroke-linecap="round" stroke-linejoin="round"/>
<path d="M104.423 44.1181C103.583 45.2474 103.743 45.0968 103.484 45.6803L102.264 46.3955C101.644 47.4307 101.624 47.8636 101.624 47.8448L101.364 47.8824L101.104 47.6942C100.684 46.8661 101.664 46.0944 101.404 45.9061C101.904 45.2474 103.124 45.0215 102.904 44.9463L102.704 44.7769C102.044 45.4356 101.504 45.078 101.304 45.2851L101.104 45.5297L100.984 45.5674C100.504 45.2286 100.524 45.0968 100.444 45.1156C100.604 45.9438 99.944 46.245 99.684 46.2261L99.904 45.6615H99.804L99.664 45.7556C99.644 44.2875 99.844 44.5134 99.804 44.0993C99.244 44.4757 99.284 44.6451 99.204 44.7769L99.0641 44.8145V44.8898L99.1641 45.0215H99.204C99.404 45.0968 99.364 45.1721 99.384 45.1721V45.2286H99.2841V45.2851L99.1441 45.3603C98.1642 45.0404 98.3842 44.4569 98.0842 44.344V44.6828H97.9642C97.8842 44.4569 97.7842 44.5134 97.7442 44.4569C98.0242 45.4733 98.2442 45.7744 98.1842 45.6991C97.3043 45.7744 97.2243 45.8685 97.1043 45.8121V45.925C97.7842 46.0003 97.6643 46.0191 97.9042 46.0756L98.0842 46.245L97.8042 46.4143L97.7242 46.6026L97.8242 46.6967L98.0842 46.6026C98.3242 47.0731 98.4042 47.0166 98.4042 47.1107L98.3442 47.4119L98.2042 47.4683C97.8042 47.4307 97.9242 47.5248 97.8642 47.4872C97.6642 47.9201 97.7243 48.033 97.6643 48.0895L97.4643 48.1648C96.9043 48.1648 96.7644 47.5813 96.7644 47.6942C96.4044 47.9954 96.1844 47.6754 96.1244 47.6942L96.0444 47.9013C94.0447 47.9013 93.6048 46.132 93.2048 46.1508C93.4848 47.5248 93.8847 47.4307 94.1447 47.9577L94.0647 48.1271C93.4848 48.1836 93.4248 47.9954 93.4248 48.0518L93.7248 48.5035C94.7446 48.5224 95.0846 48.4283 95.1646 48.5035C95.1046 48.7106 95.0846 48.6729 95.0646 48.7294L94.9246 48.6165H94.8046C94.5846 48.767 94.6446 48.8612 94.6246 48.8423C95.0646 49.0117 95.2046 49.0306 95.2446 49.0682L95.3846 49.2941L95.5645 49.0305C96.2644 49.0494 96.7444 48.7859 96.6844 48.8235C97.3643 49.1623 97.4443 49.2752 97.5442 49.2941C97.3443 49.5199 97.4043 49.4635 97.3243 49.5199L97.4243 49.3882C97.1243 49.7081 97.1643 49.614 96.9843 49.7269L97.3043 49.8587C97.7042 49.5952 97.6443 49.3882 97.7242 49.3882C98.2642 49.3882 98.4642 49.5011 98.5041 49.4634L98.8041 49.2752L99.204 49.7269C96.8243 51.3268 96.9643 53.3031 96.3644 54.2253L96.0844 54.15L95.8645 53.8301L95.6445 53.7736C95.7445 53.4536 95.7245 53.5477 95.7645 53.4348C95.2245 53.4348 95.1845 53.7171 95.1046 53.7736C95.6445 53.736 95.6845 54.3194 95.7445 54.3194L95.6845 54.3759C92.6649 54.0559 93.4248 54.3006 92.7449 54.5829V54.79L92.8049 54.9029C93.0848 54.7711 93.1248 54.677 93.1648 54.677C95.3046 54.5829 95.4245 54.8653 95.9445 54.5453H96.0045C96.2844 55.4487 95.5045 56.5404 95.7045 56.4651C93.1248 56.4275 90.2052 56.0322 90.1852 56.7474L89.9452 56.898C89.3253 56.8604 89.0453 56.9921 89.0453 56.9921C88.6254 56.7662 88.7454 56.8227 88.5854 56.7851C88.4854 56.9356 88.3854 57.0862 88.3654 57.0674C88.0855 57.0109 88.0055 56.898 88.0255 56.9356C87.5855 57.0486 87.6055 57.0486 87.5455 57.0297L87.4655 56.9921C87.4055 56.8227 87.4655 56.8039 87.4655 56.7662C87.4455 56.6721 87.3455 56.6345 87.3655 56.6533C84.9259 57.8767 82.2662 59.3448 81.3863 60.4365C79.5666 61.0388 77.6068 59.2884 77.6068 59.3072V59.119C75.3671 57.6509 75.2471 57.1615 73.4473 56.9733C73.1274 57.1239 73.2273 57.105 73.1473 57.1803C69.4478 58.4602 68.7679 56.0887 68.128 58.5919C67.0681 57.632 65.2883 57.0109 63.9885 56.9168V56.9921C64.2485 57.3874 64.6084 57.2744 64.5484 57.4815C62.5487 57.7262 62.6087 59.6083 61.7888 60.587L61.7088 60.6435H61.6488C60.7289 60.2294 59.4691 61.0388 59.1291 61.3399L59.0491 61.3775H58.9691C58.9291 60.8694 58.7092 60.7564 58.4692 60.8129C58.2492 60.9635 58.2492 61.1329 58.2292 61.114L58.1492 61.1517H58.0693C55.7696 59.6836 52.49 63.015 53.1499 65.0101C55.6696 68.0969 51.2301 67.2123 51.0901 68.3792H51.0102C50.3702 67.551 50.0903 67.1746 49.6903 66.6476C41.5713 67.664 37.8518 63.0903 31.6526 63.3915C31.4926 63.2785 31.4526 63.1091 31.4526 63.1279C25.1334 62.4127 20.594 61.2646 15.5546 61.0388C14.6347 58.6296 14.0348 57.745 13.4749 56.7662C11.9551 54.5453 12.955 52.2302 11.6151 50.668C10.8552 51.1386 11.0152 50.988 10.6953 51.0633C10.4953 49.8963 10.2553 49.6893 9.71537 49.5764C9.49539 49.6893 9.29543 49.727 9.31542 49.7081C8.97547 49.3693 9.03546 49.4635 8.87548 49.3694L8.77548 49.5199C8.81548 49.8964 8.83547 50.0093 8.83547 50.0469L8.77548 50.1599H8.63552C7.73563 49.6517 8.59551 48.7482 8.49552 48.5788L8.43553 48.5035H8.35555C7.47566 49.3693 7.45565 49.1058 6.93572 49.0305L6.81574 49.087C7.25568 49.7458 7.11571 49.6329 7.1957 49.8964C6.3958 49.934 6.65577 49.7646 6.35581 49.8399C6.25582 50.1787 6.25583 50.0846 6.17584 50.1787C5.83588 49.6328 5.77587 49.5011 5.71587 49.4823C4.93597 49.1435 4.73602 49.9716 4.67603 49.8964L4.51604 49.934C3.91612 49.5952 3.97609 50.0093 3.83611 50.0281C3.83611 50.3857 3.83613 50.4798 3.79613 50.5175C3.35619 50.8563 3.29618 50.8563 3.27618 50.9316C3.27618 51.3268 3.37616 51.4774 3.33617 51.4397L3.27618 51.5903L3.1162 51.6468C2.95622 50.8374 2.45629 50.2916 2.09634 50.2916L1.77637 50.3669C1.57639 49.9905 1.63639 49.7834 1.5564 49.7834C0.916476 49.614 0.616529 49.8587 0.696519 49.7834C-0.00339262 46.8096 2.55627 44.2875 3.43616 42.8194C3.81611 35.8742 5.29594 29.5502 6.29582 24.9577C7.25569 24.506 7.0757 24.5624 7.37567 24.2236C8.97546 23.4708 8.49554 23.6966 8.95548 23.3202C10.9552 14.2481 15.6946 6.06075 23.3137 3.25633C26.3333 0.113114 30.0728 2.23994 32.0325 1.14828L32.5925 1.22359C33.6123 2.03292 33.4324 1.76941 33.5124 1.86352C35.1922 1.44944 36.172 1.9388 36.7719 1.91998C37.8118 0.960075 37.9318 2.18348 38.2918 2.33406C39.6116 2.14584 39.1717 0.8848 39.5116 0.696584C42.3913 -0.0186388 44.551 2.72931 45.7508 1.91998C46.3307 2.54109 46.2907 2.44699 46.5307 2.63521C47.0706 2.63521 47.0506 2.40936 47.0906 2.46582C55.4896 2.29643 60.9089 7.84879 66.3482 7.11474L66.5082 7.19004C67.3681 5.72196 68.088 7.54766 68.6879 7.28416C68.8679 6.98301 68.8879 7.0583 68.9079 7.02066C71.1676 7.62295 72.7274 6.30542 73.3273 6.73831V6.47481L73.4673 6.41835C74.0872 6.56892 73.7073 7.35943 73.7873 7.26532L73.9073 7.45355C74.5472 7.71705 74.4272 7.67941 74.6272 7.81116L74.7272 8.0182C77.0069 9.63686 80.9264 13.0812 78.7466 16.2809C79.5465 17.2596 79.1866 18.7842 80.2664 19.2547C80.1465 21.1369 80.4264 21.3251 79.6065 21.7768C79.5665 22.5109 80.6464 23.2637 80.8864 23.0755L80.9464 23.1131V23.1884C81.7663 25.2965 83.946 26.3505 84.226 28.1009C84.4859 29.9454 86.1657 29.2867 85.1058 30.5101C85.2458 30.7736 85.3058 30.7547 85.3058 30.7736V30.8488C84.9059 31.357 84.4059 31.2253 84.3859 31.4323C84.4459 31.7523 84.8859 31.8276 84.7659 31.8088C84.5459 32.4487 84.6459 32.3169 84.6459 32.6369C84.5459 32.8063 84.5459 32.7686 84.5459 32.7875H84.1459C84.026 33.5968 84.3259 34.5002 84.3859 34.9708C86.1057 35.5731 85.5858 35.3096 86.1257 35.3849C87.4855 34.9708 88.4254 35.5166 88.6254 34.9896V34.4438L88.9454 34.5379L89.4053 35.0084C91.405 35.1778 91.305 34.9332 91.485 35.0461C91.405 34.9332 91.4051 34.9331 91.3851 34.9143H91.745C92.3049 35.2719 92.4449 35.4413 92.5049 35.4413H92.5849C93.1248 35.2907 94.0047 35.3472 93.9047 35.2531L93.9647 35.0837H94.1447C94.3047 35.4978 94.2447 35.3849 94.3047 35.5166L94.4246 35.5731C95.3445 34.4061 96.6444 36.2318 97.1043 36.1189C97.1643 36.9659 96.4044 37.1165 96.2444 37.2859C96.0844 38.0011 96.3444 38.2458 96.3044 38.4151C95.5045 39.8644 95.3646 41.7277 96.9443 41.7277C97.5843 40.9561 97.5243 40.1279 98.1642 39.7327C98.2642 39.695 98.3242 39.7327 98.3042 39.7327C99.1241 40.222 99.404 39.8832 99.544 40.5985C100.024 40.6926 100.304 40.5232 100.384 40.6737C100.444 40.862 100.464 40.9184 100.464 40.9372C100.704 40.9749 100.624 40.9373 100.664 40.9561L101.204 40.6173C101.964 43.8358 102.444 44.758 104.183 43.9487L104.263 44.0052L104.323 44.1369L104.423 44.1181Z" fill="#2D73B5"/>
<path d="M104.423 44.1181C103.583 45.2474 103.743 45.0968 103.484 45.6803L102.264 46.3955C101.644 47.4307 101.624 47.8636 101.624 47.8448L101.364 47.8824L101.104 47.6942C100.684 46.8661 101.664 46.0944 101.404 45.9062C101.904 45.2474 103.124 45.0215 102.904 44.9463L102.704 44.7769C102.044 45.4356 101.504 45.078 101.304 45.2851L101.104 45.5297L100.984 45.5674C100.504 45.2286 100.524 45.0968 100.444 45.1156C100.604 45.9438 99.944 46.245 99.684 46.2261L99.904 45.6615H99.804L99.664 45.7556C99.644 44.2875 99.844 44.5134 99.804 44.0993C99.244 44.4757 99.284 44.6451 99.204 44.7769L99.0641 44.8145V44.8898L99.1641 45.0215H99.204C99.404 45.0968 99.364 45.1721 99.384 45.1721V45.2286H99.2841V45.2851L99.1441 45.3603C98.1642 45.0404 98.3842 44.4569 98.0842 44.344V44.6828H97.9642C97.8842 44.4569 97.7842 44.5134 97.7442 44.4569C98.0242 45.4733 98.2442 45.7744 98.1842 45.6991C97.3043 45.7744 97.2243 45.8685 97.1043 45.8121V45.925C97.7842 46.0003 97.6643 46.0191 97.9042 46.0756L98.0842 46.245L97.8042 46.4143L97.7243 46.6026L97.8242 46.6967L98.0842 46.6026C98.3242 47.0731 98.4042 47.0166 98.4042 47.1107L98.3442 47.4119L98.2042 47.4683C97.8042 47.4307 97.9242 47.5248 97.8642 47.4872C97.6642 47.9201 97.7243 48.033 97.6643 48.0895L97.4643 48.1648C96.9043 48.1648 96.7644 47.5813 96.7644 47.6942C96.4044 47.9954 96.1844 47.6754 96.1244 47.6942L96.0444 47.9013C94.0447 47.9013 93.6048 46.132 93.2048 46.1508C93.4848 47.5248 93.8847 47.4307 94.1447 47.9577L94.0647 48.1271C93.4848 48.1836 93.4248 47.9954 93.4248 48.0518L93.7248 48.5035C94.7446 48.5224 95.0846 48.4283 95.1646 48.5035C95.1046 48.7106 95.0846 48.6729 95.0646 48.7294L94.9246 48.6165H94.8046C94.5846 48.767 94.6446 48.8612 94.6246 48.8424C95.0646 49.0117 95.2046 49.0306 95.2446 49.0682L95.3846 49.2941L95.5645 49.0305C96.2644 49.0494 96.7444 48.7859 96.6844 48.8235C97.3643 49.1623 97.4443 49.2752 97.5443 49.2941C97.3443 49.5199 97.4043 49.4635 97.3243 49.5199L97.4243 49.3882C97.1243 49.7081 97.1643 49.614 96.9843 49.7269L97.3043 49.8587C97.7042 49.5952 97.6443 49.3882 97.7243 49.3882C98.2642 49.3882 98.4642 49.5011 98.5042 49.4634L98.8041 49.2752L99.204 49.7269C96.8243 51.3268 96.9643 53.3031 96.3644 54.2253L96.0844 54.15L95.8645 53.8301L95.6445 53.7736C95.7445 53.4536 95.7245 53.5477 95.7645 53.4348C95.2245 53.4348 95.1845 53.7171 95.1046 53.7736C95.6445 53.736 95.6845 54.3194 95.7445 54.3194L95.6845 54.3759C92.6649 54.0559 93.4248 54.3006 92.7449 54.5829V54.79L92.8049 54.9029C93.0848 54.7711 93.1248 54.677 93.1648 54.677C95.3046 54.5829 95.4245 54.8653 95.9445 54.5453H96.0045C96.2844 55.4487 95.5045 56.5404 95.7045 56.4651C93.1248 56.4274 90.2052 56.0322 90.1852 56.7474L89.9452 56.898C89.3253 56.8604 89.0453 56.9921 89.0453 56.9921C88.6254 56.7662 88.7454 56.8227 88.5854 56.7851C88.4854 56.9356 88.3854 57.0862 88.3654 57.0674C88.0855 57.0109 88.0055 56.898 88.0255 56.9356C87.5855 57.0486 87.6055 57.0486 87.5455 57.0297L87.4655 56.9921C87.4055 56.8227 87.4655 56.8039 87.4655 56.7662C87.4455 56.6721 87.3455 56.6345 87.3655 56.6533C84.9259 57.8767 82.2662 59.3448 81.3863 60.4365C79.5666 61.0388 77.6068 59.2884 77.6068 59.3072V59.119C75.3671 57.6509 75.2471 57.1615 73.4473 56.9733C73.1274 57.1239 73.2273 57.105 73.1473 57.1803C69.4478 58.4602 68.7679 56.0887 68.128 58.5919C67.0681 57.632 65.2883 57.0109 63.9885 56.9168V56.9921C64.2485 57.3874 64.6084 57.2744 64.5484 57.4815C62.5487 57.7262 62.6087 59.6083 61.7888 60.587L61.7088 60.6435H61.6488C60.7289 60.2294 59.4691 61.0388 59.1291 61.3399L59.0491 61.3775H58.9691C58.9291 60.8694 58.7092 60.7564 58.4692 60.8129C58.2492 60.9635 58.2492 61.1329 58.2292 61.114L58.1492 61.1517H58.0693C55.7696 59.6836 52.49 63.015 53.1499 65.0101C55.6696 68.0969 51.2301 67.2123 51.0901 68.3792H51.0102C50.3702 67.551 50.0903 67.1746 49.6903 66.6476C41.5713 67.664 37.8518 63.0903 31.6526 63.3915C31.4926 63.2785 31.4526 63.1091 31.4526 63.1279C25.1334 62.4127 20.594 61.2646 15.5546 61.0388C14.6347 58.6296 14.0348 57.745 13.4749 56.7662C11.9551 54.5453 12.955 52.2302 11.6151 50.668C10.8552 51.1386 11.0152 50.988 10.6953 51.0633C10.4953 49.8963 10.2553 49.6893 9.71537 49.5764C9.49539 49.6893 9.29543 49.727 9.31542 49.7081C8.97547 49.3693 9.03546 49.4635 8.87548 49.3694L8.77548 49.5199C8.81548 49.8964 8.83547 50.0093 8.83547 50.0469L8.77548 50.1599H8.63552C7.73563 49.6517 8.59551 48.7482 8.49552 48.5788L8.43553 48.5035H8.35555C7.47566 49.3693 7.45565 49.1058 6.93572 49.0305L6.81574 49.087C7.25568 49.7458 7.11571 49.6329 7.1957 49.8964C6.3958 49.934 6.65577 49.7646 6.35581 49.8399C6.25582 50.1787 6.25583 50.0846 6.17584 50.1787C5.83588 49.6328 5.77587 49.5011 5.71587 49.4823C4.93597 49.1435 4.73602 49.9716 4.67603 49.8964L4.51604 49.934C3.91612 49.5952 3.97609 50.0093 3.83611 50.0281C3.83611 50.3857 3.83613 50.4798 3.79613 50.5175C3.35619 50.8563 3.29618 50.8563 3.27618 50.9316C3.27618 51.3268 3.37616 51.4774 3.33617 51.4397L3.27618 51.5903L3.1162 51.6468C2.95622 50.8374 2.45629 50.2916 2.09634 50.2916L1.77637 50.3669C1.57639 49.9905 1.63639 49.7834 1.5564 49.7834C0.916476 49.614 0.616529 49.8587 0.696519 49.7834C-0.0033926 46.8096 2.55627 44.2875 3.43616 42.8194C3.81611 35.8742 5.29594 29.5502 6.29582 24.9577C7.25569 24.506 7.0757 24.5624 7.37567 24.2236C8.97546 23.4708 8.49554 23.6966 8.95548 23.3202C10.9552 14.2481 15.6946 6.06075 23.3137 3.25633C26.3333 0.113114 30.0728 2.23994 32.0325 1.14828L32.5925 1.22359C33.6123 2.03292 33.4324 1.76941 33.5124 1.86352C35.1922 1.44944 36.172 1.9388 36.7719 1.91998C37.8118 0.960075 37.9318 2.18348 38.2918 2.33406C39.6116 2.14584 39.1717 0.8848 39.5116 0.696584C42.3912 -0.0186388 44.551 2.72931 45.7508 1.91998C46.3307 2.54109 46.2907 2.44699 46.5307 2.63521C47.0706 2.63521 47.0506 2.40936 47.0906 2.46582C55.4896 2.29643 60.9089 7.84879 66.3482 7.11474L66.5082 7.19004C67.3681 5.72196 68.088 7.54766 68.6879 7.28416C68.8679 6.98301 68.8879 7.0583 68.9079 7.02066C71.1676 7.62295 72.7274 6.30542 73.3273 6.73831V6.47481L73.4673 6.41835C74.0872 6.56892 73.7073 7.35943 73.7873 7.26532L73.9073 7.45355C74.5472 7.71705 74.4272 7.67941 74.6272 7.81116L74.7272 8.0182C77.0069 9.63686 80.9264 13.0812 78.7466 16.2809C79.5465 17.2596 79.1866 18.7842 80.2664 19.2547C80.1465 21.1369 80.4264 21.3251 79.6065 21.7768C79.5665 22.5109 80.6464 23.2637 80.8864 23.0755L80.9464 23.1131V23.1884C81.7663 25.2965 83.946 26.3505 84.226 28.1009C84.4859 29.9454 86.1657 29.2867 85.1058 30.5101C85.2458 30.7736 85.3058 30.7547 85.3058 30.7736V30.8488C84.9059 31.357 84.4059 31.2253 84.3859 31.4323C84.4459 31.7523 84.8859 31.8276 84.7659 31.8088C84.5459 32.4487 84.6459 32.3169 84.6459 32.6369C84.5459 32.8063 84.5459 32.7686 84.5459 32.7875H84.146C84.026 33.5968 84.3259 34.5002 84.3859 34.9708C86.1057 35.5731 85.5858 35.3096 86.1257 35.3849C87.4855 34.9708 88.4254 35.5166 88.6254 34.9896V34.4438L88.9454 34.5379L89.4053 35.0084C91.405 35.1778 91.305 34.9332 91.485 35.0461C91.405 34.9332 91.4051 34.9331 91.3851 34.9143H91.745C92.3049 35.2719 92.4449 35.4413 92.5049 35.4413H92.5849C93.1248 35.2907 94.0047 35.3472 93.9047 35.2531L93.9647 35.0837H94.1447C94.3047 35.4978 94.2447 35.3849 94.3047 35.5166L94.4246 35.5731C95.3445 34.4061 96.6444 36.2318 97.1043 36.1189C97.1643 36.9659 96.4044 37.1165 96.2444 37.2859C96.0844 38.0011 96.3444 38.2457 96.3044 38.4151C95.5045 39.8644 95.3646 41.7277 96.9444 41.7277C97.5843 40.9561 97.5243 40.1279 98.1642 39.7327C98.2642 39.695 98.3242 39.7327 98.3042 39.7327C99.1241 40.222 99.404 39.8832 99.544 40.5985C100.024 40.6926 100.304 40.5232 100.384 40.6737C100.444 40.862 100.464 40.9184 100.464 40.9372C100.704 40.9749 100.624 40.9373 100.664 40.9561L101.204 40.6173C101.964 43.8358 102.444 44.758 104.183 43.9487L104.263 44.0052L104.323 44.1369L104.423 44.1181Z" stroke="white" stroke-width="1.15034" stroke-linecap="round" stroke-linejoin="round"/>
</svg>
