<svg width="368" height="311" viewBox="0 0 368 311" fill="none" xmlns="http://www.w3.org/2000/svg">
<path d="M289.68 178.562L288.849 179.534C288.644 179.772 288.391 179.853 288.089 179.777C286.857 179.475 285.955 178.77 285.384 177.663C285.271 177.43 285.253 177.193 285.328 176.95L286.717 172.381C287.185 170.864 286.806 170.604 285.578 171.604C285.557 171.62 285.465 171.803 285.304 172.154C285.099 172.597 284.895 172.597 284.69 172.154L282.841 168.104C282.706 167.807 282.483 167.713 282.171 167.821C281.584 168.02 281.011 167.953 280.451 167.618C280.346 167.555 280.227 167.517 280.105 167.508C279.983 167.499 279.86 167.518 279.747 167.564C279.633 167.611 279.532 167.683 279.451 167.775C279.37 167.867 279.311 167.977 279.28 168.096C279.027 169.063 278.435 169.646 277.503 169.846C277.378 169.871 277.26 169.925 277.159 170.003C277.058 170.081 276.975 170.182 276.919 170.297C276.862 170.411 276.832 170.538 276.831 170.666C276.83 170.794 276.859 170.921 276.914 171.037C277.738 172.781 278.494 174.414 279.183 175.937C279.382 176.38 279.318 176.731 278.989 176.99C278.752 177.174 278.569 177.401 278.44 177.671C277.983 178.605 277.722 179.588 277.657 180.619C277.641 180.884 277.549 181.119 277.382 181.324C277.097 181.68 276.911 182.077 276.825 182.515C276.771 182.79 276.849 183.02 277.059 183.203C277.996 184.024 278.9 184.872 279.772 185.747C280.101 186.076 280.421 186.246 280.733 186.257C281.019 186.273 281.285 186.206 281.533 186.055C281.775 185.914 282.006 185.931 282.227 186.103C282.986 186.687 283.336 187.48 283.277 188.485C283.27 188.605 283.303 188.724 283.372 188.824C283.441 188.924 283.541 188.998 283.656 189.036L284.23 189.214C284.51 189.3 284.679 189.489 284.738 189.781C285.045 191.417 284.537 192.6 283.212 193.329C282.916 193.496 282.763 193.747 282.752 194.082L282.655 197.995C282.65 198.156 282.602 198.314 282.515 198.449C282.428 198.585 282.306 198.694 282.163 198.764C281.495 199.094 280.787 199.226 280.039 199.161C279.837 199.143 279.633 199.168 279.441 199.233C279.248 199.298 279.071 199.402 278.921 199.539C278.771 199.676 278.651 199.843 278.568 200.029C278.485 200.215 278.442 200.416 278.44 200.619L278.424 202.717C278.424 203.004 278.319 203.244 278.109 203.438L276.3 205.107C276.123 205.269 275.913 205.35 275.67 205.35L267.717 205.31C267.593 205.31 267.471 205.282 267.359 205.229C267.248 205.176 267.149 205.098 267.071 205.002C266.059 203.776 264.875 203.625 263.518 204.548C263.157 204.791 262.729 204.916 262.295 204.904C261.861 204.893 261.441 204.746 261.096 204.483C260.46 203.997 259.742 203.841 258.94 204.013C258.272 204.154 258.051 204.545 258.278 205.188C258.552 205.976 258.617 206.776 258.471 207.586C258.418 207.872 258.248 208.056 257.963 208.137C256.864 208.428 256.078 209.101 255.605 210.154C255.502 210.386 255.322 210.486 255.064 210.453L248.604 209.603C248.356 209.57 248.176 209.443 248.063 209.222C247.25 207.678 245.977 206.657 244.244 206.16C243.964 206.079 243.716 206.138 243.501 206.338C241.999 207.732 240.303 208.82 238.414 209.603C238.048 209.755 237.748 210.03 237.566 210.38L232.293 220.749C232.195 220.946 232.167 221.17 232.214 221.384C232.261 221.598 232.38 221.789 232.551 221.924C236.677 225.147 240.642 229.092 245.204 231.523C245.457 231.658 245.527 231.857 245.414 232.122C245.312 232.37 245.129 232.478 244.865 232.446C240.691 231.952 241.143 236.326 238.204 237.833C234.982 239.485 229.434 237.703 231.703 244.289C231.784 244.526 231.938 244.699 232.164 244.807L234.933 246.144C235.082 246.216 235.21 246.328 235.302 246.466C235.394 246.604 235.448 246.764 235.458 246.929C235.468 247.095 235.434 247.259 235.358 247.406C235.283 247.553 235.17 247.676 235.03 247.764C234.121 248.342 233.719 249.141 233.827 250.162C233.859 250.437 233.798 250.688 233.641 250.915C232.979 251.882 232.107 252.503 231.025 252.778C229.984 253.053 229.354 253.572 228.506 254.107C228.307 254.231 228.142 254.196 228.013 254.001L227.868 253.783C227.744 253.599 227.575 253.515 227.359 253.531C226.46 253.596 225.599 253.807 224.775 254.163C224.512 254.277 224.25 254.269 223.992 254.139C223.502 253.896 223.045 253.928 222.619 254.236C222.313 254.458 222.084 254.584 221.933 254.617C221.519 254.698 221.206 254.606 220.996 254.341C220.941 254.273 220.869 254.221 220.787 254.189C220.705 254.158 220.616 254.15 220.53 254.165C220.443 254.18 220.362 254.217 220.295 254.274C220.228 254.331 220.178 254.404 220.148 254.487L218.655 258.699C218.542 259.013 218.318 259.169 217.984 259.169L216.846 259.161C216.308 259.161 216.028 259.429 216.006 259.963C215.952 261.265 215.506 262.391 214.666 263.341C214.472 263.557 214.235 263.633 213.955 263.568C211.864 263.074 210.984 264.265 209.344 264.038C208.742 263.951 208.389 264.21 208.287 264.815C208.174 265.501 208.359 266.052 208.844 266.468C208.96 266.569 209.047 266.699 209.098 266.843C209.149 266.988 209.162 267.143 209.134 267.294L208.997 268.047C208.972 268.188 208.976 268.332 209.01 268.47C209.043 268.608 209.105 268.737 209.191 268.849L209.885 269.765C210.095 270.035 210.157 270.337 210.071 270.672L209.005 274.755C208.898 275.16 208.677 275.238 208.343 274.989L208.036 274.771C207.794 274.593 207.53 274.56 207.245 274.674C205.654 275.305 203.813 276.755 201.754 275.921C201.464 275.808 201.262 275.897 201.149 276.188L200.923 276.78C200.833 277.002 200.678 277.193 200.478 277.331C199.456 278.027 198.82 279.005 198.573 280.263C198.543 280.42 198.476 280.568 198.378 280.693C198.279 280.819 198.152 280.919 198.008 280.984C197.195 281.346 196.306 281.262 195.343 280.733C194.616 280.333 194.089 280.5 193.76 281.235C193.707 281.361 193.698 281.5 193.733 281.631C193.768 281.762 193.846 281.876 193.954 281.956C194.212 282.145 194.412 282.385 194.552 282.677C194.588 282.751 194.605 282.832 194.602 282.914C194.599 282.996 194.576 283.077 194.534 283.147C194.493 283.218 194.434 283.277 194.363 283.32C194.293 283.362 194.214 283.386 194.132 283.39C193.685 283.417 193.278 283.552 192.912 283.795C192.686 283.946 192.46 283.946 192.234 283.795C189.569 282.021 188.382 285.868 186.218 283.868C186.118 283.774 185.997 283.705 185.865 283.667C185.733 283.629 185.594 283.622 185.459 283.647C185.324 283.672 185.197 283.729 185.088 283.812C184.978 283.895 184.89 284.003 184.829 284.127C184.571 284.656 184.165 285.018 183.61 285.212C183.543 285.236 183.472 285.244 183.401 285.236C183.331 285.228 183.263 285.204 183.203 285.165C183.143 285.127 183.093 285.076 183.056 285.015C183.018 284.955 182.996 284.886 182.989 284.815C182.935 284.351 182.975 283.889 183.11 283.43C183.212 283.063 183.077 282.839 182.706 282.758L180.994 282.393C180.617 282.318 180.321 282.439 180.106 282.758C179.573 283.562 178.865 284.14 177.982 284.491C177.718 284.594 177.519 284.772 177.385 285.026C176.771 286.182 175.856 287.005 174.639 287.497C174.392 287.594 174.176 287.548 173.993 287.359C173.557 286.9 173 286.765 172.322 286.954C172.225 286.979 172.136 287.028 172.063 287.098C171.99 287.167 171.934 287.254 171.902 287.351L170.836 290.64C170.798 290.757 170.733 290.864 170.646 290.951C170.559 291.039 170.453 291.104 170.335 291.142C167.453 292.033 158.449 294.098 157.488 297.144C156.988 298.726 157.249 300.187 158.272 301.527C158.321 301.591 158.356 301.665 158.374 301.744C158.391 301.823 158.391 301.905 158.373 301.983C158.356 302.062 158.32 302.135 158.271 302.197C158.221 302.26 158.158 302.31 158.086 302.345C156.945 302.896 155.736 303.068 154.46 302.863C154.321 302.842 154.178 302.861 154.05 302.919C153.923 302.976 153.815 303.069 153.742 303.187C153.677 303.29 153.596 303.379 153.5 303.454C153.327 303.595 153.16 303.587 152.999 303.43L151.57 302.077C151.473 301.991 151.424 301.88 151.424 301.745L151.432 301.316C151.438 300.992 151.29 300.887 150.988 301L149.147 301.68C148.9 301.772 148.682 301.724 148.493 301.535C146.967 300.004 145.958 298.716 143.559 299.558C143.44 299.599 143.313 299.615 143.186 299.605C143.06 299.596 142.937 299.56 142.825 299.501C140.927 298.473 139.239 296.642 137.318 295.97C136.494 295.678 135.668 295.413 134.839 295.176C132.309 294.436 130.309 293.707 128.839 292.989C127.601 292.378 126.398 292.251 125.23 292.608C121.591 293.715 117.882 294.482 114.103 294.908C113.99 294.92 113.876 294.899 113.775 294.847C113.675 294.795 113.592 294.715 113.538 294.617L112.924 293.548C112.84 293.411 112.716 293.303 112.569 293.24L108.782 291.668C108.475 291.539 108.211 291.601 107.99 291.855L106.408 293.726C106.224 293.942 105.993 294.044 105.713 294.034L104.203 293.993C103.929 293.988 103.681 294.066 103.46 294.228C101.727 295.475 100.602 296.728 100.085 297.987C99.3475 299.79 98.8576 300.989 98.6154 301.583C98.5239 301.805 98.5562 302.007 98.7123 302.191L99.5279 303.179C99.7486 303.444 99.7378 303.697 99.4955 303.94C98.9303 304.513 98.2762 304.969 97.5334 305.309C97.3154 305.407 97.1231 305.554 96.9718 305.739C96.8205 305.925 96.7143 306.143 96.6618 306.376C96.6093 306.61 96.6118 306.853 96.6692 307.085C96.7266 307.317 96.8372 307.533 96.9924 307.715C97.3423 308.126 97.598 308.587 97.7595 309.1C97.8038 309.234 97.8015 309.379 97.7531 309.512C97.7047 309.644 97.613 309.756 97.493 309.829L95.6924 310.907C95.5811 310.975 95.4514 311.007 95.3212 310.999C95.1911 310.99 95.0668 310.941 94.9656 310.858C93.3587 309.538 91.6711 307.27 89.6928 306.711C88.8746 306.479 88.0536 306.265 87.23 306.071C86.9608 306.011 86.7482 305.871 86.5921 305.65C85.4778 304.102 85.0094 303.414 84.2666 301.292C83.669 299.585 82.2021 299.08 79.8658 299.777C79.6902 299.83 79.5008 299.814 79.335 299.734C79.1691 299.653 79.0388 299.512 78.9695 299.339C78.6519 298.535 78.0463 298.092 77.1527 298.011C77.085 298.006 77.0201 297.982 76.9653 297.941C76.9106 297.901 76.8682 297.846 76.843 297.783C76.8178 297.72 76.8107 297.651 76.8226 297.583C76.8346 297.516 76.865 297.454 76.9105 297.403C77.936 296.253 78.1701 294.884 77.29 293.491C75.2928 290.316 72.5878 288.137 69.1748 286.954C68.7994 286.825 68.3948 286.809 68.0123 286.91C67.6299 287.011 67.2869 287.224 67.027 287.521C65.9207 288.776 65.2021 290.421 63.7728 291.215C62.6047 291.863 61.2723 292.338 59.7758 292.64C59.707 292.655 59.636 292.654 59.5676 292.637C59.4993 292.621 59.4354 292.589 59.3807 292.545C59.3259 292.501 59.2815 292.445 59.2507 292.382C59.2199 292.319 59.2035 292.249 59.2025 292.179V290.17C59.2023 289.981 59.268 289.798 59.3882 289.651L60.8337 287.991C60.9111 287.902 60.9678 287.796 60.9995 287.683C61.0313 287.569 61.0374 287.449 61.0173 287.333C60.9972 287.217 60.9514 287.106 60.8833 287.01C60.8152 286.913 60.7265 286.833 60.6237 286.776C57.6441 285.091 53.0092 280.619 50.2234 285.309C50.0619 285.579 49.8735 285.601 49.6582 285.374C48.8103 284.459 48.5358 283.876 48.7215 282.515C48.8292 281.705 48.595 281.202 48.019 281.008C47.5316 280.844 47.1234 280.503 46.8752 280.051C46.6269 279.599 46.5568 279.071 46.6786 278.57C46.7701 278.203 46.6005 277.757 46.1699 277.233C45.2547 276.105 44.3531 274.957 43.4649 273.791C43.298 273.569 43.08 273.421 42.8108 273.345C41.4004 272.94 40.4745 272.268 40.0331 271.328C38.8542 268.822 37.5568 266.973 36.141 265.779C35.9646 265.628 35.8521 265.417 35.8261 265.188C35.7077 264.254 35.3335 263.427 34.7037 262.709C34.5099 262.482 34.2677 262.374 33.977 262.385L32.5478 262.434C32.4305 262.438 32.315 262.402 32.2198 262.331C32.1247 262.261 32.0554 262.16 32.0229 262.045C31.1589 258.781 25.7004 254.325 23.0357 252.3C20.8717 250.664 19.5717 248.112 16.6082 248.023C14.097 247.95 12.7485 247.578 10.6087 247.083C8.88876 246.687 7.69368 245.528 5.79611 245.22C5.5754 245.183 5.42467 245.058 5.34393 244.848L4.22152 241.77C4.17367 241.641 4.08766 241.53 3.97505 241.452C3.86245 241.373 3.72868 241.332 3.59172 241.332L0.636332 241.324C0.537856 241.323 0.441037 241.299 0.353243 241.254C0.265449 241.209 0.189004 241.145 0.129787 241.066C0.0705708 240.987 0.0301725 240.895 0.0116035 240.798C-0.00696547 240.701 -0.00322052 240.601 0.0226432 240.506L0.62825 238.351C0.71438 238.049 0.900102 237.83 1.18541 237.695C1.43842 237.576 1.70493 237.506 1.98485 237.484C2.23786 237.463 2.45588 237.366 2.6389 237.193C5.01827 234.973 6.1164 232.222 5.93337 228.938C5.91722 228.636 6.01415 228.38 6.2241 228.169L7.45951 226.913C7.6856 226.687 7.79328 226.414 7.78252 226.095L7.72599 224.297C7.69907 223.444 7.97363 223.333 8.54963 223.965L11.9006 227.667C12.1159 227.904 12.3474 227.921 12.595 227.715C13.0095 227.375 13.3648 226.97 13.6609 226.5C13.8 226.276 14.0226 226.117 14.2799 226.058C14.5372 225.999 14.8083 226.044 15.0336 226.184C15.8788 226.719 16.5382 226.714 17.012 226.168C17.6633 225.412 17.7979 224.821 17.4157 224.394C17.0443 223.978 17.0039 223.533 17.2945 223.058C18.2205 221.535 18.3335 220.452 17.6337 219.809C17.4507 219.636 17.4345 219.45 17.5852 219.25C18.3173 218.262 18.7642 216.885 18.9257 215.119C19.7278 206.354 20.3307 197.576 20.7344 188.785C20.7613 188.201 20.7963 187.626 20.8394 187.059C21.1947 182.377 21.5419 177.692 21.881 173.005C22.1878 168.663 22.7397 164.707 23.5364 161.138C24.4192 157.201 25.3909 153.283 26.4513 149.384C26.5267 149.114 26.6909 148.92 26.9439 148.801C28.3893 148.112 29.8993 148.59 31.1912 148.38C33.3553 148.023 35.4547 148.128 37.5541 146.905C39.9604 145.504 41.0828 146.103 43.1257 147.57C43.4164 147.775 43.6748 147.737 43.9009 147.456L44.8699 146.233C44.9088 146.184 44.9575 146.145 45.0128 146.117C45.0681 146.089 45.1286 146.073 45.1901 146.071C45.2515 146.068 45.3125 146.08 45.3688 146.103C45.425 146.127 45.4752 146.163 45.5158 146.209C47.0877 147.904 49.0364 148.774 51.3619 148.817C51.6419 148.822 51.8653 148.936 52.0322 149.157C52.2582 149.47 52.4197 149.821 52.5166 150.21C52.5459 150.332 52.6081 150.444 52.6965 150.532C52.7848 150.621 52.8958 150.683 53.0173 150.713C55.7842 151.366 58.1851 150.729 60.22 148.801C60.3974 148.633 60.617 148.515 60.8554 148.462C61.0937 148.408 61.3419 148.42 61.5732 148.497C61.8046 148.574 62.0105 148.712 62.1689 148.896C62.3274 149.081 62.4324 149.306 62.4728 149.546C62.7312 151.028 63.2157 152.041 64.7499 152.568C66.4079 153.14 68.0847 153.634 69.7804 154.05C70.9647 154.342 71.9902 154.849 72.8569 155.573C75.7154 157.954 78.555 160.355 81.3758 162.774C81.8441 163.174 82.3071 163.592 82.7647 164.03C82.8305 164.091 82.9112 164.135 82.9988 164.157C83.0864 164.178 83.178 164.176 83.2648 164.152C83.3516 164.128 83.4307 164.081 83.4945 164.017C83.5582 163.953 83.6044 163.874 83.6287 163.787C84.0163 162.361 84.7591 161.162 85.8573 160.19C86.1214 159.956 86.3334 159.668 86.4795 159.346C86.6255 159.023 86.7024 158.673 86.7051 158.319L86.7132 154.909C86.7135 154.84 86.7288 154.773 86.7581 154.711C86.7874 154.65 86.83 154.595 86.8828 154.552C87.2165 154.288 87.588 154.131 87.9971 154.082C88.3954 154.034 88.6135 154.209 88.6511 154.609L88.7238 155.451C88.7354 155.59 88.7908 155.722 88.8821 155.828C88.9734 155.934 89.096 156.009 89.2325 156.043C90.6456 156.391 91.4127 155.33 92.414 155.111C93.8755 154.795 94.9656 155.727 96.2818 155.281C96.3867 155.246 96.4978 155.232 96.6081 155.242C96.7184 155.253 96.8253 155.286 96.9219 155.34C97.0186 155.394 97.1029 155.468 97.1693 155.557C97.2356 155.646 97.2827 155.748 97.3073 155.856C97.5442 156.882 98.1309 157.671 99.0676 158.222C99.3116 158.367 99.602 158.412 99.8795 158.349C100.157 158.286 100.401 158.118 100.561 157.881C101.487 156.494 102.645 155.343 104.034 154.431C104.095 154.391 104.145 154.337 104.18 154.273C104.214 154.209 104.232 154.137 104.231 154.064C104.231 153.991 104.211 153.919 104.175 153.856C104.139 153.793 104.088 153.739 104.025 153.702C102.322 152.624 100.133 152.3 98.9869 150.599C98.1902 149.422 97.345 148.274 96.4514 147.156C96.2845 146.946 96.2091 146.706 96.2253 146.436C96.2979 144.84 96.2576 143.633 96.952 142.134C98.5185 138.759 100.069 135.378 101.603 131.992C102.583 129.822 102.946 127.561 102.693 125.212C102.451 123.041 103.218 121.51 105.212 120.871C107.877 120.02 109.387 118.278 111.713 117.493C113.834 116.78 115.936 116.016 118.019 115.2C118.272 115.103 118.471 114.938 118.617 114.706C119.688 113.016 121.254 112.349 123.316 112.705C125.181 113.029 126.619 115.014 128.492 112.446C128.653 112.225 128.726 111.976 128.71 111.701C128.656 110.864 128.95 110.281 129.59 109.951C131.262 109.092 132.424 110.599 134.225 108.59C134.392 108.401 134.457 108.18 134.419 107.926C134.36 107.521 134.169 107.175 133.846 106.889C133.706 106.765 133.7 106.633 133.829 106.492L133.967 106.346C133.986 106.328 134.012 106.317 134.039 106.317C134.066 106.317 134.092 106.328 134.112 106.346C135.086 107.351 136.222 107.534 137.52 106.897C137.767 106.778 138.026 106.751 138.295 106.816C138.37 106.832 138.443 106.851 138.513 106.873C138.669 106.916 138.814 106.9 138.949 106.824C139.396 106.576 139.452 106.171 139.118 105.609C138.908 105.258 138.712 104.872 138.529 104.451C138.421 104.208 138.483 104.027 138.715 103.908C140.305 103.074 141.751 101.818 143.463 101.446C146.095 100.879 147.896 101.267 149.446 98.6105C149.515 98.4913 149.554 98.357 149.558 98.2197C149.562 98.0825 149.532 97.9467 149.47 97.8248C148.851 96.5773 147.898 95.7484 146.612 95.3379C146.294 95.2353 146.098 95.022 146.022 94.698C145.888 94.0608 145.489 93.761 144.827 93.7988C144.754 93.8037 144.681 93.7871 144.617 93.7512C144.553 93.7152 144.501 93.6614 144.466 93.5963C144.432 93.5311 144.418 93.4574 144.424 93.3841C144.431 93.3108 144.459 93.241 144.504 93.1832C145.409 92.0005 146.574 91.2202 148.001 90.8422C149.303 90.502 149.753 89.6433 149.349 88.2662C148.437 85.1962 149.753 82.2719 149.446 79.1128C149.414 78.7941 149.492 78.5079 149.68 78.2541L150.1 77.679C150.235 77.491 150.296 77.2599 150.27 77.0309C150.081 75.427 150.598 74.1202 151.82 73.1103C152.024 72.9429 152.256 72.8916 152.514 72.9564C154.59 73.4829 155.526 74.2768 157.836 74.05C158.191 74.0122 158.393 73.8151 158.441 73.4586C158.527 72.708 158.256 72.0789 157.626 71.5713C157.603 71.5528 157.584 71.5293 157.572 71.5025C157.559 71.4757 157.552 71.4462 157.552 71.4162C157.552 71.3861 157.559 71.3561 157.572 71.3283C157.584 71.3005 157.603 71.2756 157.626 71.2553C159.023 70.0808 158.579 69.1735 157.836 67.5777C156.608 64.9127 160.169 63.8515 161.97 64.3213C162.632 64.4941 163.324 64.5832 164.045 64.5886C164.298 64.5886 164.532 64.6589 164.748 64.7993C166.112 65.6741 170.142 68.8171 171.482 66.9621C171.53 66.8951 171.595 66.8419 171.67 66.8079C171.745 66.7739 171.827 66.7603 171.909 66.7686C171.991 66.7768 172.069 66.8065 172.136 66.8547C172.203 66.9029 172.256 66.9678 172.289 67.0431C172.537 67.5885 172.882 68.0448 173.323 68.4121C173.389 68.4674 173.466 68.5089 173.549 68.534C173.631 68.5591 173.718 68.5674 173.804 68.5583C173.889 68.5493 173.973 68.523 174.048 68.4812C174.124 68.4394 174.19 68.3828 174.244 68.3149C175.417 66.8082 176.957 66.3492 178.862 66.9378C178.969 66.971 179.082 66.9769 179.192 66.955C179.301 66.9331 179.403 66.8841 179.489 66.8125C179.575 66.7409 179.642 66.6489 179.683 66.5448C179.725 66.4408 179.739 66.3281 179.726 66.2168L179.678 65.7875C179.665 65.6758 179.681 65.563 179.723 65.4596C179.766 65.3561 179.833 65.2655 179.92 65.1962C181.013 64.3051 181.777 63.19 182.213 61.8507C182.299 61.5753 182.281 61.308 182.157 61.0488L181.793 60.2792C181.653 59.9876 181.659 59.6987 181.81 59.4125C182.746 57.6547 182.092 55.986 182.229 54.4307C182.321 53.3777 182.361 52.33 182.351 51.2877C182.349 51.1162 182.383 50.9462 182.45 50.7884C182.518 50.6305 182.617 50.4882 182.742 50.3704C182.867 50.2525 183.015 50.1617 183.177 50.1035C183.339 50.0453 183.511 50.021 183.683 50.0322C185.147 50.1294 186.485 49.7865 187.696 49.0034C187.933 48.8522 188.181 48.8279 188.439 48.9305C189.981 49.5623 191.54 50.2995 192.904 48.8252C192.99 48.7315 193.099 48.662 193.219 48.6237C193.34 48.5853 193.468 48.5794 193.591 48.6065C196.056 49.1465 198.519 49.2437 200.979 48.8981C203.676 48.5174 205.509 50.4615 207.431 52.4218C207.625 52.6216 207.856 52.7485 208.125 52.8025C210.526 53.2885 212.329 52.5514 213.535 50.5911C214.456 49.0925 213.697 47.8369 212.05 47.5777C211.884 47.5516 211.729 47.478 211.603 47.3656C211.478 47.2532 211.388 47.107 211.344 46.9444C211.299 46.7818 211.303 46.6098 211.353 46.4492C211.404 46.2885 211.5 46.1459 211.63 46.0386L216.563 41.9803C216.784 41.7991 217.055 41.6904 217.339 41.6688C217.623 41.6473 217.907 41.7141 218.152 41.86C218.397 42.006 218.592 42.2241 218.709 42.4847C218.826 42.7454 218.861 43.0359 218.808 43.3169C218.657 44.1324 218.873 44.8722 219.454 45.5364C219.632 45.7362 219.855 45.8416 220.124 45.8524C220.889 45.874 221.551 45.6417 222.111 45.1557C222.337 44.9613 222.598 44.8722 222.894 44.8884C225.672 45.0342 228.223 44.3537 230.961 44.7912C232.592 45.0585 233.544 45.2286 235.2 44.5968C237.235 43.8083 239.34 43.7462 241.514 44.4105C241.805 44.5023 242.034 44.6751 242.201 44.9289L243.864 47.44C244.16 47.8829 244.542 47.9747 245.011 47.7154C245.393 47.494 245.711 47.2105 245.964 46.8649C246.173 46.5787 246.432 46.5193 246.739 46.6867C247.761 47.2429 248.572 48.0314 249.169 49.052C249.244 49.1841 249.35 49.2954 249.478 49.376C249.607 49.4566 249.753 49.504 249.904 49.5137L253.836 49.7892C253.906 49.7947 253.976 49.7859 254.043 49.7633C254.109 49.7408 254.17 49.7049 254.222 49.658C254.274 49.611 254.316 49.5539 254.346 49.4901C254.375 49.4263 254.392 49.3572 254.394 49.2869C254.415 48.7091 254.528 48.1529 254.733 47.6182C254.758 47.5514 254.801 47.4932 254.857 47.4503C254.914 47.4074 254.982 47.3815 255.054 47.3756C255.125 47.3697 255.197 47.384 255.262 47.4169C255.326 47.4497 255.381 47.4999 255.419 47.5615C255.618 47.8801 255.903 48.0773 256.275 48.1529C256.549 48.2069 256.768 48.1178 256.929 47.8855L258.092 46.1764C258.259 45.9388 258.482 45.801 258.762 45.7632C260.329 45.5445 263.494 46.4518 264.43 45.0018C264.469 44.9427 264.52 44.8932 264.58 44.857C264.641 44.8208 264.709 44.7988 264.779 44.7926C264.85 44.7863 264.921 44.7961 264.988 44.8211C265.055 44.8461 265.115 44.8857 265.165 44.937C265.634 45.4284 266.207 45.693 266.885 45.7308C267.122 45.7416 267.343 45.8091 267.547 45.9333C269.679 47.2942 271.286 44.7183 272.489 43.5599C273.224 42.8633 273.724 41.8831 273.329 40.984C273.265 40.836 273.236 40.6756 273.244 40.5147C273.252 40.3539 273.296 40.1968 273.373 40.0555C273.45 39.9143 273.558 39.7924 273.689 39.6992C273.819 39.6061 273.97 39.544 274.128 39.5178L279.546 38.6349C279.842 38.5863 280.112 38.651 280.354 38.8293C281.969 40.0362 283.737 38.5457 285.449 38.6186C285.736 38.6289 286.016 38.5401 286.24 38.3675C287.042 37.7357 287.968 37.463 289.018 37.5494C289.295 37.5702 289.572 37.4929 289.801 37.3307C291.222 36.3262 292.587 34.3011 294.565 34.9897C294.689 35.0329 294.821 35.0511 294.952 35.0431C295.083 35.0351 295.211 35.0012 295.329 34.9432C295.447 34.8852 295.552 34.8043 295.639 34.7052C295.725 34.6061 295.791 34.4908 295.833 34.3659C296.022 33.7989 296.315 33.2994 296.713 32.8673C296.907 32.6567 297.147 32.5514 297.432 32.5514C299.225 32.5514 301.284 32.9726 302.067 30.8017C302.422 29.8081 302.998 29.6596 303.795 30.3562L305.757 32.0735C305.804 32.1153 305.858 32.1473 305.918 32.1675C305.977 32.1878 306.04 32.1959 306.102 32.1913C306.165 32.1868 306.226 32.1697 306.282 32.1411C306.337 32.1125 306.387 32.073 306.427 32.0249C307.482 30.745 308.855 30.2104 310.545 30.421C310.836 30.4588 311.108 30.3994 311.361 30.2428C313.275 29.0844 316.23 27.0188 316.795 24.8317C316.943 24.2664 317.296 23.7775 317.786 23.4622C318.275 23.147 318.864 23.0286 319.436 23.1306C320.292 23.2818 321.104 23.2008 321.874 22.8876C322.015 22.8297 322.165 22.8046 322.315 22.8145C322.465 22.8243 322.61 22.8687 322.738 22.9443C324.143 23.749 325.64 24.1972 327.228 24.289C328.439 24.3538 329.238 23.6004 330.635 23.6166C330.762 23.619 330.887 23.5934 331.003 23.5416C331.119 23.4898 331.222 23.4131 331.306 23.3169C331.661 22.9227 331.906 22.4718 332.04 21.9641C332.116 21.6941 332.288 21.5456 332.557 21.5186C332.966 21.4754 333.357 21.4619 333.728 21.4781C334.191 21.5051 334.471 21.3431 334.568 20.9921C334.592 20.9086 334.59 20.8197 334.563 20.7373C334.535 20.6549 334.483 20.5827 334.414 20.5304C333.308 19.7041 331.839 18.4972 331.935 17.0067C331.995 16.0238 332.552 15.3974 333.607 15.1274C333.684 15.1081 333.755 15.0717 333.816 15.0207C333.877 14.9698 333.926 14.9056 333.958 14.8331C333.991 14.7606 334.007 14.6817 334.005 14.6021C334.003 14.5226 333.983 14.4446 333.946 14.374C333.418 13.3696 333.357 12.7269 333.76 12.4461C335.02 11.5713 334.888 11.0772 333.365 10.9638C333.09 10.9422 332.592 11.1015 331.871 11.4417C331.069 11.8197 330.727 11.5335 330.845 10.583C330.866 10.4008 330.956 10.2351 331.096 10.1213C332.904 8.63082 332.517 7.47246 333.583 5.67416C333.723 5.44735 333.76 5.20434 333.696 4.94513L333.397 3.74626C333.365 3.61598 333.378 3.47907 333.434 3.35923C333.49 3.2394 333.585 3.14419 333.704 3.09012L334.891 2.52308C335.128 2.40968 335.262 2.22607 335.295 1.97226L335.496 0.360278C335.506 0.286178 335.535 0.216047 335.581 0.157372C335.627 0.0986959 335.689 0.0536672 335.758 0.0270694C335.828 0.000471655 335.903 -0.00670038 335.977 0.00632888C336.05 0.0193581 336.118 0.0520999 336.175 0.101058C337.854 1.55914 337.612 3.70575 337.555 6.20069C337.55 6.4977 337.687 6.70022 337.967 6.80822C339.168 7.27265 340.277 7.15384 341.294 6.4518C341.52 6.29519 341.741 6.2979 341.956 6.45991C343.103 7.31315 343.757 8.45262 343.918 9.87829C343.929 9.96372 343.921 10.0521 343.894 10.1375L342.861 12.8593C342.748 13.1617 342.809 13.4236 343.046 13.645L343.458 14.0257C343.641 14.1931 343.66 14.374 343.515 14.5684L342.271 16.2209C342.191 16.3272 342.135 16.4508 342.108 16.5826C342.082 16.7144 342.085 16.851 342.118 16.9824L342.747 19.6231C342.807 19.8715 342.93 20.0794 343.119 20.2468L345.025 21.9398C345.096 22.0038 345.153 22.0822 345.191 22.1702C345.23 22.2581 345.251 22.3535 345.251 22.4502L345.186 29.0925C345.186 29.3289 345.263 29.5568 345.404 29.7406C347.31 32.1059 349.183 33.4668 350.354 36.3505C350.379 36.4145 350.391 36.4827 350.39 36.5513C350.389 36.6199 350.375 36.6874 350.348 36.75C350.321 36.8125 350.282 36.8689 350.233 36.9157C350.184 36.9626 350.126 36.999 350.063 37.0229L346.825 38.2865C346.728 38.3245 346.642 38.3878 346.577 38.47C346.512 38.5522 346.47 38.6503 346.455 38.7542C346.44 38.8581 346.453 38.9641 346.493 39.0613C346.532 39.1585 346.597 39.2433 346.68 39.3072L351.291 42.8552C351.56 43.0604 351.694 43.3331 351.694 43.6733V50.9637C351.694 51.2175 351.764 51.4551 351.904 51.6765C353.665 54.5279 354.561 56.1723 357.274 57.1687C357.554 57.2713 357.683 57.4738 357.662 57.7762L357.597 58.6672C357.59 58.7981 357.613 58.929 357.665 59.0499C357.717 59.1707 357.796 59.2781 357.896 59.3639C358.937 60.2468 359.398 61.4619 360.019 62.3124C361.804 64.7264 364.687 69.7486 367.699 70.3967C367.77 70.4118 367.836 70.4475 367.888 70.4995C367.94 70.5515 367.976 70.6175 367.992 70.6895C368.007 70.7615 368.001 70.8365 367.975 70.9053C367.949 70.9741 367.903 71.0338 367.844 71.0771L355.037 80.5465C354.94 80.6167 354.852 80.6086 354.771 80.5222C354.722 80.4682 354.666 80.4115 354.601 80.3521C354.547 80.3035 354.483 80.2738 354.407 80.263C351.081 79.9957 347.843 78.7644 344.621 78.3513C344.253 78.3042 343.88 78.3969 343.577 78.6113C343.274 78.8257 343.061 79.1461 342.982 79.5097L341.924 84.216C341.622 85.5607 342.139 86.4005 343.474 86.7353L345.719 87.3104C346.01 87.386 346.19 87.5669 346.26 87.8531L347.35 92.3003C347.388 92.4407 347.45 92.5703 347.536 92.6891L347.689 92.8835C347.718 92.9222 347.735 92.9682 347.739 93.0162C347.743 93.0641 347.733 93.1122 347.712 93.1551C347.69 93.198 347.656 93.234 347.615 93.259C347.574 93.284 347.527 93.297 347.479 93.2966L346.486 93.248C346.19 93.2372 345.918 93.3155 345.671 93.4829L339.978 97.363C339.877 97.4315 339.795 97.5248 339.741 97.634C339.686 97.7431 339.661 97.8645 339.667 97.9865C339.672 98.1084 339.709 98.2269 339.773 98.3305C339.838 98.4341 339.928 98.5193 340.034 98.5781L345.646 101.681C345.786 101.757 345.899 101.874 345.97 102.016C346.04 102.158 346.066 102.318 346.042 102.474C345.735 104.483 345.566 108.939 342.804 109.076C340.995 109.163 339.292 109.66 337.693 110.567C337.413 110.729 337.27 110.972 337.265 111.296C337.259 112.387 337.736 113.202 338.694 113.742C339.238 114.045 339.2 114.19 338.581 114.18L337.515 114.155C337.187 114.15 336.909 114.266 336.683 114.504L334.204 117.071C334.107 117.171 334.032 117.289 333.982 117.417C333.932 117.545 333.909 117.681 333.914 117.817L334.366 129.538C334.37 129.65 334.346 129.761 334.298 129.861C334.249 129.962 334.177 130.049 334.088 130.115C333.998 130.18 333.894 130.223 333.785 130.238C333.676 130.253 333.565 130.241 333.462 130.202C333.235 130.121 333.025 129.992 332.832 129.813C332.727 129.715 332.6 129.644 332.461 129.607C332.323 129.571 332.177 129.569 332.038 129.603C331.898 129.636 331.769 129.705 331.663 129.801C331.556 129.897 331.475 130.018 331.427 130.154C331.174 130.872 331.12 131.606 331.265 132.357C331.29 132.487 331.271 132.621 331.211 132.74C331.152 132.859 331.054 132.955 330.934 133.013C328.972 133.985 325.613 134.973 325.476 137.59C325.459 137.898 325.605 138.054 325.912 138.06L327.163 138.076C327.486 138.076 327.656 138.238 327.672 138.562L327.72 139.469C327.742 139.788 327.626 140.042 327.373 140.231C326.544 140.862 325.982 141.678 325.686 142.677C325.616 142.915 325.481 143.109 325.282 143.26C323.328 144.724 321.578 146.417 320.033 148.339C319.543 148.944 319.589 149.506 320.17 150.024L322.924 152.446C323.042 152.549 323.181 152.624 323.332 152.667C323.482 152.71 323.64 152.719 323.793 152.693C323.947 152.667 324.093 152.608 324.22 152.519C324.348 152.43 324.454 152.314 324.531 152.179L325.161 151.085C325.196 151.025 325.242 150.973 325.297 150.932C325.353 150.89 325.416 150.861 325.482 150.844C325.549 150.827 325.619 150.824 325.687 150.835C325.755 150.846 325.821 150.87 325.879 150.907C326.353 151.209 326.722 151.614 326.986 152.122C327.136 152.408 327.066 152.616 326.776 152.746L326.202 153.013C325.915 153.148 325.671 153.363 325.499 153.631C325.327 153.899 325.235 154.211 325.232 154.529C325.23 154.847 325.317 155.159 325.485 155.428C325.652 155.698 325.893 155.914 326.178 156.051L327.656 156.772C327.835 156.858 327.988 156.991 328.097 157.158C328.207 157.325 328.268 157.518 328.276 157.718C328.283 157.917 328.236 158.115 328.14 158.289C328.043 158.464 327.901 158.608 327.728 158.708C327.497 158.848 327.252 159.059 326.994 159.34C326.719 159.642 326.622 159.928 326.703 160.198C326.811 160.587 327.187 160.846 327.833 160.976C328.366 161.078 328.396 161.259 327.922 161.519C326.315 162.401 324.83 163.122 323.376 164.394C321.721 165.836 319.444 167.788 317.377 168.533C317.086 168.641 316.922 168.86 316.884 169.19C316.852 169.487 316.723 169.73 316.496 169.919L314.179 171.879C314.108 171.938 314.021 171.974 313.93 171.981C313.838 171.989 313.746 171.969 313.666 171.923C313.587 171.878 313.523 171.809 313.483 171.725C313.443 171.642 313.43 171.549 313.444 171.458C313.53 170.918 313.528 170.383 313.436 169.854C313.415 169.731 313.358 169.618 313.273 169.529C313.189 169.439 313.079 169.378 312.96 169.352C312.007 169.133 311.385 169.724 310.658 169.862C308.624 170.256 306.589 170.648 304.554 171.037C301.873 171.555 302.317 176.018 303.496 177.59C303.876 178.092 304.182 178.772 304.15 179.291C304.08 180.339 303.773 180.411 303.23 179.51C302.164 177.744 301.526 176.253 299.039 176.707C298.786 176.755 298.646 176.909 298.619 177.169C298.571 177.611 298.63 178.049 298.797 178.481C298.899 178.762 298.802 178.905 298.506 178.91C297.171 178.953 296.04 178.489 295.115 177.517C294.565 176.944 294.097 177.004 293.71 177.695C293.193 178.602 292.426 179.204 291.408 179.501C291.161 179.572 290.961 179.504 290.811 179.299L290.27 178.578C290.081 178.33 289.885 178.324 289.68 178.562Z" fill="#FCE47C" fill-opacity="0.996"/>
</svg>
