<svg width="67" height="77" viewBox="0 0 67 77" fill="none" xmlns="http://www.w3.org/2000/svg">
<path d="M65.8441 29.5069C65.4444 28.8673 64.8248 28.7733 62.0668 27.7575C62.0268 27.7575 62.1268 27.7951 61.6871 27.9644C59.9884 26.7982 59.9284 28.3218 58.0297 24.3904C54.5522 23.638 50.2353 18.4275 46.8578 14.0634L46.5979 14.4208C45.8385 14.308 42.9805 13.6308 41.6615 11.8438C41.8014 11.919 40.7821 11.6181 40.2425 11.1478L39.9428 11.223C39.8628 11.1102 39.2232 8.98459 37.3446 9.32318C36.4252 8.42028 36.0055 8.55195 34.0869 7.17879C34.2668 7.23522 33.3275 6.76496 32.9677 6.46399C32.4281 6.55804 30.6694 6.10659 28.9106 4.37602L28.8507 4.33841C28.5909 4.37603 28.6708 4.37603 27.6116 3.99982L27.3918 4.13149L27.5117 4.33841C27.5117 4.33841 27.3118 4.3384 27.072 4.22554L27.1719 4.07506C25.7929 3.15335 24.5738 1.81779 21.3361 1.25348L21.1363 1.30992L20.9364 1.21586C20.9364 1.21586 20.8964 1.19705 20.7565 1.44159L20.5767 1.49802C19.5774 0.613924 18.778 1.25348 14.9607 0.5763C14.1813 1.62969 12.0028 0.613917 9.76443 2.0059H9.66453L9.56456 1.74255L9.44466 1.66731C9.44466 1.66731 9.30476 1.66731 8.82511 1.74255L8.76515 1.87422C7.94574 1.70493 7.42609 2.08115 5.42752 1.91185C5.36757 1.89304 5.68734 2.11877 5.7473 2.5326H5.6474C5.10778 2.13758 3.74876 1.38516 2.08996 2.32568C2.1699 2.32568 2.22986 2.49498 2.52964 2.32568L2.60954 2.51379L2.88937 2.70189C2.78944 2.9088 3.44896 3.11572 3.18914 3.981L3.12919 3.94339C-1.54745 10.7716 0.69095 12.6527 5.88721 23.3558C5.64739 24.5409 3.04924 25.425 3.18914 27.6446C3.8087 29.4881 4.04854 31.6701 5.20771 34.2847C5.48751 34.5105 5.34757 34.8867 6.10703 35.8272C6.46677 36.3163 5.2477 37.7083 6.66668 38.7428C8.94505 40.1348 8.18557 42.7495 8.76515 48.1293C10.9236 51.1954 8.8451 58.8513 15.5803 59.2087C15.6202 59.1522 15.7601 60.0175 16.2798 60.1868C16.4397 61.9362 12.5824 64.4568 14.3611 68.802C20.3368 69.4228 31.129 65.7735 37.4645 75.7055C37.7043 75.7619 37.8243 75.461 38.6437 75.2164C38.7037 75.254 38.6437 75.1224 38.9435 75.649H39.0234C39.543 75.6679 40.0027 73.2225 41.1419 73.6551L41.2019 73.6175C41.3018 73.3165 41.4217 72.4513 42.441 72.8275C42.8806 72.771 42.261 72.4701 43.4002 72.2255L43.2404 72.0186C43.3203 71.4543 44.9591 71.1721 44.4195 69.8178C45.119 69.4604 46.558 68.0308 45.7186 66.526C45.059 66.526 44.5194 65.8488 43.72 65.3597C42.7007 61.5224 43.8399 59.2839 46.0983 53.8289C46.1583 53.7724 45.2789 54.4684 44.8193 54.0546L44.7792 53.9417C45.2789 53.1517 45.0991 52.23 45.8785 51.0825L46.2782 50.8756C46.478 50.4618 47.1775 48.1669 48.5765 49.5589C55.5715 46.2859 54.5123 32.4977 66.4237 30.8424L65.8241 29.5445L65.8441 29.5069Z" fill="#2D73B5"/>
<path d="M65.8441 29.5069C65.4444 28.8673 64.8248 28.7733 62.0668 27.7575C62.0268 27.7575 62.1268 27.7951 61.6871 27.9644C59.9884 26.7982 59.9284 28.3218 58.0297 24.3904C54.5522 23.638 50.2353 18.4275 46.8578 14.0634L46.5979 14.4208C45.8385 14.308 42.9805 13.6308 41.6615 11.8438C41.8014 11.919 40.7821 11.6181 40.2425 11.1478L39.9428 11.223C39.8628 11.1102 39.2232 8.98459 37.3446 9.32318C36.4252 8.42028 36.0055 8.55195 34.0869 7.17879C34.2668 7.23522 33.3275 6.76496 32.9677 6.46399C32.4281 6.55804 30.6694 6.10659 28.9106 4.37602L28.8507 4.33841C28.5909 4.37603 28.6708 4.37603 27.6116 3.99982L27.3918 4.13149L27.5117 4.33841C27.5117 4.33841 27.3118 4.3384 27.072 4.22554L27.1719 4.07506C25.7929 3.15335 24.5738 1.81779 21.3361 1.25348L21.1363 1.30992L20.9364 1.21586C20.9364 1.21586 20.8964 1.19705 20.7565 1.44159L20.5767 1.49802C19.5774 0.613924 18.778 1.25348 14.9607 0.5763C14.1813 1.62969 12.0028 0.613917 9.76443 2.0059H9.66453L9.56456 1.74255L9.44466 1.66731C9.44466 1.66731 9.30476 1.66731 8.82511 1.74255L8.76515 1.87422C7.94574 1.70493 7.42609 2.08115 5.42752 1.91185C5.36757 1.89304 5.68734 2.11877 5.7473 2.5326H5.6474C5.10778 2.13758 3.74876 1.38516 2.08996 2.32568C2.1699 2.32568 2.22986 2.49498 2.52964 2.32568L2.60954 2.51379L2.88937 2.70189C2.78944 2.9088 3.44896 3.11572 3.18914 3.981L3.12919 3.94339C-1.54745 10.7716 0.69095 12.6527 5.88721 23.3558C5.64739 24.5409 3.04924 25.425 3.18914 27.6446C3.8087 29.4881 4.04854 31.6701 5.20771 34.2847C5.48751 34.5105 5.34757 34.8867 6.10703 35.8272C6.46677 36.3163 5.2477 37.7083 6.66668 38.7428C8.94505 40.1348 8.18557 42.7495 8.76515 48.1293C10.9236 51.1954 8.8451 58.8513 15.5803 59.2087C15.6202 59.1522 15.7601 60.0175 16.2798 60.1868C16.4397 61.9362 12.5824 64.4568 14.3611 68.802C20.3368 69.4228 31.129 65.7735 37.4645 75.7055C37.7043 75.7619 37.8243 75.461 38.6437 75.2164C38.7037 75.254 38.6437 75.1224 38.9435 75.649H39.0234C39.543 75.6679 40.0027 73.2225 41.1419 73.6551L41.2019 73.6175C41.3018 73.3165 41.4217 72.4513 42.441 72.8275C42.8806 72.771 42.261 72.4701 43.4002 72.2255L43.2404 72.0186C43.3203 71.4543 44.9591 71.1722 44.4195 69.8178C45.119 69.4604 46.558 68.0308 45.7186 66.526C45.059 66.526 44.5194 65.8488 43.72 65.3597C42.7007 61.5224 43.8399 59.2839 46.0983 53.8289C46.1583 53.7724 45.2789 54.4684 44.8193 54.0546L44.7792 53.9417C45.2789 53.1517 45.0991 52.23 45.8785 51.0825L46.2782 50.8756C46.478 50.4618 47.1775 48.1669 48.5765 49.5589C55.5715 46.2859 54.5123 32.4977 66.4237 30.8424L65.8241 29.5445L65.8441 29.5069Z" stroke="white" stroke-width="1.15034" stroke-linecap="round" stroke-linejoin="round"/>
</svg>
