<svg width="118" height="62" viewBox="0 0 118 62" fill="none" xmlns="http://www.w3.org/2000/svg">
<path d="M114.528 41.3577C83.3144 24.5509 37.3571 11.4875 3.9336 0.579169C3.71265 0.579169 5.11869 1.67566 5.41998 3.37713C4.65671 3.92538 3.04981 4.45473 1.14161 4.15225C1.08136 4.3413 1.26213 4.24677 1.7442 5.53232C1.58351 5.75918 1.70403 5.89152 1.32239 6.66663C1.08136 6.76115 1.26213 6.68554 0.5792 6.95021L0.719804 7.21488C1.56343 7.53627 3.23058 9.8238 5.44007 10.6178C5.27938 10.7313 5.84179 10.5422 5.41998 11.7899L4.89774 12.0924C4.89774 12.0924 4.73705 11.9223 4.13446 11.9034C4.13446 12.5651 4.13446 13.378 6.14309 14.0019C6.28369 20.9211 18.5363 24.0972 16.2866 31.527C16.2264 31.4891 16.4072 31.6971 16.1862 32.113C14.74 32.6613 15.202 32.907 13.3139 34.911C15.3426 35.2324 17.9337 34.2493 21.9108 35.4781C23.1561 35.4971 25.446 36.1209 27.6153 36.7637C27.4144 37.709 28.7602 38.1438 28.1777 39.6373L28.3585 40.2044L29.4833 40.8661C29.9453 41.3009 30.0256 42.7377 29.4833 43.872C32.7373 43.5317 38.04 44.5715 42.8205 43.5129C42.8205 43.5129 43.162 43.4372 43.4633 43.7019C44.2668 43.6452 43.403 43.5128 45.3112 42.889C48.3643 40.6015 51.6585 37.1418 55.9569 35.2324V35.4214C55.9569 35.4214 55.8163 35.6294 55.6757 36.1587L55.3744 36.2911C55.3744 36.2911 55.3744 36.3289 55.4749 36.499L55.274 36.5557L55.1334 36.707L55.0932 36.896L55.3142 37.2552C55.0531 37.3497 55.1535 37.1607 54.3701 37.2552C54.2697 38.1249 56.5194 39.1268 55.1736 40.5447H55.0932L54.9325 40.4502H54.8522C53.0645 44.8929 54.6714 49.2978 54.1291 59.0151C54.0889 59.2042 54.2496 58.6181 55.8364 57.9186C57.4232 61.9454 62.8867 55.8201 83.9973 59.034C83.917 59.3365 83.1738 59.639 83.5755 60.9056L83.696 60.9812C90.7061 62.3046 92.4536 51.2451 99.8655 54.5346L100.408 54.4022C100.709 52.1336 103.662 51.4719 105.048 49.657C105.048 49.3735 105.711 49.657 106.534 49.2978C106.594 49.2411 106.514 49.2222 106.494 48.6929C110.772 48.9764 112.68 45.2143 117.421 42.5109L114.548 41.3388L114.528 41.3577Z" fill="#2D73B5"/>
<path d="M114.528 41.3577C83.3144 24.5509 37.3571 11.4875 3.9336 0.579169C3.71265 0.579169 5.11869 1.67566 5.41998 3.37713C4.65671 3.92538 3.04981 4.45473 1.14161 4.15225C1.08136 4.3413 1.26213 4.24677 1.7442 5.53232C1.58351 5.75918 1.70403 5.89152 1.32239 6.66663C1.08136 6.76115 1.26213 6.68554 0.5792 6.95021L0.719804 7.21488C1.56343 7.53627 3.23058 9.8238 5.44007 10.6178C5.27938 10.7313 5.84179 10.5422 5.41998 11.7899L4.89774 12.0924C4.89774 12.0924 4.73705 11.9223 4.13446 11.9034C4.13446 12.5651 4.13446 13.378 6.14309 14.0019C6.28369 20.9211 18.5363 24.0972 16.2866 31.527C16.2264 31.4891 16.4072 31.6971 16.1862 32.113C14.74 32.6613 15.202 32.907 13.3139 34.911C15.3426 35.2324 17.9337 34.2493 21.9108 35.4781C23.1561 35.4971 25.446 36.1209 27.6153 36.7637C27.4144 37.709 28.7602 38.1438 28.1777 39.6373L28.3585 40.2044L29.4833 40.8661C29.9453 41.3009 30.0256 42.7377 29.4833 43.872C32.7373 43.5317 38.04 44.5715 42.8205 43.5129C42.8205 43.5129 43.162 43.4372 43.4633 43.7019C44.2668 43.6452 43.403 43.5128 45.3112 42.889C48.3643 40.6014 51.6585 37.1418 55.9569 35.2324V35.4214C55.9569 35.4214 55.8163 35.6294 55.6757 36.1587L55.3744 36.2911C55.3744 36.2911 55.3744 36.3289 55.4749 36.499L55.274 36.5557L55.1334 36.707L55.0932 36.896L55.3142 37.2552C55.0531 37.3498 55.1535 37.1607 54.3701 37.2552C54.2697 38.1249 56.5194 39.1268 55.1736 40.5447H55.0932L54.9325 40.4502H54.8522C53.0645 44.8929 54.6714 49.2978 54.1291 59.0151C54.0889 59.2042 54.2496 58.6181 55.8364 57.9186C57.4232 61.9454 62.8867 55.8201 83.9973 59.034C83.917 59.3365 83.1738 59.639 83.5755 60.9056L83.696 60.9812C90.7061 62.3046 92.4536 51.2451 99.8654 54.5346L100.408 54.4022C100.709 52.1336 103.662 51.4719 105.048 49.657C105.048 49.3735 105.711 49.657 106.534 49.2978C106.594 49.2411 106.514 49.2222 106.494 48.6929C110.772 48.9764 112.68 45.2143 117.421 42.5109L114.548 41.3388L114.528 41.3577Z" stroke="white" stroke-width="1.15034" stroke-linecap="round" stroke-linejoin="round"/>
</svg>
