<svg width="31" height="32" viewBox="0 0 31 32" fill="none" xmlns="http://www.w3.org/2000/svg">
<path d="M29.7115 14.9871C29.6511 15.1575 29.812 14.1163 28.9471 13.8702C28.9873 13.7944 28.6856 14.0595 27.4787 14.0784L27.3178 13.927C27.177 13.2643 27.9615 12.791 26.4529 11.5605L26.2316 11.5037C26.2316 11.5037 26.0304 11.4658 25.5276 11.9013C25.1052 11.9391 24.6023 11.1629 23.2144 10.9547C22.8121 10.4624 22.9529 9.95126 21.5047 9.51583C21.1627 9.25079 21.8265 7.8309 20.68 7.22508C20.6397 7.26294 20.6397 7.16828 20.0564 7.43333C19.6541 7.73624 18.749 5.89985 16.9789 6.1649C16.0536 5.18044 15.9129 4.53675 12.9359 3.72268C12.0307 3.87414 11.2261 3.87414 9.65721 2.37852C9.49629 2.45425 9.57673 2.03774 7.80664 2.26492L7.62562 1.84843C6.51932 1.43193 7.22335 1.28047 4.56822 0.579987C4.38719 0.731442 3.68319 1.41299 3.88434 2.09454C3.96479 2.15134 4.08543 2.22706 4.5883 2.34065L4.64864 2.41638C4.64864 2.41638 4.4274 3.00327 4.04523 3.59016C4.2866 3.66589 4.24637 5.46442 5.99634 6.29742L6.07682 6.39207C9.09401 8.85321 7.12273 13.7944 7.66583 17.7701C7.14285 19.9284 -2.41156 16.5017 1.5309 21.9351C2.29526 23.8473 5.03083 25.2293 4.66877 27.7094C4.2866 28.2963 4.42743 28.7885 5.77511 29.0914H5.87566C5.87566 29.0914 5.83544 29.0914 6.07682 28.9589C7.46472 29.6215 7.10266 30.8899 9.59687 31.42H9.73762C9.95889 31.2496 9.75776 31.4389 10.321 30.7006C10.4618 30.4923 10.9043 31.4957 12.7146 30.6438L12.5738 30.6059C12.6744 30.4734 13.0566 30.7195 13.9416 29.9054L14.1025 29.4132L14.002 29.2807C14.1025 29.1671 12.9761 29.3186 12.9158 28.2205L13.0767 28.372H13.2175L13.3181 28.2963L13.3583 28.088C13.3583 28.088 13.318 28.2962 13.5795 28.9021H13.8008C13.8813 29.2428 14.0019 27.1982 15.0479 27.1603L15.0881 27.0089C15.0881 27.0089 15.0882 26.9142 14.887 26.706V26.5356C14.887 26.5356 15.0278 26.5545 15.3094 26.8385C15.2692 26.4788 15.4502 26.706 14.8467 25.8351L14.9071 25.5322C15.1686 25.7972 15.0882 25.6458 15.5106 26.422H15.6111C15.5709 26.1948 15.4904 26.2705 15.6111 25.7026L15.7921 25.9108L15.8324 26.3463L16.0536 26.5356C15.249 26.8006 14.9272 27.3496 13.9818 28.8074L14.2634 28.8453C14.2634 28.8453 14.3037 28.921 14.183 29.1103V29.2239C14.5249 29.2807 14.2433 29.3186 15.1284 29.1293C15.1284 29.4132 16.0537 27.0089 16.8381 26.2327C16.9186 26.138 17.1599 26.1191 17.9846 25.589L17.8841 25.4943V25.589C17.8036 25.3807 17.6829 25.4754 17.7634 24.8128L17.6628 24.6613L17.7634 24.5099V24.3963C17.7634 24.3963 17.7634 24.3584 17.4617 24.2448H17.3812C17.3812 24.2448 17.3812 24.2638 17.2806 24.4341H17.1398L16.9387 24.3584L16.8783 24.2259L16.9789 24.1502L17.2605 24.2448V24.1502C17.2605 24.1502 16.9387 24.0176 16.6168 23.8094C16.5967 23.8094 16.6168 23.7904 16.3755 23.8662H16.2749C16.2749 23.7526 15.8525 23.5443 16.0134 23.1089L16.114 23.0142H16.2145L16.2548 23.071C16.3755 23.1278 16.1542 22.9385 17.18 23.4308C17.18 23.374 17.1801 23.639 17.5622 24.0744L17.6628 23.8662H17.7835L17.8639 24.0176C17.8639 24.0176 17.8438 24.0176 18.045 24.0744L18.1254 24.1691C18.1254 24.1691 18.0651 24.2638 18.0249 24.6235L18.1656 24.6803C20.2576 21.3483 23.2546 16.6721 29.7919 15.2143L29.6511 14.9303L29.7115 14.9871Z" fill="#2D73B5"/>
<path d="M29.7115 14.9871C29.6511 15.1575 29.812 14.1163 28.9471 13.8702C28.9873 13.7944 28.6856 14.0595 27.4787 14.0784L27.3178 13.927C27.177 13.2643 27.9615 12.791 26.4529 11.5605L26.2316 11.5037C26.2316 11.5037 26.0304 11.4658 25.5276 11.9013C25.1052 11.9391 24.6023 11.1629 23.2144 10.9547C22.8121 10.4624 22.9529 9.95126 21.5047 9.51583C21.1627 9.25079 21.8265 7.8309 20.68 7.22508C20.6397 7.26294 20.6397 7.16828 20.0564 7.43333C19.6541 7.73624 18.749 5.89985 16.9789 6.1649C16.0536 5.18044 15.9129 4.53675 12.9359 3.72268C12.0307 3.87414 11.2261 3.87414 9.65721 2.37852C9.49629 2.45425 9.57673 2.03774 7.80664 2.26492L7.62562 1.84843C6.51932 1.43193 7.22335 1.28047 4.56822 0.579987C4.38719 0.731442 3.68319 1.41299 3.88434 2.09454C3.96479 2.15134 4.08543 2.22706 4.5883 2.34065L4.64864 2.41638C4.64864 2.41638 4.4274 3.00327 4.04523 3.59016C4.2866 3.66589 4.24637 5.46442 5.99634 6.29742L6.07682 6.39207C9.094 8.85321 7.12273 13.7944 7.66583 17.7701C7.14285 19.9284 -2.41156 16.5017 1.5309 21.9351C2.29526 23.8473 5.03083 25.2293 4.66877 27.7094C4.2866 28.2963 4.42743 28.7885 5.77511 29.0914H5.87566C5.87566 29.0914 5.83544 29.0914 6.07682 28.9589C7.46472 29.6215 7.10266 30.8899 9.59687 31.42H9.73762C9.95889 31.2496 9.75776 31.4389 10.321 30.7006C10.4618 30.4923 10.9043 31.4957 12.7146 30.6438L12.5738 30.6059C12.6744 30.4734 13.0566 30.7195 13.9416 29.9054L14.1025 29.4132L14.002 29.2807C14.1025 29.1671 12.9761 29.3186 12.9158 28.2205L13.0767 28.372H13.2175L13.3181 28.2963L13.3583 28.088C13.3583 28.088 13.318 28.2962 13.5795 28.9021H13.8008C13.8813 29.2428 14.0019 27.1982 15.0479 27.1603L15.0881 27.0089C15.0881 27.0089 15.0882 26.9142 14.887 26.706V26.5356C14.887 26.5356 15.0278 26.5545 15.3094 26.8385C15.2692 26.4788 15.4502 26.706 14.8467 25.8351L14.9071 25.5322C15.1686 25.7972 15.0882 25.6458 15.5106 26.422H15.6111C15.5709 26.1948 15.4904 26.2705 15.6111 25.7026L15.7921 25.9108L15.8324 26.3463L16.0536 26.5356C15.249 26.8006 14.9272 27.3496 13.9818 28.8074L14.2634 28.8453C14.2634 28.8453 14.3037 28.921 14.183 29.1103V29.2239C14.5249 29.2807 14.2433 29.3186 15.1284 29.1293C15.1284 29.4132 16.0537 27.0089 16.8381 26.2327C16.9186 26.138 17.1599 26.1191 17.9846 25.589L17.8841 25.4943V25.589C17.8036 25.3807 17.6829 25.4754 17.7634 24.8128L17.6628 24.6613L17.7634 24.5099V24.3963C17.7634 24.3963 17.7634 24.3584 17.4617 24.2448H17.3812C17.3812 24.2448 17.3812 24.2638 17.2806 24.4341H17.1398L16.9387 24.3584L16.8783 24.2259L16.9789 24.1502L17.2605 24.2448V24.1502C17.2605 24.1502 16.9387 24.0176 16.6168 23.8094C16.5967 23.8094 16.6168 23.7904 16.3755 23.8662H16.2749C16.2749 23.7526 15.8525 23.5443 16.0134 23.1089L16.114 23.0142H16.2145L16.2548 23.071C16.3755 23.1278 16.1542 22.9385 17.18 23.4308C17.18 23.374 17.1801 23.639 17.5622 24.0744L17.6628 23.8662H17.7835L17.8639 24.0176C17.8639 24.0176 17.8438 24.0176 18.045 24.0744L18.1254 24.1691C18.1254 24.1691 18.0651 24.2638 18.0249 24.6235L18.1656 24.6803C20.2576 21.3483 23.2546 16.6721 29.7919 15.2143L29.6511 14.9303L29.7115 14.9871Z" stroke="white" stroke-width="1.15034" stroke-linecap="round" stroke-linejoin="round"/>
</svg>
