<svg width="63" height="63" viewBox="0 0 63 63" fill="none" xmlns="http://www.w3.org/2000/svg">
<path d="M47.5164 29.739C47.1462 25.8405 44.2427 22.926 41.3297 20.6284C38.9556 18.7557 36.5034 17.2172 33.8201 15.8303C27.9317 12.7861 24.8064 6.41669 23.4912 0.217499C23.4735 0.137321 23.4772 0.0779687 23.5022 0.0394418C23.5365 -0.0126216 23.5714 -0.0131419 23.6068 0.0378802C25.15 2.25734 27.5459 3.6818 30.1949 4.5221C34.4417 5.86846 38.865 6.61661 42.7979 8.81889C48.5223 12.0224 52.1459 17.7701 53.2408 24.1599C53.2658 24.3057 53.3048 24.3093 53.3579 24.1708C53.7531 23.1353 54.5637 22.32 55.4462 21.3844C56.6067 20.1536 58.0827 19.5929 59.7289 20.3067C60.5171 20.6482 61.1216 21.1418 61.5423 21.7874C62.0124 22.5074 62.2951 22.9072 62.8871 23.3727C63.0578 23.507 63.0349 23.5622 62.8183 23.5382C61.7922 23.4211 60.2693 23.7132 59.6055 24.5285C58.7933 25.525 59.4243 26.6417 59.5524 27.8163C59.946 31.4196 57.8171 35.0557 54.7121 36.7863C48.5301 40.2334 41.8623 36.6145 37.3672 32.2443C37.3526 32.2297 37.3521 32.2146 37.3656 32.199L37.3672 32.1974C37.3807 32.1818 37.3958 32.1802 37.4125 32.1927C38.7947 33.2345 40.2536 34.2029 41.8514 34.7902C44.8534 35.8913 46.9697 34.6184 47.5461 31.4758C47.5495 31.4571 47.5476 31.4377 47.5406 31.42C47.5337 31.4022 47.522 31.3867 47.5068 31.3752C47.4916 31.3637 47.4734 31.3567 47.4545 31.3549C47.4355 31.3531 47.4164 31.3565 47.3993 31.3649C42.7916 33.6359 39.3227 31.468 36.6596 27.7273C36.14 26.9963 35.7662 26.5022 35.5382 26.245C33.6306 24.0906 31.3054 22.5673 28.5627 21.6749C28.443 21.6353 28.444 21.5989 28.5659 21.5656C32.0848 20.5956 35.9864 20.7643 39.2571 22.509C42.2778 24.1224 45.197 27.0416 47.3805 29.7937C47.4878 29.929 47.5331 29.9108 47.5164 29.739Z" fill="white"/>
<path d="M31.824 40.5317C31.418 39.9132 30.2481 40.5676 30.9681 41.2627C31.2711 41.5547 31.6569 41.7875 31.8803 42.1483C32.4785 43.1088 31.3695 43.8086 30.5027 43.4525C30.4506 43.4316 30.4152 43.3947 30.3965 43.3416C30.3486 43.2072 30.3387 43.0667 30.3668 42.9198C30.3897 42.8043 30.4157 42.8032 30.4449 42.9167C30.5917 43.4774 31.3117 43.5462 31.6069 43.1526C32.302 42.2248 30.1388 41.814 30.5199 40.6707C30.6932 40.1459 31.3258 40.0553 31.7897 40.2053C31.8376 40.2209 31.8766 40.2485 31.9068 40.288C31.9714 40.3713 32.0016 40.438 31.9974 40.488C31.9808 40.6671 31.923 40.6816 31.824 40.5317Z" fill="white"/>
<path d="M1.00459 42.4513C1.04364 43.3494 2.13853 43.768 2.66021 43.0214C3.01163 42.5184 2.88356 41.1627 2.86169 40.552C2.85961 40.4979 2.84347 40.4484 2.81327 40.4036L2.73986 40.2943C2.7341 40.2854 2.73081 40.2751 2.73036 40.2645C2.72991 40.2539 2.73232 40.2435 2.73733 40.2343C2.74233 40.2251 2.74973 40.2175 2.75872 40.2124C2.76771 40.2073 2.77793 40.2048 2.78828 40.2053L3.22874 40.2209C3.23816 40.2211 3.24736 40.2237 3.25547 40.2285C3.26359 40.2333 3.27036 40.2402 3.27518 40.2484C3.28 40.2567 3.28271 40.266 3.28305 40.2757C3.2834 40.2853 3.28137 40.295 3.27716 40.3037C3.21312 40.4333 3.16314 40.5223 3.16626 40.6738C3.19438 41.8093 3.42241 43.7742 1.62154 43.5446C0.340782 43.3806 0.582877 41.7219 0.603182 40.5817C0.604223 40.5192 0.554242 40.4218 0.453239 40.2896C0.413671 40.2365 0.426686 40.2105 0.492286 40.2115L1.03739 40.2193C1.10299 40.2204 1.12069 40.25 1.09049 40.3083C0.860895 40.7597 0.982724 41.9233 1.00459 42.4513Z" fill="white"/>
<path d="M6.5149 40.9628C6.42118 40.8899 6.37485 40.9129 6.37589 41.0316C6.38526 41.6803 6.40608 42.3238 6.43836 42.9621C6.44982 43.1849 6.5149 43.352 6.6336 43.4634C6.65859 43.4874 6.6539 43.4988 6.61954 43.4978L6.06663 43.4822C6.01665 43.4811 6.00467 43.4593 6.03071 43.4166C6.09162 43.3135 6.15097 43.237 6.15097 43.1089C6.14993 42.1416 6.15462 41.2065 6.16503 40.3037C6.16711 40.134 6.22542 40.1121 6.33996 40.2381L8.60784 42.7356C8.71301 42.8512 8.76664 42.8309 8.76872 42.6747C8.77913 42.0333 8.7734 41.3736 8.75154 40.6957C8.74529 40.5239 8.67917 40.3865 8.55318 40.2834C8.50736 40.2459 8.51413 40.2261 8.57348 40.2241L9.04518 40.2084C9.10557 40.2064 9.12327 40.2324 9.09828 40.2865C9.05142 40.3896 8.99676 40.4615 8.99676 40.5786C8.99884 41.5314 8.99207 42.4888 8.97645 43.4509C8.97647 43.4588 8.9744 43.4665 8.97043 43.4732C8.96647 43.48 8.96074 43.4856 8.95382 43.4896C8.9469 43.4935 8.93901 43.4956 8.93094 43.4957C8.92286 43.4958 8.91486 43.4938 8.90773 43.49C8.86087 43.465 8.81558 43.4301 8.77184 43.3853C8.17103 42.771 7.57751 42.1499 6.99128 41.522C6.84602 41.3674 6.69451 41.1034 6.5149 40.9628Z" fill="white"/>
<path d="M12.7375 43.3259L12.8297 43.4196C12.8776 43.4686 12.8672 43.4931 12.7984 43.4931L12.2002 43.4884C12.1471 43.4884 12.1289 43.4634 12.1456 43.4134C12.4111 42.6356 12.2846 41.4954 12.2721 40.6645C12.269 40.4973 12.2065 40.413 12.1237 40.2755C12.0966 40.2308 12.1096 40.2084 12.1627 40.2084L12.7188 40.2146C12.7781 40.2157 12.7943 40.2427 12.7672 40.2958C12.7063 40.4177 12.6407 40.5036 12.6407 40.6441C12.6334 41.4803 12.6339 42.2982 12.6423 43.0979C12.6433 43.1831 12.6774 43.2648 12.7375 43.3259Z" fill="white"/>
<path d="M16.8813 42.7496C16.9437 42.9256 17.0093 42.9266 17.0781 42.7527C17.2905 42.2154 17.9777 40.7722 17.8887 40.274C17.8803 40.2302 17.898 40.2084 17.9418 40.2084L18.3588 40.2115C18.3696 40.2118 18.38 40.2153 18.3889 40.2214C18.3978 40.2276 18.4046 40.2361 18.4087 40.246C18.4127 40.2558 18.4136 40.2666 18.4114 40.2768C18.4092 40.2871 18.404 40.2964 18.3963 40.3037C18.2276 40.4708 18.148 40.5848 18.0605 40.8113C17.7262 41.6797 17.3639 42.557 16.9734 43.4431C16.937 43.5264 16.8813 43.5425 16.8063 43.4915C16.7813 43.4738 16.7558 43.4295 16.7297 43.3587C16.3934 42.4476 16.0456 41.5402 15.6864 40.6363C15.6177 40.4614 15.5208 40.402 15.3803 40.2912C15.3147 40.2401 15.3235 40.2151 15.4068 40.2162L15.9988 40.224C16.055 40.225 16.0826 40.2537 16.0816 40.3099C16.0769 40.4255 16.0597 40.5036 16.1003 40.6145C16.3783 41.3652 16.6386 42.0769 16.8813 42.7496Z" fill="white"/>
<path d="M21.7248 41.8109C21.5582 41.8109 21.4749 41.8942 21.4749 42.0608L21.4733 42.9699C21.4733 43.151 21.5598 43.2677 21.7326 43.3197C22.0835 43.4259 22.3699 43.3479 22.5917 43.0855C22.6395 43.0292 22.663 43.0381 22.6619 43.112C22.6578 43.4244 22.5047 43.5592 22.2027 43.5165C22.0382 43.4936 21.6488 43.4853 21.0344 43.4915C20.9824 43.4915 20.9668 43.4676 20.9876 43.4197C21.275 42.7403 21.1141 41.3767 21.0938 40.6192C21.0886 40.4578 21.0407 40.3459 20.9501 40.2834C20.9441 40.2789 20.9396 40.2726 20.9371 40.2655C20.9347 40.2583 20.9345 40.2507 20.9366 40.2436C20.9387 40.2365 20.9429 40.2303 20.9487 40.226C20.9545 40.2216 20.9615 40.2193 20.9688 40.2194L22.4511 40.2225C22.4777 40.2225 22.5033 40.233 22.5223 40.2517C22.5413 40.2704 22.5522 40.2958 22.5526 40.3224L22.5557 40.5411C22.5568 40.6067 22.5313 40.6197 22.4792 40.5802C22.2397 40.399 21.9643 40.3349 21.6529 40.388C21.5311 40.4089 21.4702 40.4812 21.4702 40.6052L21.4718 41.4704C21.4728 41.586 21.5311 41.6433 21.6467 41.6423L22.3949 41.6313C22.449 41.6313 22.4761 41.6579 22.4761 41.711L22.4792 41.9109C22.4802 41.9796 22.4495 41.9984 22.387 41.9671C22.1819 41.864 21.9612 41.812 21.7248 41.8109Z" fill="white"/>
<path d="M25.9965 42.1733C25.9512 42.5903 25.8903 43.1885 26.173 43.4353C26.2167 43.4739 26.2094 43.4926 26.1511 43.4916L25.5139 43.4822C25.466 43.4811 25.454 43.4598 25.4779 43.4181C25.7856 42.8699 25.6326 41.3236 25.6201 40.6583C25.6169 40.5062 25.5696 40.3912 25.4779 40.3131C25.4692 40.3054 25.4631 40.2953 25.4604 40.284C25.4577 40.2727 25.4586 40.2609 25.4628 40.2501C25.4671 40.2394 25.4746 40.2302 25.4843 40.2238C25.494 40.2175 25.5054 40.2143 25.517 40.2147C26.0433 40.2366 26.868 40.0522 27.2538 40.5583C27.638 41.0628 27.2429 41.5282 26.9586 41.9421C26.9426 41.9646 26.934 41.9915 26.934 42.0192C26.934 42.0469 26.9426 42.074 26.9586 42.0968C27.3069 42.595 27.738 43.2666 28.3565 43.4213C28.4482 43.4442 28.4476 43.465 28.355 43.4837C27.0273 43.7571 27.132 41.9047 26.0808 42.0843C26.0298 42.0926 26.0017 42.1223 25.9965 42.1733ZM25.9606 40.5489L25.9637 41.7797C25.9637 41.8055 25.9688 41.831 25.9787 41.8548C25.9886 41.8786 26.0031 41.9002 26.0214 41.9183C26.0397 41.9365 26.0614 41.9508 26.0853 41.9605C26.1092 41.9703 26.1347 41.9752 26.1605 41.9749L26.3729 41.9734C26.5562 41.9726 26.7317 41.8916 26.8608 41.7481C26.99 41.6046 27.0622 41.4104 27.0617 41.2081V41.1143C27.0615 41.0139 27.0433 40.9145 27.0082 40.8219C26.9731 40.7292 26.9218 40.645 26.8573 40.5743C26.7927 40.5035 26.7162 40.4474 26.632 40.4093C26.5478 40.3712 26.4576 40.3518 26.3667 40.3521L26.1542 40.3537C26.1027 40.3541 26.0535 40.3749 26.0172 40.4114C25.9809 40.448 25.9606 40.4974 25.9606 40.5489Z" fill="white"/>
<path d="M34.8884 43.4774C35.1852 42.7136 35.0446 41.5516 35.04 40.7284C35.04 40.5473 34.9837 40.4473 34.9087 40.288C34.9045 40.2791 34.9026 40.2693 34.9032 40.2594C34.9038 40.2496 34.9069 40.2401 34.9122 40.2318C34.9175 40.2235 34.9249 40.2167 34.9336 40.212C34.9423 40.2074 34.952 40.205 34.9619 40.2052L35.4788 40.2224C35.5236 40.2234 35.5361 40.2443 35.5163 40.2849C35.4539 40.4145 35.4008 40.5285 35.3992 40.6769C35.3961 41.4402 35.3976 42.2029 35.4039 42.9651C35.4054 43.1713 35.4523 43.2822 35.5913 43.4212C35.6382 43.4691 35.6283 43.4925 35.5616 43.4915L34.8931 43.4852C34.8924 43.4853 34.8916 43.4852 34.8909 43.4848C34.8902 43.4845 34.8896 43.4839 34.8891 43.4831C34.8887 43.4823 34.8884 43.4814 34.8882 43.4804C34.8881 43.4794 34.8882 43.4784 34.8884 43.4774Z" fill="white"/>
<path d="M38.787 43.0495C38.8296 42.2165 38.8302 41.3819 38.7885 40.5457C38.7864 40.4947 38.7703 40.4489 38.7401 40.4083L38.6542 40.288C38.6146 40.2339 38.6282 40.2073 38.6948 40.2084C39.3055 40.2193 40.0724 40.1537 40.5909 40.3052C41.778 40.6504 42.0326 41.9921 41.3625 42.8995C40.7159 43.7742 39.6741 43.4821 38.7182 43.4915C38.6662 43.4925 38.6505 43.4696 38.6714 43.4228C38.7292 43.2931 38.7791 43.1963 38.787 43.0495ZM39.1509 40.7004L39.179 43.0948C39.1794 43.1361 39.188 43.177 39.2042 43.215C39.2205 43.2531 39.2441 43.2875 39.2737 43.3164C39.3033 43.3453 39.3383 43.368 39.3768 43.3833C39.4152 43.3986 39.4563 43.4062 39.4976 43.4056L39.9146 43.4009C40.1055 43.3986 40.2941 43.3594 40.4695 43.2855C40.645 43.2115 40.8039 43.1043 40.9372 42.97C41.0705 42.8357 41.1756 42.6769 41.2464 42.5026C41.3173 42.3284 41.3525 42.1422 41.35 41.9546L41.3469 41.7859C41.342 41.4075 41.1845 41.0465 40.9089 40.7824C40.6333 40.5182 40.2622 40.3724 39.8772 40.3771L39.4601 40.3818C39.4189 40.3824 39.3782 40.3911 39.3403 40.4074C39.3025 40.4238 39.2682 40.4474 39.2395 40.477C39.2108 40.5066 39.1882 40.5415 39.173 40.5799C39.1578 40.6182 39.1503 40.6591 39.1509 40.7004Z" fill="white"/>
<path d="M44.8471 42.1857C44.5931 42.5481 44.4665 42.9516 44.4676 43.3962C44.4676 43.4462 44.4426 43.4733 44.3926 43.4774L43.9131 43.5102C43.8288 43.5154 43.8215 43.4946 43.8912 43.4477C44.0578 43.3332 44.1661 43.2093 44.2161 43.076C44.5639 42.1326 44.9049 41.2038 45.2392 40.2896C45.2944 40.1376 45.3506 40.137 45.4079 40.288C45.7244 41.1367 46.0592 42.0155 46.4122 42.9245C46.4913 43.1296 46.6178 43.2983 46.7917 43.4306C46.876 43.4941 46.8656 43.5227 46.7605 43.5165L46.3106 43.4884C46.2896 43.487 46.2693 43.4795 46.2522 43.4668C46.235 43.4541 46.2217 43.4366 46.2138 43.4165L45.7577 42.2232C45.7513 42.2067 45.7413 42.1917 45.7286 42.1794C45.7158 42.1671 45.7006 42.1577 45.6839 42.1519C45.6672 42.1461 45.6496 42.144 45.6321 42.1458C45.6146 42.1476 45.5978 42.1532 45.5828 42.1623C45.3787 42.2841 45.1767 42.2831 44.9768 42.1592C44.9257 42.1269 44.8825 42.1357 44.8471 42.1857ZM44.8206 41.9421C44.8156 41.9549 44.8137 41.9688 44.8152 41.9826C44.8167 41.9963 44.8215 42.0095 44.8291 42.021C44.8368 42.0325 44.8471 42.042 44.8592 42.0486C44.8713 42.0553 44.8849 42.0589 44.8987 42.0592L45.5922 42.0842C45.6058 42.0845 45.6192 42.0817 45.6315 42.0758C45.6438 42.0699 45.6545 42.0612 45.6627 42.0503C45.6709 42.0395 45.6765 42.0269 45.6789 42.0135C45.6813 42.0001 45.6805 41.9863 45.6765 41.9733L45.3657 40.9768C45.36 40.9602 45.3495 40.9458 45.3354 40.9354C45.3213 40.925 45.3044 40.9192 45.2869 40.9187C45.2694 40.9181 45.2521 40.923 45.2375 40.9326C45.2228 40.9421 45.2114 40.9559 45.2048 40.9721L44.8206 41.9421Z" fill="white"/>
<path d="M49.4281 40.4193L49.3235 40.2834C49.2922 40.2407 49.3027 40.2189 49.3547 40.2178C50.7011 40.1897 52.4051 40.0523 52.4207 41.8766C52.4249 42.3139 52.2864 42.6789 52.0053 42.9715C51.254 43.754 50.3465 43.4963 49.3922 43.4869C49.3412 43.4869 49.3271 43.464 49.35 43.4182C49.425 43.2635 49.4875 43.123 49.489 42.9418C49.4995 42.1556 49.5005 41.3783 49.4922 40.6099C49.4912 40.5408 49.4688 40.4742 49.4281 40.4193ZM49.8561 40.6583L49.8655 43.1198C49.8655 43.1566 49.8727 43.1929 49.8867 43.2268C49.9008 43.2608 49.9214 43.2916 49.9473 43.3175C49.9733 43.3435 50.0041 43.3641 50.0381 43.3781C50.072 43.3922 50.1083 43.3994 50.145 43.3994L50.5824 43.3979C50.968 43.3966 51.3374 43.2463 51.6092 42.98C51.881 42.7138 52.033 42.3534 52.0318 41.9781V41.7875C52.0312 41.6017 51.993 41.4178 51.9194 41.2463C51.8457 41.0749 51.7381 40.9192 51.6027 40.7882C51.4672 40.6573 51.3065 40.5536 51.1299 40.483C50.9532 40.4125 50.764 40.3765 50.573 40.3771L50.1357 40.3787C50.099 40.3787 50.0626 40.3859 50.0287 40.4C49.9948 40.414 49.9639 40.4346 49.938 40.4606C49.912 40.4866 49.8914 40.5174 49.8774 40.5513C49.8633 40.5852 49.8561 40.6216 49.8561 40.6583Z" fill="white"/>
<path d="M55.807 41.6453L56.5536 41.6266C56.6192 41.6255 56.6489 41.6573 56.6426 41.7219L56.6208 41.9171C56.6135 41.9869 56.5796 42.0035 56.5192 41.9671C56.2818 41.8255 56.021 41.7718 55.7367 41.8062C55.6888 41.8124 55.6628 41.8395 55.6586 41.8874C55.6336 42.2388 55.6461 42.5903 55.6227 42.9417C55.5837 43.5508 56.4505 43.4056 56.7488 43.1026C56.7576 43.093 56.7694 43.0869 56.7821 43.0854C56.7949 43.0839 56.8078 43.0871 56.8186 43.0943C56.8294 43.1016 56.8374 43.1125 56.8412 43.1252C56.845 43.1378 56.8444 43.1514 56.8394 43.1635L56.7238 43.4399C56.7137 43.4642 56.6963 43.4849 56.674 43.4991C56.6517 43.5133 56.6255 43.5205 56.5989 43.5196L55.1932 43.4774C55.138 43.4753 55.1245 43.4504 55.1526 43.4025C55.4322 42.9339 55.2806 41.2642 55.2791 40.6613C55.2775 40.4864 55.2447 40.413 55.1276 40.2974C55.0797 40.2495 55.0891 40.2256 55.1557 40.2256L56.6098 40.2162C56.6754 40.2162 56.7093 40.249 56.7114 40.3146L56.7207 40.5395C56.7238 40.6249 56.6931 40.64 56.6286 40.5848C56.4151 40.4026 56.1647 40.3333 55.8773 40.3771C55.7273 40.4 55.6519 40.4874 55.6508 40.6395L55.6446 41.4844C55.6435 41.5938 55.6977 41.6474 55.807 41.6453Z" fill="white"/>
<path d="M28.9345 45.2034C28.0973 45.1971 27.3429 45.5345 26.6026 45.9C26.5927 45.9047 26.5818 45.9066 26.5709 45.9053C26.56 45.904 26.5498 45.8997 26.5413 45.8928C26.5328 45.886 26.5264 45.8768 26.5229 45.8665C26.5193 45.8561 26.5188 45.845 26.5214 45.8344C26.5245 45.8219 26.5422 45.8016 26.5745 45.7735C27.1253 45.2924 27.7282 44.816 28.3832 44.3443C28.4061 44.3277 28.4325 44.3164 28.4604 44.3112C28.4883 44.3059 28.5171 44.3069 28.5446 44.3141C28.5722 44.3212 28.5979 44.3344 28.6199 44.3525C28.642 44.3707 28.6598 44.3935 28.6721 44.4193L28.9954 45.1081C29.0001 45.1183 29.0022 45.1296 29.0014 45.1408C29.0007 45.152 28.9971 45.1629 28.991 45.1724C28.985 45.1819 28.9766 45.1897 28.9667 45.1951C28.9569 45.2005 28.9458 45.2034 28.9345 45.2034Z" fill="white"/>
<path d="M10.3634 52.0101C10.3423 52.0096 10.3215 52.0156 10.3039 52.0273C10.2863 52.0391 10.2727 52.0559 10.265 52.0757C10.0079 52.7275 9.76472 53.3845 9.53564 54.0468C9.34197 54.6091 9.80116 54.5685 10.151 54.6387C10.1948 54.6471 10.2234 54.6627 10.2369 54.6856C10.2442 54.697 10.2484 54.7095 10.2494 54.7231C10.2536 54.7658 10.2343 54.7871 10.1916 54.7871L7.5817 54.7887C7.57293 54.7888 7.56444 54.7856 7.55782 54.7799C7.55121 54.7741 7.54692 54.7661 7.54578 54.7574L7.53797 54.7075C7.53683 54.6985 7.53766 54.6894 7.54039 54.6808C7.54312 54.6721 7.54768 54.6642 7.55377 54.6575C7.55986 54.6509 7.56732 54.6456 7.57565 54.6421C7.58398 54.6385 7.59297 54.6369 7.60201 54.6372C8.18303 54.6497 8.59486 54.3503 8.83747 53.7391C9.74754 51.441 10.6847 49.0883 11.6489 46.6808C11.7093 46.5299 11.8025 46.5059 11.9285 46.609C11.9889 46.659 12.0534 46.7704 12.1222 46.9432C13.0072 49.1882 13.9069 51.4275 14.8211 53.661C15.0814 54.2982 15.5292 54.6278 16.1644 54.6497C16.206 54.6507 16.2268 54.6721 16.2268 54.7137V54.7637C16.2268 54.7845 16.2169 54.7949 16.1972 54.7949L13.5716 54.7902C13.5581 54.79 13.545 54.7857 13.534 54.7779C13.5229 54.7702 13.5145 54.7592 13.5098 54.7466C13.5051 54.7339 13.5043 54.7202 13.5075 54.7071C13.5107 54.6939 13.5178 54.6821 13.5279 54.6731C13.5872 54.62 13.6325 54.557 13.6637 54.4841C13.6856 54.431 13.6861 54.3779 13.6653 54.3248L12.8437 52.1334C12.831 52.099 12.808 52.0693 12.7778 52.0484C12.7476 52.0274 12.7118 52.0162 12.6751 52.0163L10.3634 52.0101ZM10.5259 51.4025C10.5219 51.4139 10.5206 51.4261 10.5223 51.4381C10.5241 51.45 10.5286 51.4614 10.5357 51.4712C10.5427 51.4811 10.5521 51.489 10.5629 51.4945C10.5737 51.4999 10.5856 51.5026 10.5977 51.5024H12.497C12.5091 51.5026 12.5211 51.4999 12.5319 51.4945C12.5427 51.489 12.552 51.4811 12.5591 51.4712C12.5661 51.4614 12.5707 51.45 12.5724 51.4381C12.5741 51.4261 12.5729 51.4139 12.5689 51.4025L11.6177 48.7957C11.6123 48.7813 11.6027 48.7689 11.5902 48.7602C11.5776 48.7515 11.5627 48.7468 11.5474 48.7468C11.5321 48.7468 11.5171 48.7515 11.5046 48.7602C11.492 48.7689 11.4824 48.7813 11.4771 48.7957L10.5259 51.4025Z" fill="white"/>
<path d="M53.4439 54.5779L53.9359 54.6435C53.9463 54.6449 53.9559 54.6501 53.963 54.658C53.9701 54.666 53.9744 54.6763 53.9749 54.6872L53.9765 54.7372C53.9775 54.7705 53.9619 54.7872 53.9296 54.7872L51.3244 54.7903C51.3154 54.7903 51.3065 54.7881 51.2985 54.784C51.2905 54.7799 51.2836 54.7739 51.2784 54.7666C51.2732 54.7592 51.2698 54.7507 51.2686 54.7418C51.2674 54.7329 51.2683 54.7238 51.2713 54.7153L51.29 54.6685C51.2973 54.6487 51.3119 54.6388 51.3338 54.6388C51.9096 54.6492 52.3094 54.3753 52.5333 53.8172C53.4507 51.5285 54.3592 49.2362 55.2588 46.9402C55.3327 46.7517 55.4051 46.6418 55.4759 46.6106C55.6144 46.5502 55.7112 46.5903 55.7664 46.7309C56.7119 49.1029 57.6329 51.3853 58.5294 53.5782C58.7903 54.2124 59.112 54.6653 59.8758 54.6341C59.886 54.6335 59.8962 54.6349 59.9058 54.6384C59.9154 54.6418 59.9243 54.6472 59.9318 54.6542C59.9394 54.6612 59.9455 54.6696 59.9498 54.679C59.9542 54.6885 59.9566 54.6987 59.957 54.7091L59.9586 54.7575C59.9596 54.7825 59.9476 54.795 59.9227 54.795L57.3002 54.7918C57.2845 54.7916 57.2692 54.7862 57.2568 54.7764C57.2444 54.7666 57.2356 54.7531 57.2317 54.7378C57.2278 54.7225 57.229 54.7064 57.2352 54.6919C57.2414 54.6774 57.2521 54.6653 57.2659 54.6575C57.4174 54.5732 57.4377 54.4154 57.3768 54.253C57.1029 53.5314 56.8358 52.8202 56.5755 52.1194C56.5637 52.0874 56.5422 52.0597 56.514 52.0402C56.4858 52.0206 56.4522 52.0101 56.4177 52.0101L54.1342 52.0195C54.1006 52.0194 54.0677 52.0294 54.0399 52.048C54.0121 52.0667 53.9905 52.0932 53.9781 52.1241C53.7984 52.5817 53.1284 54.0781 53.3033 54.4716C53.3304 54.5341 53.3772 54.5695 53.4439 54.5779ZM54.253 51.4025C54.249 51.4138 54.2477 51.4259 54.2494 51.4377C54.251 51.4496 54.2554 51.4608 54.2623 51.4706C54.2692 51.4804 54.2783 51.4884 54.2889 51.4939C54.2995 51.4995 54.3113 51.5024 54.3232 51.5025L56.2288 51.5087C56.2407 51.5087 56.2525 51.5057 56.2631 51.5002C56.2737 51.4947 56.2828 51.4867 56.2897 51.4769C56.2966 51.4671 56.301 51.4558 56.3026 51.444C56.3043 51.4321 56.303 51.42 56.299 51.4088L55.3557 48.7973C55.3503 48.7829 55.3407 48.7705 55.3282 48.7618C55.3156 48.7531 55.3007 48.7484 55.2854 48.7484C55.2701 48.7484 55.2551 48.7531 55.2426 48.7618C55.23 48.7705 55.2204 48.7829 55.2151 48.7973L54.253 51.4025Z" fill="white"/>
<path d="M5.9886 47.3822C4.89839 46.9808 3.49112 46.9511 2.56491 47.6774C1.61527 48.4209 1.38411 49.7766 1.47314 50.9277C1.61996 52.8317 3.10377 54.442 5.09831 54.3483C5.97923 54.3077 6.61492 54.1624 6.9804 53.3331C7.05746 53.1581 7.10796 53.0441 7.13191 52.991C7.27144 52.6922 7.33652 52.7078 7.32715 53.0379C7.31309 53.4689 7.24749 54.645 6.66334 54.7716C3.37397 55.4822 -0.296494 54.2218 0.0190099 50.2264C0.172076 48.2725 1.72148 46.8902 3.65355 46.6622C4.76459 46.531 5.95371 46.6231 7.22094 46.9386C7.26675 46.9501 7.28914 46.9803 7.2881 47.0292L7.23031 48.941C7.22991 48.95 7.22773 48.9589 7.2239 48.9671C7.22007 48.9752 7.21466 48.9826 7.20799 48.9887C7.20132 48.9948 7.19351 48.9995 7.18501 49.0026C7.17651 49.0056 7.16749 49.007 7.15846 49.0066L7.10223 49.0035C7.08983 49.0026 7.07811 48.9976 7.06903 48.9894C7.05994 48.9811 7.05402 48.9701 7.05225 48.9582C6.92886 48.1913 6.73206 47.654 5.9886 47.3822Z" fill="white"/>
<path d="M31.1883 52.3819C30.412 54.3296 28.4143 55.1792 26.4167 54.9059C22.3495 54.3499 21.5513 48.538 25.3717 46.9574C27.1945 46.203 29.8185 46.606 30.9274 48.3506C31.6912 49.5517 31.7131 51.0636 31.1883 52.3819ZM28.0582 54.3952C30.79 53.8173 30.5229 49.0581 28.7189 47.693C27.7083 46.9293 26.1777 46.8543 25.2499 47.7321C23.7255 49.1706 24.1722 52.8645 25.959 53.9625C26.6671 54.3967 27.3668 54.5409 28.0582 54.3952Z" fill="white"/>
<path d="M50.7933 53.1769C50.8422 53.0467 50.8881 52.9571 50.9307 52.9082C51.0245 52.803 51.0682 52.8192 51.0619 52.9566C51.0422 53.395 50.9698 53.8506 50.8448 54.3233C50.7277 54.7716 50.4434 54.7653 49.9842 54.8418C47.493 55.2604 44.4629 54.5794 43.8303 51.7212C43.4102 49.8266 44.188 47.8555 46.0123 47.0433C47.4383 46.4091 49.4016 46.5403 50.9635 46.9308C51.0052 46.9412 51.0255 46.9683 51.0245 47.012L50.9667 48.8941C50.9659 48.9155 50.9583 48.936 50.9451 48.9529C50.932 48.9697 50.9138 48.9819 50.8933 48.9878L50.8511 48.9988C50.8438 49.0008 50.8362 49.0012 50.8287 49C50.8212 48.9988 50.814 48.9959 50.8077 48.9916C50.8013 48.9874 50.7959 48.9817 50.7918 48.9752C50.7877 48.9686 50.785 48.9612 50.7839 48.9535C50.5949 47.3916 49.3751 47.0651 48.01 47.1151C44.4426 47.2416 44.4489 52.2288 46.8448 53.8079C47.9444 54.5326 50.2029 54.7669 50.7933 53.1769Z" fill="white"/>
<path d="M18.0823 47.4415C18.0821 47.4283 18.0793 47.4154 18.0741 47.4033C18.0689 47.3913 18.0614 47.3804 18.052 47.3712C18.0425 47.3621 18.0314 47.3549 18.0192 47.3501C18.007 47.3452 17.9939 47.3428 17.9808 47.3431C17.3311 47.3503 16.6943 47.3649 16.0706 47.3868C15.4771 47.4071 15.4615 47.8116 15.1819 48.1318C15.1712 48.1436 15.1569 48.1516 15.1412 48.1545C15.1256 48.1575 15.1094 48.1553 15.0951 48.1482C15.0808 48.1412 15.0692 48.1296 15.0621 48.1154C15.0549 48.1012 15.0525 48.085 15.0554 48.0693L15.3271 46.6855C15.3291 46.6747 15.3332 46.6645 15.3395 46.6555C15.3457 46.6465 15.3537 46.6388 15.3631 46.6331C15.3726 46.6274 15.3831 46.6236 15.3941 46.6222C15.4052 46.6207 15.4164 46.6215 15.4271 46.6246C15.7947 46.7329 16.1784 46.787 16.5782 46.787C18.1786 46.7881 19.7796 46.7818 21.3811 46.7683C21.6195 46.7672 21.858 46.7448 22.0964 46.7011C22.1137 46.6981 22.1315 46.699 22.1484 46.7038C22.1654 46.7086 22.181 46.7171 22.1943 46.7287C22.2076 46.7404 22.2182 46.7549 22.2253 46.7712C22.2324 46.7875 22.2359 46.8052 22.2354 46.8229L22.187 48.2536C22.1868 48.259 22.1856 48.2642 22.1833 48.2691C22.1811 48.2739 22.1779 48.2783 22.174 48.2819C22.1701 48.2855 22.1655 48.2884 22.1605 48.2902C22.1555 48.2921 22.1502 48.2929 22.1448 48.2927H22.1027C22.0808 48.2917 22.0683 48.2802 22.0652 48.2583C21.934 47.3524 21.2998 47.4008 20.4705 47.3587C20.1362 47.342 19.8004 47.3358 19.4631 47.3399C19.4037 47.3399 19.3745 47.3696 19.3756 47.429C19.3803 49.6109 19.2912 51.8616 19.4318 54.0499C19.4724 54.698 20.0535 54.5715 20.4955 54.6418C20.5033 54.6428 20.5106 54.646 20.5164 54.651C20.5223 54.656 20.5264 54.6626 20.5283 54.6699L20.5408 54.7199C20.5427 54.7281 20.5428 54.7366 20.541 54.7448C20.5392 54.753 20.5356 54.7606 20.5304 54.7671C20.5253 54.7736 20.5188 54.7788 20.5113 54.7822C20.5039 54.7857 20.4958 54.7874 20.4877 54.7871L17.2327 54.784C17.2056 54.784 17.1889 54.7704 17.1827 54.7433L17.1749 54.7059C17.1686 54.6798 17.1785 54.6642 17.2045 54.659L17.7325 54.57C17.7918 54.5596 17.8387 54.5294 17.873 54.4794C17.9897 54.3086 18.0501 54.0941 18.0542 53.8359C18.0959 51.6898 18.1052 49.5584 18.0823 47.4415Z" fill="white"/>
<path d="M35.9709 46.9527C35.1977 46.8324 35.0993 47.2495 35.0931 47.882C35.0764 49.7167 35.0801 51.5525 35.104 53.3893C35.1113 53.9183 35.3774 54.1994 35.9022 54.2327C36.5582 54.2749 37.7999 54.4217 38.0451 53.6173C38.1034 53.4268 38.1685 53.2893 38.2403 53.205C38.2789 53.1581 38.2976 53.1649 38.2966 53.2253C38.2924 53.4794 38.2487 53.8724 38.1654 54.4045C38.1185 54.7065 37.9514 54.8523 37.664 54.8419C36.0896 54.7856 34.5641 54.7674 33.0876 54.7872C32.7784 54.7914 32.7653 54.7315 33.0486 54.6076C33.0965 54.5867 33.1964 54.5862 33.3485 54.606C33.377 54.6099 33.4061 54.6068 33.4332 54.597C33.4604 54.5872 33.4849 54.571 33.5046 54.5498C33.6629 54.3748 33.7452 54.1307 33.7514 53.8172C33.7972 51.3932 33.7993 49.2846 33.7577 47.4915C33.7467 46.9746 33.2094 46.923 32.8221 46.9339C32.8155 46.9341 32.8089 46.9327 32.8029 46.93C32.7968 46.9272 32.7915 46.9231 32.7873 46.918C32.7831 46.9129 32.7801 46.9069 32.7786 46.9005C32.777 46.894 32.7769 46.8873 32.7784 46.8808L32.7893 46.8355C32.7938 46.8178 32.804 46.802 32.8185 46.7907C32.8329 46.7794 32.8506 46.7732 32.869 46.7731L35.9943 46.7746C36.0105 46.7746 36.026 46.7811 36.0374 46.7925C36.0488 46.8039 36.0552 46.8194 36.0552 46.8355V46.8808C36.0551 46.8913 36.0528 46.9017 36.0483 46.9112C36.0439 46.9207 36.0374 46.9292 36.0294 46.936C36.0214 46.9428 36.0121 46.9478 36.002 46.9507C35.9919 46.9536 35.9813 46.9543 35.9709 46.9527Z" fill="white"/>
<path d="M41.4985 53.7189C41.5031 54.4655 41.8077 54.706 42.5496 54.6014C42.571 54.5987 42.5925 54.6044 42.6095 54.6173C42.6265 54.6302 42.6375 54.6492 42.6402 54.6701L42.648 54.7295C42.6489 54.7374 42.6481 54.7453 42.6457 54.7529C42.6432 54.7605 42.6392 54.7674 42.6339 54.7733C42.6286 54.7792 42.6221 54.7839 42.6148 54.7872C42.6076 54.7904 42.5997 54.792 42.5918 54.7919L39.4211 54.7873C39.2233 54.7873 39.2113 54.7362 39.3852 54.6342C39.4237 54.6113 39.5148 54.5931 39.6585 54.5795C39.9667 54.5514 40.1255 54.3754 40.1349 54.0516C40.2036 51.8722 40.2146 49.6929 40.1677 47.5135C40.1568 46.9746 39.7366 46.9434 39.318 46.9278C39.2962 46.9267 39.2842 46.9158 39.2821 46.895L39.2759 46.8403C39.275 46.8314 39.276 46.8224 39.2788 46.8139C39.2816 46.8054 39.2862 46.7976 39.2923 46.7909C39.2983 46.7843 39.3057 46.779 39.3139 46.7754C39.3221 46.7718 39.3309 46.77 39.3399 46.77L42.2966 46.7716C42.3029 46.7715 42.3093 46.7729 42.3151 46.7754C42.3209 46.778 42.3261 46.7817 42.3304 46.7865C42.3347 46.7912 42.3379 46.7967 42.3399 46.8028C42.3419 46.8088 42.3425 46.8152 42.3419 46.8216L42.3372 46.8653C42.3352 46.8889 42.3242 46.9108 42.3065 46.9265C42.2887 46.9423 42.2656 46.9505 42.2419 46.9496C41.7515 46.9257 41.5042 47.1714 41.5 47.6869C41.4823 49.6975 41.4818 51.7082 41.4985 53.7189Z" fill="white"/>
<path d="M52.2989 57.8392C48.4395 56.5538 48.5098 62.3969 52.0725 61.9017C52.7081 61.8127 52.6222 61.5972 52.9018 61.138C52.9549 61.0515 52.9804 61.0588 52.9784 61.1598C52.9742 61.3441 52.9362 61.5534 52.8643 61.7877C52.7519 62.1548 52.5629 62.1235 52.188 62.1641C51.556 62.2339 51.0249 62.2073 50.5949 62.0845C49.108 61.6596 48.5426 60.1196 49.1158 58.7701C49.7624 57.2441 51.4321 57.3379 52.8878 57.6393C52.9357 57.6487 52.9586 57.6778 52.9565 57.7268L52.9237 58.6155C52.9232 58.6259 52.919 58.6359 52.9119 58.6437C52.9048 58.6515 52.8952 58.6565 52.8849 58.6578C52.8747 58.6591 52.8644 58.6567 52.856 58.6509C52.8476 58.6452 52.8417 58.6365 52.8393 58.6264C52.7488 58.2937 52.7035 57.9751 52.2989 57.8392Z" fill="white"/>
<path d="M54.5581 61.698C54.316 61.5026 54.1154 61.2606 53.9678 60.9857C53.8201 60.7109 53.7284 60.4086 53.6978 60.0962C53.6672 59.7837 53.6983 59.4672 53.7894 59.1648C53.8805 58.8623 54.0297 58.5798 54.2286 58.3333C54.6302 57.8355 55.2097 57.5149 55.8395 57.442C56.4693 57.3691 57.0978 57.5498 57.5869 57.9444C57.829 58.1398 58.0297 58.3818 58.1773 58.6566C58.3249 58.9315 58.4166 59.2338 58.4472 59.5462C58.4778 59.8586 58.4467 60.1751 58.3556 60.4776C58.2646 60.7801 58.1154 61.0626 57.9165 61.3091C57.5148 61.8068 56.9354 62.1274 56.3056 62.2004C55.6758 62.2733 55.0472 62.0926 54.5581 61.698ZM56.3786 61.9808C56.6177 61.9476 56.8467 61.8586 57.0525 61.7188C57.2583 61.5789 57.4368 61.3911 57.5779 61.1659C57.719 60.9408 57.8199 60.6827 57.8749 60.4065C57.9298 60.1303 57.9377 59.8413 57.8981 59.556C57.8585 59.2708 57.7722 58.9949 57.6442 58.744C57.5161 58.4932 57.3487 58.2724 57.1517 58.0941C56.9546 57.9159 56.7317 57.7837 56.4956 57.7052C56.2595 57.6267 56.0149 57.6034 55.7758 57.6366C55.5367 57.6698 55.3077 57.7588 55.1019 57.8986C54.8961 58.0384 54.7176 58.2263 54.5765 58.4514C54.4354 58.6766 54.3345 58.9347 54.2796 59.2109C54.2246 59.4871 54.2167 59.7761 54.2563 60.0614C54.2959 60.3466 54.3822 60.6225 54.5102 60.8734C54.6383 61.1242 54.8057 61.345 55.0027 61.5233C55.1998 61.7015 55.4228 61.8336 55.6588 61.9121C55.8949 61.9907 56.1395 62.014 56.3786 61.9808Z" fill="white"/>
<path d="M8.16273 61.7268L8.29237 61.4972C8.35172 61.392 8.3814 61.3998 8.3814 61.5206C8.3814 61.7164 8.33923 61.9007 8.25489 62.0735C8.24524 62.0939 8.22965 62.1111 8.20998 62.1231C8.19031 62.135 8.1674 62.1411 8.14399 62.1407L6.03542 62.1141C5.9313 62.1131 5.92089 62.0808 6.00419 62.0173C6.11664 61.9309 6.18901 61.8096 6.22129 61.6534C6.22962 61.6107 6.23379 61.568 6.23379 61.5253L6.23535 57.9532C6.23533 57.9201 6.22853 57.8874 6.21536 57.857C6.2022 57.8267 6.18296 57.7994 6.15881 57.7767C6.07655 57.6997 5.9818 57.6445 5.87455 57.6112C5.86415 57.6076 5.85518 57.6007 5.84894 57.5917C5.8427 57.5826 5.83952 57.5718 5.83987 57.5608C5.84022 57.5498 5.84408 57.5392 5.85088 57.5306C5.85768 57.5219 5.86707 57.5157 5.87767 57.5128C5.93078 57.5003 5.98388 57.5044 6.03699 57.5253C6.08072 57.5419 6.12601 57.5497 6.17287 57.5487L8.12212 57.5268C8.18564 57.5258 8.21532 57.5575 8.21115 57.6221L8.1846 58.1125C8.17835 58.2125 8.1518 58.2182 8.10494 58.1297C7.86753 57.6877 7.34586 57.7627 6.91321 57.7595C6.88834 57.7593 6.86367 57.7641 6.84064 57.7735C6.81762 57.7829 6.7967 57.7968 6.77911 57.8144C6.76152 57.832 6.74761 57.8529 6.73818 57.876C6.72876 57.899 6.72402 57.9237 6.72422 57.9485L6.73828 59.4495C6.73819 59.4706 6.74254 59.4914 6.75105 59.5107C6.75956 59.5301 6.77204 59.5475 6.78773 59.5618C6.80342 59.5762 6.82196 59.5872 6.84221 59.5942C6.86246 59.6013 6.88397 59.6041 6.9054 59.6026L8.07371 59.5073C8.11223 59.5042 8.12993 59.5219 8.12681 59.5604L8.09089 60.0665C8.09029 60.0767 8.08649 60.0864 8.08002 60.0943C8.07355 60.1022 8.06475 60.1079 8.05487 60.1105C8.04499 60.1131 8.03455 60.1125 8.02502 60.1088C8.0155 60.1051 8.00739 60.0985 8.00186 60.0899C7.74414 59.6947 7.25527 59.7744 6.84917 59.7853C6.8174 59.7861 6.78721 59.7995 6.76503 59.8226C6.74285 59.8456 6.73045 59.8765 6.73047 59.9087L6.73203 61.5784C6.73209 61.6339 6.75006 61.6879 6.78326 61.7323C6.81647 61.7768 6.86314 61.8094 6.91634 61.8252C7.29432 61.9387 7.67021 61.9376 8.04403 61.8221C8.09406 61.8071 8.1366 61.773 8.16273 61.7268Z" fill="white"/>
<path d="M12.369 58.1453C12.3679 59.2011 12.3747 60.3413 12.3893 61.5658C12.3924 61.8735 12.5533 62.0282 12.8532 62.0188C12.8552 62.0188 12.8572 62.0196 12.8587 62.0211C12.8601 62.0226 12.861 62.0245 12.861 62.0266L12.8594 62.0703C12.859 62.0829 12.8537 62.0948 12.8447 62.1036C12.8356 62.1123 12.8236 62.1172 12.811 62.1172L11.6567 62.1203C11.5797 62.1203 11.5708 62.0953 11.6302 62.0454C11.7942 61.9095 11.8863 61.7939 11.8879 61.5643C11.8983 60.3606 11.8905 59.1579 11.8645 57.9563C11.8614 57.8147 11.7442 57.6965 11.513 57.6017C11.4568 57.5788 11.4521 57.5476 11.499 57.508C11.5313 57.482 11.5776 57.4825 11.638 57.5096C11.6849 57.5304 11.7265 57.5414 11.7629 57.5424C12.4783 57.5549 13.4717 57.3487 14.0433 57.9188C14.3099 58.1833 14.3958 58.5175 14.301 58.9216C14.124 59.6713 13.6195 60.0508 12.7876 60.0602C12.7761 60.0602 12.7699 60.0544 12.7688 60.043L12.7626 59.9977C12.7594 59.9685 12.7725 59.9524 12.8016 59.9493C13.5982 59.8597 13.947 59.4229 13.8481 58.6388C13.7971 58.2348 13.58 57.9636 13.1968 57.8251L12.95 57.7376C12.5626 57.5981 12.369 57.734 12.369 58.1453Z" fill="white"/>
<path d="M16.1737 59.9101L16.1862 61.5892C16.1868 61.6401 16.2034 61.6896 16.2337 61.7305C16.264 61.7714 16.3064 61.8018 16.3549 61.8172C16.7532 61.9453 17.5029 62.0234 17.7122 61.547C17.783 61.3867 17.8215 61.394 17.8278 61.5689C17.833 61.6782 17.8017 61.8209 17.7341 61.9968C17.7166 62.0413 17.6861 62.0793 17.6467 62.1058C17.6074 62.1324 17.561 62.1461 17.5138 62.1452L15.4459 62.1171C15.4362 62.117 15.4269 62.1138 15.4191 62.1081C15.4114 62.1023 15.4057 62.0942 15.403 62.0849C15.4002 62.0757 15.4004 62.0658 15.4036 62.0567C15.4069 62.0476 15.4129 62.0397 15.4209 62.0343C15.5833 61.9266 15.6755 61.7719 15.677 61.5626C15.6843 60.3912 15.6843 59.2203 15.677 58.0499C15.6755 57.7813 15.5396 57.6532 15.2928 57.6063C15.2689 57.6022 15.2579 57.5876 15.26 57.5626V57.561C15.2621 57.5454 15.2788 57.5376 15.31 57.5376L17.5654 57.5314C17.6174 57.5314 17.6471 57.5574 17.6544 57.6095C17.6763 57.7792 17.6653 57.9484 17.6216 58.1171C17.6029 58.1921 17.5753 58.1952 17.5388 58.1265L17.4264 57.914C17.4116 57.8867 17.3901 57.8636 17.3639 57.8466C17.3377 57.8297 17.3076 57.8196 17.2764 57.8172L16.3721 57.7485C16.3469 57.7465 16.3216 57.7498 16.2978 57.758C16.274 57.7662 16.2521 57.7793 16.2336 57.7963C16.2151 57.8133 16.2004 57.834 16.1904 57.8569C16.1803 57.8799 16.1752 57.9046 16.1753 57.9297L16.1784 59.4369C16.1784 59.4582 16.1827 59.4792 16.1911 59.4987C16.1996 59.5182 16.212 59.5358 16.2275 59.5503C16.243 59.5648 16.2614 59.5759 16.2814 59.583C16.3015 59.5901 16.3228 59.593 16.344 59.5915L17.4998 59.515C17.5425 59.5119 17.5633 59.5322 17.5623 59.5759L17.5513 60.0273C17.5496 60.0445 17.5418 60.0606 17.5293 60.0725C17.5167 60.0844 17.5003 60.0914 17.483 60.0921C17.4657 60.0929 17.4487 60.0874 17.4351 60.0766C17.4216 60.0658 17.4124 60.0505 17.4092 60.0335C17.3946 59.9065 17.2884 59.8289 17.0906 59.8008C16.8115 59.7612 16.534 59.7638 16.2581 59.8086C16.2008 59.818 16.1727 59.8518 16.1737 59.9101Z" fill="white"/>
<path d="M24.0098 58.5966C24.0286 59.4588 24.0582 60.3548 24.0988 61.2847C24.1145 61.6642 24.0676 61.9329 24.5174 62.0438C24.5383 62.049 24.5466 62.0615 24.5424 62.0812C24.5393 62.0989 24.5315 62.112 24.519 62.1203C24.5117 62.1255 24.5013 62.1281 24.4878 62.1281C24.0796 62.1156 23.4996 62.1172 22.7478 62.1328C21.9075 62.1515 21.1937 60.8723 20.7626 60.2601C20.749 60.2406 20.731 60.2246 20.7101 60.2132C20.6893 60.2018 20.6661 60.1954 20.6423 60.1945L19.9254 60.1554C19.8702 60.1523 19.8432 60.1778 19.8442 60.2319L19.8583 61.6751C19.8593 61.7463 19.8834 61.8151 19.9271 61.8712C19.9708 61.9273 20.0317 61.9676 20.1004 61.986L20.2925 62.0375C20.3023 62.0402 20.3107 62.0464 20.3163 62.0549C20.3219 62.0634 20.3243 62.0736 20.3229 62.0836C20.3216 62.0937 20.3167 62.103 20.3091 62.1097C20.3015 62.1164 20.2917 62.1202 20.2816 62.1203L19.1164 62.1219C19.0372 62.1219 19.0294 62.0984 19.0929 62.0516C19.1815 61.987 19.2559 61.9089 19.3163 61.8173C19.3475 61.7694 19.3637 61.7173 19.3647 61.6611C19.3855 60.4532 19.3881 59.2459 19.3725 58.039C19.3694 57.7673 19.2054 57.6314 18.9524 57.6204C18.9504 57.6205 18.9485 57.6201 18.9467 57.6193C18.9449 57.6186 18.9434 57.6175 18.9422 57.6161C18.941 57.6147 18.9401 57.6131 18.9397 57.6114C18.9393 57.6098 18.9394 57.608 18.9399 57.6064L18.9461 57.5642C18.9524 57.5288 18.9732 57.5127 19.0086 57.5158C19.3939 57.5564 19.7812 57.559 20.1707 57.5236C21.8466 57.3705 22.3729 58.7856 21.2312 59.9336C21.2009 59.9637 21.1826 60.0039 21.1797 60.0467C21.1769 60.0895 21.1896 60.132 21.2156 60.1663C21.5967 60.6693 22.0059 61.166 22.4432 61.6564C22.7041 61.9485 23.699 62.3639 23.7099 61.5877C23.7297 60.2351 23.7396 58.9241 23.7396 57.6548C23.7396 57.4549 23.8078 57.4289 23.9442 57.5767L27.1477 61.0598C27.3174 61.243 27.3991 61.2097 27.3929 60.9598L27.3179 57.9047C27.3175 57.8776 27.3106 57.8509 27.2979 57.8268C27.2851 57.8027 27.2668 57.7817 27.2445 57.7657C27.1362 57.6876 27.0165 57.6309 26.8853 57.5955C26.8665 57.5903 26.8582 57.5778 26.8603 57.558L26.865 57.5158C26.866 57.5116 26.8686 57.5096 26.8728 57.5096C27.2268 57.5481 27.5834 57.5522 27.9427 57.522C27.9527 57.521 27.9629 57.5234 27.9714 57.5288C27.98 57.5342 27.9865 57.5423 27.9899 57.5518C27.9933 57.5614 27.9935 57.5717 27.9903 57.5814C27.9871 57.591 27.9808 57.5992 27.9724 57.6048L27.7428 57.761C27.7001 57.7912 27.6787 57.8318 27.6787 57.8828L27.6662 62.0531C27.6663 62.0742 27.6601 62.0948 27.6483 62.1122C27.6365 62.1296 27.6197 62.1431 27.6001 62.1509C27.5806 62.1586 27.5591 62.1603 27.5386 62.1557C27.5181 62.1511 27.4994 62.1404 27.485 62.125L24.141 58.5435C24.0504 58.4467 24.0067 58.4644 24.0098 58.5966ZM19.813 58.0125L19.8614 59.7509C19.8622 59.7862 19.87 59.8209 19.8842 59.8532C19.8985 59.8855 19.919 59.9147 19.9445 59.939C19.97 59.9634 20.0001 59.9825 20.033 59.9952C20.0659 60.008 20.101 60.0141 20.1363 60.0133L20.458 60.0039C20.5808 60.0005 20.7015 59.9711 20.8135 59.9174C20.9255 59.8637 21.0264 59.7867 21.1105 59.6908C21.1947 59.5949 21.2603 59.482 21.3038 59.3586C21.3473 59.2352 21.3677 59.1036 21.3639 58.9715L21.3561 58.706C21.3487 58.4395 21.2433 58.1868 21.0632 58.0031C20.8831 57.8195 20.643 57.7201 20.3956 57.7267L20.0738 57.736C20.0385 57.737 20.0038 57.745 19.9716 57.7594C19.9394 57.7739 19.9103 57.7945 19.8861 57.8202C19.8619 57.8459 19.843 57.8761 19.8304 57.9091C19.8179 57.9421 19.8119 57.9772 19.813 58.0125Z" fill="white"/>
<path d="M31.2492 60.3445L29.984 60.3179C29.9617 60.3174 29.9397 60.3237 29.9213 60.336C29.9028 60.3483 29.8887 60.366 29.8809 60.3866C29.7216 60.7875 29.581 61.1884 29.4592 61.5893C29.4139 61.7408 29.4061 61.9438 29.567 62.0094C29.5783 62.0144 29.5876 62.0231 29.5934 62.0341C29.5991 62.0451 29.6009 62.0577 29.5986 62.0699C29.5962 62.082 29.5898 62.093 29.5804 62.1011C29.5709 62.1091 29.5591 62.1137 29.5467 62.1141L28.5658 62.1219C28.5539 62.1219 28.5425 62.1194 28.5338 62.1148C28.5252 62.1102 28.5199 62.1038 28.5189 62.0969V62.0953C28.5169 62.0735 28.5268 62.0605 28.5486 62.0563C28.8475 61.9969 29.0328 61.8631 29.1047 61.6549C29.5743 60.2981 30.0621 58.9481 30.5682 57.6049C30.5879 57.5539 30.6207 57.5148 30.6666 57.4877C30.6717 57.4846 30.6774 57.4826 30.6834 57.4819C30.6893 57.4813 30.6954 57.4819 30.701 57.4839C30.7067 57.4858 30.7119 57.489 30.7162 57.4932C30.7205 57.4973 30.7238 57.5024 30.7259 57.508C31.208 58.7951 31.7005 60.0769 32.2035 61.3534C32.3493 61.7241 32.571 61.9532 32.8688 62.0407C32.8886 62.0459 32.8975 62.0589 32.8954 62.0797C32.8933 62.0974 32.8865 62.111 32.8751 62.1203C32.8678 62.1266 32.8569 62.1297 32.8423 62.1297C32.5424 62.1224 32.2436 62.1188 31.9458 62.1188C31.9403 62.1188 31.935 62.1172 31.9306 62.1141C31.9261 62.111 31.9227 62.1067 31.9208 62.1016L31.3397 60.4101C31.3333 60.3913 31.3212 60.3749 31.305 60.3632C31.2888 60.3514 31.2693 60.3449 31.2492 60.3445ZM29.9887 60.0258C29.9855 60.0359 29.9847 60.0466 29.9864 60.057C29.9881 60.0674 29.9923 60.0773 29.9985 60.0858C30.0048 60.0943 30.0129 60.1013 30.0223 60.106C30.0318 60.1108 30.0422 60.1133 30.0527 60.1133L31.1133 60.1117C31.124 60.1118 31.1346 60.1093 31.1442 60.1045C31.1538 60.0996 31.1621 60.0925 31.1683 60.0838C31.1746 60.0751 31.1787 60.065 31.1803 60.0543C31.1818 60.0437 31.1808 60.0329 31.1773 60.0227L30.6447 58.4233C30.6404 58.4097 30.6319 58.3978 30.6204 58.3894C30.6088 58.3809 30.5949 58.3764 30.5807 58.3764C30.5664 58.3764 30.5525 58.3809 30.541 58.3894C30.5295 58.3978 30.5209 58.4097 30.5166 58.4233L29.9887 60.0258Z" fill="white"/>
<path d="M36.2254 61.2831L37.9513 57.6252C38.0554 57.4044 38.12 57.4153 38.145 57.658C38.272 58.9137 38.4105 60.2242 38.5605 61.5893C38.5927 61.8787 38.7906 62.0183 39.154 62.0079C39.1636 62.0079 39.1731 62.0108 39.1812 62.0164C39.1892 62.022 39.1955 62.0299 39.1993 62.0391L39.2149 62.0844C39.2164 62.0884 39.2169 62.0928 39.2164 62.097C39.2159 62.1013 39.2143 62.1054 39.2118 62.1089C39.2094 62.1125 39.2061 62.1153 39.2023 62.1173C39.1985 62.1193 39.1942 62.1203 39.1899 62.1203L38.1684 62.1016C38.1216 62.1005 38.0961 62.0766 38.0919 62.0297L37.8342 58.9325C37.8123 58.669 37.7451 58.657 37.6327 58.8965L36.1754 62.0172C36.1667 62.0366 36.1526 62.053 36.1349 62.0646C36.1171 62.0761 36.0964 62.0824 36.0752 62.0825C36.054 62.0827 36.0332 62.0768 36.0152 62.0655C35.9973 62.0542 35.983 62.038 35.9739 62.0188L34.4542 58.8341C34.3782 58.6737 34.3345 58.6826 34.323 58.8606C34.2668 59.754 34.1887 60.662 34.0887 61.5846C34.0679 61.771 34.1726 61.9308 34.4027 62.0641C34.4704 62.1036 34.4646 62.1234 34.3855 62.1234L33.4843 62.1172C33.4759 62.1168 33.4678 62.1138 33.4612 62.1086C33.4546 62.1034 33.4498 62.0963 33.4474 62.0882C33.445 62.0802 33.4451 62.0716 33.4478 62.0636C33.4505 62.0556 33.4556 62.0487 33.4624 62.0438C33.6327 61.9329 33.7389 61.8392 33.7607 61.6205C33.893 60.2585 34.0372 58.9309 34.1934 57.6376C34.2184 57.4284 34.2767 57.4185 34.3683 57.608L36.1473 61.2831C36.151 61.2904 36.1565 61.2964 36.1634 61.3007C36.1703 61.3049 36.1783 61.3072 36.1864 61.3072C36.1945 61.3072 36.2024 61.3049 36.2093 61.3007C36.2162 61.2964 36.2218 61.2904 36.2254 61.2831Z" fill="white"/>
<path d="M42.0857 59.6229C43.5398 60.243 43.1072 62.0454 41.6452 62.1282C41.337 62.1449 40.8481 62.1386 40.1786 62.1095C40.1307 62.1074 40.1234 62.0892 40.1567 62.0548C40.314 61.8944 40.3942 61.6612 40.3973 61.3551C40.4087 60.2482 40.4093 59.1419 40.3988 58.036C40.3957 57.7643 40.2489 57.6534 40.0052 57.6034C39.9855 57.5992 39.9766 57.5872 39.9787 57.5675L39.9849 57.519C39.987 57.5107 39.9922 57.5071 40.0006 57.5081C40.3192 57.5466 40.7117 57.5503 41.1782 57.519C41.9607 57.4675 42.762 57.9782 42.434 58.867C42.3575 59.0731 42.1685 59.2543 42.0388 59.4839C42.032 59.496 42.0278 59.5093 42.0265 59.5231C42.0252 59.5369 42.0268 59.5508 42.0312 59.5639C42.0356 59.577 42.0427 59.5891 42.0521 59.5992C42.0615 59.6094 42.073 59.6175 42.0857 59.6229ZM40.8393 57.9517L40.8877 59.334C40.8898 59.3905 40.9141 59.4438 40.9553 59.4825C40.9966 59.5211 41.0514 59.5418 41.1079 59.5401L41.3938 59.5308C41.487 59.5277 41.5786 59.5032 41.6633 59.4587C41.748 59.4141 41.8242 59.3504 41.8874 59.2712C41.9507 59.192 41.9998 59.0988 42.0319 58.997C42.0641 58.8952 42.0786 58.7868 42.0748 58.678L42.0685 58.5233C42.0609 58.304 41.979 58.0961 41.8407 57.9456C41.7025 57.795 41.5192 57.7141 41.3313 57.7205L41.0455 57.7299C41.0174 57.7309 40.9897 57.7374 40.9642 57.7491C40.9386 57.7608 40.9156 57.7775 40.8964 57.7981C40.8773 57.8187 40.8624 57.8428 40.8526 57.8692C40.8428 57.8955 40.8383 57.9236 40.8393 57.9517ZM42.1529 61.7659C42.7979 61.2879 42.3825 59.8619 41.6468 59.7526C41.4396 59.7224 41.235 59.6979 41.033 59.6791C41.0116 59.6774 40.9902 59.6801 40.9699 59.687C40.9497 59.6939 40.9311 59.7049 40.9154 59.7193C40.8997 59.7337 40.8872 59.7512 40.8787 59.7706C40.8701 59.79 40.8658 59.811 40.8658 59.8322L40.8752 61.5862C40.8752 61.6466 40.8976 61.6971 40.9424 61.7377C41.261 62.0282 41.8436 61.9955 42.1529 61.7659Z" fill="white"/>
<path d="M44.7363 57.8922C44.7103 59.3344 44.7129 60.2606 44.7441 60.6708C44.8738 62.4342 47.2603 62.3811 47.3712 60.7177C47.3983 60.322 47.4077 59.388 47.3993 57.9156C47.3983 57.7428 47.2728 57.6439 47.0229 57.6189C47.0136 57.6178 47.0084 57.6126 47.0073 57.6033L46.9979 57.5548C46.9959 57.5413 47.0016 57.5345 47.0151 57.5345L48.0553 57.5439C48.0647 57.5443 48.0737 57.5478 48.081 57.5537C48.0882 57.5597 48.0934 57.5678 48.0955 57.5768C48.0977 57.5858 48.0967 57.5951 48.0929 57.6033C48.089 57.6115 48.0824 57.6181 48.0741 57.622C47.9606 57.6762 47.8638 57.7506 47.7836 57.8454C47.7545 57.8796 47.7394 57.9231 47.7414 57.9672C47.8257 59.8399 48.1288 62.3921 45.7469 62.2015C44.641 62.1125 44.2099 61.255 44.2037 60.2601C44.1995 59.5405 44.2016 58.821 44.2099 58.1015C44.2146 57.7938 44.0803 57.6486 43.7867 57.6064C43.7842 57.606 43.7818 57.6051 43.7797 57.6038C43.7776 57.6025 43.7757 57.6008 43.7742 57.5988C43.7728 57.5967 43.7718 57.5944 43.7712 57.592C43.7707 57.5895 43.7706 57.587 43.7711 57.5845L43.7773 57.5361C43.7815 57.5101 43.7966 57.4991 43.8226 57.5033C44.2027 57.5699 44.5832 57.572 44.9643 57.5096C44.9755 57.507 44.9873 57.5084 44.9976 57.5135C45.0078 57.5186 45.0161 57.5271 45.0208 57.5376C45.0256 57.548 45.0266 57.5598 45.0237 57.5709C45.0208 57.582 45.0142 57.5918 45.005 57.5986L44.7988 57.7657C44.7582 57.798 44.7373 57.8402 44.7363 57.8922Z" fill="white"/>
<path d="M0.598446 57.722C0.565126 57.7147 0.532326 57.6908 0.500047 57.6502C0.46152 57.6023 0.472453 57.5757 0.532847 57.5705C1.38096 57.4955 2.37901 57.4471 3.20526 57.6548C4.76872 58.0469 5.19981 59.74 4.48914 61.0286C3.65977 62.5295 1.98698 62.1281 0.542218 62.1172C0.48599 62.1172 0.476618 62.0964 0.514104 62.0547C0.799932 61.7392 0.731208 61.4831 0.737456 61.0895C0.756199 60.043 0.754636 58.9757 0.73277 57.8876C0.730687 57.797 0.685913 57.7418 0.598446 57.722ZM3.58949 58.3296C2.97878 57.7767 2.16503 57.6595 1.36065 57.7673C1.32915 57.7715 1.30022 57.7871 1.27925 57.8112C1.25828 57.8353 1.24669 57.8663 1.24663 57.8985C1.24768 59.0522 1.25288 60.2132 1.26225 61.3815C1.26538 61.6627 1.33566 61.8486 1.62305 61.9017C2.05414 61.9808 2.48106 61.974 2.90381 61.8814C4.61097 61.5065 4.64533 59.2823 3.58949 58.3296Z" fill="white"/>
</svg>
